<svg viewBox="0 0 401.89 105.99" xmlns="http://www.w3.org/2000/svg"><rect fill="#fff" height="105.49" rx="12" stroke="#0a97b7" stroke-width=".5" width="401.39" x=".25" y=".25"/><g fill="#0a97b7"><path d="m9.92 14.9h11.85v3h-8.65v3.6h7.2v2.9h-7.2v6.87h-3.2z"/><path d="m26.05 14.9h3.2v13.4h8.55v2.95h-11.75z"/><path d="m41.62 24.75v-9.85h3.2v9.85c0 2.43 1.25 3.88 3.73 3.88s3.75-1.45 3.75-3.88v-9.85h3.12v9.85c0 4.18-2.45 6.82-6.85 6.82s-6.95-2.57-6.95-6.82z"/><path d="m67.92 26.53h3.13c0 1.3 1 2.17 3 2.17s3-.87 3-2.17-1.53-1.7-3.3-2c-2.48-.45-5.4-1-5.4-4.77 0-3 2.3-5.15 5.77-5.15s5.65 2 5.78 5h-3c0-1.25-1-2.15-2.72-2.15s-2.7 1-2.7 2.18c0 1.42 1.52 1.7 3.3 2 2.47.45 5.42 1 5.42 4.78 0 3.17-2.42 5.14-6.07 5.14s-6.13-1.91-6.21-5.03z"/><path d="m84.47 14.9h12v3h-8.8v3.65h7.4v2.85h-7.4v3.9h8.85v2.95h-12z"/><path d="m100.82 21.68c0-4.38 2.5-7.1 7.13-7.1s7.17 2.72 7.17 7.1v9.57h-3.2v-4.9h-8v4.9h-3.13zm11.1 1.77v-1.77c0-2.63-1.3-4.13-4-4.13s-4 1.5-4 4.13v1.77z"/><path d="m119.12 26.53h3.13c0 1.3 1 2.17 3 2.17s3-.87 3-2.17-1.53-1.7-3.3-2c-2.48-.45-5.4-1-5.4-4.77 0-3 2.3-5.15 5.77-5.15s5.65 2 5.77 5h-3c0-1.25-1-2.15-2.72-2.15s-2.7 1-2.7 2.18c0 1.42 1.52 1.7 3.3 2 2.47.45 5.42 1 5.42 4.78 0 3.17-2.42 5.14-6.07 5.14s-6.12-1.91-6.2-5.03z"/><path d="m134.85 23.08a8.7 8.7 0 0 1 17.39 0 8.7 8.7 0 0 1 -17.39 0zm14.14 0a5.45 5.45 0 1 0 -10.89 0 5.45 5.45 0 1 0 10.89 0z"/><path d="m156.27 21.4c0-4.2 2.48-6.82 6.95-6.82s6.95 2.62 6.95 6.82v9.85h-3.17v-9.85c0-2.42-1.25-3.85-3.75-3.85s-3.75 1.43-3.75 3.85v9.85h-3.2z"/><path d="m9.16 53.11h.94v8.5h-.94z"/><path d="m12.06 59.8h.88c0 .69.67 1.19 1.74 1.19s1.75-.52 1.75-1.21-.82-.87-1.75-1c-1.15-.14-2.47-.33-2.47-1.74 0-1.21.95-2 2.46-2s2.43.83 2.46 1.92h-.86c0-.63-.62-1.13-1.61-1.13s-1.57.5-1.57 1.16.83.88 1.74 1 2.48.29 2.48 1.74c0 1.22-1 2.07-2.63 2.07s-2.58-.87-2.62-2z"/><path d="m22.86 58.44a3.3 3.3 0 0 1 3.46-3.44 3.27 3.27 0 0 1 3.44 3.42v3.17h-.76v-1.59a2.84 2.84 0 0 1 -2.77 1.76 3.23 3.23 0 0 1 -3.37-3.32zm6 0a2.57 2.57 0 1 0 -2.54 2.56 2.48 2.48 0 0 0 2.57-2.6z"/><path d="m31.94 52.38h.87v9.23h-.87z"/><path d="m35 57.85a2.5 2.5 0 0 1 2.58-2.85 2.38 2.38 0 0 1 2.31 1.44 2.37 2.37 0 0 1 2.32-1.44 2.5 2.5 0 0 1 2.6 2.83v3.76h-.88v-3.74c0-1.36-.75-2-1.79-2a1.78 1.78 0 0 0 -1.81 2v3.76h-.87v-3.76a1.79 1.79 0 0 0 -1.82-2c-1 0-1.79.67-1.79 2v3.76h-.85z"/><path d="m46.47 58.4a3.46 3.46 0 1 1 3.46 3.38 3.3 3.3 0 0 1 -3.46-3.38zm6 0a2.58 2.58 0 1 0 -2.54 2.6 2.48 2.48 0 0 0 2.57-2.6z"/><path d="m54.83 59.8h.88c0 .69.66 1.19 1.74 1.19s1.75-.52 1.75-1.21-.82-.87-1.75-1c-1.15-.13-2.45-.32-2.45-1.73 0-1.21 1-2 2.46-2s2.43.83 2.46 1.92h-.92c0-.63-.62-1.13-1.61-1.13s-1.58.5-1.58 1.16.84.88 1.75 1 2.48.29 2.48 1.74c0 1.22-1 2.07-2.63 2.07s-2.54-.88-2.58-2.01z"/><path d="m61.78 59.24v-6.33h.87v2.28h3.79v.81h-3.79v3.26a1.66 1.66 0 1 0 3.31 0v-.16h.84v.14a2.51 2.51 0 1 1 -5 0z"/><path d="m72.86 52.38h.87v4.06a2.53 2.53 0 0 1 2.43-1.44 2.89 2.89 0 0 1 3 3.24v3.35h-.87v-3.33a2.3 2.3 0 1 0 -4.6 0v3.35h-.87z"/><path d="m80.87 58.4a3.45 3.45 0 0 1 6.89 0v.28h-6a2.44 2.44 0 0 0 2.56 2.32 2.4 2.4 0 0 0 2.22-1.15h.94a3.48 3.48 0 0 1 -6.61-1.42zm6-.5a2.58 2.58 0 0 0 -5.06 0z"/><path d="m89.42 57.76a2.7 2.7 0 1 1 5.4 0v.08h-.82v-.09a1.84 1.84 0 1 0 -3.67 0v3.85h-.87z"/><path d="m96.06 58.4a3.45 3.45 0 0 1 6.89 0v.28h-5.95a2.44 2.44 0 0 0 2.52 2.32 2.37 2.37 0 0 0 2.21-1.15h1a3.49 3.49 0 0 1 -6.62-1.42zm6-.5a2.57 2.57 0 0 0 -5.05 0z"/><path d="m105 61.74a.62.62 0 0 1 -.45-.62.66.66 0 1 1 1.31 0 1.17 1.17 0 0 1 -.08.36l-.69 1.74h-.52z"/><path d="m112.18 58.44a3.27 3.27 0 0 1 3.44-3.44 3.31 3.31 0 0 1 3.47 3.4 3.24 3.24 0 0 1 -3.33 3.36 2.9 2.9 0 0 1 -2.71-1.55v4.12h-.87zm6 0a2.58 2.58 0 1 0 -2.55 2.56 2.48 2.48 0 0 0 2.57-2.6z"/><path d="m120.75 57.76a2.7 2.7 0 1 1 5.4 0v.08h-.86v-.09a1.84 1.84 0 1 0 -3.67 0v3.85h-.87z"/><path d="m127.39 58.4a3.45 3.45 0 0 1 6.89 0v.28h-6a2.44 2.44 0 0 0 2.57 2.32 2.37 2.37 0 0 0 2.21-1.15h.94a3.49 3.49 0 0 1 -6.62-1.42zm6-.5a2.57 2.57 0 0 0 -5.05 0z"/><path d="m135.27 55.19h1l2.44 5.59 2.44-5.59h1l-2.88 6.42h-1z"/><path d="m143.07 58.4a3.45 3.45 0 0 1 6.89 0v.28h-6a2.44 2.44 0 0 0 2.57 2.32 2.4 2.4 0 0 0 2.21-1.15h.95a3.49 3.49 0 0 1 -6.62-1.42zm6-.5a2.58 2.58 0 0 0 -5.06 0z"/><path d="m151.63 58.26a3.17 3.17 0 1 1 6.34 0v3.35h-.87v-3.35a2.3 2.3 0 1 0 -4.6 0v3.35h-.87z"/><path d="m159.89 59.24v-6.33h.87v2.28h3.79v.81h-3.79v3.26a1.66 1.66 0 1 0 3.31 0v-.16h.84v.14a2.51 2.51 0 1 1 -5 0z"/><path d="m170.77 53.28a.67.67 0 1 1 .67.66.66.66 0 0 1 -.67-.66zm.24 1.91h.87v6.42h-.88z"/><path d="m174 59.24v-6.33h.87v2.28h3.78v.81h-3.78v3.26a1.65 1.65 0 1 0 3.3 0v-.16h.85v.14a2.51 2.51 0 1 1 -5 0z"/><path d="m184.9 58.94v-3.75h.88v3.75c0 1.37.75 2 1.79 2a1.79 1.79 0 0 0 1.82-2v-3.75h.87v3.75a1.78 1.78 0 0 0 1.81 2c1 0 1.79-.66 1.79-2v-3.75h.87v3.75a2.51 2.51 0 0 1 -2.6 2.84 2.38 2.38 0 0 1 -2.31-1.44 2.42 2.42 0 0 1 -2.32 1.44 2.51 2.51 0 0 1 -2.6-2.84z"/><path d="m196.67 53.28a.67.67 0 1 1 .66.66.66.66 0 0 1 -.66-.66zm.23 1.91h.87v6.42h-.87z"/><path d="m199.93 59.24v-6.33h.87v2.28h3.79v.81h-3.79v3.26a1.66 1.66 0 1 0 3.31 0v-.16h.89v.14a2.51 2.51 0 1 1 -5 0z"/><path d="m206.9 52.38h.87v4.06a2.54 2.54 0 0 1 2.43-1.44 2.89 2.89 0 0 1 3 3.24v3.35h-.87v-3.33a2.3 2.3 0 1 0 -4.6 0v3.35h-.87z"/><path d="m219 58.44a3.45 3.45 0 0 1 6.9 0v3.17h-.81v-1.61a2.83 2.83 0 0 1 -2.77 1.76 3.22 3.22 0 0 1 -3.32-3.32zm6 0a2.58 2.58 0 1 0 -2.53 2.56 2.48 2.48 0 0 0 2.58-2.6z"/><path d="m232 58.36v-6h.87v4.19a2.88 2.88 0 0 1 2.66-1.55 3.23 3.23 0 0 1 3.32 3.35 3.31 3.31 0 0 1 -3.47 3.41 3.26 3.26 0 0 1 -3.38-3.4zm6 0a2.58 2.58 0 1 0 -2.6 2.64 2.48 2.48 0 0 0 2.6-2.6z"/><path d="m240.26 58.4a3.46 3.46 0 1 1 3.46 3.38 3.3 3.3 0 0 1 -3.46-3.38zm6 0a2.58 2.58 0 1 0 -2.54 2.6 2.48 2.48 0 0 0 2.57-2.6z"/><path d="m248.58 58.4a3.46 3.46 0 1 1 3.42 3.38 3.3 3.3 0 0 1 -3.42-3.38zm6 0a2.58 2.58 0 1 0 -2.58 2.6 2.48 2.48 0 0 0 2.61-2.6z"/><path d="m256.94 59.8h.88c0 .69.66 1.19 1.74 1.19s1.74-.52 1.74-1.21-.81-.87-1.74-1c-1.15-.14-2.47-.33-2.47-1.74 0-1.21 1-2 2.46-2s2.43.83 2.46 1.92h-.86c0-.63-.63-1.13-1.61-1.13s-1.54.48-1.54 1.17.84.88 1.75 1 2.48.29 2.48 1.74c0 1.22-1 2.07-2.63 2.07s-2.6-.88-2.66-2.01z"/><path d="m263.89 59.24v-6.33h.87v2.28h3.79v.81h-3.79v3.26a1.65 1.65 0 1 0 3.3 0v-.16h.85v.14a2.51 2.51 0 1 1 -5 0z"/><path d="m270.39 58.4a3.45 3.45 0 0 1 6.89 0v.28h-6a2.44 2.44 0 0 0 2.57 2.32 2.4 2.4 0 0 0 2.21-1.15h.94a3.49 3.49 0 0 1 -6.62-1.42zm6-.5a2.58 2.58 0 0 0 -5.06 0z"/><path d="m279 57.76a2.7 2.7 0 1 1 5.39 0v.08h-.86v-.09a1.83 1.83 0 1 0 -3.66 0v3.85h-.87z"/><path d="m289.74 59.8h.88c0 .69.66 1.19 1.74 1.19s1.74-.52 1.74-1.21-.82-.87-1.74-1c-1.16-.14-2.47-.33-2.47-1.74 0-1.21.95-2 2.46-2s2.43.83 2.46 1.92h-.81c0-.63-.63-1.13-1.62-1.13s-1.57.5-1.57 1.16.83.88 1.74 1 2.49.29 2.49 1.74c0 1.22-1 2.07-2.63 2.07s-2.64-.87-2.67-2z"/><path d="m296.9 52.38h.87v4.06a2.53 2.53 0 0 1 2.43-1.44 2.89 2.89 0 0 1 3 3.24v3.35h-.87v-3.33a2.3 2.3 0 1 0 -4.6 0v3.35h-.87z"/><path d="m304.91 58.4a3.46 3.46 0 1 1 3.45 3.38 3.3 3.3 0 0 1 -3.45-3.38zm6 0a2.58 2.58 0 1 0 -2.55 2.6 2.48 2.48 0 0 0 2.58-2.6z"/><path d="m313.49 59.24v-6.33h.87v2.28h3.78v.81h-3.78v3.26a1.65 1.65 0 1 0 3.3 0v-.16h.84v.14a2.51 2.51 0 1 1 -5 0z"/></g><path d="m9.08 89.21c0-2.8 1.63-4 3.75-4a3.27 3.27 0 0 1 2.89 1.44 3.3 3.3 0 0 1 2.9-1.44c2.11 0 3.75 1.25 3.75 4v6.62h-2.6v-6.62c0-1.22-.59-1.65-1.37-1.65s-1.4.44-1.4 1.65v6.62h-2.57v-6.62c0-1.22-.61-1.65-1.38-1.65s-1.37.43-1.37 1.65v6.62h-2.6z" fill="#31c4c3"/><path d="m24.81 89.75c0-2.85 1.62-4.59 4.59-4.59s4.6 1.74 4.6 4.59v6.08h-2.56v-3h-4.1v3h-2.53zm6.63.87v-.87c0-1.44-.63-2.19-2.05-2.19s-2.05.75-2.05 2.19v.87z" fill="#31c4c3"/><path d="m36.73 85.37h2.59v4.27l3-4.27h3.21l-4 5.12 4.12 5.34h-3.21l-3.12-4.4v4.4h-2.59z" fill="#31c4c3"/><path d="m47.75 85.37h7.74v2.4h-5.14v1.71h4.21v2.08h-4.21v1.87h5.14v2.4h-7.74z" fill="#31c4c3"/><path d="m66 91.5-3.8-6.13h3.06l2.06 3.68 2.07-3.68h3l-3.76 6v4.41h-2.63z" fill="#31c4c3"/><path d="m72.63 90.6a5.57 5.57 0 1 1 5.57 5.4 5.31 5.31 0 0 1 -5.57-5.4zm8.52 0a2.95 2.95 0 1 0 -3 3 2.86 2.86 0 0 0 3-3z" fill="#31c4c3"/><path d="m86 91.64v-6.27h2.59v6.27c0 1.28.59 2 1.87 2s1.91-.7 1.91-2v-6.27h2.53v6.27a4.05 4.05 0 0 1 -4.47 4.36c-2.88 0-4.43-1.65-4.43-4.36z" fill="#31c4c3"/><path d="m97.53 85.37h4.24c2.77 0 4 1.5 4 3.58a3.24 3.24 0 0 1 -2 3.23l2.36 3.65h-3.08l-1.85-3.28h-1.11v3.28h-2.56zm4.27 4.78c1 0 1.35-.51 1.35-1.2s-.31-1.18-1.35-1.18h-1.68v2.38z" fill="#31c4c3"/><path d="m113.1 89.75c0-2.85 1.61-4.59 4.59-4.59s4.63 1.74 4.63 4.59v6.08h-2.6v-3h-4.09v3h-2.53zm6.62.87v-.87c0-1.44-.62-2.19-2-2.19s-2 .75-2 2.19v.87z" fill="#31c4c3"/><path d="m125 85.37h4.11c2.85 0 4.11 1.55 4.11 3.68s-1.26 3.7-4.11 3.7h-1.52v3.08h-2.59zm4.16 5c1.1 0 1.44-.54 1.44-1.29s-.34-1.28-1.44-1.28h-1.57v2.57z" fill="#31c4c3"/><path d="m135.45 85.37h4.11c2.85 0 4.12 1.55 4.12 3.68s-1.27 3.7-4.12 3.7h-1.56v3.08h-2.59zm4.16 5c1.1 0 1.44-.54 1.44-1.29s-.34-1.28-1.44-1.28h-1.61v2.57z" fill="#31c4c3"/><path d="m145.35 90.6a5.57 5.57 0 1 1 5.57 5.4 5.31 5.31 0 0 1 -5.57-5.4zm8.52 0a2.95 2.95 0 1 0 -3 3 2.86 2.86 0 0 0 3-3z" fill="#31c4c3"/><path d="m158.9 85.37h2.6v10.46h-2.6z" fill="#31c4c3"/><path d="m164.2 89.56c0-2.71 1.6-4.4 4.48-4.4s4.48 1.69 4.48 4.4v6.27h-2.59v-6.27c0-1.28-.61-2-1.89-2s-1.89.72-1.89 2v6.27h-2.59z" fill="#31c4c3"/><path d="m177.75 87.77h-2.85v-2.4h8.31v2.4h-2.86v8.06h-2.6z" fill="#31c4c3"/><path d="m185 89.21c0-2.8 1.63-4 3.75-4a3.3 3.3 0 0 1 2.9 1.44 3.27 3.27 0 0 1 2.89-1.44c2.11 0 3.75 1.25 3.75 4v6.62h-2.6v-6.62c0-1.22-.59-1.65-1.37-1.65s-1.38.43-1.38 1.65v6.62h-2.64v-6.62c0-1.22-.61-1.65-1.38-1.65s-1.37.43-1.37 1.65v6.62h-2.55z" fill="#31c4c3"/><path d="m200.94 85.37h7.73v2.4h-5.14v1.71h4.21v2.08h-4.21v1.87h5.14v2.4h-7.73z" fill="#31c4c3"/><path d="m211 89.56c0-2.71 1.6-4.4 4.48-4.4s4.49 1.69 4.49 4.4v6.27h-2.6v-6.27c0-1.28-.61-2-1.89-2s-1.89.72-1.89 2v6.27h-2.59z" fill="#31c4c3"/><path d="m224.58 87.77h-2.84v-2.4h8.26v2.4h-2.86v8.06h-2.6z" fill="#31c4c3"/><path d="m237.4 85.37h2.6v3.95h3.92v-3.95h2.6v10.46h-2.6v-4.11h-3.92v4.11h-2.6z" fill="#31c4c3"/><path d="m249.45 85.37h7.73v2.4h-5.18v1.71h4.21v2.08h-4.21v1.87h5.14v2.4h-7.73z" fill="#31c4c3"/><path d="m259.78 85.37h4.22c2.76 0 4 1.5 4 3.58a3.25 3.25 0 0 1 -2 3.23l2.35 3.65h-3.07l-1.86-3.28h-1.1v3.28h-2.6zm4.28 4.78c1 0 1.34-.51 1.34-1.2s-.3-1.18-1.34-1.18h-1.68v2.38z" fill="#31c4c3"/><path d="m270.55 85.37h7.73v2.4h-5.14v1.71h4.21v2.08h-4.21v1.87h5.14v2.4h-7.73z" fill="#31c4c3"/><path d="m376.36 95.87a1.88 1.88 0 1 1 -1.59-3.4l2.33-1.09-2.51-3.88-3.71 1.73a2.27 2.27 0 0 1 -3-1.09l-.31-.67a2.28 2.28 0 0 1 .92-2.92l-17.7-37.94a4.15 4.15 0 0 1 1.34-5.15l-1.13-2.46a2.19 2.19 0 0 1 .44-2.47l-.45-1a2.82 2.82 0 0 1 .42-3l-.67-1.45a3 3 0 0 1 .52-3.29l-6-12.82a1.32 1.32 0 1 1 2.4-1.12l6 12.83a3 3 0 0 1 2.85 1.72l.68 1.45a2.77 2.77 0 0 1 2.58 1.61l.45 1a2.17 2.17 0 0 1 2.17 1.25l1.17 2.49a4.14 4.14 0 0 1 4.79 2.26l17.71 38a2.26 2.26 0 0 1 2.82 1.18l.31.66a2.26 2.26 0 0 1 -1.1 3l-3.73 1.7 1.35 4.41 2.29-1.13a1.88 1.88 0 1 1 1.59 3.4z" fill="#fff"/><rect fill="#f5f5f5" height="48.38" rx="4.51" transform="matrix(.90630779 -.42261826 .42261826 .90630779 8.43 161.53)" width="16.98" x="360.04" y="37.56"/><path d="m353.88 43.37 10-4.66a1.65 1.65 0 0 1 2.18.8l9 19.22-12.95 6-9-19.22a1.63 1.63 0 0 1 .77-2.14z" fill="#80deea"/><path d="m368.98 62.05h8.92v20.44h-8.92z" fill="#e0e0e0" transform="matrix(.90630779 -.42261826 .42261826 .90630779 4.44 164.59)"/><path d="m361.81 64.26 13-6 .36.78a1.33 1.33 0 0 1 -.65 1.77l-10.52 4.88a1.33 1.33 0 0 1 -1.77-.65l-.37-.78z" fill="#757575"/><rect fill="#e0e0e0" height="2.89" rx="1.44" transform="matrix(.90630779 -.42261826 .42261826 .90630779 .44 167.66)" width="21.11" x="367.81" y="81.4"/><path d="m385 89-6.13 2.86-4.23-6.55 8.08-3.76z" fill="#e0e0e0"/><path d="m375.27 93.54 13.28-6.18a.68.68 0 0 1 .91.33.69.69 0 0 1 -.33.91l-13.28 6.19a.69.69 0 0 1 -.91-.33.7.7 0 0 1 .33-.92z" fill="#e0e0e0"/><path d="m346.57 14.34a.12.12 0 0 0 -.15-.05.13.13 0 0 0 -.05.16l6.39 13.7.24-.11z" fill="#bdbdbd"/><path d="m358.67 32a1.62 1.62 0 0 0 -2.14-.78l-1.07-2.3a1.8 1.8 0 0 0 -2.46-.92l-.37.17a1.8 1.8 0 0 0 -.87 2.39l1.08 2.3a1.62 1.62 0 0 0 -.84 2.14l.9 1.93 6.63-3.09z" fill="#26a69a"/><path d="m360 33.69-7.44 3.47a1 1 0 0 0 -.48 1.32l1.63 3.5 9.24-4.31-1.63-3.5a1 1 0 0 0 -1.32-.48z" fill="#e0e0e0"/><path d="m366.52 48.82 4.12-1.93" fill="none" stroke="#424242" stroke-linecap="round" stroke-linejoin="round" stroke-width="1.03"/><path d="m369.71 51.32 2.46-1.15" fill="none" stroke="#424242" stroke-linecap="round" stroke-linejoin="round" stroke-width=".79"/><path d="m371.23 54.59 2.47-1.15" fill="none" stroke="#424242" stroke-linecap="round" stroke-linejoin="round" stroke-width=".79"/><path d="m372.76 57.87 2.46-1.15" fill="none" stroke="#424242" stroke-linecap="round" stroke-linejoin="round" stroke-width=".79"/><path d="m372.63 61.92 4.12-1.93" fill="none" stroke="#424242" stroke-linecap="round" stroke-linejoin="round" stroke-width="1.03"/><path d="m375.81 64.42 2.47-1.15" fill="none" stroke="#424242" stroke-linecap="round" stroke-linejoin="round" stroke-width=".79"/><path d="m377.34 67.69 2.46-1.15" fill="none" stroke="#424242" stroke-linecap="round" stroke-linejoin="round" stroke-width=".79"/><path d="m378.87 70.96 2.46-1.14" fill="none" stroke="#424242" stroke-linecap="round" stroke-linejoin="round" stroke-width=".79"/><path d="m378.73 75.01 4.13-1.92" fill="none" stroke="#424242" stroke-linecap="round" stroke-linejoin="round" stroke-width="1.03"/><path d="m354.72 41.49 3.7-1.72 19.45 41.71-7.81 3.64-17.53-37.6a4.54 4.54 0 0 1 2.19-6z" fill="#f5f5f5"/><path d="m376.83 76.77h8.3v3.1h-8.3z" fill="#f5f5f5" transform="matrix(.90630779 -.42261826 .42261826 .90630779 2.6 168.35)"/><path d="m353.79 36.57-.9-1.92a1.63 1.63 0 0 1 .78-2.15h.05l-1.08-2.3a1.82 1.82 0 0 1 .63-2.26l-.27.06-.37.17a1.8 1.8 0 0 0 -.87 2.39l1.08 2.3a1.62 1.62 0 0 0 -.84 2.14l.9 1.93.85-.4z" fill="#26a69a" opacity=".32"/><path d="m353.38 36.76-.85.4a1 1 0 0 0 -.48 1.31l1.63 3.53.85-.4-1.63-3.5a1 1 0 0 1 .48-1.34z" fill="#e0e0e0" opacity=".32"/></svg>