<svg viewBox="0 0 196.5 87.88" xmlns="http://www.w3.org/2000/svg"><rect fill="#fff" height="87.38" rx="12" width="196" x=".25" y=".25"/><path d="m8.57 26.3h3.65a1.74 1.74 0 0 0 2 1.78 1.76 1.76 0 0 0 2-1.8c0-1.23-.65-2-2.4-2h-1.82v-3.28h1.78c1.45 0 1.87-.6 1.87-1.5a1.35 1.35 0 0 0 -1.45-1.45 1.36 1.36 0 0 0 -1.45 1.45h-3.65c0-3.28 2.09-5 5.14-5s5.2 1.8 5.2 4.62a3.54 3.54 0 0 1 -1.87 3.38v.05a3.85 3.85 0 0 1 2.43 3.93c0 3.17-2.38 5.1-5.73 5.1s-5.7-1.85-5.7-5.28z" fill="#d11614"/><path d="m21.35 18.55a4 4 0 1 1 4 4 4 4 0 0 1 -4-4zm11.54-3.65h2.7l-9.85 16.35h-2.74zm-6.05 3.65a1.53 1.53 0 1 0 -1.52 1.55 1.53 1.53 0 0 0 1.52-1.55zm2.55 9a4 4 0 1 1 4 4 4 4 0 0 1 -4-3.97zm5.5 0a1.53 1.53 0 1 0 -1.52 1.55 1.53 1.53 0 0 0 1.52-1.52z" fill="#d11614"/><path d="m45.39 23.08a8.3 8.3 0 0 1 8.7-8.5 8.3 8.3 0 0 1 8.7 8.5 8.3 8.3 0 0 1 -8.7 8.5 8.3 8.3 0 0 1 -8.7-8.5zm13.3 0a4.6 4.6 0 1 0 -9.2 0 4.6 4.6 0 1 0 9.2 0z" fill="#d11614"/><path d="m65.27 18.75c0-3.75 2.25-5.57 5.55-5.57s5.55 1.85 5.55 5.57h-3.75c0-1.57-.75-2.07-1.8-2.07s-1.82.52-1.82 2.07v1.88h5.82v3.37h-5.82v7.25h-3.73z" fill="#d11614"/><path d="m77.84 18.75c0-3.75 2.25-5.57 5.55-5.57s5.55 1.85 5.55 5.57h-3.75c0-1.57-.75-2.07-1.8-2.07s-1.8.52-1.8 2.07v1.88h5.83v3.37h-5.83v7.25h-3.75z" fill="#d11614"/><path d="m10 53.68a2.61 2.61 0 0 1 -1-.98 2.88 2.88 0 0 1 0-2.86 2.71 2.71 0 0 1 1.05-1 3.32 3.32 0 0 1 1.53-.35 3.27 3.27 0 0 1 1.52.35 2.64 2.64 0 0 1 1 1 2.88 2.88 0 0 1 0 2.86 2.55 2.55 0 0 1 -1 1 3.16 3.16 0 0 1 -1.52.36 3.2 3.2 0 0 1 -1.58-.38zm2.52-1.33a1.51 1.51 0 0 0 .38-1.08 1.57 1.57 0 0 0 -.38-1.09 1.43 1.43 0 0 0 -2 0 1.53 1.53 0 0 0 -.39 1.09 1.48 1.48 0 0 0 .39 1.08 1.4 1.4 0 0 0 2 0z" fill="#143138"/><path d="m20.9 49.1a2.34 2.34 0 0 1 .62 1.78v3.12h-1.52v-2.88a1.37 1.37 0 0 0 -.28-.95 1 1 0 0 0 -.81-.32 1.25 1.25 0 0 0 -.94.36 1.55 1.55 0 0 0 -.35 1.09v2.7h-1.62v-5.42h1.49v.63a2.12 2.12 0 0 1 .77-.53 2.75 2.75 0 0 1 1-.18 2.2 2.2 0 0 1 1.64.6z" fill="#143138"/><path d="m32.1 48.58-2.43 5.71a2.77 2.77 0 0 1 -.92 1.31 2.25 2.25 0 0 1 -1.31.38 2.62 2.62 0 0 1 -.83-.13 1.94 1.94 0 0 1 -.67-.36l.57-1.11a1.33 1.33 0 0 0 .41.25 1.35 1.35 0 0 0 .47.09.84.84 0 0 0 .52-.15 1.47 1.47 0 0 0 .36-.52l-2.27-5.47h1.61l1.51 3.65 1.52-3.65z" fill="#143138"/><path d="m34.12 53.68a2.55 2.55 0 0 1 -1-1 2.88 2.88 0 0 1 0-2.86 2.64 2.64 0 0 1 1-1 3.32 3.32 0 0 1 1.53-.35 3.27 3.27 0 0 1 1.52.35 2.64 2.64 0 0 1 1 1 2.88 2.88 0 0 1 0 2.86 2.55 2.55 0 0 1 -1 1 3.16 3.16 0 0 1 -1.52.36 3.2 3.2 0 0 1 -1.53-.36zm2.51-1.33a1.48 1.48 0 0 0 .37-1.08 1.53 1.53 0 0 0 -.39-1.09 1.31 1.31 0 0 0 -1-.4 1.35 1.35 0 0 0 -1 .4 1.53 1.53 0 0 0 -.39 1.09 1.48 1.48 0 0 0 .39 1.08 1.28 1.28 0 0 0 1 .41 1.25 1.25 0 0 0 1.02-.41z" fill="#143138"/><path d="m45.56 48.58v5.42h-1.48v-.64a2.06 2.06 0 0 1 -.74.53 2.24 2.24 0 0 1 -.93.19 2.27 2.27 0 0 1 -1.68-.61 2.45 2.45 0 0 1 -.62-1.81v-3h1.56v2.81c0 .87.36 1.3 1.09 1.3a1.19 1.19 0 0 0 .9-.36 1.55 1.55 0 0 0 .34-1.17v-2.66z" fill="#143138"/><path d="m49.75 48.7a2.92 2.92 0 0 1 1.1-.2v1.44h-.35a1.42 1.42 0 0 0 -1 .37 1.54 1.54 0 0 0 -.38 1.13v2.56h-1.61v-5.42h1.49v.71a1.75 1.75 0 0 1 .75-.59z" fill="#143138"/><path d="m58 47v7h-1.6v-5.7h-1.4v-1.3z" fill="#143138"/><path d="m60.57 53.88a3.52 3.52 0 0 1 -1-.42l.52-1.12a3.17 3.17 0 0 0 .87.37 3.52 3.52 0 0 0 1 .15c.66 0 1-.16 1-.49a.35.35 0 0 0 -.27-.33 4 4 0 0 0 -.83-.17 8.12 8.12 0 0 1 -1.09-.23 1.72 1.72 0 0 1 -.75-.46 1.3 1.3 0 0 1 -.31-.94 1.49 1.49 0 0 1 .29-.9 1.94 1.94 0 0 1 .86-.62 3.66 3.66 0 0 1 1.34-.22 4.78 4.78 0 0 1 1.13.13 3 3 0 0 1 .94.34l-.52 1.11a3.06 3.06 0 0 0 -1.55-.4 1.64 1.64 0 0 0 -.75.14.4.4 0 0 0 -.25.36.36.36 0 0 0 .27.35 4.57 4.57 0 0 0 .86.19 7.45 7.45 0 0 1 1.08.24 1.6 1.6 0 0 1 .73.45 1.28 1.28 0 0 1 .31.92 1.43 1.43 0 0 1 -.3.89 2 2 0 0 1 -.88.61 3.93 3.93 0 0 1 -1.36.21 5.22 5.22 0 0 1 -1.34-.16z" fill="#143138"/><path d="m69.35 53.7a1.67 1.67 0 0 1 -.57.26 3.13 3.13 0 0 1 -.7.08 2.09 2.09 0 0 1 -1.49-.49 1.88 1.88 0 0 1 -.52-1.44v-2.21h-.83v-1.2h.83v-1.31h1.56v1.31h1.37v1.2h-1.37v2.19a.78.78 0 0 0 .17.53.68.68 0 0 0 .5.18 1 1 0 0 0 .63-.2z" fill="#143138"/><path d="m80.25 51a1.71 1.71 0 0 1 .34 1.09 1.61 1.61 0 0 1 -.72 1.41 3.63 3.63 0 0 1 -2.08.5h-3.62v-7h3.42a3.3 3.3 0 0 1 2 .49 1.55 1.55 0 0 1 .69 1.33 1.71 1.71 0 0 1 -.93 1.54 1.87 1.87 0 0 1 .9.64zm-4.47-2.78v1.65h1.61a1.63 1.63 0 0 0 .91-.21.77.77 0 0 0 0-1.24 1.73 1.73 0 0 0 -.91-.2zm2.85 4.35a.72.72 0 0 0 .33-.65q.04-.92-1.29-.92h-1.89v1.73h1.89a1.75 1.75 0 0 0 .96-.2z" fill="#143138"/><path d="m82.21 46.54h1.56v7.46h-1.56z" fill="#143138"/><path d="m86.75 53.68a2.55 2.55 0 0 1 -1-1 2.88 2.88 0 0 1 0-2.86 2.64 2.64 0 0 1 1-1 3.32 3.32 0 0 1 1.53-.35 3.27 3.27 0 0 1 1.52.35 2.64 2.64 0 0 1 1 1 2.88 2.88 0 0 1 0 2.86 2.55 2.55 0 0 1 -1 1 3.16 3.16 0 0 1 -1.52.36 3.2 3.2 0 0 1 -1.53-.36zm2.51-1.33a1.48 1.48 0 0 0 .39-1.08 1.53 1.53 0 0 0 -.39-1.09 1.31 1.31 0 0 0 -1-.4 1.35 1.35 0 0 0 -1 .4 1.53 1.53 0 0 0 -.39 1.09 1.48 1.48 0 0 0 .39 1.08 1.28 1.28 0 0 0 1 .41 1.25 1.25 0 0 0 1-.41z" fill="#143138"/><path d="m93.8 53.68a2.55 2.55 0 0 1 -1-1 2.88 2.88 0 0 1 0-2.86 2.64 2.64 0 0 1 1-1 3.32 3.32 0 0 1 1.53-.35 3.27 3.27 0 0 1 1.52.35 2.64 2.64 0 0 1 1.05 1 2.88 2.88 0 0 1 0 2.86 2.55 2.55 0 0 1 -1.05 1 3.16 3.16 0 0 1 -1.52.36 3.2 3.2 0 0 1 -1.53-.36zm2.51-1.33a1.48 1.48 0 0 0 .39-1.08 1.53 1.53 0 0 0 -.39-1.09 1.31 1.31 0 0 0 -1-.4 1.35 1.35 0 0 0 -1 .4 1.53 1.53 0 0 0 -.31 1.09 1.48 1.48 0 0 0 .39 1.08 1.28 1.28 0 0 0 1 .41 1.25 1.25 0 0 0 .92-.41z" fill="#143138"/><path d="m105.3 46.54v7.46h-1.49v-.62a2.06 2.06 0 0 1 -1.68.7 2.77 2.77 0 0 1 -1.38-.34 2.42 2.42 0 0 1 -1-1 3.22 3.22 0 0 1 0-2.92 2.42 2.42 0 0 1 1-1 2.77 2.77 0 0 1 1.38-.34 2.06 2.06 0 0 1 1.61.65v-2.59zm-1.92 5.81a1.48 1.48 0 0 0 .39-1.08 1.53 1.53 0 0 0 -.39-1.09 1.41 1.41 0 0 0 -2 0 1.53 1.53 0 0 0 -.39 1.09 1.48 1.48 0 0 0 .39 1.08 1.39 1.39 0 0 0 2 0z" fill="#143138"/><path d="m115.32 47.27a2.44 2.44 0 0 1 1.06.88 2.63 2.63 0 0 1 0 2.69 2.31 2.31 0 0 1 -1.06.88 3.79 3.79 0 0 1 -1.61.31h-1.41v1.97h-1.62v-7h3a3.79 3.79 0 0 1 1.64.27zm-.59 3.12a1.09 1.09 0 0 0 .38-.89 1.13 1.13 0 0 0 -.38-.91 1.69 1.69 0 0 0 -1.11-.31h-1.32v2.43h1.32a1.69 1.69 0 0 0 1.11-.32z" fill="#143138"/><path d="m122.33 49.09a2.32 2.32 0 0 1 .67 1.8v3.11h-1.46v-.67a1.73 1.73 0 0 1 -1.64.75 2.6 2.6 0 0 1 -1.08-.21 1.59 1.59 0 0 1 -.69-.58 1.53 1.53 0 0 1 -.24-.84 1.42 1.42 0 0 1 .56-1.18 2.87 2.87 0 0 1 1.75-.43h1.24a1 1 0 0 0 -.31-.79 1.39 1.39 0 0 0 -.93-.27 2.75 2.75 0 0 0 -.85.14 2.11 2.11 0 0 0 -.7.36l-.56-1.09a3.18 3.18 0 0 1 1-.48 4.92 4.92 0 0 1 1.27-.17 2.84 2.84 0 0 1 1.97.55zm-1.33 3.71a1 1 0 0 0 .44-.54v-.55h-1.07q-1 0-1 .63a.59.59 0 0 0 .23.48 1.14 1.14 0 0 0 .65.17 1.3 1.3 0 0 0 .75-.19z" fill="#143138"/><path d="m129.79 49.1a2.38 2.38 0 0 1 .62 1.78v3.12h-1.56v-2.88a1.37 1.37 0 0 0 -.28-.95 1 1 0 0 0 -.81-.32 1.25 1.25 0 0 0 -.94.36 1.55 1.55 0 0 0 -.35 1.09v2.7h-1.56v-5.42h1.49v.63a2.12 2.12 0 0 1 .77-.53 2.75 2.75 0 0 1 1-.18 2.2 2.2 0 0 1 1.62.6z" fill="#143138"/><path d="m137.62 51.71h-4.07a1.27 1.27 0 0 0 .52.79 1.73 1.73 0 0 0 1 .29 2.09 2.09 0 0 0 .74-.12 2 2 0 0 0 .61-.4l.83.9a2.8 2.8 0 0 1 -2.22.87 3.44 3.44 0 0 1 -1.61-.36 2.51 2.51 0 0 1 -1.08-1 2.91 2.91 0 0 1 0-2.86 2.72 2.72 0 0 1 1-1 3.13 3.13 0 0 1 1.47-.35 3 3 0 0 1 1.43.34 2.48 2.48 0 0 1 1 1 2.82 2.82 0 0 1 .37 1.47s.03.17.01.43zm-3.62-1.71a1.25 1.25 0 0 0 -.44.82h2.65a1.25 1.25 0 0 0 -.44-.81 1.3 1.3 0 0 0 -.88-.31 1.35 1.35 0 0 0 -.89.3z" fill="#143138"/><path d="m139.19 46.54h1.56v7.46h-1.56z" fill="#143138"/><path d="m.25 72.63h196v3a12 12 0 0 1 -12.06 12h-171.88a12 12 0 0 1 -12.06-12z" fill="#bdefeb"/><path d="m23.67 78.51h-1.79v-1.06h4.87v1.06h-1.75v4.54h-1.33z" fill="#054c5c"/><path d="m32.19 82v1h-4.34v-5.6h4.23v1h-2.94v1.22h2.6v1h-2.6v1.38z" fill="#054c5c"/><path d="m37.19 83.05-1.08-1.56h-1.2v1.56h-1.29v-5.6h2.38a3 3 0 0 1 1.29.25 1.91 1.91 0 0 1 .85.7 1.94 1.94 0 0 1 .29 1.08 1.82 1.82 0 0 1 -1.15 1.77l1.26 1.8zm-.33-4.29a1.35 1.35 0 0 0 -.89-.25h-1.06v1.95h1.09a1.35 1.35 0 0 0 .89-.26 1 1 0 0 0 0-1.44z" fill="#054c5c"/><path d="m45 83.05v-3.36l-1.65 2.77h-.59l-1.64-2.7v3.29h-1.22v-5.6h1.1l2.1 3.48 2.06-3.48h1.06v5.6z" fill="#054c5c"/><path d="m48.49 83a3 3 0 0 1 -1-.47l.44-1a3 3 0 0 0 .85.43 3.48 3.48 0 0 0 1 .16 1.55 1.55 0 0 0 .81-.17.49.49 0 0 0 .27-.43.44.44 0 0 0 -.16-.34 1.49 1.49 0 0 0 -.4-.21c-.16 0-.38-.11-.66-.17s-.78-.21-1-.31a1.69 1.69 0 0 1 -.7-.49 1.32 1.32 0 0 1 -.29-.89 1.63 1.63 0 0 1 .26-.89 1.82 1.82 0 0 1 .8-.62 3.14 3.14 0 0 1 1.3-.24 4.57 4.57 0 0 1 1.05.13 3.13 3.13 0 0 1 .89.37l-.4 1a3.12 3.12 0 0 0 -1.55-.47 1.41 1.41 0 0 0 -.8.18.52.52 0 0 0 -.26.46.45.45 0 0 0 .3.43 4.15 4.15 0 0 0 .91.28 9 9 0 0 1 1 .3 1.69 1.69 0 0 1 .7.48 1.27 1.27 0 0 1 .29.89 1.62 1.62 0 0 1 -.26.88 1.79 1.79 0 0 1 -.81.62 3.18 3.18 0 0 1 -1.3.24 4.62 4.62 0 0 1 -1.28-.15z" fill="#054c5c"/><path d="m59.79 81.85h-2.6l-.49 1.2h-1.33l2.5-5.6h1.28l2.5 5.6h-1.36zm-.4-1-.89-2.15-.89 2.15z" fill="#054c5c"/><path d="m67.77 77.45v5.6h-1.06l-2.8-3.4v3.4h-1.28v-5.6h1.08l2.78 3.4v-3.4z" fill="#054c5c"/><path d="m69.5 77.45h2.5a3.57 3.57 0 0 1 1.61.35 2.59 2.59 0 0 1 1.09 1 3 3 0 0 1 0 2.94 2.59 2.59 0 0 1 -1.09 1 3.57 3.57 0 0 1 -1.61.35h-2.5zm2.5 4.55a1.9 1.9 0 0 0 1.34-.47 1.86 1.86 0 0 0 0-2.54 1.9 1.9 0 0 0 -1.34-.48h-1.21v3.49z" fill="#054c5c"/><path d="m80.3 82.77a2.77 2.77 0 0 1 -1.09-1 3 3 0 0 1 0-3 2.77 2.77 0 0 1 1.09-1 3.22 3.22 0 0 1 1.56-.38 3.26 3.26 0 0 1 1.31.26 2.61 2.61 0 0 1 1 .74l-.83.76a1.81 1.81 0 0 0 -1.41-.65 1.83 1.83 0 0 0 -.93.23 1.59 1.59 0 0 0 -.63.63 2 2 0 0 0 0 1.86 1.59 1.59 0 0 0 .63.63 1.83 1.83 0 0 0 .93.23 1.79 1.79 0 0 0 1.41-.66l.83.77a2.69 2.69 0 0 1 -1 .74 3.34 3.34 0 0 1 -1.32.26 3.2 3.2 0 0 1 -1.55-.42z" fill="#054c5c"/><path d="m86.45 82.77a2.8 2.8 0 0 1 -1.09-1 2.94 2.94 0 0 1 0-3 2.8 2.8 0 0 1 1.09-1 3.3 3.3 0 0 1 1.55-.42 3.22 3.22 0 0 1 1.56.38 2.82 2.82 0 0 1 1.1 1 2.94 2.94 0 0 1 0 3 2.82 2.82 0 0 1 -1.1 1 3.22 3.22 0 0 1 -1.56.38 3.3 3.3 0 0 1 -1.55-.34zm2.47-1a1.59 1.59 0 0 0 .63-.63 2 2 0 0 0 0-1.86 1.59 1.59 0 0 0 -.63-.63 1.67 1.67 0 0 0 -.89-.23 1.72 1.72 0 0 0 -.9.23 1.59 1.59 0 0 0 -.63.63 2 2 0 0 0 0 1.86 1.59 1.59 0 0 0 .63.63 1.72 1.72 0 0 0 .87.23 1.67 1.67 0 0 0 .92-.19z" fill="#054c5c"/><path d="m97.6 77.45v5.6h-1.06l-2.79-3.4v3.4h-1.28v-5.6h1.07l2.78 3.4v-3.4z" fill="#054c5c"/><path d="m99.33 77.45h2.54a3.64 3.64 0 0 1 1.62.35 2.57 2.57 0 0 1 1.08 1 3 3 0 0 1 0 2.94 2.57 2.57 0 0 1 -1.08 1 3.64 3.64 0 0 1 -1.62.35h-2.54zm2.48 4.55a1.89 1.89 0 0 0 1.34-.47 1.86 1.86 0 0 0 0-2.54 1.89 1.89 0 0 0 -1.34-.47h-1.18v3.48z" fill="#054c5c"/><path d="m106.34 77.45h1.29v5.6h-1.29z" fill="#054c5c"/><path d="m110.52 78.51h-1.79v-1.06h4.88v1.06h-1.79v4.54h-1.3z" fill="#054c5c"/><path d="m114.71 77.45h1.29v5.6h-1.29z" fill="#054c5c"/><path d="m118.87 82.77a2.85 2.85 0 0 1 0-5 3.43 3.43 0 0 1 3.14 0 2.89 2.89 0 0 1 1.1 1 3 3 0 0 1 0 3 2.89 2.89 0 0 1 -1.1 1 3.43 3.43 0 0 1 -3.14 0zm2.47-1a1.63 1.63 0 0 0 .62-.63 2 2 0 0 0 0-1.86 1.63 1.63 0 0 0 -.62-.63 1.88 1.88 0 0 0 -1.8 0 1.63 1.63 0 0 0 -.62.63 2 2 0 0 0 0 1.86 1.63 1.63 0 0 0 .62.63 1.88 1.88 0 0 0 1.8 0z" fill="#054c5c"/><path d="m130 77.45v5.6h-1l-2.79-3.4v3.4h-1.28v-5.6h1.07l2.79 3.4v-3.4z" fill="#054c5c"/><path d="m132.3 83a3 3 0 0 1 -1-.47l.44-1a3 3 0 0 0 .85.43 3.41 3.41 0 0 0 1 .16 1.59 1.59 0 0 0 .82-.17.5.5 0 0 0 .26-.43.43.43 0 0 0 -.15-.34 1.66 1.66 0 0 0 -.4-.21l-.66-.17c-.43-.11-.78-.21-1.05-.31a1.63 1.63 0 0 1 -.7-.49 1.27 1.27 0 0 1 -.29-.89 1.55 1.55 0 0 1 .26-.89 1.76 1.76 0 0 1 .8-.62 3.14 3.14 0 0 1 1.3-.24 4.71 4.71 0 0 1 1.05.13 3.26 3.26 0 0 1 .89.37l-.4 1a3.15 3.15 0 0 0 -1.55-.44 1.47 1.47 0 0 0 -.81.18.53.53 0 0 0 -.25.46.45.45 0 0 0 .29.43 4.46 4.46 0 0 0 .92.28 9 9 0 0 1 1.08.23 1.76 1.76 0 0 1 .7.48 1.32 1.32 0 0 1 .29.89 1.55 1.55 0 0 1 -.27.88 1.76 1.76 0 0 1 -.8.62 3.19 3.19 0 0 1 -1.31.24 4.55 4.55 0 0 1 -1.31-.11z" fill="#054c5c"/><path d="m143.6 81.85h-2.6l-.5 1.2h-1.32l2.49-5.6h1.33l2.51 5.6h-1.41zm-.41-1-.89-2.15-.88 2.15z" fill="#054c5c"/><path d="m150.16 77.7a1.94 1.94 0 0 1 0 3.56 3.22 3.22 0 0 1 -1.29.25h-1.13v1.54h-1.3v-5.6h2.43a3.06 3.06 0 0 1 1.29.25zm-.48 2.5a1 1 0 0 0 0-1.44 1.35 1.35 0 0 0 -.89-.25h-1v1.94h1a1.35 1.35 0 0 0 .89-.25z" fill="#054c5c"/><path d="m156.33 77.7a1.91 1.91 0 0 1 .85.7 2.16 2.16 0 0 1 0 2.16 1.91 1.91 0 0 1 -.85.7 3.16 3.16 0 0 1 -1.29.25h-1.13v1.54h-1.29v-5.6h2.38a3 3 0 0 1 1.33.25zm-.47 2.5a1 1 0 0 0 0-1.44 1.37 1.37 0 0 0 -.89-.25h-1.06v1.94h1.09a1.37 1.37 0 0 0 .86-.25z" fill="#054c5c"/><path d="m158.79 77.45h1.3v4.55h2.81v1.06h-4.11z" fill="#054c5c"/><path d="m166.14 81.07v2h-1.3v-2l-2.17-3.6h1.38l1.49 2.49 1.5-2.49h1.27z" fill="#054c5c"/><path d="m173.75 78.7.87.47-.39.66-.88-.52v1h-.75v-1l-.88.53-.38-.66.87-.47-.87-.48.38-.66.88.53v-1h.75v1l.88-.53.39.66z" fill="#054c5c"/><g fill="none"><rect height="87.38" rx="12" stroke="#0a97b7" stroke-width=".5" width="196" x=".25" y=".25"/><path d="m145.9 47.06h4.24v4.24h-4.24z" stroke="#f44336" stroke-miterlimit="10" stroke-width=".09"/><path d="m150.14 47.06h4.24v4.24h-4.24z" stroke="#f44336" stroke-miterlimit="10" stroke-width=".09"/><path d="m145.9 51.3h4.24v4.24h-4.24z" stroke="#f44336" stroke-miterlimit="10" stroke-width=".09"/><path d="m145.9 55.54h4.24v4.24h-4.24z" stroke="#f44336" stroke-miterlimit="10" stroke-width=".09"/><path d="m150.14 51.3h4.24v4.24h-4.24z" stroke="#f44336" stroke-miterlimit="10" stroke-width=".09"/><path d="m150.14 55.54h4.24v4.24h-4.24z" stroke="#f44336" stroke-miterlimit="10" stroke-width=".09"/><path d="m145.9 59.78h4.24v4.24h-4.24z" stroke="#f44336" stroke-miterlimit="10" stroke-width=".09"/><path d="m150.14 59.78h4.24v4.24h-4.24z" stroke="#f44336" stroke-miterlimit="10" stroke-width=".09"/><path d="m154.38 47.06h4.24v4.24h-4.24z" stroke="#f44336" stroke-miterlimit="10" stroke-width=".09"/><path d="m158.62 47.06h4.24v4.24h-4.24z" stroke="#f44336" stroke-miterlimit="10" stroke-width=".09"/><path d="m162.86 47.06h4.24v4.24h-4.24z" stroke="#f44336" stroke-miterlimit="10" stroke-width=".09"/><path d="m154.38 51.3h4.24v4.24h-4.24z" stroke="#f44336" stroke-miterlimit="10" stroke-width=".09"/><path d="m158.62 51.3h4.24v4.24h-4.24z" stroke="#f44336" stroke-miterlimit="10" stroke-width=".09"/><path d="m154.38 55.54h4.24v4.24h-4.24z" stroke="#f44336" stroke-miterlimit="10" stroke-width=".09"/><path d="m158.62 55.54h4.24v4.24h-4.24z" stroke="#f44336" stroke-miterlimit="10" stroke-width=".09"/><path d="m162.86 51.3h4.24v4.24h-4.24z" stroke="#f44336" stroke-miterlimit="10" stroke-width=".09"/><path d="m162.86 55.54h4.24v4.24h-4.24z" stroke="#f44336" stroke-miterlimit="10" stroke-width=".09"/><path d="m154.38 59.78h4.24v4.24h-4.24z" stroke="#f44336" stroke-miterlimit="10" stroke-width=".09"/><path d="m158.62 59.78h4.24v4.24h-4.24z" stroke="#f44336" stroke-miterlimit="10" stroke-width=".09"/><path d="m162.86 59.78h4.24v4.24h-4.24z" stroke="#f44336" stroke-miterlimit="10" stroke-width=".09"/><path d="m167.1 47.06h4.24v4.24h-4.24z" stroke="#f44336" stroke-miterlimit="10" stroke-width=".09"/><path d="m171.34 47.06h4.24v4.24h-4.24z" stroke="#f44336" stroke-miterlimit="10" stroke-width=".09"/><path d="m175.58 47.06h4.24v4.24h-4.24z" stroke="#f44336" stroke-miterlimit="10" stroke-width=".09"/><path d="m167.1 51.3h4.24v4.24h-4.24z" stroke="#f44336" stroke-miterlimit="10" stroke-width=".09"/><path d="m171.34 51.3h4.24v4.24h-4.24z" stroke="#f44336" stroke-miterlimit="10" stroke-width=".09"/><path d="m167.1 55.54h4.24v4.24h-4.24z" stroke="#f44336" stroke-miterlimit="10" stroke-width=".09"/><path d="m171.34 55.54h4.24v4.24h-4.24z" stroke="#f44336" stroke-miterlimit="10" stroke-width=".09"/><path d="m175.58 51.3h4.24v4.24h-4.24z" stroke="#f44336" stroke-miterlimit="10" stroke-width=".09"/><path d="m175.58 55.54h4.24v4.24h-4.24z" stroke="#f44336" stroke-miterlimit="10" stroke-width=".09"/><path d="m167.1 59.78h4.24v4.24h-4.24z" stroke="#f44336" stroke-miterlimit="10" stroke-width=".09"/><path d="m171.34 59.78h4.24v4.24h-4.24z" stroke="#f44336" stroke-miterlimit="10" stroke-width=".09"/><path d="m175.58 59.78h4.24v4.24h-4.24z" stroke="#f44336" stroke-miterlimit="10" stroke-width=".09"/><path d="m179.82 47.06h4.24v4.24h-4.24z" stroke="#f44336" stroke-miterlimit="10" stroke-width=".09"/><path d="m184.06 47.06h4.24v4.24h-4.24z" stroke="#f44336" stroke-miterlimit="10" stroke-width=".09"/><path d="m179.82 51.3h4.24v4.24h-4.24z" stroke="#f44336" stroke-miterlimit="10" stroke-width=".09"/><path d="m184.06 51.3h4.24v4.24h-4.24z" stroke="#f44336" stroke-miterlimit="10" stroke-width=".09"/><path d="m179.82 55.54h4.24v4.24h-4.24z" stroke="#f44336" stroke-miterlimit="10" stroke-width=".09"/><path d="m184.06 55.54h4.24v4.24h-4.24z" stroke="#f44336" stroke-miterlimit="10" stroke-width=".09"/><path d="m179.82 59.78h4.24v4.24h-4.24z" stroke="#f44336" stroke-miterlimit="10" stroke-width=".09"/><path d="m184.06 59.78h4.24v4.24h-4.24z" stroke="#f44336" stroke-miterlimit="10" stroke-width=".09"/><path d="m150.14 34.34h4.24v4.24h-4.24z" stroke="#f44336" stroke-miterlimit="10" stroke-width=".09"/><path d="m154.38 34.34h4.24v4.24h-4.24z" stroke="#f44336" stroke-miterlimit="10" stroke-width=".09"/><path d="m158.62 34.34h4.24v4.24h-4.24z" stroke="#f44336" stroke-miterlimit="10" stroke-width=".09"/><path d="m162.86 34.34h4.24v4.24h-4.24z" stroke="#f44336" stroke-miterlimit="10" stroke-width=".09"/><path d="m154.38 38.58h4.24v4.24h-4.24z" stroke="#f44336" stroke-miterlimit="10" stroke-width=".09"/><path d="m158.62 38.58h4.24v4.24h-4.24z" stroke="#f44336" stroke-miterlimit="10" stroke-width=".09"/><path d="m154.38 42.82h4.24v4.24h-4.24z" stroke="#f44336" stroke-miterlimit="10" stroke-width=".09"/><path d="m158.62 42.82h4.24v4.24h-4.24z" stroke="#f44336" stroke-miterlimit="10" stroke-width=".09"/><path d="m162.86 38.58h4.24v4.24h-4.24z" stroke="#f44336" stroke-miterlimit="10" stroke-width=".09"/><path d="m162.86 42.82h4.24v4.24h-4.24z" stroke="#f44336" stroke-miterlimit="10" stroke-width=".09"/><path d="m167.1 34.34h4.24v4.24h-4.24z" stroke="#f44336" stroke-miterlimit="10" stroke-width=".09"/><path d="m171.34 34.34h4.24v4.24h-4.24z" stroke="#f44336" stroke-miterlimit="10" stroke-width=".09"/><path d="m175.58 34.34h4.24v4.24h-4.24z" stroke="#f44336" stroke-miterlimit="10" stroke-width=".09"/><path d="m167.1 38.58h4.24v4.24h-4.24z" stroke="#f44336" stroke-miterlimit="10" stroke-width=".09"/><path d="m171.34 38.58h4.24v4.24h-4.24z" stroke="#f44336" stroke-miterlimit="10" stroke-width=".09"/><path d="m167.1 42.82h4.24v4.24h-4.24z" stroke="#f44336" stroke-miterlimit="10" stroke-width=".09"/><path d="m171.34 42.82h4.24v4.24h-4.24z" stroke="#f44336" stroke-miterlimit="10" stroke-width=".09"/><path d="m175.58 38.58h4.24v4.24h-4.24z" stroke="#f44336" stroke-miterlimit="10" stroke-width=".09"/><path d="m175.58 42.82h4.24v4.24h-4.24z" stroke="#f44336" stroke-miterlimit="10" stroke-width=".09"/><path d="m179.82 34.34h4.24v4.24h-4.24z" stroke="#f44336" stroke-miterlimit="10" stroke-width=".09"/><path d="m184.06 34.34h4.24v4.24h-4.24z" stroke="#f44336" stroke-miterlimit="10" stroke-width=".09"/><path d="m179.82 38.58h4.24v4.24h-4.24z" stroke="#f44336" stroke-miterlimit="10" stroke-width=".09"/><path d="m184.06 38.58h4.24v4.24h-4.24z" stroke="#f44336" stroke-miterlimit="10" stroke-width=".09"/><path d="m179.82 42.82h4.24v4.24h-4.24z" stroke="#f44336" stroke-miterlimit="10" stroke-width=".09"/><path d="m184.06 42.82h4.24v4.24h-4.24z" stroke="#f44336" stroke-miterlimit="10" stroke-width=".09"/><path d="m154.38 25.85h4.24v4.24h-4.24z" stroke="#f44336" stroke-miterlimit="10" stroke-width=".09"/><path d="m154.38 30.09h4.24v4.24h-4.24z" stroke="#f44336" stroke-miterlimit="10" stroke-width=".09"/><path d="m158.62 30.09h4.24v4.24h-4.24z" stroke="#f44336" stroke-miterlimit="10" stroke-width=".09"/><path d="m162.86 30.09h4.24v4.24h-4.24z" stroke="#f44336" stroke-miterlimit="10" stroke-width=".09"/><path d="m179.82 30.09h4.24v4.24h-4.24z" stroke="#f44336" stroke-miterlimit="10" stroke-width=".09"/><path d="m184.06 30.09h4.24v4.24h-4.24z" stroke="#f44336" stroke-miterlimit="10" stroke-width=".09"/></g><path d="m180.26 20.9h4.49a3.76 3.76 0 0 1 3.76 3.76v2a0 0 0 0 1 0 0h-12a0 0 0 0 1 0 0v-2a3.76 3.76 0 0 1 3.76-3.76z" fill="#757575"/><path d="m188.51 24c0-1.73-2-3.14-4.5-3.14h-3a5.37 5.37 0 0 0 -3.51 1.18 5.81 5.81 0 0 1 2.81-.69h3c2.49 0 4.5 1.4 4.5 3.14v2.13h.7z" fill="#757575"/><path d="m179.36 24.55h6.29a2.86 2.86 0 0 1 2.86 2.86v33a5.55 5.55 0 0 1 -5.51 5.59h-1a5.55 5.55 0 0 1 -5.55-5.55v-33a2.86 2.86 0 0 1 2.91-2.9z" fill="#e0f7fa"/><path d="m165.84 43.53h30.1a3.23 3.23 0 0 1 3.23 3.23v1.11a3.23 3.23 0 0 1 -3.23 3.23h-25.26a4.84 4.84 0 0 1 -4.84-4.84v-2.73a0 0 0 0 1 0 0z" fill="#f44336" transform="matrix(0 1 -1 0 229.81 -135.2)"/><path d="m164.32 40.37h33.68a4.14 4.14 0 0 1 4.14 4.14v.85a4.14 4.14 0 0 1 -4.14 4.14h-33.68a1.43 1.43 0 0 1 -1.43-1.43v-6.27a1.43 1.43 0 0 1 1.43-1.43z" fill="#e0f7fa" transform="matrix(0 1 -1 0 227.44 -137.57)"/><rect fill="#e0f7fa" height="2.89" rx="1.45" width="16.71" x="174.15" y="24.55"/><path d="m176.5 27.89h12.01" fill="#80deea" stroke="#b2ebf2" stroke-miterlimit="10" stroke-width=".87"/><rect fill="#fff" height="13.35" opacity=".58" rx="1.05" width="2.46" x="177.66" y="29"/><path d="m183.43 36.74h4.17v21.13h-4.17z" fill="#eee"/><path d="m183.43 36.74h4.17v1.56h-4.17z" fill="#ffee58"/><path d="m187.02 36.74v20.56h-3.59v.58h4.17v-21.14z" fill="#eee"/><path d="m183.14 57.11h4.49a3.76 3.76 0 0 1 3.76 3.76v2a0 0 0 0 1 0 0h-12a0 0 0 0 1 0 0v-2a3.76 3.76 0 0 1 3.75-3.76z" fill="#757575" transform="matrix(0 1 -1 0 245.37 -125.39)"/><path d="m185.12 66c1.74 0 3.14-2 3.14-4.51v-3a5.4 5.4 0 0 0 -1.18-3.49 5.72 5.72 0 0 1 .7 2.82v3c0 2.49-1.41 4.51-3.15 4.51h-2.13v.67z" fill="#757575"/><path d="m160.74 39.27h6.26a2.86 2.86 0 0 1 2.86 2.86v33a5.55 5.55 0 0 1 -5.55 5.55h-.92a5.55 5.55 0 0 1 -5.55-5.55v-33a2.86 2.86 0 0 1 2.86-2.86z" fill="#e0f7fa" transform="matrix(0 1 -1 0 223.87 -103.9)"/><path d="m145.19 56.21h30.1a3.23 3.23 0 0 1 3.23 3.23v1.11a3.23 3.23 0 0 1 -3.23 3.23h-25.29a4.84 4.84 0 0 1 -4.84-4.84v-2.73a0 0 0 0 1 .03 0z" fill="#f44336" transform="matrix(-1 0 0 -1 323.71 119.98)"/><path d="m146 55.43h33.7a4.14 4.14 0 0 1 4.14 4.14v.85a4.14 4.14 0 0 1 -4.14 4.14h-33.7a1.43 1.43 0 0 1 -1.43-1.43v-6.27a1.43 1.43 0 0 1 1.43-1.43z" fill="#e0f7fa" transform="matrix(-1 0 0 -1 328.45 119.98)"/><rect fill="#e0f7fa" height="2.89" rx="1.45" transform="matrix(0 1 -1 0 243.15 -123.17)" width="16.71" x="174.8" y="58.54"/><path d="m181.27 53.98v12.02" fill="#80deea" stroke="#b2ebf2" stroke-miterlimit="10" stroke-width=".87"/><rect fill="#fff" height="13.35" opacity=".58" rx="1.05" transform="matrix(0 1 -1 0 229.86 -117.11)" width="2.46" x="172.26" y="49.7"/><path d="m159.77 52.43h4.17v21.13h-4.17z" fill="#eee" transform="matrix(0 1 -1 0 224.85 -98.85)"/><path d="m169.55 62.22h4.17v1.56h-4.17z" fill="#ffee58" transform="matrix(0 1 -1 0 234.64 -108.64)"/><path d="m172.42 64.51h-20.56v-3.6h-.57v4.18h21.13z" fill="#eee"/></svg>