<svg xmlns="http://www.w3.org/2000/svg" viewBox="0 0 1200 730"><defs><style>.cls-1{isolation:isolate;}.cls-2{fill:#424242;}.cls-3{fill:#616161;}.cls-4{fill:#757575;}.cls-10,.cls-4,.cls-6{fill-rule:evenodd;}.cls-11,.cls-5{fill:#e0e0e0;}.cls-6{fill:#bdbdbd;}.cls-7{fill:#212121;}.cls-8{fill:none;}.cls-9{fill:#303030;}.cls-10,.cls-12{fill:#74b5cf;}.cls-11,.cls-12{mix-blend-mode:multiply;}</style></defs><g class="cls-1"><g id="Layer_1" data-name="Layer 1"><path class="cls-2" d="M849.58,514.45l-.26.06c-1.15,8.06-6.66,15.64-16.75,21.46L754.39,581.1c-17.26,10-43.36,12.24-67.45,7.3l-32.47,18.75c-16.84,9.72-46.31,8.5-65.76-2.73L538.8,575.61c-25.46,7.95-58.53,5.47-80.7-7.32-12.05-7-18.82-15.78-20.29-24.74l-.32,0,0,22.38a21,21,0,0,0,0,2.51v.13h0c.58,9.77,7.44,19.55,20.56,27.12,22.17,12.8,55.24,15.28,80.7,7.33l49.91,28.81c19.45,11.23,48.92,12.45,65.76,2.73l32.47-18.75c24.09,4.94,50.19,2.66,67.45-7.3l78.18-45.13c10.52-6.07,16.08-14.05,16.89-22.5h0v-.18a22.26,22.26,0,0,0,0-3.83Z"/><path class="cls-3" d="M458.1,568.29c22.17,12.79,55.24,15.27,80.7,7.32l49.91,28.81c19.45,11.23,48.92,12.45,65.76,2.73l32.47-18.75c24.09,4.94,50.19,2.66,67.45-7.3L832.57,536c10.09-5.82,15.6-13.4,16.75-21.46,1.21-8.47-2.39-17.47-10.67-25.57a65.84,65.84,0,0,0-13.15-9.78l-2.08-1.2-29.17-16.84-28.09-16.21C746.75,433.7,720.68,429.2,698,431.73c-11.33,1.26-21.85,4.25-30.24,9.1l-6.06,3.5-15.66,9-47.63,27.5a49.73,49.73,0,0,0-16.76,5.6l-22.38,12.92a136.27,136.27,0,0,1-37.5,4.32c-22.73-3.76-47.82-.68-65.27,9.39-14.3,8.25-20.47,19.46-18.67,30.46C439.28,552.51,446.05,561.33,458.1,568.29Z"/><path class="cls-4" d="M566.36,599.49a7.81,7.81,0,0,0-3.25-6.22l-16.72-9.65c-1.8-1-3.26.07-3.26,2.46v8.68a7.79,7.79,0,0,0,3.26,6.22l16.72,9.65c1.79,1,3.25-.06,3.25-2.46Z"/><ellipse class="cls-5" cx="492.79" cy="537.78" rx="27.1" ry="15.64"/><ellipse class="cls-5" cx="555.88" cy="547.99" rx="20.28" ry="11.71"/><path class="cls-6" d="M564.27,600.18a7,7,0,0,0-2.92-5.58l-15.29-8.83c-1.62-.93-2.93.06-2.93,2.21v7.79a7,7,0,0,0,2.93,5.58l15.29,8.83c1.61.93,2.92-.06,2.92-2.21Z"/><path class="cls-7" d="M1043.21,255.53,911.27,179c-36.41-21.12-91.58-23.42-123.11-5.13L618.7,272.17l7,4a15.22,15.22,0,0,1,6.41,6.31L788.16,192c31.53-18.29,86.7-16,123.11,5.13l131.94,76.54c15.61,9.05,25.23,20.1,28.68,31.22C1077.27,288.43,1067.43,269.58,1043.21,255.53Z"/><path class="cls-8" d="M1092,323.11c-.91.71-1.83,1.42-2.82,2.1C1090.18,324.53,1091.11,323.82,1092,323.11Z"/><path class="cls-8" d="M1088.35,325.77c-1.24.83-2.51,1.65-3.86,2.44C1085.84,327.42,1087.12,326.6,1088.35,325.77Z"/><path class="cls-7" d="M1108.5,293.46a32.25,32.25,0,0,1-1.21,8.61c-2.19,7.63-7.28,14.82-15.27,21-.91.71-1.84,1.42-2.82,2.1l-.85.56c-1.23.83-2.51,1.65-3.86,2.44L837.63,471.41A88.89,88.89,0,0,1,823.42,478l2.08,1.2a65.84,65.84,0,0,1,13.15,9.78l245.84-142.61c14.88-8.64,22.77-20,23.91-32l.15-.08V293.44Z"/><path class="cls-9" d="M1084.49,328.21c1.35-.79,2.62-1.61,3.86-2.44l.85-.56c1-.68,1.91-1.39,2.82-2.1,8-6.22,13.08-13.41,15.27-21a32.25,32.25,0,0,0,1.21-8.61c.17-16-11.32-32.87-34-46L925.24,160.85c-41.19-23.9-103.59-26.5-139.26-5.8L601.35,262.15l17.35,10,169.46-98.31c31.53-18.29,86.7-16,123.11,5.13l131.94,76.54c24.22,14,34.06,32.9,28.68,49.34-2.71,8.28-9.27,15.95-19.84,22.08L841.83,448.89c-12.88,7.47-29.7,11.51-47.58,12.23L823.42,478a88.89,88.89,0,0,0,14.21-6.55Z"/><path class="cls-10" d="M747.78,453.93c-17.19-9.92-43.23-11-58.12-2.41L607,499.25c-14.89,8.6-13,23.63,4.17,33.55l62.29,36c17.18,9.92,43.23,11,58.11,2.41l82.69-47.73c14.88-8.59,13-23.62-4.17-33.54Z"/><polygon class="cls-8" points="606.13 305.69 606.13 305.69 580.13 320.7 606.13 305.69"/><path class="cls-7" d="M512.07,292.58l-.12,0-.42,11.34.45-.27c2.43-1.39,6-1.73,9.45-1.1l-2.23-1.29C514.87,298.78,512.46,295.64,512.07,292.58Z"/><path class="cls-2" d="M557.06,322.14a36.16,36.16,0,0,0,8.58,1.44c5.4.26,10.67-.68,14.49-2.88l26-15,19.62-11.33,2-1.18c3.27-1.89,4.9-4.39,5-7a7.57,7.57,0,0,0-.73-3.64,15.22,15.22,0,0,0-6.41-6.31l-7-4-17.35-10L594.17,258c-8.7-5-21.87-5.57-29.41-1.22l-47.67,27.52c-3.78,2.18-5.42,5.19-5,8.27s2.8,6.2,7.13,8.7l2.23,1.29a15.07,15.07,0,0,1,4.83,1.7l15.3,8.83a7.71,7.71,0,0,1,2.94,2.78l6.22,3.6A29.63,29.63,0,0,0,557.06,322.14Z"/><path class="cls-11" d="M570.22,539.71c-4.52-2.61-10.66-3.68-16.56-3.31a28.23,28.23,0,0,1,12.11,3.31c7.92,4.57,7.92,12,0,16.56a28.23,28.23,0,0,1-12.11,3.3c5.9.37,12-.69,16.56-3.3C578.14,551.7,578.14,544.28,570.22,539.71Z"/><path class="cls-11" d="M512,526.72c-5.86-3.38-13.73-4.88-21.39-4.52a38,38,0,0,1,16.94,4.52c10.57,6.11,10.57,16,0,22.12a38,38,0,0,1-16.94,4.52c7.66.36,15.53-1.14,21.39-4.52C522.52,542.74,522.52,532.83,512,526.72Z"/><path class="cls-12" d="M810.07,489.89l-62.29-36c-10.66-6.15-24.73-8.9-37.43-8.05,10.08.61,20.31,3.31,28.52,8.05l62.29,36c17.19,9.92,19.06,25,4.17,33.54l-82.68,47.73c-5.65,3.26-12.92,5.12-20.69,5.64,11,.67,21.82-1.15,29.59-5.64l82.69-47.73C829.12,514.84,827.25,499.81,810.07,489.89Z"/><path class="cls-8" d="M331.05,410.35l-25.53,37.49,56.18-14.16q-4.26-2-8.23-4.28C343.68,423.75,336.23,417.26,331.05,410.35Z"/><path class="cls-8" d="M483,354.62c-29.92-17.27-78.51-17.27-108.43,0l-.13.07a48.33,48.33,0,0,0-15.56,14.76,30.6,30.6,0,0,0-4.27,9.33A29.7,29.7,0,0,0,362.2,392a58.38,58.38,0,0,0,12.39,9.36,97.07,97.07,0,0,0,31.14,10.89,117.51,117.51,0,0,0,49.47-2.13l15.56-3.93A47.6,47.6,0,0,0,483,401.39l.07,0c11.45-6.61,18.51-14.8,21.19-23.37C501.53,369.42,494.47,361.23,483,354.62Z"/><path class="cls-2" d="M182.28,496.7l-.12-.16a44.17,44.17,0,0,1-6.38,2.13c-17,4.27-36.73-.2-44.14-10A13.47,13.47,0,0,1,129,483l-.2-.06v14.82l.07,0a13,13,0,0,0,2.73,6.78c7.41,9.79,27.18,14.27,44.14,10a43,43,0,0,0,6.38-2.13l.12.16L228.18,501l13-19.14Z"/><path class="cls-2" d="M292.2,555.72c-6.15-1.4-10.64-4.18-12.86-7.48a7.27,7.27,0,0,1-1.93-.15l-12.56-2.85c-9.08,4.26-21.76,5.66-33.41,3-12.6-2.86-20.49-9.64-21.18-17h0l-.06,15.54h.05c.51,7.44,8.45,14.37,21.22,17.27,11.65,2.64,24.33,1.24,33.41-3L277.41,564a7.27,7.27,0,0,0,1.93.14c2.22,3.3,6.71,6.09,12.86,7.48,11.69,2.65,24.9-.67,29.49-7.41a8.94,8.94,0,0,0,1.48-3.64l.1,0V544.62h-.09a8.83,8.83,0,0,1-1.49,3.69C317.1,555.05,303.89,558.37,292.2,555.72Z"/><path class="cls-2" d="M331.05,394.49l-38.56,56.63,13-3.28,25.53-37.49c5.18,6.91,12.63,13.4,22.42,19q4,2.28,8.23,4.28L388.36,427a129.46,129.46,0,0,1-34.89-13.42C343.68,407.89,336.23,401.41,331.05,394.49Z"/><path class="cls-2" d="M504.14,413.54C487,423.46,465.34,429.27,443,431L277.86,472.61l-26.44,38.82c1.53.21,3.05.46,4.55.8a45.46,45.46,0,0,1,4.78,1.36l17.11-25.13L443,446.84c22.39-1.72,44-7.52,61.19-17.44,24.29-14,34.36-33.15,30.27-51.41C531.51,391,521.43,403.56,504.14,413.54Z"/><path class="cls-2" d="M135.61,469.3l-3.73-4.93a5.46,5.46,0,0,1-1.22-3.17c-6.13-1.08-11.44-3.64-14.2-7.29a8.44,8.44,0,0,1-1.86-5.79l0,0V465h0a8.76,8.76,0,0,0,1.87,4.72c2.6,3.45,7.48,5.91,13.17,7.09A17.59,17.59,0,0,1,135.61,469.3Z"/><path class="cls-8" d="M331.05,394.49l-38.56,56.63,13-3.28,56.18-14.16L388.36,427a129.46,129.46,0,0,1-34.89-13.42C343.68,407.89,336.23,401.41,331.05,394.49Z"/><path class="cls-8" d="M483,354.62c-29.92-17.27-78.51-17.27-108.43,0l-.13.07a48.33,48.33,0,0,0-15.56,14.76,30.6,30.6,0,0,0-4.27,9.33A29.7,29.7,0,0,0,362.2,392a58.38,58.38,0,0,0,12.39,9.36,97.07,97.07,0,0,0,31.14,10.89,117.51,117.51,0,0,0,49.47-2.13l15.56-3.93A47.6,47.6,0,0,0,483,401.39l.07,0c11.45-6.61,18.51-14.8,21.19-23.37C501.53,369.42,494.47,361.23,483,354.62Z"/><path class="cls-7" d="M632.87,286.15h0c-.13,2.64-1.76,5.14-5,7l-2,1.18-19.62,11.33-26,15c-3.82,2.2-9.09,3.14-14.49,2.88a36.16,36.16,0,0,1-8.58-1.44,29.63,29.63,0,0,1-6.34-2.66l-6.22-3.6c1.09,2,.51,4.06-1.92,5.46L517.36,335.9a59.61,59.61,0,0,1,10.75,11.91l14.47-8.35c2.43-1.4,3-3.49,1.92-5.46l6.22,3.6c8.7,5,21.87,5.56,29.41,1.22L627.8,311.3c3-1.75,4.66-4,5-6.43h0v-.06a6.67,6.67,0,0,0,0-1.84Z"/><path class="cls-2" d="M483,338.76c-29.92-17.27-78.51-17.27-108.43,0l-.13.08A48.33,48.33,0,0,0,358.9,353.6a30.62,30.62,0,0,0-4.27,25.18,30.6,30.6,0,0,1,4.27-9.33,48.33,48.33,0,0,1,15.56-14.76l.13-.07c29.92-17.27,78.51-17.27,108.43,0,11.45,6.61,18.51,14.8,21.19,23.36C508.54,364.18,501.48,349.42,483,338.76Z"/><path class="cls-8" d="M483,338.76c-29.92-17.27-78.51-17.27-108.43,0l-.13.08A48.33,48.33,0,0,0,358.9,353.6a30.62,30.62,0,0,0-4.27,25.18A29.7,29.7,0,0,0,362.2,392a58.38,58.38,0,0,0,12.39,9.36,97.07,97.07,0,0,0,31.14,10.89,117.51,117.51,0,0,0,49.47-2.13l15.56-3.93A47.6,47.6,0,0,0,483,401.39l.07,0c11.45-6.61,18.51-14.8,21.19-23.37C508.54,364.18,501.48,349.42,483,338.76Z"/><path class="cls-8" d="M331.05,394.49l-38.56,56.63,13-3.28,56.18-14.16L388.36,427a129.46,129.46,0,0,1-34.89-13.42C343.68,407.89,336.23,401.41,331.05,394.49Z"/><path class="cls-2" d="M544.5,315.88a7.71,7.71,0,0,0-2.94-2.78l-15.3-8.83a15.07,15.07,0,0,0-4.83-1.7c-3.4-.63-7-.29-9.45,1.1l-.45.27-25,14.43a116.92,116.92,0,0,1,17.61,8.2,85.47,85.47,0,0,1,13.22,9.33l25.22-14.56C545,319.94,545.59,317.85,544.5,315.88Z"/><path class="cls-3" d="M486.53,318.37c-41.26-15.37-96.94-12.65-133.06,8.2-16.85,9.73-26.87,21.92-30.06,34.57l-67.57,99.22-61.2,15.43a15,15,0,0,0-1.55-2.6c-5.16-6.82-16.34-11.05-28.39-11.55L161.18,457a10,10,0,0,0-3.33-2.75c2.7-3.3,3-7.23.3-10.84-5-6.64-18.45-9.68-30-6.78-8.24,2.08-13.25,6.64-13.6,11.5a8.44,8.44,0,0,0,1.86,5.79c2.76,3.65,8.07,6.21,14.2,7.29a5.46,5.46,0,0,0,1.22,3.17l3.73,4.93a17.59,17.59,0,0,0-6,7.55A11.44,11.44,0,0,0,129,483a13.47,13.47,0,0,0,2.6,5.71c7.41,9.79,27.18,14.26,44.14,10a44.17,44.17,0,0,0,6.38-2.13l.12.16,58.93-14.86-13,19.14-12.5,18.36.27.06a19.57,19.57,0,0,0-3.45,3.76,12.17,12.17,0,0,0-2.24,8.12c.69,7.33,8.58,14.11,21.18,17,11.65,2.65,24.33,1.25,33.41-3l12.56,2.85a7.27,7.27,0,0,0,1.93.15c2.22,3.3,6.71,6.08,12.86,7.48,11.69,2.65,24.9-.67,29.49-7.42a8.83,8.83,0,0,0,1.49-3.69c.83-5.63-4.75-11.16-14.34-13.33a38.1,38.1,0,0,0-18,.36,5.1,5.1,0,0,0-1.72-.72L277,528.17c-1.12-5.95-7-11.43-16.27-14.58a45.46,45.46,0,0,0-4.78-1.36c-1.5-.34-3-.59-4.55-.8l26.44-38.82L443,431c22.39-1.72,44-7.53,61.19-17.45S531.51,391,534.41,378c2.27-10.14.16-20.54-6.3-30.18a59.61,59.61,0,0,0-10.75-11.91h0a85.47,85.47,0,0,0-13.22-9.33A116.92,116.92,0,0,0,486.53,318.37ZM361.7,433.68l-56.18,14.16-13,3.28,38.56-56.63c5.18,6.92,12.63,13.4,22.42,19.05A129.46,129.46,0,0,0,388.36,427ZM504.21,378c-2.68,8.57-9.74,16.76-21.19,23.37l-.07,0a47.6,47.6,0,0,1-12.19,4.79l-15.56,3.93a117.51,117.51,0,0,1-49.47,2.13,97.07,97.07,0,0,1-31.14-10.89A58.38,58.38,0,0,1,362.2,392a29.7,29.7,0,0,1-7.57-13.21,30.62,30.62,0,0,1,4.27-25.18,48.33,48.33,0,0,1,15.56-14.76l.13-.08c29.92-17.27,78.51-17.27,108.43,0C501.48,349.42,508.54,364.18,504.21,378Z"/></g></g></svg>