<svg id="Layer_1" data-name="Layer 1" xmlns="http://www.w3.org/2000/svg" viewBox="0 0 1200 730"><defs><style>.cls-1{fill:#595962;}.cls-2{fill:#919191;}.cls-3{fill:#5a5962;}.cls-4{fill:#53ae71;}.cls-5{fill:#539cae;}.cls-6{fill:#4f4f65;}.cls-7{fill:#787878;}.cls-8{fill:#4c4c4c;}.cls-9{fill:none;}.cls-10{fill:#643939;}.cls-10,.cls-11,.cls-20{fill-rule:evenodd;}.cls-11{fill:#783055;}.cls-12{fill:#ba588a;}.cls-13{fill:#d8639f;}.cls-14{fill:#dd93b8;}.cls-15{fill:#a9a9a9;}.cls-16{fill:#388e98;}.cls-17{fill:#59aeb8;}.cls-18{fill:#78d4df;}.cls-19{fill:#b5e4ea;}.cls-20{fill:#a77;}.cls-21{fill:#33334a;}.cls-22{fill:#c2c2c2;}.cls-23{fill:#ac4949;}.cls-24{fill:#bababa;}.cls-25{fill:#fff;}.cls-26{fill:#888157;}.cls-27{fill:#bab17a;}.cls-28{fill:#dfd078;}.cls-29{fill:#ebdf94;}</style></defs><path class="cls-1" d="M804.56,373.08c.76,5.47-2.11,10.8-8.8,14.66L604,498.48c-13.23,7.64-36.38,6.68-51.66-2.14L218,303.34c-8-4.63-12.24-10.51-12.58-16.16l0,0v28.92c0,.2,0,.41,0,.62-.45,6.12,3.81,12.68,12.58,17.75l334.3,193c15.28,8.83,38.43,9.78,51.66,2.14L795.76,418.85c6.2-3.58,9.09-8.42,8.88-13.46a12.08,12.08,0,0,0,.1-1.33V373Z"/><polygon class="cls-2" points="488.36 243.55 472.79 234.56 464.95 239.08 476.16 245.56 357.58 314.02 346.36 307.54 333.75 314.82 349.33 323.81 488.36 243.55"/><polygon class="cls-3" points="547.67 269.91 547.67 261.96 546.88 261.51 384.77 355.1 596.64 477.42 758.75 383.83 751.23 379.49 751.23 387.43 547.67 269.91"/><polygon class="cls-4" points="384.4 393.22 418.7 413.02 440.24 400.58 405.94 380.78 384.4 393.22"/><polygon class="cls-5" points="493.53 456.03 540.3 483.04 561.84 470.6 515.07 443.6 493.53 456.03"/><polygon class="cls-6" points="758.75 383.82 758.76 383.81 547.67 261.94 547.67 261.96 547.67 269.91 751.23 387.43 751.23 379.49 751.23 379.48 758.75 383.82"/><path d="M526.91,231.76a.55.55,0,0,0-.27-.46l-97-56a.52.52,0,0,0-.54,0l-37.31,21.54,1.07.62L429.4,176.4l95.89,55.36-192,110.88-95.9-55.36,32.86-19-1.08-.62L236,286.82a.52.52,0,0,0-.27.46.55.55,0,0,0,.27.47l97,56a.5.5,0,0,0,.27.07.54.54,0,0,0,.27-.07l193.13-111.5A.55.55,0,0,0,526.91,231.76Z"/><polygon class="cls-7" points="800.36 243.33 797.48 245 795.87 245.93 721.18 289.05 726.61 292.18 801.3 249.06 1042.79 388.49 1047.29 385.89 800.36 243.33"/><polygon class="cls-7" points="852.66 247.95 852.65 247.96 800.41 217.79 797.56 219.44 699.08 276.29 704.22 279.26 801.05 223.35 1114.55 404.34 1119.04 401.75 852.66 247.95"/><polygon class="cls-8" points="787.2 355.12 790.92 352.96 790.92 329.32 766.72 343.29 787.2 355.12"/><polygon class="cls-9" points="766.72 343.29 790.92 329.32 766.72 343.29 766.72 343.29"/><polygon class="cls-10" points="184.93 82.18 66.34 150.64 357.61 318.8 476.19 250.34 184.93 82.18 184.93 82.18"/><path class="cls-11" d="M802.58,468.2c11-6.35,25.81-8.12,33-3.95s4.17,12.72-6.84,19.08-25.8,8.12-33,3.94-4.17-12.72,6.83-19.07Z"/><path class="cls-11" d="M852.87,450.72l-33.12,19.12c-2.21,1.28-1.93,3.51.63,5a7.84,7.84,0,0,0,7.07.29l33.84-19.54-8.42-4.86Z"/><polygon class="cls-11" points="862.2 445.4 856.4 448.75 864.92 453.66 870.72 450.31 862.2 445.4 862.2 445.4"/><polygon class="cls-11" points="858.08 449.69 854.47 451.77 859.43 454.64 863.04 452.56 858.08 449.69 858.08 449.69"/><rect class="cls-9" x="859.27" y="448.43" width="4.02" transform="translate(-108.82 490.81) rotate(-30.01)"/><polygon class="cls-9" points="845.27 459.87 859.49 451.66 859.49 451.66 845.27 459.87 845.27 459.87"/><path class="cls-12" d="M859.49,451.66l-14.22,8.21a9.37,9.37,0,0,1,1.91,4.05l14.27-8.23V453.5l-2,1.14Z"/><path class="cls-9" d="M840.12,478l-.47.4Z"/><path class="cls-9" d="M842.17,476.13l-.24.24Z"/><path class="cls-9" d="M837.7,479.9c-.2.15-.39.3-.61.44C837.31,480.2,837.5,480.05,837.7,479.9Z"/><path class="cls-12" d="M847.33,465.24a10.26,10.26,0,0,1-.32,3.08,16.26,16.26,0,0,1-3.1,5.85,23.77,23.77,0,0,1-1.74,2l-.24.24c-.56.56-1.16,1.11-1.81,1.66l-.47.4c-.61.5-1.27,1-1.95,1.47-.2.15-.39.3-.61.44-.88.61-1.81,1.2-2.81,1.78-14.17,8.18-34,10-44.27,4.08a11.43,11.43,0,0,1-5.66-6.61,10,10,0,0,1-.3-1.8,1.6,1.6,0,0,0,0,.23v4.59s0,.06,0,.1c.16,3.35,2.1,6.39,6,8.63,10.27,5.93,30.1,4.1,44.27-4.08,8.58-5,13.1-11.11,13.07-16.51a3.05,3.05,0,0,0,0-.41v-4.65A1.93,1.93,0,0,0,847.33,465.24Z"/><path class="cls-13" d="M790,486.2c10.27,5.93,30.1,4.1,44.27-4.08,1-.58,1.93-1.17,2.81-1.78.22-.14.41-.29.61-.44.68-.48,1.34-1,1.95-1.47l.47-.4c.65-.55,1.25-1.1,1.81-1.66l.24-.24a23.77,23.77,0,0,0,1.74-2,16.26,16.26,0,0,0,3.1-5.85,10.26,10.26,0,0,0,.32-3.08,9.52,9.52,0,0,0-.15-1.32,9.37,9.37,0,0,0-1.91-4.05h0l-6,3.47c1.34,4.42-2.44,10.22-10.47,14.85-11,6.35-25.8,8.12-33,3.94s-4.17-12.72,6.83-19.07c9.46-5.46,21.72-7.52,29.57-5.34l5.11-3c-10.86-3.59-27.71-1.32-40.17,5.88-8.93,5.15-13.45,11.59-13,17.14a10,10,0,0,0,.3,1.8A11.43,11.43,0,0,0,790,486.2Z"/><path class="cls-14" d="M820.52,469.78c-2.56-1.48-2.84-3.71-.62-5l12.25-7.07c-7.85-2.18-20.11-.12-29.57,5.34-11,6.35-14.06,14.9-6.83,19.07s22,2.41,33-3.94c8-4.63,11.81-10.43,10.47-14.85l-11.66,6.73A7.84,7.84,0,0,1,820.52,469.78Z"/><polygon class="cls-12" points="859.54 449.44 861.43 450.53 859.49 451.66 859.49 451.66 859.49 454.64 861.45 453.5 863.02 452.6 863.02 447.43 863.02 447.43 859.54 449.44"/><path class="cls-13" d="M819.9,464.79c-2.22,1.28-1.94,3.51.62,5a7.84,7.84,0,0,0,7.07.29l11.66-6.73,6-3.47,14.22-8.21,1.94-1.13-1.89-1.09h0l-.11.06-5-2.86.1-.07-1.56-.9-15.75,9.1-5.11,3Z"/><polygon class="cls-13" points="859.43 449.5 859.54 449.44 863.02 447.43 863.04 447.42 858.07 444.55 858.05 444.56 854.57 446.57 854.47 446.64 859.43 449.5"/><polygon class="cls-7" points="800.74 269.45 743.98 302.21 748.53 304.84 800.74 274.7 975.48 375.58 980.03 372.96 800.74 269.45"/><path class="cls-7" d="M992.2,372.63a2.53,2.53,0,0,1-1.51,2.57l-3.39,2h0L870.1,444.82l.62.36h0v4.54L987.3,382.41h0l3.39-2a2.67,2.67,0,0,0,1.51-2.09l0,0V372.6Z"/><path class="cls-8" d="M987.3,377.15h0l3.39-2a2.53,2.53,0,0,0,1.51-2.57,4,4,0,0,0-2.15-2.58L805.27,263.37l-.07,0-4.28-2.47L736.71,298l7.27,4.19,56.76-32.76L980,373l-4.56,2.62-112.64,65,7.27,4.2Z"/><polygon class="cls-15" points="736.71 298.01 726.61 292.18 721.18 289.05 713.9 284.85 704.22 279.26 699.08 276.29 691.81 272.09 668.94 258.89 644.73 272.87 766.72 343.29 790.92 329.32 748.53 304.84 743.98 302.21 736.71 298.01"/><polygon class="cls-13" points="870.72 445.18 870.72 445.18 870.72 445.18 870.1 444.82 862.83 440.62 862.2 440.26 856.4 443.61 858.05 444.56 858.07 444.55 863.04 447.42 863.02 447.43 863.02 447.43 863.02 447.43 864.92 448.52 870.72 445.18"/><polygon class="cls-12" points="870.72 445.18 864.92 448.52 864.91 448.53 864.91 453.68 870.72 450.33 870.72 449.71 870.72 445.18 870.72 445.18"/><path class="cls-11" d="M821.68,508.74c11-6.35,25.8-8.12,33-3.95s4.17,12.73-6.83,19.08-25.81,8.12-33,3.94-4.17-12.72,6.84-19.07Z"/><path class="cls-11" d="M872,491.26l-33.12,19.12c-2.21,1.28-1.94,3.51.62,5a7.84,7.84,0,0,0,7.07.29l33.85-19.54L872,491.26Z"/><polygon class="cls-11" points="877.17 490.23 873.56 492.31 878.53 495.18 882.13 493.1 877.17 490.23 877.17 490.23"/><path class="cls-11" d="M848.33,550.78c11-6.35,25.81-8.12,33-3.95s4.16,12.73-6.84,19.08-25.8,8.12-33,3.94-4.17-12.72,6.84-19.07Z"/><path class="cls-11" d="M898.62,533.3,865.5,552.42c-2.21,1.28-1.93,3.51.62,5a7.84,7.84,0,0,0,7.07.29L907,538.16l-8.42-4.86Z"/><polygon class="cls-11" points="903.82 532.27 900.21 534.36 905.18 537.22 908.79 535.14 903.82 532.27 903.82 532.27"/><polygon class="cls-9" points="891.02 542.45 905.23 534.24 905.23 534.24 891.01 542.45 891.02 542.45"/><polygon class="cls-16" points="916.47 532.89 916.47 532.9 916.47 532.9 916.47 532.89"/><polygon class="cls-16" points="910.66 531.11 908.77 530.01 906.79 531.15 908.77 530.01 908.77 535.15 910.66 536.24 910.66 531.11 910.66 531.11"/><path class="cls-17" d="M905.23,534.24,891,542.45a9.37,9.37,0,0,1,1.91,4l14.26-8.23v-2.18l-2,1.13Z"/><path class="cls-9" d="M887.92,558.71l-.24.24Z"/><path class="cls-9" d="M885.87,560.61l-.47.4Z"/><path class="cls-9" d="M883.46,562.48l-.62.45Z"/><path class="cls-9" d="M834.93,568.22c.28.18.52.39.83.56-.31-.17-.55-.38-.83-.56Z"/><path class="cls-17" d="M893.08,547.84a10.13,10.13,0,0,1-.32,3.06,18.08,18.08,0,0,1-4.84,7.81l-.24.24c-.56.56-1.16,1.11-1.81,1.66l-.47.4c-.61.5-1.26,1-1.94,1.47l-.62.45c-.89.6-1.82,1.2-2.81,1.77-14.17,8.18-34,10-44.27,4.08-.31-.17-.55-.38-.83-.56h0a11,11,0,0,1-4.83-6.05,9.15,9.15,0,0,1-.3-1.8,1.57,1.57,0,0,0,0,.23v4.59s0,.07,0,.1c.16,3.35,2.09,6.39,6,8.63,10.26,5.93,30.1,4.1,44.27-4.08,8.59-5,13.11-11.12,13.06-16.53a2.63,2.63,0,0,0,.06-.39v-4.65A1.76,1.76,0,0,0,893.08,547.84Z"/><path class="cls-18" d="M834.93,568.22c.28.18.52.39.83.56,10.26,5.93,30.1,4.1,44.27-4.08,1-.57,1.92-1.17,2.81-1.77l.62-.45c.68-.49,1.33-1,1.94-1.47l.47-.4c.65-.55,1.25-1.1,1.81-1.66l.24-.24a18.08,18.08,0,0,0,4.84-7.81,10.13,10.13,0,0,0,.32-3.06,10,10,0,0,0-.15-1.34,9.37,9.37,0,0,0-1.91-4h0l-6,3.47c1.33,4.42-2.44,10.22-10.47,14.85-11,6.35-25.8,8.12-33,3.94s-4.17-12.72,6.84-19.07c9.46-5.46,21.71-7.52,29.56-5.34l5.11-2.95c-10.86-3.59-27.7-1.32-40.16,5.88-8.93,5.15-13.45,11.59-13,17.14a9.15,9.15,0,0,0,.3,1.8A11,11,0,0,0,834.93,568.22Z"/><path class="cls-19" d="M866.26,552.36c-2.55-1.48-2.83-3.71-.62-5l12.25-7.07c-7.85-2.18-20.1-.12-29.56,5.34-11,6.35-14.07,14.9-6.84,19.07s22,2.41,33-3.94c8-4.63,11.8-10.43,10.47-14.85l-11.66,6.73A7.86,7.86,0,0,1,866.26,552.36Z"/><polygon class="cls-17" points="906.79 531.15 905.29 532.02 907.18 533.12 905.23 534.24 905.23 534.24 905.23 537.22 907.19 536.09 908.77 535.18 908.77 535.15 908.77 530.01 906.79 531.15"/><path class="cls-18" d="M865.64,547.37c-2.21,1.28-1.93,3.51.62,5a7.86,7.86,0,0,0,7.08.29L885,545.92l6-3.47,14.22-8.21,1.95-1.12-1.89-1.1-.11.07-5-2.87.11-.07-1.56-.9L883,537.35l-5.11,2.95Z"/><polygon class="cls-18" points="905.18 532.09 905.29 532.02 906.79 531.15 908.77 530.01 908.79 530 903.82 527.13 903.8 527.15 900.32 529.15 900.21 529.22 905.18 532.09"/><path class="cls-7" d="M1129.76,404l-2.28,1.32h0L915.89,527.43l.58.33h0v4.6l211.67-122.21h0l1.62-.94a2.52,2.52,0,0,0,1.5-2.57v-4.48A2.92,2.92,0,0,1,1129.76,404Z"/><path class="cls-8" d="M1131.23,401.13a4.2,4.2,0,0,0-2.13-2.41L860.31,243.54l-54.78-31.63-.14.09-4.74-2.74L691.81,272.09l7.27,4.2,98.48-56.85,2.85-1.65L852.65,248h0L1119,401.74l-4.49,2.6L908.62,523.23l7.27,4.2,211.59-122.16h0l2.28-1.32a2.92,2.92,0,0,0,1.5-1.79,2.15,2.15,0,0,0,0-.91Z"/><polygon class="cls-18" points="916.47 527.76 916.47 527.76 916.47 527.76 915.89 527.43 908.62 523.23 907.95 522.84 902.15 526.19 903.8 527.15 903.82 527.13 908.79 530 908.77 530.01 910.66 531.11 916.47 527.76"/><polygon class="cls-17" points="916.47 527.76 910.66 531.11 910.66 531.11 910.66 536.24 910.66 536.26 916.47 532.91 916.47 532.9 916.47 532.89 916.47 532.36 916.47 527.76 916.47 527.76"/><polygon class="cls-9" points="795.87 245.93 720.81 289.26 795.87 245.93 795.87 245.93"/><polygon class="cls-7" points="1059.43 385.48 1059.43 385.48 1059.43 385.49 1059.43 385.48"/><path class="cls-7" d="M1131.26,401.11l0,0,0,.12Z"/><polygon class="cls-20" points="476.15 245.55 357.35 314.14 357.35 318.9 476.15 250.31 476.15 245.55 476.15 245.55"/><polygon class="cls-9" points="751.86 387.8 751.23 388.16 751.86 387.8 751.86 387.8"/><polygon class="cls-6" points="751.86 387.8 758.75 383.82 751.86 387.8 751.86 387.8"/><polygon class="cls-21" points="758.75 383.82 751.23 379.48 751.23 387.43 751.23 388.16 751.86 387.8 758.75 383.82"/><path class="cls-22" d="M804.56,373.08c-.75-5.34-5-10.8-12.51-15.16l-4.85-2.81-20.48-11.82h0l-122-70.42-187-108c-15.28-8.82-38.43-9.78-51.66-2.14L214.28,273.51c-6.29,3.63-9.17,8.56-8.87,13.67.34,5.65,4.56,11.53,12.58,16.16l334.3,193c15.28,8.82,38.43,9.78,51.66,2.14L795.76,387.74C802.45,383.88,805.32,378.55,804.56,373.08Zm-458.2-65.54L357.58,314l118.58-68.46L465,239.08l7.84-4.52,15.57,9-139,80.26-15.58-9ZM333.24,343.8a.5.5,0,0,1-.27-.07l-97-56a.55.55,0,0,1-.27-.47.52.52,0,0,1,.27-.46l33.12-19.12,1.08.62-32.86,19,95.9,55.36,192-110.88L429.4,176.4l-36.51,21.08-1.07-.62,37.31-21.54a.52.52,0,0,1,.54,0l97,56a.54.54,0,0,1,0,.93L333.51,343.73A.54.54,0,0,1,333.24,343.8ZM418.7,413l-34.3-19.8,21.54-12.44,34.3,19.81Zm121.6,70-46.77-27,21.54-12.43,46.77,27Zm56.34-5.62L384.77,355.1l162.11-93.59.79.45v0L758.76,383.81h0l-7.52-4.34h0l7.51,4.34-6.88,4-.63.36-35.77,20.65h0Z"/><path class="cls-9" d="M476.16,245.56l-59.05,34.09a.51.51,0,0,1-.33.19L357.58,314l-.06,0v4.74L270.2,268.32l-32.86,19,95.9,55.36,192-110.88L429.4,176.4l-36.51,21.08L465,239.08Z"/><polygon class="cls-23" points="384.03 218.01 369.56 226.4 384.39 234.96 398.86 226.58 384.03 218.01"/><polygon class="cls-23" points="354.43 200.91 339.97 209.29 354.37 217.62 368.84 209.24 354.43 200.91"/><polygon class="cls-23" points="369.05 209.36 354.59 217.74 369.35 226.27 383.81 217.89 369.05 209.36"/><path class="cls-23" d="M428.63,243.54l14.54-8.42-14.39-8.31a.09.09,0,0,1,0,.1l-14.42,8.35Z"/><polygon class="cls-23" points="413.88 235.26 399.07 226.71 384.61 235.09 399.42 243.65 413.88 235.26"/><polygon class="cls-23" points="443.82 252.32 458.36 243.9 443.38 235.24 443.37 235.25 428.85 243.66 443.82 252.32"/><polygon class="cls-23" points="414.17 252.17 429.14 260.82 443.61 252.44 428.63 243.79 414.17 252.17"/><polygon class="cls-23" points="399.42 243.89 384.1 252.77 398.42 261.04 413.74 252.17 399.42 243.89"/><polygon class="cls-23" points="398.64 261.17 413.61 269.82 428.93 260.95 413.95 252.29 398.64 261.17"/><polygon class="cls-23" points="428.42 243.66 414.1 235.39 399.63 243.77 413.95 252.05 428.42 243.66"/><polygon class="cls-23" points="250.06 140.6 235.59 148.98 250.14 157.39 264.61 149 250.06 140.6"/><polygon class="cls-23" points="339.35 192.2 324.89 200.58 339.75 209.17 354.22 200.79 339.35 192.2"/><polygon class="cls-23" points="234.87 131.82 220.41 140.2 235.38 148.86 249.84 140.47 234.87 131.82"/><polygon class="cls-23" points="398.42 261.29 392.56 264.69 407.5 273.36 413.4 269.94 398.42 261.29"/><polygon class="cls-23" points="220.46 123.5 206 131.88 220.19 140.08 234.66 131.7 220.46 123.5"/><polygon class="cls-23" points="250.36 157.51 265.16 166.07 279.63 157.69 264.82 149.13 250.36 157.51"/><polygon class="cls-23" points="309.46 174.92 295 183.31 309.39 191.62 323.85 183.24 309.46 174.92"/><polygon class="cls-23" points="324.07 183.37 309.6 191.75 324.67 200.45 339.14 192.07 324.07 183.37"/><polygon class="cls-23" points="294.89 166.5 280.42 174.88 294.78 183.18 309.25 174.8 294.89 166.5"/><path class="cls-23" d="M309.46,174.68l14.46-8.38a.11.11,0,0,1,.15,0,.1.1,0,0,1,0,.14l-14.36,8.32,14.4,8.32,14.4-8.35a.12.12,0,0,1,.15,0,.11.11,0,0,1,0,.15l-14.3,8.28L339.35,192l14.54-8.42L309.63,158a0,0,0,0,1,0,0l-14.51,8.41Z"/><path class="cls-23" d="M175.54,114.53l-14.09-8.15a.1.1,0,0,1,0-.15.1.1,0,0,1,.14,0l14.21,8.2L190.22,106,175.4,97.46l-30,17.38,14.82,8.56Z"/><path class="cls-23" d="M220.46,123.25,235,114.84a0,0,0,0,1,0,0l-14.9-8.61a.1.1,0,0,1,0,.08l-14.44,8.37Z"/><polygon class="cls-23" points="285.3 163.07 267.34 167.32 277.87 173.41 285.3 163.07"/><path class="cls-23" d="M205,97.48l-14.89-8.61A.1.1,0,0,1,190,89l-14.41,8.35,14.82,8.57Z"/><polygon class="cls-23" points="292.48 192.77 283.1 194.4 289.79 198.27 292.48 192.77"/><polygon class="cls-23" points="399.08 278.23 399.09 278.24 406.43 273.98 391.49 265.31 384.11 269.58 399.08 278.23"/><polygon class="cls-23" points="383.9 269.46 391.28 265.18 376.99 256.89 369.58 261.18 383.9 269.46"/><polygon class="cls-23" points="369.18 236.24 358.57 238.01 368.71 243.87 369.18 236.24"/><polygon class="cls-23" points="352.24 226.34 342.56 228.76 349.68 232.87 352.24 226.34"/><path class="cls-23" d="M414.1,235.14l14.52-8.41h0l-14.83-8.58a.1.1,0,0,1-.05.06l-14.46,8.38Z"/><polygon class="cls-23" points="369.05 209.11 383.59 200.69 369.19 192.37 354.65 200.79 369.05 209.11"/><path class="cls-23" d="M384,217.77l14.54-8.43-14.77-8.53,0,0-14.5,8.41Z"/><path class="cls-23" d="M354.43,200.66,369,192.24l-14.89-8.6a.1.1,0,0,1,0,.05l-14.47,8.39Z"/><polygon class="cls-23" points="399.07 226.46 413.61 218.04 398.78 209.47 384.24 217.89 399.07 226.46"/><path class="cls-23" d="M235.09,131.7l15,8.65,14.52-8.41h0l-15.11-8.73v0a.1.1,0,0,1,0,.15Z"/><path class="cls-23" d="M234.87,131.57l14.49-8.39a.09.09,0,0,1,.07,0l-14.28-8.26a.13.13,0,0,1-.06.11l-14.41,8.35Z"/><polygon class="cls-23" points="383.89 252.89 378.06 256.27 392.35 264.56 398.21 261.17 383.89 252.89"/><path class="cls-23" d="M264.82,148.88l14.54-8.42L264.74,132a.12.12,0,0,1-.05.11l-14.42,8.35Z"/><path class="cls-23" d="M279.84,157.56l14.43-8.36a.11.11,0,1,1,.11.19l-14.32,8.29,14.83,8.57,14.53-8.42-29.87-17.26a.12.12,0,0,1-.05.05L265,149Z"/><polygon class="cls-23" points="263.93 167.03 265.68 166.61 265.16 166.31 263.93 167.03"/><polygon class="cls-23" points="208.87 151.76 206.47 157.27 212.29 160.6 216.93 159.54 219.64 157.98 208.87 151.76"/><path class="cls-23" d="M205.78,132l-15.31,8.88,8.67,5,12.64-3a.53.53,0,0,1,.54.18.54.54,0,0,1,.08.56l-.55,1.26L220,140.2Z"/><polygon class="cls-23" points="235.16 148.98 220.19 140.33 211.7 145.25 208.96 151.56 219.85 157.85 235.16 148.98"/><polygon class="cls-23" points="184.88 144.12 191.19 147.76 198.84 145.96 190.26 141 184.88 144.12"/><path class="cls-23" d="M369.36,261.06l7.42-4.29-8.27-4.8a.54.54,0,0,1-.27-.5l.44-7.16-14.13,8.19Z"/><polygon class="cls-23" points="217.64 159.38 220.82 158.66 219.85 158.1 217.64 159.38"/><polygon class="cls-23" points="250.14 157.63 239.5 163.8 237.63 168.12 243.94 171.77 263.2 167.2 264.95 166.19 250.14 157.63"/><polygon class="cls-23" points="205.57 131.88 192.76 124.48 186.24 138.43 190.26 140.75 205.57 131.88"/><path class="cls-23" d="M220.06,158l1.06.61,21.86-5a.55.55,0,0,1,.22,0l-7.82-4.53Z"/><path class="cls-23" d="M243.51,153.81a.51.51,0,0,1,.08.54l-4,9.12,10.29-6Z"/><polygon class="cls-23" points="235.15 173.85 243.63 171.84 237.54 168.32 235.15 173.85"/><polygon class="cls-23" points="220.25 123.37 205.4 114.79 194.29 121.22 192.86 124.28 205.78 131.75 220.25 123.37"/><polygon class="cls-23" points="156.43 125.85 161.03 124.11 160.23 123.65 156.43 125.85"/><polygon class="cls-23" points="310.38 217.06 319.19 215.51 312.25 211.5 310.38 217.06"/><polygon class="cls-23" points="145.19 114.96 138.88 118.62 153.54 126.94 155.2 126.32 160.01 123.53 145.19 114.96"/><path class="cls-23" d="M219.93,106.12,205.19,97.6,190.65,106l7.2,4.16.71-.27a.54.54,0,0,1,.59.14.53.53,0,0,1,.09.59l-.13.27,6.28,3.63Z"/><polygon class="cls-23" points="160.44 123.53 161.29 124.01 179.82 117 175.76 114.65 160.44 123.53"/><polygon class="cls-23" points="199.02 111.11 194.45 120.88 205.18 114.67 199.02 111.11"/><polygon class="cls-23" points="369.74 244.71 369.34 251.2 377.85 256.14 383.68 252.77 369.74 244.71"/><polygon class="cls-23" points="175.97 114.53 180.08 116.9 197.59 110.28 190.44 106.14 175.97 114.53"/><polygon class="cls-23" points="328.46 220.86 325.48 226.1 332.65 230.13 332.87 230.08 338.63 226.74 328.46 220.86"/><path class="cls-23" d="M354.16,217.74l-14.4-8.32-7.41,4.29a.5.5,0,0,1,0,.38l-3.74,6.58,10.28,5.94Z"/><path class="cls-23" d="M324.67,200.7,313.76,207l-1.44,4.26,7.2,4.16,12.23-2.15a.53.53,0,0,1,.52.21l7.27-4.21Z"/><path class="cls-23" d="M369.14,226.4l-14.77-8.53-15.31,8.87,2.17,1.25L353,225.05a.53.53,0,0,1,.54.16.55.55,0,0,1,.09.56l-3,7.65,3.2,1.85Z"/><polygon class="cls-23" points="399.2 243.77 384.39 235.21 369.8 243.67 369.75 244.47 383.89 252.64 399.2 243.77"/><path class="cls-23" d="M309.39,191.87l-15.32,8.87,1.7,1,20.76-5.53a.5.5,0,0,1,.53.15.53.53,0,0,1,.12.54l-3.32,9.84,10.6-6.14Z"/><path class="cls-23" d="M369.35,226.52,354,235.39l3.06,1.77,12.57-2.09a.56.56,0,0,1,.45.13.54.54,0,0,1,.17.43l-.47,7.78,14.36-8.32Z"/><polygon class="cls-23" points="350.54 233.62 348.73 238.22 353.61 235.39 350.54 233.62"/><polygon class="cls-23" points="348.6 238.54 348.59 238.58 356.77 237.22 353.82 235.52 348.6 238.54"/><path class="cls-23" d="M294.67,166.38,287,162a.5.5,0,0,1,0,.55L278.8,174l1.41.81Z"/><polygon class="cls-23" points="278.68 174.12 276.8 176.74 279.99 174.88 278.68 174.12"/><polygon class="cls-23" points="294.57 183.31 280.21 175.01 276.49 177.16 269.67 186.64 279.25 192.18 294.57 183.31"/><polygon class="cls-23" points="289.5 203.39 295.47 201.8 293.86 200.87 289.5 203.39"/><polygon class="cls-23" points="269.55 186.82 266.09 191.63 272.48 195.16 274.8 194.76 279.04 192.3 269.55 186.82"/><path class="cls-23" d="M265.38,166.19l.61.35,20.47-4.85s.07,0,.11,0l-6.73-3.89Z"/><polygon class="cls-23" points="290.63 199 288.32 203.71 288.71 203.6 293.65 200.74 290.63 199"/><path class="cls-23" d="M309.17,191.75l-14.39-8.32-15.31,8.87,2.18,1.26,11.69-2a.5.5,0,0,1,.52.2.54.54,0,0,1,.05.56l-3.19,6.52,3.14,1.81Z"/><polygon class="cls-23" points="275.41 194.65 281.32 193.62 279.25 192.43 275.41 194.65"/><polygon class="cls-23" points="186.15 138.63 183.85 143.52 184.66 143.99 190.04 140.88 186.15 138.63"/><polygon class="cls-23" points="220 192.23 234.89 183.6 220.09 175.05 205.2 183.68 220 192.23"/><polygon class="cls-23" points="190.22 175.02 205.11 166.39 190.14 157.74 175.25 166.37 190.22 175.02"/><polygon class="cls-23" points="204.98 183.55 219.87 174.92 205.32 166.52 190.44 175.14 204.98 183.55"/><polygon class="cls-23" points="235.27 201.05 249.62 209.35 264.51 200.72 250.16 192.42 235.27 201.05"/><polygon class="cls-23" points="235.05 200.93 249.94 192.3 235.11 183.73 220.22 192.35 235.05 200.93"/><polygon class="cls-23" points="264.47 183.88 249.63 175.31 235.32 183.6 250.16 192.17 264.47 183.88"/><polygon class="cls-23" points="145.49 131.94 130.67 123.38 115.78 132 130.6 140.57 145.49 131.94"/><polygon class="cls-23" points="145.56 149.21 160.45 140.58 145.71 132.06 130.81 140.69 145.56 149.21"/><polygon class="cls-23" points="175.03 166.24 189.92 157.62 175.73 149.42 160.84 158.04 175.03 166.24"/><polygon class="cls-23" points="160.63 157.92 175.52 149.29 160.66 140.71 145.77 149.34 160.63 157.92"/><polygon class="cls-23" points="264.23 217.79 279.12 209.16 264.73 200.84 249.84 209.47 264.23 217.79"/><polygon class="cls-23" points="339.02 261.25 324.19 252.68 309.59 261.15 324.42 269.72 339.02 261.25"/><polygon class="cls-23" points="354.05 269.94 339.24 261.38 324.63 269.84 339.44 278.4 354.05 269.94"/><polygon class="cls-23" points="309 243.91 294.6 235.58 279.99 244.05 294.4 252.37 309 243.91"/><polygon class="cls-23" points="294.38 235.46 279.52 226.87 264.91 235.33 279.78 243.92 294.38 235.46"/><polygon class="cls-23" points="339.24 261.13 354.12 252.5 339.3 243.93 324.41 252.56 339.24 261.13"/><polygon class="cls-23" points="130.39 140.69 115.56 132.13 100.96 140.59 115.78 149.15 130.39 140.69"/><polygon class="cls-23" points="279.52 226.62 294.41 217.99 279.33 209.28 264.45 217.91 279.52 226.62"/><polygon class="cls-23" points="294.6 235.33 309.49 226.71 294.62 218.12 279.73 226.75 294.6 235.33"/><polygon class="cls-23" points="309.22 243.78 324.11 235.16 309.7 226.83 294.81 235.46 309.22 243.78"/><polygon class="cls-23" points="324.19 252.44 339.08 243.81 324.32 235.28 309.43 243.91 324.19 252.44"/><polygon class="cls-23" points="324.42 269.96 309.95 278.35 324.76 286.9 339.23 278.52 324.42 269.96"/><polygon class="cls-23" points="279.3 226.75 264.23 218.04 249.63 226.5 264.7 235.21 279.3 226.75"/><path class="cls-23" d="M309.37,261.27,295,269.63h-.06l14.85,8.59s0,0,0,0l14.44-8.37Z"/><path class="cls-23" d="M294.4,252.62,279.93,261l14.87,8.59a.11.11,0,0,1,0-.15l14.32-8.29Z"/><path class="cls-23" d="M279.78,244.17l-14.34,8.31a.11.11,0,1,1-.11-.19l14.23-8.24-14.86-8.59-14.47,8.38,29.51,17a.1.1,0,0,1,0-.05l14.4-8.35Z"/><path class="cls-23" d="M249.41,226.62,235,235,250,243.72l0,0,14.43-8.36Z"/><path class="cls-23" d="M325,287l14.35,8.29a.12.12,0,0,1,.05-.07l14.38-8.33-14.32-8.27Z"/><polygon class="cls-23" points="339.65 278.52 353.97 286.8 368.58 278.33 354.26 270.06 339.65 278.52"/><path class="cls-23" d="M357.52,313.82V314l.06,0,59.2-34.18-.08,0a.52.52,0,0,1-.27-.07l-9.79-5.68-22.53,13.05v0a.12.12,0,0,1-.12.05l-29.25,16.95a.11.11,0,0,1-.11-.19l29.14-16.88-15-8.65-14.61,8.46,14.08,8.14a.1.1,0,0,1,0,.15.1.1,0,0,1-.14,0l-14.2-8.2-14.46,8.38,15,8.69a.11.11,0,0,1,0,.15.11.11,0,0,1-.09.05h-.05L234.73,235.13l0,0a.11.11,0,0,1-.15,0,.14.14,0,0,1,0-.09l-14.42-8.34c-.05,0-.09,0-.12-.05v0l-29.49-17a.1.1,0,0,1-.14,0,.17.17,0,0,1,0-.05L145.5,183.57l0,0L85.85,149.1a.11.11,0,0,1,.11-.19l.1.06,14.47-8.38-1-.55a.11.11,0,0,1,.11-.19l1.06.62L115.35,132a.12.12,0,0,1,0-.14.1.1,0,0,1,.15,0l.09,0,14.89-8.63-.07,0a.11.11,0,0,1,.11-.19l.18.11,6.91-4-7-4a.53.53,0,0,1-.2-.73.54.54,0,0,1,.73-.21l7.53,4.28,6.45-3.74s0,0,0,0l30-17.4h0a.11.11,0,0,1,0-.15.09.09,0,0,1,.14,0l.13.07,14.52-8.41h0a.11.11,0,0,1,.11-.19l15.19,8.78,0,0,163.93,94.73h0a.09.09,0,0,1,.14,0,.13.13,0,0,1,0,.08l89.26,51.58a.11.11,0,0,1,0,.15l-.06.05L429.36,261l.79.46a.1.1,0,0,1,0,.14.11.11,0,0,1-.15,0l-.9-.52-15.31,8.87h0a.11.11,0,1,1-.11.19l-.12-.07-5.9,3.42,9.26,5.37a.53.53,0,0,1,.19.73s0,0-.05.06l59.05-34.09L465,239.08l-72.06-41.6-1.07-.62L184.9,77.4,66.31,145.86l.16.1v-.17Z"/><polygon class="cls-23" points="369.01 278.33 383.99 286.99 398.87 278.36 383.9 269.71 369.01 278.33"/><polygon class="cls-23" points="369.36 261.31 354.48 269.93 368.8 278.21 383.68 269.58 369.36 261.31"/><path class="cls-23" d="M115.78,149.4l-14.41,8.36a.12.12,0,0,1-.08,0l14.77,8.53h0l14.46-8.38Z"/><polygon class="cls-23" points="160.22 175.08 145.75 183.46 160.72 192.11 175.19 183.73 160.22 175.08"/><polygon class="cls-23" points="145.81 166.75 131.34 175.14 145.53 183.34 160 174.96 145.81 166.75"/><polygon class="cls-23" points="130.74 158.05 116.27 166.43 131.13 175.01 145.59 166.63 130.74 158.05"/><path class="cls-23" d="M115.57,149.28l-14.83-8.57L86.28,149.1l15,8.64v0a.11.11,0,0,1,0-.15Z"/><polygon class="cls-23" points="220.23 209.76 205.77 218.14 220.12 226.44 234.59 218.06 220.23 209.76"/><path class="cls-23" d="M354.34,252.38l14.31-8.3-10.42-6-10.4,1.73a.58.58,0,0,1-.51-.19.54.54,0,0,1-.11-.26l-7.7,4.46Z"/><path class="cls-23" d="M175.4,183.86l-14.46,8.38,14.55,8.41,0,0L190,192.26Z"/><polygon class="cls-23" points="234.8 218.18 220.34 226.56 234.73 234.88 249.2 226.5 234.8 218.18"/><polygon class="cls-23" points="190.16 192.39 175.7 200.77 190.5 209.32 204.97 200.94 190.16 192.39"/><path class="cls-23" d="M205.18,201.07l-14.46,8.38L205.58,218a.07.07,0,0,1,0-.05l14.4-8.34Z"/><polygon class="cls-23" points="236.69 167.58 237.94 164.71 234.83 166.51 236.69 167.58"/><path class="cls-23" d="M220.3,174.92l14.81,8.56,14.31-8.29L245,172.62l-10.63,2.52a.37.37,0,0,1-.18,0h0a.66.66,0,0,1-.2-.06.51.51,0,0,1-.16-.13.49.49,0,0,1-.11-.2.55.55,0,0,1,0-.18h0a.48.48,0,0,1,.05-.17l2.86-6.63-2-1.15Z"/><polygon class="cls-23" points="259.98 169.07 245.29 172.55 249.63 175.06 259.98 169.07"/><polygon class="cls-23" points="268.74 186.1 274.22 178.48 264.9 183.88 268.74 186.1"/><polygon class="cls-23" points="264.68 183.76 274.53 178.05 277.74 173.58 267.04 167.4 260.7 168.9 249.85 175.19 264.68 183.76"/><path class="cls-23" d="M250.37,192.3l14.36,8.29,7.55-4.37a.68.68,0,0,1-.15,0L265,192.28a.53.53,0,0,1-.27-.35.54.54,0,0,1,.09-.43l3.75-5.22L264.68,184Z"/><polygon class="cls-23" points="238.08 164.38 242.18 154.9 222.5 159.38 234.61 166.38 238.08 164.38"/><polygon class="cls-23" points="208.02 151.02 210.13 146.16 204.88 149.2 208.02 151.02"/><path class="cls-23" d="M190.35,157.62l15,8.65,8.46-4.91-1.46.33a.59.59,0,0,1-.39-.05L205.52,158a.54.54,0,0,1-.23-.68l2.64-6.08-3.27-1.89Z"/><polygon class="cls-23" points="220.09 174.8 234.4 166.51 222.19 159.45 214.5 161.2 205.54 166.39 220.09 174.8"/><polygon class="cls-23" points="264.02 217.91 249.62 209.59 235.02 218.06 249.41 226.38 264.02 217.91"/><path class="cls-23" d="M309.92,226.71l14.4,8.32,7.31-4.24-7.15-4a.54.54,0,0,1-.25-.32.53.53,0,0,1,0-.41l3.25-5.72-3.3-1.9Z"/><polygon class="cls-23" points="330.31 214.64 320.97 216.28 324.23 218.17 330.31 214.64"/><polygon class="cls-23" points="327.63 220.14 330.77 214.63 324.44 218.29 327.63 220.14"/><path class="cls-23" d="M339.3,243.69l7.94-4.61h0l2.36-6-7.34-4.24-9.56,2.39a.54.54,0,0,1-.39-.06l-.46-.25-7.31,4.24Z"/><path class="cls-23" d="M294.62,217.87l14.31-8.29-12.14-7-9.34,2.49a.52.52,0,0,1-.53-.16l-7.37,4.27Z"/><path class="cls-23" d="M279.33,209l7.49-4.34a.58.58,0,0,1,0-.41l2.86-5.83-6.92-4-10,1.75-7.78,4.51Z"/><path class="cls-23" d="M294.84,218l14.86,8.59L324,218.29l-3.37-1.95-11,1.93a.5.5,0,0,1-.5-.18.54.54,0,0,1-.1-.52L311.3,211l-2.15-1.25Z"/><polygon class="cls-23" points="210.28 145.82 210.98 144.2 200.5 146.67 204.66 149.08 210.28 145.82"/><polygon class="cls-23" points="311.37 210.74 312.35 207.85 309.36 209.58 311.37 210.74"/><polygon class="cls-23" points="312.45 207.54 315.84 197.48 297.08 202.48 309.15 209.45 312.45 207.54"/><polygon class="cls-23" points="160.41 158.04 145.56 149.46 130.95 157.92 145.81 166.51 160.41 158.04"/><polygon class="cls-23" points="190.01 175.14 175.03 166.49 160.43 174.96 175.4 183.61 190.01 175.14"/><polygon class="cls-23" points="116 149.28 130.74 157.8 145.34 149.34 130.6 140.82 116 149.28"/><path class="cls-23" d="M190.14,157.49l14.31-8.29-4.26-2.46-9,2.11a.49.49,0,0,1-.39-.06l-7-4L176,149.29Z"/><polygon class="cls-23" points="174.82 166.37 160.63 158.17 146.02 166.63 160.22 174.83 174.82 166.37"/><polygon class="cls-23" points="204.77 183.68 190.22 175.27 175.62 183.73 190.16 192.14 204.77 183.68"/><polygon class="cls-23" points="249.41 209.47 235.05 201.17 220.45 209.64 234.8 217.93 249.41 209.47"/><polygon class="cls-23" points="219.79 192.35 204.99 183.8 190.38 192.26 205.18 200.82 219.79 192.35"/><path class="cls-23" d="M160.66,140.46,175,132.17l-12.74-7.37L153.68,128a.51.51,0,0,1-.45,0l-.26-.14-7.05,4.08Z"/><polygon class="cls-23" points="192.82 121.83 197.71 111.38 181.28 117.6 190.72 123.05 192.82 121.83"/><path class="cls-23" d="M160.88,140.58l14.85,8.59,7.86-4.56-.7-.4a.54.54,0,0,1-.22-.7l2.54-5.43-10-5.79Z"/><polygon class="cls-23" points="191.92 123.74 192.66 122.17 190.93 123.17 191.92 123.74"/><polygon class="cls-23" points="354.26 269.81 369.15 261.18 354.34 252.63 339.45 261.25 354.26 269.81"/><polygon class="cls-23" points="175.4 132.17 185.3 137.89 191.83 123.94 190.72 123.29 175.4 132.17"/><polygon class="cls-23" points="234.84 201.05 220 192.48 205.4 200.94 220.23 209.51 234.84 201.05"/><polygon class="cls-23" points="145.71 131.82 152.75 127.73 137.8 119.25 130.88 123.25 145.71 131.82"/><polygon class="cls-23" points="190.5 123.17 181.02 117.69 162.49 124.71 175.19 132.04 190.5 123.17"/><polygon class="cls-23" points="309.37 261.02 323.98 252.56 309.22 244.03 294.61 252.49 309.37 261.02"/><polygon class="cls-23" points="338.85 226.86 333.63 229.89 340.93 228.06 338.85 226.86"/><path class="cls-24" d="M399.09,278.24h0l-15-8.65,7.38-4.27-.21-.13-7.38,4.28-14.32-8.28,7.41-4.29-.21-.12-7.42,4.29-14.81-8.56,14.13-8.19,0-.44L358.57,238l-.34.06,10.42,6-14.31,8.3-14.83-8.57,7.7-4.46a.63.63,0,0,1,0-.27l-7.94,4.61-14.76-8.53,7.31-4.24-.22-.13L324.32,235l-14.4-8.32,14.31-8.29,3.3,1.9.1-.18-3.19-1.85,6.33-3.66,0-.08-.5.09-6.08,3.53L321,216.28l-.33.06,3.37,1.95-14.31,8.29L294.84,218l14.31-8.29L311.3,211l.07-.21-2-1.16,3-1.73.1-.31-3.3,1.91-12.07-7-.29.08,12.14,7-14.31,8.29-15.07-8.71,7.37-4.27,0,0a.53.53,0,0,1-.08-.17L279.33,209l-14.39-8.32,7.78-4.51-.24,0a.48.48,0,0,1-.2,0l-7.55,4.37-14.36-8.29L264.68,184l3.93,2.27.13-.18-3.84-2.22,9.32-5.4.31-.43-9.85,5.71-14.83-8.57,10.85-6.29-.72.17-10.35,6-4.34-2.51-.3.07,4.43,2.57-14.31,8.29-14.81-8.56,14.31-8.29,2,1.15.09-.2-1.86-1.07,3.11-1.8.14-.33-3.47,2-12.12-7-.3.07,12.21,7.06-14.31,8.29-14.55-8.41,9-5.19-.71.16-8.46,4.91-15-8.65,14.31-8.3,3.27,1.89L208,151l-3.14-1.82,5.25-3,.15-.33-5.62,3.26-4.16-2.41-.31.07,4.26,2.46-14.31,8.29L176,149.29l7.86-4.55-.22-.13-7.86,4.56-14.85-8.59,14.31-8.29,10,5.79.09-.19-9.9-5.72,15.31-8.88,1.12.65.09-.2-1-.57,1.73-1,.16-.34-2.11,1.22-9.43-5.45-.26.09,9.48,5.48L175.19,132l-12.7-7.33-.26.09L175,132.17l-14.31,8.29-14.74-8.52,7.05-4.08-.22-.13-7,4.09-14.83-8.57,6.92-4-.22-.12-6.91,4-.18-.11a.11.11,0,0,0-.11.19l.07,0-14.89,8.63-.09,0a.1.1,0,0,0-.15,0,.12.12,0,0,0,0,.14l-14.61,8.47-1.06-.62a.11.11,0,0,0-.11.19l1,.55L86.06,149l-.1-.06a.11.11,0,0,0-.11.19l59.61,34.44,0,0,44.84,25.91a.17.17,0,0,0,0,.05.1.1,0,0,0,.14,0l29.49,17v0s.07.07.12.05L234.54,235a.14.14,0,0,0,0,.09.11.11,0,0,0,.15,0l0,0,119.72,69.18h.05a.11.11,0,0,0,.09-.05.11.11,0,0,0,0-.15l-15-8.69L354,287.05l14.2,8.2a.1.1,0,0,0,.14,0,.1.1,0,0,0,0-.15l-14.08-8.14,14.61-8.46,15,8.65L354.63,304a.11.11,0,0,0,.11.19L384,287.23a.12.12,0,0,0,.12-.05v0l22.53-13.05-.21-.13Zm-29.94-17.06-14.89,8.63-14.81-8.56,14.89-8.62ZM145.56,149.46,160.41,158l-14.6,8.47L131,157.92Zm-14.82,8.34L116,149.28l14.6-8.46,14.74,8.51Zm29.89.37,14.19,8.2-14.6,8.46-14.2-8.2Zm14.4,8.32,15,8.65-14.61,8.47-15-8.65Zm15.19,8.78,14.55,8.4-14.61,8.47-14.54-8.41ZM205,183.8l14.81,8.55-14.61,8.47-14.8-8.56Zm15,8.68,14.84,8.57-14.61,8.46-14.83-8.57Zm15.05,8.69,14.36,8.3-14.61,8.46-14.35-8.29Zm14.57,8.42,14.4,8.32-14.61,8.47L235,218.06ZM264.23,218l15.07,8.7-14.6,8.47-15.07-8.71Zm15.29,8.83,14.86,8.59-14.6,8.46-14.87-8.59Zm15.08,8.71,14.4,8.33-14.6,8.46L280,244.05ZM309.22,244,324,252.56,309.37,261l-14.76-8.53Zm15,8.65L339,261.25l-14.6,8.47-14.83-8.57Zm15.05,8.7,14.81,8.56-14.61,8.46-14.81-8.56Zm14.88-8.88-14.88,8.63-14.83-8.57,14.89-8.63Zm-15-8.69-14.89,8.63-14.76-8.53,14.89-8.63Zm-15-8.65-14.89,8.62-14.41-8.32,14.89-8.63Zm-14.62-8.45-14.89,8.62-14.87-8.59,14.89-8.62Zm-30.15-17.43L294.41,218l-14.89,8.63-15.07-8.71Zm-14.61-8.44,14.39,8.32-14.89,8.63-14.39-8.32Zm-.22-.12-14.89,8.63-14.35-8.3,14.89-8.63Zm-14.88-25.41,14.84,8.57-14.31,8.29-14.84-8.57Zm.31,17-14.89,8.63-14.83-8.58,14.89-8.62Zm-29.85-17.25,14.8,8.55L220,192.23l-14.8-8.56Zm-.22-.13L205,183.55l-14.54-8.41,14.89-8.62Zm-29.73-17.18,15,8.65L190.22,175l-15-8.65Zm-14.41-8.32,14.19,8.2L175,166.24,160.84,158Zm-.21-.13-14.89,8.63-14.86-8.59,14.89-8.62Zm-15.07-8.71-14.89,8.63-14.74-8.52,14.89-8.63Zm-29.78-17.2,14.82,8.56-14.89,8.63L115.78,132Zm-15.11,8.75,14.83,8.56-14.61,8.46L101,140.59Zm-14.33,25.61-15-8.64,14.46-8.39,14.83,8.57-14.31,8.29a.11.11,0,0,0,0,.15Zm14.83,8.56-14.77-8.53a.12.12,0,0,0,.08,0l14.41-8.36,14.74,8.52-14.46,8.38Zm.21.13,14.47-8.38,14.85,8.58L131.13,175Zm15.07,8.71,14.47-8.39L160,175l-14.46,8.38Zm14.41,8.32,14.47-8.38,15,8.65-14.47,8.38Zm29.74,17.19-14.55-8.41,14.46-8.38,14.55,8.4-14.43,8.37Zm.21.12,14.47-8.38,14.8,8.55-14.47,8.38ZM205.58,218l-14.86-8.58,14.46-8.38L220,209.64,205.62,218A.07.07,0,0,0,205.58,218Zm.19.11,14.46-8.38,14.36,8.3-14.47,8.38Zm14.57,8.42,14.46-8.38,14.4,8.32-14.47,8.38ZM250,243.72,235,235l14.46-8.38,15.07,8.71-14.43,8.36Zm29.72,17.17-29.51-17,14.47-8.38,14.86,8.59-14.23,8.24a.11.11,0,1,0,.11.19l14.34-8.31,14.4,8.32-14.4,8.35A.1.1,0,0,0,279.74,260.89Zm15.06,8.7L279.93,261l14.47-8.38,14.76,8.53-14.32,8.29A.11.11,0,0,0,294.8,269.59Zm14.94,8.64-14.85-8.59H295l14.42-8.36,14.83,8.57-14.44,8.37S309.75,278.22,309.74,278.23Zm.21.12L324.42,270l14.81,8.56-14.47,8.38Zm29.43,16.9a.12.12,0,0,0-.05.07L325,287l14.46-8.38,14.32,8.27ZM354,286.8l-14.32-8.28,14.61-8.46,14.32,8.27Zm14.82-8.59-14.31-8.28,14.88-8.62,14.32,8.27ZM384,287l-15-8.66,14.89-8.62,15,8.65Z"/><polygon class="cls-24" points="289.79 198.27 283.1 194.4 282.77 194.46 289.69 198.46 289.79 198.27"/><path class="cls-24" d="M145.19,115,160,123.53l-4.82,2.79,1.23-.47,3.8-2.2.8.46.26-.1-.85-.48,15.32-8.88,4.06,2.35.26-.1L176,114.53l14.47-8.38,7.15,4.13.26-.1-7.2-4.16,14.54-8.42,14.74,8.52-14.54,8.42-6.28-3.63-.09.2,6.16,3.56-10.73,6.21-.16.34,11.1-6.43,14.86,8.58-14.47,8.39-12.92-7.48-.09.2,12.8,7.4-15.31,8.87-4-2.32-.09.19,3.89,2.26L184.67,144l.21.13,5.38-3.12,8.58,5,.3-.07-8.67-5L205.78,132l14.2,8.2-8.13,4.71-.15.34,8.49-4.92,15,8.65-15.31,8.87L209,151.56l-.09.2L219.64,158l-2.71,1.56.71-.16,2.21-1.28,1,.56.3-.07-1.06-.61,15.32-8.88,7.82,4.53a.52.52,0,0,1,.31.16v0l6.42,3.7-10.29,6-.14.33,10.64-6.17L265,166.19l-1.75,1,.73-.17,1.23-.72.52.3.31-.07-.61-.35,14.46-8.38,6.73,3.89a.52.52,0,0,1,.46.21s0,0,0,.06l7.63,4.41-14.46,8.38L278.8,174l-.12.17,1.31.76-3.19,1.86-.31.43,3.72-2.16,14.36,8.3-15.32,8.87-9.58-5.54-.12.18L279,192.3l-4.24,2.46.61-.11,3.84-2.22,2.07,1.19.33-.06-2.18-1.26,15.31-8.87,14.39,8.32-15.31,8.87-3.14-1.81-.1.19,3,1.74-4.94,2.86.79-.21,4.36-2.52,1.61.93.3-.08-1.7-1,15.32-8.87,15.07,8.71-10.6,6.14-.1.31,10.91-6.33,14.87,8.6-7.27,4.21a0,0,0,0,1,0,0,.73.73,0,0,1,.07.19l7.41-4.29,14.4,8.32-15.31,8.87-10.28-5.94-.11.19,10.17,5.88-5.76,3.34.75-.19,5.23-3,2.07,1.2.31-.07-2.17-1.25,15.31-8.87,14.77,8.53-15.32,8.87-3.2-1.85-.08.2,3.07,1.77-4.88,2.83-.13.32,5.22-3,2.95,1.7.33-.06L354,235.39l15.31-8.87,14.83,8.57-14.36,8.32,0,.26,14.59-8.46,14.81,8.56-15.31,8.87-14.14-8.17v.24l13.93,8.06-5.82,3.37.21.13,5.83-3.38,14.32,8.28-5.86,3.39.21.13,5.86-3.4,15,8.65-5.9,3.42.21.13,5.9-3.42.12.07a.11.11,0,1,0,.11-.19h0l15.31-8.87.9.52a.11.11,0,0,0,.15,0,.1.1,0,0,0,0-.14l-.79-.46L458.61,244l.06-.05a.11.11,0,0,0,0-.15l-89.26-51.58a.13.13,0,0,0,0-.08.09.09,0,0,0-.14,0h0L205.26,97.39l0,0L190,88.59a.11.11,0,0,0-.11.19h0L175.4,97.21l-.13-.07a.09.09,0,0,0-.14,0,.11.11,0,0,0,0,.15h0l-30,17.4s0,0,0,0l-6.45,3.74.22.12ZM206,131.88l14.46-8.38,14.2,8.2-14.47,8.38Zm29.38,17-15-8.66,14.46-8.38,15,8.65Zm.21.12,14.47-8.38L264.61,149l-14.47,8.38Zm29.57,17.09-14.8-8.56,14.46-8.38,14.81,8.55Zm29.62,17.11-14.36-8.3,14.47-8.38,14.36,8.3Zm.22.13,14.46-8.39,14.39,8.32-14.46,8.38Zm29.67,17.14-15.07-8.7,14.47-8.38,15.07,8.71Zm.22.13,14.46-8.38,14.87,8.59-14.46,8.38ZM340,209.3l14.46-8.39,14.41,8.33-14.47,8.38Zm14.62,8.44,14.46-8.38,14.76,8.53-14.46,8.38Zm15,8.66L384,218l14.83,8.57L384.39,235Zm15,8.69,14.46-8.38,14.81,8.55-14.46,8.39Zm29.49.3,14.32,8.27L414,252.05l-14.32-8.28Zm-30,17.38,15.32-8.88,14.32,8.28L398.42,261Zm29.51,17-15-8.65L414,252.29l15,8.66Zm15.53-9-15-8.65,14.46-8.38,15,8.65Zm14.24-25.58,15,8.66-14.54,8.42-15-8.66,14.53-8.41Zm-14.6-8.43,14.39,8.31-14.54,8.42-14.32-8.28,14.42-8.35A.09.09,0,0,0,428.78,226.81Zm-15-8.67,14.83,8.58h0l-14.52,8.41-14.81-8.56,14.46-8.38A.1.1,0,0,0,413.8,218.14Zm-.19-.1-14.54,8.42-14.83-8.57,14.54-8.42ZM383.8,200.81l14.77,8.53L384,217.77l-14.76-8.53,14.5-8.41Zm-.21-.12-14.54,8.42-14.4-8.32,14.54-8.42Zm-29.51-17.05,14.89,8.6-14.54,8.42-14.86-8.58L354,183.69A.1.1,0,0,0,354.08,183.64ZM309.63,158l44.26,25.58L339.35,192l-15.07-8.71,14.3-8.28a.11.11,0,0,0,0-.15.12.12,0,0,0-.15,0l-14.4,8.35-14.4-8.32L324,166.48a.1.1,0,0,0,0-.14.11.11,0,0,0-.15,0l-14.46,8.38-14.36-8.3L309.61,158A0,0,0,0,0,309.63,158Zm-30.08-17.38,29.87,17.26-14.53,8.42-14.83-8.57,14.32-8.29a.11.11,0,1,0-.11-.19l-14.43,8.36L265,149l14.46-8.39A.12.12,0,0,0,279.55,140.57ZM264.74,132l14.62,8.45-14.54,8.42-14.55-8.41,14.42-8.35A.12.12,0,0,0,264.74,132Zm-15.25-8.81,15.11,8.73h0l-14.52,8.41-15-8.65,14.37-8.33a.1.1,0,0,0,0-.15Zm-14.34-8.29,14.28,8.26a.09.09,0,0,0-.07,0l-14.49,8.39-14.19-8.2L235.09,115A.13.13,0,0,0,235.15,114.91Zm-15.05-8.69,14.9,8.61a0,0,0,0,0,0,0l-14.53,8.41-14.85-8.58,14.44-8.37A.1.1,0,0,0,220.1,106.22ZM190,89a.1.1,0,0,0,.05-.11L205,97.48l-14.53,8.42-14.82-8.57ZM175.4,97.46,190.22,106l-14.46,8.38-14.21-8.2a.1.1,0,0,0-.14,0,.1.1,0,0,0,0,.15l14.09,8.15-15.31,8.87-14.82-8.56Z"/><polygon class="cls-24" points="277.87 173.41 267.34 167.32 267.04 167.4 277.74 173.58 277.87 173.41"/><polygon class="cls-24" points="349.68 232.87 342.56 228.76 342.26 228.84 349.6 233.07 349.68 232.87"/><polygon class="cls-24" points="237.54 168.32 243.63 171.84 243.94 171.77 237.63 168.12 237.54 168.32"/><polygon class="cls-24" points="312.25 211.5 319.19 215.51 319.52 215.45 312.32 211.29 312.25 211.5"/><polygon class="cls-2" points="357.52 318.73 357.52 313.99 357.52 313.82 66.47 145.79 66.47 145.96 66.47 150.7 269.12 267.69 270.2 268.32 357.52 318.73"/><path class="cls-25" d="M417.16,279.59a.53.53,0,0,0-.19-.73l-9.26-5.37-.21-.13-14.94-8.67-.21-.13-14.29-8.29-.21-.13-8.51-4.94.4-6.49v-.24l.05-.8,0-.26.47-7.78a.54.54,0,0,0-.17-.43.56.56,0,0,0-.45-.13l-12.57,2.09-.33.06-8.18,1.36v0l.13-.32,1.81-4.6.08-.2,3-7.65a.55.55,0,0,0-.09-.56.53.53,0,0,0-.54-.16L341.23,228l-.31.07-7.3,1.83-.75.19-.22,0-7.17-4,3-5.24.11-.19,3.74-6.58a.5.5,0,0,0,0-.38.73.73,0,0,0-.07-.19,0,0,0,0,0,0,0,.53.53,0,0,0-.52-.21l-12.23,2.15-.33.06-8.81,1.55,1.87-5.57.07-.2,1.44-4.26.1-.31,3.32-9.84a.53.53,0,0,0-.12-.54.5.5,0,0,0-.53-.15l-20.76,5.53-.3.08-6,1.59-.79.21-.39.11,2.3-4.71.1-.19,3.19-6.52a.54.54,0,0,0-.05-.56.5.5,0,0,0-.52-.2l-11.69,2-.33.06-5.91,1-.61.11-2.32.4-6.39-3.53,3.46-4.81.12-.18,6.82-9.47.31-.43,1.88-2.62.12-.17L287,162.52a.5.5,0,0,0,0-.55s0,0,0-.06a.52.52,0,0,0-.46-.21s-.07,0-.11,0L266,166.54l-.31.07-1.75.42-.73.17-19.26,4.57-.31.07-8.48,2,2.39-5.53.09-.2,1.87-4.32.14-.33,4-9.12a.51.51,0,0,0-.08-.54v0a.52.52,0,0,0-.31-.16.55.55,0,0,0-.22,0l-21.86,5-.3.07-3.18.72-.71.16-4.64,1.06-5.82-3.33,2.4-5.51.09-.2,2.74-6.31.15-.34.55-1.26a.54.54,0,0,0-.08-.56.53.53,0,0,0-.54-.18l-12.64,3-.3.07-7.65,1.8-6.31-3.64-.21-.13-.82-.47,2.3-4.9.09-.19,6.53-14,.09-.2,1.43-3.06.16-.34,4.57-9.77.09-.2.13-.27a.53.53,0,0,0-.09-.59.54.54,0,0,0-.59-.14l-.71.27-.26.1-17.51,6.62-.26.1-18.53,7-.26.1-4.6,1.74-1.23.47-1.66.62-14.66-8.32-.22-.12-7.53-4.28a.54.54,0,0,0-.73.21.53.53,0,0,0,.2.73l7,4,.22.12,14.95,8.49.22.13.26.14a.51.51,0,0,0,.45,0l8.55-3.24.26-.09,18.53-7,.26-.09,16.43-6.22-4.89,10.45-.16.34-.74,1.57-.09.2-6.53,13.95-.09.19-2.54,5.43a.54.54,0,0,0,.22.7l.7.4.22.13,7,4a.49.49,0,0,0,.39.06l9-2.11.31-.07L211,144.2l-.7,1.62-.15.33L208,151l-.09.19-2.64,6.08a.54.54,0,0,0,.23.68l6.42,3.67a.59.59,0,0,0,.39.05l1.46-.33.71-.16,7.69-1.75.3-.07,19.69-4.48-4.1,9.48-.14.33-1.25,2.87-.09.2-2.86,6.63a.48.48,0,0,0-.05.17h0a.55.55,0,0,0,0,.18.49.49,0,0,0,.11.2.51.51,0,0,0,.16.13.66.66,0,0,0,.2.06h0a.37.37,0,0,0,.18,0L245,172.62l.3-.07L260,169.07l.72-.17,6.34-1.5.3-.08,18-4.25-7.43,10.34-.13.17-3.21,4.47-.31.43-5.48,7.62-.13.18-3.75,5.22a.54.54,0,0,0-.09.43.53.53,0,0,0,.27.35l7.09,3.92a.68.68,0,0,0,.15,0,.48.48,0,0,0,.2,0l.24,0,10-1.75.33-.06,9.38-1.63-2.69,5.5-.1.19-2.86,5.83a.58.58,0,0,0,0,.41.53.53,0,0,0,.08.17l0,0a.52.52,0,0,0,.53.16l9.34-2.49.29-.08,18.76-5-3.39,10.06-.1.31-1,2.89-.07.21-2.23,6.62a.54.54,0,0,0,.1.52.5.5,0,0,0,.5.18l11-1.93.33-.06,9.34-1.64.5-.09,0,.08-3.14,5.51-.1.18L324.28,226a.53.53,0,0,0,0,.41.54.54,0,0,0,.25.32l7.15,4,.22.13.46.25a.54.54,0,0,0,.39.06l9.56-2.39.3-.08,9.68-2.42-2.56,6.53-.08.21-2.36,6h0a.63.63,0,0,0,0,.27.54.54,0,0,0,.11.26.58.58,0,0,0,.51.19l10.4-1.73.34-.06,10.61-1.77-.47,7.63,0,.44-.44,7.16a.54.54,0,0,0,.27.5l8.27,4.8.21.12,14.29,8.29.21.13L406.43,274l.21.13,9.79,5.68a.52.52,0,0,0,.27.07l.08,0a.51.51,0,0,0,.33-.19S417.15,279.62,417.16,279.59Z"/><polygon class="cls-9" points="864.37 500.41 878.58 492.2 878.58 492.2 864.36 500.41 864.37 500.41"/><polygon class="cls-26" points="889.81 490.85 889.81 490.86 889.82 490.85 889.81 490.85"/><polygon class="cls-26" points="884.01 489.07 882.12 487.97 882.12 487.97 882.12 493.11 884.01 494.2 884.01 489.07 884.01 489.07"/><path class="cls-27" d="M878.58,492.2l-14.22,8.21a9.28,9.28,0,0,1,1.92,4l14.26-8.23v-2.18l-2,1.13Z"/><path class="cls-9" d="M856.8,520.44c-.2.15-.4.3-.61.44C856.4,520.74,856.6,520.59,856.8,520.44Z"/><path class="cls-9" d="M859.22,518.56l-.48.41Z"/><path class="cls-9" d="M861.27,516.66a3,3,0,0,1-.25.25A3,3,0,0,0,861.27,516.66Z"/><polygon class="cls-9" points="863.01 514.7 863.01 514.7 863.01 514.71 863.01 514.7"/><path class="cls-9" d="M808.28,526.18c.28.18.52.39.83.56-.31-.17-.55-.38-.83-.56Z"/><path class="cls-27" d="M866.43,505.78a10.6,10.6,0,0,1-.32,3.08,16.15,16.15,0,0,1-3.1,5.84h0a23.68,23.68,0,0,1-1.74,1.95,3,3,0,0,1-.25.25,24.15,24.15,0,0,1-1.8,1.65l-.48.41c-.61.5-1.26,1-1.94,1.47-.2.15-.4.3-.61.44-.89.61-1.82,1.2-2.82,1.78-14.16,8.18-34,10-44.26,4.08-.31-.17-.55-.38-.83-.56h0a11,11,0,0,1-4.83-6,8.37,8.37,0,0,1-.3-1.79,1.24,1.24,0,0,0,0,.22v4.59s0,.06,0,.09c.16,3.35,2.1,6.4,6,8.64,10.26,5.93,30.1,4.1,44.26-4.08,8.59-5,13.11-11.12,13.07-16.52a2.76,2.76,0,0,0,.06-.4v-4.65A1.93,1.93,0,0,0,866.43,505.78Z"/><path class="cls-28" d="M808.28,526.18c.28.18.52.39.83.56,10.26,5.93,30.1,4.1,44.26-4.08,1-.58,1.93-1.17,2.82-1.78.21-.14.41-.29.61-.44.68-.49,1.33-1,1.94-1.47l.48-.41a24.15,24.15,0,0,0,1.8-1.65,3,3,0,0,0,.25-.25,23.68,23.68,0,0,0,1.74-1.95h0a16.15,16.15,0,0,0,3.1-5.84,10.6,10.6,0,0,0,.32-3.08,11.85,11.85,0,0,0-.15-1.32,9.28,9.28,0,0,0-1.92-4h0l-6,3.47c1.34,4.42-2.43,10.22-10.46,14.85-11,6.35-25.81,8.12-33,3.95s-4.17-12.73,6.84-19.08c9.45-5.46,21.71-7.52,29.56-5.34l5.11-2.95c-10.86-3.59-27.7-1.32-40.17,5.88-8.92,5.15-13.45,11.6-13,17.15a8.37,8.37,0,0,0,.3,1.79A11,11,0,0,0,808.28,526.18Z"/><path class="cls-29" d="M839.61,510.32c-2.55-1.48-2.83-3.71-.62-5l12.25-7.07c-7.85-2.18-20.11-.12-29.56,5.34-11,6.35-14.07,14.9-6.84,19.08s22,2.4,33-3.95c8-4.63,11.8-10.43,10.46-14.85l-11.66,6.73A7.84,7.84,0,0,1,839.61,510.32Z"/><polygon class="cls-27" points="878.64 489.98 880.53 491.07 878.58 492.2 878.58 492.2 878.58 495.18 880.54 494.05 882.12 493.14 882.12 493.11 882.12 487.97 878.64 489.98"/><path class="cls-28" d="M839,505.33c-2.21,1.28-1.93,3.51.62,5a7.84,7.84,0,0,0,7.07.29l11.66-6.73,6-3.47,14.22-8.21,1.95-1.13L878.64,490l-.11.06-5-2.86.11-.06-1.56-.91-15.76,9.1-5.11,2.95Z"/><polygon class="cls-28" points="878.53 490.04 878.64 489.98 882.12 487.97 882.12 487.97 882.13 487.96 877.17 485.09 877.15 485.1 873.67 487.12 873.56 487.18 878.53 490.04"/><path class="cls-7" d="M1058,388.13l-3.39,2h0L889.37,485.46l.45.26h0V490l164.77-94.79h0l3.35-1.93a2.52,2.52,0,0,0,1.5-2.57v-4.38A2.82,2.82,0,0,1,1058,388.13Z"/><path class="cls-8" d="M1059.43,385.48a4,4,0,0,0-2.12-2.5L807.36,238.68h0l-6.74-3.89L713.9,284.85l7.28,4.2,74.69-43.12,1.61-.93,2.88-1.67,246.93,142.56-4.5,2.6L882.1,481.26l7.27,4.2,165.19-95.37h0l3.39-2a2.82,2.82,0,0,0,1.48-1.77,2,2,0,0,0,0-.88Z"/><polygon class="cls-28" points="889.81 485.72 889.81 485.72 889.82 485.72 889.37 485.46 882.1 481.26 881.3 480.8 875.5 484.15 877.15 485.1 877.17 485.09 882.13 487.96 882.12 487.97 884.01 489.07 889.81 485.72"/><polygon class="cls-27" points="889.81 485.72 884.01 489.07 884.01 489.07 884.01 494.2 884.01 494.22 889.81 490.87 889.81 490.86 889.81 490.85 889.81 490.04 889.81 485.72 889.81 485.72"/></svg>