<svg xmlns="http://www.w3.org/2000/svg" viewBox="0 0 1200 730"><defs><style>.cls-1{isolation:isolate;}.cls-14,.cls-2{fill:#b2ebf2;}.cls-13,.cls-3,.cls-9{fill:#80deea;}.cls-3,.cls-6{fill-rule:evenodd;}.cls-4,.cls-6{fill:#4dd0e1;}.cls-5{fill:#b2dfdb;}.cls-7{fill:#b0bec5;}.cls-8{fill:none;}.cls-10,.cls-11{fill:#e0e0e0;}.cls-11,.cls-13,.cls-14{mix-blend-mode:multiply;}.cls-12{fill:#cfd8dc;}</style></defs><g class="cls-1"><g id="Layer_1" data-name="Layer 1"><path class="cls-2" d="M398.14,472.16c16.81,9.69,22.09,23.12,15,33.49,94.48,34.17,230.85,22.44,324.74-31.72l170-98c42.53-24.54,47.16-61.71,10.33-83l-201-116c-36.84-21.25-101.27-18.58-143.81,6L402.4,281.5C311.76,333.78,290,409,342.6,463,360.19,459.68,382.12,462.91,398.14,472.16Z"/><path class="cls-3" d="M698.26,217.54c-34.08-19.66-85.69-21.79-115.2-4.77L441,294.75c-29.51,17-25.8,46.79,8.27,66.45l123.46,71.22c34.07,19.65,85.69,21.79,115.19,4.77l142.12-82c29.5-17,25.8-46.8-8.27-66.45Z"/><path class="cls-4" d="M580.69,471.62c-.69,6.83-5.5,13.55-14.54,18.77-19.58,11.29-51.37,11.29-70.95,0-9.18-5.3-14-12.14-14.57-19.08l-.12,0,.05,8.24c0,.41,0,.83,0,1.24v.75l.05,0c.59,6.92,5.41,13.75,14.57,19,19.58,11.29,51.37,11.29,70.95,0,9.2-5.31,14-12.17,14.57-19.13h.06v-.74c0-.37,0-.73,0-1.1l0-8Z"/><path class="cls-5" d="M495.2,490.39c19.58,11.29,51.37,11.29,70.95,0,9-5.22,13.85-11.94,14.54-18.77.81-8-4-16.08-14.54-22.16-19.58-11.3-51.37-11.3-70.95,0-10.4,6-15.22,14-14.57,21.85C481.2,478.25,486,485.09,495.2,490.39Z"/><path class="cls-4" d="M434.79,395.9V386h0c-.15,7.3-5,14.57-14.66,20.13-19.58,11.3-51.37,11.3-70.95,0-9.47-5.46-14.31-12.57-14.62-19.74h-.06l0,9.29c0,.15,0,.3,0,.45v.5h0c.31,7.16,5.16,14.27,14.62,19.73,19.58,11.29,51.37,11.29,70.95,0,9-5.17,13.77-11.82,14.53-18.59l.15-.06V395.9Z"/><path class="cls-5" d="M349.16,406.14c19.58,11.3,51.37,11.3,70.95,0,9.64-5.56,14.51-12.83,14.66-20.13.14-7.52-4.72-15.06-14.66-20.79-19.58-11.3-51.37-11.3-70.95,0-10.11,5.83-15,13.54-14.62,21.18C334.85,393.57,339.69,400.68,349.16,406.14Z"/><polygon class="cls-6" points="357.93 370.27 411.35 380.55 375.73 401.09 357.93 370.27"/><polygon class="cls-6" points="557.38 485.33 503.96 475.06 539.58 454.52 557.38 485.33"/><polygon class="cls-7" points="384.63 502.69 384.61 502.7 384.63 502.72 384.63 502.69"/><path class="cls-8" d="M350,462a86.17,86.17,0,0,1,13,0l1.41.11c2.2.19,4.4.43,6.59.78h0c2.15.34,4.28.79,6.39,1.29l1.51.37c2.12.54,4.23,1.13,6.28,1.83l.06,0c2,.68,4,1.46,5.89,2.3.49.21,1,.42,1.44.64,1.92.88,3.8,1.81,5.59,2.84,1.11.64,2.16,1.3,3.17,2,.35.23.66.47,1,.7.63.44,1.27.89,1.86,1.35.39.29.74.59,1.1.89s1,.81,1.45,1.22.73.67,1.08,1,.8.77,1.17,1.16.68.74,1,1.11.62.72.91,1.08.64.81.94,1.22l.67,1c.3.45.59.9.85,1.35.15.27.29.54.43.81.27.51.54,1,.77,1.54.07.16.12.32.19.48a16.89,16.89,0,0,1-1.64,16.62c94.48,34.17,230.85,22.44,324.74-31.72l170-98c42.53-24.54,47.16-61.71,10.33-83l-201-116c-36.84-21.25-101.27-18.58-143.81,6L402.4,281.5C311.76,333.78,290,409,342.6,463c2-.37,4-.64,6.14-.84Z"/><path class="cls-4" d="M273.68,424.94l-.49-.09v93h.57c.2,1.75.47,3.5.77,5.24l42.29-24.39C290.67,477.08,276.36,451.61,273.68,424.94Z"/><path class="cls-4" d="M980.2,343.77h0c-2.9,16.24-16,32.75-39,46L749.87,500.14c-104.74,60.42-256.43,73.93-362.68,36.74-6.19,3.42-19.19.75-34.27-8-.19-.11-.38-.24-.58-.35L291.46,563.7c11.61,16.74,28.77,32.18,51.71,45.41,104.17,60.09,286.41,52.54,406.7-16.85L941.2,481.89c25.39-14.65,38.78-33.29,39.58-51.14h0Z"/><path class="cls-9" d="M316.82,498.75l2-1.15-.1-.15a20.65,20.65,0,0,1-3.9-11.05c0-.16-.05-.32-.05-.47s0,0,0-.06c0-4.95,2.26-9.7,6.82-13.71.11-.11.26-.2.38-.31.62-.52,1.25-1,1.94-1.54.85-.6,1.76-1.18,2.72-1.74a40.07,40.07,0,0,1,3.58-1.83l.38-.15c1.13-.5,2.3-1,3.51-1.39l.1,0a58.46,58.46,0,0,1,8.41-2.2C290,409,311.76,333.78,402.4,281.5l170.89-98.58c42.54-24.54,107-27.21,143.81-6l201,116c36.83,21.25,32.2,58.42-10.33,83l-170,98C644,528.09,507.58,539.82,413.1,505.65c-.37.52-.74,1.05-1.17,1.56a20.72,20.72,0,0,1-1.5,1.65h0l-.12.09c-.46.44-1,.87-1.46,1.28s-1,.76-1.47,1.13h0c-.23.17-.45.35-.7.52a86.35,86.35,0,0,0-13.33,15,24,24,0,0,0-2.78,6,7,7,0,0,1-3.4,3.91c106.25,37.19,257.94,23.68,362.68-36.74L941.2,389.76c23-13.24,36.08-29.75,39-46,3.15-17.63-5.76-34.94-27.35-47.4L726.51,165.82c-41.47-23.92-114-20.92-161.89,6.71l-192.39,111c-70,40.35-103.45,92.83-98.55,141.43C276.36,451.61,290.67,477.08,316.82,498.75Z"/><path class="cls-10" d="M378.88,464.53l-1.51-.37Z"/><path class="cls-10" d="M390.59,533a24,24,0,0,1,2.78-6,86.35,86.35,0,0,1,13.33-15c.25-.17.47-.35.7-.52,7.26-10.38,2-23.87-14.87-33.6-21.45-12.38-53.5-14-71.52-3.6a33.73,33.73,0,0,0-3.06,2,22.88,22.88,0,0,1,3.63-4c-4.56,4-6.81,8.76-6.82,13.71,0,0,0,0,0,.06s0,.31.05.47a20.65,20.65,0,0,0,3.9,11.05l.1.15,35.4-20.42V473.6l39.05,22v4.07h0v5.2l0,0,0,0-40.91,23.61c.2.11.39.24.58.35,15.08,8.7,28.08,11.37,34.27,8A7,7,0,0,0,390.59,533Z"/><path class="cls-10" d="M385.22,466.38l-.06,0Z"/><path class="cls-10" d="M350,462l-1.25.12Z"/><path class="cls-10" d="M364.36,462.08,363,462Z"/><path class="cls-10" d="M371,462.87h0Z"/><path class="cls-10" d="M407.8,479.3c.4.39.79.77,1.17,1.16C408.6,480.07,408.2,479.69,407.8,479.3Z"/><path class="cls-10" d="M410.89,482.65c-.29-.36-.59-.72-.91-1.08C410.3,481.93,410.6,482.29,410.89,482.65Z"/><path class="cls-10" d="M406.72,478.29c-.46-.41-1-.82-1.45-1.22C405.77,477.47,406.26,477.88,406.72,478.29Z"/><path class="cls-10" d="M414.74,489c-.07-.16-.12-.32-.19-.48C414.62,488.71,414.67,488.87,414.74,489Z"/><path class="cls-10" d="M404.17,476.18c-.59-.46-1.23-.91-1.86-1.35C402.94,475.27,403.58,475.72,404.17,476.18Z"/><path class="cls-10" d="M412.5,484.85l-.67-1Z"/><path class="cls-10" d="M408.89,510.23c-.47.39-1,.76-1.47,1.13C407.92,511,408.42,510.62,408.89,510.23Z"/><path class="cls-10" d="M413.78,487c-.14-.27-.28-.54-.43-.81C413.5,486.47,413.64,486.74,413.78,487Z"/><path class="cls-10" d="M401.31,474.13c-1-.67-2.06-1.33-3.17-2C399.25,472.8,400.3,473.46,401.31,474.13Z"/><path class="cls-10" d="M392.55,469.32c-.47-.22-.95-.43-1.44-.64C391.59,468.89,392.08,469.1,392.55,469.32Z"/><path class="cls-10" d="M330.2,466.74l.38-.15Z"/><path class="cls-10" d="M322,471.85c.61-.52,1.25-1,1.94-1.54C323.21,470.81,322.58,471.33,322,471.85Z"/><path class="cls-10" d="M411.93,507.21c-.47.56-.95,1.11-1.5,1.65A20.72,20.72,0,0,0,411.93,507.21Z"/><path class="cls-10" d="M334.09,465.2l.1,0Z"/><path class="cls-11" d="M385.16,466.36c-2.05-.7-4.16-1.29-6.28-1.83C381,465.07,383.11,465.66,385.16,466.36Z"/><path class="cls-11" d="M398.14,472.16c-1.79-1-3.67-2-5.59-2.84C394.47,470.2,396.35,471.13,398.14,472.16Z"/><path class="cls-11" d="M377.37,464.16c-2.11-.5-4.24-1-6.39-1.29C373.13,463.21,375.26,463.66,377.37,464.16Z"/><path class="cls-11" d="M391.11,468.68c-1.92-.84-3.87-1.62-5.89-2.3C387.23,467.06,389.19,467.84,391.11,468.68Z"/><path class="cls-11" d="M414.55,488.55c-.23-.52-.5-1-.77-1.54C414.05,487.52,414.32,488,414.55,488.55Z"/><path class="cls-11" d="M413.35,486.2c-.26-.45-.55-.9-.85-1.35C412.79,485.3,413.09,485.75,413.35,486.2Z"/><path class="cls-11" d="M350,462a86.17,86.17,0,0,1,13,0A86.17,86.17,0,0,0,350,462Z"/><path class="cls-11" d="M371,462.86c-2.19-.35-4.39-.59-6.59-.78C366.56,462.27,368.76,462.51,371,462.86Z"/><path class="cls-11" d="M414.74,489a16.92,16.92,0,0,1-1.64,16.62h0A16.89,16.89,0,0,0,414.74,489Z"/><path class="cls-11" d="M405.27,477.07c-.36-.3-.71-.6-1.1-.89C404.56,476.47,404.91,476.77,405.27,477.07Z"/><path class="cls-11" d="M407.8,479.3c-.35-.34-.7-.68-1.08-1C407.1,478.62,407.45,479,407.8,479.3Z"/><path class="cls-11" d="M411.83,483.87c-.3-.41-.61-.81-.94-1.22C411.22,483.06,411.53,483.46,411.83,483.87Z"/><path class="cls-11" d="M409,480.46c.35.37.69.74,1,1.11C409.65,481.2,409.32,480.83,409,480.46Z"/><path class="cls-11" d="M348.74,462.13c-2.09.2-4.15.47-6.14.84h0C344.59,462.6,346.65,462.33,348.74,462.13Z"/><path class="cls-11" d="M402.31,474.83c-.34-.23-.65-.47-1-.7C401.66,474.36,402,474.6,402.31,474.83Z"/><path class="cls-9" d="M407.4,511.37h0Z"/><path class="cls-11" d="M407.4,511.37h0Z"/><path class="cls-9" d="M410.35,509c-.46.44-1,.87-1.46,1.28C409.4,509.82,409.89,509.39,410.35,509Z"/><path class="cls-11" d="M410.35,509c-.46.44-1,.87-1.46,1.28C409.4,509.82,409.89,509.39,410.35,509Z"/><path class="cls-9" d="M342.6,463a58.46,58.46,0,0,0-8.41,2.2,58.46,58.46,0,0,1,8.41-2.2Z"/><path class="cls-11" d="M342.6,463a58.46,58.46,0,0,0-8.41,2.2,58.46,58.46,0,0,1,8.41-2.2Z"/><path class="cls-9" d="M411.93,507.21c.43-.51.8-1,1.17-1.56h0Q412.55,506.43,411.93,507.21Z"/><path class="cls-11" d="M411.93,507.21c.43-.51.8-1,1.17-1.56h0Q412.55,506.43,411.93,507.21Z"/><path class="cls-9" d="M321.58,472.16c.11-.1.26-.2.38-.31C321.84,472,321.69,472.05,321.58,472.16Z"/><path class="cls-11" d="M321.58,472.16c.11-.1.26-.2.38-.31C321.84,472,321.69,472.05,321.58,472.16Z"/><path class="cls-9" d="M326.62,468.57a40.07,40.07,0,0,1,3.58-1.83A40.07,40.07,0,0,0,326.62,468.57Z"/><path class="cls-11" d="M326.62,468.57a40.07,40.07,0,0,1,3.58-1.83A40.07,40.07,0,0,0,326.62,468.57Z"/><path class="cls-9" d="M330.58,466.59c1.13-.5,2.3-1,3.51-1.39C332.88,465.62,331.71,466.09,330.58,466.59Z"/><path class="cls-11" d="M330.58,466.59c1.13-.5,2.3-1,3.51-1.39C332.88,465.62,331.71,466.09,330.58,466.59Z"/><path class="cls-9" d="M323.9,470.31c.85-.6,1.76-1.18,2.72-1.74C325.66,469.13,324.75,469.71,323.9,470.31Z"/><path class="cls-11" d="M323.9,470.31c.85-.6,1.76-1.18,2.72-1.74C325.66,469.13,324.75,469.71,323.9,470.31Z"/><path class="cls-10" d="M318,476.18a33.73,33.73,0,0,1,3.06-2c18-10.39,50.07-8.78,71.52,3.6,16.87,9.73,22.13,23.22,14.87,33.6h0c.5-.37,1-.74,1.47-1.13s1-.84,1.46-1.28l.12-.09h0c.55-.54,1-1.09,1.5-1.65s.8-1,1.17-1.56A16.92,16.92,0,0,0,414.74,489c-.07-.16-.12-.32-.19-.48-.23-.52-.5-1-.77-1.54-.14-.27-.28-.54-.43-.81-.26-.45-.56-.9-.85-1.35l-.67-1c-.3-.41-.61-.81-.94-1.22s-.59-.72-.91-1.08-.66-.74-1-1.11-.77-.77-1.17-1.16-.7-.68-1.08-1-1-.82-1.45-1.22-.71-.6-1.1-.89c-.59-.46-1.23-.91-1.86-1.35-.34-.23-.65-.47-1-.7-1-.67-2.06-1.33-3.17-2-1.79-1-3.67-2-5.59-2.84-.47-.22-1-.43-1.44-.64-1.92-.84-3.88-1.62-5.89-2.3l-.06,0c-2.05-.7-4.16-1.29-6.28-1.83l-1.51-.37c-2.11-.5-4.24-1-6.39-1.29h0c-2.19-.35-4.39-.59-6.59-.78L363,462a86.17,86.17,0,0,0-13,0l-1.25.12c-2.09.2-4.15.47-6.14.84a58.46,58.46,0,0,0-8.41,2.2l-.1,0c-1.21.42-2.38.89-3.51,1.39l-.38.15a40.07,40.07,0,0,0-3.58,1.83c-1,.56-1.87,1.14-2.72,1.74-.69.5-1.33,1-1.94,1.54-.12.11-.27.21-.38.31A22.88,22.88,0,0,0,318,476.18Z"/><path class="cls-11" d="M318,476.18a33.73,33.73,0,0,1,3.06-2c18-10.39,50.07-8.78,71.52,3.6,16.87,9.73,22.13,23.22,14.87,33.6h0c.5-.37,1-.74,1.47-1.13s1-.84,1.46-1.28l.12-.09h0c.55-.54,1-1.09,1.5-1.65s.8-1,1.17-1.56A16.92,16.92,0,0,0,414.74,489c-.07-.16-.12-.32-.19-.48-.23-.52-.5-1-.77-1.54-.14-.27-.28-.54-.43-.81-.26-.45-.56-.9-.85-1.35l-.67-1c-.3-.41-.61-.81-.94-1.22s-.59-.72-.91-1.08-.66-.74-1-1.11-.77-.77-1.17-1.16-.7-.68-1.08-1-1-.82-1.45-1.22-.71-.6-1.1-.89c-.59-.46-1.23-.91-1.86-1.35-.34-.23-.65-.47-1-.7-1-.67-2.06-1.33-3.17-2-1.79-1-3.67-2-5.59-2.84-.47-.22-1-.43-1.44-.64-1.92-.84-3.88-1.62-5.89-2.3l-.06,0c-2.05-.7-4.16-1.29-6.28-1.83l-1.51-.37c-2.11-.5-4.24-1-6.39-1.29h0c-2.19-.35-4.39-.59-6.59-.78L363,462a86.17,86.17,0,0,0-13,0l-1.25.12c-2.09.2-4.15.47-6.14.84a58.46,58.46,0,0,0-8.41,2.2l-.1,0c-1.21.42-2.38.89-3.51,1.39l-.38.15a40.07,40.07,0,0,0-3.58,1.83c-1,.56-1.87,1.14-2.72,1.74-.69.5-1.33,1-1.94,1.54-.12.11-.27.21-.38.31A22.88,22.88,0,0,0,318,476.18Z"/><polygon class="cls-10" points="354.2 473.6 354.2 477.18 393.23 499.7 393.25 499.71 393.25 499.71 393.25 495.64 354.2 473.6"/><polygon class="cls-11" points="354.2 473.6 354.2 477.18 393.23 499.7 393.25 499.71 393.25 499.71 393.25 495.64 354.2 473.6"/><polygon class="cls-7" points="393.25 504.97 393.21 504.95 393.25 504.92 393.25 499.72 239.89 588.18 200.83 565.65 200.84 565.65 200.82 565.64 200.82 570.96 239.88 593.5 239.88 593.44 239.89 593.44 291.46 563.7 352.34 528.58 393.25 504.97"/><polygon class="cls-12" points="239.89 588.18 393.25 499.72 393.25 499.71 393.25 499.71 393.25 499.71 393.23 499.7 354.2 477.18 318.8 497.6 316.82 498.75 274.53 523.14 200.84 565.65 200.83 565.65 239.89 588.18"/><path class="cls-13" d="M821.72,288.76,698.26,217.54c-20-11.56-46.11-17-70.2-16.12,20.74.91,42,6.34,59,16.12l123.46,71.22c34.07,19.65,37.78,49.43,8.27,66.45l-142.11,82c-12.16,7-28.1,10.72-45,11.35,21,.91,41.38-2.79,56.21-11.35l142.12-82C859.49,338.19,855.79,308.41,821.72,288.76Z"/><path class="cls-14" d="M918.13,292.93l-201-116c-18-10.39-42.65-15.05-68.09-14.23,21.36.69,41.51,5.38,56.86,14.23l201,116c36.83,21.25,32.21,58.42-10.32,83l-170,98c-57,32.9-129.75,50.14-199.22,50.95,72.8,1,150.33-16.28,210.44-50.95l170-98C950.33,351.35,955,314.18,918.13,292.93Z"/></g></g></svg>