<svg xmlns="http://www.w3.org/2000/svg" xmlns:xlink="http://www.w3.org/1999/xlink" viewBox="0 0 1120.82 569.76"><defs><style>.cls-1,.cls-21,.cls-22,.cls-28,.cls-45,.cls-5{fill:none;}.cls-2{fill:#ffccbc;stroke-width:0.5px;}.cls-13,.cls-2{stroke:#f44336;}.cls-13,.cls-2,.cls-38,.cls-5{stroke-miterlimit:10;}.cls-3{isolation:isolate;}.cls-4{opacity:0.33;}.cls-5{stroke:#26c6da;stroke-width:0.52px;}.cls-11,.cls-6{fill:#263238;}.cls-7{fill:#78909c;}.cls-8{fill:#e0e0e0;opacity:0.55;}.cls-9{fill:#455a64;}.cls-10,.cls-11,.cls-17,.cls-18,.cls-22,.cls-25,.cls-27,.cls-30,.cls-35,.cls-37,.cls-42,.cls-44{mix-blend-mode:multiply;}.cls-12,.cls-31,.cls-32{fill:#fafafa;}.cls-13{stroke-width:1.22px;fill-rule:evenodd;opacity:0.4;fill:url(#New_Pattern_Swatch_1);}.cls-14{fill:#f44336;}.cls-15,.cls-17,.cls-18{fill:gray;}.cls-16,.cls-18,.cls-22{opacity:0.45;}.cls-19{fill:#5d4037;}.cls-20,.cls-39{fill:#fff;}.cls-21{stroke:#757575;stroke-width:7.35px;}.cls-21,.cls-22,.cls-28,.cls-45{stroke-linecap:round;stroke-linejoin:round;}.cls-22{stroke:#8d6e63;stroke-width:9.8px;}.cls-23{fill:#f48fb1;}.cls-24,.cls-25{fill:#e5e8ea;}.cls-26,.cls-27{fill:#f9ecd7;}.cls-28{stroke:#f2f2f2;stroke-opacity:0.45;}.cls-28,.cls-38{stroke-width:3.67px;}.cls-29,.cls-30{fill:#d32f2f;}.cls-31,.cls-33{opacity:0.51;}.cls-31,.cls-32,.cls-33{mix-blend-mode:overlay;}.cls-32{opacity:0.9;}.cls-33{fill:#efebe9;}.cls-34,.cls-35{fill:#757575;}.cls-36,.cls-37{fill:#e0f7fa;}.cls-38{fill:#80deea;stroke:#b2ebf2;}.cls-39{opacity:0.58;}.cls-40,.cls-42{fill:#eee;}.cls-41{fill:#ffee58;}.cls-43,.cls-44{fill:#1565c0;}.cls-45{stroke:#00acc1;stroke-width:0.66px;}</style><pattern id="New_Pattern_Swatch_1" data-name="New Pattern Swatch 1" width="18.36" height="18.36" patternUnits="userSpaceOnUse" viewBox="0 0 18.36 18.36"><rect class="cls-1" width="18.36" height="18.36"/><rect class="cls-2" x="0.25" y="0.25" width="17.86" height="17.86"/><rect class="cls-2" x="0.25" y="0.25" width="5.95" height="5.95"/><rect class="cls-2" x="6.2" y="0.25" width="5.95" height="5.95"/><rect class="cls-2" x="12.16" y="0.25" width="5.95" height="5.95"/><rect class="cls-2" x="0.25" y="6.2" width="5.95" height="5.95"/><rect class="cls-2" x="6.2" y="6.2" width="5.95" height="5.95"/><rect class="cls-2" x="12.16" y="6.2" width="5.95" height="5.95"/><rect class="cls-2" x="0.25" y="12.16" width="5.95" height="5.95"/><rect class="cls-2" x="6.2" y="12.16" width="5.95" height="5.95"/><rect class="cls-2" x="12.16" y="12.16" width="5.95" height="5.95"/></pattern></defs><g class="cls-3"><g id="Layer_1" data-name="Layer 1"><g class="cls-4"><rect class="cls-5" x="78.56" y="164.66" width="24.9" height="24.9"/><rect class="cls-5" x="103.47" y="164.66" width="24.9" height="24.9"/><rect class="cls-5" x="78.56" y="189.57" width="24.9" height="24.9"/><rect class="cls-5" x="103.47" y="189.57" width="24.9" height="24.9"/><rect class="cls-5" x="78.56" y="114.86" width="24.9" height="24.9"/><rect class="cls-5" x="78.56" y="139.76" width="24.9" height="24.9"/><rect class="cls-5" x="103.47" y="139.76" width="24.9" height="24.9"/><rect class="cls-5" x="78.56" y="214.47" width="24.9" height="24.9"/><rect class="cls-5" x="103.47" y="214.47" width="24.9" height="24.9"/><rect class="cls-5" x="128.37" y="189.57" width="24.9" height="24.9"/><rect class="cls-5" x="128.37" y="214.47" width="24.9" height="24.9"/><rect class="cls-5" x="78.56" y="239.38" width="24.9" height="24.9"/><rect class="cls-5" x="103.47" y="239.38" width="24.9" height="24.9"/><rect class="cls-5" x="78.56" y="264.28" width="24.9" height="24.9"/><rect class="cls-5" x="103.47" y="264.28" width="24.9" height="24.9"/><rect class="cls-5" x="128.37" y="239.38" width="24.9" height="24.9"/><rect class="cls-5" x="128.37" y="264.28" width="24.9" height="24.9"/><rect class="cls-5" x="78.56" y="289.18" width="24.9" height="24.9"/><rect class="cls-5" x="103.47" y="289.18" width="24.9" height="24.9"/><rect class="cls-5" x="78.56" y="314.09" width="24.9" height="24.9"/><rect class="cls-5" x="103.47" y="314.09" width="24.9" height="24.9"/><rect class="cls-5" x="128.37" y="289.18" width="24.9" height="24.9"/><rect class="cls-5" x="128.37" y="314.09" width="24.9" height="24.9"/><rect class="cls-5" x="78.56" y="338.99" width="24.9" height="24.9"/><rect class="cls-5" x="103.47" y="338.99" width="24.9" height="24.9"/><rect class="cls-5" x="78.56" y="363.9" width="24.9" height="24.9"/><rect class="cls-5" x="103.47" y="363.9" width="24.9" height="24.9"/><rect class="cls-5" x="128.37" y="338.99" width="24.9" height="24.9"/><rect class="cls-5" x="128.37" y="363.9" width="24.9" height="24.9"/><rect class="cls-5" x="78.56" y="388.8" width="24.9" height="24.9"/><rect class="cls-5" x="103.47" y="388.8" width="24.9" height="24.9"/><rect class="cls-5" x="78.56" y="413.71" width="24.9" height="24.9"/><rect class="cls-5" x="103.47" y="413.71" width="24.9" height="24.9"/><rect class="cls-5" x="128.37" y="388.8" width="24.9" height="24.9"/><rect class="cls-5" x="128.37" y="413.71" width="24.9" height="24.9"/><rect class="cls-5" x="78.56" y="438.61" width="24.9" height="24.9"/><rect class="cls-5" x="103.47" y="438.61" width="24.9" height="24.9"/><rect class="cls-5" x="78.56" y="463.51" width="24.9" height="24.9"/><rect class="cls-5" x="103.47" y="463.51" width="24.9" height="24.9"/><rect class="cls-5" x="128.37" y="438.61" width="24.9" height="24.9"/><rect class="cls-5" x="128.37" y="463.51" width="24.9" height="24.9"/><rect class="cls-5" x="153.27" y="214.47" width="24.9" height="24.9"/><rect class="cls-5" x="178.18" y="214.47" width="24.9" height="24.9"/><rect class="cls-5" x="203.08" y="214.47" width="24.9" height="24.9"/><rect class="cls-5" x="153.27" y="239.38" width="24.9" height="24.9"/><rect class="cls-5" x="178.18" y="239.38" width="24.9" height="24.9"/><rect class="cls-5" x="153.27" y="264.28" width="24.9" height="24.9"/><rect class="cls-5" x="178.18" y="264.28" width="24.9" height="24.9"/><rect class="cls-5" x="203.08" y="239.38" width="24.9" height="24.9"/><rect class="cls-5" x="203.08" y="264.28" width="24.9" height="24.9"/><rect class="cls-5" x="153.27" y="289.18" width="24.9" height="24.9"/><rect class="cls-5" x="178.18" y="289.18" width="24.9" height="24.9"/><rect class="cls-5" x="153.27" y="314.09" width="24.9" height="24.9"/><rect class="cls-5" x="178.18" y="314.09" width="24.9" height="24.9"/><rect class="cls-5" x="203.08" y="289.18" width="24.9" height="24.9"/><rect class="cls-5" x="203.08" y="314.09" width="24.9" height="24.9"/><rect class="cls-5" x="153.27" y="338.99" width="24.9" height="24.9"/><rect class="cls-5" x="178.18" y="338.99" width="24.9" height="24.9"/><rect class="cls-5" x="153.27" y="363.9" width="24.9" height="24.9"/><rect class="cls-5" x="178.18" y="363.9" width="24.9" height="24.9"/><rect class="cls-5" x="203.08" y="338.99" width="24.9" height="24.9"/><rect class="cls-5" x="203.08" y="363.9" width="24.9" height="24.9"/><rect class="cls-5" x="153.27" y="388.8" width="24.9" height="24.9"/><rect class="cls-5" x="178.18" y="388.8" width="24.9" height="24.9"/><rect class="cls-5" x="153.27" y="413.71" width="24.9" height="24.9"/><rect class="cls-5" x="178.18" y="413.71" width="24.9" height="24.9"/><rect class="cls-5" x="203.08" y="388.8" width="24.9" height="24.9"/><rect class="cls-5" x="203.08" y="413.71" width="24.9" height="24.9"/><rect class="cls-5" x="153.27" y="438.61" width="24.9" height="24.9"/><rect class="cls-5" x="178.18" y="438.61" width="24.9" height="24.9"/><rect class="cls-5" x="153.27" y="463.51" width="24.9" height="24.9"/><rect class="cls-5" x="178.18" y="463.51" width="24.9" height="24.9"/><rect class="cls-5" x="203.08" y="438.61" width="24.9" height="24.9"/><rect class="cls-5" x="203.08" y="463.51" width="24.9" height="24.9"/><rect class="cls-5" x="227.99" y="214.47" width="24.9" height="24.9"/><rect class="cls-5" x="252.89" y="214.47" width="24.9" height="24.9"/><rect class="cls-5" x="277.8" y="214.47" width="24.9" height="24.9"/><rect class="cls-5" x="227.99" y="239.38" width="24.9" height="24.9"/><rect class="cls-5" x="252.89" y="239.38" width="24.9" height="24.9"/><rect class="cls-5" x="227.99" y="264.28" width="24.9" height="24.9"/><rect class="cls-5" x="252.89" y="264.28" width="24.9" height="24.9"/><rect class="cls-5" x="277.8" y="239.38" width="24.9" height="24.9"/><rect class="cls-5" x="277.8" y="264.28" width="24.9" height="24.9"/><rect class="cls-5" x="227.99" y="289.18" width="24.9" height="24.9"/><rect class="cls-5" x="252.89" y="289.18" width="24.9" height="24.9"/><rect class="cls-5" x="227.99" y="314.09" width="24.9" height="24.9"/><rect class="cls-5" x="252.89" y="314.09" width="24.9" height="24.9"/><rect class="cls-5" x="277.8" y="289.18" width="24.9" height="24.9"/><rect class="cls-5" x="277.8" y="314.09" width="24.9" height="24.9"/><rect class="cls-5" x="227.99" y="338.99" width="24.9" height="24.9"/><rect class="cls-5" x="252.89" y="338.99" width="24.9" height="24.9"/><rect class="cls-5" x="227.99" y="363.9" width="24.9" height="24.9"/><rect class="cls-5" x="252.89" y="363.9" width="24.9" height="24.9"/><rect class="cls-5" x="277.8" y="338.99" width="24.9" height="24.9"/><rect class="cls-5" x="277.8" y="363.9" width="24.9" height="24.9"/><rect class="cls-5" x="227.99" y="388.8" width="24.9" height="24.9"/><rect class="cls-5" x="252.89" y="388.8" width="24.9" height="24.9"/><rect class="cls-5" x="227.99" y="413.71" width="24.9" height="24.9"/><rect class="cls-5" x="252.89" y="413.71" width="24.9" height="24.9"/><rect class="cls-5" x="277.8" y="388.8" width="24.9" height="24.9"/><rect class="cls-5" x="277.8" y="413.71" width="24.9" height="24.9"/><rect class="cls-5" x="227.99" y="438.61" width="24.9" height="24.9"/><rect class="cls-5" x="252.89" y="438.61" width="24.9" height="24.9"/><rect class="cls-5" x="227.99" y="463.51" width="24.9" height="24.9"/><rect class="cls-5" x="252.89" y="463.51" width="24.9" height="24.9"/><rect class="cls-5" x="277.8" y="438.61" width="24.9" height="24.9"/><rect class="cls-5" x="277.8" y="463.51" width="24.9" height="24.9"/><rect class="cls-5" x="302.7" y="214.47" width="24.9" height="24.9"/><rect class="cls-5" x="327.6" y="214.47" width="24.9" height="24.9"/><rect class="cls-5" x="352.51" y="214.47" width="24.9" height="24.9"/><rect class="cls-5" x="302.7" y="239.38" width="24.9" height="24.9"/><rect class="cls-5" x="327.6" y="239.38" width="24.9" height="24.9"/><rect class="cls-5" x="302.7" y="264.28" width="24.9" height="24.9"/><rect class="cls-5" x="327.6" y="264.28" width="24.9" height="24.9"/><rect class="cls-5" x="352.51" y="239.38" width="24.9" height="24.9"/><rect class="cls-5" x="352.51" y="264.28" width="24.9" height="24.9"/><rect class="cls-5" x="302.7" y="289.18" width="24.9" height="24.9"/><rect class="cls-5" x="327.6" y="289.18" width="24.9" height="24.9"/><rect class="cls-5" x="302.7" y="314.09" width="24.9" height="24.9"/><rect class="cls-5" x="327.6" y="314.09" width="24.9" height="24.9"/><rect class="cls-5" x="352.51" y="289.18" width="24.9" height="24.9"/><rect class="cls-5" x="352.51" y="314.09" width="24.9" height="24.9"/><rect class="cls-5" x="302.7" y="338.99" width="24.9" height="24.9"/><rect class="cls-5" x="327.6" y="338.99" width="24.9" height="24.9"/><rect class="cls-5" x="302.7" y="363.9" width="24.9" height="24.9"/><rect class="cls-5" x="327.6" y="363.9" width="24.9" height="24.9"/><rect class="cls-5" x="352.51" y="338.99" width="24.9" height="24.9"/><rect class="cls-5" x="352.51" y="363.9" width="24.9" height="24.9"/><rect class="cls-5" x="302.7" y="388.8" width="24.9" height="24.9"/><rect class="cls-5" x="327.6" y="388.8" width="24.9" height="24.9"/><rect class="cls-5" x="302.7" y="413.71" width="24.9" height="24.9"/><rect class="cls-5" x="327.6" y="413.71" width="24.9" height="24.9"/><rect class="cls-5" x="352.51" y="388.8" width="24.9" height="24.9"/><rect class="cls-5" x="352.51" y="413.71" width="24.9" height="24.9"/><rect class="cls-5" x="302.7" y="438.61" width="24.9" height="24.9"/><rect class="cls-5" x="327.6" y="438.61" width="24.9" height="24.9"/><rect class="cls-5" x="302.7" y="463.51" width="24.9" height="24.9"/><rect class="cls-5" x="327.6" y="463.51" width="24.9" height="24.9"/><rect class="cls-5" x="352.51" y="438.61" width="24.9" height="24.9"/><rect class="cls-5" x="352.51" y="463.51" width="24.9" height="24.9"/><rect class="cls-5" x="377.41" y="214.47" width="24.9" height="24.9"/><rect class="cls-5" x="402.32" y="214.47" width="24.9" height="24.9"/><rect class="cls-5" x="427.22" y="214.47" width="24.9" height="24.9"/><rect class="cls-5" x="377.41" y="239.38" width="24.9" height="24.9"/><rect class="cls-5" x="402.32" y="239.38" width="24.9" height="24.9"/><rect class="cls-5" x="377.41" y="264.28" width="24.9" height="24.9"/><rect class="cls-5" x="402.32" y="264.28" width="24.9" height="24.9"/><rect class="cls-5" x="427.22" y="239.38" width="24.9" height="24.9"/><rect class="cls-5" x="427.22" y="264.28" width="24.9" height="24.9"/><rect class="cls-5" x="377.41" y="289.18" width="24.9" height="24.9"/><rect class="cls-5" x="402.32" y="289.18" width="24.9" height="24.9"/><rect class="cls-5" x="377.41" y="314.09" width="24.9" height="24.9"/><rect class="cls-5" x="402.32" y="314.09" width="24.9" height="24.9"/><rect class="cls-5" x="427.22" y="289.18" width="24.9" height="24.9"/><rect class="cls-5" x="427.22" y="314.09" width="24.9" height="24.9"/><rect class="cls-5" x="377.41" y="338.99" width="24.9" height="24.9"/><rect class="cls-5" x="402.32" y="338.99" width="24.9" height="24.9"/><rect class="cls-5" x="377.41" y="363.9" width="24.9" height="24.9"/><rect class="cls-5" x="402.32" y="363.9" width="24.9" height="24.9"/><rect class="cls-5" x="427.22" y="338.99" width="24.9" height="24.9"/><rect class="cls-5" x="427.22" y="363.9" width="24.9" height="24.9"/><rect class="cls-5" x="377.41" y="388.8" width="24.9" height="24.9"/><rect class="cls-5" x="402.32" y="388.8" width="24.9" height="24.9"/><rect class="cls-5" x="377.41" y="413.71" width="24.9" height="24.9"/><rect class="cls-5" x="402.32" y="413.71" width="24.9" height="24.9"/><rect class="cls-5" x="427.22" y="388.8" width="24.9" height="24.9"/><rect class="cls-5" x="427.22" y="413.71" width="24.9" height="24.9"/><rect class="cls-5" x="377.41" y="438.61" width="24.9" height="24.9"/><rect class="cls-5" x="402.32" y="438.61" width="24.9" height="24.9"/><rect class="cls-5" x="377.41" y="463.51" width="24.9" height="24.9"/><rect class="cls-5" x="402.32" y="463.51" width="24.9" height="24.9"/><rect class="cls-5" x="427.22" y="438.61" width="24.9" height="24.9"/><rect class="cls-5" x="427.22" y="463.51" width="24.9" height="24.9"/><rect class="cls-5" x="452.12" y="214.47" width="24.9" height="24.9"/><rect class="cls-5" x="477.03" y="214.47" width="24.9" height="24.9"/><rect class="cls-5" x="501.93" y="214.47" width="24.9" height="24.9"/><rect class="cls-5" x="452.12" y="239.38" width="24.9" height="24.9"/><rect class="cls-5" x="477.03" y="239.38" width="24.9" height="24.9"/><rect class="cls-5" x="452.12" y="264.28" width="24.9" height="24.9"/><rect class="cls-5" x="477.03" y="264.28" width="24.9" height="24.9"/><rect class="cls-5" x="501.93" y="239.38" width="24.9" height="24.9"/><rect class="cls-5" x="501.93" y="264.28" width="24.9" height="24.9"/><rect class="cls-5" x="452.12" y="289.18" width="24.9" height="24.9"/><rect class="cls-5" x="477.03" y="289.18" width="24.9" height="24.9"/><rect class="cls-5" x="452.12" y="314.09" width="24.9" height="24.9"/><rect class="cls-5" x="477.03" y="314.09" width="24.9" height="24.9"/><rect class="cls-5" x="501.93" y="289.18" width="24.9" height="24.9"/><rect class="cls-5" x="501.93" y="314.09" width="24.9" height="24.9"/><rect class="cls-5" x="452.12" y="338.99" width="24.9" height="24.9"/><rect class="cls-5" x="477.03" y="338.99" width="24.9" height="24.9"/><rect class="cls-5" x="452.12" y="363.9" width="24.9" height="24.9"/><rect class="cls-5" x="477.03" y="363.9" width="24.9" height="24.9"/><rect class="cls-5" x="501.93" y="338.99" width="24.9" height="24.9"/><rect class="cls-5" x="501.93" y="363.9" width="24.9" height="24.9"/><rect class="cls-5" x="452.12" y="388.8" width="24.9" height="24.9"/><rect class="cls-5" x="477.03" y="388.8" width="24.9" height="24.9"/><rect class="cls-5" x="452.12" y="413.71" width="24.9" height="24.9"/><rect class="cls-5" x="477.03" y="413.71" width="24.9" height="24.9"/><rect class="cls-5" x="501.93" y="388.8" width="24.9" height="24.9"/><rect class="cls-5" x="501.93" y="413.71" width="24.9" height="24.9"/><rect class="cls-5" x="452.12" y="438.61" width="24.9" height="24.9"/><rect class="cls-5" x="477.03" y="438.61" width="24.9" height="24.9"/><rect class="cls-5" x="452.12" y="463.51" width="24.9" height="24.9"/><rect class="cls-5" x="477.03" y="463.51" width="24.9" height="24.9"/><rect class="cls-5" x="501.93" y="438.61" width="24.9" height="24.9"/><rect class="cls-5" x="501.93" y="463.51" width="24.9" height="24.9"/><rect class="cls-5" x="526.84" y="214.47" width="24.9" height="24.9"/><rect class="cls-5" x="551.74" y="214.47" width="24.9" height="24.9"/><rect class="cls-5" x="576.65" y="214.47" width="24.9" height="24.9"/><rect class="cls-5" x="526.84" y="239.38" width="24.9" height="24.9"/><rect class="cls-5" x="551.74" y="239.38" width="24.9" height="24.9"/><rect class="cls-5" x="526.84" y="264.28" width="24.9" height="24.9"/><rect class="cls-5" x="551.74" y="264.28" width="24.9" height="24.9"/><rect class="cls-5" x="576.65" y="239.38" width="24.9" height="24.9"/><rect class="cls-5" x="576.65" y="264.28" width="24.9" height="24.9"/><rect class="cls-5" x="526.84" y="289.18" width="24.9" height="24.9"/><rect class="cls-5" x="551.74" y="289.18" width="24.9" height="24.9"/><rect class="cls-5" x="526.84" y="314.09" width="24.9" height="24.9"/><rect class="cls-5" x="551.74" y="314.09" width="24.9" height="24.9"/><rect class="cls-5" x="576.65" y="289.18" width="24.9" height="24.9"/><rect class="cls-5" x="576.65" y="314.09" width="24.9" height="24.9"/><rect class="cls-5" x="526.84" y="338.99" width="24.9" height="24.9"/><rect class="cls-5" x="551.74" y="338.99" width="24.9" height="24.9"/><rect class="cls-5" x="526.84" y="363.9" width="24.9" height="24.9"/><rect class="cls-5" x="551.74" y="363.9" width="24.9" height="24.9"/><rect class="cls-5" x="576.65" y="338.99" width="24.9" height="24.9"/><rect class="cls-5" x="576.65" y="363.9" width="24.9" height="24.9"/><rect class="cls-5" x="526.84" y="388.8" width="24.9" height="24.9"/><rect class="cls-5" x="551.74" y="388.8" width="24.9" height="24.9"/><rect class="cls-5" x="526.84" y="413.71" width="24.9" height="24.9"/><rect class="cls-5" x="551.74" y="413.71" width="24.9" height="24.9"/><rect class="cls-5" x="576.65" y="388.8" width="24.9" height="24.9"/><rect class="cls-5" x="576.65" y="413.71" width="24.9" height="24.9"/><rect class="cls-5" x="526.84" y="438.61" width="24.9" height="24.9"/><rect class="cls-5" x="551.74" y="438.61" width="24.9" height="24.9"/><rect class="cls-5" x="526.84" y="463.51" width="24.9" height="24.9"/><rect class="cls-5" x="551.74" y="463.51" width="24.9" height="24.9"/><rect class="cls-5" x="576.65" y="438.61" width="24.9" height="24.9"/><rect class="cls-5" x="576.65" y="463.51" width="24.9" height="24.9"/><rect class="cls-5" x="601.55" y="214.47" width="24.9" height="24.9"/><rect class="cls-5" x="626.45" y="214.47" width="24.9" height="24.9"/><rect class="cls-5" x="651.36" y="214.47" width="24.9" height="24.9"/><rect class="cls-5" x="601.55" y="239.38" width="24.9" height="24.9"/><rect class="cls-5" x="626.45" y="239.38" width="24.9" height="24.9"/><rect class="cls-5" x="601.55" y="264.28" width="24.9" height="24.9"/><rect class="cls-5" x="626.45" y="264.28" width="24.9" height="24.9"/><rect class="cls-5" x="651.36" y="239.38" width="24.9" height="24.9"/><rect class="cls-5" x="651.36" y="264.28" width="24.9" height="24.9"/><rect class="cls-5" x="601.55" y="289.18" width="24.9" height="24.9"/><rect class="cls-5" x="626.45" y="289.18" width="24.9" height="24.9"/><rect class="cls-5" x="601.55" y="314.09" width="24.9" height="24.9"/><rect class="cls-5" x="626.45" y="314.09" width="24.9" height="24.9"/><rect class="cls-5" x="651.36" y="289.18" width="24.9" height="24.9"/><rect class="cls-5" x="651.36" y="314.09" width="24.9" height="24.9"/><rect class="cls-5" x="601.55" y="338.99" width="24.9" height="24.9"/><rect class="cls-5" x="626.45" y="338.99" width="24.9" height="24.9"/><rect class="cls-5" x="601.55" y="363.9" width="24.9" height="24.9"/><rect class="cls-5" x="626.45" y="363.9" width="24.9" height="24.9"/><rect class="cls-5" x="651.36" y="338.99" width="24.9" height="24.9"/><rect class="cls-5" x="651.36" y="363.9" width="24.9" height="24.9"/><rect class="cls-5" x="601.55" y="388.8" width="24.9" height="24.9"/><rect class="cls-5" x="626.45" y="388.8" width="24.9" height="24.9"/><rect class="cls-5" x="601.55" y="413.71" width="24.9" height="24.9"/><rect class="cls-5" x="626.45" y="413.71" width="24.9" height="24.9"/><rect class="cls-5" x="651.36" y="388.8" width="24.9" height="24.9"/><rect class="cls-5" x="651.36" y="413.71" width="24.9" height="24.9"/><rect class="cls-5" x="601.55" y="438.61" width="24.9" height="24.9"/><rect class="cls-5" x="626.45" y="438.61" width="24.9" height="24.9"/><rect class="cls-5" x="601.55" y="463.51" width="24.9" height="24.9"/><rect class="cls-5" x="626.45" y="463.51" width="24.9" height="24.9"/><rect class="cls-5" x="651.36" y="438.61" width="24.9" height="24.9"/><rect class="cls-5" x="651.36" y="463.51" width="24.9" height="24.9"/><rect class="cls-5" x="676.26" y="214.47" width="24.9" height="24.9"/><rect class="cls-5" x="701.17" y="214.47" width="24.9" height="24.9"/><rect class="cls-5" x="726.07" y="214.47" width="24.9" height="24.9"/><rect class="cls-5" x="676.26" y="239.38" width="24.9" height="24.9"/><rect class="cls-5" x="701.17" y="239.38" width="24.9" height="24.9"/><rect class="cls-5" x="676.26" y="264.28" width="24.9" height="24.9"/><rect class="cls-5" x="701.17" y="264.28" width="24.9" height="24.9"/><rect class="cls-5" x="726.07" y="239.38" width="24.9" height="24.9"/><rect class="cls-5" x="726.07" y="264.28" width="24.9" height="24.9"/><rect class="cls-5" x="676.26" y="289.18" width="24.9" height="24.9"/><rect class="cls-5" x="701.17" y="289.18" width="24.9" height="24.9"/><rect class="cls-5" x="676.26" y="314.09" width="24.9" height="24.9"/><rect class="cls-5" x="701.17" y="314.09" width="24.9" height="24.9"/><rect class="cls-5" x="726.07" y="289.18" width="24.9" height="24.9"/><rect class="cls-5" x="726.07" y="314.09" width="24.9" height="24.9"/><rect class="cls-5" x="676.26" y="338.99" width="24.9" height="24.9"/><rect class="cls-5" x="701.17" y="338.99" width="24.9" height="24.9"/><rect class="cls-5" x="676.26" y="363.9" width="24.9" height="24.9"/><rect class="cls-5" x="701.17" y="363.9" width="24.9" height="24.9"/><rect class="cls-5" x="726.07" y="338.99" width="24.9" height="24.9"/><rect class="cls-5" x="726.07" y="363.9" width="24.9" height="24.9"/><rect class="cls-5" x="676.26" y="388.8" width="24.9" height="24.9"/><rect class="cls-5" x="701.17" y="388.8" width="24.9" height="24.9"/><rect class="cls-5" x="676.26" y="413.71" width="24.9" height="24.9"/><rect class="cls-5" x="701.17" y="413.71" width="24.9" height="24.9"/><rect class="cls-5" x="726.07" y="388.8" width="24.9" height="24.9"/><rect class="cls-5" x="726.07" y="413.71" width="24.9" height="24.9"/><rect class="cls-5" x="676.26" y="438.61" width="24.9" height="24.9"/><rect class="cls-5" x="701.17" y="438.61" width="24.9" height="24.9"/><rect class="cls-5" x="676.26" y="463.51" width="24.9" height="24.9"/><rect class="cls-5" x="701.17" y="463.51" width="24.9" height="24.9"/><rect class="cls-5" x="726.07" y="438.61" width="24.9" height="24.9"/><rect class="cls-5" x="726.07" y="463.51" width="24.9" height="24.9"/><rect class="cls-5" x="750.97" y="214.47" width="24.9" height="24.9"/><rect class="cls-5" x="775.88" y="214.47" width="24.9" height="24.9"/><rect class="cls-5" x="800.78" y="214.47" width="24.9" height="24.9"/><rect class="cls-5" x="750.97" y="239.38" width="24.9" height="24.9"/><rect class="cls-5" x="775.88" y="239.38" width="24.9" height="24.9"/><rect class="cls-5" x="750.97" y="264.28" width="24.9" height="24.9"/><rect class="cls-5" x="775.88" y="264.28" width="24.9" height="24.9"/><rect class="cls-5" x="800.78" y="239.38" width="24.9" height="24.9"/><rect class="cls-5" x="800.78" y="264.28" width="24.9" height="24.9"/><rect class="cls-5" x="750.97" y="289.18" width="24.9" height="24.9"/><rect class="cls-5" x="775.88" y="289.18" width="24.9" height="24.9"/><rect class="cls-5" x="750.97" y="314.09" width="24.9" height="24.9"/><rect class="cls-5" x="775.88" y="314.09" width="24.9" height="24.9"/><rect class="cls-5" x="800.78" y="289.18" width="24.9" height="24.9"/><rect class="cls-5" x="800.78" y="314.09" width="24.9" height="24.9"/><rect class="cls-5" x="750.97" y="338.99" width="24.9" height="24.9"/><rect class="cls-5" x="775.88" y="338.99" width="24.9" height="24.9"/><rect class="cls-5" x="750.97" y="363.9" width="24.9" height="24.9"/><rect class="cls-5" x="775.88" y="363.9" width="24.9" height="24.9"/><rect class="cls-5" x="800.78" y="338.99" width="24.9" height="24.9"/><rect class="cls-5" x="800.78" y="363.9" width="24.9" height="24.9"/><rect class="cls-5" x="750.97" y="388.8" width="24.9" height="24.9"/><rect class="cls-5" x="775.88" y="388.8" width="24.9" height="24.9"/><rect class="cls-5" x="750.97" y="413.71" width="24.9" height="24.9"/><rect class="cls-5" x="775.88" y="413.71" width="24.9" height="24.9"/><rect class="cls-5" x="800.78" y="388.8" width="24.9" height="24.9"/><rect class="cls-5" x="800.78" y="413.71" width="24.9" height="24.9"/><rect class="cls-5" x="750.97" y="438.61" width="24.9" height="24.9"/><rect class="cls-5" x="775.88" y="438.61" width="24.9" height="24.9"/><rect class="cls-5" x="750.97" y="463.51" width="24.9" height="24.9"/><rect class="cls-5" x="775.88" y="463.51" width="24.9" height="24.9"/><rect class="cls-5" x="800.78" y="438.61" width="24.9" height="24.9"/><rect class="cls-5" x="800.78" y="463.51" width="24.9" height="24.9"/><rect class="cls-5" x="825.69" y="214.47" width="24.9" height="24.9"/><rect class="cls-5" x="850.59" y="214.47" width="24.9" height="24.9"/><rect class="cls-5" x="875.5" y="214.47" width="24.9" height="24.9"/><rect class="cls-5" x="825.69" y="239.38" width="24.9" height="24.9"/><rect class="cls-5" x="850.59" y="239.38" width="24.9" height="24.9"/><rect class="cls-5" x="825.69" y="264.28" width="24.9" height="24.9"/><rect class="cls-5" x="850.59" y="264.28" width="24.9" height="24.9"/><rect class="cls-5" x="875.5" y="239.38" width="24.9" height="24.9"/><rect class="cls-5" x="875.5" y="264.28" width="24.9" height="24.9"/><rect class="cls-5" x="825.69" y="289.18" width="24.9" height="24.9"/><rect class="cls-5" x="850.59" y="289.18" width="24.9" height="24.9"/><rect class="cls-5" x="825.69" y="314.09" width="24.9" height="24.9"/><rect class="cls-5" x="850.59" y="314.09" width="24.9" height="24.9"/><rect class="cls-5" x="875.5" y="289.18" width="24.9" height="24.9"/><rect class="cls-5" x="875.5" y="314.09" width="24.9" height="24.9"/><rect class="cls-5" x="825.69" y="338.99" width="24.9" height="24.9"/><rect class="cls-5" x="850.59" y="338.99" width="24.9" height="24.9"/><rect class="cls-5" x="825.69" y="363.9" width="24.9" height="24.9"/><rect class="cls-5" x="850.59" y="363.9" width="24.9" height="24.9"/><rect class="cls-5" x="875.5" y="338.99" width="24.9" height="24.9"/><rect class="cls-5" x="875.5" y="363.9" width="24.9" height="24.9"/><rect class="cls-5" x="825.69" y="388.8" width="24.9" height="24.9"/><rect class="cls-5" x="850.59" y="388.8" width="24.9" height="24.9"/><rect class="cls-5" x="825.69" y="413.71" width="24.9" height="24.9"/><rect class="cls-5" x="850.59" y="413.71" width="24.9" height="24.9"/><rect class="cls-5" x="875.5" y="388.8" width="24.9" height="24.9"/><rect class="cls-5" x="875.5" y="413.71" width="24.9" height="24.9"/><rect class="cls-5" x="825.69" y="438.61" width="24.9" height="24.9"/><rect class="cls-5" x="850.59" y="438.61" width="24.9" height="24.9"/><rect class="cls-5" x="825.69" y="463.51" width="24.9" height="24.9"/><rect class="cls-5" x="850.59" y="463.51" width="24.9" height="24.9"/><rect class="cls-5" x="875.5" y="438.61" width="24.9" height="24.9"/><rect class="cls-5" x="875.5" y="463.51" width="24.9" height="24.9"/><rect class="cls-5" x="900.4" y="214.47" width="24.9" height="24.9"/><rect class="cls-5" x="925.3" y="214.47" width="24.9" height="24.9"/><rect class="cls-5" x="950.21" y="214.47" width="24.9" height="24.9"/><rect class="cls-5" x="900.4" y="239.38" width="24.9" height="24.9"/><rect class="cls-5" x="925.3" y="239.38" width="24.9" height="24.9"/><rect class="cls-5" x="900.4" y="264.28" width="24.9" height="24.9"/><rect class="cls-5" x="925.3" y="264.28" width="24.9" height="24.9"/><rect class="cls-5" x="950.21" y="239.38" width="24.9" height="24.9"/><rect class="cls-5" x="950.21" y="264.28" width="24.9" height="24.9"/><rect class="cls-5" x="900.4" y="289.18" width="24.9" height="24.9"/><rect class="cls-5" x="925.3" y="289.18" width="24.9" height="24.9"/><rect class="cls-5" x="900.4" y="314.09" width="24.9" height="24.9"/><rect class="cls-5" x="925.3" y="314.09" width="24.9" height="24.9"/><rect class="cls-5" x="950.21" y="289.18" width="24.9" height="24.9"/><rect class="cls-5" x="950.21" y="314.09" width="24.9" height="24.9"/><rect class="cls-5" x="900.4" y="338.99" width="24.9" height="24.9"/><rect class="cls-5" x="925.3" y="338.99" width="24.9" height="24.9"/><rect class="cls-5" x="900.4" y="363.9" width="24.9" height="24.9"/><rect class="cls-5" x="925.3" y="363.9" width="24.9" height="24.9"/><rect class="cls-5" x="950.21" y="338.99" width="24.9" height="24.9"/><rect class="cls-5" x="950.21" y="363.9" width="24.9" height="24.9"/><rect class="cls-5" x="900.4" y="388.8" width="24.9" height="24.9"/><rect class="cls-5" x="925.3" y="388.8" width="24.9" height="24.9"/><rect class="cls-5" x="900.4" y="413.71" width="24.9" height="24.9"/><rect class="cls-5" x="925.3" y="413.71" width="24.9" height="24.9"/><rect class="cls-5" x="950.21" y="388.8" width="24.9" height="24.9"/><rect class="cls-5" x="950.21" y="413.71" width="24.9" height="24.9"/><rect class="cls-5" x="900.4" y="438.61" width="24.9" height="24.9"/><rect class="cls-5" x="925.3" y="438.61" width="24.9" height="24.9"/><rect class="cls-5" x="900.4" y="463.51" width="24.9" height="24.9"/><rect class="cls-5" x="925.3" y="463.51" width="24.9" height="24.9"/><rect class="cls-5" x="950.21" y="438.61" width="24.9" height="24.9"/><rect class="cls-5" x="950.21" y="463.51" width="24.9" height="24.9"/><rect class="cls-5" x="975.11" y="214.47" width="24.9" height="24.9"/><rect class="cls-5" x="1000.02" y="214.47" width="24.9" height="24.9"/><rect class="cls-5" x="1024.92" y="214.47" width="24.9" height="24.9"/><rect class="cls-5" x="975.11" y="239.38" width="24.9" height="24.9"/><rect class="cls-5" x="1000.02" y="239.38" width="24.9" height="24.9"/><rect class="cls-5" x="975.11" y="264.28" width="24.9" height="24.9"/><rect class="cls-5" x="1000.02" y="264.28" width="24.9" height="24.9"/><rect class="cls-5" x="1024.92" y="239.38" width="24.9" height="24.9"/><rect class="cls-5" x="1024.92" y="264.28" width="24.9" height="24.9"/><rect class="cls-5" x="153.27" y="139.76" width="24.9" height="24.9"/><rect class="cls-5" x="178.18" y="139.76" width="24.9" height="24.9"/><rect class="cls-5" x="203.08" y="139.76" width="24.9" height="24.9"/><rect class="cls-5" x="153.27" y="164.66" width="24.9" height="24.9"/><rect class="cls-5" x="178.18" y="164.66" width="24.9" height="24.9"/><rect class="cls-5" x="153.27" y="189.57" width="24.9" height="24.9"/><rect class="cls-5" x="178.18" y="189.57" width="24.9" height="24.9"/><rect class="cls-5" x="203.08" y="164.66" width="24.9" height="24.9"/><rect class="cls-5" x="203.08" y="189.57" width="24.9" height="24.9"/><rect class="cls-5" x="227.99" y="164.66" width="24.9" height="24.9"/><rect class="cls-5" x="252.89" y="164.66" width="24.9" height="24.9"/><rect class="cls-5" x="227.99" y="189.57" width="24.9" height="24.9"/><rect class="cls-5" x="252.89" y="189.57" width="24.9" height="24.9"/><rect class="cls-5" x="277.8" y="164.66" width="24.9" height="24.9"/><rect class="cls-5" x="277.8" y="189.57" width="24.9" height="24.9"/><rect class="cls-5" x="327.6" y="139.76" width="24.9" height="24.9"/><rect class="cls-5" x="352.51" y="139.76" width="24.9" height="24.9"/><rect class="cls-5" x="302.7" y="164.66" width="24.9" height="24.9"/><rect class="cls-5" x="327.6" y="164.66" width="24.9" height="24.9"/><rect class="cls-5" x="302.7" y="189.57" width="24.9" height="24.9"/><rect class="cls-5" x="327.6" y="189.57" width="24.9" height="24.9"/><rect class="cls-5" x="352.51" y="164.66" width="24.9" height="24.9"/><rect class="cls-5" x="352.51" y="189.57" width="24.9" height="24.9"/><rect class="cls-5" x="377.41" y="139.76" width="24.9" height="24.9"/><rect class="cls-5" x="402.32" y="139.76" width="24.9" height="24.9"/><rect class="cls-5" x="427.22" y="139.76" width="24.9" height="24.9"/><rect class="cls-5" x="377.41" y="164.66" width="24.9" height="24.9"/><rect class="cls-5" x="402.32" y="164.66" width="24.9" height="24.9"/><rect class="cls-5" x="377.41" y="189.57" width="24.9" height="24.9"/><rect class="cls-5" x="402.32" y="189.57" width="24.9" height="24.9"/><rect class="cls-5" x="427.22" y="164.66" width="24.9" height="24.9"/><rect class="cls-5" x="427.22" y="189.57" width="24.9" height="24.9"/><rect class="cls-5" x="452.12" y="139.76" width="24.9" height="24.9"/><rect class="cls-5" x="477.03" y="139.76" width="24.9" height="24.9"/><rect class="cls-5" x="501.93" y="139.76" width="24.9" height="24.9"/><rect class="cls-5" x="452.12" y="164.66" width="24.9" height="24.9"/><rect class="cls-5" x="477.03" y="164.66" width="24.9" height="24.9"/><rect class="cls-5" x="452.12" y="189.57" width="24.9" height="24.9"/><rect class="cls-5" x="477.03" y="189.57" width="24.9" height="24.9"/><rect class="cls-5" x="501.93" y="164.66" width="24.9" height="24.9"/><rect class="cls-5" x="501.93" y="189.57" width="24.9" height="24.9"/><rect class="cls-5" x="526.84" y="139.76" width="24.9" height="24.9"/><rect class="cls-5" x="551.74" y="139.76" width="24.9" height="24.9"/><rect class="cls-5" x="576.65" y="139.76" width="24.9" height="24.9"/><rect class="cls-5" x="526.84" y="164.66" width="24.9" height="24.9"/><rect class="cls-5" x="551.74" y="164.66" width="24.9" height="24.9"/><rect class="cls-5" x="526.84" y="189.57" width="24.9" height="24.9"/><rect class="cls-5" x="551.74" y="189.57" width="24.9" height="24.9"/><rect class="cls-5" x="576.65" y="164.66" width="24.9" height="24.9"/><rect class="cls-5" x="576.65" y="189.57" width="24.9" height="24.9"/><rect class="cls-5" x="601.55" y="139.76" width="24.9" height="24.9"/><rect class="cls-5" x="626.45" y="139.76" width="24.9" height="24.9"/><rect class="cls-5" x="651.36" y="139.76" width="24.9" height="24.9"/><rect class="cls-5" x="601.55" y="164.66" width="24.9" height="24.9"/><rect class="cls-5" x="626.45" y="164.66" width="24.9" height="24.9"/><rect class="cls-5" x="601.55" y="189.57" width="24.9" height="24.9"/><rect class="cls-5" x="626.45" y="189.57" width="24.9" height="24.9"/><rect class="cls-5" x="651.36" y="164.66" width="24.9" height="24.9"/><rect class="cls-5" x="651.36" y="189.57" width="24.9" height="24.9"/><rect class="cls-5" x="676.26" y="139.76" width="24.9" height="24.9"/><rect class="cls-5" x="701.17" y="139.76" width="24.9" height="24.9"/><rect class="cls-5" x="726.07" y="139.76" width="24.9" height="24.9"/><rect class="cls-5" x="676.26" y="164.66" width="24.9" height="24.9"/><rect class="cls-5" x="701.17" y="164.66" width="24.9" height="24.9"/><rect class="cls-5" x="676.26" y="189.57" width="24.9" height="24.9"/><rect class="cls-5" x="701.17" y="189.57" width="24.9" height="24.9"/><rect class="cls-5" x="726.07" y="164.66" width="24.9" height="24.9"/><rect class="cls-5" x="377.41" y="114.86" width="24.9" height="24.9"/><rect class="cls-5" x="402.32" y="114.86" width="24.9" height="24.9"/><rect class="cls-5" x="477.03" y="89.95" width="24.9" height="24.9"/><rect class="cls-5" x="501.93" y="89.95" width="24.9" height="24.9"/><rect class="cls-5" x="477.03" y="114.86" width="24.9" height="24.9"/><rect class="cls-5" x="501.93" y="114.86" width="24.9" height="24.9"/><rect class="cls-5" x="526.84" y="89.95" width="24.9" height="24.9"/><rect class="cls-5" x="526.84" y="114.86" width="24.9" height="24.9"/><rect class="cls-5" x="551.74" y="114.86" width="24.9" height="24.9"/><rect class="cls-5" x="576.65" y="114.86" width="24.9" height="24.9"/><rect class="cls-5" x="676.26" y="114.86" width="24.9" height="24.9"/><rect class="cls-5" x="701.17" y="114.86" width="24.9" height="24.9"/><rect class="cls-5" x="726.07" y="114.86" width="24.9" height="24.9"/><rect class="cls-5" x="750.97" y="164.66" width="24.9" height="24.9"/><rect class="cls-5" x="775.88" y="164.66" width="24.9" height="24.9"/><rect class="cls-5" x="800.78" y="164.66" width="24.9" height="24.9"/><rect class="cls-5" x="825.69" y="164.66" width="24.9" height="24.9"/><rect class="cls-5" x="750.97" y="139.76" width="24.9" height="24.9"/><rect class="cls-5" x="775.88" y="139.76" width="24.9" height="24.9"/><rect class="cls-5" x="800.78" y="139.76" width="24.9" height="24.9"/><rect class="cls-5" x="825.69" y="139.76" width="24.9" height="24.9"/><rect class="cls-5" x="726.07" y="189.57" width="24.9" height="24.9"/><rect class="cls-5" x="750.97" y="189.57" width="24.9" height="24.9"/><rect class="cls-5" x="775.88" y="189.57" width="24.9" height="24.9"/><rect class="cls-5" x="800.78" y="189.57" width="24.9" height="24.9"/><rect class="cls-5" x="875.5" y="139.76" width="24.9" height="24.9"/><rect class="cls-5" x="825.69" y="189.57" width="24.9" height="24.9"/><rect class="cls-5" x="850.59" y="189.57" width="24.9" height="24.9"/><rect class="cls-5" x="875.5" y="164.66" width="24.9" height="24.9"/><rect class="cls-5" x="875.5" y="189.57" width="24.9" height="24.9"/><rect class="cls-5" x="900.4" y="139.76" width="24.9" height="24.9"/><rect class="cls-5" x="900.4" y="164.66" width="24.9" height="24.9"/><rect class="cls-5" x="925.3" y="164.66" width="24.9" height="24.9"/><rect class="cls-5" x="900.4" y="189.57" width="24.9" height="24.9"/><rect class="cls-5" x="925.3" y="189.57" width="24.9" height="24.9"/><rect class="cls-5" x="950.21" y="164.66" width="24.9" height="24.9"/><rect class="cls-5" x="950.21" y="189.57" width="24.9" height="24.9"/><rect class="cls-5" x="975.11" y="139.76" width="24.9" height="24.9"/><rect class="cls-5" x="1000.02" y="139.76" width="24.9" height="24.9"/><rect class="cls-5" x="1024.92" y="139.76" width="24.9" height="24.9"/><rect class="cls-5" x="975.11" y="164.66" width="24.9" height="24.9"/><rect class="cls-5" x="1000.02" y="164.66" width="24.9" height="24.9"/><rect class="cls-5" x="975.11" y="189.57" width="24.9" height="24.9"/><rect class="cls-5" x="1000.02" y="189.57" width="24.9" height="24.9"/><rect class="cls-5" x="1024.92" y="164.66" width="24.9" height="24.9"/><rect class="cls-5" x="1024.92" y="89.52" width="24.9" height="24.9"/><rect class="cls-5" x="1000.02" y="114.43" width="24.9" height="24.9"/><rect class="cls-5" x="1024.92" y="114.43" width="24.9" height="24.9"/><rect class="cls-5" x="1024.92" y="189.57" width="24.9" height="24.9"/><rect class="cls-5" x="975.11" y="289.18" width="24.9" height="24.9"/><rect class="cls-5" x="1000.02" y="289.18" width="24.9" height="24.9"/><rect class="cls-5" x="975.11" y="314.09" width="24.9" height="24.9"/><rect class="cls-5" x="1000.02" y="314.09" width="24.9" height="24.9"/><rect class="cls-5" x="1024.92" y="289.18" width="24.9" height="24.9"/><rect class="cls-5" x="1024.92" y="314.09" width="24.9" height="24.9"/><rect class="cls-5" x="975.11" y="338.99" width="24.9" height="24.9"/><rect class="cls-5" x="1000.02" y="338.99" width="24.9" height="24.9"/><rect class="cls-5" x="975.11" y="363.9" width="24.9" height="24.9"/><rect class="cls-5" x="1000.02" y="363.9" width="24.9" height="24.9"/><rect class="cls-5" x="1024.92" y="338.99" width="24.9" height="24.9"/><rect class="cls-5" x="1024.92" y="363.9" width="24.9" height="24.9"/><rect class="cls-5" x="975.11" y="388.8" width="24.9" height="24.9"/><rect class="cls-5" x="1000.02" y="388.8" width="24.9" height="24.9"/><rect class="cls-5" x="975.11" y="413.71" width="24.9" height="24.9"/><rect class="cls-5" x="1000.02" y="413.71" width="24.9" height="24.9"/><rect class="cls-5" x="1024.92" y="388.8" width="24.9" height="24.9"/><rect class="cls-5" x="1024.92" y="413.71" width="24.9" height="24.9"/><rect class="cls-5" x="975.11" y="438.61" width="24.9" height="24.9"/><rect class="cls-5" x="1000.02" y="438.61" width="24.9" height="24.9"/><rect class="cls-5" x="975.11" y="463.51" width="24.9" height="24.9"/><rect class="cls-5" x="1000.02" y="463.51" width="24.9" height="24.9"/><rect class="cls-5" x="1024.92" y="438.61" width="24.9" height="24.9"/><rect class="cls-5" x="1024.92" y="463.51" width="24.9" height="24.9"/></g><rect class="cls-6" x="637.9" y="172.53" width="362.14" height="272.66" rx="15.2" transform="translate(-56.28 315.49) rotate(-21.1)"/><rect class="cls-7" x="662.83" y="253.17" width="18.91" height="224.57" rx="9.19" transform="translate(-86.48 266.49) rotate(-21.1)"/><rect class="cls-7" x="634.64" y="247.68" width="18.91" height="36.87" rx="9.46" transform="translate(660.53 -430.6) rotate(68.9)"/><rect class="cls-7" x="646.98" y="279.65" width="18.91" height="36.87" rx="9.46" transform="translate(698.26 -421.64) rotate(68.9)"/><rect class="cls-7" x="659.32" y="311.63" width="18.91" height="36.87" rx="9.46" transform="translate(735.99 -412.68) rotate(68.9)"/><rect class="cls-7" x="671.65" y="343.61" width="18.91" height="36.87" rx="9.46" transform="translate(773.73 -403.73) rotate(68.9)"/><rect class="cls-7" x="683.99" y="375.59" width="18.91" height="36.87" rx="9.46" transform="translate(811.46 -394.77) rotate(68.9)"/><rect class="cls-7" x="696.33" y="407.57" width="18.91" height="36.87" rx="9.46" transform="translate(849.19 -385.81) rotate(68.9)"/><rect class="cls-7" x="708.67" y="439.55" width="18.91" height="36.87" rx="9.46" transform="translate(886.92 -376.86) rotate(68.9)"/><rect class="cls-8" x="928.33" y="338.86" width="78.89" height="12.23" rx="6.12" transform="translate(-59.3 371.48) rotate(-21.1)"/><rect class="cls-8" x="935.9" y="360.6" width="56.15" height="12.23" rx="5.16" transform="translate(-67.38 371.56) rotate(-21.1)"/><path class="cls-9" d="M939.75,330.11a37.68,37.68,0,0,1-43.65-12.57L798.91,355a37.59,37.59,0,1,1-72.26-10.56,37.59,37.59,0,1,1,47.5-54.86l96.36-37.17a37.59,37.59,0,1,1,72,8.73,37.59,37.59,0,0,1-2.8,68.93Z"/><path class="cls-7" d="M848.16,315.61c0-2.22-.18-4.49-2-6a77.25,77.25,0,0,0-6.57-4.45l-7.32-4.84-7.08-4.69c-2.22-1.46-4.56-2.85-5.88-5.24a13.1,13.1,0,0,1-1.31-5.93l-49.39,19.06c-.23-.83-.5-1.66-.82-2.49a26.59,26.59,0,1,0-21.93,36A26.6,26.6,0,1,0,786.3,349c-.1-.26-.22-.52-.32-.78l61.86-23.86,0-.83C848,320.91,848.18,318.25,848.16,315.61Z"/><path class="cls-7" d="M923.33,268.6a26.6,26.6,0,1,0-40.43-12c.32.83.67,1.62,1.06,2.4L824.52,282l0,1a13.55,13.55,0,0,0,.31,3.77A4.71,4.71,0,0,0,827,289c4.74,3.29,9.63,6.38,14.44,9.56,2.41,1.6,4.83,3.17,7.23,4.79a12.52,12.52,0,0,1,5.2,6.11c1,2.81.91,5.75.8,8.68l-.15,3.72,46.62-18c.1.26.18.53.29.79a26.59,26.59,0,1,0,21.92-36Z"/><g class="cls-10"><path class="cls-7" d="M761.61,301.05c.32.83.59,1.66.82,2.49l5.49-2.12c0-.12-.08-.25-.13-.37a26.6,26.6,0,0,0-27.93-16.84A26.6,26.6,0,0,1,761.61,301.05Z"/><path class="cls-7" d="M846.16,309.63a77.25,77.25,0,0,0-6.57-4.45l-7.32-4.84-7.08-4.69c-2.22-1.46-4.56-2.85-5.88-5.24a13.1,13.1,0,0,1-1.31-5.93l-6,2.32a10.47,10.47,0,0,0,1.13,3.61c1.32,2.39,3.66,3.78,5.87,5.24l7.09,4.69,7.32,4.84c2.18,1.45,4.53,2.78,6.57,4.45,1.82,1.49,2,3.76,2,6,0,2.64-.18,5.3-.29,7.94l0,.83-61.87,23.86.33.78a26.61,26.61,0,0,1-15.24,34.39,26.9,26.9,0,0,1-6.46,1.6,26.59,26.59,0,0,0,27.88-36c-.1-.26-.22-.52-.32-.78l61.86-23.86,0-.83c.11-2.64.31-5.3.29-7.94C848.14,313.39,848,311.12,846.16,309.63Z"/><path class="cls-7" d="M900.3,301.75l-45.7,17.64c0,.8-.07,1.61-.1,2.42l46.61-18c-.18-.42-.36-.85-.53-1.28C900.48,302.28,900.39,302,900.3,301.75Z"/><path class="cls-7" d="M951,285.46a26.59,26.59,0,0,0-27.7-16.86,26.6,26.6,0,0,0-18.73-48,26.6,26.6,0,0,1,12.55,48,26.59,26.59,0,0,1,12.46,51.25,26.33,26.33,0,0,1-6.46,1.6,26.59,26.59,0,0,0,27.88-36Z"/></g><path class="cls-11" d="M1031.5,356.69l-87.2-226a15.19,15.19,0,0,0-12.16-9.58,15.28,15.28,0,0,1,1.86,3.4l87.2,226a15.25,15.25,0,0,1-8.71,19.66L703,489.57a15,15,0,0,1-7.49.87,15.25,15.25,0,0,0,17.79,5.32l309.5-119.41A15.25,15.25,0,0,0,1031.5,356.69Z"/><rect class="cls-12" x="171.57" y="197.24" width="107.3" height="314.4" transform="translate(-184.66 263.07) rotate(-45)"/><polygon class="cls-13" points="301.07 483.57 96.09 278.58 149.37 225.3 354.36 430.29 301.07 483.57"/><path class="cls-14" d="M127,252.35l6.94,2.3-.4-1.53-5.48,7a.92.92,0,0,0,.89,1.53c4-.95,5.77,4.73,7.76,7.06,1.27,1.48,2.87,1.85,4.44,2.87s2.14,3,3.33,4.3c3.88,4.34,11.46,4,15.21-.33a.92.92,0,0,0-1.3-1.3l-13,12c-.88.82.4,2,1.3,1.3,2.95-2.37,7.49.05,10.49,1.12,3.18,1.14,7,2.15,9.64-.69l-1.3-1.3-4,4.8a1,1,0,0,0-.14,1.12,53.19,53.19,0,0,0,22.59,18l-.55-1.35a7.43,7.43,0,0,0-.56,5.64.93.93,0,0,0,1.13.64,34.24,34.24,0,0,1,11.29-2.44l-.46-1.72a53.8,53.8,0,0,0-12.72,13.09c-.61.88.7,1.81,1.44,1.11,2.73-2.59,7-1.36,10.27-.8,3.44.58,7,1,10-1.35l-1.3-1.29a7.34,7.34,0,0,0-2.15,6.76c.46,2.91,2.44,5.29,4.42,7.36,4.31,4.5,8.88,9.14,14.67,11.71l-.46-.8a5.24,5.24,0,0,0,4,4.7c2.87.82,5.8-.55,8.34-1.76l-1.11-1.44-12.45,11.73a.93.93,0,0,0,.18,1.44c1.78,1,3.64.61,5.51.11a13.52,13.52,0,0,1,3.2-.62,9.59,9.59,0,0,1,3.68.87c3.32,1.31,7.62,3.18,10.56,0l-1.53-.89a9.07,9.07,0,0,1-2.86,4.49.94.94,0,0,0,0,1.3c4.67,5.55,9.22,11.23,14,16.67A6.27,6.27,0,0,0,257,386.1c2.43-.54,5-2.39,7.55-1.51l-.41-1.53L252.84,394c-.87.84.39,2,1.3,1.3,2.78-2.24,6.41-1.29,9.52-.36,3.3,1,6.62,2.2,10.12,2a.92.92,0,0,0,0-1.83c-2.74-.3-4.64,2.68-4.29,5.16.5,3.52,4.08,6.24,6.38,8.65,2.75,2.87,5.41,5.86,8.29,8.6,2.28,2.17,5,4.14,8.2,4.47a8.12,8.12,0,0,0,8-3.67.92.92,0,0,0-1.45-1.11L288.56,428c-.82.85.47,2.14,1.3,1.3,2.79-2.86,7.19-.52,10,1.08,3.24,1.84,7.17,3.65,10.73,1.59l-1.11-1.45a6.17,6.17,0,0,0-1.75,6.05c.59,2.69,2.73,4.68,4.77,6.36,5.35,4.41,10.75,8.75,16.13,13.12.9.74,2.21-.55,1.29-1.3L316,443.39c-2-1.62-4.31-3.19-5.68-5.4-1.19-1.94-1.38-4.6.47-6.2.8-.69-.23-2-1.11-1.44-4,2.32-8.25-1.59-11.79-3.11-3-1.3-6.79-1.86-9.32.73l1.3,1.3,10.32-10.81-1.44-1.11c-1.49,2.6-4.86,3.3-7.59,2.51-3.42-1-5.95-3.88-8.33-6.37l-8.56-9c-1.19-1.24-2.62-2.62-2.94-4.39-.26-1.52.74-3.42,2.46-3.24v-1.83c-6.87.36-14.66-6.16-20.94-1.12l1.3,1.3,11.25-10.89a.93.93,0,0,0-.4-1.54c-2.31-.8-4.57.2-6.74,1a7.59,7.59,0,0,1-3.54.65c-1.48-.23-2.48-1.47-3.39-2.54-4.53-5.35-9-10.73-13.53-16.09v1.3a10.88,10.88,0,0,0,3.33-5.3.92.92,0,0,0-1.53-.9c-2.73,2.92-7.07,0-10-.94a9.62,9.62,0,0,0-5.32-.15c-1.71.41-3.73,1.34-5.42.42l.19,1.45L231.5,350c.8-.76-.21-1.87-1.11-1.44-1.9.89-4,2-6.22,1.71-1.63-.19-3.32-1.3-3.4-3.07a.91.91,0,0,0-.46-.79c-5-2.24-9-6.05-12.82-9.92-1.85-1.87-3.88-3.77-4.91-6.25a5.93,5.93,0,0,1,1.17-6.78c.9-.79-.4-2-1.3-1.29-2.95,2.32-7.27,1-10.59.44s-7-.82-9.64,1.7l1.44,1.12A51.59,51.59,0,0,1,195.72,313c.68-.49.53-1.75-.46-1.71a35.83,35.83,0,0,0-11.78,2.51l1.13.64a5.6,5.6,0,0,1,.37-4.23.93.93,0,0,0-.55-1.35A50.79,50.79,0,0,1,163,291.67l-.15,1.11,4-4.8c.75-.89-.49-2.18-1.3-1.3-2.59,2.82-7,.52-9.91-.53-3.35-1.22-7.15-2.36-10.22.1l1.3,1.3,13-12-1.3-1.3a8.7,8.7,0,0,1-7.84,2.78,8.1,8.1,0,0,1-4-1.71c-1.25-1-1.86-2.53-2.83-3.79-1.15-1.5-2.67-1.86-4.2-2.8s-2.44-2.62-3.36-4.14c-1.64-2.71-4.18-5.55-7.69-4.71l.9,1.54,5.48-7a.94.94,0,0,0-.41-1.54l-6.94-2.3c-1.13-.37-1.61,1.4-.49,1.77Z"/><rect class="cls-12" x="209.79" y="134.31" width="107.3" height="314.4" transform="translate(-58.1 65.7) rotate(-12.82)"/><polygon class="cls-13" points="258.85 441.2 194.55 158.52 268.02 141.81 332.33 424.48 258.85 441.2"/><path class="cls-14" d="M234.74,152.83l4.65,5.65.41-1.54-8.35,3a.93.93,0,0,0,0,1.78c3.69,1.24,2.42,6.67,2.72,9.54.21,2,1.13,3.23,2.07,4.93s.42,3.86.75,5.83c1,5.78,7.61,9.44,13.09,7.81a.92.92,0,0,0-.49-1.77l-17.42,3.26c-1,.19-.79,1.92.25,1.8,3.9-.44,6.36,3.82,8.44,6.46s4.82,5.63,8.6,4.6l-.49-1.77-6,1.91a.93.93,0,0,0-.67.89,53.08,53.08,0,0,0,9.41,27.08l.33-1.26a7.44,7.44,0,0,0-3.44,4.48.92.92,0,0,0,.64,1.13,34.48,34.48,0,0,1,10.86,3.95l.46-1.71a54.35,54.35,0,0,0-17.74,4.32c-1,.44-.25,1.87.71,1.68,3.64-.72,6.58,2.56,9,4.74s5.41,4.63,9,4.25l-.25-1.8a7.27,7.27,0,0,0-5.32,4.45c-1.25,2.83-.8,6-.19,8.93,1.27,6.06,2.66,12.31,6.15,17.53V282a5.32,5.32,0,0,0,1.13,6.31c2,2.06,5.11,2.42,7.83,2.75l-.24-1.8-16.79,3.29a.92.92,0,0,0-.55,1.35c.91,1.61,2.51,2.32,4.2,2.87,2.08.67,3.85,1.25,5.32,3,2.55,3,4.89,7.84,9.72,6.63l-.89-1.54a9.11,9.11,0,0,1-4.82,2.26c-.54.08-.71.68-.64,1.13l1.59,11.51c.5,3.62.73,7.41,1.57,11a6.09,6.09,0,0,0,4.52,4.61c2.26.69,5.14.63,6.73,2.62l.4-1.54-15.33,3.22c-1,.21-.79,1.93.25,1.81,3.61-.42,6.13,2.11,8.34,4.61s4.51,5.5,7.63,7.24c.87.49,2-.77,1.11-1.44-3-2.35-6.59.5-7,3.73-.3,2.26.39,4.6.84,6.8l1.67,8.2c.88,4.33,1.47,9.28,4.57,12.7,2.47,2.72,6.57,4,9.93,2.21a.92.92,0,0,0-.71-1.68l-14.49,3.64a.92.92,0,0,0,.49,1.77c4.41-1,6.75,4.41,8.5,7.44s4,5.75,7.61,5.88l-.24-1.81a6.13,6.13,0,0,0-4.65,4.17c-1,2.81-.06,5.85.84,8.55,2.14,6.38,4.31,12.75,6.46,19.12.38,1.11,2.16.63,1.78-.49l-5.42-16c-.86-2.56-2.1-5.28-2.25-8-.13-2.49,1.06-5.12,3.73-5.54,1.06-.17.75-1.78-.25-1.81-4.24-.15-5.87-5.05-7.74-8.08s-4.95-6.08-8.86-5.17l.49,1.77,14.49-3.64-.71-1.68c-2.87,1.51-6.34-.07-8.16-2.49-2.08-2.77-2.63-6.37-3.3-9.68-.78-3.83-1.57-7.65-2.34-11.48-.36-1.74-.9-3.77-.21-5.51.5-1.24,2.35-2.61,3.65-1.59l1.11-1.44c-5.83-3.26-9.11-13-16.89-12.11l.24,1.8,15.33-3.22a.93.93,0,0,0,.41-1.53c-1.4-1.75-3.62-2.19-5.7-2.64A10.67,10.67,0,0,1,273,333a4.68,4.68,0,0,1-2-3.55c-1.21-7.18-2-14.45-3-21.66l-.64,1.13a10.84,10.84,0,0,0,5.63-2.73.93.93,0,0,0-.9-1.54c-4.3,1.09-6.3-4.76-8.81-7.08a10.44,10.44,0,0,0-4.17-2.21c-1.54-.48-3.33-.85-4.18-2.36l-.55,1.35,16.79-3.29c1.1-.22.7-1.69-.25-1.81-2-.23-4.13-.47-5.81-1.61-1.48-1-2.51-3-1.56-4.68a.94.94,0,0,0,0-.93c-2.95-4.41-4.29-9.52-5.43-14.64-1-4.35-2.73-12.49,3.69-13.57,1-.17.79-1.92-.24-1.81-3.86.41-6.72-2.85-9.35-5.18s-5.51-4.47-9.16-3.74l.71,1.68a51.37,51.37,0,0,1,16.81-4.07.93.93,0,0,0,.47-1.71,35.75,35.75,0,0,0-11.3-4.14l.64,1.13a5.53,5.53,0,0,1,2.6-3.38.93.93,0,0,0,.33-1.26,51.2,51.2,0,0,1-9.17-26.15l-.67.88,6-1.91a.92.92,0,0,0-.49-1.77c-3.62,1-6.15-3.28-8-5.68-2.09-2.7-4.73-5.87-8.53-5.44l.24,1.8,17.42-3.26-.49-1.77a8.73,8.73,0,0,1-8.42-2.15,8,8,0,0,1-2.26-3.68c-.46-1.78,0-3.66-.43-5.44s-2-3-2.35-4.84-.07-3.77-.19-5.65c-.17-2.69-1.27-5.44-4-6.36v1.78l8.34-3a.94.94,0,0,0,.41-1.54L236,151.53c-.75-.91-2,.4-1.3,1.3Z"/><path class="cls-15" d="M404.58,108.34A21.42,21.42,0,1,0,426,129.75,21.42,21.42,0,0,0,404.58,108.34Zm0,30.58a9.17,9.17,0,1,1,9.17-9.17A9.17,9.17,0,0,1,404.58,138.92Z"/><g class="cls-16"><path class="cls-17" d="M404.58,108.34a22,22,0,0,0-3.06.24,21.39,21.39,0,0,1,0,42.34,20.6,20.6,0,0,0,3.06.25,21.42,21.42,0,1,0,0-42.83Z"/></g><rect class="cls-15" x="342" y="129.75" width="125.17" height="34.72" rx="6.79"/><path class="cls-18" d="M460.37,129.75h-40.5s2.2,10.94,15.85,10.94h0a11.17,11.17,0,0,0,1.29.08h13.56a4.66,4.66,0,0,1,4.66,4.66,6.81,6.81,0,0,1-6.79,6.8H342v5.45a6.82,6.82,0,0,0,6.79,6.8H460.37a6.82,6.82,0,0,0,6.8-6.8V136.55A6.82,6.82,0,0,0,460.37,129.75Z"/><rect class="cls-19" x="259.79" y="152.23" width="289.6" height="346.89" rx="14.7"/><rect class="cls-20" x="267.89" y="217.62" width="273.39" height="216.1" rx="14.7" transform="translate(730.26 -78.91) rotate(90)"/><line class="cls-21" x1="363.73" y1="224.8" x2="484.1" y2="224.8"/><line class="cls-21" x1="363.73" y1="276.19" x2="484.1" y2="276.19"/><line class="cls-21" x1="363.73" y1="327.58" x2="484.1" y2="327.58"/><line class="cls-21" x1="313.24" y1="378.97" x2="484.1" y2="378.97"/><path class="cls-22" d="M454.39,156.28H530a14.7,14.7,0,0,1,14.7,14.7V485"/><circle class="cls-23" cx="328.55" cy="224.8" r="15.31"/><circle class="cls-23" cx="328.55" cy="276.19" r="15.31"/><circle class="cls-23" cx="328.55" cy="327.58" r="15.31"/><rect class="cls-24" x="454.39" y="182.74" width="275.78" height="224.78" rx="5.64"/><path class="cls-25" d="M724.54,182.74h-63V187a4.29,4.29,0,0,0,4.29,4.29h45.84a6.25,6.25,0,0,1,6.26,6.25V389.63a5.66,5.66,0,0,1-5.64,5.64H454.39v6.61a5.66,5.66,0,0,0,5.64,5.64H724.54a5.66,5.66,0,0,0,5.64-5.64V188.38A5.66,5.66,0,0,0,724.54,182.74Z"/><path class="cls-26" d="M767.45,265.21a19.56,19.56,0,0,0-19.5-19.5H654.31a19.56,19.56,0,0,0-19.51,19.5h0A4.8,4.8,0,0,1,630,270H436.24a19.56,19.56,0,0,0-19.5,19.51V485.65a13.58,13.58,0,0,0,13.54,13.54H748a19.56,19.56,0,0,0,19.5-19.5v-195a13.68,13.68,0,0,0-.13-1.82,5.78,5.78,0,0,1,0-1.44,13.83,13.83,0,0,0,.13-1.83Z"/><path class="cls-27" d="M767.45,264.15c0-8.08-9.45-18.52-17.54-18.52l-32,.08v4.19a3,3,0,0,0,3,3h24.66a7.17,7.17,0,0,1,7.16,7.16v6.17A3.77,3.77,0,0,1,749,270H675a3,3,0,0,0-3,3h0a3,3,0,0,0,3,3h69.1a8.68,8.68,0,0,1,8.68,8.68v182A17.76,17.76,0,0,1,735,484.42H420.15a3,3,0,0,0-2.93,3.72,14.75,14.75,0,0,0,14.22,11h318.3a17.76,17.76,0,0,0,17.71-17.71V284.64a14.62,14.62,0,0,0-.16-2.1,2.66,2.66,0,0,1,0-.89,14.62,14.62,0,0,0,.16-2.1Z"/><path class="cls-28" d="M363.73,134.25h-9.84a7.06,7.06,0,0,0-7.06,7.06v7.76"/><polygon class="cls-29" points="497.32 426.3 475.44 426.3 475.44 404.42 453.56 404.42 453.56 426.3 431.68 426.3 431.68 448.19 453.56 448.19 453.56 470.07 475.44 470.07 475.44 448.19 497.32 448.19 497.32 426.3"/><rect class="cls-30" x="470.54" y="404.42" width="4.9" height="21.88"/><rect class="cls-30" x="431.68" y="443.28" width="21.88" height="4.9"/><polygon class="cls-30" points="492.43 426.3 492.43 443.29 470.54 443.29 470.54 465.17 453.56 465.17 453.56 470.07 475.44 470.07 475.44 448.19 497.32 448.19 497.32 426.3 492.43 426.3"/><rect class="cls-31" x="433.01" y="289.46" width="12.25" height="90.56" rx="4.44"/><rect class="cls-31" x="455.03" y="405.89" width="3.64" height="20.42" rx="1.57"/><rect class="cls-31" x="433.32" y="428.05" width="3.64" height="12.63" rx="1.82"/><rect class="cls-31" x="466.87" y="190.68" width="12.25" height="68.92" rx="5.02"/><rect class="cls-32" x="874.99" y="109.8" width="12.25" height="92.95" rx="5.89" transform="translate(709.76 -722.03) rotate(68.9)"/><rect class="cls-31" x="639.46" y="254.39" width="5.14" height="14.41" rx="2.19"/><rect class="cls-31" x="296.53" y="211.93" width="12.25" height="68.92" rx="5.02"/><rect class="cls-33" x="267.82" y="165.14" width="12.25" height="118.83" rx="6.12"/><path class="cls-34" d="M241.17,309.29h19a15.95,15.95,0,0,1,15.95,15.95v8.46a0,0,0,0,1,0,0H225.22a0,0,0,0,1,0,0v-8.46A15.95,15.95,0,0,1,241.17,309.29Z"/><path class="cls-35" d="M276.15,322.61c0-7.36-8.55-13.32-19.09-13.32H244.32c-6,0-11.4,1.95-14.9,5a24.6,24.6,0,0,1,11.93-2.93h12.74c10.55,0,19.1,6,19.1,13.32v9h3Z"/><path class="cls-36" d="M237.36,324.79H264a12.14,12.14,0,0,1,12.14,12.14v140a23.51,23.51,0,0,1-23.51,23.51h-3.91a23.51,23.51,0,0,1-23.51-23.51v-140A12.14,12.14,0,0,1,237.36,324.79Z"/><path class="cls-14" d="M180.05,405.2H307.64a13.68,13.68,0,0,1,13.68,13.68v4.69a13.68,13.68,0,0,1-13.68,13.68H200.58a20.52,20.52,0,0,1-20.52-20.52V405.2A0,0,0,0,1,180.05,405.2Z" transform="translate(671.91 170.54) rotate(90)"/><path class="cls-37" d="M173.61,391.83H316.29a17.54,17.54,0,0,1,17.54,17.54V413a17.54,17.54,0,0,1-17.54,17.54H173.61a6.07,6.07,0,0,1-6.07-6.07V397.89a6.07,6.07,0,0,1,6.07-6.07Z" transform="translate(661.85 160.48) rotate(90)"/><rect class="cls-36" x="215.27" y="324.79" width="70.84" height="12.27" rx="6.13"/><line class="cls-38" x1="225.22" y1="338.92" x2="276.15" y2="338.92"/><rect class="cls-39" x="230.17" y="343.62" width="10.42" height="56.6" rx="4.46"/><rect class="cls-40" x="254.59" y="376.44" width="17.69" height="89.57"/><rect class="cls-41" x="254.59" y="376.44" width="17.69" height="6.63"/><polygon class="cls-42" points="269.83 376.44 269.83 463.56 254.59 463.56 254.59 466.01 272.28 466.01 272.28 376.44 269.83 376.44"/><path class="cls-34" d="M420.11,462.76h19a15.95,15.95,0,0,1,15.95,15.95v8.46a0,0,0,0,1,0,0H404.16a0,0,0,0,1,0,0v-8.46A15.95,15.95,0,0,1,420.11,462.76Z" transform="translate(904.59 45.34) rotate(90)"/><path class="cls-35" d="M428.51,500.43c7.35,0,13.32-8.55,13.32-19.09V468.6c0-6-2-11.4-5-14.9a24.6,24.6,0,0,1,2.93,11.93v12.75c0,10.54-6,19.09-13.32,19.09h-9v3Z"/><path class="cls-36" d="M325.18,387.14h26.65A12.14,12.14,0,0,1,364,399.28v140a23.51,23.51,0,0,1-23.51,23.51h-3.91A23.51,23.51,0,0,1,313,539.28v-140a12.14,12.14,0,0,1,12.14-12.14Z" transform="translate(813.48 136.46) rotate(90)"/><path class="cls-14" d="M259.26,458.94H386.85a13.68,13.68,0,0,1,13.68,13.68v4.69A13.68,13.68,0,0,1,386.85,491H279.79a20.52,20.52,0,0,1-20.52-20.52V458.94A0,0,0,0,1,259.26,458.94Z" transform="translate(659.79 949.93) rotate(180)"/><path class="cls-37" d="M262.88,455.63H405.55a17.54,17.54,0,0,1,17.54,17.54v3.6a17.54,17.54,0,0,1-17.54,17.54H262.88a6.07,6.07,0,0,1-6.07-6.07V461.69A6.07,6.07,0,0,1,262.88,455.63Z" transform="translate(679.9 949.93) rotate(-180)"/><rect class="cls-36" x="384.78" y="468.83" width="70.84" height="12.27" rx="6.13" transform="translate(895.16 54.77) rotate(90)"/><line class="cls-38" x1="412.2" y1="449.5" x2="412.2" y2="500.43"/><rect class="cls-39" x="373.99" y="431.36" width="10.42" height="56.6" rx="4.46" transform="translate(838.85 80.46) rotate(90)"/><rect class="cls-40" x="321.05" y="442.93" width="17.69" height="89.57" transform="translate(817.62 157.82) rotate(90)"/><rect class="cls-41" x="362.52" y="484.4" width="17.69" height="6.63" transform="translate(859.08 116.35) rotate(90)"/><polygon class="cls-42" points="374.68 494.11 287.56 494.11 287.56 478.87 285.11 478.87 285.11 496.56 374.68 496.56 374.68 494.11"/><rect class="cls-36" x="155.96" y="381.3" width="81" height="120.68" rx="12.36"/><rect class="cls-37" x="141.27" y="406.29" width="110.37" height="70.7" rx="7.21" transform="translate(638.1 245.18) rotate(90)"/><rect class="cls-43" x="147.48" y="379.39" width="97.95" height="18.86" rx="9.43"/><line class="cls-38" x1="155.96" y1="400.12" x2="236.96" y2="400.12"/><rect class="cls-40" x="215.54" y="418.44" width="21.42" height="66.15"/><rect class="cls-41" x="215.54" y="418.44" width="21.42" height="14.66"/><polygon class="cls-42" points="234.46 418.44 234.46 480.47 215.54 480.47 215.54 484.59 236.96 484.59 236.96 418.44 234.46 418.44"/><path class="cls-44" d="M241.54,381.21a9.33,9.33,0,0,1,1.83,5.55h0a9.46,9.46,0,0,1-9.43,9.43H154.86a9.37,9.37,0,0,1-5.55-1.83,9.43,9.43,0,0,0,7.61,3.89H236a9.46,9.46,0,0,0,9.43-9.43h0A9.43,9.43,0,0,0,241.54,381.21Z"/><rect class="cls-39" x="160.34" y="404.05" width="10.42" height="56.6" rx="4.46"/><polyline class="cls-45" points="64.02 197.36 64.02 54.44 250.69 54.44"/><rect class="cls-45" x="64.02" y="32.1" width="13.96" height="13.96"/><rect class="cls-45" x="86.78" y="32.1" width="13.96" height="13.96"/><rect class="cls-45" x="109.55" y="32.1" width="13.96" height="13.96"/><polyline class="cls-45" points="1056.8 325.67 1056.8 509.77 864.01 509.77"/><rect class="cls-45" x="1042.85" y="518.15" width="13.96" height="13.96" transform="translate(2099.65 1050.25) rotate(180)"/><rect class="cls-45" x="1020.08" y="518.15" width="13.96" height="13.96" transform="translate(2054.12 1050.25) rotate(180)"/><rect class="cls-45" x="997.31" y="518.15" width="13.96" height="13.96" transform="translate(2008.58 1050.25) rotate(180)"/></g></g></svg>