<svg xmlns="http://www.w3.org/2000/svg" xmlns:xlink="http://www.w3.org/1999/xlink" viewBox="0 0 1111.18 643.85"><defs><style>.cls-1,.cls-22,.cls-23,.cls-29,.cls-5,.cls-6{fill:none;}.cls-2,.cls-9{fill:#b2ebf2;}.cls-2,.cls-5{stroke:#26c6da;}.cls-15,.cls-2,.cls-40,.cls-5{stroke-miterlimit:10;}.cls-2{stroke-width:0.5px;}.cls-3{isolation:isolate;}.cls-4{opacity:0.33;}.cls-5{stroke-width:0.52px;}.cls-15,.cls-6{stroke:#00acc1;}.cls-22,.cls-23,.cls-29,.cls-6{stroke-linecap:round;stroke-linejoin:round;}.cls-6{stroke-width:0.66px;}.cls-13,.cls-7{fill:#006064;}.cls-40,.cls-8{fill:#80deea;}.cls-9{opacity:0.55;}.cls-10{fill:#00838f;}.cls-11{fill:#00acc1;}.cls-12,.cls-13,.cls-18,.cls-19,.cls-23,.cls-26,.cls-28,.cls-31,.cls-36,.cls-39,.cls-44,.cls-46{mix-blend-mode:multiply;}.cls-14,.cls-32,.cls-33{fill:#fafafa;}.cls-15{stroke-width:1.21px;fill-rule:evenodd;opacity:0.4;fill:url(#New_Pattern_Swatch_7);}.cls-16,.cls-18,.cls-19{fill:gray;}.cls-17,.cls-19,.cls-23{opacity:0.45;}.cls-20{fill:#0097a7;}.cls-21,.cls-41{fill:#fff;}.cls-22{stroke:#757575;stroke-width:7.28px;}.cls-23{stroke:#8d6e63;stroke-width:9.7px;}.cls-24{fill:#a5d6a7;}.cls-25,.cls-26{fill:#e5e8ea;}.cls-27{fill:#d4f4f8;}.cls-28{fill:#dcf6f9;}.cls-29{stroke:#f2f2f2;stroke-opacity:0.45;}.cls-29,.cls-40{stroke-width:3.64px;}.cls-30,.cls-31{fill:#d32f2f;}.cls-32,.cls-34{opacity:0.51;}.cls-32,.cls-33,.cls-34{mix-blend-mode:overlay;}.cls-33{opacity:0.9;}.cls-34{fill:#efebe9;}.cls-35,.cls-36{fill:#757575;}.cls-37,.cls-39{fill:#e0f7fa;}.cls-38{fill:#f44336;}.cls-40{stroke:#b2ebf2;}.cls-41{opacity:0.58;}.cls-42,.cls-44{fill:#eee;}.cls-43{fill:#ffee58;}.cls-45,.cls-46{fill:#1565c0;}</style><pattern id="New_Pattern_Swatch_7" data-name="New Pattern Swatch 7" width="18.36" height="18.36" patternUnits="userSpaceOnUse" viewBox="0 0 18.36 18.36"><rect class="cls-1" width="18.36" height="18.36"/><rect class="cls-2" x="0.25" y="0.25" width="17.86" height="17.86"/><rect class="cls-2" x="0.25" y="0.25" width="5.95" height="5.95"/><rect class="cls-2" x="6.2" y="0.25" width="5.95" height="5.95"/><rect class="cls-2" x="12.16" y="0.25" width="5.95" height="5.95"/><rect class="cls-2" x="0.25" y="6.2" width="5.95" height="5.95"/><rect class="cls-2" x="6.2" y="6.2" width="5.95" height="5.95"/><rect class="cls-2" x="12.16" y="6.2" width="5.95" height="5.95"/><rect class="cls-2" x="0.25" y="12.16" width="5.95" height="5.95"/><rect class="cls-2" x="6.2" y="12.16" width="5.95" height="5.95"/><rect class="cls-2" x="12.16" y="12.16" width="5.95" height="5.95"/></pattern></defs><g class="cls-3"><g id="Layer_1" data-name="Layer 1"><g class="cls-4"><rect class="cls-5" x="83.45" y="218.82" width="24.9" height="24.9"/><rect class="cls-5" x="108.35" y="218.82" width="24.9" height="24.9"/><rect class="cls-5" x="83.45" y="243.72" width="24.9" height="24.9"/><rect class="cls-5" x="108.35" y="243.72" width="24.9" height="24.9"/><rect class="cls-5" x="83.45" y="169.01" width="24.9" height="24.9"/><rect class="cls-5" x="83.45" y="193.92" width="24.9" height="24.9"/><rect class="cls-5" x="108.35" y="193.92" width="24.9" height="24.9"/><rect class="cls-5" x="83.45" y="268.63" width="24.9" height="24.9"/><rect class="cls-5" x="108.35" y="268.63" width="24.9" height="24.9"/><rect class="cls-5" x="133.26" y="243.72" width="24.9" height="24.9"/><rect class="cls-5" x="133.26" y="268.63" width="24.9" height="24.9"/><rect class="cls-5" x="83.45" y="293.53" width="24.9" height="24.9"/><rect class="cls-5" x="108.35" y="293.53" width="24.9" height="24.9"/><rect class="cls-5" x="83.45" y="318.44" width="24.9" height="24.9"/><rect class="cls-5" x="108.35" y="318.44" width="24.9" height="24.9"/><rect class="cls-5" x="133.26" y="293.53" width="24.9" height="24.9"/><rect class="cls-5" x="133.26" y="318.44" width="24.9" height="24.9"/><rect class="cls-5" x="83.45" y="343.34" width="24.9" height="24.9"/><rect class="cls-5" x="108.35" y="343.34" width="24.9" height="24.9"/><rect class="cls-5" x="83.45" y="368.25" width="24.9" height="24.9"/><rect class="cls-5" x="108.35" y="368.25" width="24.9" height="24.9"/><rect class="cls-5" x="133.26" y="343.34" width="24.9" height="24.9"/><rect class="cls-5" x="133.26" y="368.25" width="24.9" height="24.9"/><rect class="cls-5" x="83.45" y="393.15" width="24.9" height="24.9"/><rect class="cls-5" x="108.35" y="393.15" width="24.9" height="24.9"/><rect class="cls-5" x="83.45" y="418.05" width="24.9" height="24.9"/><rect class="cls-5" x="108.35" y="418.05" width="24.9" height="24.9"/><rect class="cls-5" x="133.26" y="393.15" width="24.9" height="24.9"/><rect class="cls-5" x="133.26" y="418.05" width="24.9" height="24.9"/><rect class="cls-5" x="83.45" y="442.96" width="24.9" height="24.9"/><rect class="cls-5" x="108.35" y="442.96" width="24.9" height="24.9"/><rect class="cls-5" x="83.45" y="467.86" width="24.9" height="24.9"/><rect class="cls-5" x="108.35" y="467.86" width="24.9" height="24.9"/><rect class="cls-5" x="133.26" y="442.96" width="24.9" height="24.9"/><rect class="cls-5" x="133.26" y="467.86" width="24.9" height="24.9"/><rect class="cls-5" x="83.45" y="492.77" width="24.9" height="24.9"/><rect class="cls-5" x="108.35" y="492.77" width="24.9" height="24.9"/><rect class="cls-5" x="83.45" y="517.67" width="24.9" height="24.9"/><rect class="cls-5" x="108.35" y="517.67" width="24.9" height="24.9"/><rect class="cls-5" x="133.26" y="492.77" width="24.9" height="24.9"/><rect class="cls-5" x="133.26" y="517.67" width="24.9" height="24.9"/><rect class="cls-5" x="158.16" y="268.63" width="24.9" height="24.9"/><rect class="cls-5" x="183.06" y="268.63" width="24.9" height="24.9"/><rect class="cls-5" x="207.97" y="268.63" width="24.9" height="24.9"/><rect class="cls-5" x="158.16" y="293.53" width="24.9" height="24.9"/><rect class="cls-5" x="183.06" y="293.53" width="24.9" height="24.9"/><rect class="cls-5" x="158.16" y="318.44" width="24.9" height="24.9"/><rect class="cls-5" x="183.06" y="318.44" width="24.9" height="24.9"/><rect class="cls-5" x="207.97" y="293.53" width="24.9" height="24.9"/><rect class="cls-5" x="207.97" y="318.44" width="24.9" height="24.9"/><rect class="cls-5" x="158.16" y="343.34" width="24.9" height="24.9"/><rect class="cls-5" x="183.06" y="343.34" width="24.9" height="24.9"/><rect class="cls-5" x="158.16" y="368.25" width="24.9" height="24.9"/><rect class="cls-5" x="183.06" y="368.25" width="24.9" height="24.9"/><rect class="cls-5" x="207.97" y="343.34" width="24.9" height="24.9"/><rect class="cls-5" x="207.97" y="368.25" width="24.9" height="24.9"/><rect class="cls-5" x="158.16" y="393.15" width="24.9" height="24.9"/><rect class="cls-5" x="183.06" y="393.15" width="24.9" height="24.9"/><rect class="cls-5" x="158.16" y="418.05" width="24.9" height="24.9"/><rect class="cls-5" x="183.06" y="418.05" width="24.9" height="24.9"/><rect class="cls-5" x="207.97" y="393.15" width="24.9" height="24.9"/><rect class="cls-5" x="207.97" y="418.05" width="24.9" height="24.9"/><rect class="cls-5" x="158.16" y="442.96" width="24.9" height="24.9"/><rect class="cls-5" x="183.06" y="442.96" width="24.9" height="24.9"/><rect class="cls-5" x="158.16" y="467.86" width="24.9" height="24.9"/><rect class="cls-5" x="183.06" y="467.86" width="24.9" height="24.9"/><rect class="cls-5" x="207.97" y="442.96" width="24.9" height="24.9"/><rect class="cls-5" x="207.97" y="467.86" width="24.9" height="24.9"/><rect class="cls-5" x="158.16" y="492.77" width="24.9" height="24.9"/><rect class="cls-5" x="183.06" y="492.77" width="24.9" height="24.9"/><rect class="cls-5" x="158.16" y="517.67" width="24.9" height="24.9"/><rect class="cls-5" x="183.06" y="517.67" width="24.9" height="24.9"/><rect class="cls-5" x="207.97" y="492.77" width="24.9" height="24.9"/><rect class="cls-5" x="207.97" y="517.67" width="24.9" height="24.9"/><rect class="cls-5" x="232.87" y="268.63" width="24.9" height="24.9"/><rect class="cls-5" x="257.78" y="268.63" width="24.9" height="24.9"/><rect class="cls-5" x="282.68" y="268.63" width="24.9" height="24.9"/><rect class="cls-5" x="232.87" y="293.53" width="24.9" height="24.9"/><rect class="cls-5" x="257.78" y="293.53" width="24.9" height="24.9"/><rect class="cls-5" x="232.87" y="318.44" width="24.9" height="24.9"/><rect class="cls-5" x="257.78" y="318.44" width="24.9" height="24.9"/><rect class="cls-5" x="282.68" y="293.53" width="24.9" height="24.9"/><rect class="cls-5" x="282.68" y="318.44" width="24.9" height="24.9"/><rect class="cls-5" x="232.87" y="343.34" width="24.9" height="24.9"/><rect class="cls-5" x="257.78" y="343.34" width="24.9" height="24.9"/><rect class="cls-5" x="232.87" y="368.25" width="24.9" height="24.9"/><rect class="cls-5" x="257.78" y="368.25" width="24.9" height="24.9"/><rect class="cls-5" x="282.68" y="343.34" width="24.9" height="24.9"/><rect class="cls-5" x="282.68" y="368.25" width="24.9" height="24.9"/><rect class="cls-5" x="232.87" y="393.15" width="24.9" height="24.9"/><rect class="cls-5" x="257.78" y="393.15" width="24.9" height="24.9"/><rect class="cls-5" x="232.87" y="418.05" width="24.9" height="24.9"/><rect class="cls-5" x="257.78" y="418.05" width="24.9" height="24.9"/><rect class="cls-5" x="282.68" y="393.15" width="24.9" height="24.9"/><rect class="cls-5" x="282.68" y="418.05" width="24.9" height="24.9"/><rect class="cls-5" x="232.87" y="442.96" width="24.9" height="24.9"/><rect class="cls-5" x="257.78" y="442.96" width="24.9" height="24.9"/><rect class="cls-5" x="232.87" y="467.86" width="24.9" height="24.9"/><rect class="cls-5" x="257.78" y="467.86" width="24.9" height="24.9"/><rect class="cls-5" x="282.68" y="442.96" width="24.9" height="24.9"/><rect class="cls-5" x="282.68" y="467.86" width="24.9" height="24.9"/><rect class="cls-5" x="232.87" y="492.77" width="24.9" height="24.9"/><rect class="cls-5" x="257.78" y="492.77" width="24.9" height="24.9"/><rect class="cls-5" x="232.87" y="517.67" width="24.9" height="24.9"/><rect class="cls-5" x="257.78" y="517.67" width="24.9" height="24.9"/><rect class="cls-5" x="282.68" y="492.77" width="24.9" height="24.9"/><rect class="cls-5" x="282.68" y="517.67" width="24.9" height="24.9"/><rect class="cls-5" x="307.58" y="268.63" width="24.9" height="24.9"/><rect class="cls-5" x="332.49" y="268.63" width="24.9" height="24.9"/><rect class="cls-5" x="357.39" y="268.63" width="24.9" height="24.9"/><rect class="cls-5" x="307.58" y="293.53" width="24.9" height="24.9"/><rect class="cls-5" x="332.49" y="293.53" width="24.9" height="24.9"/><rect class="cls-5" x="307.58" y="318.44" width="24.9" height="24.9"/><rect class="cls-5" x="332.49" y="318.44" width="24.9" height="24.9"/><rect class="cls-5" x="357.39" y="293.53" width="24.9" height="24.9"/><rect class="cls-5" x="357.39" y="318.44" width="24.9" height="24.9"/><rect class="cls-5" x="307.58" y="343.34" width="24.9" height="24.9"/><rect class="cls-5" x="332.49" y="343.34" width="24.9" height="24.9"/><rect class="cls-5" x="307.58" y="368.25" width="24.9" height="24.9"/><rect class="cls-5" x="332.49" y="368.25" width="24.9" height="24.9"/><rect class="cls-5" x="357.39" y="343.34" width="24.9" height="24.9"/><rect class="cls-5" x="357.39" y="368.25" width="24.9" height="24.9"/><rect class="cls-5" x="307.58" y="393.15" width="24.9" height="24.9"/><rect class="cls-5" x="332.49" y="393.15" width="24.9" height="24.9"/><rect class="cls-5" x="307.58" y="418.05" width="24.9" height="24.9"/><rect class="cls-5" x="332.49" y="418.05" width="24.9" height="24.9"/><rect class="cls-5" x="357.39" y="393.15" width="24.9" height="24.9"/><rect class="cls-5" x="357.39" y="418.05" width="24.9" height="24.9"/><rect class="cls-5" x="307.58" y="442.96" width="24.9" height="24.9"/><rect class="cls-5" x="332.49" y="442.96" width="24.9" height="24.9"/><rect class="cls-5" x="307.58" y="467.86" width="24.9" height="24.9"/><rect class="cls-5" x="332.49" y="467.86" width="24.9" height="24.9"/><rect class="cls-5" x="357.39" y="442.96" width="24.9" height="24.9"/><rect class="cls-5" x="357.39" y="467.86" width="24.9" height="24.9"/><rect class="cls-5" x="307.58" y="492.77" width="24.9" height="24.9"/><rect class="cls-5" x="332.49" y="492.77" width="24.9" height="24.9"/><rect class="cls-5" x="307.58" y="517.67" width="24.9" height="24.9"/><rect class="cls-5" x="332.49" y="517.67" width="24.9" height="24.9"/><rect class="cls-5" x="357.39" y="492.77" width="24.9" height="24.9"/><rect class="cls-5" x="357.39" y="517.67" width="24.9" height="24.9"/><rect class="cls-5" x="382.3" y="268.63" width="24.9" height="24.9"/><rect class="cls-5" x="407.2" y="268.63" width="24.9" height="24.9"/><rect class="cls-5" x="432.11" y="268.63" width="24.9" height="24.9"/><rect class="cls-5" x="382.3" y="293.53" width="24.9" height="24.9"/><rect class="cls-5" x="407.2" y="293.53" width="24.9" height="24.9"/><rect class="cls-5" x="382.3" y="318.44" width="24.9" height="24.9"/><rect class="cls-5" x="407.2" y="318.44" width="24.9" height="24.9"/><rect class="cls-5" x="432.11" y="293.53" width="24.9" height="24.9"/><rect class="cls-5" x="432.11" y="318.44" width="24.9" height="24.9"/><rect class="cls-5" x="382.3" y="343.34" width="24.9" height="24.9"/><rect class="cls-5" x="407.2" y="343.34" width="24.9" height="24.9"/><rect class="cls-5" x="382.3" y="368.25" width="24.9" height="24.9"/><rect class="cls-5" x="407.2" y="368.25" width="24.9" height="24.9"/><rect class="cls-5" x="432.11" y="343.34" width="24.9" height="24.9"/><rect class="cls-5" x="432.11" y="368.25" width="24.9" height="24.9"/><rect class="cls-5" x="382.3" y="393.15" width="24.9" height="24.9"/><rect class="cls-5" x="407.2" y="393.15" width="24.9" height="24.9"/><rect class="cls-5" x="382.3" y="418.05" width="24.9" height="24.9"/><rect class="cls-5" x="407.2" y="418.05" width="24.9" height="24.9"/><rect class="cls-5" x="432.11" y="393.15" width="24.9" height="24.9"/><rect class="cls-5" x="432.11" y="418.05" width="24.9" height="24.9"/><rect class="cls-5" x="382.3" y="442.96" width="24.9" height="24.9"/><rect class="cls-5" x="407.2" y="442.96" width="24.9" height="24.9"/><rect class="cls-5" x="382.3" y="467.86" width="24.9" height="24.9"/><rect class="cls-5" x="407.2" y="467.86" width="24.9" height="24.9"/><rect class="cls-5" x="432.11" y="442.96" width="24.9" height="24.9"/><rect class="cls-5" x="432.11" y="467.86" width="24.9" height="24.9"/><rect class="cls-5" x="382.3" y="492.77" width="24.9" height="24.9"/><rect class="cls-5" x="407.2" y="492.77" width="24.9" height="24.9"/><rect class="cls-5" x="382.3" y="517.67" width="24.9" height="24.9"/><rect class="cls-5" x="407.2" y="517.67" width="24.9" height="24.9"/><rect class="cls-5" x="432.11" y="492.77" width="24.9" height="24.9"/><rect class="cls-5" x="432.11" y="517.67" width="24.9" height="24.9"/><rect class="cls-5" x="457.01" y="268.63" width="24.9" height="24.9"/><rect class="cls-5" x="481.91" y="268.63" width="24.9" height="24.9"/><rect class="cls-5" x="506.82" y="268.63" width="24.9" height="24.9"/><rect class="cls-5" x="457.01" y="293.53" width="24.9" height="24.9"/><rect class="cls-5" x="481.91" y="293.53" width="24.9" height="24.9"/><rect class="cls-5" x="457.01" y="318.44" width="24.9" height="24.9"/><rect class="cls-5" x="481.91" y="318.44" width="24.9" height="24.9"/><rect class="cls-5" x="506.82" y="293.53" width="24.9" height="24.9"/><rect class="cls-5" x="506.82" y="318.44" width="24.9" height="24.9"/><rect class="cls-5" x="457.01" y="343.34" width="24.9" height="24.9"/><rect class="cls-5" x="481.91" y="343.34" width="24.9" height="24.9"/><rect class="cls-5" x="457.01" y="368.25" width="24.9" height="24.9"/><rect class="cls-5" x="481.91" y="368.25" width="24.9" height="24.9"/><rect class="cls-5" x="506.82" y="343.34" width="24.9" height="24.9"/><rect class="cls-5" x="506.82" y="368.25" width="24.9" height="24.9"/><rect class="cls-5" x="457.01" y="393.15" width="24.9" height="24.9"/><rect class="cls-5" x="481.91" y="393.15" width="24.9" height="24.9"/><rect class="cls-5" x="457.01" y="418.05" width="24.9" height="24.9"/><rect class="cls-5" x="481.91" y="418.05" width="24.9" height="24.9"/><rect class="cls-5" x="506.82" y="393.15" width="24.9" height="24.9"/><rect class="cls-5" x="506.82" y="418.05" width="24.9" height="24.9"/><rect class="cls-5" x="457.01" y="442.96" width="24.9" height="24.9"/><rect class="cls-5" x="481.91" y="442.96" width="24.9" height="24.9"/><rect class="cls-5" x="457.01" y="467.86" width="24.9" height="24.9"/><rect class="cls-5" x="481.91" y="467.86" width="24.9" height="24.9"/><rect class="cls-5" x="506.82" y="442.96" width="24.9" height="24.9"/><rect class="cls-5" x="506.82" y="467.86" width="24.9" height="24.9"/><rect class="cls-5" x="457.01" y="492.77" width="24.9" height="24.9"/><rect class="cls-5" x="481.91" y="492.77" width="24.9" height="24.9"/><rect class="cls-5" x="457.01" y="517.67" width="24.9" height="24.9"/><rect class="cls-5" x="481.91" y="517.67" width="24.9" height="24.9"/><rect class="cls-5" x="506.82" y="492.77" width="24.9" height="24.9"/><rect class="cls-5" x="506.82" y="517.67" width="24.9" height="24.9"/><rect class="cls-5" x="531.72" y="268.63" width="24.9" height="24.9"/><rect class="cls-5" x="556.63" y="268.63" width="24.9" height="24.9"/><rect class="cls-5" x="581.53" y="268.63" width="24.9" height="24.9"/><rect class="cls-5" x="531.72" y="293.53" width="24.9" height="24.9"/><rect class="cls-5" x="556.63" y="293.53" width="24.9" height="24.9"/><rect class="cls-5" x="531.72" y="318.44" width="24.9" height="24.9"/><rect class="cls-5" x="556.63" y="318.44" width="24.9" height="24.9"/><rect class="cls-5" x="581.53" y="293.53" width="24.9" height="24.9"/><rect class="cls-5" x="581.53" y="318.44" width="24.9" height="24.9"/><rect class="cls-5" x="531.72" y="343.34" width="24.9" height="24.9"/><rect class="cls-5" x="556.63" y="343.34" width="24.9" height="24.9"/><rect class="cls-5" x="531.72" y="368.25" width="24.9" height="24.9"/><rect class="cls-5" x="556.63" y="368.25" width="24.9" height="24.9"/><rect class="cls-5" x="581.53" y="343.34" width="24.9" height="24.9"/><rect class="cls-5" x="581.53" y="368.25" width="24.9" height="24.9"/><rect class="cls-5" x="531.72" y="393.15" width="24.9" height="24.9"/><rect class="cls-5" x="556.63" y="393.15" width="24.9" height="24.9"/><rect class="cls-5" x="531.72" y="418.05" width="24.9" height="24.9"/><rect class="cls-5" x="556.63" y="418.05" width="24.9" height="24.9"/><rect class="cls-5" x="581.53" y="393.15" width="24.9" height="24.9"/><rect class="cls-5" x="581.53" y="418.05" width="24.9" height="24.9"/><rect class="cls-5" x="531.72" y="442.96" width="24.9" height="24.9"/><rect class="cls-5" x="556.63" y="442.96" width="24.9" height="24.9"/><rect class="cls-5" x="531.72" y="467.86" width="24.9" height="24.9"/><rect class="cls-5" x="556.63" y="467.86" width="24.9" height="24.9"/><rect class="cls-5" x="581.53" y="442.96" width="24.9" height="24.9"/><rect class="cls-5" x="581.53" y="467.86" width="24.9" height="24.9"/><rect class="cls-5" x="531.72" y="492.77" width="24.9" height="24.9"/><rect class="cls-5" x="556.63" y="492.77" width="24.9" height="24.9"/><rect class="cls-5" x="531.72" y="517.67" width="24.9" height="24.9"/><rect class="cls-5" x="556.63" y="517.67" width="24.9" height="24.9"/><rect class="cls-5" x="581.53" y="492.77" width="24.9" height="24.9"/><rect class="cls-5" x="581.53" y="517.67" width="24.9" height="24.9"/><rect class="cls-5" x="606.43" y="268.63" width="24.9" height="24.9"/><rect class="cls-5" x="631.34" y="268.63" width="24.9" height="24.9"/><rect class="cls-5" x="656.24" y="268.63" width="24.9" height="24.9"/><rect class="cls-5" x="606.43" y="293.53" width="24.9" height="24.9"/><rect class="cls-5" x="631.34" y="293.53" width="24.9" height="24.9"/><rect class="cls-5" x="606.43" y="318.44" width="24.9" height="24.9"/><rect class="cls-5" x="631.34" y="318.44" width="24.9" height="24.9"/><rect class="cls-5" x="656.24" y="293.53" width="24.9" height="24.9"/><rect class="cls-5" x="656.24" y="318.44" width="24.9" height="24.9"/><rect class="cls-5" x="606.43" y="343.34" width="24.9" height="24.9"/><rect class="cls-5" x="631.34" y="343.34" width="24.9" height="24.9"/><rect class="cls-5" x="606.43" y="368.25" width="24.9" height="24.9"/><rect class="cls-5" x="631.34" y="368.25" width="24.9" height="24.9"/><rect class="cls-5" x="656.24" y="343.34" width="24.9" height="24.9"/><rect class="cls-5" x="656.24" y="368.25" width="24.9" height="24.9"/><rect class="cls-5" x="606.43" y="393.15" width="24.9" height="24.9"/><rect class="cls-5" x="631.34" y="393.15" width="24.9" height="24.9"/><rect class="cls-5" x="606.43" y="418.05" width="24.9" height="24.9"/><rect class="cls-5" x="631.34" y="418.05" width="24.9" height="24.9"/><rect class="cls-5" x="656.24" y="393.15" width="24.9" height="24.9"/><rect class="cls-5" x="656.24" y="418.05" width="24.9" height="24.9"/><rect class="cls-5" x="606.43" y="442.96" width="24.9" height="24.9"/><rect class="cls-5" x="631.34" y="442.96" width="24.9" height="24.9"/><rect class="cls-5" x="606.43" y="467.86" width="24.9" height="24.9"/><rect class="cls-5" x="631.34" y="467.86" width="24.9" height="24.9"/><rect class="cls-5" x="656.24" y="442.96" width="24.9" height="24.9"/><rect class="cls-5" x="656.24" y="467.86" width="24.9" height="24.9"/><rect class="cls-5" x="606.43" y="492.77" width="24.9" height="24.9"/><rect class="cls-5" x="631.34" y="492.77" width="24.9" height="24.9"/><rect class="cls-5" x="606.43" y="517.67" width="24.9" height="24.9"/><rect class="cls-5" x="631.34" y="517.67" width="24.9" height="24.9"/><rect class="cls-5" x="656.24" y="492.77" width="24.9" height="24.9"/><rect class="cls-5" x="656.24" y="517.67" width="24.9" height="24.9"/><rect class="cls-5" x="681.15" y="268.63" width="24.9" height="24.9"/><rect class="cls-5" x="706.05" y="268.63" width="24.9" height="24.9"/><rect class="cls-5" x="730.96" y="268.63" width="24.9" height="24.9"/><rect class="cls-5" x="681.15" y="293.53" width="24.9" height="24.9"/><rect class="cls-5" x="706.05" y="293.53" width="24.9" height="24.9"/><rect class="cls-5" x="681.15" y="318.44" width="24.9" height="24.9"/><rect class="cls-5" x="706.05" y="318.44" width="24.9" height="24.9"/><rect class="cls-5" x="730.96" y="293.53" width="24.9" height="24.9"/><rect class="cls-5" x="730.96" y="318.44" width="24.9" height="24.9"/><rect class="cls-5" x="681.15" y="343.34" width="24.9" height="24.9"/><rect class="cls-5" x="706.05" y="343.34" width="24.9" height="24.9"/><rect class="cls-5" x="681.15" y="368.25" width="24.9" height="24.9"/><rect class="cls-5" x="706.05" y="368.25" width="24.9" height="24.9"/><rect class="cls-5" x="730.96" y="343.34" width="24.9" height="24.9"/><rect class="cls-5" x="730.96" y="368.25" width="24.9" height="24.9"/><rect class="cls-5" x="681.15" y="393.15" width="24.9" height="24.9"/><rect class="cls-5" x="706.05" y="393.15" width="24.9" height="24.9"/><rect class="cls-5" x="681.15" y="418.05" width="24.9" height="24.9"/><rect class="cls-5" x="706.05" y="418.05" width="24.9" height="24.9"/><rect class="cls-5" x="730.96" y="393.15" width="24.9" height="24.9"/><rect class="cls-5" x="730.96" y="418.05" width="24.9" height="24.9"/><rect class="cls-5" x="681.15" y="442.96" width="24.9" height="24.9"/><rect class="cls-5" x="706.05" y="442.96" width="24.9" height="24.9"/><rect class="cls-5" x="681.15" y="467.86" width="24.9" height="24.9"/><rect class="cls-5" x="706.05" y="467.86" width="24.9" height="24.9"/><rect class="cls-5" x="730.96" y="442.96" width="24.9" height="24.9"/><rect class="cls-5" x="730.96" y="467.86" width="24.9" height="24.9"/><rect class="cls-5" x="681.15" y="492.77" width="24.9" height="24.9"/><rect class="cls-5" x="706.05" y="492.77" width="24.9" height="24.9"/><rect class="cls-5" x="681.15" y="517.67" width="24.9" height="24.9"/><rect class="cls-5" x="706.05" y="517.67" width="24.9" height="24.9"/><rect class="cls-5" x="730.96" y="492.77" width="24.9" height="24.9"/><rect class="cls-5" x="730.96" y="517.67" width="24.9" height="24.9"/><rect class="cls-5" x="755.86" y="268.63" width="24.9" height="24.9"/><rect class="cls-5" x="780.76" y="268.63" width="24.9" height="24.9"/><rect class="cls-5" x="805.67" y="268.63" width="24.9" height="24.9"/><rect class="cls-5" x="755.86" y="293.53" width="24.9" height="24.9"/><rect class="cls-5" x="780.76" y="293.53" width="24.9" height="24.9"/><rect class="cls-5" x="755.86" y="318.44" width="24.9" height="24.9"/><rect class="cls-5" x="780.76" y="318.44" width="24.9" height="24.9"/><rect class="cls-5" x="805.67" y="293.53" width="24.9" height="24.9"/><rect class="cls-5" x="805.67" y="318.44" width="24.9" height="24.9"/><rect class="cls-5" x="755.86" y="343.34" width="24.9" height="24.9"/><rect class="cls-5" x="780.76" y="343.34" width="24.9" height="24.9"/><rect class="cls-5" x="755.86" y="368.25" width="24.9" height="24.9"/><rect class="cls-5" x="780.76" y="368.25" width="24.9" height="24.9"/><rect class="cls-5" x="805.67" y="343.34" width="24.9" height="24.9"/><rect class="cls-5" x="805.67" y="368.25" width="24.9" height="24.9"/><rect class="cls-5" x="755.86" y="393.15" width="24.9" height="24.9"/><rect class="cls-5" x="780.76" y="393.15" width="24.9" height="24.9"/><rect class="cls-5" x="755.86" y="418.05" width="24.9" height="24.9"/><rect class="cls-5" x="780.76" y="418.05" width="24.9" height="24.9"/><rect class="cls-5" x="805.67" y="393.15" width="24.9" height="24.9"/><rect class="cls-5" x="805.67" y="418.05" width="24.9" height="24.9"/><rect class="cls-5" x="755.86" y="442.96" width="24.9" height="24.9"/><rect class="cls-5" x="780.76" y="442.96" width="24.9" height="24.9"/><rect class="cls-5" x="755.86" y="467.86" width="24.9" height="24.9"/><rect class="cls-5" x="780.76" y="467.86" width="24.9" height="24.9"/><rect class="cls-5" x="805.67" y="442.96" width="24.9" height="24.9"/><rect class="cls-5" x="805.67" y="467.86" width="24.9" height="24.9"/><rect class="cls-5" x="755.86" y="492.77" width="24.9" height="24.9"/><rect class="cls-5" x="780.76" y="492.77" width="24.9" height="24.9"/><rect class="cls-5" x="755.86" y="517.67" width="24.9" height="24.9"/><rect class="cls-5" x="780.76" y="517.67" width="24.9" height="24.9"/><rect class="cls-5" x="805.67" y="492.77" width="24.9" height="24.9"/><rect class="cls-5" x="805.67" y="517.67" width="24.9" height="24.9"/><rect class="cls-5" x="830.57" y="268.63" width="24.9" height="24.9"/><rect class="cls-5" x="855.48" y="268.63" width="24.9" height="24.9"/><rect class="cls-5" x="880.38" y="268.63" width="24.9" height="24.9"/><rect class="cls-5" x="830.57" y="293.53" width="24.9" height="24.9"/><rect class="cls-5" x="855.48" y="293.53" width="24.9" height="24.9"/><rect class="cls-5" x="830.57" y="318.44" width="24.9" height="24.9"/><rect class="cls-5" x="855.48" y="318.44" width="24.9" height="24.9"/><rect class="cls-5" x="880.38" y="293.53" width="24.9" height="24.9"/><rect class="cls-5" x="880.38" y="318.44" width="24.9" height="24.9"/><rect class="cls-5" x="830.57" y="343.34" width="24.9" height="24.9"/><rect class="cls-5" x="855.48" y="343.34" width="24.9" height="24.9"/><rect class="cls-5" x="830.57" y="368.25" width="24.9" height="24.9"/><rect class="cls-5" x="855.48" y="368.25" width="24.9" height="24.9"/><rect class="cls-5" x="880.38" y="343.34" width="24.9" height="24.9"/><rect class="cls-5" x="880.38" y="368.25" width="24.9" height="24.9"/><rect class="cls-5" x="830.57" y="393.15" width="24.9" height="24.9"/><rect class="cls-5" x="855.48" y="393.15" width="24.9" height="24.9"/><rect class="cls-5" x="830.57" y="418.05" width="24.9" height="24.9"/><rect class="cls-5" x="855.48" y="418.05" width="24.9" height="24.9"/><rect class="cls-5" x="880.38" y="393.15" width="24.9" height="24.9"/><rect class="cls-5" x="880.38" y="418.05" width="24.9" height="24.9"/><rect class="cls-5" x="830.57" y="442.96" width="24.9" height="24.9"/><rect class="cls-5" x="855.48" y="442.96" width="24.9" height="24.9"/><rect class="cls-5" x="830.57" y="467.86" width="24.9" height="24.9"/><rect class="cls-5" x="855.48" y="467.86" width="24.9" height="24.9"/><rect class="cls-5" x="880.38" y="442.96" width="24.9" height="24.9"/><rect class="cls-5" x="880.38" y="467.86" width="24.9" height="24.9"/><rect class="cls-5" x="830.57" y="492.77" width="24.9" height="24.9"/><rect class="cls-5" x="855.48" y="492.77" width="24.9" height="24.9"/><rect class="cls-5" x="830.57" y="517.67" width="24.9" height="24.9"/><rect class="cls-5" x="855.48" y="517.67" width="24.9" height="24.9"/><rect class="cls-5" x="880.38" y="492.77" width="24.9" height="24.9"/><rect class="cls-5" x="880.38" y="517.67" width="24.9" height="24.9"/><rect class="cls-5" x="905.28" y="268.63" width="24.9" height="24.9"/><rect class="cls-5" x="930.19" y="268.63" width="24.9" height="24.9"/><rect class="cls-5" x="955.09" y="268.63" width="24.9" height="24.9"/><rect class="cls-5" x="905.28" y="293.53" width="24.9" height="24.9"/><rect class="cls-5" x="930.19" y="293.53" width="24.9" height="24.9"/><rect class="cls-5" x="905.28" y="318.44" width="24.9" height="24.9"/><rect class="cls-5" x="930.19" y="318.44" width="24.9" height="24.9"/><rect class="cls-5" x="955.09" y="293.53" width="24.9" height="24.9"/><rect class="cls-5" x="955.09" y="318.44" width="24.9" height="24.9"/><rect class="cls-5" x="905.28" y="343.34" width="24.9" height="24.9"/><rect class="cls-5" x="930.19" y="343.34" width="24.9" height="24.9"/><rect class="cls-5" x="905.28" y="368.25" width="24.9" height="24.9"/><rect class="cls-5" x="930.19" y="368.25" width="24.9" height="24.9"/><rect class="cls-5" x="955.09" y="343.34" width="24.9" height="24.9"/><rect class="cls-5" x="955.09" y="368.25" width="24.9" height="24.9"/><rect class="cls-5" x="905.28" y="393.15" width="24.9" height="24.9"/><rect class="cls-5" x="930.19" y="393.15" width="24.9" height="24.9"/><rect class="cls-5" x="905.28" y="418.05" width="24.9" height="24.9"/><rect class="cls-5" x="930.19" y="418.05" width="24.9" height="24.9"/><rect class="cls-5" x="955.09" y="393.15" width="24.9" height="24.9"/><rect class="cls-5" x="955.09" y="418.05" width="24.9" height="24.9"/><rect class="cls-5" x="905.28" y="442.96" width="24.9" height="24.9"/><rect class="cls-5" x="930.19" y="442.96" width="24.9" height="24.9"/><rect class="cls-5" x="905.28" y="467.86" width="24.9" height="24.9"/><rect class="cls-5" x="930.19" y="467.86" width="24.9" height="24.9"/><rect class="cls-5" x="955.09" y="442.96" width="24.9" height="24.9"/><rect class="cls-5" x="955.09" y="467.86" width="24.9" height="24.9"/><rect class="cls-5" x="905.28" y="492.77" width="24.9" height="24.9"/><rect class="cls-5" x="930.19" y="492.77" width="24.9" height="24.9"/><rect class="cls-5" x="905.28" y="517.67" width="24.9" height="24.9"/><rect class="cls-5" x="930.19" y="517.67" width="24.9" height="24.9"/><rect class="cls-5" x="955.09" y="492.77" width="24.9" height="24.9"/><rect class="cls-5" x="955.09" y="517.67" width="24.9" height="24.9"/><rect class="cls-5" x="980" y="268.63" width="24.9" height="24.9"/><rect class="cls-5" x="1004.9" y="268.63" width="24.9" height="24.9"/><rect class="cls-5" x="1029.81" y="268.63" width="24.9" height="24.9"/><rect class="cls-5" x="980" y="293.53" width="24.9" height="24.9"/><rect class="cls-5" x="1004.9" y="293.53" width="24.9" height="24.9"/><rect class="cls-5" x="980" y="318.44" width="24.9" height="24.9"/><rect class="cls-5" x="1004.9" y="318.44" width="24.9" height="24.9"/><rect class="cls-5" x="1029.81" y="293.53" width="24.9" height="24.9"/><rect class="cls-5" x="1029.81" y="318.44" width="24.9" height="24.9"/><rect class="cls-5" x="158.16" y="193.92" width="24.9" height="24.9"/><rect class="cls-5" x="183.06" y="193.92" width="24.9" height="24.9"/><rect class="cls-5" x="207.97" y="193.92" width="24.9" height="24.9"/><rect class="cls-5" x="158.16" y="218.82" width="24.9" height="24.9"/><rect class="cls-5" x="183.06" y="218.82" width="24.9" height="24.9"/><rect class="cls-5" x="158.16" y="243.72" width="24.9" height="24.9"/><rect class="cls-5" x="183.06" y="243.72" width="24.9" height="24.9"/><rect class="cls-5" x="207.97" y="218.82" width="24.9" height="24.9"/><rect class="cls-5" x="207.97" y="243.72" width="24.9" height="24.9"/><rect class="cls-5" x="232.87" y="218.82" width="24.9" height="24.9"/><rect class="cls-5" x="257.78" y="218.82" width="24.9" height="24.9"/><rect class="cls-5" x="232.87" y="243.72" width="24.9" height="24.9"/><rect class="cls-5" x="257.78" y="243.72" width="24.9" height="24.9"/><rect class="cls-5" x="282.68" y="218.82" width="24.9" height="24.9"/><rect class="cls-5" x="282.68" y="243.72" width="24.9" height="24.9"/><rect class="cls-5" x="332.49" y="193.92" width="24.9" height="24.9"/><rect class="cls-5" x="357.39" y="193.92" width="24.9" height="24.9"/><rect class="cls-5" x="307.58" y="218.82" width="24.9" height="24.9"/><rect class="cls-5" x="332.49" y="218.82" width="24.9" height="24.9"/><rect class="cls-5" x="307.58" y="243.72" width="24.9" height="24.9"/><rect class="cls-5" x="332.49" y="243.72" width="24.9" height="24.9"/><rect class="cls-5" x="357.39" y="218.82" width="24.9" height="24.9"/><rect class="cls-5" x="357.39" y="243.72" width="24.9" height="24.9"/><rect class="cls-5" x="382.3" y="193.92" width="24.9" height="24.9"/><rect class="cls-5" x="407.2" y="193.92" width="24.9" height="24.9"/><rect class="cls-5" x="432.11" y="193.92" width="24.9" height="24.9"/><rect class="cls-5" x="382.3" y="218.82" width="24.9" height="24.9"/><rect class="cls-5" x="407.2" y="218.82" width="24.9" height="24.9"/><rect class="cls-5" x="382.3" y="243.72" width="24.9" height="24.9"/><rect class="cls-5" x="407.2" y="243.72" width="24.9" height="24.9"/><rect class="cls-5" x="432.11" y="218.82" width="24.9" height="24.9"/><rect class="cls-5" x="432.11" y="243.72" width="24.9" height="24.9"/><rect class="cls-5" x="457.01" y="193.92" width="24.9" height="24.9"/><rect class="cls-5" x="481.91" y="193.92" width="24.9" height="24.9"/><rect class="cls-5" x="506.82" y="193.92" width="24.9" height="24.9"/><rect class="cls-5" x="457.01" y="218.82" width="24.9" height="24.9"/><rect class="cls-5" x="481.91" y="218.82" width="24.9" height="24.9"/><rect class="cls-5" x="457.01" y="243.72" width="24.9" height="24.9"/><rect class="cls-5" x="481.91" y="243.72" width="24.9" height="24.9"/><rect class="cls-5" x="506.82" y="218.82" width="24.9" height="24.9"/><rect class="cls-5" x="506.82" y="243.72" width="24.9" height="24.9"/><rect class="cls-5" x="531.72" y="193.92" width="24.9" height="24.9"/><rect class="cls-5" x="556.63" y="193.92" width="24.9" height="24.9"/><rect class="cls-5" x="581.53" y="193.92" width="24.9" height="24.9"/><rect class="cls-5" x="531.72" y="218.82" width="24.9" height="24.9"/><rect class="cls-5" x="556.63" y="218.82" width="24.9" height="24.9"/><rect class="cls-5" x="531.72" y="243.72" width="24.9" height="24.9"/><rect class="cls-5" x="556.63" y="243.72" width="24.9" height="24.9"/><rect class="cls-5" x="581.53" y="218.82" width="24.9" height="24.9"/><rect class="cls-5" x="581.53" y="243.72" width="24.9" height="24.9"/><rect class="cls-5" x="606.43" y="193.92" width="24.9" height="24.9"/><rect class="cls-5" x="631.34" y="193.92" width="24.9" height="24.9"/><rect class="cls-5" x="656.24" y="193.92" width="24.9" height="24.9"/><rect class="cls-5" x="606.43" y="218.82" width="24.9" height="24.9"/><rect class="cls-5" x="631.34" y="218.82" width="24.9" height="24.9"/><rect class="cls-5" x="606.43" y="243.72" width="24.9" height="24.9"/><rect class="cls-5" x="631.34" y="243.72" width="24.9" height="24.9"/><rect class="cls-5" x="656.24" y="218.82" width="24.9" height="24.9"/><rect class="cls-5" x="656.24" y="243.72" width="24.9" height="24.9"/><rect class="cls-5" x="681.15" y="193.92" width="24.9" height="24.9"/><rect class="cls-5" x="706.05" y="193.92" width="24.9" height="24.9"/><rect class="cls-5" x="730.96" y="193.92" width="24.9" height="24.9"/><rect class="cls-5" x="681.15" y="218.82" width="24.9" height="24.9"/><rect class="cls-5" x="706.05" y="218.82" width="24.9" height="24.9"/><rect class="cls-5" x="681.15" y="243.72" width="24.9" height="24.9"/><rect class="cls-5" x="706.05" y="243.72" width="24.9" height="24.9"/><rect class="cls-5" x="730.96" y="218.82" width="24.9" height="24.9"/><rect class="cls-5" x="382.3" y="169.01" width="24.9" height="24.9"/><rect class="cls-5" x="407.2" y="169.01" width="24.9" height="24.9"/><rect class="cls-5" x="481.91" y="144.11" width="24.9" height="24.9"/><rect class="cls-5" x="506.82" y="144.11" width="24.9" height="24.9"/><rect class="cls-5" x="481.91" y="169.01" width="24.9" height="24.9"/><rect class="cls-5" x="506.82" y="169.01" width="24.9" height="24.9"/><rect class="cls-5" x="531.72" y="144.11" width="24.9" height="24.9"/><rect class="cls-5" x="531.72" y="169.01" width="24.9" height="24.9"/><rect class="cls-5" x="556.63" y="169.01" width="24.9" height="24.9"/><rect class="cls-5" x="581.53" y="169.01" width="24.9" height="24.9"/><rect class="cls-5" x="681.15" y="169.01" width="24.9" height="24.9"/><rect class="cls-5" x="706.05" y="169.01" width="24.9" height="24.9"/><rect class="cls-5" x="730.96" y="169.01" width="24.9" height="24.9"/><rect class="cls-5" x="755.86" y="218.82" width="24.9" height="24.9"/><rect class="cls-5" x="780.76" y="218.82" width="24.9" height="24.9"/><rect class="cls-5" x="805.67" y="218.82" width="24.9" height="24.9"/><rect class="cls-5" x="830.57" y="218.82" width="24.9" height="24.9"/><rect class="cls-5" x="755.86" y="193.92" width="24.9" height="24.9"/><rect class="cls-5" x="780.76" y="193.92" width="24.9" height="24.9"/><rect class="cls-5" x="805.67" y="193.92" width="24.9" height="24.9"/><rect class="cls-5" x="830.57" y="193.92" width="24.9" height="24.9"/><rect class="cls-5" x="730.96" y="243.72" width="24.9" height="24.9"/><rect class="cls-5" x="755.86" y="243.72" width="24.9" height="24.9"/><rect class="cls-5" x="780.76" y="243.72" width="24.9" height="24.9"/><rect class="cls-5" x="805.67" y="243.72" width="24.9" height="24.9"/><rect class="cls-5" x="880.38" y="193.92" width="24.9" height="24.9"/><rect class="cls-5" x="830.57" y="243.72" width="24.9" height="24.9"/><rect class="cls-5" x="855.48" y="243.72" width="24.9" height="24.9"/><rect class="cls-5" x="880.38" y="218.82" width="24.9" height="24.9"/><rect class="cls-5" x="880.38" y="243.72" width="24.9" height="24.9"/><rect class="cls-5" x="905.28" y="193.92" width="24.9" height="24.9"/><rect class="cls-5" x="905.28" y="218.82" width="24.9" height="24.9"/><rect class="cls-5" x="930.19" y="218.82" width="24.9" height="24.9"/><rect class="cls-5" x="905.28" y="243.72" width="24.9" height="24.9"/><rect class="cls-5" x="930.19" y="243.72" width="24.9" height="24.9"/><rect class="cls-5" x="955.09" y="218.82" width="24.9" height="24.9"/><rect class="cls-5" x="955.09" y="243.72" width="24.9" height="24.9"/><rect class="cls-5" x="980" y="193.92" width="24.9" height="24.9"/><rect class="cls-5" x="1004.9" y="193.92" width="24.9" height="24.9"/><rect class="cls-5" x="1029.81" y="193.92" width="24.9" height="24.9"/><rect class="cls-5" x="980" y="218.82" width="24.9" height="24.9"/><rect class="cls-5" x="1004.9" y="218.82" width="24.9" height="24.9"/><rect class="cls-5" x="980" y="243.72" width="24.9" height="24.9"/><rect class="cls-5" x="1004.9" y="243.72" width="24.9" height="24.9"/><rect class="cls-5" x="1029.81" y="218.82" width="24.9" height="24.9"/><rect class="cls-5" x="1029.81" y="143.68" width="24.9" height="24.9"/><rect class="cls-5" x="1004.9" y="168.58" width="24.9" height="24.9"/><rect class="cls-5" x="1029.81" y="168.58" width="24.9" height="24.9"/><rect class="cls-5" x="1029.81" y="243.72" width="24.9" height="24.9"/><rect class="cls-5" x="980" y="343.34" width="24.9" height="24.9"/><rect class="cls-5" x="1004.9" y="343.34" width="24.9" height="24.9"/><rect class="cls-5" x="980" y="368.25" width="24.9" height="24.9"/><rect class="cls-5" x="1004.9" y="368.25" width="24.9" height="24.9"/><rect class="cls-5" x="1029.81" y="343.34" width="24.9" height="24.9"/><rect class="cls-5" x="1029.81" y="368.25" width="24.9" height="24.9"/><rect class="cls-5" x="980" y="393.15" width="24.9" height="24.9"/><rect class="cls-5" x="1004.9" y="393.15" width="24.9" height="24.9"/><rect class="cls-5" x="980" y="418.05" width="24.9" height="24.9"/><rect class="cls-5" x="1004.9" y="418.05" width="24.9" height="24.9"/><rect class="cls-5" x="1029.81" y="393.15" width="24.9" height="24.9"/><rect class="cls-5" x="1029.81" y="418.05" width="24.9" height="24.9"/><rect class="cls-5" x="980" y="442.96" width="24.9" height="24.9"/><rect class="cls-5" x="1004.9" y="442.96" width="24.9" height="24.9"/><rect class="cls-5" x="980" y="467.86" width="24.9" height="24.9"/><rect class="cls-5" x="1004.9" y="467.86" width="24.9" height="24.9"/><rect class="cls-5" x="1029.81" y="442.96" width="24.9" height="24.9"/><rect class="cls-5" x="1029.81" y="467.86" width="24.9" height="24.9"/><rect class="cls-5" x="980" y="492.77" width="24.9" height="24.9"/><rect class="cls-5" x="1004.9" y="492.77" width="24.9" height="24.9"/><rect class="cls-5" x="980" y="517.67" width="24.9" height="24.9"/><rect class="cls-5" x="1004.9" y="517.67" width="24.9" height="24.9"/><rect class="cls-5" x="1029.81" y="492.77" width="24.9" height="24.9"/><rect class="cls-5" x="1029.81" y="517.67" width="24.9" height="24.9"/></g><polyline class="cls-6" points="68.9 251.51 68.9 108.59 255.57 108.59"/><rect class="cls-6" x="68.9" y="86.26" width="13.96" height="13.96"/><rect class="cls-6" x="91.67" y="86.26" width="13.96" height="13.96"/><rect class="cls-6" x="114.43" y="86.26" width="13.96" height="13.96"/><polyline class="cls-6" points="1061.69 379.83 1061.69 563.93 868.89 563.93"/><rect class="cls-6" x="1047.73" y="572.3" width="13.96" height="13.96" transform="translate(2109.42 1158.56) rotate(180)"/><rect class="cls-6" x="1024.96" y="572.3" width="13.96" height="13.96" transform="translate(2063.89 1158.56) rotate(180)"/><rect class="cls-6" x="1002.2" y="572.3" width="13.96" height="13.96" transform="translate(2018.35 1158.56) rotate(180)"/><rect class="cls-7" x="648.03" y="242.47" width="358.48" height="269.9" rx="15.05" transform="matrix(0.93, -0.36, 0.36, 0.93, -80.4, 323.07)"/><rect class="cls-8" x="672.7" y="322.29" width="18.72" height="222.3" rx="9.1" transform="translate(-110.3 274.56) rotate(-21.1)"/><rect class="cls-8" x="644.8" y="316.85" width="18.72" height="36.5" rx="9.36" transform="translate(731.34 -395.83) rotate(68.9)"/><rect class="cls-8" x="657.01" y="348.51" width="18.72" height="36.5" rx="9.36" transform="translate(768.69 -386.96) rotate(68.9)"/><rect class="cls-8" x="669.22" y="380.16" width="18.72" height="36.5" rx="9.36" transform="translate(806.04 -378.1) rotate(68.9)"/><rect class="cls-8" x="681.44" y="411.82" width="18.72" height="36.5" rx="9.36" transform="translate(843.39 -369.23) rotate(68.9)"/><rect class="cls-8" x="693.65" y="443.47" width="18.72" height="36.5" rx="9.36" transform="translate(880.74 -360.36) rotate(68.9)"/><rect class="cls-8" x="705.86" y="475.13" width="18.72" height="36.5" rx="9.36" transform="matrix(0.36, 0.93, -0.93, 0.36, 918.09, -351.5)"/><rect class="cls-8" x="718.08" y="506.79" width="18.72" height="36.5" rx="9.36" transform="translate(955.44 -342.63) rotate(68.9)"/><rect class="cls-9" x="935.52" y="407.11" width="78.09" height="12.11" rx="6.05" transform="translate(-83.4 378.49) rotate(-21.1)"/><rect class="cls-9" x="943.01" y="428.63" width="55.58" height="12.11" rx="5.11" transform="translate(-91.39 378.58) rotate(-21.1)"/><path class="cls-10" d="M946.82,398.45A37.27,37.27,0,0,1,903.62,386L807.4,423.13a37.2,37.2,0,1,1-71.52-10.45,37.21,37.21,0,1,1,47-54.31l95.38-36.79a37.21,37.21,0,1,1,71.31,8.65,37.2,37.2,0,0,1-2.77,68.22Z"/><path class="cls-11" d="M856.16,384.1c0-2.2-.18-4.44-2-5.92a77.18,77.18,0,0,0-6.5-4.4L840.43,369l-7-4.64c-2.2-1.46-4.51-2.82-5.82-5.2a12.77,12.77,0,0,1-1.29-5.86l-48.9,18.86a23.56,23.56,0,0,0-.81-2.46,26.32,26.32,0,1,0-21.7,35.65,26.33,26.33,0,1,0,40,11.83c-.1-.26-.21-.51-.32-.76l61.24-23.63,0-.82C856,389.35,856.18,386.72,856.16,384.1Z"/><path class="cls-11" d="M930.57,337.56a26.33,26.33,0,1,0-40-11.83,24,24,0,0,0,1.05,2.37l-58.84,22.7,0,1a13.27,13.27,0,0,0,.31,3.73,4.65,4.65,0,0,0,2.09,2.16c4.69,3.26,9.53,6.32,14.3,9.47,2.38,1.57,4.78,3.13,7.15,4.73a12.4,12.4,0,0,1,5.15,6.06c1,2.78.9,5.69.79,8.58l-.15,3.69,46.16-17.81c.09.26.18.52.28.78a26.32,26.32,0,1,0,21.7-35.65Z"/><g class="cls-12"><path class="cls-10" d="M770.48,369.69c.32.82.59,1.64.82,2.46l5.43-2.09c0-.13-.08-.25-.13-.37A26.32,26.32,0,0,0,749,353,26.29,26.29,0,0,1,770.48,369.69Z"/><path class="cls-10" d="M854.18,378.18a77.18,77.18,0,0,0-6.5-4.4L840.43,369l-7-4.64c-2.2-1.46-4.51-2.82-5.82-5.2a12.77,12.77,0,0,1-1.29-5.86l-5.94,2.29a10.16,10.16,0,0,0,1.11,3.57c1.31,2.38,3.62,3.74,5.82,5.2l7,4.64,7.25,4.79a77.18,77.18,0,0,1,6.5,4.4c1.8,1.48,2,3.72,2,5.92,0,2.62-.18,5.25-.28,7.86l0,.82-61.24,23.63c.11.25.22.5.32.76a26.35,26.35,0,0,1-21.47,35.63,26.32,26.32,0,0,0,27.59-35.63c-.1-.26-.21-.51-.32-.76l61.24-23.63,0-.82c.1-2.61.3-5.24.28-7.86C856.14,381.9,856,379.66,854.18,378.18Z"/><path class="cls-10" d="M907.77,370.38l-45.24,17.46c0,.8-.07,1.6-.1,2.4l46.15-17.81c-.19-.42-.36-.84-.53-1.27C908,370.9,907.86,370.64,907.77,370.38Z"/><path class="cls-10" d="M958,354.26a26.33,26.33,0,0,0-27.42-16.7A26.33,26.33,0,0,0,912,290.1a26.33,26.33,0,0,1,12.43,47.46,26.33,26.33,0,0,1,5.94,52.33A26.33,26.33,0,0,0,958,354.26Z"/></g><path class="cls-13" d="M1037.65,424.77,951.33,201a15.11,15.11,0,0,0-12-9.49,15,15,0,0,1,1.84,3.37l86.32,223.73a15.09,15.09,0,0,1-8.63,19.46L712.46,556.31a15,15,0,0,1-7.42.86,15.1,15.1,0,0,0,17.62,5.25L1029,444.22A15.08,15.08,0,0,0,1037.65,424.77Z"/><rect class="cls-14" x="186.42" y="266.93" width="106.21" height="311.22" transform="translate(-228.62 293.12) rotate(-45)"/><polygon class="cls-15" points="314.61 550.37 111.69 347.45 164.44 294.71 367.35 497.62 314.61 550.37"/><path class="cls-11" d="M142.32,321.48l6.88,2.28-.41-1.52-5.42,6.89a.92.92,0,0,0,.88,1.52c3.94-.94,5.71,4.68,7.69,7,1.25,1.46,2.83,1.83,4.39,2.83s2.11,2.94,3.29,4.26c3.85,4.3,11.35,3.93,15.06-.33a.91.91,0,0,0-1.29-1.28L160.52,355c-.88.82.39,2,1.28,1.29,2.93-2.34,7.42.06,10.4,1.12,3.15,1.12,7,2.12,9.52-.69l-1.28-1.29-4,4.76a.92.92,0,0,0-.15,1.1,52.73,52.73,0,0,0,22.36,17.82l-.54-1.34a7.4,7.4,0,0,0-.55,5.59.91.91,0,0,0,1.12.63,34.29,34.29,0,0,1,11.17-2.42l-.46-1.69a53.23,53.23,0,0,0-12.59,12.95c-.6.88.7,1.79,1.43,1.1,2.71-2.57,6.93-1.35,10.18-.79,3.41.57,7,.94,9.84-1.33L217,390.55a7.29,7.29,0,0,0-2.13,6.69c.46,2.89,2.41,5.24,4.37,7.29,4.28,4.46,8.8,9.05,14.52,11.59l-.45-.79a5.21,5.21,0,0,0,4,4.66c2.85.8,5.74-.55,8.26-1.75l-1.1-1.42-12.33,11.61a.91.91,0,0,0,.19,1.42c1.78,1,3.62.6,5.49.11a12.31,12.31,0,0,1,3.34-.62,10,10,0,0,1,3.43.87c3.3,1.3,7.53,3.14,10.45,0l-1.52-.88a8.92,8.92,0,0,1-2.83,4.44.94.94,0,0,0,0,1.29c4.66,5.54,9.17,11.27,14,16.64a6.18,6.18,0,0,0,6.41,2.12c2.35-.56,4.85-2.31,7.31-1.45l-.4-1.52-11.14,10.78c-.87.83.39,2,1.28,1.28,2.76-2.21,6.36-1.27,9.43-.36,3.27,1,6.56,2.18,10,2a.91.91,0,0,0,0-1.82c-2.66-.29-4.52,2.57-4.26,5,.38,3.46,3.94,6.17,6.17,8.5,2.75,2.88,5.43,5.88,8.31,8.64,2.27,2.17,5,4.14,8.18,4.47a8,8,0,0,0,7.89-3.63.91.91,0,0,0-1.43-1.1l-10.22,10.69c-.81.85.46,2.13,1.28,1.29,2.76-2.83,7.13-.52,9.91,1.07,3.2,1.83,7.09,3.61,10.62,1.57l-1.1-1.43a6.1,6.1,0,0,0-1.73,6c.56,2.59,2.6,4.54,4.56,6.17,5.33,4.42,10.75,8.74,16.12,13.11.9.74,2.19-.54,1.28-1.28l-13.94-11.35c-1.92-1.56-4.15-3.08-5.47-5.22-1.18-1.92-1.36-4.55.46-6.13.8-.69-.22-1.94-1.1-1.43-4,2.29-8.16-1.57-11.67-3.08-3-1.28-6.72-1.84-9.22.72l1.28,1.29,10.22-10.7-1.42-1.1c-1.48,2.57-4.81,3.26-7.51,2.48-3.47-1-6-4-8.42-6.47q-4.25-4.44-8.48-8.87c-1.12-1.19-2.44-2.5-2.73-4.18-.27-1.5.73-3.38,2.42-3.2v-1.82c-6.8.36-14.5-6.09-20.72-1.1l1.28,1.28,11.15-10.78a.92.92,0,0,0-.41-1.52c-2.22-.77-4.4.15-6.5.9a7.91,7.91,0,0,1-3.67.7c-1.4-.2-2.37-1.35-3.23-2.37-4.54-5.33-9-10.71-13.52-16.07v1.29a10.68,10.68,0,0,0,3.3-5.25.91.91,0,0,0-1.52-.88c-2.7,2.88-7,0-9.89-.94a9.46,9.46,0,0,0-4.95-.22c-1.8.4-3.9,1.44-5.68.49l.19,1.43,12.33-11.61c.79-.74-.22-1.85-1.11-1.43-1.87.89-4,1.95-6.15,1.7-1.61-.18-3.28-1.29-3.37-3a.9.9,0,0,0-.45-.78c-5-2.22-8.91-6-12.69-9.82-1.83-1.85-3.85-3.73-4.87-6.19a5.87,5.87,0,0,1,1.16-6.7c.9-.79-.39-2-1.28-1.29-2.92,2.3-7.21,1-10.5.44s-6.89-.81-9.53,1.69l1.43,1.1a50.91,50.91,0,0,1,11.94-12.3c.67-.49.52-1.74-.46-1.7a35.37,35.37,0,0,0-11.66,2.49l1.12.63a5.53,5.53,0,0,1,.37-4.18.94.94,0,0,0-.55-1.34,50.43,50.43,0,0,1-21.27-17l-.14,1.1,4-4.75c.75-.88-.48-2.16-1.28-1.29-2.56,2.79-6.94.52-9.82-.53-3.31-1.2-7.07-2.32-10.1.1l1.28,1.29,12.88-11.92-1.29-1.28a8.62,8.62,0,0,1-7.76,2.75,8.06,8.06,0,0,1-4-1.69c-1.24-1-1.84-2.51-2.8-3.76-1.13-1.48-2.64-1.83-4.16-2.77s-2.41-2.59-3.32-4.09c-1.63-2.69-4.14-5.49-7.61-4.66l.88,1.52,5.43-6.89a.92.92,0,0,0-.4-1.52l-6.87-2.28c-1.12-.37-1.6,1.38-.49,1.75Z"/><rect class="cls-14" x="224.24" y="204.63" width="106.21" height="311.22" transform="translate(-73 70.5) rotate(-12.82)"/><polygon class="cls-15" points="272.81 508.42 209.16 228.6 281.89 212.06 345.54 491.87 272.81 508.42"/><path class="cls-11" d="M248.94,223l4.61,5.59L254,227,245.68,230a.92.92,0,0,0,0,1.75c3.66,1.24,2.4,6.61,2.7,9.45.21,2,1.12,3.2,2,4.88s.42,3.82.75,5.77c1,5.73,7.53,9.35,13,7.73a.91.91,0,0,0-.49-1.75L246.4,261c-1,.18-.78,1.9.24,1.78,3.86-.43,6.3,3.78,8.36,6.4s4.77,5.57,8.52,4.55L263,272l-5.91,1.9a.94.94,0,0,0-.67.88,52.59,52.59,0,0,0,9.32,26.8l.33-1.24a7.4,7.4,0,0,0-3.41,4.43.92.92,0,0,0,.64,1.12,34.21,34.21,0,0,1,10.75,3.91l.46-1.69A53.32,53.32,0,0,0,257,312.4c-1,.43-.25,1.85.7,1.66,3.6-.72,6.51,2.53,8.93,4.69s5.35,4.58,8.91,4.21l-.24-1.79a7.24,7.24,0,0,0-5.27,4.4c-1.24,2.81-.79,5.94-.19,8.85,1.25,6,2.63,12.18,6.09,17.35v-.92A5.26,5.26,0,0,0,277,357.1c2,2,5.06,2.4,7.75,2.72l-.24-1.79-16.62,3.26a.92.92,0,0,0-.54,1.34,6.68,6.68,0,0,0,4.15,2.84c2.06.67,3.81,1.24,5.27,3,2.52,3,4.84,7.76,9.62,6.56l-.88-1.52a9.1,9.1,0,0,1-4.77,2.23.94.94,0,0,0-.64,1.12l1.58,11.4c.49,3.58.72,7.34,1.55,10.86a6,6,0,0,0,4.48,4.56c2.23.69,5.08.62,6.66,2.59l.4-1.52-15.18,3.19c-1,.21-.78,1.9.25,1.78,3.57-.41,6.06,2.09,8.26,4.57s4.45,5.45,7.54,7.17c.87.48,1.94-.77,1.1-1.43-2.95-2.32-6.52.5-6.95,3.69-.3,2.24.39,4.56.84,6.74l1.65,8.11c.88,4.29,1.46,9.19,4.52,12.57,2.44,2.7,6.51,3.93,9.83,2.19a.91.91,0,0,0-.7-1.66l-14.35,3.6c-1.13.29-.65,2,.49,1.76,4.36-1,6.69,4.36,8.41,7.36s4,5.7,7.54,5.82l-.24-1.79a6.1,6.1,0,0,0-4.61,4.13c-1,2.78-.06,5.79.84,8.46,2.12,6.31,4.27,12.62,6.4,18.92.37,1.11,2.13.63,1.75-.48l-5.36-15.85c-.85-2.54-2.08-5.23-2.22-7.94-.14-2.46,1-5.06,3.68-5.48,1.05-.17.74-1.76-.24-1.79-4.2-.14-5.82-5-7.67-8s-4.89-6-8.77-5.12l.49,1.76,14.34-3.61-.7-1.66c-2.84,1.49-6.27-.06-8.07-2.46-2.06-2.74-2.61-6.31-3.27-9.59q-1.17-5.67-2.32-11.36c-.35-1.73-.89-3.74-.21-5.45.5-1.23,2.33-2.59,3.62-1.58l1.1-1.43c-5.78-3.22-9-12.87-16.72-12l.24,1.78,15.17-3.19a.92.92,0,0,0,.4-1.52c-1.38-1.73-3.58-2.16-5.64-2.6a10.52,10.52,0,0,1-3.24-1.05,4.6,4.6,0,0,1-1.94-3.51c-1.2-7.11-2-14.31-3-21.44l-.63,1.12a10.76,10.76,0,0,0,5.57-2.7.91.91,0,0,0-.88-1.52c-4.27,1.07-6.24-4.72-8.72-7a10.36,10.36,0,0,0-4.13-2.18c-1.53-.48-3.3-.84-4.14-2.34l-.55,1.34L285,359.79c1.09-.22.69-1.68-.24-1.79-1.95-.23-4.09-.47-5.75-1.6-1.47-1-2.49-2.95-1.55-4.63a.92.92,0,0,0,0-.92c-2.92-4.36-4.24-9.43-5.37-14.49-1-4.31-2.7-12.36,3.65-13.44,1-.16.78-1.89-.24-1.78-3.82.4-6.65-2.83-9.25-5.14s-5.46-4.41-9.07-3.7l.7,1.67a50.9,50.9,0,0,1,16.65-4,.92.92,0,0,0,.45-1.7,35.49,35.49,0,0,0-11.18-4.1l.63,1.12a5.51,5.51,0,0,1,2.58-3.34.92.92,0,0,0,.32-1.25,50.67,50.67,0,0,1-9.07-25.88l-.67.87,5.92-1.89A.91.91,0,0,0,263,272c-3.59,1-6.09-3.24-7.94-5.62-2.07-2.67-4.69-5.81-8.45-5.38l.25,1.78,17.24-3.23-.49-1.75a8.61,8.61,0,0,1-8.33-2.13,7.77,7.77,0,0,1-2.24-3.64c-.46-1.77,0-3.62-.42-5.39s-2-3-2.34-4.79-.06-3.73-.18-5.58c-.17-2.67-1.26-5.39-4-6.3v1.75l8.26-2.94a.92.92,0,0,0,.4-1.52l-4.6-5.59c-.75-.9-2,.39-1.29,1.29Z"/><path class="cls-16" d="M417.07,178.93a21.2,21.2,0,1,0,21.2,21.19A21.2,21.2,0,0,0,417.07,178.93Zm0,30.26a9.07,9.07,0,1,1,9.07-9.07A9.08,9.08,0,0,1,417.07,209.19Z"/><g class="cls-17"><path class="cls-18" d="M417.07,178.93a21.6,21.6,0,0,0-3,.24,21.17,21.17,0,0,1,0,41.91,21.6,21.6,0,0,0,3,.24,21.2,21.2,0,1,0,0-42.39Z"/></g><rect class="cls-16" x="355.12" y="200.12" width="123.9" height="34.37" rx="6.72"/><path class="cls-19" d="M472.29,200.12H432.2S434.37,211,447.89,211h0c.42,0,.85.08,1.28.08h13.42a4.62,4.62,0,0,1,4.62,4.62,6.75,6.75,0,0,1-6.73,6.72H355.12v5.4a6.74,6.74,0,0,0,6.72,6.73H472.29a6.75,6.75,0,0,0,6.73-6.73V206.85A6.75,6.75,0,0,0,472.29,200.12Z"/><rect class="cls-20" x="273.73" y="222.37" width="286.67" height="343.38" rx="14.55"/><rect class="cls-21" x="281.75" y="287.11" width="270.63" height="213.91" rx="14.55" transform="translate(811.13 -23.01) rotate(90)"/><line class="cls-22" x1="376.62" y1="294.21" x2="495.78" y2="294.21"/><line class="cls-22" x1="376.62" y1="345.08" x2="495.78" y2="345.08"/><line class="cls-22" x1="376.62" y1="395.95" x2="495.78" y2="395.95"/><line class="cls-22" x1="326.64" y1="446.82" x2="495.78" y2="446.82"/><path class="cls-23" d="M466.38,226.38h74.81a14.54,14.54,0,0,1,14.55,14.55V551.78"/><circle class="cls-24" cx="341.8" cy="294.21" r="15.16"/><circle class="cls-24" cx="341.8" cy="345.08" r="15.16"/><circle class="cls-24" cx="341.8" cy="395.95" r="15.16"/><rect class="cls-25" x="466.38" y="252.58" width="272.99" height="222.51" rx="5.58"/><path class="cls-26" d="M733.79,252.58H671.43v4.24a4.24,4.24,0,0,0,4.24,4.24h45.38a6.19,6.19,0,0,1,6.19,6.19V457.38a5.6,5.6,0,0,1-5.58,5.58H466.38v6.54a5.59,5.59,0,0,0,5.57,5.58H733.79a5.6,5.6,0,0,0,5.58-5.58V258.15A5.59,5.59,0,0,0,733.79,252.58Z"/><path class="cls-27" d="M776.26,334.21A19.36,19.36,0,0,0,757,314.9H664.27A19.37,19.37,0,0,0,645,334.21h0a4.76,4.76,0,0,1-4.75,4.76H448.41a19.36,19.36,0,0,0-19.31,19.3V552.42a13.45,13.45,0,0,0,13.4,13.41H757a19.36,19.36,0,0,0,19.3-19.31v-193a13.42,13.42,0,0,0-.12-1.81,5.7,5.7,0,0,1,0-1.43,13.38,13.38,0,0,0,.12-1.8Z"/><path class="cls-28" d="M776.26,333.16c0-8-9.35-18.33-17.35-18.33l-31.67.07v4.16a3,3,0,0,0,3,3h24.4a7.08,7.08,0,0,1,7.09,7.09v6.1A3.74,3.74,0,0,1,758,339H684.72a3,3,0,0,0-3,3h0a3,3,0,0,0,3,3h68.4a8.59,8.59,0,0,1,8.59,8.6V533.67a17.58,17.58,0,0,1-17.53,17.53H432.47a3,3,0,0,0-2.9,3.68,14.61,14.61,0,0,0,14.08,10.87H758.73a17.57,17.57,0,0,0,17.53-17.53V353.44a14.21,14.21,0,0,0-.16-2.07,3.32,3.32,0,0,1,0-.89,14.24,14.24,0,0,0,.16-2.08Z"/><path class="cls-29" d="M376.62,204.58h-9.74a7,7,0,0,0-7,7v7.67"/><polygon class="cls-30" points="508.87 493.67 487.21 493.67 487.21 472.01 465.55 472.01 465.55 493.67 443.89 493.67 443.89 515.33 465.55 515.33 465.55 537 487.21 537 487.21 515.33 508.87 515.33 508.87 493.67"/><rect class="cls-31" x="482.36" y="472.01" width="4.85" height="21.66"/><rect class="cls-31" x="443.89" y="510.48" width="21.66" height="4.85"/><polygon class="cls-31" points="504.02 493.67 504.02 510.48 482.36 510.48 482.36 532.14 465.55 532.14 465.55 537 487.21 537 487.21 515.33 508.87 515.33 508.87 493.67 504.02 493.67"/><rect class="cls-32" x="445.21" y="358.21" width="12.13" height="89.64" rx="4.39"/><rect class="cls-32" x="467" y="473.46" width="3.6" height="20.21" rx="1.55"/><rect class="cls-32" x="445.51" y="495.4" width="3.6" height="12.5" rx="1.8"/><rect class="cls-32" x="478.72" y="260.43" width="12.13" height="68.22" rx="4.97"/><rect class="cls-33" x="882.72" y="180.38" width="12.13" height="92.01" rx="5.83" transform="translate(780.07 -684.31) rotate(68.9)"/><rect class="cls-32" x="649.57" y="323.5" width="5.09" height="14.26" rx="2.17"/><rect class="cls-32" x="310.11" y="281.47" width="12.13" height="68.22" rx="4.97"/><rect class="cls-34" x="281.69" y="235.15" width="12.13" height="117.62" rx="6.06"/><path class="cls-35" d="M255.31,377.84h18.84a15.79,15.79,0,0,1,15.79,15.79V402a0,0,0,0,1,0,0H239.52a0,0,0,0,1,0,0v-8.38A15.79,15.79,0,0,1,255.31,377.84Z"/><path class="cls-36" d="M289.93,391c0-7.28-8.46-13.19-18.9-13.19H258.42c-6,0-11.28,1.94-14.74,5a24.34,24.34,0,0,1,11.81-2.9H268.1c10.44,0,18.9,5.9,18.9,13.19V402h2.93Z"/><path class="cls-37" d="M251.54,393.18h26.38a12,12,0,0,1,12,12V543.78a23.27,23.27,0,0,1-23.27,23.27H262.8a23.27,23.27,0,0,1-23.27-23.27V405.2a12,12,0,0,1,12-12Z"/><path class="cls-38" d="M194.81,472.78h126.3a13.54,13.54,0,0,1,13.54,13.54V491a13.54,13.54,0,0,1-13.54,13.54h-106a20.32,20.32,0,0,1-20.32-20.32V472.78a0,0,0,0,1,0,0Z" transform="translate(753.37 223.92) rotate(90)"/><path class="cls-39" d="M188.43,459.55H329.66A17.36,17.36,0,0,1,347,476.91v3.56a17.36,17.36,0,0,1-17.36,17.36H188.43a6,6,0,0,1-6-6V465.55a6,6,0,0,1,6-6Z" transform="translate(743.42 213.96) rotate(90)"/><rect class="cls-37" x="229.67" y="393.18" width="70.12" height="12.15" rx="6.07"/><line class="cls-40" x1="239.52" y1="407.18" x2="289.93" y2="407.18"/><rect class="cls-41" x="244.41" y="411.83" width="10.31" height="56.03" rx="4.42"/><rect class="cls-42" x="268.59" y="444.31" width="17.51" height="88.66"/><rect class="cls-43" x="268.59" y="444.31" width="17.51" height="6.57"/><polygon class="cls-44" points="283.68 444.31 283.68 530.55 268.6 530.55 268.6 532.98 286.11 532.98 286.11 444.31 283.68 444.31"/><path class="cls-35" d="M432.43,529.76h18.84a15.79,15.79,0,0,1,15.79,15.79v8.38a0,0,0,0,1,0,0H416.65a0,0,0,0,1,0,0v-8.38a15.79,15.79,0,0,1,15.79-15.79Z" transform="translate(983.7 99.99) rotate(90)"/><path class="cls-36" d="M440.75,567.05c7.28,0,13.19-8.46,13.19-18.9V535.54c0-6-1.94-11.28-4.95-14.74a24.34,24.34,0,0,1,2.9,11.81v12.61c0,10.44-5.9,18.9-13.19,18.9h-8.93v2.93Z"/><path class="cls-37" d="M338.47,454.91h26.38a12,12,0,0,1,12,12V605.51a23.27,23.27,0,0,1-23.27,23.27h-3.87a23.27,23.27,0,0,1-23.27-23.27V466.93A12,12,0,0,1,338.47,454.91Z" transform="translate(893.51 190.18) rotate(90)"/><path class="cls-38" d="M273.22,526h126.3a13.54,13.54,0,0,1,13.54,13.54v4.64a13.54,13.54,0,0,1-13.54,13.54h-106a20.32,20.32,0,0,1-20.32-20.32V526A0,0,0,0,1,273.22,526Z" transform="translate(686.27 1083.69) rotate(180)"/><path class="cls-39" d="M276.8,522.7H418a17.36,17.36,0,0,1,17.36,17.36v3.56A17.36,17.36,0,0,1,418,561H276.8a6,6,0,0,1-6-6V528.71A6,6,0,0,1,276.8,522.7Z" transform="translate(706.18 1083.69) rotate(180)"/><rect class="cls-37" x="397.46" y="535.77" width="70.12" height="12.15" rx="6.07" transform="translate(974.37 109.32) rotate(90)"/><line class="cls-40" x1="424.6" y1="516.64" x2="424.6" y2="567.05"/><rect class="cls-41" x="386.78" y="498.68" width="10.31" height="56.03" rx="4.42" transform="translate(918.63 134.75) rotate(90)"/><rect class="cls-42" x="334.38" y="510.14" width="17.51" height="88.66" transform="translate(897.61 211.33) rotate(90)"/><rect class="cls-43" x="375.43" y="551.19" width="17.51" height="6.57" transform="translate(938.65 170.28) rotate(90)"/><polygon class="cls-44" points="387.47 560.8 301.23 560.8 301.23 545.71 298.81 545.71 298.81 563.23 387.47 563.23 387.47 560.8"/><rect class="cls-37" x="170.96" y="447.09" width="80.18" height="119.46" rx="12.24"/><rect class="cls-39" x="156.42" y="471.82" width="109.26" height="69.98" rx="7.14" transform="translate(717.86 295.77) rotate(90)"/><rect class="cls-45" x="162.57" y="445.19" width="96.96" height="18.67" rx="9.34"/><line class="cls-40" x1="170.96" y1="465.71" x2="251.14" y2="465.71"/><rect class="cls-42" x="229.94" y="483.85" width="21.2" height="65.48"/><rect class="cls-43" x="229.94" y="483.85" width="21.2" height="14.52"/><polygon class="cls-44" points="248.67 483.85 248.67 545.25 229.94 545.25 229.94 549.33 251.14 549.33 251.14 483.85 248.67 483.85"/><path class="cls-46" d="M255.68,447a9.26,9.26,0,0,1,1.81,5.49h0a9.36,9.36,0,0,1-9.34,9.33H169.87a9.26,9.26,0,0,1-5.49-1.8,9.33,9.33,0,0,0,7.53,3.84h78.28a9.37,9.37,0,0,0,9.34-9.33h0A9.34,9.34,0,0,0,255.68,447Z"/><rect class="cls-41" x="175.29" y="471.65" width="10.31" height="56.03" rx="4.42"/></g></g></svg>