<svg xmlns="http://www.w3.org/2000/svg" viewBox="0 0 1200 730"><defs><style>.cls-1{isolation:isolate;}.cls-2{fill:#999;}.cls-3{fill:#bdbdbd;}.cls-4{fill:#8e8e8e;}.cls-5{fill:#00acc1;}.cls-6{fill:#26c6da;}.cls-7{fill:#4dd0e1;}.cls-10,.cls-7,.cls-8,.cls-9{fill-rule:evenodd;}.cls-10,.cls-11,.cls-8{fill:#81d4fa;}.cls-11,.cls-8{opacity:0.6;mix-blend-mode:multiply;}.cls-9{fill:#b3e5fc;}.cls-12{fill:#848484;}.cls-13{fill:#0097a7;}</style></defs><g class="cls-1"><g id="Layer_1" data-name="Layer 1"><path class="cls-2" d="M899.28,544.29c-.06.36-.13.72-.22,1.07A9.66,9.66,0,0,0,899.28,544.29Z"/><path class="cls-2" d="M713,502.36c-9,4.8-24.4,4.45-35.28-.6V655.21s25.82,6.43,35.28,1l4.35-2.51V500Z"/><path class="cls-2" d="M899.37,543.2a7.36,7.36,0,0,1-.06.82A7.36,7.36,0,0,0,899.37,543.2Z"/><path class="cls-2" d="M899,545.53c-.09.29-.18.58-.29.86A8.69,8.69,0,0,0,899,545.53Z"/><path class="cls-3" d="M677.72,501.76c-.56-.26-1.12-.53-1.66-.81l-317-169c-6.25-3.34-9.3-7.65-9-11.68l-.33-.18V277.58l-.16-.09V458.41c0,4.16,2.54,9,5.66,10.81l322.5,186Z"/><path class="cls-4" d="M899.38,358.39v-.55l-.08,0a4.8,4.8,0,0,1,.05.52Z"/><path class="cls-4" d="M899.39,397.63l-.14-1.1c.65,3.67-1.38,7.26-6.25,9.86L717.35,500V653.69L895.09,551.18a9.34,9.34,0,0,0,3.63-4.79c.11-.28.2-.57.29-.86a1.54,1.54,0,0,1,0-.17c.09-.35.16-.71.22-1.07l0-.27a7.36,7.36,0,0,0,.06-.82c0-.07,0-.15,0-.22Z"/><path class="cls-5" d="M350.05,320.25c-.3,4,2.75,8.34,9,11.68l317,169c.54.28,1.1.55,1.66.81,10.88,5.05,26.28,5.4,35.28.6l4.35-2.32L893,406.39c4.87-2.6,6.9-6.19,6.25-9.86l.14,1.1h0V358.39h0c0,3.49-2,6.83-6.36,9.32L713,471.54c-9.46,5.45-26,4.77-36.94-1.53l-317-182.83c-5.29-3.05-8.28-6.86-8.9-10.6l-.43-.24v43.73Z"/><path class="cls-6" d="M359.05,287.18,676.06,470c10.92,6.3,27.48,7,36.94,1.53L893,367.72c4.32-2.49,6.39-5.83,6.36-9.32a4.8,4.8,0,0,0-.05-.52c-.27-4-3.26-8.17-9-11.46l-317-182.83c-10.92-6.3-27.48-7-36.94-1.53l-180,103.81c-4.88,2.82-6.91,6.72-6.25,10.71C350.77,280.32,353.76,284.13,359.05,287.18Z"/><path class="cls-7" d="M570.51,164.73c-9.67-5.57-24.33-6.18-32.71-1.35L378.39,255.32c-8.37,4.83-7.32,13.28,2.35,18.86l299.9,173c9.67,5.58,24.33,6.19,32.71,1.35l159.4-91.93c8.38-4.83,7.33-13.29-2.34-18.87Z"/><path class="cls-8" d="M580.13,227c-11-6.34-27.64-7-37.16-1.54l-58.88,34c-9.51,5.49-8.32,15.1,2.67,21.44s27.64,7,37.16,1.53l58.88-33.95C592.32,243,591.12,233.35,580.13,227Z"/><path class="cls-9" d="M507.78,283.48a40.55,40.55,0,0,1-19.7-4.89c-4.95-2.85-7.78-6.44-7.78-9.85s2.78-5.69,5.11-7l58.88-34c3.75-2.16,9-3.35,14.82-3.35a40.59,40.59,0,0,1,19.71,4.89c4.94,2.85,7.78,6.44,7.78,9.85s-2.78,5.69-5.11,7l-58.88,34c-3.75,2.16-9,3.35-14.82,3.35Z"/><path class="cls-10" d="M669.78,265c-3.48-2-8.74-2.22-11.76-.48L559.8,321.21c-3,1.73-2.64,4.77.84,6.78l119.19,68.74c3.48,2,8.75,2.23,11.76.49l98.23-56.65c3-1.74,2.63-4.78-.84-6.78Z"/><path class="cls-11" d="M789,333.79,669.78,265A13.68,13.68,0,0,0,659.32,264,11.84,11.84,0,0,1,661.9,265l119.19,68.75c3.48,2,3.86,5,.85,6.78l-98.23,56.65a7.32,7.32,0,0,1-1.3.58c3.16.92,6.85.77,9.18-.58l98.23-56.65C792.83,338.83,792.45,335.79,789,333.79Z"/><path class="cls-11" d="M578.82,229.29a40.59,40.59,0,0,0-19.71-4.89c-.86,0-1.71,0-2.54.08a39.66,39.66,0,0,1,17,4.81c5,2.85,7.78,6.44,7.78,9.85s-2.78,5.69-5.11,7l-58.88,34a28.56,28.56,0,0,1-12.28,3.27c.9.05,1.81.08,2.71.08h0c5.8,0,11.07-1.19,14.82-3.35l58.88-34c2.33-1.34,5.11-3.65,5.11-7S583.76,232.14,578.82,229.29Z"/><path class="cls-12" d="M899.37,442.36a7.33,7.33,0,0,1-.11,1.14c0,.14,0,.28-.08.42s-.11.46-.17.68l-.18.53c-.06.18-.14.34-.21.51s-.18.42-.29.63a1.19,1.19,0,0,0-.09.15,11.4,11.4,0,0,1-2,2.54l-.06.05a16,16,0,0,1-3.22,2.42l-2.15,1.24L883.41,457c-9.95,3.94-24.32,8.34-35,6.25v0c-9.49-4.69-26-1.89-44.83,8.95-18.41,10.62-34.66,26.45-44.24,41.79h0c-8,12.57-26.34,27.76-36,35.32l-10.32,6c-9.46,5.46-26,4.78-36.94-1.53L489.91,446.36a60.72,60.72,0,0,1,.66,8.73,41.45,41.45,0,0,1-2.11,13.69L676.06,577A41.63,41.63,0,0,0,693.57,582v.07l.1-.06h.05l.23.14v-.12c7.08.47,14-.69,19-3.57l29.55-17a69.28,69.28,0,0,1,19.33-3.12l0-.11c9.57.91,25.89-4.26,44.4-14.94,20-11.55,37.5-26.59,46.61-39.17l.18-.24.51-.73.37-.53a63.84,63.84,0,0,1,9.38-10.81L893,474.69c4.16-2.4,6.24-5.59,6.36-8.94h0V442.36Z"/><path class="cls-12" d="M416.33,403.92l-57.28-33a26.12,26.12,0,0,1-2.27-1.47l-7.39-4.26v18.32l.85.49c.77,3.6,3.72,7.25,8.81,10.18L417.78,428a67.45,67.45,0,0,1-2.1-16.12A47.58,47.58,0,0,1,416.33,403.92Z"/><path class="cls-13" d="M489.91,446.36c-3.25-22.8-18.49-47.44-36.79-58s-33.53-3.49-36.79,15.55a47.58,47.58,0,0,0-.65,8,67.45,67.45,0,0,0,2.1,16.12c5.12,20.54,19,41.19,35.34,50.61s30.23,4.8,35.34-9.85a41.45,41.45,0,0,0,2.11-13.69A60.72,60.72,0,0,0,489.91,446.36Zm-37,28.88c-18.78-10.84-34-38-34-60.65s15.25-32.23,34-21.39,34,38,34,60.64S471.69,486.07,452.91,475.24Z"/><path class="cls-6" d="M486.94,453.84c0-22.64-15.25-49.81-34-60.64s-34-1.25-34,21.39,15.25,49.81,34,60.65S486.94,476.48,486.94,453.84Z"/></g></g></svg>