<svg viewBox="0 0 223.97 183.87" xmlns="http://www.w3.org/2000/svg"><path d="m214.63 23.6h-4.87v-2.51a11.73 11.73 0 0 0 -11.71-11.72h-5.4a11.73 11.73 0 0 0 -11.47-9.37h-155.18a11.74 11.74 0 0 0 -11.75 11.72v16.74h4.68v-16.74a7 7 0 0 1 7-7h155.2a7 7 0 0 1 6.63 4.68h-145a11.74 11.74 0 0 0 -11.64 11.69v7.37h4.68v-7.37a7 7 0 0 1 7-7h155.25a7 7 0 0 1 7 7v2.51h-32.05a9.4 9.4 0 0 0 -9.41 9.4v4.44h-154.22a9.39 9.39 0 0 0 -9.37 9.34v127.72a9.4 9.4 0 0 0 9.37 9.37h205.24a9.39 9.39 0 0 0 9.39-9.37v-141.5a9.39 9.39 0 0 0 -9.37-9.4zm-2.48 119.4a5.64 5.64 0 0 1 -5.62 5.62h-14v14a5.64 5.64 0 0 1 -5.62 5.62h-2.8a5.65 5.65 0 0 1 -5.63-5.62v-14h-14a5.65 5.65 0 0 1 -5.61-5.64v-2.8a5.65 5.65 0 0 1 5.63-5.62h14v-14a5.65 5.65 0 0 1 5.6-5.56h2.8a5.64 5.64 0 0 1 5.62 5.62v14h14a5.64 5.64 0 0 1 5.62 5.62z" fill="#744fc6"/></svg>