<svg viewBox="0 0 224 173.42" xmlns="http://www.w3.org/2000/svg"><g fill="#4f86c6"><path d="m67.8 98.58c2 0 2.86-.55 3.37-2.54 4.68-18.04 9.47-36.14 14.24-54.21.15-.59.29-1.18.46-1.76a4.8 4.8 0 0 1 4.56-3.8 4.59 4.59 0 0 1 4.91 3.61c1.21 4.62 2.19 9.31 3.28 14l15.21 65.48c.14.58.33 1.14.7 2.39.85-4 1.59-7.43 2.28-10.83q3.75-18.3 7.44-36.63c.61-3 2.22-4.64 4.69-4.84a5.56 5.56 0 0 1 5.32 3.89c3.47 7.93 7 15.83 10.42 23.79.66 1.55 1.68 1.41 2.89 1.41h51c.38-.55.76-1.1 1.13-1.66a68.69 68.69 0 0 0 12.05-49.6 54.43 54.43 0 0 0 -86-36.75 80 80 0 0 0 -7.39 6.37c-1.2 1.13-2.44 2.28-3.75 3.43l-3 2.66-2.93-3.12-.81-.86a53 53 0 0 0 -40.68-18.92c-1.72 0-3.45.08-5.21.23a51 51 0 0 0 -42.18 26.57 61.19 61.19 0 0 0 -2.06 57.28 90.61 90.61 0 0 0 7.9 14.31q21.08.03 42.16.1z"/><path d="m143.74 108.31a6.38 6.38 0 0 1 -6.76-4.49 103.53 103.53 0 0 0 -6.15-12.82q-1.49 7.18-3 14.38l-8.16 39.74c-.63 3.07-2.21 4.55-4.77 4.6s-4.27-1.36-5-4.37q-9.33-39.94-18.63-79.9a8.79 8.79 0 0 0 -1.23-3.16q-3.28 12.39-6.56 24.8-2.22 8.37-4.45 16.73c-.87 3.24-2.23 4.38-5.47 4.38h-40.68c3.45 4.22 6.94 8 10.14 11.28a342.27 342.27 0 0 0 69.15 53.9 377 377 0 0 0 55.77-41 209.85 209.85 0 0 0 23.3-24.21q-23.74.08-47.5.14z"/><path d="m5.49 98.53a5 5 0 0 0 -5.49 4.37 3.55 3.55 0 0 0 0 .46 4.83 4.83 0 0 0 4.72 4.92h.67 17a115.43 115.43 0 0 1 -6.54-9.72z"/><path d="m221 99a9.25 9.25 0 0 0 -3.13-.42h-9.47c-.61 1-1.24 2-1.9 3-1.53 2.27-3.14 4.52-4.81 6.75h15.78a19.3 19.3 0 0 0 2.28-.07 4.76 4.76 0 0 0 4.22-4.13 4.69 4.69 0 0 0 -2.97-5.13z"/></g></svg>