<svg viewBox="0 0 190.18 225.38" xmlns="http://www.w3.org/2000/svg" xmlns:xlink="http://www.w3.org/1999/xlink"><linearGradient id="a" gradientTransform="matrix(5.57 0 0 -11.27 -750.39 26584.78)" gradientUnits="userSpaceOnUse" x1="150.07" x2="150.07" y1="2362.68" y2="2330.89"><stop offset=".18" stop-color="#92e0d2"/><stop offset="1" stop-color="#0a97b7"/></linearGradient><linearGradient id="b" gradientTransform="matrix(5.15 0 0 -11.27 -669.04 26584.92)" x1="133.82" x2="133.82" xlink:href="#a" y1="2362.68" y2="2330.89"/><linearGradient id="c" gradientTransform="matrix(23.3 0 0 -22 -4713.48 51262.35)" gradientUnits="userSpaceOnUse" x1="207" x2="207" y1="2329.45" y2="2319.15"><stop offset="0" stop-color="#31c4c3"/><stop offset=".18" stop-color="#92e0d2"/><stop offset="1" stop-color="#bdefeb"/></linearGradient><path d="m166 176.93a24.23 24.23 0 1 0 24.21 24.23 24.22 24.22 0 0 0 -24.21-24.23zm0 42.59a18.39 18.39 0 1 1 18.38-18.39 18.4 18.4 0 0 1 -18.38 18.39z" fill="#0a97b7"/><path d="m166 194.37a6.76 6.76 0 1 0 6.75 6.76 6.76 6.76 0 0 0 -6.75-6.76z" fill="#0a97b7"/><path d="m100.65 14a14 14 0 0 0 -13.91-14h-8.74a8.72 8.72 0 1 0 0 17.44h5.2v46h17.43z" fill="url(#a)"/><path d="m23.24 17.45h2.87a8.72 8.72 0 0 0 0-17.45h-6.35a14 14 0 0 0 -13.94 14v49.49h17.42z" fill="url(#b)"/><path d="m77.42 68.34a3.33 3.33 0 0 1 0 .63z" fill="#31c4c3"/><path d="m103.55 63.48h-23.23a2.91 2.91 0 0 0 -2.91 2.91v2.61a24.65 24.65 0 0 1 -23.5 24.16h-.68a24.22 24.22 0 0 1 -24.23-24.22v-2.58a2.91 2.91 0 0 0 -2.91-2.91h-23.18a2.91 2.91 0 0 0 -2.91 2.91v2.9a53.34 53.34 0 0 0 38.62 50.88v12.45a2.91 2.91 0 0 0 2.91 2.9h23.24a2.9 2.9 0 0 0 2.9-2.9v-12.4a53.33 53.33 0 0 0 38.77-50.91v-2.91a2.91 2.91 0 0 0 -2.89-2.89z" fill="#0a97b7"/><path d="m174.68 132.81a31.6 31.6 0 1 0 -63.2 0v49.05.57a25.28 25.28 0 0 1 -50.55 0v-43.89a2.9 2.9 0 0 0 -2.9-2.9h-11.62a2.9 2.9 0 0 0 -2.9 2.9v44.2.26a42.69 42.69 0 1 0 85.38-1.1v-49a14.18 14.18 0 0 1 28.36 0v32.54a2.9 2.9 0 0 0 2.9 2.91h11.62a2.9 2.9 0 0 0 2.9-2.91v-32.64z" fill="url(#c)"/></svg>