<svg viewBox="0 0 224.42 164.22" xmlns="http://www.w3.org/2000/svg"><g fill="#fbb13c"><path d="m100.61 98.64a65.71 65.71 0 0 1 52.25-64.23v-1.18a21.83 21.83 0 0 0 -19.53-21.71v3a10.69 10.69 0 0 1 -21.37 0v-3.12h-25.09v3.08a10.69 10.69 0 0 1 -21.37 0v-3.08h-25.1v3.08a10.69 10.69 0 0 1 -21.37 0v-2.88a21.82 21.82 0 0 0 -19.03 21.63v109.16a21.83 21.83 0 0 0 21.83 21.83h109.17a21.76 21.76 0 0 0 12.59-4 65.71 65.71 0 0 1 -42.98-61.58zm-80.49-63.19a2.63 2.63 0 0 1 2.63-2.63h107.4a2.63 2.63 0 1 1 0 5.26h-107.4a2.63 2.63 0 0 1 -2.63-2.63z"/><path d="m29.75 19.9a5.42 5.42 0 0 0 5.43-5.42v-9.06a5.43 5.43 0 0 0 -10.85 0v9.06a5.43 5.43 0 0 0 5.42 5.42z"/><path d="m122.64 19.9a5.42 5.42 0 0 0 5.42-5.42v-9.06a5.42 5.42 0 1 0 -10.84 0v9.06a5.42 5.42 0 0 0 5.42 5.42z"/><path d="m76.19 19.9a5.42 5.42 0 0 0 5.43-5.42v-9.06a5.42 5.42 0 1 0 -10.84 0v9.06a5.42 5.42 0 0 0 5.41 5.42z"/><path d="m166.2 40.41a58.22 58.22 0 0 0 -58.2 58.22 58.21 58.21 0 0 0 58.21 58.22 58.2 58.2 0 0 0 58.22-58.21 58.22 58.22 0 0 0 -58.21-58.22zm39.73 62.38h-39.73a4.16 4.16 0 0 1 -4.2-4.16v-32a4.16 4.16 0 0 1 4.16-4.16 4.16 4.16 0 0 1 4.16 4.16v27.84h35.58a4.16 4.16 0 1 1 0 8.32z"/></g></svg>