<svg viewBox="0 0 141.45 224" xmlns="http://www.w3.org/2000/svg"><circle cx="36.19" cy="120.03" fill="#5d4037" r="26.64"/><circle cx="106.17" cy="120.03" fill="#5d4037" r="26.64"/><path d="m22.91 84.45c.33 0-.71-6.77.42-10s2.83-6.2 3.37-9.54c1-6.09-1.82-13 1.63-18.13 3.6-5.32 11.79-5.2 16.3-9.76 3.28-3.3 4.32-8.79 8.5-10.82 2.61-1.28 5.72-.78 8.47.14s5.4 2.26 8.3 2.56c5.65.59 11.2-2.74 16.82-1.93a11.65 11.65 0 0 1 7.44 4.29c2.18 2.76 3.09 6.49 5.73 8.82 2.79 2.47 6.87 2.83 10 4.87a10.84 10.84 0 0 1 4.62 10.55c-.62 3.81-3.31 7.48-2.26 11.19.6 2 2.23 3.6 3.47 5.35a15.81 15.81 0 0 1 2.86 10.72l.23 1.2.07.41c2.61-.65 5.31.1 8 .6a.64.64 0 0 0 .06-.16 61.09 61.09 0 1 0 -117.42-23.72 60.67 60.67 0 0 0 4.89 24z" fill="#6d4c41"/><path d="m26 111.46a13.6 13.6 0 0 1 -2.58.24c-.28 0-.57 0-.86 0-7.34-.45-14-6.47-14-13.84 0-3.5-.21-8 1.92-10.48 1.83-2.1 5.59-2.94 9.11-3.24 1.1-.14 2.24-.14 3.27-.14l.05.48 1.87 18.2.41 3.92a23.86 23.86 0 0 0 .81 4.86z" fill="#fbe9e7"/><path d="m133.65 97.84c0 7.66-7.24 13.86-14.9 13.86h-.47a14.72 14.72 0 0 1 -2.84-.38 23.37 23.37 0 0 0 .77-5.88v-.52l.23-2 2.31-19c.77 0 1.61 0 2.49.06 3.86.2 8.39 1 10.45 3.34s1.96 7.02 1.96 10.52z" fill="#fbe9e7"/><path d="m30.83 105.18a1.5 1.5 0 0 1 -1.5-1.5 8.35 8.35 0 0 0 -8.33-8.34 8.23 8.23 0 0 0 -5.15 1.79 1.5 1.5 0 1 1 -1.85-2.36 11.22 11.22 0 0 1 7-2.43 11.35 11.35 0 0 1 11.34 11.34 1.5 1.5 0 0 1 -1.51 1.5z" fill="#ffccbc"/><path d="m12.17 86c1.56-.1 3.58 1.52 4.69 2.64 5.59 5.66 9.84 14.91 9.11 22.84.79-4.87 1.38-11.26 2.17-16.14a20.4 20.4 0 0 0 .38-5.34 20.08 20.08 0 0 0 -1.8-5.71 1.91 1.91 0 0 0 -.61-.91 2 2 0 0 0 -1.11-.25 31.44 31.44 0 0 0 -11.54 2.25z" fill="#fbe9e7"/><path d="m129.47 86c-1.56-.1-3.58 1.52-4.69 2.64-5.6 5.66-9.84 14.91-9.11 22.84-.79-4.87-1.38-11.26-2.17-16.14a20.4 20.4 0 0 1 -.38-5.34 20.08 20.08 0 0 1 1.8-5.71 1.91 1.91 0 0 1 .61-.91 2 2 0 0 1 1.14-.23 31.44 31.44 0 0 1 11.54 2.25z" fill="#fbe9e7"/><path d="m111.31 105.18a1.5 1.5 0 0 1 -1.5-1.5 11.35 11.35 0 0 1 11.34-11.34 11.22 11.22 0 0 1 7 2.43 1.5 1.5 0 1 1 -1.86 2.36 8.23 8.23 0 0 0 -5.15-1.79 8.35 8.35 0 0 0 -8.34 8.34 1.5 1.5 0 0 1 -1.49 1.5z" fill="#ffccbc"/><path d="m141.45 205.62v3.55c-4.76 3.31-11.08 5.88-18 7.87a175.79 175.79 0 0 1 -28.54 5.34l-3.77.4c-5.35.52-10.08.82-13.65 1h-.92c-2 .1-3.64.14-4.65.17h-1.23c-8.65-.09-16.25-.49-22.92-1.12-42.77-3.99-47.77-17.35-47.77-17.35a74 74 0 0 1 36.24-38.92 78.38 78.38 0 0 1 68.44-.23 74.08 74.08 0 0 1 36.77 39.29z" fill="#92e0d2"/><path d="m106.17 167.84-6.33 30.52-4.9 23.7-.09.4-3.64.26c-3.2.2-8.18.5-13.69.73h-.92l-4.65.16h-.81c-9.71.27-19.55.15-23.37-1.11l-.26-.09-11.68-55.08a3.92 3.92 0 0 1 .41-.82c2.95-4.74 16.34-11 16.34-11l36.77 1.14s6.3.47 15.33 9.64c.49.48.99 1 1.49 1.55z" fill="#84cec0"/><g fill="#fbe9e7"><path d="m89.35 156.63c-3.72 3.27-10.16 5.42-17.47 5.42-8.22 0-15.34-2.72-18.74-6.68a24.31 24.31 0 0 0 2.08-5.8 15.45 15.45 0 0 0 .23-6.14h30.48a8.33 8.33 0 0 0 -.1 6.3 27.92 27.92 0 0 0 3.52 6.9z"/><path d="m85.83 149.73a33.4 33.4 0 0 1 -30.61-.16 15.45 15.45 0 0 0 .23-6.14h30.48a8.33 8.33 0 0 0 -.1 6.3z"/><path d="m118.79 84-2.31 19a9.12 9.12 0 0 0 -.23 2l-.77 6.4c-3.09 11.93-15 22.48-25.71 29.86a33.45 33.45 0 0 1 -38.08 0c-10.69-7.44-22.57-17.93-25.69-29.8a23.86 23.86 0 0 1 -.78-4.88c0-.38 0-.75 0-1.14v-.2a9 9 0 0 0 -.38-2.58s-1.92-19.39-2-19.76c-.89-2.65-.37-5.71.58-8.4 1.13-3.18 2.83-6.2 3.37-9.54 1-6.09-1.82-13 1.63-18.13 3.6-5.32 11.79-5.2 16.3-9.76 3.28-3.3 4.32-8.79 8.5-10.82 2.61-1.28 5.72-.78 8.47.14s5.31 2.21 8.21 2.51c5.65.59 11.2-2.74 16.82-1.93a11.65 11.65 0 0 1 7.44 4.29c2.18 2.76 3.09 6.49 5.73 8.82 2.79 2.47 6.87 2.83 10 4.87a10.84 10.84 0 0 1 4.62 10.55c-.62 3.81-3.31 7.48-2.26 11.19.6 2 2.23 3.6 3.47 5.35a15.81 15.81 0 0 1 2.86 10.72z"/><path d="m115.83 111.81h-1l.06-.56.77-6.4 1 .06v.52a24.23 24.23 0 0 1 -.78 6z"/><path d="m24.69 106.62-.4-3.92 1-.19a9.18 9.18 0 0 1 .4 2.72v.2 1.1z"/><path d="m115.83 111.81h-1l.06-.56.77-6.4 1 .06v.52a24.23 24.23 0 0 1 -.78 6z"/><path d="m116.71 105-1-.07a9.59 9.59 0 0 1 .25-2.06l1 .18z"/><path d="m24.69 106.62-.4-3.92 1-.19a9.18 9.18 0 0 1 .4 2.72v.2 1.1z"/><path d="m116.71 105-1-.07a9.59 9.59 0 0 1 .25-2.06l1 .18z"/></g><path d="m70.54 107c-3.83 0-6.83-2.28-6.83-5.19a1.5 1.5 0 1 1 3 0c0 1 1.57 2.19 3.83 2.19s3.82-1.16 3.82-2.19a1.5 1.5 0 0 1 3 0c0 2.94-3 5.19-6.82 5.19z" fill="#ffccbc"/><path d="m70.53 121.53c-4.5 0-8.46-1.42-10.33-3.71a1.5 1.5 0 1 1 2.33-1.9c1.06 1.3 4 2.61 8 2.61s7-1.32 8-2.62a1.5 1.5 0 0 1 2.33 1.89c-1.86 2.3-5.81 3.73-10.33 3.73z" fill="#ffccbc"/><path d="m43.7 80.61-.22-.08a1.78 1.78 0 0 1 -.51-.35l-.06-.05a.33.33 0 0 0 -.16-.07.27.27 0 0 0 -.28.24 2.53 2.53 0 0 0 .08.87 2.7 2.7 0 0 0 .37.86 3.58 3.58 0 0 0 .84.9 5.48 5.48 0 0 1 .47-.9 3.78 3.78 0 0 1 -.53-1.42z" fill="#3e2723"/><path d="m47.08 80.32a2.6 2.6 0 0 1 .39.05 1.89 1.89 0 0 0 -1.24-.47 1.74 1.74 0 0 1 -.95-.23 1.46 1.46 0 0 1 -.41-.38 2.08 2.08 0 0 1 -.29-.55v-.08a.26.26 0 0 0 -.1-.13.26.26 0 0 0 -.36.08 2.6 2.6 0 0 0 -.35.8 2.84 2.84 0 0 0 -.08.93 1.26 1.26 0 0 0 0 .27 3.78 3.78 0 0 0 .54 1.39 3.47 3.47 0 0 1 2.85-1.68z" fill="#3e2723"/><path d="m47.47 80.37a2.6 2.6 0 0 0 -.39-.05 3.47 3.47 0 0 0 -2.85 1.68 5.48 5.48 0 0 0 -.47.9 5.91 5.91 0 0 0 -.45 2.26c0 2.68 1.69 4.87 3.77 4.87s3.76-2.19 3.76-4.87c0-2.49-1.48-4.54-3.37-4.79z" fill="#4e342e"/><path d="m99.16 80.15a.26.26 0 0 0 -.37 0l-.06.05a1.78 1.78 0 0 1 -.51.35l-.22.08a4.23 4.23 0 0 1 -.65 1.63 4.84 4.84 0 0 1 .39.83 3.69 3.69 0 0 0 1.04-1.09 2.7 2.7 0 0 0 .37-.86 2.53 2.53 0 0 0 .08-.87.3.3 0 0 0 -.07-.12z" fill="#3e2723"/><path d="m97.33 82.26a4.23 4.23 0 0 0 .67-1.65 1.26 1.26 0 0 0 0-.27 2.78 2.78 0 0 0 -.43-1.73.24.24 0 0 0 -.13-.11.26.26 0 0 0 -.33.16v.08a2.42 2.42 0 0 1 -.29.55 1.46 1.46 0 0 1 -.41.38 1.74 1.74 0 0 1 -1 .23 1.91 1.91 0 0 0 -1.18.42 3.54 3.54 0 0 1 3.1 1.94z" fill="#3e2723"/><path d="m94.34 80.32c-2.05 0-3.71 2.2-3.71 4.87s1.68 4.87 3.76 4.87 3.76-2.19 3.76-4.87a5.94 5.94 0 0 0 -.38-2.1 4.84 4.84 0 0 0 -.39-.83 3.54 3.54 0 0 0 -3.04-1.94z" fill="#4e342e"/><path d="m29.37 72a28.87 28.87 0 0 1 30.69-2.64 3.3 3.3 0 1 1 -3.06 5.83 2.07 2.07 0 0 1 -.35-.22 22.57 22.57 0 0 0 -12.4-3.92 24.23 24.23 0 0 0 -13.15 3.38 1.5 1.5 0 0 1 -1.73-2.43z" fill="#8d6e63"/><path d="m108.76 75.43a24.27 24.27 0 0 0 -13-4.24 22.7 22.7 0 0 0 -12.7 3.15 3.26 3.26 0 1 1 -3.42-5.54 2.68 2.68 0 0 1 .33-.18h.07a29 29 0 0 1 30.55 4.49 1.5 1.5 0 0 1 -1.85 2.36z" fill="#8d6e63"/><rect fill="#ffcdd2" height="9.34" rx="4.67" width="19.05" x="91.08" y="98.73"/><rect fill="#ffcdd2" height="9.34" rx="4.67" width="19.05" x="30.83" y="98.73"/></svg>