<svg xmlns="http://www.w3.org/2000/svg" viewBox="0 0 741.54 547.65"><defs><style>.cls-1{isolation:isolate;}.cls-2{opacity:0.33;}.cls-19,.cls-23,.cls-25,.cls-3,.cls-30{fill:none;}.cls-3{stroke:#ffb300;stroke-width:0.52px;}.cls-19,.cls-23,.cls-3{stroke-miterlimit:10;}.cls-27,.cls-4{fill:#e0e0e0;}.cls-5{fill:#eee;}.cls-6,.cls-9{font-size:12px;}.cls-14,.cls-6,.cls-9{fill:#757575;}.cls-6{font-family:Roboto-Bold, Roboto;font-weight:700;}.cls-7{letter-spacing:-0.04em;}.cls-8{letter-spacing:-0.06em;}.cls-9{font-family:Roboto-Regular, Roboto;}.cls-10,.cls-18{fill:#90a4ae;}.cls-11,.cls-17{fill:#f5f5f5;}.cls-12,.cls-13{fill:#ef5350;}.cls-13,.cls-15,.cls-17,.cls-18,.cls-22,.cls-23,.cls-27,.cls-29,.cls-33,.cls-39{mix-blend-mode:multiply;}.cls-16{fill:#ff5722;}.cls-19{stroke:#ffd54f;}.cls-20,.cls-29{fill:#bdbdbd;}.cls-21,.cls-22{fill:#ffd54f;}.cls-23{stroke:#cfd8dc;stroke-width:5.73px;}.cls-24{fill:#cfd8dc;}.cls-25{stroke:#ffecb3;stroke-linecap:round;stroke-linejoin:round;stroke-width:9.83px;}.cls-26{opacity:0.63;}.cls-28{opacity:0.46;}.cls-31{fill:#e57373;}.cls-32{fill:#bbdefb;}.cls-33{fill:#ede7f6;}.cls-34,.cls-40{fill:#fafafa;}.cls-35{fill:#b3e5fc;}.cls-36,.cls-39{fill:#303f9f;}.cls-37{fill:#ffc107;}.cls-38{fill:#9575cd;}.cls-40{opacity:0.49;}</style></defs><g class="cls-1"><g id="Layer_1" data-name="Layer 1"><g class="cls-2"><rect class="cls-3" x="51.82" y="163.96" width="24.58" height="24.58"/><rect class="cls-3" x="76.41" y="163.96" width="24.58" height="24.58"/><rect class="cls-3" x="51.82" y="188.55" width="24.58" height="24.58"/><rect class="cls-3" x="76.41" y="188.55" width="24.58" height="24.58"/><rect class="cls-3" x="51.82" y="114.79" width="24.58" height="24.58"/><rect class="cls-3" x="51.82" y="139.38" width="24.58" height="24.58"/><rect class="cls-3" x="76.41" y="139.38" width="24.58" height="24.58"/><rect class="cls-3" x="51.82" y="213.13" width="24.58" height="24.58"/><rect class="cls-3" x="76.41" y="213.13" width="24.58" height="24.58"/><rect class="cls-3" x="100.99" y="188.55" width="24.58" height="24.58"/><rect class="cls-3" x="100.99" y="213.13" width="24.58" height="24.58"/><rect class="cls-3" x="51.82" y="237.71" width="24.58" height="24.58"/><rect class="cls-3" x="76.41" y="237.71" width="24.58" height="24.58"/><rect class="cls-3" x="51.82" y="262.3" width="24.58" height="24.58"/><rect class="cls-3" x="76.41" y="262.3" width="24.58" height="24.58"/><rect class="cls-3" x="100.99" y="237.71" width="24.58" height="24.58"/><rect class="cls-3" x="100.99" y="262.3" width="24.58" height="24.58"/><rect class="cls-3" x="51.82" y="286.88" width="24.58" height="24.58"/><rect class="cls-3" x="76.41" y="286.88" width="24.58" height="24.58"/><rect class="cls-3" x="51.82" y="311.47" width="24.58" height="24.58"/><rect class="cls-3" x="76.41" y="311.47" width="24.58" height="24.58"/><rect class="cls-3" x="100.99" y="286.88" width="24.58" height="24.58"/><rect class="cls-3" x="100.99" y="311.47" width="24.58" height="24.58"/><rect class="cls-3" x="51.82" y="336.05" width="24.58" height="24.58"/><rect class="cls-3" x="76.41" y="336.05" width="24.58" height="24.58"/><rect class="cls-3" x="51.82" y="360.64" width="24.58" height="24.58"/><rect class="cls-3" x="76.41" y="360.64" width="24.58" height="24.58"/><rect class="cls-3" x="100.99" y="336.05" width="24.58" height="24.58"/><rect class="cls-3" x="100.99" y="360.64" width="24.58" height="24.58"/><rect class="cls-3" x="51.82" y="385.22" width="24.58" height="24.58"/><rect class="cls-3" x="76.41" y="385.22" width="24.58" height="24.58"/><rect class="cls-3" x="51.82" y="409.81" width="24.58" height="24.58"/><rect class="cls-3" x="76.41" y="409.81" width="24.58" height="24.58"/><rect class="cls-3" x="100.99" y="385.22" width="24.58" height="24.58"/><rect class="cls-3" x="100.99" y="409.81" width="24.58" height="24.58"/><rect class="cls-3" x="51.82" y="434.39" width="24.58" height="24.58"/><rect class="cls-3" x="76.41" y="434.39" width="24.58" height="24.58"/><rect class="cls-3" x="51.82" y="458.98" width="24.58" height="24.58"/><rect class="cls-3" x="76.41" y="458.98" width="24.58" height="24.58"/><rect class="cls-3" x="100.99" y="434.39" width="24.58" height="24.58"/><rect class="cls-3" x="100.99" y="458.98" width="24.58" height="24.58"/><rect class="cls-3" x="125.58" y="213.13" width="24.58" height="24.58"/><rect class="cls-3" x="150.16" y="213.13" width="24.58" height="24.58"/><rect class="cls-3" x="174.75" y="213.13" width="24.58" height="24.58"/><rect class="cls-3" x="125.58" y="237.71" width="24.58" height="24.58"/><rect class="cls-3" x="150.16" y="237.71" width="24.58" height="24.58"/><rect class="cls-3" x="125.58" y="262.3" width="24.58" height="24.58"/><rect class="cls-3" x="150.16" y="262.3" width="24.58" height="24.58"/><rect class="cls-3" x="174.75" y="237.71" width="24.58" height="24.58"/><rect class="cls-3" x="174.75" y="262.3" width="24.58" height="24.58"/><rect class="cls-3" x="125.58" y="286.88" width="24.58" height="24.58"/><rect class="cls-3" x="150.16" y="286.88" width="24.58" height="24.58"/><rect class="cls-3" x="125.58" y="311.47" width="24.58" height="24.58"/><rect class="cls-3" x="150.16" y="311.47" width="24.58" height="24.58"/><rect class="cls-3" x="174.75" y="286.88" width="24.58" height="24.58"/><rect class="cls-3" x="174.75" y="311.47" width="24.58" height="24.58"/><rect class="cls-3" x="125.58" y="336.05" width="24.58" height="24.58"/><rect class="cls-3" x="150.16" y="336.05" width="24.58" height="24.58"/><rect class="cls-3" x="125.58" y="360.64" width="24.58" height="24.58"/><rect class="cls-3" x="150.16" y="360.64" width="24.58" height="24.58"/><rect class="cls-3" x="174.75" y="336.05" width="24.58" height="24.58"/><rect class="cls-3" x="174.75" y="360.64" width="24.58" height="24.58"/><rect class="cls-3" x="125.58" y="385.22" width="24.58" height="24.58"/><rect class="cls-3" x="150.16" y="385.22" width="24.58" height="24.58"/><rect class="cls-3" x="125.58" y="409.81" width="24.58" height="24.58"/><rect class="cls-3" x="150.16" y="409.81" width="24.58" height="24.58"/><rect class="cls-3" x="174.75" y="385.22" width="24.58" height="24.58"/><rect class="cls-3" x="174.75" y="409.81" width="24.58" height="24.58"/><rect class="cls-3" x="125.58" y="434.39" width="24.58" height="24.58"/><rect class="cls-3" x="150.16" y="434.39" width="24.58" height="24.58"/><rect class="cls-3" x="125.58" y="458.98" width="24.58" height="24.58"/><rect class="cls-3" x="150.16" y="458.98" width="24.58" height="24.58"/><rect class="cls-3" x="174.75" y="434.39" width="24.58" height="24.58"/><rect class="cls-3" x="174.75" y="458.98" width="24.58" height="24.58"/><rect class="cls-3" x="199.33" y="213.13" width="24.58" height="24.58"/><rect class="cls-3" x="223.92" y="213.13" width="24.58" height="24.58"/><rect class="cls-3" x="248.5" y="213.13" width="24.58" height="24.58"/><rect class="cls-3" x="199.33" y="237.71" width="24.58" height="24.58"/><rect class="cls-3" x="223.92" y="237.71" width="24.58" height="24.58"/><rect class="cls-3" x="199.33" y="262.3" width="24.58" height="24.58"/><rect class="cls-3" x="223.92" y="262.3" width="24.58" height="24.58"/><rect class="cls-3" x="248.5" y="237.71" width="24.58" height="24.58"/><rect class="cls-3" x="248.5" y="262.3" width="24.58" height="24.58"/><rect class="cls-3" x="199.33" y="286.88" width="24.58" height="24.58"/><rect class="cls-3" x="223.92" y="286.88" width="24.58" height="24.58"/><rect class="cls-3" x="199.33" y="311.47" width="24.58" height="24.58"/><rect class="cls-3" x="223.92" y="311.47" width="24.58" height="24.58"/><rect class="cls-3" x="248.5" y="286.88" width="24.58" height="24.58"/><rect class="cls-3" x="248.5" y="311.47" width="24.58" height="24.58"/><rect class="cls-3" x="199.33" y="336.05" width="24.58" height="24.58"/><rect class="cls-3" x="223.92" y="336.05" width="24.58" height="24.58"/><rect class="cls-3" x="199.33" y="360.64" width="24.58" height="24.58"/><rect class="cls-3" x="223.92" y="360.64" width="24.58" height="24.58"/><rect class="cls-3" x="248.5" y="336.05" width="24.58" height="24.58"/><rect class="cls-3" x="248.5" y="360.64" width="24.58" height="24.58"/><rect class="cls-3" x="199.33" y="385.22" width="24.58" height="24.58"/><rect class="cls-3" x="223.92" y="385.22" width="24.58" height="24.58"/><rect class="cls-3" x="199.33" y="409.81" width="24.58" height="24.58"/><rect class="cls-3" x="223.92" y="409.81" width="24.58" height="24.58"/><rect class="cls-3" x="248.5" y="385.22" width="24.58" height="24.58"/><rect class="cls-3" x="248.5" y="409.81" width="24.58" height="24.58"/><rect class="cls-3" x="199.33" y="434.39" width="24.58" height="24.58"/><rect class="cls-3" x="223.92" y="434.39" width="24.58" height="24.58"/><rect class="cls-3" x="199.33" y="458.98" width="24.58" height="24.58"/><rect class="cls-3" x="223.92" y="458.98" width="24.58" height="24.58"/><rect class="cls-3" x="248.5" y="434.39" width="24.58" height="24.58"/><rect class="cls-3" x="248.5" y="458.98" width="24.58" height="24.58"/><rect class="cls-3" x="273.09" y="213.13" width="24.58" height="24.58"/><rect class="cls-3" x="297.67" y="213.13" width="24.58" height="24.58"/><rect class="cls-3" x="322.26" y="213.13" width="24.58" height="24.58"/><rect class="cls-3" x="273.09" y="237.71" width="24.58" height="24.58"/><rect class="cls-3" x="297.67" y="237.71" width="24.58" height="24.58"/><rect class="cls-3" x="273.09" y="262.3" width="24.58" height="24.58"/><rect class="cls-3" x="297.67" y="262.3" width="24.58" height="24.58"/><rect class="cls-3" x="322.26" y="237.71" width="24.58" height="24.58"/><rect class="cls-3" x="322.26" y="262.3" width="24.58" height="24.58"/><rect class="cls-3" x="273.09" y="286.88" width="24.58" height="24.58"/><rect class="cls-3" x="297.67" y="286.88" width="24.58" height="24.58"/><rect class="cls-3" x="273.09" y="311.47" width="24.58" height="24.58"/><rect class="cls-3" x="297.67" y="311.47" width="24.58" height="24.58"/><rect class="cls-3" x="322.26" y="286.88" width="24.58" height="24.58"/><rect class="cls-3" x="322.26" y="311.47" width="24.58" height="24.58"/><rect class="cls-3" x="273.09" y="336.05" width="24.58" height="24.58"/><rect class="cls-3" x="297.67" y="336.05" width="24.58" height="24.58"/><rect class="cls-3" x="273.09" y="360.64" width="24.58" height="24.58"/><rect class="cls-3" x="297.67" y="360.64" width="24.58" height="24.58"/><rect class="cls-3" x="322.26" y="336.05" width="24.58" height="24.58"/><rect class="cls-3" x="322.26" y="360.64" width="24.58" height="24.58"/><rect class="cls-3" x="273.09" y="385.22" width="24.58" height="24.58"/><rect class="cls-3" x="297.67" y="385.22" width="24.58" height="24.58"/><rect class="cls-3" x="273.09" y="409.81" width="24.58" height="24.58"/><rect class="cls-3" x="297.67" y="409.81" width="24.58" height="24.58"/><rect class="cls-3" x="322.26" y="385.22" width="24.58" height="24.58"/><rect class="cls-3" x="322.26" y="409.81" width="24.58" height="24.58"/><rect class="cls-3" x="273.09" y="434.39" width="24.58" height="24.58"/><rect class="cls-3" x="297.67" y="434.39" width="24.58" height="24.58"/><rect class="cls-3" x="273.09" y="458.98" width="24.58" height="24.58"/><rect class="cls-3" x="297.67" y="458.98" width="24.58" height="24.58"/><rect class="cls-3" x="322.26" y="434.39" width="24.58" height="24.58"/><rect class="cls-3" x="322.26" y="458.98" width="24.58" height="24.58"/><rect class="cls-3" x="346.84" y="213.13" width="24.58" height="24.58"/><rect class="cls-3" x="371.43" y="213.13" width="24.58" height="24.58"/><rect class="cls-3" x="396.01" y="213.13" width="24.58" height="24.58"/><rect class="cls-3" x="346.84" y="237.71" width="24.58" height="24.58"/><rect class="cls-3" x="371.43" y="237.71" width="24.58" height="24.58"/><rect class="cls-3" x="346.84" y="262.3" width="24.58" height="24.58"/><rect class="cls-3" x="371.43" y="262.3" width="24.58" height="24.58"/><rect class="cls-3" x="396.01" y="237.71" width="24.58" height="24.58"/><rect class="cls-3" x="396.01" y="262.3" width="24.58" height="24.58"/><rect class="cls-3" x="346.84" y="286.88" width="24.58" height="24.58"/><rect class="cls-3" x="371.43" y="286.88" width="24.58" height="24.58"/><rect class="cls-3" x="346.84" y="311.47" width="24.58" height="24.58"/><rect class="cls-3" x="371.43" y="311.47" width="24.58" height="24.58"/><rect class="cls-3" x="396.01" y="286.88" width="24.58" height="24.58"/><rect class="cls-3" x="396.01" y="311.47" width="24.58" height="24.58"/><rect class="cls-3" x="346.84" y="336.05" width="24.58" height="24.58"/><rect class="cls-3" x="371.43" y="336.05" width="24.58" height="24.58"/><rect class="cls-3" x="346.84" y="360.64" width="24.58" height="24.58"/><rect class="cls-3" x="371.43" y="360.64" width="24.58" height="24.58"/><rect class="cls-3" x="396.01" y="336.05" width="24.58" height="24.58"/><rect class="cls-3" x="396.01" y="360.64" width="24.58" height="24.58"/><rect class="cls-3" x="346.84" y="385.22" width="24.58" height="24.58"/><rect class="cls-3" x="371.43" y="385.22" width="24.58" height="24.58"/><rect class="cls-3" x="346.84" y="409.81" width="24.58" height="24.58"/><rect class="cls-3" x="371.43" y="409.81" width="24.58" height="24.58"/><rect class="cls-3" x="396.01" y="385.22" width="24.58" height="24.58"/><rect class="cls-3" x="396.01" y="409.81" width="24.58" height="24.58"/><rect class="cls-3" x="346.84" y="434.39" width="24.58" height="24.58"/><rect class="cls-3" x="371.43" y="434.39" width="24.58" height="24.58"/><rect class="cls-3" x="346.84" y="458.98" width="24.58" height="24.58"/><rect class="cls-3" x="371.43" y="458.98" width="24.58" height="24.58"/><rect class="cls-3" x="396.01" y="434.39" width="24.58" height="24.58"/><rect class="cls-3" x="396.01" y="458.98" width="24.58" height="24.58"/><rect class="cls-3" x="420.6" y="213.13" width="24.58" height="24.58"/><rect class="cls-3" x="445.18" y="213.13" width="24.58" height="24.58"/><rect class="cls-3" x="469.77" y="213.13" width="24.58" height="24.58"/><rect class="cls-3" x="420.6" y="237.71" width="24.58" height="24.58"/><rect class="cls-3" x="445.18" y="237.71" width="24.58" height="24.58"/><rect class="cls-3" x="420.6" y="262.3" width="24.58" height="24.58"/><rect class="cls-3" x="445.18" y="262.3" width="24.58" height="24.58"/><rect class="cls-3" x="469.77" y="237.71" width="24.58" height="24.58"/><rect class="cls-3" x="469.77" y="262.3" width="24.58" height="24.58"/><rect class="cls-3" x="420.6" y="286.88" width="24.58" height="24.58"/><rect class="cls-3" x="445.18" y="286.88" width="24.58" height="24.58"/><rect class="cls-3" x="420.6" y="311.47" width="24.58" height="24.58"/><rect class="cls-3" x="445.18" y="311.47" width="24.58" height="24.58"/><rect class="cls-3" x="469.77" y="286.88" width="24.58" height="24.58"/><rect class="cls-3" x="469.77" y="311.47" width="24.58" height="24.58"/><rect class="cls-3" x="420.6" y="336.05" width="24.58" height="24.58"/><rect class="cls-3" x="445.18" y="336.05" width="24.58" height="24.58"/><rect class="cls-3" x="420.6" y="360.64" width="24.58" height="24.58"/><rect class="cls-3" x="445.18" y="360.64" width="24.58" height="24.58"/><rect class="cls-3" x="469.77" y="336.05" width="24.58" height="24.58"/><rect class="cls-3" x="469.77" y="360.64" width="24.58" height="24.58"/><rect class="cls-3" x="420.6" y="385.22" width="24.58" height="24.58"/><rect class="cls-3" x="445.18" y="385.22" width="24.58" height="24.58"/><rect class="cls-3" x="420.6" y="409.81" width="24.58" height="24.58"/><rect class="cls-3" x="445.18" y="409.81" width="24.58" height="24.58"/><rect class="cls-3" x="469.77" y="385.22" width="24.58" height="24.58"/><rect class="cls-3" x="469.77" y="409.81" width="24.58" height="24.58"/><rect class="cls-3" x="420.6" y="434.39" width="24.58" height="24.58"/><rect class="cls-3" x="445.18" y="434.39" width="24.58" height="24.58"/><rect class="cls-3" x="420.6" y="458.98" width="24.58" height="24.58"/><rect class="cls-3" x="445.18" y="458.98" width="24.58" height="24.58"/><rect class="cls-3" x="469.77" y="434.39" width="24.58" height="24.58"/><rect class="cls-3" x="469.77" y="458.98" width="24.58" height="24.58"/><rect class="cls-3" x="494.35" y="213.13" width="24.58" height="24.58"/><rect class="cls-3" x="518.94" y="213.13" width="24.58" height="24.58"/><rect class="cls-3" x="543.52" y="213.13" width="24.58" height="24.58"/><rect class="cls-3" x="494.35" y="237.71" width="24.58" height="24.58"/><rect class="cls-3" x="518.94" y="237.71" width="24.58" height="24.58"/><rect class="cls-3" x="494.35" y="262.3" width="24.58" height="24.58"/><rect class="cls-3" x="518.94" y="262.3" width="24.58" height="24.58"/><rect class="cls-3" x="543.52" y="237.71" width="24.58" height="24.58"/><rect class="cls-3" x="543.52" y="262.3" width="24.58" height="24.58"/><rect class="cls-3" x="494.35" y="286.88" width="24.58" height="24.58"/><rect class="cls-3" x="518.94" y="286.88" width="24.58" height="24.58"/><rect class="cls-3" x="494.35" y="311.47" width="24.58" height="24.58"/><rect class="cls-3" x="518.94" y="311.47" width="24.58" height="24.58"/><rect class="cls-3" x="543.52" y="286.88" width="24.58" height="24.58"/><rect class="cls-3" x="543.52" y="311.47" width="24.58" height="24.58"/><rect class="cls-3" x="494.35" y="336.05" width="24.58" height="24.58"/><rect class="cls-3" x="518.94" y="336.05" width="24.58" height="24.58"/><rect class="cls-3" x="494.35" y="360.64" width="24.58" height="24.58"/><rect class="cls-3" x="518.94" y="360.64" width="24.58" height="24.58"/><rect class="cls-3" x="543.52" y="336.05" width="24.58" height="24.58"/><rect class="cls-3" x="543.52" y="360.64" width="24.58" height="24.58"/><rect class="cls-3" x="494.35" y="385.22" width="24.58" height="24.58"/><rect class="cls-3" x="518.94" y="385.22" width="24.58" height="24.58"/><rect class="cls-3" x="494.35" y="409.81" width="24.58" height="24.58"/><rect class="cls-3" x="518.94" y="409.81" width="24.58" height="24.58"/><rect class="cls-3" x="543.52" y="385.22" width="24.58" height="24.58"/><rect class="cls-3" x="543.52" y="409.81" width="24.58" height="24.58"/><rect class="cls-3" x="494.35" y="434.39" width="24.58" height="24.58"/><rect class="cls-3" x="518.94" y="434.39" width="24.58" height="24.58"/><rect class="cls-3" x="494.35" y="458.98" width="24.58" height="24.58"/><rect class="cls-3" x="518.94" y="458.98" width="24.58" height="24.58"/><rect class="cls-3" x="543.52" y="434.39" width="24.58" height="24.58"/><rect class="cls-3" x="543.52" y="458.98" width="24.58" height="24.58"/><rect class="cls-3" x="568.11" y="213.13" width="24.58" height="24.58"/><rect class="cls-3" x="592.69" y="213.13" width="24.58" height="24.58"/><rect class="cls-3" x="617.28" y="213.13" width="24.58" height="24.58"/><rect class="cls-3" x="568.11" y="237.71" width="24.58" height="24.58"/><rect class="cls-3" x="592.69" y="237.71" width="24.58" height="24.58"/><rect class="cls-3" x="568.11" y="262.3" width="24.58" height="24.58"/><rect class="cls-3" x="592.69" y="262.3" width="24.58" height="24.58"/><rect class="cls-3" x="617.28" y="237.71" width="24.58" height="24.58"/><rect class="cls-3" x="617.28" y="262.3" width="24.58" height="24.58"/><rect class="cls-3" x="568.11" y="286.88" width="24.58" height="24.58"/><rect class="cls-3" x="592.69" y="286.88" width="24.58" height="24.58"/><rect class="cls-3" x="568.11" y="311.47" width="24.58" height="24.58"/><rect class="cls-3" x="592.69" y="311.47" width="24.58" height="24.58"/><rect class="cls-3" x="617.28" y="286.88" width="24.58" height="24.58"/><rect class="cls-3" x="617.28" y="311.47" width="24.58" height="24.58"/><rect class="cls-3" x="568.11" y="336.05" width="24.58" height="24.58"/><rect class="cls-3" x="592.69" y="336.05" width="24.58" height="24.58"/><rect class="cls-3" x="568.11" y="360.64" width="24.58" height="24.58"/><rect class="cls-3" x="592.69" y="360.64" width="24.58" height="24.58"/><rect class="cls-3" x="617.28" y="336.05" width="24.58" height="24.58"/><rect class="cls-3" x="617.28" y="360.64" width="24.58" height="24.58"/><rect class="cls-3" x="568.11" y="385.22" width="24.58" height="24.58"/><rect class="cls-3" x="592.69" y="385.22" width="24.58" height="24.58"/><rect class="cls-3" x="568.11" y="409.81" width="24.58" height="24.58"/><rect class="cls-3" x="592.69" y="409.81" width="24.58" height="24.58"/><rect class="cls-3" x="617.28" y="385.22" width="24.58" height="24.58"/><rect class="cls-3" x="617.28" y="409.81" width="24.58" height="24.58"/><rect class="cls-3" x="568.11" y="434.39" width="24.58" height="24.58"/><rect class="cls-3" x="592.69" y="434.39" width="24.58" height="24.58"/><rect class="cls-3" x="568.11" y="458.98" width="24.58" height="24.58"/><rect class="cls-3" x="592.69" y="458.98" width="24.58" height="24.58"/><rect class="cls-3" x="617.28" y="434.39" width="24.58" height="24.58"/><rect class="cls-3" x="617.28" y="458.98" width="24.58" height="24.58"/><rect class="cls-3" x="641.86" y="213.13" width="24.58" height="24.58"/><rect class="cls-3" x="666.45" y="213.13" width="24.58" height="24.58"/><rect class="cls-3" x="641.86" y="237.71" width="24.58" height="24.58"/><rect class="cls-3" x="666.45" y="237.71" width="24.58" height="24.58"/><rect class="cls-3" x="641.86" y="262.3" width="24.58" height="24.58"/><rect class="cls-3" x="666.45" y="262.3" width="24.58" height="24.58"/><rect class="cls-3" x="641.86" y="286.88" width="24.58" height="24.58"/><rect class="cls-3" x="666.45" y="286.88" width="24.58" height="24.58"/><rect class="cls-3" x="641.86" y="311.47" width="24.58" height="24.58"/><rect class="cls-3" x="666.45" y="311.47" width="24.58" height="24.58"/><rect class="cls-3" x="641.86" y="336.05" width="24.58" height="24.58"/><rect class="cls-3" x="666.45" y="336.05" width="24.58" height="24.58"/><rect class="cls-3" x="641.86" y="360.64" width="24.58" height="24.58"/><rect class="cls-3" x="666.45" y="360.64" width="24.58" height="24.58"/><rect class="cls-3" x="641.86" y="385.22" width="24.58" height="24.58"/><rect class="cls-3" x="666.45" y="385.22" width="24.58" height="24.58"/><rect class="cls-3" x="641.86" y="409.81" width="24.58" height="24.58"/><rect class="cls-3" x="666.45" y="409.81" width="24.58" height="24.58"/><rect class="cls-3" x="641.86" y="434.39" width="24.58" height="24.58"/><rect class="cls-3" x="666.45" y="434.39" width="24.58" height="24.58"/><rect class="cls-3" x="641.86" y="458.98" width="24.58" height="24.58"/><rect class="cls-3" x="666.45" y="458.98" width="24.58" height="24.58"/><rect class="cls-3" x="125.58" y="139.38" width="24.58" height="24.58"/><rect class="cls-3" x="150.16" y="139.38" width="24.58" height="24.58"/><rect class="cls-3" x="174.75" y="139.38" width="24.58" height="24.58"/><rect class="cls-3" x="125.58" y="163.96" width="24.58" height="24.58"/><rect class="cls-3" x="150.16" y="163.96" width="24.58" height="24.58"/><rect class="cls-3" x="125.58" y="188.55" width="24.58" height="24.58"/><rect class="cls-3" x="150.16" y="188.55" width="24.58" height="24.58"/><rect class="cls-3" x="174.75" y="163.96" width="24.58" height="24.58"/><rect class="cls-3" x="174.75" y="188.55" width="24.58" height="24.58"/><rect class="cls-3" x="199.33" y="163.96" width="24.58" height="24.58"/><rect class="cls-3" x="223.92" y="163.96" width="24.58" height="24.58"/><rect class="cls-3" x="199.33" y="188.55" width="24.58" height="24.58"/><rect class="cls-3" x="223.92" y="188.55" width="24.58" height="24.58"/><rect class="cls-3" x="248.5" y="163.96" width="24.58" height="24.58"/><rect class="cls-3" x="248.5" y="188.55" width="24.58" height="24.58"/><rect class="cls-3" x="297.67" y="139.38" width="24.58" height="24.58"/><rect class="cls-3" x="322.26" y="139.38" width="24.58" height="24.58"/><rect class="cls-3" x="273.09" y="163.96" width="24.58" height="24.58"/><rect class="cls-3" x="297.67" y="163.96" width="24.58" height="24.58"/><rect class="cls-3" x="273.09" y="188.55" width="24.58" height="24.58"/><rect class="cls-3" x="297.67" y="188.55" width="24.58" height="24.58"/><rect class="cls-3" x="322.26" y="163.96" width="24.58" height="24.58"/><rect class="cls-3" x="322.26" y="188.55" width="24.58" height="24.58"/><rect class="cls-3" x="346.84" y="139.38" width="24.58" height="24.58"/><rect class="cls-3" x="371.43" y="139.38" width="24.58" height="24.58"/><rect class="cls-3" x="396.01" y="139.38" width="24.58" height="24.58"/><rect class="cls-3" x="346.84" y="163.96" width="24.58" height="24.58"/><rect class="cls-3" x="371.43" y="163.96" width="24.58" height="24.58"/><rect class="cls-3" x="346.84" y="188.55" width="24.58" height="24.58"/><rect class="cls-3" x="371.43" y="188.55" width="24.58" height="24.58"/><rect class="cls-3" x="396.01" y="163.96" width="24.58" height="24.58"/><rect class="cls-3" x="396.01" y="188.55" width="24.58" height="24.58"/><rect class="cls-3" x="420.6" y="139.38" width="24.58" height="24.58"/><rect class="cls-3" x="445.18" y="139.38" width="24.58" height="24.58"/><rect class="cls-3" x="469.77" y="139.38" width="24.58" height="24.58"/><rect class="cls-3" x="420.6" y="163.96" width="24.58" height="24.58"/><rect class="cls-3" x="445.18" y="163.96" width="24.58" height="24.58"/><rect class="cls-3" x="420.6" y="188.55" width="24.58" height="24.58"/><rect class="cls-3" x="445.18" y="188.55" width="24.58" height="24.58"/><rect class="cls-3" x="469.77" y="163.96" width="24.58" height="24.58"/><rect class="cls-3" x="469.77" y="188.55" width="24.58" height="24.58"/><rect class="cls-3" x="494.35" y="139.38" width="24.58" height="24.58"/><rect class="cls-3" x="518.94" y="139.38" width="24.58" height="24.58"/><rect class="cls-3" x="543.52" y="139.38" width="24.58" height="24.58"/><rect class="cls-3" x="494.35" y="163.96" width="24.58" height="24.58"/><rect class="cls-3" x="518.94" y="163.96" width="24.58" height="24.58"/><rect class="cls-3" x="494.35" y="188.55" width="24.58" height="24.58"/><rect class="cls-3" x="518.94" y="188.55" width="24.58" height="24.58"/><rect class="cls-3" x="543.52" y="163.96" width="24.58" height="24.58"/><rect class="cls-3" x="543.52" y="188.55" width="24.58" height="24.58"/><rect class="cls-3" x="568.11" y="139.38" width="24.58" height="24.58"/><rect class="cls-3" x="592.69" y="139.38" width="24.58" height="24.58"/><rect class="cls-3" x="617.28" y="139.38" width="24.58" height="24.58"/><rect class="cls-3" x="568.11" y="163.96" width="24.58" height="24.58"/><rect class="cls-3" x="592.69" y="163.96" width="24.58" height="24.58"/><rect class="cls-3" x="568.11" y="188.55" width="24.58" height="24.58"/><rect class="cls-3" x="592.69" y="188.55" width="24.58" height="24.58"/><rect class="cls-3" x="617.28" y="163.96" width="24.58" height="24.58"/><rect class="cls-3" x="617.28" y="188.55" width="24.58" height="24.58"/><rect class="cls-3" x="641.86" y="139.38" width="24.58" height="24.58"/><rect class="cls-3" x="666.45" y="139.38" width="24.58" height="24.58"/><rect class="cls-3" x="641.86" y="163.96" width="24.58" height="24.58"/><rect class="cls-3" x="666.45" y="163.96" width="24.58" height="24.58"/><rect class="cls-3" x="641.86" y="188.55" width="24.58" height="24.58"/><rect class="cls-3" x="666.45" y="188.55" width="24.58" height="24.58"/><rect class="cls-3" x="346.84" y="114.79" width="24.58" height="24.58"/><rect class="cls-3" x="371.43" y="114.79" width="24.58" height="24.58"/><rect class="cls-3" x="445.18" y="90.21" width="24.58" height="24.58"/><rect class="cls-3" x="469.77" y="90.21" width="24.58" height="24.58"/><rect class="cls-3" x="445.18" y="114.79" width="24.58" height="24.58"/><rect class="cls-3" x="469.77" y="114.79" width="24.58" height="24.58"/><rect class="cls-3" x="494.35" y="90.21" width="24.58" height="24.58"/><rect class="cls-3" x="494.35" y="114.79" width="24.58" height="24.58"/><rect class="cls-3" x="518.94" y="114.79" width="24.58" height="24.58"/><rect class="cls-3" x="543.52" y="114.79" width="24.58" height="24.58"/><rect class="cls-3" x="641.86" y="114.79" width="24.58" height="24.58"/><rect class="cls-3" x="666.45" y="114.79" width="24.58" height="24.58"/></g><rect class="cls-4" x="40.84" y="60.85" width="403.38" height="91.91" rx="9.8"/><path class="cls-5" d="M52.16,59H432.91A11.31,11.31,0,0,1,444.22,70.3V81.61a0,0,0,0,1,0,0H40.84a0,0,0,0,1,0,0V70.3A11.31,11.31,0,0,1,52.16,59Z"/><text class="cls-6" transform="translate(59.62 74.48)">N<tspan class="cls-7" x="8.47" y="0">O</tspan><tspan x="16.26" y="0">TIFIC</tspan><tspan class="cls-8" x="45.11" y="0">A</tspan><tspan x="52.48" y="0">TION</tspan></text><text class="cls-9" transform="translate(405.52 74.48)">15:10 </text><rect class="cls-4" x="40.84" y="166.93" width="403.38" height="91.91" rx="9.8"/><path class="cls-5" d="M52.16,165.06H432.91a11.31,11.31,0,0,1,11.31,11.31v11.31a0,0,0,0,1,0,0H40.84a0,0,0,0,1,0,0V176.37A11.31,11.31,0,0,1,52.16,165.06Z"/><text class="cls-6" transform="translate(59.62 180.56)">N<tspan class="cls-7" x="8.47" y="0">O</tspan><tspan x="16.26" y="0">TIFIC</tspan><tspan class="cls-8" x="45.11" y="0">A</tspan><tspan x="52.48" y="0">TION</tspan></text><text class="cls-9" transform="translate(405.52 180.56)">15:10 </text><rect class="cls-4" x="40.84" y="273.01" width="403.38" height="91.91" rx="9.8"/><path class="cls-5" d="M52.16,271.14H432.91a11.31,11.31,0,0,1,11.31,11.31v11.31a0,0,0,0,1,0,0H40.84a0,0,0,0,1,0,0V282.45A11.31,11.31,0,0,1,52.16,271.14Z"/><text class="cls-6" transform="translate(59.62 286.63)">N<tspan class="cls-7" x="8.47" y="0">O</tspan><tspan x="16.26" y="0">TIFIC</tspan><tspan class="cls-8" x="45.11" y="0">A</tspan><tspan x="52.48" y="0">TION</tspan></text><text class="cls-9" transform="translate(405.52 286.63)">15:10 </text><rect class="cls-10" x="331.34" y="154.47" width="354.78" height="286.61" rx="29.48" transform="translate(47.63 -69.46) rotate(8.19)"/><path class="cls-11" d="M635.71,204.73l-222.56-32c-13.1-1.89-25,5.16-26.48,15.75l-25.89,179.8c-1.52,10.58,7.87,20.69,21,22.57l180.85,26,4.28-29.74c2.68-18.61,23.53-31,46.56-27.69l23.72,3.41,19.52-135.52C658.2,216.73,648.82,206.62,635.71,204.73Z"/><path class="cls-11" d="M569.78,367l-7.18,49.86,74.56-54-48.62-7C579.26,354.49,570.86,359.49,569.78,367Z"/><path class="cls-4" d="M569.78,367l-7.18,49.86,74.56-54-48.62-7C579.26,354.49,570.86,359.49,569.78,367Z"/><path class="cls-10" d="M596,336.39l-3.27,22.71,4.22.61a50.51,50.51,0,0,1,16.5-.29l2.37.34,2.89-20.1Z"/><path class="cls-10" d="M548.75,368.23l-3.27,22.71,20.43,2.94,1-6.77a28.07,28.07,0,0,1,3.86-10.59l.72-5Z"/><path class="cls-12" d="M405,188.48H637.49a20.17,20.17,0,0,1,20.17,20.17v24.29a0,0,0,0,1,0,0H384.87a0,0,0,0,1,0,0V208.65A20.17,20.17,0,0,1,405,188.48Z" transform="translate(35.35 -72.13) rotate(8.19)"/><path class="cls-13" d="M637.22,205l-10.82-1.56c12.22,1.76,21.05,11.27,19.63,21.14l-3.75,26.07,10.82,1.56,3.75-26.07C658.27,216.22,649.44,206.71,637.22,205Z"/><rect class="cls-14" x="444.9" y="128.64" width="13.77" height="60.68" rx="6.02" transform="translate(27.27 -62.76) rotate(8.19)"/><rect class="cls-14" x="595.63" y="150.34" width="13.77" height="60.68" rx="6.02" transform="translate(31.9 -84.02) rotate(8.19)"/><rect class="cls-14" x="495.14" y="135.87" width="13.77" height="60.68" rx="6.02" transform="translate(28.81 -69.85) rotate(8.19)"/><rect class="cls-14" x="545.39" y="143.11" width="13.77" height="60.68" rx="6.02" transform="translate(30.35 -76.93) rotate(8.19)"/><g class="cls-15"><path class="cls-14" d="M448.25,188.93l-1.72-.24a6,6,0,0,1-5.11-5.39,5.81,5.81,0,0,0,1.37.39l1.72.25a6,6,0,0,0,6.81-5.1l6.94-48.15a5.71,5.71,0,0,0,0-1.43,6,6,0,0,1,3.73,6.43l-6.93,48.15A6,6,0,0,1,448.25,188.93Z"/><path class="cls-14" d="M599,210.64l-1.72-.25a6,6,0,0,1-5.12-5.39,5.76,5.76,0,0,0,1.38.39l1.72.25a6,6,0,0,0,6.81-5.1L609,152.39a6.23,6.23,0,0,0,0-1.43,6,6,0,0,1,3.72,6.43l-6.93,48.15A6,6,0,0,1,599,210.64Z"/><path class="cls-14" d="M498.5,196.17l-1.72-.25a6,6,0,0,1-5.11-5.38,6,6,0,0,0,1.37.38l1.72.25a6,6,0,0,0,6.81-5.1l6.93-48.15a6.15,6.15,0,0,0,0-1.42,6,6,0,0,1,3.72,6.42l-6.93,48.15A6,6,0,0,1,498.5,196.17Z"/><path class="cls-14" d="M548.74,203.4l-1.72-.24a6,6,0,0,1-5.11-5.39,6.18,6.18,0,0,0,1.37.39l1.72.24a6,6,0,0,0,6.81-5.09l6.94-48.15a6.22,6.22,0,0,0,0-1.43,6,6,0,0,1,3.73,6.43l-6.94,48.15A6,6,0,0,1,548.74,203.4Z"/></g><rect class="cls-10" x="479.76" y="244.15" width="22.95" height="22.95" transform="translate(41.44 -67.4) rotate(8.19)"/><rect class="cls-10" x="521.55" y="250.16" width="22.95" height="22.95" transform="translate(42.72 -73.29) rotate(8.19)"/><rect class="cls-10" x="563.34" y="256.18" width="22.95" height="22.95" transform="translate(44.01 -79.18) rotate(8.19)"/><rect class="cls-10" x="605.13" y="262.2" width="22.95" height="22.95" transform="translate(45.29 -85.08) rotate(8.19)"/><rect class="cls-10" x="474.31" y="282" width="22.95" height="22.95" transform="translate(46.78 -66.23) rotate(8.19)"/><rect class="cls-16" x="516.1" y="288.02" width="22.95" height="22.95" transform="translate(48.06 -72.13) rotate(8.19)"/><rect class="cls-10" x="557.89" y="294.03" width="22.95" height="22.95" transform="matrix(0.99, 0.14, -0.14, 0.99, 49.35, -78.02)"/><rect class="cls-10" x="599.68" y="300.05" width="22.95" height="22.95" transform="translate(50.63 -83.91) rotate(8.19)"/><rect class="cls-10" x="390.73" y="269.97" width="22.95" height="22.95" transform="translate(44.21 -54.44) rotate(8.19)"/><rect class="cls-10" x="432.52" y="275.98" width="22.95" height="22.95" transform="translate(45.5 -60.34) rotate(8.19)"/><rect class="cls-10" x="468.86" y="319.86" width="22.95" height="22.95" transform="translate(52.12 -65.07) rotate(8.19)"/><rect class="cls-10" x="510.65" y="325.87" width="22.95" height="22.95" transform="matrix(0.99, 0.14, -0.14, 0.99, 53.4, -70.96)"/><rect class="cls-10" x="552.44" y="331.89" width="22.95" height="22.95" transform="translate(54.69 -76.86) rotate(8.19)"/><rect class="cls-10" x="385.28" y="307.82" width="22.95" height="22.95" transform="translate(49.55 -53.28) rotate(8.19)"/><rect class="cls-10" x="427.07" y="313.84" width="22.95" height="22.95" transform="translate(50.83 -59.18) rotate(8.19)"/><rect class="cls-10" x="463.41" y="357.71" width="22.95" height="22.95" transform="translate(57.46 -63.91) rotate(8.19)"/><rect class="cls-10" x="505.2" y="363.73" width="22.95" height="22.95" transform="translate(58.74 -69.8) rotate(8.19)"/><rect class="cls-10" x="379.83" y="345.68" width="22.95" height="22.95" transform="translate(54.89 -52.12) rotate(8.19)"/><rect class="cls-10" x="421.62" y="351.69" width="22.95" height="22.95" transform="matrix(0.99, 0.14, -0.14, 0.99, 56.17, -58.01)"/><path class="cls-4" d="M569.78,367l-7.18,49.86,74.56-54-48.62-7C579.26,354.49,570.86,359.49,569.78,367Z"/><path class="cls-17" d="M645.88,208.22a16.22,16.22,0,0,1,1.23,8.79L627.6,352.53l-48.62-7c-9.28-1.33-17.68,3.66-18.76,11.16L553,406.55l-180.86-26A28.79,28.79,0,0,1,362,377c3,6.9,10.38,12.44,19.73,13.78l180.85,26L569.78,367c1.08-7.5,9.48-12.5,18.76-11.16l48.62,7,19.52-135.52C657.76,219.76,653.28,212.47,645.88,208.22Z"/><path class="cls-18" d="M688.05,181.92a29.43,29.43,0,0,1,6.48,23L662.09,430.21a29.56,29.56,0,0,1-33.37,25L335.91,413a29.26,29.26,0,0,1-12.5-4.91,29.4,29.4,0,0,0,18.49,10.42l292.81,42.15a29.56,29.56,0,0,0,33.38-25l32.44-225.33A29.59,29.59,0,0,0,688.05,181.92Z"/><path class="cls-19" d="M20.94,190.59v-149a12,12,0,0,1,12-12H188.06"/><rect class="cls-19" x="31.71" y="13.47" width="10.2" height="10.2" rx="5.1"/><rect class="cls-19" x="50.49" y="13.47" width="10.2" height="10.2" rx="5.1"/><rect class="cls-19" x="69.27" y="13.47" width="10.2" height="10.2" rx="5.1"/><path class="cls-19" d="M709.37,340.71v149a12,12,0,0,1-12,12H542.26"/><rect class="cls-19" x="688.4" y="507.63" width="10.2" height="10.2" rx="5.1" transform="translate(1387 1025.47) rotate(180)"/><rect class="cls-19" x="669.62" y="507.63" width="10.2" height="10.2" rx="5.1" transform="translate(1349.44 1025.47) rotate(180)"/><rect class="cls-19" x="650.84" y="507.63" width="10.2" height="10.2" rx="5.1" transform="translate(1311.88 1025.47) rotate(180)"/><rect class="cls-20" x="117.36" y="440.93" width="46.76" height="23.38" rx="11.69" transform="translate(-8.85 2.85) rotate(-1.12)"/><path class="cls-21" d="M105.86,399.37c-.43-10.71-4.86-20-10-29.11-4.74-8.3-11-15.43-16.86-22.94a104.16,104.16,0,0,1-20.67-48.47c-2.69-17.12-.89-33.53,7.19-49,9.34-17.83,23.9-29.94,42.8-36.36,26.38-9,52-6.8,75.67,8.31,19.44,12.4,30.67,30.51,33.21,53.49,3.06,27.68-5.06,52.25-21.92,74.14-9.08,11.78-16.92,24.23-20.52,38.9a37.89,37.89,0,0,0-1.15,9.66C168.56,398.16,112.28,399.27,105.86,399.37Z"/><path class="cls-22" d="M217.16,275.34C214.69,253,204,235.25,185.54,222.89c13.37,11.81,21.23,27.31,23.3,46.06,3.06,27.68-5.06,52.25-21.92,74.14-9.08,11.78-16.92,24.23-20.51,38.9a37.9,37.9,0,0,0-1.16,9.66c-4.12.1-43,.86-60.16,1.19a45,45,0,0,1,.77,6.53c6.42-.1,62.7-1.21,67.71-1.33a37.89,37.89,0,0,1,1.15-9.66c3.6-14.67,11.44-27.12,20.52-38.9C212.1,327.59,220.22,303,217.16,275.34Z"/><path class="cls-23" d="M170.57,319.24a32.44,32.44,0,1,0-45.32,30.41l1.09,55.44a9.86,9.86,0,0,0,10,9.64l7.27-.15a9.86,9.86,0,0,0,9.64-10l-1.09-55.44A32.46,32.46,0,0,0,170.57,319.24Z"/><rect class="cls-24" x="102.2" y="397.64" width="76.05" height="58.16" rx="7.07" transform="translate(-8.34 2.83) rotate(-1.12)"/><path class="cls-10" d="M102,410.57h51a5.73,5.73,0,0,1,5.73,5.73v0A5.73,5.73,0,0,1,153,422H102a0,0,0,0,1,0,0V410.57a0,0,0,0,1,0,0Z" transform="matrix(1, -0.02, 0.02, 1, -8.14, 2.64)"/><path class="cls-10" d="M121.78,432.86h51a5.73,5.73,0,0,1,5.73,5.73v0a5.73,5.73,0,0,1-5.73,5.73h-51a0,0,0,0,1,0,0V432.86A0,0,0,0,1,121.78,432.86Z" transform="matrix(-1, 0.02, -0.02, -1, 308.85, 874.15)"/><path class="cls-25" d="M123,226.58S68.18,233,75.24,288.67"/><path class="cls-4" d="M373,310.08H425.8a27.07,27.07,0,0,1,27.07,27.07V454.42a11.81,11.81,0,0,1-11.81,11.81H357.79A11.81,11.81,0,0,1,346,454.42V337.14A27.07,27.07,0,0,1,373,310.08Z"/><g class="cls-26"><path class="cls-27" d="M442.5,315.89a26.92,26.92,0,0,1,5.81,16.7V449.86a11.85,11.85,0,0,1-11.82,11.81H353.23a11.74,11.74,0,0,1-5.74-1.5,11.83,11.83,0,0,0,10.3,6.06h83.26a11.85,11.85,0,0,0,11.82-11.81V337.14A27.06,27.06,0,0,0,442.5,315.89Z"/></g><path class="cls-20" d="M310.43,359v0h0l-.62,0-.62,0h-.3a11.71,11.71,0,0,0-1.19.06l-.53.05-.48.07c-.49.08-1,.17-1.46.29h0a29.68,29.68,0,0,0-24.38,29.11v20.58h0c0,.53,0,1.06-.05,1.59,0,.7,0,1.4,0,2.12s0,1.41,0,2.12c0,.53,0,1.06.05,1.58h0v20.58a29.68,29.68,0,0,0,24.38,29.11h0c.49.12,1,.22,1.46.29l.48.07.53.05a11.71,11.71,0,0,0,1.19.06h1.54v0a29.66,29.66,0,0,0,28.34-29.55V388.55A29.66,29.66,0,0,0,310.43,359Z"/><g class="cls-28"><path class="cls-29" d="M310.43,359v0h0l-.62,0-.62,0h-.3a11.71,11.71,0,0,0-1.19.06l-.53.05-.48.07c-.49.08-1,.17-1.46.29h0a29.72,29.72,0,0,0-20.62,14.74A29.59,29.59,0,0,1,299.15,367h0a14.3,14.3,0,0,1,1.45-.29l.48-.07.53-.05a11.85,11.85,0,0,1,1.19-.06h1.54v0a29.66,29.66,0,0,1,28.34,29.55v48.57a29.38,29.38,0,0,1-3.75,14.37,29.53,29.53,0,0,0,9.83-22V388.55A29.66,29.66,0,0,0,310.43,359Z"/></g><path class="cls-30" d="M280.85,409.13c0,.53,0,1.05-.05,1.59C280.81,410.19,280.83,409.66,280.85,409.13Z"/><path class="cls-30" d="M306.69,359.15c-.49.07-1,.17-1.46.29C305.72,359.32,306.2,359.23,306.69,359.15Z"/><path class="cls-30" d="M307.7,359l-.53.05Z"/><path class="cls-30" d="M280.8,415c0,.53,0,1.06.05,1.58C280.83,416,280.81,415.49,280.8,415Z"/><path class="cls-30" d="M307.17,466.59l.53.05Z"/><path class="cls-30" d="M305.23,466.23c.49.12,1,.22,1.46.29C306.2,466.45,305.72,466.35,305.23,466.23Z"/><rect class="cls-31" x="255.71" y="420.75" width="49" height="17.82" rx="8.91" transform="translate(84.08 -44.32) rotate(10.63)"/><path class="cls-32" d="M281.85,420.91l15.33,2.87a9,9,0,0,1,7.11,10.4h0a8.93,8.93,0,0,1-10.4,7.11l-15.33-2.87"/><path class="cls-33" d="M302.21,426.67a8.79,8.79,0,0,1,.86,5.74,8.94,8.94,0,0,1-10.4,7.11L262,433.77a8.86,8.86,0,0,1-5-2.89,8.89,8.89,0,0,0,6.25,4.66l30.65,5.75a8.89,8.89,0,0,0,8.32-14.62Z"/><rect class="cls-34" x="264.84" y="420.78" width="14.91" height="2.37" rx="1.18" transform="translate(82.53 -42.99) rotate(10.63)"/><rect class="cls-34" x="284.74" y="426.2" width="49" height="17.82" rx="8.91" transform="translate(167.95 -79.66) rotate(20.05)"/><path class="cls-32" d="M312.29,426.74l14.65,5.35a8.93,8.93,0,0,1,5.31,11.42h0a8.94,8.94,0,0,1-11.42,5.32l-14.65-5.35"/><path class="cls-33" d="M331.43,435.76a8.82,8.82,0,0,1-.09,5.8,8.93,8.93,0,0,1-11.42,5.32l-29.29-10.7a8.76,8.76,0,0,1-4.49-3.67,8.86,8.86,0,0,0,5.4,5.62l29.29,10.7a8.9,8.9,0,0,0,10.6-13.07Z"/><rect class="cls-34" x="295.24" y="425.04" width="14.91" height="2.37" rx="1.18" transform="translate(164.51 -77.95) rotate(20.05)"/><rect class="cls-31" x="322.43" y="435.46" width="49" height="17.82" rx="8.91"/><path class="cls-32" d="M346.93,435.46h15.59a8.94,8.94,0,0,1,8.91,8.91h0a8.94,8.94,0,0,1-8.91,8.91H346.93"/><path class="cls-33" d="M368,437.37a8.83,8.83,0,0,1,1.91,5.48,8.94,8.94,0,0,1-8.91,8.91H329.82a8.83,8.83,0,0,1-5.48-1.91,8.89,8.89,0,0,0,7,3.43h31.18A8.89,8.89,0,0,0,368,437.37Z"/><rect class="cls-34" x="330.28" y="437.08" width="14.91" height="2.37" rx="1.18"/><rect class="cls-31" x="268.9" y="433.94" width="49" height="17.82" rx="8.91" transform="translate(86.74 -46.53) rotate(10.63)"/><path class="cls-32" d="M295,434.1,310.37,437a9,9,0,0,1,7.11,10.4h0a8.93,8.93,0,0,1-10.4,7.11l-15.33-2.87"/><path class="cls-33" d="M315.4,439.86a8.79,8.79,0,0,1,.86,5.74,8.94,8.94,0,0,1-10.4,7.11L275.22,447a8.86,8.86,0,0,1-5-2.89,8.91,8.91,0,0,0,6.25,4.66l30.65,5.75a8.89,8.89,0,0,0,8.32-14.62Z"/><rect class="cls-34" x="278.03" y="433.97" width="14.91" height="2.37" rx="1.18" transform="translate(85.19 -45.2) rotate(10.63)"/><rect class="cls-31" x="297.93" y="439.39" width="49" height="17.82" rx="8.91" transform="translate(173.27 -83.38) rotate(20.05)"/><path class="cls-32" d="M325.48,439.93l14.65,5.35a8.93,8.93,0,0,1,5.31,11.42h0A8.93,8.93,0,0,1,334,462l-14.65-5.35"/><path class="cls-33" d="M344.62,449a8.88,8.88,0,0,1-11.51,11.12l-29.29-10.69a8.83,8.83,0,0,1-4.49-3.68,8.86,8.86,0,0,0,5.4,5.62L334,462A8.9,8.9,0,0,0,344.62,449Z"/><rect class="cls-34" x="308.43" y="438.23" width="14.91" height="2.37" rx="1.18" transform="translate(169.83 -81.68) rotate(20.05)"/><rect class="cls-34" x="302.32" y="448.88" width="49" height="17.82" rx="8.91"/><path class="cls-35" d="M326.82,448.88h15.6a8.93,8.93,0,0,1,8.9,8.91h0a8.93,8.93,0,0,1-8.9,8.91h-15.6"/><path class="cls-33" d="M347.9,450.79a8.9,8.9,0,0,1-7,14.39H309.71a8.81,8.81,0,0,1-5.48-1.91,8.89,8.89,0,0,0,7,3.43h31.19a8.9,8.9,0,0,0,5.48-15.91Z"/><rect class="cls-34" x="310.18" y="450.51" width="14.91" height="2.37" rx="1.18"/><rect class="cls-31" x="270.18" y="448.88" width="49" height="17.82" rx="8.91"/><path class="cls-32" d="M294.68,448.88h15.59a8.94,8.94,0,0,1,8.91,8.91h0a8.94,8.94,0,0,1-8.91,8.91H294.68"/><path class="cls-33" d="M315.76,450.79a8.9,8.9,0,0,1-7,14.39H277.57a8.81,8.81,0,0,1-5.48-1.91,8.89,8.89,0,0,0,7,3.43h31.18a8.9,8.9,0,0,0,5.49-15.91Z"/><rect class="cls-34" x="278.04" y="450.51" width="14.91" height="2.37" rx="1.18"/><rect class="cls-31" x="339.07" y="448.88" width="49" height="17.82" rx="8.91"/><path class="cls-32" d="M363.57,448.88h15.59a8.94,8.94,0,0,1,8.91,8.91h0a8.94,8.94,0,0,1-8.91,8.91H363.57"/><path class="cls-33" d="M384.65,450.79a8.9,8.9,0,0,1-7,14.39H346.46a8.81,8.81,0,0,1-5.48-1.91,8.89,8.89,0,0,0,7,3.43h31.18a8.9,8.9,0,0,0,5.49-15.91Z"/><rect class="cls-34" x="346.93" y="450.51" width="14.91" height="2.37" rx="1.18"/><rect class="cls-36" x="351.22" y="286.67" width="96.41" height="28.86" rx="6.46"/><path class="cls-4" d="M307.17,466.59l-.48-.07c-.49-.07-1-.17-1.46-.29h0a29.68,29.68,0,0,1-24.38-29.11V416.54h0c0-.52,0-1.05-.05-1.58,0-.71,0-1.41,0-2.12s0-1.42,0-2.12c0-.54,0-1.06.05-1.59h0V388.55a29.68,29.68,0,0,1,24.38-29.11h0c.49-.12,1-.22,1.46-.29l.48-.07.53-.05a11.71,11.71,0,0,1,1.19-.06H212.64c-.33,0-.65,0-1,0v0h0a29.67,29.67,0,0,0-29.58,29.58v48.57a29.67,29.67,0,0,0,29.58,29.58h0v0c.32,0,.64,0,1,0h96.25a11.71,11.71,0,0,1-1.19-.06Z"/><path class="cls-37" d="M259.57,388.55A29.67,29.67,0,0,1,289.15,359h-48.9c-.32,0-.65,0-1,0v0h0a29.67,29.67,0,0,0-29.58,29.58v20.09h49.87Z"/><path class="cls-37" d="M290.12,359h-1v0C289.47,359,289.8,359,290.12,359Z"/><path class="cls-11" d="M252.48,388.55A29.67,29.67,0,0,1,282.06,359h-48.9c-.32,0-.65,0-1,0v0h0a29.67,29.67,0,0,0-29.58,29.58v20.09h49.87Z"/><path class="cls-11" d="M283,359h-1v0C282.38,359,282.71,359,283,359Z"/><path class="cls-11" d="M238.76,359h-1v0C238.11,359,238.44,359,238.76,359Z"/><path class="cls-17" d="M237.79,359h-4.63c-.32,0-.65,0-1,0v0h0a29.67,29.67,0,0,0-29.58,29.58v20.09h5.6V388.55A29.67,29.67,0,0,1,237.79,359Z"/><path class="cls-38" d="M287.66,359v0c.32,0,.65,0,1,0Z"/><rect class="cls-11" x="345.98" y="358.97" width="106.89" height="67.26"/><rect class="cls-37" x="345.98" y="358.97" width="106.89" height="13.57"/><polygon class="cls-17" points="448.31 358.97 448.31 421.67 345.98 421.67 345.98 426.23 452.87 426.23 452.87 358.97 448.31 358.97"/><path class="cls-39" d="M444,287.31a6.52,6.52,0,0,1,.64,2.78v16a6.47,6.47,0,0,1-6.46,6.45H354.64a6.31,6.31,0,0,1-2.78-.64,6.46,6.46,0,0,0,5.81,3.68h83.5a6.47,6.47,0,0,0,6.46-6.45V293.13A6.5,6.5,0,0,0,444,287.31Z"/><rect class="cls-40" x="355.55" y="326.88" width="10.24" height="61.28" rx="4.55"/><rect class="cls-40" x="228.26" y="343.45" width="8.43" height="79.17" rx="4.22" transform="translate(615.51 150.56) rotate(90)"/></g></g></svg>