<svg xmlns="http://www.w3.org/2000/svg" viewBox="0 0 1200 730"><defs><style>.cls-1{isolation:isolate;}.cls-2{fill:none;}.cls-3{fill:#a5a5a5;}.cls-4{fill:#bdbdbd;}.cls-5{fill:#90caf9;}.cls-6{fill:#67a2cf;}.cls-14,.cls-7{fill:#eee;}.cls-8{fill:#42a5f5;}.cls-12,.cls-9{fill:#64b5f6;}.cls-9{fill-rule:evenodd;}.cls-10{fill:#bbdefb;}.cls-11{opacity:0.4;}.cls-12,.cls-13,.cls-14,.cls-15{mix-blend-mode:multiply;}.cls-15{opacity:0.37;}</style></defs><g class="cls-1"><g id="Layer_1" data-name="Layer 1"><path class="cls-2" d="M224.66,623.59a13.69,13.69,0,0,1-1.37.37A6.1,6.1,0,0,0,224.66,623.59Z"/><path class="cls-2" d="M223.27,624h0l-.18,0Z"/><path class="cls-2" d="M229.32,621.23l-1.56.9C228.24,621.87,228.75,621.58,229.32,621.23Z"/><path class="cls-3" d="M956.39,238.82h0v0Z"/><path class="cls-4" d="M956.4,239.64c-.21,3.63-2.52,7.08-7,9.69l-56.8,32.83L609.37,445.83l-.7-.4c-7.49,3-107.23,42.92-135.83,50.25,0,0-182,92.24-218.07,110.85l-.09.05V614h0c2.11-.93,4.72-2.06,7.77-3.38,49.93-21.66,215.81-92.57,215.81-92.57,28.58-5,127.78-40.94,137.93-44.63l.1.05.44-.25.31-.11,0,0,282.5-163.27h0l50.13-29c4.73-2.74,7-6.4,7-10.24h0Z"/><path class="cls-5" d="M223.09,624l.18,0h0a13.69,13.69,0,0,0,1.37-.37,21.66,21.66,0,0,0,3.1-1.46l1.56-.9c.52-.32,1.07-.65,1.67-1.05v.08l23.69-13.69-16.89-10.22-28.3,16.35c-1.89,1.1-2.76,2.57-2.74,4.11C209.21,625.32,221.46,624.19,223.09,624Z"/><path class="cls-6" d="M254.68,606.58l.09-.05-.09,0Z"/><path class="cls-7" d="M254.68,606.57l.09,0c36.09-18.61,218.07-110.85,218.07-110.85,28.6-7.33,128.34-47.25,135.83-50.25l.7.4,283.2-163.67,56.8-32.83c4.51-2.61,6.82-6.06,7-9.69a7.09,7.09,0,0,0,0-.8v0c-.12-4.56-3.47-9.34-9.95-13.09l-49-28.3c-12.07-7-30.36-7.73-40.82-1.69l-56.84,32.85.11.07L517.26,392l-.2-.12c-13.41,7.62-87,77.29-87,77.29-5.8,8-192.31,127.14-192.31,127.14l0,0Z"/><path class="cls-8" d="M254.68,606.58h0L231,620.26v-.08c-.6.4-1.15.73-1.67,1.05s-1.08.64-1.56.9a21.66,21.66,0,0,1-3.1,1.46,6.1,6.1,0,0,1-1.37.37h0l-.18,0c-1.63.19-13.88,1.32-16.34-7.19,0-.06-.05-.11-.07-.17l0,7.65s2.51,8,16.63,6.07h0A18.45,18.45,0,0,0,231,627.7L254.67,614h0Z"/><polygon class="cls-9" points="788.17 256.18 599.74 365.08 658.17 398.85 846.6 289.95 788.17 256.18 788.17 256.18"/><path class="cls-10" d="M646.7,355.37a23.11,23.11,0,0,1,12.66-3.17,28.39,28.39,0,0,1,13.29,4c3.06,1.76,5.08,3.59,6.06,5.47a5.62,5.62,0,0,1,0,5.53,13.83,13.83,0,0,1-5.53,5.08,25.32,25.32,0,0,1-8.56,3.23l-1-2a19.76,19.76,0,0,0,7.09-2.6c3.29-1.91,4.92-4,4.87-6.15s-1.9-4.35-5.56-6.46c-.68-.4-1.47-.8-2.36-1.22a3.82,3.82,0,0,1-.07,4.05,11.25,11.25,0,0,1-4.35,3.94A21.62,21.62,0,0,1,657,367.5a19.61,19.61,0,0,1-6.44.39,14.06,14.06,0,0,1-5.62-1.76,6.33,6.33,0,0,1-3.11-3.33,4.31,4.31,0,0,1,.69-3.81,12.14,12.14,0,0,1,4.18-3.62Zm14.61,8.05a9.16,9.16,0,0,0,3.2-2.75,3.33,3.33,0,0,0,.55-2.81,4.09,4.09,0,0,0-2.08-2.34,9.65,9.65,0,0,0-3.81-1.14,15.23,15.23,0,0,0-4.87.31,17.71,17.71,0,0,0-5.08,2q-3.24,1.88-3.64,4c-.26,1.41.51,2.63,2.31,3.68a11,11,0,0,0,6.34,1.32,16.17,16.17,0,0,0,7.08-2.24Z"/><polygon class="cls-10" points="684.3 333.91 686.3 335.07 699.27 356.99 695.94 358.91 683.28 337.4 667.94 346.27 673.07 349.24 670.05 350.99 662.4 346.57 684.3 333.91 684.3 333.91"/><path class="cls-10" d="M716,347.52a4.52,4.52,0,0,1-2.23.56,4.2,4.2,0,0,1-2.19-.5,1.38,1.38,0,0,1-.85-1.25,1.7,1.7,0,0,1,1-1.28,4.75,4.75,0,0,1,2.23-.58,4.08,4.08,0,0,1,2.19.47,1.36,1.36,0,0,1,.85,1.28,1.7,1.7,0,0,1-1,1.3Z"/><polygon class="cls-10" points="715.67 315.79 717.67 316.94 730.63 338.86 727.3 340.78 714.64 319.28 699.3 328.14 704.43 331.11 701.41 332.86 693.77 328.44 715.67 315.79 715.67 315.79"/><path class="cls-10" d="M749.8,310.2a12.91,12.91,0,0,1-4.25,1.5,15.22,15.22,0,0,1-4.71.12,11,11,0,0,1-4.05-1.31,4.87,4.87,0,0,1-2.22-2.32,3.09,3.09,0,0,1,.2-2.72,6.61,6.61,0,0,1,2.6-2.46,13.25,13.25,0,0,1,4.28-1.52,15.05,15.05,0,0,1,4.73-.12,10.88,10.88,0,0,1,4,1.28,5,5,0,0,1,2.26,2.34,3.1,3.1,0,0,1-.22,2.74,6.73,6.73,0,0,1-2.63,2.47Zm-1.64-.95c1.39-.81,2.12-1.74,2.2-2.8s-.54-2-1.85-2.71a8.76,8.76,0,0,0-4.66-1.05A10.08,10.08,0,0,0,739,304c-1.39.81-2.12,1.73-2.18,2.78s.55,1.94,1.83,2.69a8.93,8.93,0,0,0,4.68,1.08,10,10,0,0,0,4.81-1.26Z"/><polygon class="cls-10" points="757.04 294.77 767.82 301.01 783.25 292.09 785.76 293.54 770.33 302.46 781.98 309.19 778.82 311.01 751.38 295.15 771.83 283.33 774.34 284.78 757.04 294.77 757.04 294.77"/><g class="cls-11"><polygon class="cls-12" points="846.6 289.95 788.17 256.18 783.62 258.81 837.5 289.95 653.62 396.22 658.17 398.85 846.6 289.95"/></g><g class="cls-13"><path class="cls-14" d="M956.39,238.84v0c-.12-4.56-3.47-9.34-9.95-13.09l-49-28.3c-7.83-4.52-18.28-6.42-27.51-5.55a45.9,45.9,0,0,1,18.41,5.55l49,28.3c6.48,3.75,9.83,8.53,10,13.09v0c0,.26,0,.53,0,.8-.21,3.63-2.52,7.08-7,9.69l-56.8,32.83L600.26,445.83l-.7-.4c-7.49,3-107.23,42.92-135.83,50.25,0,0-168.19,85.25-213.24,108.36l4.19,2.53.09,0c36.09-18.61,218.07-110.85,218.07-110.85,28.6-7.33,128.34-47.25,135.83-50.25l.7.4,283.2-163.67,56.8-32.83c4.51-2.61,6.82-6.06,7-9.69A7.09,7.09,0,0,0,956.39,238.84Z"/></g><g class="cls-15"><path class="cls-5" d="M250.49,604l-28.6,16.22v-.08c-.61.4-1.15.73-1.68,1.05l-1.56.9a29.16,29.16,0,0,1-3.41,1.54,25.87,25.87,0,0,0,7.85.33l.18,0h0a13.69,13.69,0,0,0,1.37-.37,21.66,21.66,0,0,0,3.1-1.46l1.56-.9c.52-.32,1.07-.65,1.67-1.05v.08l23.69-13.69Z"/></g></g></g></svg>