<svg viewBox="0 0 210 160" xmlns="http://www.w3.org/2000/svg"><path d="m144.67633 102.78064a13.17546 13.17546 0 0 1 -.14764 1.96728 12.957 12.957 0 0 0 .16-2.02563v-53.54089a12.87819 12.87819 0 0 0 -3.793-9.13514 13.03047 13.03047 0 0 1 3.78058 9.19361z" fill="#054c5c"/><path d="m128.14594 127.76624a.68065.68065 0 0 0 -.5376.24218 1.107 1.107 0 0 0 0 1.30274.71182.71182 0 0 0 1.06982 0 1.107 1.107 0 0 0 0-1.30274.67543.67543 0 0 0 -.53222-.24218z" fill="#054c5c"/><path d="m68.56244 127.76624a.68233.68233 0 0 0 -.53809.24218 1.10912 1.10912 0 0 0 0 1.30274.68233.68233 0 0 0 .53809.24218.67207.67207 0 0 0 .53467-.24218 1.11749 1.11749 0 0 0 0-1.30274.67207.67207 0 0 0 -.53467-.24218z" fill="#054c5c"/><path d="m131.85052 127.70569a.69062.69062 0 0 0 -.48339.17969.79709.79709 0 0 0 -.23926.49218h1.43945a.79647.79647 0 0 0 -.23877-.48828.67026.67026 0 0 0 -.47803-.18359z" fill="#054c5c"/><path d="m63.46771 129.55334a.67372.67372 0 0 0 .53516-.24218 1.11962 1.11962 0 0 0 0-1.30274.71237.71237 0 0 0 -1.07031 0 1.11957 1.11957 0 0 0 0 1.30274.6737.6737 0 0 0 .53515.24218z" fill="#054c5c"/><path d="m82.58148 127.70569a.69065.69065 0 0 0 -.4834.17969.797.797 0 0 0 -.23925.49218h1.43945a.79647.79647 0 0 0 -.23877-.48828.67026.67026 0 0 0 -.47803-.18359z" fill="#054c5c"/><path d="m103.28656 127.76624a.68234.68234 0 0 0 -.53809.24218 1.10912 1.10912 0 0 0 0 1.30274.68234.68234 0 0 0 .53809.24218.67206.67206 0 0 0 .53467-.24218 1.11749 1.11749 0 0 0 0-1.30274.67206.67206 0 0 0 -.53467-.24218z" fill="#054c5c"/><path d="m111.54779 127.76624a.68236.68236 0 0 0 -.53809.24218 1.10912 1.10912 0 0 0 0 1.30274.68236.68236 0 0 0 .53809.24218.67206.67206 0 0 0 .53467-.24218 1.11749 1.11749 0 0 0 0-1.30274.67206.67206 0 0 0 -.53467-.24218z" fill="#054c5c"/><path d="m152.20306 127.88928a.67026.67026 0 0 0 -.478-.18359.69063.69063 0 0 0 -.4834.17969.79709.79709 0 0 0 -.23926.49218h1.43945a.79642.79642 0 0 0 -.23879-.48828z" fill="#054c5c"/><path d="m147.98773 129.35022a.74342.74342 0 0 0 .55127-.21875.87215.87215 0 0 0 0-1.14648.736.736 0 0 0 -.55127-.21875.74379.74379 0 0 0 -.55371.21875.86481.86481 0 0 0 0 1.14648.75135.75135 0 0 0 .55371.21875z" fill="#054c5c"/><path d="m18.73566 10.95569a1.87789 1.87789 0 0 0 -1.792 0 1.63655 1.63655 0 0 0 -.62793.63672 2.00133 2.00133 0 0 0 0 1.85547 1.62758 1.62758 0 0 0 .62793.63574 1.87089 1.87089 0 0 0 1.792 0 1.62758 1.62758 0 0 0 .62793-.63574 2.00133 2.00133 0 0 0 0-1.85547 1.63655 1.63655 0 0 0 -.62793-.63672z" fill="#054c5c"/><path d="m41.73566 10.95569a1.87789 1.87789 0 0 0 -1.792 0 1.63655 1.63655 0 0 0 -.62793.63672 2.00133 2.00133 0 0 0 0 1.85547 1.62758 1.62758 0 0 0 .62793.63574 1.87089 1.87089 0 0 0 1.792 0 1.62758 1.62758 0 0 0 .62793-.63574 2.00133 2.00133 0 0 0 0-1.85547 1.63655 1.63655 0 0 0 -.62793-.63672z" fill="#054c5c"/><path d="m88.27924 127.70569a.69063.69063 0 0 0 -.4834.17969.79709.79709 0 0 0 -.23926.49218h1.43942a.79647.79647 0 0 0 -.23877-.48828.67026.67026 0 0 0 -.47799-.18359z" fill="#054c5c"/><path d="m0 0v160h210v-160zm153.80511 127.04553h.80909v.42578a.96275.96275 0 0 1 .41015-.35351 1.39387 1.39387 0 0 1 .59473-.1211v.86524c-.09424-.00781-.15723-.01172-.18994-.01172a.7337.7337 0 0 0 -.57031.22461.96781.96781 0 0 0 -.20655.67383v1.52539h-.84717zm-3.44091.75977a1.50992 1.50992 0 0 1 .55957-.59571 1.53263 1.53263 0 0 1 .7959-.21289 1.49885 1.49885 0 0 1 .77636.20508 1.42236 1.42236 0 0 1 .5459.584 1.89026 1.89026 0 0 1 .19824.88672q0 .01756-.01611.25195h-2.21094a.76785.76785 0 0 0 .28272.47265.86523.86523 0 0 0 .5542.17383 1.012 1.012 0 0 0 .40429-.07422.99008.99008 0 0 0 .32862-.23632l.45117.53906a1.44644 1.44644 0 0 1 -1.20606.52148 1.75235 1.75235 0 0 1 -.87451-.21289 1.46325 1.46325 0 0 1 -.58642-.58984 1.76423 1.76423 0 0 1 -.20655-.85938 1.78317 1.78317 0 0 1 .20362-.85352zm-3.81055-.06446a1.42835 1.42835 0 0 1 .52979-.54882 1.44341 1.44341 0 0 1 .73583-.19532 1.11378 1.11378 0 0 1 .9668.46289v-.41406h.8042v2.6875a1.8334 1.8334 0 0 1 -.41846 1.32031 1.62 1.62 0 0 1 -1.22216.43165 2.77785 2.77785 0 0 1 -.80371-.11329 1.686 1.686 0 0 1 -.62989-.33007l.33643-.67188a1.36219 1.36219 0 0 0 .46728.26758 1.7346 1.7346 0 0 0 .56494.09766.858.858 0 0 0 .64893-.21875.92716.92716 0 0 0 .209-.66211v-.13868a1.13125 1.13125 0 0 1 -.92334.40235 1.42452 1.42452 0 0 1 -.73583-.19531 1.40179 1.40179 0 0 1 -.52979-.54883 1.804 1.804 0 0 1 0-1.63282zm-.77686.68555v1.84766h-.84716v-1.70505a.898.898 0 0 0 -.15235-.57227.52882.52882 0 0 0 -.43994-.18945.64566.64566 0 0 0 -.51025.21875.97046.97046 0 0 0 -.19043.65234v1.59571h-.84717v-3.22852h.80908v.37891a1.12686 1.12686 0 0 1 .41846-.31641 1.33268 1.33268 0 0 1 .54834-.11133 1.141 1.141 0 0 1 .87744.36133 1.51964 1.51964 0 0 1 .33398 1.06833zm-72.27356-117.25488a.82489.82489 0 0 1 1.104 0 .73342.73342 0 0 1 .22412.55664.76123.76123 0 0 1 -.22412.55957.79061.79061 0 0 1 -1.104 0 .75932.75932 0 0 1 -.22412-.55957.73165.73165 0 0 1 .22412-.55664zm0 2.87207a.82491.82491 0 0 1 1.104 0 .73342.73342 0 0 1 .22412.55664.76123.76123 0 0 1 -.22412.55957.79061.79061 0 0 1 -1.104 0 .75932.75932 0 0 1 -.22412-.55957.73165.73165 0 0 1 .22412-.55664zm-5.32763-4.32324h4.87988v1.05566h-1.792v4.544h-1.2959v-4.544h-1.792zm-1.99219 0h1.2959v5.59966h-1.2959zm-1.18341 39.46106a13.24459 13.24459 0 0 1 13.22955-13.22962h53.5409a13.24459 13.24459 0 0 1 13.22955 13.22962v53.54089a13.24456 13.24456 0 0 1 -13.22955 13.22949h-53.5409a13.24456 13.24456 0 0 1 -13.22955-13.22949zm76.95892 77.2606a.49867.49867 0 0 1 -.38037.15429.52262.52262 0 1 1 0-1.04492.52127.52127 0 0 1 .38037.14453.48188.48188 0 0 1 .147.35938.53564.53564 0 0 1 -.147.38672zm.04346.60351v3.22852h-.84717v-3.22852zm-1.70557.07227v.7207h-.72754v2.43555h-.84765v-2.43553h-.45068v-.7207h.45068v-.14453a1.244 1.244 0 0 1 .29639-.875 1.06905 1.06905 0 0 1 .83349-.32422 1.36223 1.36223 0 0 1 .36133.04492.81326.81326 0 0 1 .28516.12891l-.22266.67773a.54.54 0 0 0 -.34229-.11328c-.25732 0-.38574.1543-.38574.4668v.13867zm-6.77929-.07227h.95068l.61914.94141.63574-.94141h.90137l-1.08643 1.57813 1.12989 1.65039h-.96143l-.64062-.99024-.6626.99024h-.92383l1.12451-1.627zm-2.09619 2.35156a.8652.8652 0 0 0 .55419.17383 1.012 1.012 0 0 0 .4043-.07422.99008.99008 0 0 0 .32862-.23632l.45117.53906a1.44644 1.44644 0 0 1 -1.20606.52148 1.75235 1.75235 0 0 1 -.87451-.21289 1.46333 1.46333 0 0 1 -.58643-.58984 1.76434 1.76434 0 0 1 -.20654-.85938 1.78317 1.78317 0 0 1 .20362-.85351 1.50992 1.50992 0 0 1 .55957-.59571 1.53262 1.53262 0 0 1 .79589-.21289 1.49886 1.49886 0 0 1 .77637.20508 1.42242 1.42242 0 0 1 .5459.584 1.89038 1.89038 0 0 1 .19824.88672q0 .01756-.01611.25195h-2.21094a.76785.76785 0 0 0 .28272.47266zm-3.42188.92383a1.379 1.379 0 0 1 -1.271-.78515 2.11 2.11 0 0 1 0-1.752 1.38525 1.38525 0 0 1 1.271-.78711 1.06409 1.06409 0 0 1 .87451.39063v-1.56641h.84717v4.45313h-.80957v-.373a1.06723 1.06723 0 0 1 -.91211.41993zm-3.05273-2.32422a.52885.52885 0 0 0 -.43995-.18945.64569.64569 0 0 0 -.51025.21875.97051.97051 0 0 0 -.19043.65234v1.59571h-.84717v-3.22852h.80909v.37891a1.12682 1.12682 0 0 1 .41845-.31641 1.33271 1.33271 0 0 1 .54834-.11133 1.141 1.141 0 0 1 .87744.36133 1.51964 1.51964 0 0 1 .334 1.06836v1.84766h-.84717v-1.70503a.8981.8981 0 0 0 -.15235-.5723zm-2.81885-1.55468a.49834.49834 0 0 1 -.37988.15429.52263.52263 0 1 1 0-1.04492.52091.52091 0 0 1 .37988.14453.48008.48008 0 0 1 .147.35938.53365.53365 0 0 1 -.147.38672zm.04346.60351v3.22852h-.84717v-3.22852zm-3.50586.07227a1.39379 1.39379 0 0 1 .59472-.1211v.86524c-.09424-.00781-.15722-.01172-.18994-.01172a.73371.73371 0 0 0 -.57031.22461.96781.96781 0 0 0 -.20654.67383v1.52539h-.84717v-3.22852h.80908v.42578a.96272.96272 0 0 1 .41016-.35349zm-3.21241 3.09179a1.15963 1.15963 0 0 1 -.50537.11133 1.17852 1.17852 0 0 1 -.91259-.36523 1.55214 1.55214 0 0 1 -.33643-1.08594v-1.82422h.84717v1.68555q0 .78222.59179.78125a.60861.60861 0 0 0 .48926-.2207.98251.98251 0 0 0 .18457-.65039v-1.59571h.84717v3.22852h-.80371v-.38477a1.11184 1.11184 0 0 1 -.40186.32033zm-2.30322-1.55078a1.76953 1.76953 0 0 1 -.206.85938 1.49991 1.49991 0 0 1 -.57032.58984 1.7133 1.7133 0 0 1 -1.65429 0 1.48945 1.48945 0 0 1 -.57276-.58984 1.88706 1.88706 0 0 1 0-1.7168 1.50736 1.50736 0 0 1 .57276-.5918 1.7133 1.7133 0 0 1 1.65429 0 1.51814 1.51814 0 0 1 .57032.5918 1.76723 1.76723 0 0 1 .206.85744zm-6.59375-1.61328h.87451l.82032 2.18946.82568-2.18946h.81445l-1.31982 3.42578a1.69189 1.69189 0 0 1 -.49707.78711 1.14475 1.14475 0 0 1 -.71436.22657 1.33715 1.33715 0 0 1 -.45068-.07813.95611.95611 0 0 1 -.36377-.21484l.30957-.666a.72792.72792 0 0 0 .2251.15039.66.66 0 0 0 .25293.05274.42541.42541 0 0 0 .28222-.0918.804.804 0 0 0 .1958-.31055l.01075-.02929zm-1.66748 1.61328a1.76953 1.76953 0 0 1 -.20605.85938 1.49991 1.49991 0 0 1 -.57032.58984 1.7133 1.7133 0 0 1 -1.65429 0 1.48945 1.48945 0 0 1 -.57276-.58984 1.88706 1.88706 0 0 1 0-1.7168 1.50736 1.50736 0 0 1 .57276-.5918 1.7133 1.7133 0 0 1 1.65429 0 1.51814 1.51814 0 0 1 .57032.5918 1.76723 1.76723 0 0 1 .20605.85744zm-5.61084-.82031v-.7207h.45068v-.78711h.84766v.78711h.72754v.7207h-.72754v1.3125a.47271.47271 0 0 0 .09473.31641.33995.33995 0 0 0 .269.10937.5104.5104 0 0 0 .34229-.11914l.228.66016a.81679.81679 0 0 1 -.30713.15234 1.36745 1.36745 0 0 1 -.38281.05078 1.07446 1.07446 0 0 1 -.80664-.293 1.198 1.198 0 0 1 -.28516-.86523v-1.32417zm-1.418.1582a.52882.52882 0 0 0 -.43994-.18945.64566.64566 0 0 0 -.51025.21875.97046.97046 0 0 0 -.19043.65234v1.59571h-.84715v-3.22852h.80908v.37891a1.12686 1.12686 0 0 1 .41846-.31641 1.33268 1.33268 0 0 1 .54834-.11133 1.141 1.141 0 0 1 .87744.36133 1.51964 1.51964 0 0 1 .334 1.06836v1.84766h-.84716v-1.70503a.8981.8981 0 0 0 -.15236-.5723zm-2.81877-1.55468a.49831.49831 0 0 1 -.37988.15429.52263.52263 0 1 1 0-1.04492.52088.52088 0 0 1 .37988.14453.48005.48005 0 0 1 .147.35938.53361.53361 0 0 1 -.147.38672zm.04346.60351v3.22852h-.84717v-3.22852zm-3.50586.07227a1.39387 1.39387 0 0 1 .59473-.1211v.86524c-.09424-.00781-.15723-.01172-.18994-.01172a.73373.73373 0 0 0 -.57032.22461.96786.96786 0 0 0 -.20654.67383v1.52539h-.84717v-3.22852h.80909v.42578a.96275.96275 0 0 1 .4101-.35349zm-3.7286 2.27931a.86521.86521 0 0 0 .5542.17383 1.012 1.012 0 0 0 .40429-.07422.99008.99008 0 0 0 .32862-.23632l.45117.53906a1.44644 1.44644 0 0 1 -1.20606.52148 1.75235 1.75235 0 0 1 -.87451-.21289 1.46325 1.46325 0 0 1 -.58642-.58984 1.76423 1.76423 0 0 1 -.20655-.85938 1.78317 1.78317 0 0 1 .20362-.85351 1.50992 1.50992 0 0 1 .55957-.59571 1.53262 1.53262 0 0 1 .79589-.21289 1.49886 1.49886 0 0 1 .77637.20508 1.42236 1.42236 0 0 1 .5459.584 1.89038 1.89038 0 0 1 .19824.88672q0 .01756-.01611.25195h-2.2109a.76785.76785 0 0 0 .28268.47264zm-3.5361-1.55859v-.7207h.45069v-.78711h.84765v.78711h.72754v.7207h-.72754v1.3125a.47271.47271 0 0 0 .09473.31641.34.34 0 0 0 .269.10937.5104.5104 0 0 0 .34229-.11914l.228.66016a.81694.81694 0 0 1 -.30713.15234 1.36757 1.36757 0 0 1 -.38282.05078 1.07446 1.07446 0 0 1 -.80664-.293 1.198 1.198 0 0 1 -.28515-.86523v-1.32419zm-2.16162 1.55859a.86525.86525 0 0 0 .5542.17383 1.012 1.012 0 0 0 .4043-.07422.99.99 0 0 0 .32861-.23632l.45117.53906a1.44642 1.44642 0 0 1 -1.206.52148 1.75235 1.75235 0 0 1 -.87456-.21292 1.46333 1.46333 0 0 1 -.58643-.58984 1.76434 1.76434 0 0 1 -.20654-.85938 1.78328 1.78328 0 0 1 .20361-.85351 1.51 1.51 0 0 1 .55957-.59571 1.53266 1.53266 0 0 1 .7959-.21289 1.49888 1.49888 0 0 1 .77637.20508 1.42249 1.42249 0 0 1 .5459.584 1.89038 1.89038 0 0 1 .19824.88672q0 .01756-.01611.25195h-2.21094a.76789.76789 0 0 0 .28271.47267zm-2.70263-1.40039a.48193.48193 0 0 0 -.40967-.18945.58134.58134 0 0 0 -.47266.21289.98381.98381 0 0 0 -.17383.63281v1.6211h-.84716v-1.70505q0-.76172-.5542-.76172a.57536.57536 0 0 0 -.46729.21289.98674.98674 0 0 0 -.17383.63281v1.6211h-.84716v-3.22852h.80908v.3711a1.09054 1.09054 0 0 1 .39941-.31055 1.23041 1.23041 0 0 1 .51856-.10938 1.13893 1.13893 0 0 1 .55957.13672 1.02712 1.02712 0 0 1 .40185.39258 1.22719 1.22719 0 0 1 .45362-.39062 1.31963 1.31963 0 0 1 .60009-.13868 1.11816 1.11816 0 0 1 .87207.35743 1.55456 1.55456 0 0 1 .32325 1.07226v1.84766h-.84766v-1.70508a.93526.93526 0 0 0 -.14404-.5723zm-4.77686-1.5547a.49834.49834 0 0 1 -.37988.15429.52263.52263 0 1 1 0-1.04492.52091.52091 0 0 1 .37988.14453.48.48 0 0 1 .147.35938.53361.53361 0 0 1 -.147.38672zm.04346.60351v3.22852h-.84717v-3.22852zm-4.41065 0h.95069l.61914.94141.63574-.94141h.90137l-1.08643 1.57813 1.12988 1.65039h-.96142l-.64063-.99024-.66259.99024h-.92383l1.12451-1.627zm-.14111 1.61328a1.76953 1.76953 0 0 1 -.20605.85938 1.49991 1.49991 0 0 1 -.57032.58984 1.7133 1.7133 0 0 1 -1.65429 0 1.48945 1.48945 0 0 1 -.57276-.58984 1.88706 1.88706 0 0 1 0-1.7168 1.50736 1.50736 0 0 1 .57276-.5918 1.7133 1.7133 0 0 1 1.65429 0 1.51814 1.51814 0 0 1 .57032.5918 1.76723 1.76723 0 0 1 .20605.85744zm-5.80859-1.45507a1.42731 1.42731 0 0 1 .52392.582 2.0965 2.0965 0 0 1 0 1.74609 1.41509 1.41509 0 0 1 -.52392.582 1.37366 1.37366 0 0 1 -.7417.207 1.07717 1.07717 0 0 1 -.87989-.38867v1.50586h-.84716v-4.39258h.80908v.3711a1.07844 1.07844 0 0 1 .918-.41993 1.39075 1.39075 0 0 1 .74167.20715zm-5.80433-117.48338h4.23194v1.04h-2.94385v1.21586h2.59961v1.0078h-2.59961v1.2959h3.04785v1.04h-4.33594zm2.50452 116.72166a.49832.49832 0 0 1 -.37988.15429.52263.52263 0 1 1 0-1.04492.52089.52089 0 0 1 .37988.14453.48.48 0 0 1 .147.35938.53361.53361 0 0 1 -.147.38672zm.04346.60351v3.22852h-.84717v-3.22852zm-1.63477-1.22461v4.45313h-.84717v-4.45313zm-1.37939.92383-.56494.57617a1.178 1.178 0 0 0 -2.01807.15625 1.64354 1.64354 0 0 0 0 1.39258 1.16478 1.16478 0 0 0 .43213.47656 1.181 1.181 0 0 0 .62988.17188 1.16757 1.16757 0 0 0 .95606-.49805l.56494.57617a1.77481 1.77481 0 0 1 -.67383.55664 2.1426 2.1426 0 0 1 -1.94727-.08593 1.98543 1.98543 0 0 1 -.73877-.77539 2.46213 2.46213 0 0 1 0-2.23633 1.99859 1.99859 0 0 1 .73877-.77539 2.14872 2.14872 0 0 1 1.9502-.08594 1.82073 1.82073 0 0 1 .6709.5508zm-44.28577-111.42473h-1.2959v-2.2959h-2.54394v2.2959h-1.2959v-5.59966h1.2959v2.208h2.54394v-2.208h1.2959zm6.7041-1.31641a2.8168 2.8168 0 0 1 -1.09619 1.03613 3.46522 3.46522 0 0 1 -3.13965 0 2.784 2.784 0 0 1 -1.09619-1.03613 2.85611 2.85611 0 0 1 1.09619-4.00391 3.4653 3.4653 0 0 1 3.13965 0 2.89623 2.89623 0 0 1 1.09619 4.00391zm7.82422 1.31641h-1.39209l-1.23193-3.792-1.27192 3.792h-1.38384l-1.84034-5.59966h1.34424l1.26416 3.93554 1.31983-3.93554h1.20019l1.27976 3.96777 1.3042-3.96777h1.2398zm9.1836-4.544h-1.792v4.544h-1.29589v-4.544h-1.792v-1.05566h4.87989zm5.99218 3.22754a2.8168 2.8168 0 0 1 -1.09619 1.03613 3.46522 3.46522 0 0 1 -3.13965 0 2.784 2.784 0 0 1 -1.09619-1.03613 2.85611 2.85611 0 0 1 1.09619-4.00391 3.4653 3.4653 0 0 1 3.13965 0 2.89623 2.89623 0 0 1 1.09619 4.00391zm8.66358-1.14746a2.55474 2.55474 0 0 1 -.668 1.89551 2.95915 2.95915 0 0 1 -3.73584 0 2.55474 2.55474 0 0 1 -.668-1.89551v-3.13574h1.2959v3.08789q0 1.50439 1.24805 1.5039a1.16786 1.16786 0 0 0 .92773-.36425 1.69419 1.69419 0 0 0 .32031-1.13965v-3.08789h1.27985zm.84033 1.91211.43994-.97656a2.98478 2.98478 0 0 0 .856.4248 3.21926 3.21926 0 0 0 .99219.15918 1.58546 1.58546 0 0 0 .81591-.16406.49351.49351 0 0 0 .26368-.43555.41578.41578 0 0 0 -.15577-.332 1.19123 1.19123 0 0 0 -.3999-.21191q-.24462-.08058-.66016-.17579a9.09824 9.09824 0 0 1 -1.04785-.30468 1.69931 1.69931 0 0 1 -.70019-.48731 1.31992 1.31992 0 0 1 -.292-.89648 1.5556 1.5556 0 0 1 .26416-.88379 1.77227 1.77227 0 0 1 .79589-.62793 3.2536 3.2536 0 0 1 1.29981-.23242 4.325 4.325 0 0 1 1.04834.12793 3.1127 3.1127 0 0 1 .896.36816l-.39991.98438a3.12916 3.12916 0 0 0 -1.55224-.44043 1.4571 1.4571 0 0 0 -.8042.17578.53886.53886 0 0 0 -.25977.46484.45451.45451 0 0 0 .29981.42774 4.69242 4.69242 0 0 0 .916.27636 8.9384 8.9384 0 0 1 1.04834.30371 1.73616 1.73616 0 0 1 .69971.4795 1.287 1.287 0 0 1 .292.88867 1.53171 1.53171 0 0 1 -.26807.876 1.80834 1.80834 0 0 1 -.80371.62793 3.28513 3.28513 0 0 1 -1.3042.23145 4.5728 4.5728 0 0 1 -1.28369-.17969 3.02218 3.02218 0 0 1 -.99612-.46783zm102.50989 118.6289h-101.03516a.25.25 0 0 1 0-.5h101.03516a.25.25 0 0 1 0 .5z" fill="#054c5c"/><path d="m12.504 11.928h-2.544v-2.208h-1.296v5.6h1.296v-2.296h2.544v2.296h1.296v-5.6h-1.296z" fill="#0a97b7"/><path d="m19.40753 9.99963a3.4653 3.4653 0 0 0 -3.13965 0 2.79778 2.79778 0 0 0 -1.09619 1.03614 2.97826 2.97826 0 0 0 0 2.96777 2.784 2.784 0 0 0 1.09619 1.03613 3.46522 3.46522 0 0 0 3.13965 0 2.85611 2.85611 0 0 0 0-5.04zm-.04394 3.44825a1.62758 1.62758 0 0 1 -.62793.63574 1.87089 1.87089 0 0 1 -1.792 0 1.62758 1.62758 0 0 1 -.62793-.63574 2.00133 2.00133 0 0 1 0-1.85547 1.63655 1.63655 0 0 1 .62793-.63672 1.87789 1.87789 0 0 1 1.792 0 1.63655 1.63655 0 0 1 .62793.63672 2.00133 2.00133 0 0 1 0 1.85547z" fill="#0a97b7"/><path d="m27.616 13.688-1.28-3.968h-1.2l-1.32 3.936-1.264-3.936h-1.344l1.84 5.6h1.384l1.272-3.792 1.232 3.792h1.392l1.832-5.6h-1.24z" fill="#0a97b7"/><path d="m32.632 10.776h1.792v4.544h1.296v-4.544h1.792v-1.056h-4.88z" fill="#0a97b7"/><path d="m42.40753 9.99963a3.4653 3.4653 0 0 0 -3.13965 0 2.79778 2.79778 0 0 0 -1.09619 1.03614 2.97826 2.97826 0 0 0 0 2.96777 2.784 2.784 0 0 0 1.09619 1.03613 3.46522 3.46522 0 0 0 3.13965 0 2.85611 2.85611 0 0 0 0-5.04zm-.04394 3.44825a1.62758 1.62758 0 0 1 -.62793.63574 1.87089 1.87089 0 0 1 -1.792 0 1.62758 1.62758 0 0 1 -.62793-.63574 2.00133 2.00133 0 0 1 0-1.85547 1.63655 1.63655 0 0 1 .62793-.63672 1.87789 1.87789 0 0 1 1.792 0 1.63655 1.63655 0 0 1 .62793.63672 2.00133 2.00133 0 0 1 0 1.85547z" fill="#0a97b7"/><path d="m50.88751 12.80823a1.69419 1.69419 0 0 1 -.32031 1.13965 1.16786 1.16786 0 0 1 -.92773.36425q-1.24806 0-1.24805-1.5039v-3.08789h-1.2959v3.13574a2.55474 2.55474 0 0 0 .668 1.89551 2.95915 2.95915 0 0 0 3.73584 0 2.55474 2.55474 0 0 0 .668-1.89551v-3.13574h-1.27985z" fill="#0a97b7"/><path d="m56.59161 15.1842a1.80834 1.80834 0 0 0 .80371-.62793 1.53171 1.53171 0 0 0 .26807-.876 1.287 1.287 0 0 0 -.292-.88867 1.73616 1.73616 0 0 0 -.69971-.4795 8.9384 8.9384 0 0 0 -1.04834-.30371 4.69242 4.69242 0 0 1 -.916-.27636.45451.45451 0 0 1 -.29981-.42774.53886.53886 0 0 1 .25977-.46484 1.4571 1.4571 0 0 1 .8042-.17578 3.12916 3.12916 0 0 1 1.55224.44043l.39991-.98438a3.1127 3.1127 0 0 0 -.896-.36816 4.325 4.325 0 0 0 -1.04834-.12793 3.2536 3.2536 0 0 0 -1.29981.23242 1.77227 1.77227 0 0 0 -.79589.62793 1.5556 1.5556 0 0 0 -.26416.88379 1.31992 1.31992 0 0 0 .292.89648 1.69931 1.69931 0 0 0 .70019.48731 9.09824 9.09824 0 0 0 1.04785.30468q.416.09522.66016.17579a1.19123 1.19123 0 0 1 .3999.21191.41578.41578 0 0 1 .15577.332.49351.49351 0 0 1 -.26368.43555 1.58546 1.58546 0 0 1 -.81591.16406 3.21926 3.21926 0 0 1 -.99219-.15918 2.98478 2.98478 0 0 1 -.856-.4248l-.43994.97656a3.02218 3.02218 0 0 0 .99609.46777 4.5728 4.5728 0 0 0 1.28369.17969 3.28513 3.28513 0 0 0 1.30423-.23139z" fill="#0a97b7"/><path d="m62.888 14.28h-3.048v-1.296h2.599v-1.008h-2.599v-1.216h2.944v-1.04h-4.232v5.6h4.336z" fill="#0a97b7"/><path d="m66.18341 9.72034h1.2959v5.59961h-1.2959z" fill="#0a97b7"/><path d="m69.968 15.32h1.295v-4.544h1.792v-1.056h-4.879v1.056h1.792z" fill="#0a97b7"/><path d="m74.055 12.51233a.75091.75091 0 0 0 .55225-.22461.76123.76123 0 0 0 .22412-.55957.73342.73342 0 0 0 -.22412-.55664.82489.82489 0 0 0 -1.104 0 .73165.73165 0 0 0 -.22412.55664.75932.75932 0 0 0 .22412.55957.749.749 0 0 0 .55175.22461z" fill="#0a97b7"/><path d="m74.055 15.3844a.75091.75091 0 0 0 .55225-.22461.76123.76123 0 0 0 .22412-.55957.73342.73342 0 0 0 -.22412-.55664.82491.82491 0 0 0 -1.104 0 .73165.73165 0 0 0 -.22412.55664.75932.75932 0 0 0 .22412.55957.749.749 0 0 0 .55175.22461z" fill="#0a97b7"/><g fill="#31c4c3"><path d="m56.52094 126.00061a2.03522 2.03522 0 0 0 -1.05665.2793 1.99859 1.99859 0 0 0 -.73877.77539 2.46213 2.46213 0 0 0 0 2.23633 1.98543 1.98543 0 0 0 .73877.77539 2.1426 2.1426 0 0 0 1.94727.08593 1.77481 1.77481 0 0 0 .67383-.55664l-.56494-.57617a1.16757 1.16757 0 0 1 -.95606.49805 1.181 1.181 0 0 1 -.62988-.17188 1.16478 1.16478 0 0 1 -.43213-.47656 1.64354 1.64354 0 0 1 0-1.39258 1.16484 1.16484 0 0 1 .43213-.47656 1.19741 1.19741 0 0 1 1.58594.32031l.56494-.57617a1.82073 1.82073 0 0 0 -.6709-.55078 2.02292 2.02292 0 0 0 -.89355-.19336z"/><path d="m58.61761 125.82092h.84717v4.45313h-.84717z"/><path d="m61.05609 125.69592a.52089.52089 0 0 0 -.37988-.14453.52263.52263 0 1 0 0 1.04492.49832.49832 0 0 0 .37988-.15429.53361.53361 0 0 0 .147-.38672.48.48 0 0 0 -.147-.35938z"/><path d="m60.25238 127.04553h.84717v3.22852h-.84717z"/><path d="m62.69623 127.04553h-.80908v4.39258h.84716v-1.50586a1.07717 1.07717 0 0 0 .87989.38867 1.37366 1.37366 0 0 0 .7417-.207 1.41509 1.41509 0 0 0 .52392-.582 2.0965 2.0965 0 0 0 0-1.74609 1.42731 1.42731 0 0 0 -.52392-.582 1.39075 1.39075 0 0 0 -.7417-.207 1.07844 1.07844 0 0 0 -.918.41993zm.23633.96289a.71237.71237 0 0 1 1.07031 0 1.11962 1.11962 0 0 1 0 1.30274.71237.71237 0 0 1 -1.07031 0 1.11957 1.11957 0 0 1 0-1.30274z"/><path d="m69.38812 127.20959a1.7133 1.7133 0 0 0 -1.65429 0 1.50736 1.50736 0 0 0 -.57276.5918 1.88706 1.88706 0 0 0 0 1.7168 1.48945 1.48945 0 0 0 .57276.58984 1.7133 1.7133 0 0 0 1.65429 0 1.49991 1.49991 0 0 0 .57032-.58984 1.89106 1.89106 0 0 0 0-1.7168 1.51814 1.51814 0 0 0 -.57032-.5918zm-.291 2.10157a.67207.67207 0 0 1 -.53467.24218.68233.68233 0 0 1 -.53809-.24218 1.10912 1.10912 0 0 1 0-1.30274.68233.68233 0 0 1 .53809-.24218.67207.67207 0 0 1 .53467.24218 1.11749 1.11749 0 0 1 0 1.30274z"/><path d="m71.191 130.274.663-.99.641.99h.961l-1.13-1.65 1.087-1.578h-.902l-.636.941-.619-.941h-.95l1.086 1.601-1.124 1.627z"/><path d="m74.67279 125.69592a.52091.52091 0 0 0 -.37988-.14453.52263.52263 0 1 0 0 1.04492.49834.49834 0 0 0 .37988-.15429.53361.53361 0 0 0 .147-.38672.48.48 0 0 0 -.147-.35938z"/><path d="m73.86908 127.04553h.84717v3.22852h-.84717z"/><path d="m80.44135 130.27405v-1.84766a1.55456 1.55456 0 0 0 -.32325-1.07226 1.11816 1.11816 0 0 0 -.87207-.35743 1.31963 1.31963 0 0 0 -.60009.13868 1.22719 1.22719 0 0 0 -.45362.39062 1.02712 1.02712 0 0 0 -.40185-.39258 1.13893 1.13893 0 0 0 -.55957-.13672 1.23041 1.23041 0 0 0 -.51856.10938 1.09054 1.09054 0 0 0 -.39941.31055v-.3711h-.80908v3.22852h.84715v-1.62105a.98674.98674 0 0 1 .17383-.63281.57536.57536 0 0 1 .46729-.21289q.55371 0 .5542.76172v1.70508h.84716v-1.6211a.98381.98381 0 0 1 .17383-.63281.58134.58134 0 0 1 .47266-.21289.48193.48193 0 0 1 .40967.18945.93526.93526 0 0 1 .144.57227v1.70508z"/><path d="m84.09662 128.67249a1.89038 1.89038 0 0 0 -.19824-.88672 1.42249 1.42249 0 0 0 -.5459-.584 1.49888 1.49888 0 0 0 -.77637-.20508 1.53266 1.53266 0 0 0 -.7959.21289 1.51 1.51 0 0 0 -.55957.59571 1.78328 1.78328 0 0 0 -.20361.85351 1.76434 1.76434 0 0 0 .20654.85938 1.46333 1.46333 0 0 0 .58643.58984 1.75235 1.75235 0 0 0 .87451.21289 1.44642 1.44642 0 0 0 1.206-.52148l-.45117-.53906a.99.99 0 0 1 -.32861.23632 1.012 1.012 0 0 1 -.4043.07422.86525.86525 0 0 1 -.5542-.17383.76789.76789 0 0 1 -.28271-.47265h2.21094q.01616-.23436.01616-.25194zm-2.23779-.29493a.797.797 0 0 1 .23925-.49218.69065.69065 0 0 1 .4834-.17969.67026.67026 0 0 1 .478.18359.79647.79647 0 0 1 .23877.48828z"/><path d="m85.04974 130.028a1.07446 1.07446 0 0 0 .80664.293 1.36757 1.36757 0 0 0 .38282-.05078.81694.81694 0 0 0 .30713-.15234l-.228-.66016a.5104.5104 0 0 1 -.34229.11914.34.34 0 0 1 -.269-.10937.47271.47271 0 0 1 -.09473-.31641v-1.3125h.72754v-.7207h-.72754v-.78711h-.84765v.78711h-.45076v.7207h.45069v1.32422a1.198 1.198 0 0 0 .28515.8652z"/><path d="m89.79437 128.67249a1.89038 1.89038 0 0 0 -.19824-.88672 1.42236 1.42236 0 0 0 -.5459-.584 1.49886 1.49886 0 0 0 -.77637-.20508 1.53262 1.53262 0 0 0 -.79589.21289 1.50992 1.50992 0 0 0 -.55957.59571 1.78317 1.78317 0 0 0 -.20362.85351 1.76423 1.76423 0 0 0 .20655.85938 1.46325 1.46325 0 0 0 .58642.58984 1.75235 1.75235 0 0 0 .87451.21289 1.44644 1.44644 0 0 0 1.20606-.52148l-.45117-.53906a.99008.99008 0 0 1 -.32862.23632 1.012 1.012 0 0 1 -.40429.07422.86521.86521 0 0 1 -.5542-.17383.76785.76785 0 0 1 -.28272-.47265h2.21094q.01611-.23436.01611-.25194zm-2.23779-.29493a.79709.79709 0 0 1 .23926-.49218.69063.69063 0 0 1 .4834-.17969.67026.67026 0 0 1 .478.18359.79647.79647 0 0 1 .23877.48828z"/><path d="m90.35931 127.04553v3.22852h.84717v-1.52539a.96786.96786 0 0 1 .20654-.67383.73373.73373 0 0 1 .57032-.22461c.03271 0 .0957.00391.18994.01172v-.86524a1.39387 1.39387 0 0 0 -.59473.1211.96275.96275 0 0 0 -.41015.35351v-.42578z"/><path d="m94.23724 127.04553h.84717v3.22852h-.84717z"/><path d="m95.041 125.69592a.52088.52088 0 0 0 -.37988-.14453.52263.52263 0 1 0 0 1.04492.49831.49831 0 0 0 .37988-.15429.53361.53361 0 0 0 .147-.38672.48005.48005 0 0 0 -.147-.35938z"/><path d="m98.85931 130.27405v-1.84766a1.51964 1.51964 0 0 0 -.334-1.06836 1.141 1.141 0 0 0 -.87744-.36133 1.33268 1.33268 0 0 0 -.54834.11133 1.12686 1.12686 0 0 0 -.41846.31641v-.37891h-.80907v3.22852h.84717v-1.59571a.97046.97046 0 0 1 .19043-.65234.64566.64566 0 0 1 .51025-.21875.52882.52882 0 0 1 .43994.18945.8981.8981 0 0 1 .15235.57227v1.70508z"/><path d="m100.01361 130.028a1.07446 1.07446 0 0 0 .80664.293 1.36745 1.36745 0 0 0 .38281-.05078.81679.81679 0 0 0 .30713-.15234l-.228-.66016a.5104.5104 0 0 1 -.34229.11914.33995.33995 0 0 1 -.269-.10937.47271.47271 0 0 1 -.09473-.31641v-1.3125h.72754v-.7207h-.72754v-.78711h-.84766v.78711h-.45068v.7207h.45068v1.32422a1.198 1.198 0 0 0 .2851.8652z"/><path d="m104.11224 127.20959a1.7133 1.7133 0 0 0 -1.65429 0 1.50736 1.50736 0 0 0 -.57276.5918 1.88706 1.88706 0 0 0 0 1.7168 1.48945 1.48945 0 0 0 .57276.58984 1.7133 1.7133 0 0 0 1.65429 0 1.49991 1.49991 0 0 0 .57032-.58984 1.89106 1.89106 0 0 0 0-1.7168 1.51814 1.51814 0 0 0 -.57032-.5918zm-.291 2.10157a.67206.67206 0 0 1 -.53467.24218.68234.68234 0 0 1 -.53809-.24218 1.10912 1.10912 0 0 1 0-1.30274.68234.68234 0 0 1 .53809-.24218.67206.67206 0 0 1 .53467.24218 1.11749 1.11749 0 0 1 0 1.30274z"/><path d="m107.61517 130.63733a.42541.42541 0 0 1 -.28222.0918.66.66 0 0 1 -.25293-.05274.72792.72792 0 0 1 -.2251-.15039l-.30957.666a.95611.95611 0 0 0 .36377.21484 1.33715 1.33715 0 0 0 .45068.07813 1.14475 1.14475 0 0 0 .71436-.22657 1.69189 1.69189 0 0 0 .49707-.78711l1.31982-3.42578h-.81445l-.82568 2.18946-.82032-2.18946h-.87451l1.26563 3.252-.01075.02929a.804.804 0 0 1 -.1958.31053z"/><path d="m112.37347 127.20959a1.7133 1.7133 0 0 0 -1.65429 0 1.50736 1.50736 0 0 0 -.57276.5918 1.88706 1.88706 0 0 0 0 1.7168 1.48945 1.48945 0 0 0 .57276.58984 1.7133 1.7133 0 0 0 1.65429 0 1.49991 1.49991 0 0 0 .57032-.58984 1.89106 1.89106 0 0 0 0-1.7168 1.51814 1.51814 0 0 0 -.57032-.5918zm-.291 2.10157a.67206.67206 0 0 1 -.53467.24218.68236.68236 0 0 1 -.53809-.24218 1.10912 1.10912 0 0 1 0-1.30274.68236.68236 0 0 1 .53809-.24218.67206.67206 0 0 1 .53467.24218 1.11749 1.11749 0 0 1 0 1.30274z"/><path d="m116.65863 130.27405v-3.22852h-.84717v1.59571a.98251.98251 0 0 1 -.18457.65039.60861.60861 0 0 1 -.48926.2207q-.5918 0-.59179-.78125v-1.68555h-.84717v1.82422a1.55214 1.55214 0 0 0 .33643 1.08594 1.17852 1.17852 0 0 0 .91259.36523 1.15963 1.15963 0 0 0 .50537-.11133 1.11184 1.11184 0 0 0 .40186-.32031v.38477z"/><path d="m117.44623 127.04553v3.22852h.84717v-1.52539a.96781.96781 0 0 1 .20654-.67383.73371.73371 0 0 1 .57031-.22461c.03272 0 .0957.00391.18994.01172v-.86524a1.39379 1.39379 0 0 0 -.59472.1211.96272.96272 0 0 0 -.41016.35351v-.42578z"/><path d="m121.32416 127.04553h.84717v3.22852h-.84717z"/><path d="m122.12787 125.69592a.52091.52091 0 0 0 -.37988-.14453.52263.52263 0 1 0 0 1.04492.49834.49834 0 0 0 .37988-.15429.53365.53365 0 0 0 .147-.38672.48008.48008 0 0 0 -.147-.35938z"/><path d="m125.94623 130.27405v-1.84766a1.51964 1.51964 0 0 0 -.334-1.06836 1.141 1.141 0 0 0 -.87744-.36133 1.33271 1.33271 0 0 0 -.54834.11133 1.12682 1.12682 0 0 0 -.41845.31641v-.37891h-.80909v3.22852h.84717v-1.59571a.97051.97051 0 0 1 .19043-.65234.64569.64569 0 0 1 .51025-.21875.52885.52885 0 0 1 .43995.18945.8981.8981 0 0 1 .15234.57227v1.70508z"/><path d="m129.72113 130.27405v-4.45313h-.84713v1.56641a1.06409 1.06409 0 0 0 -.87451-.39063 1.38525 1.38525 0 0 0 -1.271.78711 2.11 2.11 0 0 0 0 1.752 1.379 1.379 0 0 0 1.271.78515 1.06723 1.06723 0 0 0 .91211-.41992v.373zm-1.043-.96289a.71182.71182 0 0 1 -1.06982 0 1.107 1.107 0 0 1 0-1.30274.71182.71182 0 0 1 1.06982 0 1.107 1.107 0 0 1 0 1.30274z"/><path d="m133.36566 128.67249a1.89038 1.89038 0 0 0 -.19824-.88672 1.42242 1.42242 0 0 0 -.5459-.584 1.49886 1.49886 0 0 0 -.77637-.20508 1.53262 1.53262 0 0 0 -.79589.21289 1.50992 1.50992 0 0 0 -.55957.59571 1.78317 1.78317 0 0 0 -.20362.85351 1.76434 1.76434 0 0 0 .20654.85938 1.46333 1.46333 0 0 0 .58643.58984 1.75235 1.75235 0 0 0 .87451.21289 1.44644 1.44644 0 0 0 1.20606-.52148l-.45117-.53906a.99008.99008 0 0 1 -.32862.23632 1.012 1.012 0 0 1 -.4043.07422.8652.8652 0 0 1 -.55419-.17383.76785.76785 0 0 1 -.28272-.47265h2.21094q.01611-.23436.01611-.25194zm-2.23779-.29493a.79709.79709 0 0 1 .23926-.49218.69062.69062 0 0 1 .48339-.17969.67026.67026 0 0 1 .478.18359.79647.79647 0 0 1 .23877.48828z"/><path d="m134.403 130.274.663-.99.64.99h.962l-1.13-1.65 1.086-1.578h-.901l-.636.941-.619-.941h-.95l1.086 1.601-1.125 1.627z"/><path d="m141.95892 125.69592a.52127.52127 0 0 0 -.38037-.14453.52262.52262 0 1 0 0 1.04492.49867.49867 0 0 0 .38037-.15429.53564.53564 0 0 0 .147-.38672.48188.48188 0 0 0 -.147-.35938z"/><path d="m141.15521 127.04553h.84717v3.22852h-.84717z"/><path d="m139.933 126.51233a.54.54 0 0 1 .34229.11328l.22266-.67773a.81326.81326 0 0 0 -.28516-.12891 1.36223 1.36223 0 0 0 -.36133-.04492 1.06905 1.06905 0 0 0 -.83349.32422 1.244 1.244 0 0 0 -.29639.875v.14453h-.45068v.7207h.45068v2.43555h.84765v-2.43555h.72754v-.7207h-.74951v-.13867c.00004-.3125.12846-.4668.38574-.4668z"/><path d="m144.017 127.108a1.12686 1.12686 0 0 0 -.41846.31641v-.37891h-.80908v3.22852h.84717v-1.59571a.97046.97046 0 0 1 .19043-.65234.64566.64566 0 0 1 .51025-.21875.52882.52882 0 0 1 .43994.18945.898.898 0 0 1 .15235.57227v1.70508h.84716v-1.84766a1.51964 1.51964 0 0 0 -.334-1.06836 1.141 1.141 0 0 0 -.87744-.36133 1.33268 1.33268 0 0 0 -.54832.11133z"/><path d="m147.08344 129.92249a1.42452 1.42452 0 0 0 .73583.19531 1.13125 1.13125 0 0 0 .92334-.40235v.13868a.92716.92716 0 0 1 -.209.66211.858.858 0 0 1 -.64893.21875 1.7346 1.7346 0 0 1 -.56494-.09766 1.36219 1.36219 0 0 1 -.46728-.26758l-.33643.67188a1.686 1.686 0 0 0 .62989.33007 2.77785 2.77785 0 0 0 .80371.11329 1.62 1.62 0 0 0 1.22216-.43165 1.8334 1.8334 0 0 0 .41846-1.32031v-2.6875h-.8042v.41406a1.11378 1.11378 0 0 0 -.9668-.46289 1.44341 1.44341 0 0 0 -.73583.19532 1.42835 1.42835 0 0 0 -.52979.54882 1.804 1.804 0 0 0 0 1.63282 1.40179 1.40179 0 0 0 .52981.54883zm.35058-1.9375a.74379.74379 0 0 1 .55371-.21875.736.736 0 0 1 .55127.21875.87215.87215 0 0 1 0 1.14648.74342.74342 0 0 1 -.55127.21875.75135.75135 0 0 1 -.55371-.21875.86481.86481 0 0 1 0-1.14648z"/><path d="m150.95355 130.108a1.75235 1.75235 0 0 0 .87451.21289 1.44644 1.44644 0 0 0 1.20606-.52148l-.45117-.53906a.99008.99008 0 0 1 -.32862.23632 1.012 1.012 0 0 1 -.40429.07422.86523.86523 0 0 1 -.5542-.17383.76785.76785 0 0 1 -.28272-.47265h2.21094q.01611-.23437.01611-.25195a1.89026 1.89026 0 0 0 -.19824-.88672 1.42236 1.42236 0 0 0 -.5459-.584 1.49885 1.49885 0 0 0 -.77636-.20508 1.53263 1.53263 0 0 0 -.7959.21289 1.50992 1.50992 0 0 0 -.55957.59571 1.78317 1.78317 0 0 0 -.20362.85351 1.76423 1.76423 0 0 0 .20655.85938 1.46325 1.46325 0 0 0 .58642.58985zm.28809-2.22265a.69063.69063 0 0 1 .4834-.17969.67026.67026 0 0 1 .478.18359.79642.79642 0 0 1 .23877.48828h-1.43945a.79709.79709 0 0 1 .23928-.49215z"/><path d="m154.65228 128.74866a.96781.96781 0 0 1 .20655-.67383.7337.7337 0 0 1 .57031-.22461c.03271 0 .0957.00391.18994.01172v-.86524a1.39387 1.39387 0 0 0 -.59473.1211.96275.96275 0 0 0 -.41015.35351v-.42578h-.80909v3.22852h.84717z"/></g><path d="m131.77045 115.6405a12.93807 12.93807 0 0 0 12.75824-10.89258 13.17546 13.17546 0 0 0 .14764-1.96728v-53.54077a13.03047 13.03047 0 0 0 -3.78058-9.19361 12.878 12.878 0 0 0 -9.1253-3.7832h-53.5409a12.933 12.933 0 0 0 -12.91827 12.91834v42.14953l11.07519-6.25171a4.75717 4.75717 0 0 1 .52411-.77136 4.78146 4.78146 0 0 1 -1.16958-2.14343l-.00037-.00012-.00018-.002a3.198 3.198 0 0 1 -.06836-.70691c.0003-.02209.00354-.04419.00439-.06628l-.21118-2.55066c-.00647-.03918-.00781-.07849-.01343-.11767-.01727-.12134-.03283-.24292-.04144-.36451-.00433-.0603-.00439-.1206-.00653-.1809-.00384-.10718-.00647-.21424-.0036-.32142.00177-.06591.00677-.13171.01111-.19751.00665-.10192.01513-.20349.02789-.30529.00848-.06812.01911-.136.03034-.204q.02472-.14924.058-.2981c.01538-.06848.03156-.13684.04974-.2052.02637-.09912.05671-.198.08893-.29663.02185-.067.04321-.13391.06775-.20068.03729-.10132.07983-.202.12341-.30274.02723-.06286.05256-.126.08216-.18847.05182-.10962.11029-.218.16949-.32642.02875-.05249.05426-.10547.08472-.15784.09314-.15991.19324-.31872.30273-.47595a8.21031 8.21031 0 0 1 .9809-1.15344c.195-.1919.408-.37915.63049-.5636a11.75043 11.75043 0 0 1 1.15924-.84851q.25818-.1657.53351-.32532l25.60139-14.83282q.28821-.167.58856-.32264c.06415-.03332.13056-.06445.19544-.097.13769-.06922.27557-.13831.41662-.20423.07733-.03613.15656-.07006.23487-.10522.13256-.05933.26519-.11865.40039-.17505.08209-.03442.16565-.067.24871-.10034.13514-.05408.2707-.10767.40821-.15894.08325-.031.16742-.06079.25152-.09082.14179-.05053.28431-.10009.42835-.1477q.12186-.04029.24481-.07886.22688-.07178.45691-.13892.11481-.03332.23028-.06567.24684-.06885.49714-.13184c.06744-.017.1347-.03417.20245-.05065q.27529-.06684.55432-.12684c.053-.01135.10553-.02331.15863-.03442q.32117-.067.64655-.12524c.02533-.00464.05041-.00977.0758-.01416.28388-.05005.57038-.09327.858-.13355q.12955-.01794.25965-.03467.35367-.04558.71-.08154c.06018-.0061.11993-.01343.18018-.019.27545-.02576.55206-.04578.82922-.06275.10486-.00634.20978-.01147.31482-.0166q.304-.01483.60876-.02246c.09644-.00244.19269-.00635.28919-.00781q.39907-.00586.79828.001c.11859.00183.23681.00561.35534.009.08228.00244.16462.00305.24677.00622l-.03864.002a21.27819 21.27819 0 0 1 9.70868 2.52881c3.02594 1.75317 4.48883 4.08093 4.39722 6.39148l.00836-.00342-.01074.061a5.3456 5.3456 0 0 1 -.304 1.51734 35.712 35.712 0 0 1 -1.69775 5.68969 7.0368 7.0368 0 0 1 .44446.69214l.00336-.00195.04333.0863c.04327.08142.084.16321.12311.24512 0 0 2.05383 4.27991 2.037 4.57825 1.21551 2.87854-.10688 6.05175-3.96839 8.28906l-25.60124 14.83305a21.80986 21.80986 0 0 1 -10.71344 2.55212h-.00019a23.92873 23.92873 0 0 1 -7.87885-1.28955l-14.92534 10.84143a12.8857 12.8857 0 0 0 9.51074 4.18689z" fill="#50818d"/><path d="m76.91058 84.30786a4.75717 4.75717 0 0 0 -.52411.77136l.81421-.45947q-.15234-.15582-.2901-.31189z" fill="#e1e1e1"/><path d="m128.49457 72.26318 2.01 4.51795c.96685 2.29-.29413 4.72241-3.37342 6.50659l-25.60149 14.83289a20.24407 20.24407 0 0 1 -9.97424 2.36218h-.03064a23.00472 23.00472 0 0 1 -6.46674-.89758l-1.41394 1.027a23.92873 23.92873 0 0 0 7.87885 1.28955h.00024a21.80986 21.80986 0 0 0 10.71344-2.55212l25.60137-14.83316c3.86151-2.23731 5.1839-5.41052 3.96839-8.28906.01684-.29834-2.037-4.57825-2.037-4.57825-.03913-.08191-.07984-.1637-.12311-.24512l-.04333-.0863-.00336.00195a7.0368 7.0368 0 0 0 -.44446-.69214 14.65605 14.65605 0 0 1 -.72058 1.51538c.02028.04006.04079.08006.06002.12024z" fill="#e1e1e1"/><path d="m91.55542 100.48279a20.24407 20.24407 0 0 0 9.97424-2.36218l25.60144-14.83289c3.07929-1.78418 4.34027-4.21655 3.37342-6.50659l-2.01-4.51795c-.01923-.04016-.03974-.0802-.06006-.12024a5.063 5.063 0 0 1 -1.67255 1.95459l-24.20905 14.02647a36.70845 36.70845 0 0 1 -8.34345 4.91614 3.3414 3.3414 0 0 1 -.75867.62256l-8.38635 5.918-.00635.00452a23.00472 23.00472 0 0 0 6.46674.89758z" fill="#d8d8d8"/><path d="m102.55286 88.124-1.39222.80652a11.9196 11.9196 0 0 1 -2.04608.92993c-.8341.5304-1.70434 1.03907-2.59131 1.50281l.00007.00037-2.12006 1.45387q-.09449.1161-.19385.22266a36.70845 36.70845 0 0 0 8.34345-4.91616z" fill="#fafafa"/><path d="m96.37512 90.52112.14813.84216c.887-.46374 1.75721-.97241 2.59131-1.50281a14.60079 14.60079 0 0 1 -2.73944.66065z" fill="#c9c8c6"/><path d="m80.37457 86.973a15.51357 15.51357 0 0 1 -2.97457-2.15672l-12.08872 6.82372v11.08228a12.95342 12.95342 0 0 0 .16144 2.0332l20.5401-15.31908a28.4853 28.4853 0 0 1 -5.63825-2.4634z" fill="#fff"/><path d="m94.20941 93.04016q.09933-.10675.19385-.22266l-.50293.345-8.83594 6.41821 8.38635-5.918a3.3414 3.3414 0 0 0 .75867-.62255z" fill="#0a94b4"/><path d="m77.20068 84.61975-.81421.45947-11.07519 6.25171v.30907l12.08872-6.82372c-.068-.06555-.13523-.13098-.19932-.19653z" fill="#0a94b4"/><path d="m86.01282 89.4364-20.5401 15.31909a12.85833 12.85833 0 0 0 2.58093 5.91065l22.11389-20.249a28.268 28.268 0 0 1 -4.15472-.98074z" fill="#e4f3f7"/><path d="m85.058 99.58521.00635-.00452 8.83594-6.41821.50293-.345 2.12006-1.45385-.00007-.00037-.14813-.84216a21.12466 21.12466 0 0 1 -6.20758-.104l-22.11389 20.249c.212.27087.43274.53442.66516.78747l14.92533-10.84139z" fill="#c2e4ec"/><path d="m131.16754 63.3595-.00836.00342-.00238.05761z" fill="#bababa"/><path d="m77.4 84.81628a15.51357 15.51357 0 0 0 2.97457 2.15672 28.97525 28.97525 0 0 0 9.793 3.44409 21.12466 21.12466 0 0 0 6.20758.104 14.60079 14.60079 0 0 0 2.73944-.66065 11.9196 11.9196 0 0 0 2.04608-.92993l1.39222-.80652 24.20911-14.02646a5.063 5.063 0 0 0 1.67255-1.95459 14.65605 14.65605 0 0 0 .72058-1.51538 35.712 35.712 0 0 0 1.69775-5.68969 8.72648 8.72648 0 0 1 -4.09088 4.40918l-25.60136 14.83325a21.27952 21.27952 0 0 1 -9.70941 2.52856l.03907.00208c-.08307.00317-.16633.0039-.24946.00635-.11706.00329-.23394.00695-.35113.00891-.26685.004-.53369.00488-.80054.001-.09564-.00146-.191-.00537-.28656-.00781q-.30615-.00769-.61157-.02246c-.10468-.00513-.20917-.01025-.3136-.0166-.27765-.01709-.55481-.03711-.83081-.06275-.05841-.00549-.11627-.01269-.17456-.01855q-.35943-.03607-.71588-.08228-.12909-.01665-.25775-.03442c-.28778-.04028-.57453-.0835-.85852-.13355l-.07471-.01391q-.326-.05859-.64813-.12561c-.05255-.011-.10468-.02283-.15711-.0343q-.279-.06024-.55456-.12671c-.06812-.01648-.13574-.03382-.20355-.051q-.24994-.06317-.49671-.13159-.11544-.03222-.23-.06567-.23034-.067-.45721-.13892-.12278-.03882-.24457-.07873-.21634-.0716-.429-.14808c-.08374-.02978-.16754-.05944-.25036-.09033-.13819-.05151-.27436-.10547-.41016-.15979-.08246-.03308-.1654-.06531-.24695-.09949-.13586-.05676-.26922-.11633-.40246-.176-.07758-.03491-.15607-.06848-.23273-.10425-.14185-.06628-.28052-.13574-.419-.20532-.06414-.03235-.12982-.06311-.19329-.09619q-.29983-.156-.58869-.32251-.27539-.15968-.53351-.32544a11.54041 11.54041 0 0 1 -1.39392-1.04395 9.29984 9.29984 0 0 1 -.7572-.74487c-.12231-.1355-.237-.27246-.34625-.41064-.03614-.04578-.06848-.09229-.10321-.13819-.07032-.09326-.13983-.18652-.20429-.28076-.0379-.05542-.07257-.11145-.10846-.16724-.05529-.08606-.10956-.17212-.16-.25891-.035-.05993-.06757-.12024-.10016-.18054-.04535-.084-.08887-.168-.12976-.25244q-.04514-.09339-.08679-.187c-.03723-.08411-.07172-.16846-.10456-.25293-.02441-.06275-.04889-.12549-.07092-.18848-.03033-.08691-.05688-.17407-.08264-.26123-.01794-.06079-.03723-.12134-.053-.18225-.02454-.09509-.04407-.19031-.06323-.28564-.0108-.05335-.02405-.10657-.03314-.16l-.0044-.02124.21118 2.55066c-.00085.02209-.00409.04419-.00439.06628a3.198 3.198 0 0 0 .06836.70691l.00018.002.00037.00012a4.78146 4.78146 0 0 0 1.16955 2.14343q.13743.15619.2901.31189c.06413.06538.13136.13081.19936.19636z" fill="#bababa"/><path d="m81.82056 71.80432c-5.874 3.40332-5.874 8.97266 0 12.376a19.75471 19.75471 0 0 0 19.34008 0l25.60136-14.83327a8.72648 8.72648 0 0 0 4.09088-4.40918 5.3456 5.3456 0 0 0 .304-1.51734l.00238-.05761c.09161-2.31055-1.37128-4.63831-4.39722-6.39148a19.753 19.753 0 0 0 -19.34008 0zm24.46673-10.06372a1.57161 1.57161 0 0 1 1.50959-.00647c.46716.27063.38427.62512.017.838a1.24454 1.24454 0 0 1 -.80853.1388l.84863.49182-.27063.15674-1.29321-.74927c-.45847-.26562-.43839-.61693-.00285-.86962zm-3.83166 1.73486a1.22048 1.22048 0 0 1 1.25592-.03466c.27911.16186.36761.365.14789.57763l1.18493.11573-.34729.20117-1.11084-.12842-.44427.25732.66656.386-.29071.16858-1.86282-1.07923zm-1.72821 1.00122a1.25613 1.25613 0 0 1 1.2904-.038c.35321.20459.40723.47669-.06305.74915l-.4898.28393.63543.36792-.29071.16846-1.86255-1.07935zm-4.74512 3.78565a.96779.96779 0 0 1 .87726 0c.24493.14184.25055.36975.00567.51172a.975.975 0 0 1 -.88574-.00171.26982.26982 0 0 1 .00281-.51001zm.69653 4.22534.03363-.17358.90076.05786 1.93463 1.585-.07129.31738-.6289-.02759zm.61988 2.73389-.06671.38644-.56726-.01928-1.9873-1.5271.11908-.56043.36682.01929zm-2.09412-7.68689.68072 1.764-.20788.1206-.68066-1.7644zm-1.18182.642a.973.973 0 0 1 .88263 0 .27028.27028 0 0 1 .0003.51135.968.968 0 0 1 -.88037-.00134c-.24207-.14029-.24774-.3682-.00256-.51004zm-.29859.98815a.7746.7746 0 0 1 .75757-.00036.306.306 0 0 1 .17084.327l-.01728.32043.46723-.27075.18213.10547-.74042.4292-.17364-.10083.01135-.47168a.21655.21655 0 0 0 -.108-.22132.35859.35859 0 0 0 -.35889-.00683c-.11115.06445-.10547.14392.01416.21313l.02826.01648-.1994.11548-.02289-.01331c-.23642-.13684-.24466-.30676-.01102-.44214zm.92926 4.33643-.11932.57727-2.63062 1.5239-.87219-.07434.1004-.21277 3.13086-1.81409zm-3.207-3.83215a2.06345 2.06345 0 0 1 1.95978-.01331c.55829.32361.55774.799-.02313 1.13538a2.06317 2.06317 0 0 1 -1.95929.01343c-.5585-.32352-.5582-.79886.02267-1.13553zm-1.47424 1.38232a1.571 1.571 0 0 1 1.50928-.00647c.46753.27075.38464.62525.01727.838a1.246 1.246 0 0 1 -.80878.13892l.84894.4917-.27063.15674-1.29349-.74931c-.45843-.2656-.43835-.61692-.00256-.86961zm-2.09345 11.4729a5.69305 5.69305 0 0 1 -5.16095 0 1.62005 1.62005 0 0 1 -.0003-3.05859 5.69433 5.69433 0 0 1 5.161 0 1.62014 1.62014 0 0 1 .0003 3.05859zm1.89747-9.64355a1.29738 1.29738 0 0 1 -1.25593.06787l.28766-.16651a.71891.71891 0 0 0 .70044-.05615c.25934-.15014.2851-.30371.103-.4093-.19653-.11414-.42731-.01672-.69232.09045a1.22052 1.22052 0 0 1 -1.1507.05628c-.3388-.19641-.31616-.47986.0744-.70618a1.27 1.27 0 0 1 1.20441-.05444l-.276.15979a.69265.69265 0 0 0 -.65521.04651c-.23926.13855-.24805.28869-.07721.38769.19684.11414.43042.01477.69513-.09253a1.22288 1.22288 0 0 1 1.1535-.05761c.35608.20627.30461.49325-.11114.7341zm3.98638 4.70434-.62927-.02758-2.16876-1.759.03363-.17358.9007.05786 1.93493 1.585zm.138.03028.0998-.40577 2.64508-1.53247.60064.01636-.02856.42005-2.62125 1.51864zm6.12854.46411-3.09753 1.79468-.36676-.01929.076-.59082 2.61169-1.50757.877.07178zm.10041-.36719-.86286-.04687-1.90631-1.563.03333-.36182.634.01929 2.17786 1.7644zm.11877-6.94458-2.63061 1.52393-.87213-.07434.1004-.21277 3.13086-1.81409h.39081zm2.69794 1.52966-.56726-.01939-1.98725-1.5271.11908-.56042.36676.01929 2.13514 1.701zm2.89728 2.10413-.86255-.04688-1.90637-1.563.03338-.36182.634.01929 2.17785 1.7644zm.19372-10.8a1.54578 1.54578 0 0 1 -1.50055-.00171l-1.30768-.75732.27063-.157.8631.5c-.07971-.16479.0116-.33618.23957-.4685a1.53189 1.53189 0 0 1 1.44653.01c.44144.2558.43582.61542-.01157.87445zm3.6153 4.79651-.629-.02783-2.16876-1.75867.03363-.174.90076.05786 1.93463 1.58508zm.77173-3.507-2.63056 1.52442-.87219-.07471.1004-.21253 3.13086-1.81408h.39087zm5.59521 3.63379-.86255-.04687-1.90631-1.56275.03333-.36182.634.01954 2.17786 1.7644zm1.9635-1.176-.33343-.03857-2.20185-1.77832.1001-.32861.60034.03857 1.94934 1.53247zm-2.46374-2.2395.10009-.40576 2.645-1.53247.60041.01636-.02857.4198-2.621 1.51867zm6.12884.46411-3.09775 1.79457-.36682-.01929.076-.59106 2.61194-1.50757.87671.07178zm-2.63574-2.33911.63434.01953 2.17755 1.76441-.076.18762-.86255-.04675-1.90637-1.563zm-2.59723-2.23913.36682.01928 2.13513 1.701-.06646.38648-.56732-.01929-1.98719-1.5271zm-3.66479 1.81408 3.13086-1.81408h.39086l-.11907.577-2.63062 1.52417-.87213-.07458zm-.13349.30933.90076.05786 1.93487 1.585-.07122.31763-.62928-.02783-2.16876-1.75879zm.57184 2.916-.06647.38647-.56732-.01929-1.98718-1.5271.119-.56054.36682.01928zm-5.33869-5.19927a1.15736 1.15736 0 0 1 .77453-.12574c-.08539-.16149-.0025-.32153.21692-.44873a1.1938 1.1938 0 0 1 1.21039.02808l.81445.47205-.27063.15661-.81445-.47192a.694.694 0 0 0 -.7149-.02466c-.19117.1106-.211.26392.04553.4126l.81445.47192-.27039.15674-.81445-.47192a.70869.70869 0 0 0 -.71521-.02478c-.19678.11389-.21911.26233.04273.41406l.81475.472-.27063.15686-.81475-.47192c-.42983-.2491-.37863-.50997-.04834-.70125z" fill="#efefef"/><path d="m75.4519 78.72083c.00562.03918.007.07849.01343.11767l.0044.02124c-.00782-.04614-.01123-.09253-.01783-.13891z" fill="#efefef"/><path d="m101.7243 64.60876a.68488.68488 0 0 0 -.72345.01978l-.49572.28723.69232.401.49542-.28723c.27942-.16174.23078-.3053.03143-.42078z" fill="#efefef"/><path d="m96.6828 68.66809c.14227-.08227.1369-.21423-.00848-.29858a.56193.56193 0 0 0 -.50989-.00171c-.14252.08264-.1366.2146.00311.29553a.56139.56139 0 0 0 .51526.00476z" fill="#efefef"/><path d="m103.418 63.61084a.65188.65188 0 0 0 -.692.01819l-.51269.29712.66089.38281.51245-.29712c.27058-.15662.21935-.29199.03135-.401z" fill="#efefef"/><path d="m90.23413 71.75757a1.00937 1.00937 0 0 0 .97113.005c.29041-.16821.27942-.39917-.00568-.56445a1.01154 1.01154 0 0 0 -.97393-.00305c-.28765.16662-.27631.39758.00848.5625z" fill="#efefef"/><path d="m91.7171 70.63464a1.46608 1.46608 0 0 0 1.39844.00171c.41321-.23962.40186-.57617-.0025-.81054a1.46471 1.46471 0 0 0 -1.39875-.00147c-.4129.23926-.40161.57581.00281.8103z" fill="#efefef"/><path d="m106.54944 62.44666a1.00936 1.00936 0 0 0 .97113.00512c.2904-.16821.27911-.39917-.00568-.56445a1.01185 1.01185 0 0 0 -.97394-.00317c-.2879.16674-.2763.3977.00849.5625z" fill="#efefef"/><path d="m105.78418 62.89026a1.01135 1.01135 0 0 0 -.974-.00342c-.28784.167-.27631.39771.00848.56274a1.00936 1.00936 0 0 0 .97113.00489c.29047-.16822.27921-.39929-.00561-.56421z" fill="#efefef"/><path d="m94.72357 68.5824c.14227-.08228.13629-.21424-.00622-.29688a.56137.56137 0 0 0 -.51245-.00342c-.14252.08265-.13685.2146.00537.29712a.56273.56273 0 0 0 .5133.00318z" fill="#efefef"/><path d="m89.88739 72.14661a1.22288 1.22288 0 0 0 -1.1535.05761c-.26471.1073-.49829.20667-.69513.09253-.17084-.099-.162-.24914.07721-.38769a.69265.69265 0 0 1 .65521-.04651l.276-.15979a1.27 1.27 0 0 0 -1.20441.05444c-.39056.22632-.4132.50977-.0744.70618a1.22052 1.22052 0 0 0 1.1507-.05628c.265-.10717.49579-.20459.69232-.09045.18213.10559.15637.25916-.103.4093a.71891.71891 0 0 1 -.70044.05615l-.28766.16651a1.29738 1.29738 0 0 0 1.25593-.06787c.41578-.24085.46725-.52783.11117-.73413z" fill="#4db6ac"/><path d="m89.97479 71.921 1.29352.74927.27063-.15674-.84894-.4917a1.246 1.246 0 0 0 .80878-.13892c.36737-.21276.45026-.56726-.01727-.838a1.571 1.571 0 0 0 -1.50928.00647c-.43579.2527-.45587.60402.00256.86962zm.25086-.72595a1.01154 1.01154 0 0 1 .97393.00305c.2851.16528.29609.39624.00568.56445a1.00937 1.00937 0 0 1 -.97113-.005c-.28479-.1649-.29613-.39586-.00848-.56248z" fill="#4db6ac"/><path d="m91.42383 70.80457a2.06317 2.06317 0 0 0 1.95929-.01343c.58087-.33643.58142-.81177.02313-1.13538a2.06345 2.06345 0 0 0 -1.95978.01331c-.58087.33667-.58117.81201-.02264 1.1355zm.29046-.98023a1.46471 1.46471 0 0 1 1.39875.00147c.40436.23437.41571.57092.0025.81054a1.46608 1.46608 0 0 1 -1.39844-.00171c-.40442-.23449-.41571-.57104-.00281-.8103z" fill="#4db6ac"/><path d="m93.73517 69.60693.02289.01331.1994-.11548-.02826-.01648c-.11963-.06921-.12531-.14868-.01416-.21313a.35859.35859 0 0 1 .35889.00683.21655.21655 0 0 1 .108.22132l-.01135.47168.17364.10083.74042-.4292-.18213-.10547-.46723.27075.01728-.32043a.306.306 0 0 0 -.17084-.327.7746.7746 0 0 0 -.75757.00036c-.23361.13535-.22537.30527.01102.44211z" fill="#4db6ac"/><path d="m95.885 69.299-.68-1.764-.208.12.68 1.764z" fill="#4db6ac"/><path d="m94.02533 68.68665a.968.968 0 0 0 .88037.00134.27028.27028 0 0 0 -.0003-.51135.973.973 0 0 0 -.88263 0c-.24518.14184-.23951.36975.00256.51001zm.17957-.40455a.56137.56137 0 0 1 .51245.00342c.14251.08264.14849.2146.00622.29688a.56273.56273 0 0 1 -.5133-.00318c-.14222-.08252-.14789-.21447-.00537-.29712z" fill="#4db6ac"/><path d="m95.97949 68.77234a.975.975 0 0 0 .88574.00171c.24488-.142.23926-.36988-.00567-.51172a.96779.96779 0 0 0 -.87726 0 .26982.26982 0 0 0 -.00281.51001zm.18494-.40454a.56193.56193 0 0 1 .50989.00171c.14538.08435.15075.21631.00848.29858a.56139.56139 0 0 1 -.51526-.00476c-.13971-.08093-.14563-.21289-.00311-.29553z" fill="#4db6ac"/><path d="m102.1004 65.83972-.63543-.36792.4898-.28393c.47028-.27246.41626-.54456.06305-.74915a1.25613 1.25613 0 0 0 -1.2904.038l-.78028.45215 1.86255 1.07935zm-1.59527-.924.49572-.28723a.68488.68488 0 0 1 .72345-.01978c.19935.11548.248.259-.03143.42078l-.49542.28723z" fill="#4db6ac"/><path d="m103.80853 64.85022-.66656-.386.44427-.25732 1.11084.12842.34729-.20117-1.18493-.11573c.21972-.21264.13122-.41577-.14789-.57763a1.22048 1.22048 0 0 0 -1.25592.03466l-.80066.46412 1.86285 1.07922zm-1.59527-.92407.51269-.29712a.65188.65188 0 0 1 .692-.01819c.18805.109.23926.24438-.03137.401l-.51245.29712z" fill="#4db6ac"/><path d="m106.04889 62.72693a1.53189 1.53189 0 0 0 -1.44653-.01c-.228.13232-.31928.30371-.23957.4685l-.8631-.5-.27063.157 1.30768.75732a1.54578 1.54578 0 0 0 1.50055.00171c.44739-.25905.45301-.61867.0116-.87453zm-.2591.72754a1.00936 1.00936 0 0 1 -.97113-.00489c-.28479-.165-.29632-.39575-.00848-.56274a1.01135 1.01135 0 0 1 .974.00342c.28482.16492.29608.39599.00561.56421z" fill="#4db6ac"/><path d="m106.2901 62.61023 1.29321.74927.27063-.15674-.84863-.49182a1.24454 1.24454 0 0 0 .80853-.1388c.36731-.21289.4502-.56738-.017-.838a1.57161 1.57161 0 0 0 -1.50959.00647c-.4355.25268-.45558.60399.00285.86962zm.25085-.72607a1.01185 1.01185 0 0 1 .97394.00317c.28479.16528.29608.39624.00568.56445a1.00936 1.00936 0 0 1 -.97113-.00512c-.28479-.1648-.29639-.39576-.00844-.5625z" fill="#4db6ac"/><path d="m107.89838 61.53662.81475.47192.27063-.15686-.81475-.472c-.26184-.15173-.23951-.30017-.04273-.41406a.70869.70869 0 0 1 .71521.02478l.81445.47192.27039-.15674-.81445-.47192c-.25653-.14868-.2367-.302-.04553-.4126a.694.694 0 0 1 .7149.02466l.81445.47192.27063-.15661-.81445-.47205a1.1938 1.1938 0 0 0 -1.21039-.02808c-.21942.1272-.30231.28724-.21692.44873a1.15736 1.15736 0 0 0 -.77453.12574c-.33033.19124-.38153.45211.04834.70125z" fill="#4db6ac"/><path d="m91.132 75.315-.101.213.873.074 2.63-1.524.119-.577h-.39z" fill="#4db6ac"/><path d="m94.797 73.501-.12.561 1.988 1.527.567.019.067-.386-2.136-1.701z" fill="#4db6ac"/><path d="m90.998 75.625-.033.173 2.168 1.759.63.028.071-.317-1.935-1.585z" fill="#4db6ac"/><path d="m97.246 75.693-.6-.016-2.646 1.533-.099.405.695.017 2.622-1.518z" fill="#4db6ac"/><path d="m97.394 75.741-.034.361 1.907 1.563.863.047.076-.188-2.178-1.764z" fill="#4db6ac"/><path d="m96.641 79.264-.076.591.367.019 3.097-1.795.101-.251-.877-.072z" fill="#4db6ac"/><path d="m96.846 72.005-.1.212.872.075 2.63-1.524.12-.578h-.391z" fill="#4db6ac"/><path d="m103.108 72.43-.033.362 1.906 1.563.863.046.076-.187-2.178-1.765z" fill="#4db6ac"/><path d="m99.477 74.274.071-.317-1.935-1.585-.901-.058-.033.174 2.169 1.759z" fill="#4db6ac"/><path d="m100.511 70.19-.119.561 1.987 1.527.567.019.067-.386-2.135-1.701z" fill="#4db6ac"/><path d="m110.568 64.875 1.987 1.527.567.019.067-.386-2.135-1.702-.367-.019z" fill="#4db6ac"/><path d="m107.022 66.128-.1.213.872.074 2.63-1.524.12-.577h-.391z" fill="#4db6ac"/><path d="m106.888 66.438-.033.173 2.169 1.759.629.028.071-.318-1.935-1.585z" fill="#4db6ac"/><path d="m113.284 66.553-.033.362 1.906 1.563.863.047.076-.188-2.178-1.764z" fill="#4db6ac"/><path d="m115.381 65.079.072-.318-1.935-1.585-.901-.057-.034.173 2.169 1.759z" fill="#4db6ac"/><path d="m116.153 61.572.119-.577h-.391l-3.131 1.814-.1.213.872.074z" fill="#4db6ac"/><path d="m118.836 63.607.029-.42-.601-.016-2.645 1.532-.1.406.696.017z" fill="#4db6ac"/><path d="m118.851 63.102.066-.387-2.135-1.701-.367-.019-.119.561 1.987 1.527z" fill="#4db6ac"/><path d="m121.748 65.206.076-.188-2.177-1.764-.635-.02-.033.362 1.907 1.563z" fill="#4db6ac"/><path d="m118.26 66.758-.076.591.366.019 3.098-1.795.1-.251-.876-.072z" fill="#4db6ac"/><path d="m115.548 65.203-.1.329 2.202 1.778.333.039.115-.575-1.95-1.532z" fill="#4db6ac"/><path d="m87.33844 80.12292a4.5607 4.5607 0 0 0 -4.081 0c-.44184.25586-.69526.57935-.69526.88721 0 .30811.25342.63147.6955.88745a4.5596 4.5596 0 0 0 4.081 0c.44208-.256.6955-.57934.6955-.8872s-.25366-.63138-.69574-.88746z" fill="#efefef"/><path d="m87.81891 79.56848a5.56273 5.56273 0 0 0 -5.04181 0 1.50456 1.50456 0 0 0 .0003 2.853 5.56072 5.56072 0 0 0 5.04181 0 1.50465 1.50465 0 0 0 -.0003-2.853zm-.22571 2.77161a5.05963 5.05963 0 0 1 -4.5899 0 1.40553 1.40553 0 0 1 -.00025-2.6593 5.05959 5.05959 0 0 1 4.58991 0 1.40558 1.40558 0 0 1 .00024 2.6593z" fill="#efefef"/><path d="m87.87848 79.4657a5.69433 5.69433 0 0 0 -5.16095 0 1.62005 1.62005 0 0 0 .0003 3.05859 5.69305 5.69305 0 0 0 5.161 0 1.62014 1.62014 0 0 0 -.0003-3.05859zm-.05927 2.95581a5.56072 5.56072 0 0 1 -5.04181 0 1.50456 1.50456 0 0 1 -.0003-2.853 5.56273 5.56273 0 0 1 5.04181 0 1.50465 1.50465 0 0 1 .0003 2.853z" fill="#b0b0b0"/><path d="m87.593 79.68079a5.05959 5.05959 0 0 0 -4.58991 0 1.40553 1.40553 0 0 0 .00025 2.6593 5.05963 5.05963 0 0 0 4.5899 0 1.40558 1.40558 0 0 0 -.00024-2.6593zm-.25428 2.21679a4.5596 4.5596 0 0 1 -4.081 0c-.44208-.256-.6955-.57934-.6955-.88745 0-.30786.25342-.63135.69526-.88721a4.5607 4.5607 0 0 1 4.081 0c.44208.25611.69574.57959.69574.88746s-.25346.63122-.69554.8872z" fill="#fafafa"/><path d="m75.50287 79.01978c.01916.09533.03869.19055.06323.28564.01575.06091.035.12146.053.18225.02576.08716.05231.17432.08264.26123.022.063.04651.12573.07092.18848.03284.08447.06733.16882.10456.25293q.04157.09375.08679.187c.04089.08447.08441.16846.12976.25244.03259.0603.06519.12061.10016.18054.05047.08679.10474.17285.16.25891.03589.05579.07056.11182.10846.16724.06446.09424.134.1875.20429.28076.03473.0459.06707.09241.10321.13819.10925.13818.22394.27514.34625.41064a9.29984 9.29984 0 0 0 .7572.74487 11.54041 11.54041 0 0 0 1.39392 1.04395q.25818.16589.53351.32544.28821.167.58869.32251c.06347.03308.12915.06384.19329.09619.13849.06958.27716.139.419.20532.07666.03577.15515.06934.23273.10425.13324.05969.2666.11926.40246.176.08155.03418.16449.06641.24695.09949.1358.05432.272.10828.41016.15979.08282.03089.16662.06055.25036.09033q.213.07618.429.14808.12177.0401.24457.07873.22695.07178.45721.13892.11472.03332.23.06567.24664.06847.49671.13159c.06781.01721.13543.03455.20355.051q.27548.067.55456.12671c.05243.01147.10456.02331.15711.0343q.322.0672.64813.12561l.07471.01391c.284.05.57074.09327.85852.13355q.12872.01794.25775.03442.35659.04615.71588.08228c.05829.00586.11615.01306.17456.01855.276.02564.55316.04566.83081.06275.10443.00635.20892.01147.3136.0166q.3055.01484.61157.02246c.09558.00244.19092.00635.28656.00781.26685.00391.53369.00305.80054-.001.11719-.002.23407-.00562.35113-.00891.08313-.00245.16639-.00318.24946-.00635l-.03907-.00208a21.24307 21.24307 0 0 1 -9.63067-2.52856c-5.874-3.40332-5.874-8.97266 0-12.376l25.60132-14.83288a21.24376 21.24376 0 0 1 9.6314-2.52881l.03864-.002c-.08215-.00317-.16449-.00378-.24677-.00622-.11853-.00342-.23675-.0072-.35534-.009q-.39909-.00624-.79828-.001c-.0965.00146-.19275.00537-.28919.00781q-.30468.00769-.60876.02246c-.105.00513-.21.01026-.31482.0166-.27716.017-.55377.037-.82922.06275-.06025.00561-.12.01294-.18018.019q-.35641.03589-.71.08154-.13009.01685-.25965.03467c-.28765.04028-.57415.0835-.858.13355-.02539.00439-.05047.00952-.0758.01416q-.3252.05841-.64655.12524c-.0531.01111-.10565.02307-.15863.03442q-.27877.06043-.55432.12684c-.06775.01648-.135.03369-.20245.05065q-.25021.06336-.49714.13184-.11562.03224-.23028.06567-.23016.067-.45691.13892-.12287.03882-.24481.07886c-.144.04761-.28656.09717-.42835.1477-.0841.03-.16827.05982-.25152.09082-.13751.05127-.27307.10486-.40821.15894-.08306.03332-.16662.06592-.24871.10034-.1352.0564-.26783.11572-.40039.17505-.07831.03516-.15754.06909-.23487.10522-.14105.06592-.27893.135-.41662.20423-.06488.03259-.13129.06372-.19544.097q-.29984.156-.58856.32264l-25.60141 14.8331q-.27539.15967-.53351.32532a11.75043 11.75043 0 0 0 -1.15924.84851c-.22247.18445-.43548.3717-.63049.5636a8.21031 8.21031 0 0 0 -.9809 1.15344c-.10949.15723-.20959.316-.30273.47595-.03046.05237-.056.10535-.08472.15784-.0592.1084-.11767.2168-.16949.32642-.0296.0625-.05493.12561-.08216.18847-.04358.10071-.08612.20142-.12341.30274-.02454.06677-.0459.13366-.06775.20068-.03222.09863-.06256.19751-.08893.29663-.01818.06836-.03436.13672-.04974.2052q-.03342.14886-.058.2981c-.01123.068-.02186.13586-.03034.204-.01276.1018-.02124.20337-.02789.30529-.00434.0658-.00934.1316-.01111.19751-.00287.10718-.00024.21424.0036.32142.00214.0603.0022.1206.00653.1809.00861.12159.02417.24317.04144.36451.0066.04638.01.09277.01783.13891.00905.05345.0223.10667.0331.16002z" fill="#fafafa"/><path d="m78.22955 115.95178h53.5409a13.24456 13.24456 0 0 0 13.22955-13.22949v-53.54089a13.24459 13.24459 0 0 0 -13.22955-13.22962h-53.5409a13.24459 13.24459 0 0 0 -13.22955 13.22962v53.54089a13.24456 13.24456 0 0 0 13.22955 13.22949zm-10.1759-5.28564a12.87454 12.87454 0 0 1 -2.74237-7.94385v-53.54089a12.933 12.933 0 0 1 12.91827-12.91834h53.5409a12.93336 12.93336 0 0 1 12.91827 12.91834v53.54089a12.91977 12.91977 0 0 1 -12.91827 12.91821h-53.5409a12.8857 12.8857 0 0 1 -9.51074-4.18689c-.23242-.25305-.45319-.51661-.66516-.78747z" fill="#31c1c0"/><path d="m155.51752 132.89709h-101.03516a.25.25 0 0 0 0 .5h101.03516a.25.25 0 0 0 0-.5z" fill="#31c4c3"/></svg>