<svg viewBox="0 0 256 256" xmlns="http://www.w3.org/2000/svg"><g fill="#31c4c3"><path d="m205.83 31.34v4a14.61 14.61 0 1 1 -29.22 0v-4.17h-34.33v4.21a14.61 14.61 0 1 1 -29.22 0v-4.21h-34.32v4.21a14.61 14.61 0 1 1 -29.22 0v-3.94a29.87 29.87 0 0 0 -26.05 29.56v149.48a29.89 29.89 0 0 0 29.89 29.89h149.28a29.89 29.89 0 0 0 29.89-29.89v-149.42a29.88 29.88 0 0 0 -26.7-29.72zm-151.37 29.15h147a3.6 3.6 0 0 1 3.6 3.6 3.6 3.6 0 0 1 -3.6 3.6h-147a3.6 3.6 0 0 1 -3.6-3.6 3.61 3.61 0 0 1 3.61-3.6zm64.87 124.37h-66.33v-17.13l29.9-27.64a24.8 24.8 0 0 0 5.19-6.26 11.41 11.41 0 0 0 1.31-5.08 5.9 5.9 0 0 0 -2.07-4.75 9.16 9.16 0 0 0 -6-1.71 13.44 13.44 0 0 0 -7.09 2 13.14 13.14 0 0 0 -5.08 5.62l-21-10.51a34.47 34.47 0 0 1 13.82-14 44.11 44.11 0 0 1 22-5.14 44.5 44.5 0 0 1 17.37 3.19 27.1 27.1 0 0 1 11.81 9.1 22.65 22.65 0 0 1 4.25 13.59 29 29 0 0 1 -2.89 12.81 47.85 47.85 0 0 1 -11.24 13.49l-11.84 10.74h27.88zm85.88-14.17h-11v14.17h-27v-14.17h-42.91v-17.76l35.09-50.8h28.61l-31.22 46.87h11.22v-12.61h26.22v12.61h11z"/><path d="m56.63 35.43a7.43 7.43 0 0 0 7.43 7.43 7.43 7.43 0 0 0 7.43-7.43v-12.37a7.43 7.43 0 0 0 -7.43-7.43 7.43 7.43 0 0 0 -7.43 7.43z"/><path d="m183.79 35.43a7.43 7.43 0 0 0 7.43 7.43 7.43 7.43 0 0 0 7.43-7.43v-12.37a7.43 7.43 0 0 0 -7.43-7.43 7.43 7.43 0 0 0 -7.43 7.43z"/><path d="m120.2 35.43a7.43 7.43 0 0 0 7.43 7.43 7.43 7.43 0 0 0 7.42-7.43v-12.37a7.43 7.43 0 1 0 -14.85 0z"/></g></svg>