<svg viewBox="0 0 257 257" xmlns="http://www.w3.org/2000/svg"><path d="m214.5 1h-172a41.526 41.526 0 0 0 -7.66821.722c.1336.12232.22467.2038.26751.2417a158.86018 158.86018 0 0 1 18.55549 1.83122 87.30528 87.30528 0 0 1 63.39257 45.09668c10.23243 19.40918 14.80713 41.40723 13.59717 65.38379-.05261.6709-5.05682 66.2583 8.13361 69.26929a25.1413 25.1413 0 0 1 6.24731-.26551 33.054 33.054 0 0 1 7.95636 1.4524l-1.14221-7.58814.03949.01074c-.62036-1.63342 3.59521-3.98156 11.2749-5.94628l37.44507-9.57947c10.15784-2.59863 22.67419-3.58057 27.81567-2.182l18.95288 5.15564c1.37623.37451 2.08387.884 2.19611 1.47791l.00555-.00159 3.77161 25.30713-.00207.00464a.8878.8878 0 0 1 .0357.18335l2.62549.15685v-149.23035a41.54716 41.54716 0 0 0 -41.5-41.5z" fill="#fff"/><path d="m79.34033 237.21a34.18761 34.18761 0 0 1 -21.14062-7.77637l-.44812-.37243a264.49624 264.49624 0 0 1 -31.63733 2.1322 108.58891 108.58891 0 0 1 -22.40351-1.96191 41.56275 41.56275 0 0 0 38.78925 26.76851h172a41.56855 41.56855 0 0 0 38.92059-27.10107l-174.113 8.37744z" fill="#fff"/><path d="m26.11426 70.292q-2.107.86069-4.16413 1.78082l6.55887 8.50634a12.325 12.325 0 0 1 2.09314-.74749l51.70368 67.05651-1.56382 1.43382 25.465 33.02661-.002.001a4.54083 4.54083 0 0 0 3.16406 1.62109l25.57825 1.52808a25.276 25.276 0 0 1 2.83728-.76685c-12.50824-5.64282-7.84882-66.82086-7.63867-69.48877 1.20459-23.8789-3.35108-45.79-13.541-65.11914a86.80566 86.80566 0 0 0 -63.02832-44.835 158.26167 158.26167 0 0 0 -19.43195-1.857c-.82037-.01154-1.64068.00281-2.46106.00683a41.56489 41.56489 0 0 0 -30.66681 39.39861l25.42609 28.31977z" fill="#fff"/><path d="m57.21936 228.6189-33.44636-27.7939-.544.50415a1.58319 1.58319 0 0 1 -.68408.35474l-.48486.44458-.7215-.59949a1.57064 1.57064 0 0 1 -.23749-.13342l-20.10107-16.42156v29.526a41.3027 41.3027 0 0 0 2.47144 14.10425c17.96142 4.02405 46.72644.88049 53.74792.01465z" fill="#fff"/><path d="m29.74438 82.18146c.60334-1.50836.85773-2.34979.85773-2.34979l-.87091 2.3327z" fill="#fff"/><path d="m57.75159 229.06116-.53223-.44226c-7.02148.86584-35.7865 4.0094-53.74792-.01465.07635.21081.15966.418.23931.6272a108.58891 108.58891 0 0 0 22.40351 1.96191 264.49624 264.49624 0 0 0 31.63733-2.1322z" fill="#bebebe"/><path d="m35.666 2.45605-.69141-.01464c-.27655-.0058-.55328-.00544-.8299-.00934a158.26167 158.26167 0 0 1 19.43195 1.857 86.80566 86.80566 0 0 1 63.02836 44.83493c10.18994 19.3291 14.74561 41.24024 13.541 65.11914-.21015 2.66791-4.86957 63.846 7.63867 69.48877q.49521-.10326.99347-.18725c-13.19043-3.011-8.18622-68.59839-8.13361-69.26929 1.21-23.97656-3.36474-45.97461-13.59717-65.38379a87.30528 87.30528 0 0 0 -63.39257-45.09666 158.86018 158.86018 0 0 0 -18.55549-1.83124l.04425.03925z" fill="#bebebe"/><path d="m238.24689 171.86963-37.44489 9.57959c-9.19525 2.35254-20.32379 3.37976-26.16388 2.51562l.43585 2.931 78.30054 4.67762a.8878.8878 0 0 0 -.0357-.18335l.00207-.00464-3.77161-25.30713-.00555.00159c.30713 1.62454-3.8786 3.88687-11.31683 5.7897z" fill="#dbdbdb"/><path d="m175.074 186.89587-.43585-2.931a14.34893 14.34893 0 0 1 -1.65179-.33374l-18.95288-5.15576c-1.25409-.34106-1.95417-.79419-2.15436-1.32117l-.03949-.01074 1.14221 7.58814a6.68839 6.68839 0 0 1 2.00482.96423z" fill="#dbdbdb"/><path d="m199.17023 163.51538a1.16433 1.16433 0 0 0 .30554.02844 3.35132 3.35132 0 0 0 .42633-.0343 4.16186 4.16186 0 0 0 .455-.08935 2.07489 2.07489 0 0 0 .35125-.117q.12846-.05987.142-.11108c.009-.03406-.0238-.06128-.09808-.0813a1.16438 1.16438 0 0 0 -.30554-.02844 3.40418 3.40418 0 0 0 -.42511.03393 4.14935 4.14935 0 0 0 -.45368.089 2.11032 2.11032 0 0 0 -.3526.11743c-.08636.04-.13428.07715-.14319.11133-.00904.0341.02374.06132.09808.08134z" fill="#efefef"/><path d="m201.38 177.729 1.024-.424-1.636.257z" fill="#efefef"/><path d="m175.75476 169.50586a1.1641 1.1641 0 0 0 .30542.02844 3.37433 3.37433 0 0 0 .42633-.0343 4.18152 4.18152 0 0 0 .45508-.08948 2.08608 2.08608 0 0 0 .35126-.11682c.08557-.04.13281-.0769.1419-.11108.0091-.03406-.02374-.06128-.098-.08155a1.16662 1.16662 0 0 0 -.30554-.02819 3.36172 3.36172 0 0 0 -.42523.03393 4.11927 4.11927 0 0 0 -.45355.089 2.12387 2.12387 0 0 0 -.35267.11731c-.0863.04016-.13421.07727-.14312.11133q-.01342.05108.09812.08141z" fill="#efefef"/><path d="m172.283 170.468-.983-.021.055.259z" fill="#efefef"/><path d="m203.4057 177.89c.39862-.10192.49262-.19641.24249-.26452l-.33361-.09082-1.2522.32043.33349.0907a2.12036 2.12036 0 0 0 1.00983-.05579z" fill="#efefef"/><path d="m169.33752 171.35327a2.5386 2.5386 0 0 0 .38355-.12427q.1377-.06116.15088-.1112c.00842-.03333-.02539-.06043-.10138-.08093a1.15372 1.15372 0 0 0 -.30353-.0293 3.1974 3.1974 0 0 0 -.42621.03638 4.63837 4.63837 0 0 0 -.4823.09741l-.56195.1438.77905.21179z" fill="#efefef"/><path d="m173.04437 177.36255a.90468.90468 0 0 0 .36438-.14526q.06464-.06849-.12219-.11915l-.33344-.09082-1.24877.31958.33343.09082a1.42665 1.42665 0 0 0 .44684.03614 2.94854 2.94854 0 0 0 .55975-.09131z" fill="#efefef"/><path d="m195.233 179.6709c.58344-.14917.79169-.32056.49488-.40112a3.76539 3.76539 0 0 0 -1.53748.11755c-.58337.14929-.79163.32056-.49286.40173a3.76639 3.76639 0 0 0 1.53546-.11816z" fill="#efefef"/><path d="m196.79285 179.897c.39856-.10205.49273-.19653.24249-.26465l-.33362-.09069-1.24914.31945.33361.09082a2.10714 2.10714 0 0 0 1.00666-.05493z" fill="#efefef"/><path d="m227.12347 171.91113a3.95189 3.95189 0 0 0 -1.36816.04419 5.60006 5.60006 0 0 1 -1.0365.08789 6.3599 6.3599 0 0 0 -1.64941.21265c-.64716.17236-.93323.38867-.63709.48254a1.58583 1.58583 0 0 0 .435.04847 2.4995 2.4995 0 0 1 .5993.06005c.13764.03748.21.09168.20832.15992-.00165.04943.05725.0896.17041.116a5.17649 5.17649 0 0 0 1.848-.15332c.55676-.137.90045-.3092.85681-.4281-.02655-.07165.10217-.1676.36444-.27051.38058-.14982.46273-.29091.20888-.35978zm-1.3692.47449-.157-.04272-1.25812.32165-.15478-.04224 1.257-.32177-.157-.04273.71619-.05908z" fill="#efefef"/><path d="m154.03345 178.47534 18.95288 5.15576a14.34893 14.34893 0 0 0 1.65179.33374c5.84009.86414 16.96863-.16308 26.16388-2.51562l37.44489-9.57959c7.43823-1.90283 11.624-4.16516 11.31683-5.78967-.11224-.59388-.81988-1.1034-2.19611-1.47791l-18.95288-5.15564c-5.14148-1.39856-17.65783-.41662-27.81567 2.182l-37.44506 9.57948c-7.67969 1.96472-11.89526 4.31286-11.2749 5.94628.20018.52698.90026.98011 2.15435 1.32117zm17.51947-1.10974-.75452.193-.08514-.02319 2.30639-.59.41864.1139q.22019.05969.1391.14648a1.07864 1.07864 0 0 1 -.44635.18042 3.62909 3.62909 0 0 1 -.69342.11133 1.75887 1.75887 0 0 1 -.55121-.04126zm1.38714.65039a1.80026 1.80026 0 0 1 -.59881-.02893q-.22192-.06042-.0907-.15857a2.10529 2.10529 0 0 1 .61871-.223l1.32788-.33985.08515.0232-1.32141.33813a1.95363 1.95363 0 0 0 -.5373.18933q-.1126.08076.0741.13147a1.45937 1.45937 0 0 0 .49457.0232 4.69528 4.69528 0 0 0 .73407-.13574l1.32147-.33814.0849.02319-1.3277.3396a5.3129 5.3129 0 0 1 -.86493.15612zm1.04023.40833-.75727-.20606 2.30677-.59009.085.0232-2.155.55127.67218.18286zm.80963.18542a1.34159 1.34159 0 0 1 -.3158-.04236.24583.24583 0 0 1 -.157-.08886c-.01929-.03589-.00385-.07166.0448-.10694l.16357-.02173c-.04455.03321-.059.06592-.04321.09876q.02353.04889.13849.08032a1.242 1.242 0 0 0 .3772.0365 2.00549 2.00549 0 0 0 .411-.0603.64161.64161 0 0 0 .202-.07556c.0318-.02381.04157-.04615.03028-.06665a.28527.28527 0 0 0 -.07813-.07508.29658.29658 0 0 1 -.08392-.08716q-.01841-.03644.051-.08276a1.02859 1.02859 0 0 1 .27692-.09937 2.86837 2.86837 0 0 1 .353-.06665 2.41183 2.41183 0 0 1 .36022-.01953 1.31523 1.31523 0 0 1 .3133.042.28606.28606 0 0 1 .13385.06591.0619.0619 0 0 1 .0105.08277l-.16675.026a.06.06 0 0 0 -.00934-.0791.25588.25588 0 0 0 -.11646-.05774 1.20692 1.20692 0 0 0 -.37377-.03394 2.07927 2.07927 0 0 0 -.4159.0625.647.647 0 0 0 -.20221.07544c-.03161.02393-.04144.04614-.03.06677a.305.305 0 0 0 .0763.07642.28445.28445 0 0 1 .08325.08691c.01141.02405-.00446.05115-.04865.08155a.96685.96685 0 0 1 -.27026.09777 2.84825 2.84825 0 0 1 -.35248.06592 2.3915 2.3915 0 0 1 -.3618.01819zm3.34491-.19287-.69544-.18921-.90948.23267.62213.16931-.14819.03784-.62214-.16919-.94574.24194.72052.19605-.15173.0387-.80536-.21912 2.30664-.59009.7804.2124zm22.458.80908a.43449.43449 0 0 1 -.16943.01331l-5.08673-1.38367c-.03131-.00854-.00647-.02832.05573-.04431a.43306.43306 0 0 1 .16888-.01318l5.08673 1.38366c.03131.00855.00665.02832-.05518.04424zm-9.01312-.00952a1.65785 1.65785 0 0 0 .78845-.02393c.69214-.17712-.45208-.26916.398-.48669a2.23643 2.23643 0 0 1 1.02686-.04431c.12848.035.18256.09167.14429.14905l-.16681.02588c.03509-.06006-.02082-.10816-.126-.137a1.683 1.683 0 0 0 -.78992.02881c-.69207.177.44562.27063-.39148.48486a2.23919 2.23919 0 0 1 -1.03009.04175c-.17346-.04724-.21167-.12549-.11218-.19592l.16364-.02161c-.08481.064-.06147.13651.09524.17911zm2.94055-.26819-.42026-.11424.15161-.03881.92572.25183-.15161.03869-.42048-.11425-2.155.55127-.085-.0232zm-.41479.416a4.3492 4.3492 0 0 1 1.77722-.13428c.347.09448.10938.29248-.56293.4646a4.35061 4.35061 0 0 1 -1.77716.13428c-.3486-.09495-.1062-.29344.56287-.46458zm2.6629.11548.41858.11377c.2937.07983.18018.20227-.30743.3269a2.68333 2.68333 0 0 1 -1.24475.07019l-.33356-.0907-.75482.19312-.085-.0232zm1.68768-2.19861a1.65638 1.65638 0 0 0 .78846-.02381c.69207-.177-.45215-.26916.39807-.48657a2.23411 2.23411 0 0 1 1.02667-.04443c.12854.03491.18256.09155.14435.14892l-.16687.02588c.03509-.06006-.02081-.10815-.12586-.13672a1.68175 1.68175 0 0 0 -.79.02857c-.69207.177.44562.27075-.39154.48486a2.2375 2.2375 0 0 1 -1.03009.04175c-.1734-.04712-.2116-.12549-.11218-.1958l.16364-.02173c-.08482.06397-.06144.1365.09535.1791zm2.52021-.38245.15161-.03882.92578.25183-.15173.03882-.42035-.11438-2.155.55127-.08508-.023 2.155-.55151zm-.20557 1.08179.49933-.207-.67731-.18408-.79773.12573-.09173-.025 2.84411-.44409.08509.0232-1.7699.7362zm1.114.303.49262-.27307a1.25475 1.25475 0 0 1 -.12964-.02662l-.33356-.09069-.75488.19311-.08508-.02319 2.307-.59033.41864.114c.29358.07983.18024.20227-.30737.3269a3.21136 3.21136 0 0 1 -.99524.11036l-.51568.28588zm2.83716-.36585-2.155.55139-.085-.02319 2.155-.55127-.42029-.11426.15168-.03894.92578.25183-.15174.03882zm5.38269-.05676-3.68145.94189c.05444.04956-.07258.129-.33118.19519a2.16888 2.16888 0 0 1 -.84815.06653c-.15728-.04284-.033-.14209.27808-.22168a2.56531 2.56531 0 0 1 .74927-.0813l3.68182-.942c.7431-.19007 1.04242-.4281.666-.5304l-7.5802-2.06213a5.202 5.202 0 0 0 -2.0307.1593l-14.97663 3.83154c-.74359.19019-1.04211.42823-.66565.53052l7.58039 2.06213a5.20581 5.20581 0 0 0 2.03045-.1593l4.24781-1.08691c-.05433-.04944.07245-.12879.3313-.19507a2.16818 2.16818 0 0 1 .84814-.06641c.15729.04273.03278.14185-.27808.22144a2.569 2.569 0 0 1 -.74975.08142l-4.24781 1.08667a6.35578 6.35578 0 0 1 -2.48156.1947l-7.58051-2.062c-.45984-.12512-.09491-.416.81366-.64856l14.97675-3.83142a6.35891 6.35891 0 0 1 2.48175-.1947l7.58075 2.06213c.45919.1251.09475.416-.81449.64842zm19.98877-9.99585a6.36384 6.36384 0 0 1 2.48242-.19446l7.58051 2.06214c.45917.125.09473.41589-.81445.64819l-3.68128.94189c.054.04969-.07269.12915-.33178.19532a2.16373 2.16373 0 0 1 -.8476.0664c-.157-.04272-.03357-.14184.27759-.22143a2.57034 2.57034 0 0 1 .75018-.0813l3.68121-.942c.74421-.19006 1.04242-.42822.666-.53052l-7.58051-2.06213a5.20791 5.20791 0 0 0 -2.0307.1593l-14.97631 3.83142c-.74311.19031-1.04236.42823-.666.53064l7.58057 2.06214a5.20227 5.20227 0 0 0 2.03064-.15943l4.24829-1.08667c-.05512-.04956.07263-.1289.33069-.19519a2.17562 2.17562 0 0 1 .84869-.06653c.157.04285.03247.14209-.27875.22168a2.5585 2.5585 0 0 1 -.749.0813l-4.24823 1.08679a6.36216 6.36216 0 0 1 -2.48139.19471l-7.5805-2.06214c-.46027-.12512-.09473-.41589.81341-.64843zm-10.25854 3.82129a.24536.24536 0 0 1 -.073-.00244c-.014-.004-.018-.01074-.00659-.01929a.3827.3827 0 0 1 .15838-.04077l14.66217-1.15015c.0669-.00512.10236.00464.08063.02173a.38205.38205 0 0 1 -.15832.04077zm7.25628.59106c-.22094.0868-.33136.167-.3095.22583.05236.13843-.34632.33814-.99164.49683a5.90647 5.90647 0 0 1 -2.1474.17725l-.02906-.00757c-.114-.03076-.17266-.075-.17077-.12866.00232-.12037-.25684-.1908-.713-.19373a1.8338 1.8338 0 0 1 -.50879-.057c-.35187-.1112-.02814-.35766.73645-.56079a7.35986 7.35986 0 0 1 1.91327-.24634 4.695 4.695 0 0 0 .86547-.07446 4.60367 4.60367 0 0 1 1.59559-.05066c.29681.08068.20141.24523-.24061.4193zm4.9643-2.98571.12475.03405-4.19079 1.07361-.14838-.0404 3.585-.91895-3.90435.53784-.07532-.02026 2.14575-1.01-3.576.91492-.14947-.04053 4.1939-1.07288.128.03492-2.30811 1.083zm-28.612-7.07837a2.46957 2.46957 0 0 1 .41052-.13611q.19216-.04926.386-.08228.19346-.033.36859-.04516l-.03882.03222a3.86527 3.86527 0 0 0 -.65021.11023 2.16246 2.16246 0 0 0 -.35418.11756c-.08716.04052-.13544.07763-.14423.11181-.009.03394.0238.06116.098.0813a1.15938 1.15938 0 0 0 .30548.02832 3.3191 3.3191 0 0 0 .42762-.03454 4.17516 4.17516 0 0 0 .45642-.08973 1.31228 1.31228 0 0 0 .43634-.16845l.12341-.00928a.64231.64231 0 0 1 -.18378.09644 2.92246 2.92246 0 0 1 -.32086.099 4.82042 4.82042 0 0 1 -.5285.10413 3.86 3.86 0 0 1 -.49188.0398 1.34277 1.34277 0 0 1 -.35352-.0326c-.08636-.02343-.1236-.05493-.113-.09411q.0168-.05897.16661-.12855zm-.95.21533.89691.244-.129.033-.89685-.244zm-1.4809.37891.838.2279 1.02008-.261.059.016-1.14911.29406-.89685-.244zm-1.91614.51818a2.45037 2.45037 0 0 1 .41144-.13672 4.89124 4.89124 0 0 1 .5296-.10437 3.91633 3.91633 0 0 1 .493-.04016 1.34031 1.34031 0 0 1 .35351.03272c.08624.02344.12384.05469.11286.09424q-.01648.05877-.16761.12866a2.48788 2.48788 0 0 1 -.41174.13647 4.8129 4.8129 0 0 1 -.53046.10425 3.91017 3.91017 0 0 1 -.49383.04 1.33733 1.33733 0 0 1 -.35193-.03235c-.08539-.02319-.1225-.05456-.11188-.09387q.01654-.05892.16704-.12887zm-.62756.13257.0589.016-.638.16321.838.228-.129.033-.838-.228-.63782.16321-.0589-.016zm-2.45142.64063a2.57459 2.57459 0 0 1 .31861-.09839q.14685-.03773.3103-.06787.16351-.0304.30444-.04676l.00458.02649q-.14346.01722-.29047.04468-.14694.02746-.27124.05908a1.43694 1.43694 0 0 0 -.3222.10889q-.07635.04578.003.0675a.507.507 0 0 0 .16437.00867c.06964-.00513.14441-.01465.22485-.02832q.1203-.02068.31671-.05945c.14606-.02881.26593-.05114.35889-.06677a2.63533 2.63533 0 0 1 .26855-.032.66108.66108 0 0 1 .20844.01343c.04358.01171.06.02856.04938.05029-.01038.02148-.0531.04761-.12793.07788a2.63 2.63 0 0 1 -.32208.09949c-.13031.03332-.26508.06176-.40516.08557q-.20992.03588-.36224.04639l.0094-.02808q.14355-.01026.33325-.04224.1898-.032.36438-.07666a1.57 1.57 0 0 0 .33338-.11108c.05383-.031.05462-.05335.0025-.06751a.50922.50922 0 0 0 -.16474-.00866q-.1039.00768-.22448.02832-.12068.02086-.31311.05908-.21956.04357-.36.06726a2.5969 2.5969 0 0 1 -.27142.03186.68261.68261 0 0 1 -.21088-.01392c-.04364-.012-.06055-.02868-.05157-.05029.00958-.02146.05023-.0471.12249-.07688zm-1.86962.46484 1.16827-.02026.11255-.30738.13421-.03442-.12573.34253.30872.084-.12891.03321-.30884-.084-1.30206.02246zm-1.178.31482a2.58156 2.58156 0 0 1 .3186-.09839q.14685-.03753.31036-.06787.16342-.03039.30445-.04675l.00451.02661q-.14328.01685-.29046.04455-.14694.02729-.27118.05909a1.44492 1.44492 0 0 0 -.32215.10876q-.07653.04614.003.06763a.50348.50348 0 0 0 .16431.00866c.06958-.00524.14435-.01452.22479-.02844.08026-.01367.1861-.03357.31684-.05932.14605-.02881.266-.051.35876-.06678a2.643 2.643 0 0 1 .26862-.03186.65791.65791 0 0 1 .20837.01319c.04358.012.06.02881.04938.05029-.01026.02161-.053.04761-.12787.07813a2.69852 2.69852 0 0 1 -.32214.09936q-.19519.0498-.405.08557-.21021.03607-.36243.04651l.0094-.02808q.14355-.01062.33325-.04248.1898-.03186.36444-.07666a1.56047 1.56047 0 0 0 .33344-.111q.08075-.04632.00238-.0675a.51124.51124 0 0 0 -.16461-.00867c-.06928.00513-.14435.01453-.22461.02832-.08045.01379-.18457.03357-.31311.0592q-.21936.04322-.35993.06714a2.59024 2.59024 0 0 1 -.27136.03174.66808.66808 0 0 1 -.21088-.01391c-.04376-.012-.0606-.02857-.05157-.05.00926-.0215.05009-.04738.12236-.07704zm-12.94178 3.3252a2.4727 2.4727 0 0 1 .41053-.13624q.19216-.04907.38592-.08215.19355-.033.36853-.04529l-.0387.03235a3.85087 3.85087 0 0 0 -.6502.11023 2.12575 2.12575 0 0 0 -.35413.11756c-.08722.04028-.13544.07763-.14435.11157q-.01346.05127.09809.08154a1.1711 1.1711 0 0 0 .30554.02832 3.31566 3.31566 0 0 0 .42743-.03455 4.197 4.197 0 0 0 .45654-.08972 1.31158 1.31158 0 0 0 .43622-.16858l.12341-.00915a.64008.64008 0 0 1 -.18359.09631 2.87753 2.87753 0 0 1 -.321.099 4.78641 4.78641 0 0 1 -.5285.10413 3.8789 3.8789 0 0 1 -.49182.03991 1.34756 1.34756 0 0 1 -.35352-.03259c-.08624-.02356-.12359-.05493-.11285-.09411q.0164-.05915.16641-.12854zm-.95007.21533.897.24389-.129.03308-.897-.244zm-1.4809.37878.838.22791 1.02008-.26087.059.016-1.14911.29395-.897-.244zm-1.91619.51831a2.45778 2.45778 0 0 1 .41143-.13672 4.86151 4.86151 0 0 1 .52973-.10437 3.89281 3.89281 0 0 1 .49292-.04028 1.33968 1.33968 0 0 1 .35351.03271q.12955.03534.113.09412-.01657.059-.16779.12879a2.4696 2.4696 0 0 1 -.41162.13647 4.8458 4.8458 0 0 1 -.53058.10437 3.95548 3.95548 0 0 1 -.49371.04 1.341 1.341 0 0 1 -.35193-.03247q-.12818-.0348-.11188-.09375.01649-.05892.16688-.12887zm-.62757.13245.0589.016-.638.16333.83795.228-.129.033-.83789-.228-.63769.16321-.05908-.016zm-2.45135.64075a2.56922 2.56922 0 0 1 .31866-.09852q.14685-.03753.31018-.06787.16352-.03021.30457-.04675l.00457.02661c-.09564.01148-.19262.02613-.29058.04456q-.14676.02728-.27106.0592a1.42466 1.42466 0 0 0 -.32227.10889c-.051.03052-.04986.053.003.0675a.51047.51047 0 0 0 .16443.00867c.06946-.00513.14423-.01465.2248-.02856q.12019-.02052.31677-.05933c.146-.02881.26593-.051.35882-.06677a2.66854 2.66854 0 0 1 .26856-.03186.65674.65674 0 0 1 .20831.01342c.04358.01172.06012.02857.0495.05018-.01037.0216-.05316.0476-.128.078a2.61179 2.61179 0 0 1 -.32214.09936q-.19519.05-.405.0857-.21.03588-.36243.04638l.00946-.02807q.14365-.01044.33325-.04248.18971-.03186.36451-.07642a1.56891 1.56891 0 0 0 .33331-.11108q.08075-.04651.00238-.06763a.51213.51213 0 0 0 -.16461-.00854c-.06928.00512-.14435.01464-.22449.02832-.08057.01391-.18469.03344-.31311.05908q-.21954.04358-.36005.06714a2.52952 2.52952 0 0 1 -.2713.03186.67139.67139 0 0 1 -.21094-.014c-.04364-.01172-.0606-.02857-.05157-.05.00962-.0217.05022-.04721.12243-.07699zm-1.30762.3208 1.712.03564-.13922.03552-.4801-.01037-1.02771.26294.02692.12634-.13922.03552-.08185-.45239zm-1.26587.324.89691.2439-.1289.03308-.897-.244zm-1.51855.38843a5.209 5.209 0 0 1 .54748-.1095 3.79859 3.79859 0 0 1 .49225-.04162 1.31436 1.31436 0 0 1 .35028.03234c.08637.02356.1236.05457.1123.09339q-.01738.05823-.17321.12854a2.77489 2.77489 0 0 1 -.43219.141l-.70136.17944-.89691-.244zm-2.69 1.49048 40.02106-10.23877a13.90736 13.90736 0 0 1 5.41388-.42456l16.30206 4.43469c1.00116.27222.20264.90881-1.77417 1.41467l-40.02153 10.2385a13.9068 13.9068 0 0 1 -5.41364.42456l-16.30255-4.43469c-1.00079-.27222-.20202-.9087 1.7749-1.41447z" fill="#efefef"/><path d="m200.32819 165.04272a2.495 2.495 0 0 1 .59924.06006c.13776.03748.21051.09168.20868.15979-.0011.04969.05682.08972.171.11621a5.175 5.175 0 0 0 1.847-.15344c.55677-.137.90137-.30908.857-.42822-.02667-.07141.1029-.16748.365-.27051.38037-.14953.46246-.29077.20911-.35962a3.96035 3.96035 0 0 0 -1.36915.04419 5.5924 5.5924 0 0 1 -1.036.08789 6.34354 6.34354 0 0 0 -1.64892.21277c-.64795.17224-.9339.38867-.6377.48242a1.58225 1.58225 0 0 0 .43474.04846zm2.57452-.4862-.15723-.04285.716-.05908-.24622.18689-.15723-.04273-1.2575.32166-.15528-.04224z" fill="#89c800"/><path d="m164.04492 174.02747 16.30255 4.43469a13.9068 13.9068 0 0 0 5.41364-.42456l40.02154-10.23853c1.97681-.50586 2.77533-1.14245 1.77417-1.41467l-16.30206-4.43469a13.90736 13.90736 0 0 0 -5.41388.42456l-40.02106 10.23873c-1.97692.50577-2.77569 1.14225-1.7749 1.41447zm17.14972 2.96008-.14526.00268.17651-.1123 1.61267-.34448.29785-.01953-.11712.08154zm1.4317.52258-1.01043-.275.07458-.04773.48285-.02918.84723.23218-.19971.11585zm2.2616-.40637-1.82471.39209-.1452.00269.1767-.11255 1.61267-.34424.29748-.01953zm.087-1.04468.45057-.02173-.07465.04773-1.76459.38245-.31317.01709.10639-.07324zm-.84936-.25049.20142-.11547.16217-.00123 1.0213.27784-.06214.04931-.46447.023zm.94226 1.19165-.34711.02417-.85492-.23266.12439-.08936.32416-.01391.86279.23462zm-.77557-.3291-.25434.01172.123-.08154 1.81854-.39063.14038-.00708-.19183.11792zm3.02465-.14355-.46447.0227-.85828-.2334.20129-.11547.16224-.00135 1.02142.278zm-.04425-3.365.50446-.32141 4.6073-.984.85052-.05591-.33422.2334-5.21357 1.12036zm6.14191-1.42359-.99158.06836-2.443-.66455.3559-.25512.926-.04 2.46521.67065zm.51544-.23047 4.55829-1.00659 1.28742-.06213-.21332.1366-5.04169 1.093-.895.04834zm-1.59594 3.12818-.556.011-2.88715-.78541.21326-.13671 1.37957-.08326 2.4209.66321zm-1.81641-1.04993-1.32269.06629.2445-.12806 5.25684-1.13159.741-.02551-.36536.22485zm7.24438-.327-2.443-.66456.356-.25512.926-.04 2.46521.67065-.31256.22058zm7.13941-1.231-5.04157 1.09277-.89508.04859.3042-.20911 4.55841-1.00671 1.2873-.062zm.27826-.18836-1.32715.06507-2.45184-.66687.57513-.33.4632-.00366 2.91833.79394zm.13409-3.34265-.55609.011-2.88708-.7854.21325-.13672 1.37952-.08325 2.4209.66321zm-1.81628-1.04992-1.32282.0664.24445-.12817 5.2569-1.13147.7409-.02539-.36536.22461zm4.80121-.99158.35589-.25513.92572-.04 2.46588.67066-.3125.22058-.99176.06848zm3.95.36584 4.55823-1.00671 1.28723-.06213-.21283.13659-5.04224 1.093-.89459.04822zm4.31012 1.97828-5.21411 1.12036-.41419.00769.50482-.32129 4.60712-.98413.85028-.05591zm-.47754-.22718-2.4433-.66455.3559-.25513.92578-.04 2.46484.67065-.3125.22058zm7.35229-1.36767-.21283.13684-5.04229 1.09277-.8946.04846.3042-.20923 4.55823-1.00659zm-3.35492-.97754-.54827.3374-4.67347.99853-.72784.0337.35254-.23316 5.19525-1.11572zm-5.12286-1.45825.46307-.00367 2.91864.79395-.17816.14136-1.32678.06518-2.452-.66675zm-8.046.59985 4.55774-1.00659 1.28839-.06214-.21393.13672-5.0415 1.09278-.895.04846zm-.695.29272-.33435.23328-5.21348 1.1204-.41461.00769.50446-.32129 4.60723-.98413zm-5.7962-1.177a7.3495 7.3495 0 0 1 1.91272-.24634 4.69365 4.69365 0 0 0 .86584-.07446 4.60881 4.60881 0 0 1 1.59583-.05078c.29626.08081.2016.24524-.24115.41943-.22077.0868-.33063.167-.30866.22583.05158.13843-.347.33814-.99151.49683a5.90792 5.90792 0 0 1 -2.14826.17725l-.02893-.00745c-.1134-.03088-.17273-.07507-.171-.12878.00287-.12024-.25653-.1908-.71216-.19361a1.84165 1.84165 0 0 1 -.5097-.05713c-.35175-.11117-.02796-.35763.73693-.56076zm-3.31863 4.96732 2.91833.79382-.17761.14148-1.32721.06543-2.45184-.667.57513-.33008zm-.67933.00964-.54846.33728-4.673.99854-.7276.03369.352-.233 5.19562-1.11584zm-6.88678-1.82068c.02112-.01636.12006-.02661.11322-.0116a1.18413 1.18413 0 0 1 -.13311.22962c-.04706.0675-.10352.13611-.162.20483.56451-.02881 1.12274-.05346 1.65387-.06372.054-.00122.0144.02344-.04511.02808-.634.05249-1.24768.08935-1.85339.12207-.06964.00366-.10565-.00708-.09-.02454a3.69693 3.69693 0 0 1 .5165-.48474zm-.64263.16443c.02111-.01648.11993-.02661.11309-.0116a1.16687 1.16687 0 0 1 -.13311.2295c-.04706.06762-.10352.13623-.16193.20483.56445-.02881 1.12268-.05334 1.65375-.0636.05407-.00134.0144.02332-.04505.02808-.634.05237-1.24774.08923-1.85339.12195-.06964.00378-.10571-.007-.09-.02442a3.70528 3.70528 0 0 1 .51662-.48477zm-1.023.22644a.8.8 0 0 1 .29095-.0708.45927.45927 0 0 1 .13892.00476c.02392.00647.032.017.02014.03052l-.37769.42859 1.63562-.08643c.11145-.00586.16687.0127.12836.043a.69266.69266 0 0 1 -.27747.07446l-2.369.23841c-.13868.014-.223-.00891-.16571-.04505zm-3.768 4.04 5.257-1.13135.7409-.02551-.36541.22485-4.55414.9939-1.32269.06641zm-.3352.20093 1.37951-.0835 2.42084.66309-.57043.3313-.556.011-2.88714-.7854zm-1.47284 3.81958 1.8186-.39063.14044-.00732-.192.11816-1.63562.34949-.25446.01184zm-2.69379-5.9447 2.36884-.23841c.13861-.01391.223.009.16564.04517l-.97583.61719a.79652.79652 0 0 1 -.291.071.46438.46438 0 0 1 -.13892-.00464c-.02386-.00659-.03192-.01709-.02014-.03052l.37781-.42871-1.63556.08643c-.11163.00586-.167-.0127-.12854-.043a.69337.69337 0 0 1 .27772-.07447zm-.891.26355c.634-.05262 1.24762-.0896 1.85339-.12208.06952-.00378.10559.00684.08991.02442a3.69852 3.69852 0 0 1 -.5166.48486c-.021.01624-.11994.02637-.1131.01148a1.17407 1.17407 0 0 1 .133-.22962c.04712-.0675.10358-.13611.162-.20495-.56439.02893-1.12262.05359-1.65375.064-.05406.00122-.01439-.02344.04518-.02807zm-.64276.1643c.634-.05249 1.24774-.08935 1.85339-.12207.06964-.00366.10571.00708.09.02454a3.68687 3.68687 0 0 1 -.5166.48474c-.02112.01636-.11994.02661-.1131.01147a1.17721 1.17721 0 0 1 .13311-.22949c.04712-.0675.10352-.136.162-.20483-.56451.02881-1.12274.05346-1.65381.06372-.05408.00126-.01453-.0234.04504-.02804zm-.037 5.2572.65729-.5238a3.22207 3.22207 0 0 1 1.3211-.33789 1.99379 1.99379 0 0 1 .60675.021c.12146.0332.15259.08911.062.16088l-.23993.19092.82489-.06494c.54841-.043.84931.03882.66871.18189a1.57382 1.57382 0 0 1 -.52106.20617 4.84156 4.84156 0 0 1 -.7984.13135l-2.10181.16492c-.39393.0308-.60859-.02743-.47956-.13046z" fill="#89c800"/><path d="m214.30359 172.34509 7.5805 2.06214a6.36216 6.36216 0 0 0 2.48139-.19471l4.24823-1.08679a2.5585 2.5585 0 0 0 .749-.0813c.31122-.07959.43573-.17883.27875-.22168a2.17562 2.17562 0 0 0 -.84869.06653c-.25806.06629-.38581.14563-.33069.19519l-4.24829 1.08667a5.20227 5.20227 0 0 1 -2.03064.15943l-7.58057-2.06214c-.37634-.10241-.07709-.34033.666-.53064l14.97631-3.83142a5.20791 5.20791 0 0 1 2.0307-.1593l7.58051 2.06213c.3764.1023.07819.34046-.666.53052l-3.68121.942a2.57034 2.57034 0 0 0 -.75018.0813c-.31116.07959-.43463.17871-.27759.22143a2.16373 2.16373 0 0 0 .8476-.0664c.25909-.06617.3858-.14563.33178-.19532l3.68128-.94189c.90918-.2323 1.27362-.52319.81445-.64819l-7.58051-2.06214a6.36384 6.36384 0 0 0 -2.48242.19446l-14.9763 3.83169c-.90814.23254-1.27368.52334-.81341.64843z" fill="#666"/><path d="m210.91907 177.2124-7.58075-2.06213a6.35891 6.35891 0 0 0 -2.48175.1947l-14.97675 3.83142c-.90857.23255-1.2735.52344-.81366.64856l7.58051 2.062a6.35578 6.35578 0 0 0 2.48156-.1947l4.24781-1.08667a2.569 2.569 0 0 0 .74975-.08142c.31086-.07959.43537-.17871.27808-.22144a2.16818 2.16818 0 0 0 -.84814.06641c-.25885.06628-.38563.14563-.3313.19507l-4.24781 1.08691a5.20581 5.20581 0 0 1 -2.03045.1593l-7.58039-2.06213c-.37646-.10229-.07794-.34033.66565-.53052l14.97663-3.83154a5.202 5.202 0 0 1 2.0307-.1593l7.5802 2.06213c.3764.1023.07708.34033-.666.5304l-3.68182.942a2.56531 2.56531 0 0 0 -.74927.0813c-.3111.07959-.43536.17884-.27808.22168a2.16888 2.16888 0 0 0 .84815-.06653c.2586-.06616.38562-.14563.33118-.19519l3.68145-.94189c.90922-.2324 1.27366-.5233.8145-.64842z" fill="#666"/><path d="m225.73608 171.90869a4.695 4.695 0 0 1 -.86547.07446 7.35986 7.35986 0 0 0 -1.91327.24634c-.76459.20313-1.08832.44959-.73645.56079a1.8338 1.8338 0 0 0 .50879.057c.45617.00293.71533.07336.713.19373-.00189.05371.05682.0979.17077.12866l.02906.00757a5.90647 5.90647 0 0 0 2.14741-.17724c.64532-.15869 1.044-.3584.99164-.49683-.02186-.05883.08856-.139.3095-.22583.442-.17407.53742-.33862.24061-.41931a4.60367 4.60367 0 0 0 -1.59559.05066zm1.17853.36218c-.26227.10291-.391.19886-.36444.27051.04364.1189-.3.29114-.85681.4281a5.17649 5.17649 0 0 1 -1.848.15332c-.11316-.02636-.17206-.06653-.17041-.116.00164-.06824-.07068-.12244-.20832-.15992a2.4995 2.4995 0 0 0 -.5993-.06005 1.58583 1.58583 0 0 1 -.435-.04847c-.29614-.09387-.01007-.31018.63709-.48254a6.3599 6.3599 0 0 1 1.64941-.21265 5.60006 5.60006 0 0 0 1.0365-.08789 3.95189 3.95189 0 0 1 1.36816-.04419c.25383.06891.17168.21-.20888.35978z" fill="#666"/><path d="m225.441 172.301-1.257.321.155.043 1.258-.322.157.043.246-.187-.716.059z" fill="#666"/><path d="m234.65637 170.49536c.02173-.01709-.01373-.02685-.08063-.02173l-14.66217 1.15015a.3827.3827 0 0 0 -.15838.04077c-.01142.00855-.00739.01526.00659.01929a.24536.24536 0 0 0 .073.00244l14.66327-1.15015a.38205.38205 0 0 0 .15832-.04077z" fill="#666"/><path d="m230.06 168.749-4.193 1.073.149.04 3.576-.914-2.146 1.01.076.02 3.904-.538-3.585.919.148.04 4.191-1.073-.125-.034-4.175.575 2.308-1.083z" fill="#666"/><path d="m198.197 177.12378c-.09942.07031-.06122.14868.11218.1958a2.2375 2.2375 0 0 0 1.03009-.04175c.83716-.21411-.30053-.30786.39154-.48486a1.68175 1.68175 0 0 1 .79-.02857c.10505.02857.16095.07666.12586.13672l.16687-.02588c.03821-.05737-.01581-.114-.14435-.14892a2.23411 2.23411 0 0 0 -1.02667.04443c-.85022.21741.294.30957-.39807.48657a1.65638 1.65638 0 0 1 -.78846.02381c-.15679-.0426-.18017-.11511-.09539-.17908z" fill="#666"/><path d="m199.327 177.587 2.155-.551.42.115.152-.039-.926-.252-.152.039.42.114-2.155.551z" fill="#666"/><path d="m202.54736 177.246-2.84411.44409.09173.025.79773-.12573.67731.18408-.49933.207.09186.0249 1.7699-.7362zm-1.16754.48267-.61212-.16651 1.6366-.25744z" fill="#666"/><path d="m203.49243 177.91357c.48761-.12463.60095-.24707.30737-.3269l-.41864-.114-2.307.59033.08508.02319.75488-.19311.33356.09069a1.25475 1.25475 0 0 0 .12964.02662l-.49262.27307.09681.02636.51568-.28588a3.21136 3.21136 0 0 0 .99524-.11037zm-1.43005-.05847 1.2522-.32043.33361.09082c.25013.06811.15613.1626-.24249.26452a2.12036 2.12036 0 0 1 -1.00983.05579z" fill="#666"/><path d="m204.368 177.741-.151.039.42.115-2.155.551.085.023 2.155-.551.42.114.152-.039z" fill="#666"/><path d="m191.3208 179.059c-.09949.07043-.06128.14868.11218.19592a2.23919 2.23919 0 0 0 1.03009-.04175c.8371-.21423-.30059-.30786.39148-.48486a1.683 1.683 0 0 1 .78992-.02881c.10522.02881.16113.07691.126.137l.16681-.02588c.03827-.05738-.01581-.114-.14429-.14905a2.23643 2.23643 0 0 0 -1.02686.04431c-.85009.21753.29413.30957-.398.48669a1.65785 1.65785 0 0 1 -.78845.02393c-.15668-.0426-.18-.11511-.09527-.17908z" fill="#666"/><path d="m194.605 178.971.421.115.151-.039-.925-.252-.152.039.42.114-2.155.552.085.023z" fill="#666"/><path d="m195.31976 179.69458c.67231-.17212.90992-.37012.56293-.4646a4.3492 4.3492 0 0 0 -1.77722.13428c-.66907.17114-.9115.36963-.56287.4646a4.35061 4.35061 0 0 0 1.77716-.13428zm-1.12933-.30725a3.76539 3.76539 0 0 1 1.53748-.11755c.29681.08056.08856.25195-.49488.40112a3.76639 3.76639 0 0 1 -1.53546.11816c-.29877-.08117-.09051-.25244.49286-.40173z" fill="#666"/><path d="m195.30121 179.8999.33356.0907a2.68333 2.68333 0 0 0 1.24475-.07019c.48761-.12463.60113-.24707.30743-.3269l-.41858-.11377-2.30694.59008.085.0232zm1.40051-.35827.33362.09069c.25024.06812.15607.1626-.24249.26465a2.10714 2.10714 0 0 1 -1.00666.05493l-.33361-.09082z" fill="#666"/><path d="m195.56128 177.7981a.43306.43306 0 0 0 -.16888.01318c-.0622.016-.087.03577-.05573.04431l5.08673 1.38367a.43449.43449 0 0 0 .16943-.01331c.06183-.01587.08649-.03564.05518-.04419z" fill="#666"/><path d="m212.542 164.438.214-.137-1.288.062-4.558 1.007-.305.209.895-.049z"/><path d="m200.252 167.024.415-.008 5.213-1.12.335-.234-.851.056-4.607.984z"/><path d="m212.046 166.832-2.466-.671-.925.04-.356.255 2.443.665.992-.069z"/><path d="m217.881 165.89.213-.137-1.287.062-4.558 1.007-.304.209.894-.048z"/><path d="m218.159 165.701.179-.141-2.919-.794-.463.004-.575.33 2.452.667z"/><path d="m207.676 166.255-5.257 1.131-.244.128 1.322-.066 4.555-.994.365-.225z"/><path d="m202.084 167.587-.213.136 2.887.786.556-.011.57-.331-2.421-.664z"/><path d="m211.435 169.607-.504.321.414-.007 5.214-1.121.334-.233-.851.056z"/><path d="m214.129 167.598.728-.034 4.673-.999.549-.337-.402.021-5.195 1.116z"/><path d="m217.284 168.484.894-.049 5.043-1.093.213-.136-1.288.062-4.558 1.006z"/><path d="m214.92 167.614-.926.04-.356.255 2.443.664.991-.068.313-.221z"/><path d="m189.733 171.141.365-.225-.741.025-5.257 1.132-.244.128 1.323-.067z"/><path d="m198.513 170.453 1.328-.065.177-.142-2.918-.793-.463.003-.575.33z"/><path d="m190.336 170.888-.356.255 2.443.664.992-.068.312-.221-2.465-.67z"/><path d="m186.995 173.184.57-.331-2.42-.663-1.38.083-.213.137 2.887.785z"/><path d="m190.472 170.832.727-.034 4.673-.998.549-.338-.402.021-5.195 1.116z"/><path d="m199.562 170.576.214-.136-1.288.062-4.558 1.007-.304.209.895-.049z"/><path d="m193.235 171.801-.851.056-4.607.984-.504.322.414-.008 5.214-1.12z"/><path d="m189.104 173.726-.213.136 2.887.786.556-.011.571-.331-2.421-.664z"/><path d="m194.696 172.393-5.257 1.132-.244.128 1.323-.066 4.554-.994.365-.225z"/><path d="m201.976 170.909-.575.33 2.452.667 1.327-.066.177-.141-2.918-.794z"/><path d="m196.601 172.3-.926.04-.356.255 2.443.665.992-.069.312-.22z"/><path d="m199.269 172.961-.304.209.895-.048 5.041-1.093.214-.137-1.288.062z"/><path d="m183.136 176.514-.297.019-1.613.345-.177.112.146-.002 1.824-.393z"/><path d="m185.448 176.019.062-.049-1.021-.278-.162.001-.201.116.858.233z"/><path d="m183.273 176.485.313-.017 1.765-.383.074-.048-.45.022-1.596.352z"/><path d="m184.059 175.813.192-.118-.14.007-1.819.391-.123.082.255-.012z"/><path d="m186.195 176.201-.201.116.858.233.465-.022.062-.05-1.021-.278z"/><path d="m183.99 176.702-.124.09.855.232.347-.024.109-.077-.863-.235z"/><path d="m185.979 176.211-1.818.39-.123.082.254-.012 1.636-.349.192-.118z"/><path d="m182.173 177.158-.483.029-.074.048 1.01.275.195-.004.2-.116z"/><path d="m183.095 177.386-.177.113.145-.003 1.825-.392.117-.082-.298.02z"/><path d="m199.68158 165.04614a1.84165 1.84165 0 0 0 .5097.05713c.45563.00281.715.07337.71216.19361-.00171.05371.05762.0979.171.12878l.02893.00745a5.90792 5.90792 0 0 0 2.14826-.17725c.64453-.15869 1.04309-.3584.99151-.49683-.022-.05883.08789-.139.30866-.22583.44275-.17419.53741-.33862.24115-.41943a4.60881 4.60881 0 0 0 -1.59583.05078 4.69365 4.69365 0 0 1 -.86584.07446 7.3495 7.3495 0 0 0 -1.91272.24634c-.76487.20313-1.08866.44959-.73698.56079zm.84955-.5343a6.34354 6.34354 0 0 1 1.64892-.21277 5.5924 5.5924 0 0 0 1.036-.08789 3.96035 3.96035 0 0 1 1.36915-.04419c.25335.06885.17126.21009-.20911.35962-.26209.103-.39166.1991-.365.27051.04437.11914-.30023.29126-.857.42822a5.175 5.175 0 0 1 -1.847.15344c-.11414-.02649-.17206-.06652-.171-.11621.00183-.06811-.07092-.12231-.20868-.15979a2.495 2.495 0 0 0 -.59924-.06006 1.58225 1.58225 0 0 1 -.43476-.04846c-.29618-.09375-.01023-.31018.63772-.48242z"/><path d="m203.058 164.599.157.042.246-.186-.716.059.158.043-1.258.321.155.042z"/><path d="m178.50714 175.96387 2.10181-.16492a4.84156 4.84156 0 0 0 .7984-.13135 1.57382 1.57382 0 0 0 .52106-.20617c.1806-.14307-.1203-.22486-.66871-.18189l-.82489.06494.23993-.19092c.09064-.07177.05951-.12768-.062-.16088a1.99379 1.99379 0 0 0 -.60675-.021 3.22207 3.22207 0 0 0 -1.3211.33789l-.65729.5238c-.12898.10303.08568.16126.47954.1305z"/><path d="m179.44934 170.26587 1.63556-.08643-.37781.42871c-.01178.01343-.00372.02393.02014.03052a.46438.46438 0 0 0 .13892.00464.79652.79652 0 0 0 .291-.071l.97583-.61719c.05732-.03613-.027-.05908-.16564-.04517l-2.36884.23841a.69337.69337 0 0 0 -.27765.07458c-.0385.03023.01686.04879.12849.04293z"/><path d="m180.3161 170.376c-.05841.06884-.11487.13745-.162.20495a1.17407 1.17407 0 0 0 -.133.22962c-.00684.01489.0921.00476.1131-.01148a3.69852 3.69852 0 0 0 .5166-.48486c.01568-.01758-.02039-.0282-.08991-.02442-.60577.03248-1.21936.06946-1.85339.12208-.05957.00463-.09924.02929-.04511.02807.53109-.01039 1.08932-.03505 1.65371-.06396z"/><path d="m179.67346 170.54053c-.05847.06885-.11487.13733-.162.20483a1.17721 1.17721 0 0 0 -.13311.22949c-.00684.01514.092.00489.1131-.01147a3.68687 3.68687 0 0 0 .5166-.48474c.01574-.01746-.02033-.0282-.09-.02454-.60565.03272-1.21936.06958-1.85339.12207-.05957.00464-.09912.0293-.045.02808.53106-.01025 1.08934-.03491 1.6538-.06372z"/><path d="m187.05811 168.695 2.369-.23841a.69266.69266 0 0 0 .27747-.07446c.03851-.03027-.01691-.04883-.12836-.043l-1.63562.08643.37769-.42859c.0119-.01355.00378-.024-.02014-.03052a.45927.45927 0 0 0 -.13892-.00476.8.8 0 0 0 -.29095.0708l-.97583.61743c-.05731.03608.02698.05908.16566.04508z"/><path d="m188.4646 168.31519c.60565-.03272 1.21936-.06958 1.85339-.12195.05945-.00476.09912-.02942.04505-.02808-.53107.01026-1.0893.03479-1.65375.0636.05841-.0686.11487-.13721.16193-.20483a1.16687 1.16687 0 0 0 .13311-.2295c.00684-.015-.092-.00488-.11309.0116a3.70528 3.70528 0 0 0 -.51667.48474c-.01568.01746.02043.02823.09003.02442z"/><path d="m189.1073 168.15088c.60571-.03272 1.21936-.06958 1.85339-.12207.05951-.00464.09912-.0293.04511-.02808-.53113.01026-1.08936.03491-1.65387.06372.05853-.06872.115-.13733.162-.20483a1.18413 1.18413 0 0 0 .13311-.22962c.00684-.015-.0921-.00476-.11322.0116a3.69693 3.69693 0 0 0 -.5166.48474c-.01557.01746.02044.0282.09008.02454z"/><g fill="#666"><path d="m173.131 177.38623a1.07864 1.07864 0 0 0 .44635-.18042q.08121-.08661-.1391-.14648l-.41864-.1139-2.30639.59.08514.02319.75452-.193.33349.0907a1.75887 1.75887 0 0 0 .55121.04126 3.62909 3.62909 0 0 0 .69342-.11135zm-1.42669-.05933 1.24877-.31958.33344.09082q.187.05091.12219.11915a.90468.90468 0 0 1 -.36438.14526 2.94854 2.94854 0 0 1 -.55975.09131 1.42665 1.42665 0 0 1 -.44684-.03614z"/><path d="m175.13269 177.52026-.0849-.02319-1.32147.33814a4.69528 4.69528 0 0 1 -.73407.13574 1.45937 1.45937 0 0 1 -.49457-.0232q-.18677-.05072-.0741-.13147a1.95363 1.95363 0 0 1 .5373-.18933l1.32141-.33813-.08515-.0232-1.32788.33985a2.10529 2.10529 0 0 0 -.61871.223q-.1311.09815.0907.15857a1.80026 1.80026 0 0 0 .59881.02893 5.3129 5.3129 0 0 0 .86493-.15613z"/><path d="m175.615 177.651-.085-.023-2.307.59.757.206.152-.039-.672-.182z"/><path d="m175.77441 178.42786c.04419-.0304.06006-.0575.04865-.08155a.28445.28445 0 0 0 -.08325-.08691.305.305 0 0 1 -.0763-.07642c-.01141-.02063-.00158-.04284.03-.06677a.647.647 0 0 1 .20221-.07544 2.07927 2.07927 0 0 1 .4159-.0625 1.20692 1.20692 0 0 1 .37377.03394.25588.25588 0 0 1 .11646.05774.06.06 0 0 1 .00934.0791l.16675-.026a.0619.0619 0 0 0 -.0105-.08277.28606.28606 0 0 0 -.13385-.06591 1.31523 1.31523 0 0 0 -.3133-.042 2.41183 2.41183 0 0 0 -.36022.01953 2.86837 2.86837 0 0 0 -.353.06665 1.02859 1.02859 0 0 0 -.27692.09937q-.06939.04632-.051.08276a.29658.29658 0 0 0 .08392.08716.28527.28527 0 0 1 .07813.07508c.01129.0205.00152.04284-.03028.06665a.64161.64161 0 0 1 -.202.07556 2.00549 2.00549 0 0 1 -.411.0603 1.242 1.242 0 0 1 -.3772-.0365q-.1149-.03131-.13849-.08032c-.01581-.03284-.00134-.06555.04321-.09876l-.16357.02173c-.04865.03528-.06409.07105-.0448.10694a.24583.24583 0 0 0 .157.08886 1.34159 1.34159 0 0 0 .3158.04236 2.3915 2.3915 0 0 0 .36175-.01819 2.84825 2.84825 0 0 0 .35248-.06592.96685.96685 0 0 0 .27031-.09777z"/><path d="m175.199 178.756.806.219.151-.039-.72-.196.946-.242.622.169.148-.037-.622-.17.909-.232.696.189.151-.039-.78-.212z"/><path d="m169.40668 171.3667a2.77489 2.77489 0 0 0 .43219-.141q.15582-.0705.17321-.12854c.0113-.03882-.02593-.06983-.1123-.09339a1.31436 1.31436 0 0 0 -.35028-.03234 3.79859 3.79859 0 0 0 -.49225.04162 5.209 5.209 0 0 0 -.54748.1095l-.70136.17956.89691.244zm-.84815-.22534a4.63837 4.63837 0 0 1 .4823-.09741 3.1974 3.1974 0 0 1 .42621-.03638 1.15372 1.15372 0 0 1 .30353.0293c.076.0205.1098.0476.10138.08093q-.01309.05-.15088.1112a2.5386 2.5386 0 0 1 -.38355.12427l-.56189.14368-.77905-.21179z"/><path d="m170.925 170.978-.897-.244-.129.033.897.244z"/><path d="m171.38605 170.86023-.02692-.12634 1.02771-.26294.4801.01037.13922-.03552-1.712-.03564-.12921.0332.08185.45239zm.89734-.39185-.92884.23755-.0545-.25915z"/><path d="m172.74188 170.23035a2.52952 2.52952 0 0 0 .2713-.03186q.14063-.02381.36005-.06714c.12842-.02564.23254-.04517.31311-.05908.08014-.01368.15521-.0232.22449-.02832a.51213.51213 0 0 1 .16461.00854q.07838.02124-.00238.06763a1.56891 1.56891 0 0 1 -.33331.11108q-.175.04468-.36451.07642-.18951.03222-.33325.04248l-.00946.02807q.15234-.01062.36243-.04638.21011-.0359.405-.0857a2.61179 2.61179 0 0 0 .32214-.09936c.07483-.0304.11762-.0564.128-.078.01062-.02161-.00592-.03846-.0495-.05018a.65674.65674 0 0 0 -.20831-.01342 2.66854 2.66854 0 0 0 -.26856.03186c-.09289.01574-.21283.038-.35882.06677q-.19629.03882-.31677.05933c-.08057.01391-.15534.02343-.2248.02856a.51047.51047 0 0 1 -.16443-.00867c-.05285-.01452-.054-.037-.003-.0675a1.42466 1.42466 0 0 1 .32227-.10889q.124-.03186.27106-.0592c.098-.01843.19494-.03308.29058-.04456l-.00457-.02661q-.14091.01649-.30457.04675-.163.03041-.31018.06787a2.56922 2.56922 0 0 0 -.31866.09852c-.07221.02978-.1128.05529-.12244.0769-.009.02148.00793.03833.05157.05a.67139.67139 0 0 0 .21091.01409z"/><path d="m174.345 169.661.838.228.129-.033-.838-.228.638-.163-.059-.016-1.405.359.059.016z"/><path d="m175.62573 169.53882a1.341 1.341 0 0 0 .35193.03247 3.95548 3.95548 0 0 0 .49371-.04 4.8458 4.8458 0 0 0 .53058-.10437 2.4696 2.4696 0 0 0 .41162-.13647q.15125-.06977.16779-.12879.0164-.059-.113-.09412a1.33968 1.33968 0 0 0 -.35351-.03271 3.89281 3.89281 0 0 0 -.49292.04028 4.86151 4.86151 0 0 0 -.52973.10437 2.45778 2.45778 0 0 0 -.41143.13672q-.15033.06994-.16688.12891-.01615.05889.11184.09371zm.17407-.22571a2.12387 2.12387 0 0 1 .35267-.11731 4.11927 4.11927 0 0 1 .45355-.089 3.36172 3.36172 0 0 1 .42523-.03393 1.16662 1.16662 0 0 1 .30554.02819c.07422.02027.10706.04749.098.08155-.00909.03418-.05633.071-.1419.11108a2.08608 2.08608 0 0 1 -.35126.11682 4.18152 4.18152 0 0 1 -.45508.08948 3.37433 3.37433 0 0 1 -.42633.0343 1.1641 1.1641 0 0 1 -.30542-.02844q-.11142-.03021-.09808-.08142c.00887-.03405.05678-.07116.14308-.11132z"/><path d="m179.514 168.781-.059-.016-1.02.261-.838-.228-.129.033.897.244z"/><path d="m179.975 168.663-.897-.244-.129.033.897.244z"/><path d="m179.97424 168.42639a1.34756 1.34756 0 0 0 .35352.03259 3.8789 3.8789 0 0 0 .49182-.03991 4.78641 4.78641 0 0 0 .5285-.10413 2.87753 2.87753 0 0 0 .321-.099.64008.64008 0 0 0 .18359-.09631l-.12341.00915a1.31158 1.31158 0 0 1 -.43622.16858 4.197 4.197 0 0 1 -.45654.08972 3.31566 3.31566 0 0 1 -.42743.03455 1.1711 1.1711 0 0 1 -.30554-.02832q-.11151-.03039-.09809-.08154c.00891-.03394.05713-.07129.14435-.11157a2.12575 2.12575 0 0 1 .35413-.11756 3.85087 3.85087 0 0 1 .6502-.11023l.0387-.03235q-.17505.01264-.36853.04529-.19364.033-.38592.08215a2.4727 2.4727 0 0 0 -.41053.13624q-.15.06939-.1665.12854c-.01069.03918.02666.07055.1129.09411z"/><path d="m193.10974 165.01953a2.59024 2.59024 0 0 0 .27136-.03174q.14063-.0238.35993-.06714c.12854-.02563.23266-.04541.31311-.0592.08026-.01379.15533-.02319.22461-.02832a.51124.51124 0 0 1 .16461.00867q.07818.02124-.00238.0675a1.56047 1.56047 0 0 1 -.33344.111q-.17477.04487-.36444.07666-.1896.03205-.33325.04248l-.0094.02808q.15234-.01062.36243-.04651.20992-.0357.405-.08557a2.69852 2.69852 0 0 0 .32214-.09936c.07483-.03052.11761-.05652.12787-.07813.01062-.02148-.0058-.03833-.04938-.05029a.65791.65791 0 0 0 -.20837-.01319 2.643 2.643 0 0 0 -.26862.03186c-.09277.01575-.21271.038-.35876.06678-.13074.02575-.23658.04565-.31684.05932-.08044.01392-.15521.0232-.22479.02844a.50348.50348 0 0 1 -.16431-.00866q-.07946-.02161-.003-.06763a1.44492 1.44492 0 0 1 .32215-.10876q.12423-.03168.27118-.05909.14694-.02765.29046-.04455l-.00451-.02661q-.14082.01629-.30445.04675-.16332.03039-.31036.06787a2.58156 2.58156 0 0 0 -.3186.09839c-.07227.02966-.1131.05554-.12238.077-.009.02148.00781.03808.05157.05a.66808.66808 0 0 0 .21086.01395z"/><path d="m195.617 164.661.129-.033-.309-.084.126-.342-.134.034-.113.307-1.168.021-.142.036 1.302-.023z"/><path d="m196.15729 164.24a2.5969 2.5969 0 0 0 .27142-.03186q.14054-.024.36-.06726.19272-.03846.31311-.05908.12039-.02051.22448-.02832a.50922.50922 0 0 1 .16474.00866c.05212.01416.05133.0365-.0025.06751a1.57 1.57 0 0 1 -.33338.11108q-.17467.04468-.36438.07666-.1896.03186-.33325.04224l-.0094.02808q.15216-.01062.36224-.04639c.14008-.02381.27485-.05225.40516-.08557a2.63 2.63 0 0 0 .32208-.09949c.07483-.03027.11755-.0564.12793-.07788.01062-.02173-.0058-.03858-.04938-.05029a.66108.66108 0 0 0 -.20844-.01343 2.63533 2.63533 0 0 0 -.26855.032c-.093.01563-.21283.038-.35889.06677q-.19618.03864-.31671.05945c-.08044.01367-.15521.02319-.22485.02832a.507.507 0 0 1 -.16437-.00867q-.07938-.0216-.003-.0675a1.43694 1.43694 0 0 1 .3222-.10889q.12425-.03186.27124-.05908.14686-.02747.29047-.04468l-.00458-.02649q-.14072.0163-.30444.04676-.16325.03039-.3103.06787a2.57459 2.57459 0 0 0 -.31861.09839c-.07226.02978-.11291.05542-.12249.0769-.009.02161.00793.03833.05157.05029a.68261.68261 0 0 0 .21088.0139z"/><path d="m197.761 163.67.838.228.129-.033-.838-.228.638-.163-.059-.016-1.405.36.059.016z"/><path d="m199.0412 163.54846a1.33733 1.33733 0 0 0 .35193.03235 3.91017 3.91017 0 0 0 .49383-.04 4.8129 4.8129 0 0 0 .53046-.10425 2.48788 2.48788 0 0 0 .41174-.13647q.15106-.06977.16761-.12866c.011-.03955-.02662-.0708-.11286-.09424a1.34031 1.34031 0 0 0 -.35351-.03272 3.91633 3.91633 0 0 0 -.493.04016 4.89124 4.89124 0 0 0 -.5296.10437 2.45037 2.45037 0 0 0 -.41144.13672q-.15033.06994-.167.12891c-.01066.03927.02645.07064.11184.09383zm.17413-.22571a2.11032 2.11032 0 0 1 .3526-.11743 4.14935 4.14935 0 0 1 .45368-.089 3.40418 3.40418 0 0 1 .42511-.03393 1.16438 1.16438 0 0 1 .30554.02844c.07428.02.107.04724.09808.0813q-.01363.05127-.142.11108a2.07489 2.07489 0 0 1 -.35125.117 4.16186 4.16186 0 0 1 -.455.08935 3.35132 3.35132 0 0 1 -.42633.0343 1.16433 1.16433 0 0 1 -.30554-.02844c-.07434-.02-.10712-.04724-.09809-.0813.00892-.03422.05687-.07133.1432-.11137z"/><path d="m202.929 162.79-.059-.016-1.02.261-.838-.228-.129.033.897.244z"/><path d="m203.39 162.673-.897-.244-.129.033.897.244z"/><path d="m203.38977 162.43591a1.34277 1.34277 0 0 0 .35352.0326 3.86 3.86 0 0 0 .49188-.0398 4.82042 4.82042 0 0 0 .5285-.10413 2.92246 2.92246 0 0 0 .32086-.099.64231.64231 0 0 0 .18378-.09644l-.12341.00928a1.31228 1.31228 0 0 1 -.43634.16845 4.17516 4.17516 0 0 1 -.45642.08973 3.3191 3.3191 0 0 1 -.42762.03454 1.15938 1.15938 0 0 1 -.30548-.02832c-.07422-.02014-.107-.04736-.098-.0813.00879-.03418.05707-.07129.14423-.11181a2.16246 2.16246 0 0 1 .35418-.11756 3.86527 3.86527 0 0 1 .65021-.11023l.03882-.03222q-.17514.01245-.36859.04516-.19373.033-.386.08228a2.46957 2.46957 0 0 0 -.41052.13611q-.14978.06939-.16657.12854c-.01063.03921.02661.07069.11297.09412z"/></g><path d="m28.84851 84.29425-8.77-11.3739a163.6111 163.6111 0 0 0 -19.07851 10.41858v36.8855c16.79932-14.48297 24.70868-28.88373 27.84851-35.93018z" fill="#fff"/><path d="m93.16949 199.4353 36.94422-13.22217-20.8642-1.24633a6.48947 6.48947 0 0 1 -4.59228-2.3545l-25.39411-32.9342-13.1737 12.07922a17.26709 17.26709 0 0 1 -1.60651 1.686l-10.8653 9.80737 22.82483 22.49331a16.10083 16.10083 0 0 0 16.72705 3.6913z" fill="#fff"/><path d="m143.026 187.63452a25.03417 25.03417 0 0 0 -7.39734 1.59509l-43.283 16.432a16.101 16.101 0 0 1 -17.41632-3.99316l-24.28839-25.731-.35919.32422-25.02914 23.19243 34.19513 28.416a32.19553 32.19553 0 0 0 20.4458 7.34472c.27735 0 .55225-.00976.82715-.01953l1.01465-.03711 172.38265-8.29246a41.358 41.358 0 0 0 1.882-12.36572v-20.76636l-110.2981-6.58923a14.0587 14.0587 0 0 1 -2.6759.49011z" fill="#fff"/><path d="m29.50568 82.76849c.08538-.20642.16418-.40075.2387-.587l-.01318-.01709z" fill="#0a94b4"/><path d="m175.074 186.89587-20.08734-1.20007.01038.00879-3.23877.41284a18.45767 18.45767 0 0 0 -6.05634 1.027l110.29807 6.58921v-2.00329l-2.62549-.15686z" fill="#0a94b4"/><path d="m80.7207 235.19531c-.2749.00977-.5498.01953-.82715.01953a32.19553 32.19553 0 0 1 -20.4458-7.34472l-34.19513-28.416-1.47962 1.37088 33.44636 27.7939.53223.44226.44812.37243a34.18761 34.18761 0 0 0 21.14062 7.77641l-.03271.06641 174.113-8.37744c.24872-.67017.48291-1.34742.69745-2.03321l-172.38272 8.29244z" fill="#0a94b4"/><path d="m28.509 80.57916-6.55884-8.50635q-.941.418-1.87158.84754l8.77 11.3739c.2464-.553.46716-1.06634.657-1.52521l-1.61963-1.36023c-.21517-.27899.12174-.57245.62305-.82965z" fill="#0a94b4"/><path d="m109.24951 184.9668 20.8642 1.24633 4.314-1.54394c.17188-.06152.34668-.11279.51966-.17041l-25.57825-1.52808a4.54083 4.54083 0 0 1 -3.16406-1.62109l.002-.001-25.46506-33.02661-1.47888 1.35608 25.39411 32.9342a6.48947 6.48947 0 0 0 4.59228 2.35452z" fill="#0a94b4"/><path d="m34.21594 1.83228c-.14062.02856-.27893.06341-.41906.09338.17419.002.34832.00134.52294.004-.0307-.02848-.06982-.06552-.10388-.09738z" fill="#fff"/><path d="m34.97461 2.44141.69141.01464-.52247-.45312-.04425-.03925c-.04284-.0379-.13391-.11938-.26751-.2417-.20471.0384-.41217.06885-.61585.1103.03406.03186.07318.0689.10388.09741-.17462-.00269-.34875-.00208-.52294-.004q-1.06733.2288-2.11323.51324c.82038-.004 1.64069-.01837 2.46106-.00683.27662.0039.55335.00351.8299.00931z" fill="#bebebe"/><path d="m21.33856 201.52893.7215.59949.48486-.44458a1.33929 1.33929 0 0 1 -1.20636-.15491z" fill="#5ac3df"/><path d="m26.43262 103.78027a15.6368 15.6368 0 0 1 11.25538 5.13573l28.40332 31.46191a16.26568 16.26568 0 0 1 -.00189 21.37939l13.1737-12.07922 1.47887-1.35608 1.56379-1.43384-51.70368-67.05649s-.25439.84143-.85773 2.34979c-.07452.18628-.15332.38061-.2387.587l-.00019.00055c-.18982.45887-.41058.97217-.657 1.52521-3.13981 7.04648-11.04917 21.44724-27.84849 35.93021v.20019l13.57959-12.25962a16.72373 16.72373 0 0 1 11.85303-4.38473z" fill="#5ac3df"/><path d="m48.08545 173.876.01562-.01465 14.2085-12.82617c5.48633-4.95313 6.10254-13.24512 1.37451-18.4834l-28.40332-31.46194a12.42453 12.42453 0 0 0 -8.94678-4.06836 13.63444 13.63444 0 0 0 -9.58056 3.55176l-13.81494 12.47168c-.02686.02344-.0542.04688-.08252.06934-.15552.12268-.81195.6372-1.856 1.42993v56.24194l21.06006 17.20508z" fill="#5ac3df"/><path d="m21.33856 201.52893a1.33929 1.33929 0 0 0 1.20636.15491 1.58319 1.58319 0 0 0 .68408-.35474l.544-.50415 1.47961-1.37085 25.02912-23.19238.35919-.32422-.02411-.02551.95807-.87854.01636.01733 1.996-1.83008.03039.03 10.8653-9.80737a17.26709 17.26709 0 0 0 1.60651-1.686 16.26568 16.26568 0 0 0 .00189-21.37939l-28.40333-31.46194a15.6368 15.6368 0 0 0 -11.25537-5.13575 16.72373 16.72373 0 0 0 -11.853 4.38477l-13.57963 12.2596v4.11957c1.044-.79273 1.70044-1.30725 1.856-1.42993.02832-.02246.05566-.0459.08252-.06934l13.81494-12.47168a13.63444 13.63444 0 0 1 9.58056-3.55176 12.42453 12.42453 0 0 1 8.94678 4.06836l28.40332 31.46192c4.728 5.23828 4.11182 13.53027-1.37451 18.4834l-14.2085 12.82617-.01562.01465-26.02543 24.11523-21.06006-17.20508v4.18787l20.10107 16.42151a1.57064 1.57064 0 0 0 .23749.13342z" fill="#5ac3df"/><path d="m1 42.5675v40.179a160.77782 160.77782 0 0 1 24.59668-12.78263z" fill="#fff"/><path d="m21.95013 72.07281q2.06049-.91553 4.16413-1.78082l.32861-.13476-25.42609-28.31977c-.00347.22138-.01678.44037-.01678.66254v.0675l24.59668 27.39637a160.77782 160.77782 0 0 0 -24.59668 12.78265v.59241a163.6111 163.6111 0 0 1 19.07855-10.41858q.93119-.42893 1.87158-.84754z" fill="#bebebe"/><path d="m134.94739 184.49878c-.173.05762-.34778.10889-.51966.17041l-4.314 1.54394-36.94424 13.22217a16.10083 16.10083 0 0 1 -16.727-3.69128l-22.82488-22.49329-.03039-.03-1.996 1.83008 23.33807 24.72547a16.10792 16.10792 0 0 0 10.41187 4.99q.58337.04705 1.17089.05163.587.00439 1.17573-.03418a16.08247 16.08247 0 0 0 4.65783-1.01428l43.283-16.432a25.369 25.369 0 0 1 3.63843-1.07873 24.7311 24.7311 0 0 1 3.75891-.51636c1.89423-.11267 6.16-.339 8.73224.37512l3.23877-.41284-.01038-.00879a6.68839 6.68839 0 0 0 -2.00482-.96423 33.054 33.054 0 0 0 -7.95636-1.4524 25.1413 25.1413 0 0 0 -6.24731.26551q-.4986.08349-.99347.18725a25.276 25.276 0 0 0 -2.83723.7668z" fill="#d9d9d9"/><path d="m27.88586 81.40881 1.61963 1.36019.00019-.00055.22552-.60412.87091-2.3327a12.325 12.325 0 0 0 -2.09314.74749c-.50128.25724-.83819.5507-.62311.82969z" fill="#1565c0"/><path d="m143.026 185.74231a24.7311 24.7311 0 0 0 -3.75891.51636 25.369 25.369 0 0 0 -3.63843 1.07873l-43.283 16.432a16.08247 16.08247 0 0 1 -4.65783 1.01428q-.58833.03864-1.17573.03418-.587-.00458-1.17089-.05163a16.08965 16.08965 0 0 1 -10.41187-4.99l-23.33809-24.72545-.01636-.01733-.95807.87854.02411.02551 24.28839 25.731a16.101 16.101 0 0 0 17.41632 3.99316l43.283-16.432a25.03417 25.03417 0 0 1 7.39734-1.59509 14.0587 14.0587 0 0 0 2.6759-.49011 18.45767 18.45767 0 0 1 6.05634-1.027c-2.57222-.71414-6.83799-.48782-8.73222-.37515z" fill="#c9c9c9"/><path d="m214.5 0h-172a42.54815 42.54815 0 0 0 -42.5 42.5v172a42.54815 42.54815 0 0 0 42.5 42.5h172a42.54815 42.54815 0 0 0 42.5-42.5v-172a42.54815 42.54815 0 0 0 -42.5-42.5zm41.5 191.73035v22.76965a41.358 41.358 0 0 1 -1.882 12.36572c-.21454.68579-.44873 1.363-.69745 2.03321a41.56855 41.56855 0 0 1 -38.92055 27.10107h-172a41.56275 41.56275 0 0 1 -38.78925-26.76855c-.07965-.20923-.163-.41639-.23931-.6272a41.3027 41.3027 0 0 1 -2.47144-14.10425v-172c0-.22217.01331-.44116.01678-.66254a41.56489 41.56489 0 0 1 30.66687-39.39856q1.04646-.28288 2.11323-.51324c.14013-.03.27844-.06482.41906-.09338.20368-.04145.41114-.0719.61585-.1103a41.526 41.526 0 0 1 7.66821-.72198h172a41.54716 41.54716 0 0 1 41.5 41.5z" fill="#31c1c0"/></svg>