<svg viewBox="0 0 224 224" xmlns="http://www.w3.org/2000/svg"><g fill="#fff"><path d="m196.19 0h-168.38a27.65 27.65 0 0 0 -27.81 28.69l7.28 169a27.68 27.68 0 0 0 27.82 26.31h153.8a27.68 27.68 0 0 0 27.79-26.34l7.28-169a27.65 27.65 0 0 0 -27.78-28.66zm-9.05 97.58a5.8 5.8 0 0 1 0 7.69 3 3 0 0 1 -4.42 0 5.84 5.84 0 0 1 -.07-7.62 3 3 0 0 1 4.49-.07zm-143.85-44.98c7.88-16.16 36.13-27.44 68.71-27.44s60.83 11.28 68.71 27.44a7.85 7.85 0 0 1 -.46 7.7 8.24 8.24 0 0 1 -7 3.85h-122.49a8.25 8.25 0 0 1 -7-3.85 7.85 7.85 0 0 1 -.47-7.7zm136.29 44.49a6.33 6.33 0 0 1 -1.34 4 3.65 3.65 0 0 1 -5.7.22 6.7 6.7 0 0 1 -.34-8.39 3.66 3.66 0 0 1 5.7-.22 6.5 6.5 0 0 1 1.68 4.39zm-10.82-1.51a6.27 6.27 0 0 1 -1.48 4.37 4 4 0 0 1 -5.55.61 7.4 7.4 0 0 1 -1.33-10 4 4 0 0 1 6-.51 7.25 7.25 0 0 1 2.36 5.53zm-103.55 5a4 4 0 0 1 -5.55-.61 6.27 6.27 0 0 1 -1.48-4.37 7.25 7.25 0 0 1 2.32-5.49 4 4 0 0 1 6 .51 7.4 7.4 0 0 1 -1.29 9.94zm-10.81.77a3.65 3.65 0 0 1 -5.7-.22 6.33 6.33 0 0 1 -1.34-4 6.5 6.5 0 0 1 1.64-4.41 3.66 3.66 0 0 1 5.7.22 6.7 6.7 0 0 1 -.3 8.39zm-14.6-3.77a3 3 0 0 1 4.51.07 5.84 5.84 0 0 1 -.07 7.62 3 3 0 0 1 -4.42 0 5.8 5.8 0 0 1 -.02-7.69zm-7.8 7.36a2.62 2.62 0 0 1 4.4-.14 5.37 5.37 0 0 1 .17 6.76 2.61 2.61 0 0 1 -4.33.11 5.67 5.67 0 0 1 -.24-6.73zm47.51 19.06a19.49 19.49 0 0 1 -4.33 8c-1.85 2.23-3.88 4.31-5.81 6.48a19.59 19.59 0 0 0 -5 9.14 30.91 30.91 0 0 0 .23 12.85c.91 4.12 2.22 8.16 3.47 12.21a36 36 0 0 1 2 10.61c0 3.53-.64 6.92-2.92 9.79-5.66 7.13-17.35 6.6-22.48-1a27.51 27.51 0 0 1 -4.41-13.07c-.56-5.92-.91-11.87-1.12-17.82-.26-7.59-1-15.07-3.29-22.36a42.65 42.65 0 0 1 -2.3-14.66 15.15 15.15 0 0 1 5-11 31 31 0 0 1 10.59-6c6.89-2.51 13.85-2.88 20.8-.32a14.67 14.67 0 0 1 9.57 17.15zm2.89-19.08a7 7 0 0 1 -10.4-2.57 20.05 20.05 0 0 1 -1.33-5.47 13.06 13.06 0 0 1 2.65-8.18c3.15-3.91 9.39-3.83 12.15.15 3.31 4.82 1.81 12.78-3.07 16.09zm59.1-16.09c2.76-4 9-4.06 12.15-.15a13.06 13.06 0 0 1 2.65 8.18 20.05 20.05 0 0 1 -1.33 5.47 7 7 0 0 1 -10.43 2.59c-4.88-3.29-6.38-11.25-3.04-16.07zm49.54 50c-2.32 7.29-3 14.77-3.29 22.36-.21 5.95-.56 11.9-1.12 17.82a27.51 27.51 0 0 1 -4.41 13.07c-5.13 7.62-16.82 8.15-22.48 1-2.29-2.87-2.88-6.26-2.92-9.79a36 36 0 0 1 2-10.61c1.25-4.05 2.56-8.09 3.47-12.21a30.91 30.91 0 0 0 .23-12.85 19.59 19.59 0 0 0 -5-9.14c-1.93-2.17-4-4.25-5.81-6.48a19.49 19.49 0 0 1 -4.33-8 14.67 14.67 0 0 1 9.62-17.09c7-2.56 13.91-2.19 20.8.32a31 31 0 0 1 10.59 6 15.15 15.15 0 0 1 5 11 42.65 42.65 0 0 1 -2.39 14.65zm3.67-27.21a2.61 2.61 0 0 1 -4.33-.11 5.37 5.37 0 0 1 .17-6.76 2.62 2.62 0 0 1 4.4.14 5.67 5.67 0 0 1 -.24 6.78z"/><path d="m176.36 54.67c-7-14.33-34.06-24.73-64.36-24.73s-57.37 10.4-64.36 24.73a3.14 3.14 0 0 0 .2 3.09 3.44 3.44 0 0 0 2.92 1.61h122.48a3.44 3.44 0 0 0 2.92-1.61 3.14 3.14 0 0 0 .2-3.09zm-123.1-.08c7.87-11.47 32.29-19.87 58.74-19.87s50.87 8.4 58.74 19.87z"/></g></svg>