<svg xmlns="http://www.w3.org/2000/svg" viewBox="0 0 194.48 223.59"><defs><style>.cls-1{fill:#fff;}</style></defs><g id="Layer_2" data-name="Layer 2"><g id="Layer_2-2" data-name="Layer 2"><g id="bp_icon"><path class="cls-1" d="M69.3,202.25A69.69,69.69,0,0,0,82.14,201a64.69,64.69,0,0,1,48.37-100.46C114.46,58.68,79.24,16.1,69.3,0,56.3,21.06,0,98.59,0,133A69.38,69.38,0,0,0,69.3,202.25Z"/><path class="cls-1" d="M142,106.88a58.51,58.51,0,1,0,52.21,52.21A58.57,58.57,0,0,0,142,106.88Zm24.29,61.34a3.14,3.14,0,0,1-3.14-3.14,26.94,26.94,0,0,0-5.12-15.8l-13.06,13.07c.76,2.49.86,5.26-2.14,8.72a9.24,9.24,0,0,1-6.37,3.41,9.22,9.22,0,0,1-5.81-16.83,8.45,8.45,0,0,1,7.44-1.73l13.23-13.23c-8.56-5.87-20.61-7-32.36.59-7.25,4.67-10.34,13.09-10.09,21.71a3.14,3.14,0,1,1-6.27.09,33.36,33.36,0,0,1,53.87-26.36,4.51,4.51,0,0,1,5.49,5.35,33.27,33.27,0,0,1,7.47,21A3.14,3.14,0,0,1,166.26,168.22Z"/></g></g></g></svg>