<svg viewBox="0 0 256 256" xmlns="http://www.w3.org/2000/svg"><g fill="#fff"><path d="m138.75 209.9a7.41 7.41 0 0 1 2.7-5.74 11.22 11.22 0 0 0 3.89-5.67 157.73 157.73 0 0 0 3.9-27h-12v-11.96h-36.15v-14.94l29.59-42.84h24.11l-26.3 39.55h9.51v-10.66h22.13v10.64h1.6a28.19 28.19 0 0 1 16.23-5.18.41.41 0 0 0 .41-.41v-.24a8.42 8.42 0 0 1 8.41-8.41h5.67v-60a25.2 25.2 0 0 0 -22.59-25.04v3.41a12.34 12.34 0 0 1 -24.67 0v-3.55h-28.94v3.56a12.34 12.34 0 0 1 -24.67 0v-3.56h-28.94v3.56a12.34 12.34 0 0 1 -24.67 0v-3.33a25.19 25.19 0 0 0 -22 25v126a25.2 25.2 0 0 0 25.21 25.2h98.23a7 7 0 0 1 -.68-2.94zm-96.55-143.3h124a3 3 0 1 1 0 6.07h-124a3 3 0 0 1 0-6.07zm54.73 104.86h-55.93v-14.46l25.25-23.3a20.76 20.76 0 0 0 4.38-5.27 9.55 9.55 0 0 0 1.1-4.28 5 5 0 0 0 -1.74-4 7.75 7.75 0 0 0 -5-1.45 11.31 11.31 0 0 0 -6 1.71 11.06 11.06 0 0 0 -4.28 4.78l-17.71-8.91a29 29 0 0 1 11.65-11.8 37.14 37.14 0 0 1 18.53-4.34 37.45 37.45 0 0 1 14.65 2.69 23 23 0 0 1 10 7.67 19.11 19.11 0 0 1 3.51 11.5 24.48 24.48 0 0 1 -2.44 10.8 40.52 40.52 0 0 1 -9.52 11.41l-10 9.07h23.55z"/><path d="m192.41 227.27a8 8 0 0 0 7.38-5h-14.79a8 8 0 0 0 7.41 5z"/><path d="m240 215.33v-5.43a1.34 1.34 0 0 0 -.5-1.05 18.28 18.28 0 0 1 -6.15-9 161.38 161.38 0 0 1 -4.69-33.37v-2.08a22.24 22.24 0 0 0 -22.21-22.21 6.48 6.48 0 0 1 -6.45-6.49v-.25a2.34 2.34 0 0 0 -2.34-2.34h-10.94a2.33 2.33 0 0 0 -2.33 2.34v.25a6.49 6.49 0 0 1 -6.48 6.47 22.29 22.29 0 0 0 -22 19.21v.05a22.51 22.51 0 0 0 -.21 2.95v1.53a178.78 178.78 0 0 1 -4.47 34.09 17.2 17.2 0 0 1 -5.89 8.86 1.36 1.36 0 0 0 -.5 1.06v5.42a.79.79 0 0 0 .77.78h93.63a.78.78 0 0 0 .76-.79z"/><path d="m44 45.43a6.24 6.24 0 0 0 12.48 0v-10.43a6.24 6.24 0 0 0 -12.48 0z"/><path d="m151.26 45.43a6.24 6.24 0 0 0 6.25 6.24 6.24 6.24 0 0 0 6.24-6.24v-10.43a6.25 6.25 0 0 0 -12.49 0z"/><path d="m97.64 45.43a6.25 6.25 0 0 0 12.49 0v-10.43a6.25 6.25 0 0 0 -12.49 0z"/></g></svg>