<svg viewBox="0 0 256 256" xmlns="http://www.w3.org/2000/svg"><g fill="#3ab0c0"><path d="m222.21 162.81a13.1 13.1 0 0 1 1.79-6.57 16.77 16.77 0 0 1 1.12-1.67 87.3 87.3 0 0 0 14.88-48.65 91.59 91.59 0 0 0 -93.22-89.92h-.31a92.87 92.87 0 0 0 -91.69 71.6 86.28 86.28 0 0 0 -2 18.41 91.32 91.32 0 0 0 91.59 91h.47a110.54 110.54 0 0 0 25.41-4.15c6.08-1.67 12.11-3.87 13.67-4.48a14.23 14.23 0 0 1 5-.91 13.81 13.81 0 0 1 5.45 1.12l30.52 10.81a7 7 0 0 0 2.11.6 4.29 4.29 0 0 0 4.31-4.27 7.36 7.36 0 0 0 -.27-1.46z"/><path d="m161.66 201.51c-1.94.54-4.42 1.12-7.11 1.73a100.08 100.08 0 0 1 -18.31 2.42 91.32 91.32 0 0 1 -92.06-90.58v-.46a103.38 103.38 0 0 1 .8-11.53c.33-2.31.71-4.62 1.25-6.88s1.18-4.85 1.88-7.21l-4.31 3.82a80.15 80.15 0 0 0 -27.8 60.24 79.25 79.25 0 0 0 13.36 44.14c1.25 1.88 1.94 3.36 1.73 4.31s-6.41 33.39-6.41 33.39a4.25 4.25 0 0 0 4.2 5.11 4 4 0 0 0 1.56-.32l30.23-11.89a8.37 8.37 0 0 1 6.46.11 90.8 90.8 0 0 0 32.68 6.46 84.59 84.59 0 0 0 64.66-29.66s1.72-2.38 3.71-5.18c-2 .7-4.26 1.47-6.52 1.98z"/></g></svg>