<svg viewBox="0 0 256 256" xmlns="http://www.w3.org/2000/svg"><g fill="#979797"><path d="m222.16 162.79a13 13 0 0 1 1.78-6.57 18.45 18.45 0 0 1 1.11-1.66 87.24 87.24 0 0 0 14.87-48.63 91.52 91.52 0 0 0 -93.16-89.86h-.3a92.8 92.8 0 0 0 -91.63 71.55 86.92 86.92 0 0 0 -2 18.4 91.28 91.28 0 0 0 91.54 91h.47a110.9 110.9 0 0 0 25.39-4.14c6.08-1.66 12.11-3.87 13.66-4.47a13.93 13.93 0 0 1 10.45.2l30.5 10.81a7.62 7.62 0 0 0 2.11.54 4.29 4.29 0 0 0 4.3-4.27 6.58 6.58 0 0 0 -.26-1.46z"/><path d="m161.63 201.47c-1.93.54-4.4 1.12-7.1 1.72a99.85 99.85 0 0 1 -18.3 2.42 91.26 91.26 0 0 1 -92-90.52v-.46a103.2 103.2 0 0 1 .8-11.52c.33-2.32.71-4.62 1.25-6.88s1.18-4.85 1.88-7.21l-4.31 3.82a80.07 80.07 0 0 0 -27.77 60.21 79.25 79.25 0 0 0 13.34 44.11c1.25 1.88 1.94 3.36 1.73 4.31s-6.4 33.36-6.4 33.36a4.24 4.24 0 0 0 4.19 5.11 4 4 0 0 0 1.56-.32l30.21-11.89a8.41 8.41 0 0 1 6.46.12 90.47 90.47 0 0 0 32.66 6.45 84.49 84.49 0 0 0 64.61-29.64s1.73-2.37 3.72-5.17c-2 .69-4.26 1.42-6.53 1.98z"/></g></svg>