<svg viewBox="0 0 256 256" xmlns="http://www.w3.org/2000/svg"><rect fill="#f2f2f2" height="256" rx="63.56" width="256"/><rect fill="#8ccb00" height="162.48" rx="12.37" width="135.6" x="26.89" y="46.76"/><path d="m239.92 85a1.93 1.93 0 0 0 -.52 3.8v14.62a4.64 4.64 0 0 1 -4.64 4.64h-51.54a4.64 4.64 0 0 1 -4.64-4.64v-51.51a4.65 4.65 0 0 1 4.64-4.64h51.54a4.65 4.65 0 0 1 4.64 4.64v12.68a1.95 1.95 0 1 0 1 0v-12.68a5.68 5.68 0 0 0 -5.67-5.67h-51.51a5.68 5.68 0 0 0 -5.67 5.67v51.55a5.67 5.67 0 0 0 5.67 5.67h51.54a5.67 5.67 0 0 0 5.67-5.67v-14.62a1.93 1.93 0 0 0 -.51-3.8z" fill="#666"/><path d="m239.92 185.67a1.93 1.93 0 0 0 -.52 3.8v14.62a4.65 4.65 0 0 1 -4.64 4.64h-51.54a4.65 4.65 0 0 1 -4.64-4.64v-51.55a4.64 4.64 0 0 1 4.64-4.64h51.54a4.64 4.64 0 0 1 4.64 4.64v12.67a1.95 1.95 0 1 0 1 0v-12.67a5.67 5.67 0 0 0 -5.67-5.67h-51.51a5.67 5.67 0 0 0 -5.67 5.67v51.55a5.68 5.68 0 0 0 5.67 5.67h51.54a5.68 5.68 0 0 0 5.67-5.67v-14.62a1.93 1.93 0 0 0 -.51-3.8z" fill="#666"/><path d="m224.52 98a4.9 4.9 0 0 1 -2.22-.53 5.24 5.24 0 0 0 -4.84 0 4.8 4.8 0 0 1 -2.46.53 5.09 5.09 0 0 1 -4.79-5 5.2 5.2 0 0 1 3.13-5 3.59 3.59 0 0 0 1.89-2 4.94 4.94 0 0 1 9.21 0 3.64 3.64 0 0 0 1.9 2 5.2 5.2 0 0 1 3.13 5 5.1 5.1 0 0 1 -4.8 5zm-4.64-1.84a6 6 0 0 1 2.75.67 4.06 4.06 0 0 0 2.05.46 4.49 4.49 0 0 0 1.42-8.59 4.36 4.36 0 0 1 -2.28-2.41 4.22 4.22 0 0 0 -7.89 0 4.3 4.3 0 0 1 -2.28 2.41 4.49 4.49 0 0 0 1.42 8.59 4.07 4.07 0 0 0 2.06-.46 6 6 0 0 1 2.75-.68z" fill="#666"/><path d="m221.48 89.08-1.6-1.65-1.6 1.65h1.07v4.33h1.06v-4.33z" fill="#666"/><path d="m192.69 95.14a.39.39 0 0 1 -.28-.12.38.38 0 0 1 0-.54l33.51-33.48a.39.39 0 0 1 .55.55l-33.47 33.45a.36.36 0 0 1 -.31.14z" fill="#666"/><path d="m202.24 72.17v-12.35l-5.94 10.43h-.5l-5.94-10.39v12.31h-1v-14.43h.87l6.27 11.15 6.34-11.15h.86v14.43z" fill="#666"/><path d="m191.7 168.86.26-.44a3.75 3.75 0 0 0 2.62 1c1.58 0 2.29-.69 2.29-1.55 0-2.38-5-1-5-3.88 0-1.12.86-2.11 2.81-2.11a4.3 4.3 0 0 1 2.4.71l-.22.47a4 4 0 0 0 -2.18-.67c-1.54 0-2.23.72-2.23 1.59 0 2.38 5 1 5 3.85 0 1.13-.9 2.1-2.86 2.1a4.07 4.07 0 0 1 -2.89-1.07z" fill="#666"/><path d="m200.81 162.46h-2.81v-.52h6.29v.52h-2.86v7.42h-.58z" fill="#666"/><path d="m210.19 167.64h-4.6l-1 2.24h-.59l3.66-7.94h.58l3.65 7.94h-.63zm-.21-.49-2.09-4.58-2.08 4.58z" fill="#666"/><path d="m218.79 169.88-1.9-2.66a4.63 4.63 0 0 1 -.77.06h-2.27v2.6h-.57v-7.94h2.84c2 0 3.2 1 3.2 2.67a2.44 2.44 0 0 1 -1.86 2.49l2 2.78zm-2.67-3.11c1.7 0 2.61-.8 2.61-2.16s-.91-2.15-2.61-2.15h-2.27v4.31z" fill="#666"/><path d="m222.85 162.46h-2.85v-.52h6.29v.52h-2.85v7.42h-.58z" fill="#666"/><path d="m194 193.67.26-.43a3.79 3.79 0 0 0 2.62 1c1.59 0 2.3-.7 2.3-1.56 0-2.38-5-1-5-3.88 0-1.12.86-2.11 2.81-2.11a4.27 4.27 0 0 1 2.39.72l-.21.46a4 4 0 0 0 -2.18-.67c-1.54 0-2.23.72-2.23 1.59 0 2.38 5 1 5 3.86 0 1.12-.89 2.1-2.85 2.1a4.12 4.12 0 0 1 -2.91-1.08z" fill="#666"/><path d="m203.08 187.27h-2.86v-.52h6.3v.52h-2.86v7.42h-.58z" fill="#666"/><path d="m207.07 190.72a4.13 4.13 0 1 1 4.13 4 4 4 0 0 1 -4.13-4zm7.67 0a3.55 3.55 0 1 0 -3.54 3.49 3.42 3.42 0 0 0 3.54-3.49z" fill="#666"/><path d="m223.38 189.43c0 1.67-1.2 2.66-3.2 2.66h-2.27v2.6h-.57v-7.94h2.84c2 0 3.2 1 3.2 2.68zm-.59 0c0-1.37-.91-2.16-2.61-2.16h-2.27v4.3h2.27c1.7 0 2.61-.78 2.61-2.14z" fill="#666"/><path d="m226.28 178.7h-34.58a.39.39 0 1 1 0-.77h34.58a.39.39 0 1 1 0 .77z" fill="#666"/><path d="m70.47 79.9 1.91 2.1-2.75 16.57-1.27.79-2.48-3 2.51-14.59zm4-20.47 1.06 1.27-2.53 16.06-2.32 1.91-1.68-1.91 2.06-14.65z"/><path d="m85 79.69 1.69 2.12-2.2 14.56-3.49 2.77-.85-1.26 2.75-16.71zm.09 17.1h16.52l2.39 3.21-1.69 1.06h-19.6l-1.06-1.27zm2.91-19.6h16.77l1.81 2-2.39 2.2h-16.62l-2.11-2.29zm1.27-19.45h19.83l1.24 1.26-3.53 2.78h-16.67l-2.36-3.17zm21.54 1.69 1 1.27-2.53 16.06-2.28 1.91-1.69-1.91 2-14.65z"/><path d="m123.45 59 2.55 3.18-2.55 14.82-2 1.52-1.84-2.15 2.74-16.49zm.85 18.19h16.76l1.81 2-2.38 2.2h-16.62l-2.11-2.29zm18.78 2.71 1.92 2.1-2.75 16.55-1.27.79-2.48-3 2.5-14.56zm4-20.47 1.06 1.27-2.54 16.06-2.32 1.91-1.7-1.91 2.06-14.65z"/><path d="m85 142.74 1.69 2.12-2.2 14.55-3.49 2.78-.85-1.27 2.75-16.7zm.09 17.1h16.52l2.39 3.16-1.69 1.06h-19.6l-1.06-1.27zm2-37.79 2.53 3.17-2.47 14.78-2 1.51-1.84-2.14 2.75-16.49zm.91 18.18h16.77l1.81 2-2.39 2.2h-16.62l-2.11-2.29zm1.27-19.45h19.83l1.24 1.24-3.53 2.78h-16.67l-2.36-3.17zm17.51 22.22 1.9 2.12-2.75 16.55-1.27.78-2.47-3 2.51-14.58zm4-20.47 1 1.26-2.53 16.07-2.33 1.9-1.69-1.9 2-14.65z"/><path d="m121.34 142.74 1.69 2.12-2.21 14.55-3.5 2.78-.85-1.27 2.75-16.7zm.09 17.1h16.52l2.39 3.17-1.7 1.06h-19.64l-1-1.24zm2.87-19.61h16.76l1.81 2-2.38 2.2h-16.62l-2.11-2.29zm1.27-19.45h19.84l1.24 1.24-3.54 2.78h-16.67l-2.35-3.17zm21.53 1.7 1.06 1.26-2.54 16.07-2.32 1.9-1.7-1.9 2.06-14.65z"/><path d="m127.33 184.28.89 1.11-.89 5.18-.68.52-.65-.75 1-5.77zm.74-.45h7l.43.44-1.24 1h-5.83l-.83-1.11zm6.13 7.76.67.74-1 5.79-.45.28-.86-1.05.87-5.1zm1.41-7.17.37.45-.89 5.62-.81.67-.59-.67.71-5.12z"/><path d="m139.33 197.5h5.78l.84 1.11-.59.37h-6.87l-.37-.44zm.71-13.22.89 1.11-.89 5.18-.69.52-.64-.75 1-5.77zm.3 6.36h5.86l.64.7-.84.77h-5.81l-.74-.8zm.44-6.81h6.94l.44.44-1.24 1h-5.83l-.83-1.11zm6.13 7.76.67.74-1 5.79-.44.28-.87-1.05.88-5.1z"/><path d="m50.48 87.48a4.91 4.91 0 0 1 -2.22-.54 5.24 5.24 0 0 0 -4.84 0 4.78 4.78 0 0 1 -2.41.53 5.1 5.1 0 0 1 -4.8-5 5.2 5.2 0 0 1 3.13-5 3.56 3.56 0 0 0 1.89-2 4.94 4.94 0 0 1 9.22 0 3.56 3.56 0 0 0 1.89 2 5.2 5.2 0 0 1 3.13 5 5.1 5.1 0 0 1 -4.8 5zm-4.64-1.85a6 6 0 0 1 2.75.68 4.17 4.17 0 0 0 2.06.45 4.49 4.49 0 0 0 1.42-8.59 4.31 4.31 0 0 1 -2.29-2.41 4.22 4.22 0 0 0 -7.88 0 4.33 4.33 0 0 1 -2.28 2.41 4.49 4.49 0 0 0 1.38 8.59 4.15 4.15 0 0 0 2.06-.45 6 6 0 0 1 2.78-.68z"/><path d="m47.44 78.57-1.6-1.66-1.6 1.66h1.07v4.33h1.06v-4.33z"/><path d="m117.6 189.14a3.17 3.17 0 0 1 -.93 2.27l-4.81 4.81a2.31 2.31 0 0 1 -3.26 0l-2.91-2.92-1.69-1.67a3.21 3.21 0 0 1 4.55-4.54l1.67 1.67 1.88-1.89a3.23 3.23 0 0 1 4.55 0 3.18 3.18 0 0 1 .95 2.27z" stroke="#000" stroke-miterlimit="10" stroke-width=".26"/><path d="m51.14 156.36-4.73-5.75a.75.75 0 0 0 -1.13 0l-4.74 5.75a.75.75 0 0 0 .05 1 .72.72 0 0 0 1 0l4.27-3.46 4.28 3.46a.72.72 0 0 0 1 0 .73.73 0 0 0 0-1z"/><path d="m46.15 155.58a.48.48 0 0 0 -.61 0 48.76 48.76 0 0 0 -4.54 4.08c-.13.14 0 .37.21.26a47.81 47.81 0 0 0 4.63-3.35c.7.56 1.39 1.1 2.11 1.63s1.65 1.19 2.52 1.73a.18.18 0 0 0 .22-.28 54.7 54.7 0 0 0 -4.54-4.07z"/><path d="m46.15 157.79a.48.48 0 0 0 -.61 0 51.78 51.78 0 0 0 -4.54 4.08c-.13.14 0 .37.21.27a47.81 47.81 0 0 0 4.63-3.35c.7.55 1.39 1.1 2.11 1.62s1.65 1.19 2.52 1.73a.18.18 0 0 0 .22-.27 54.82 54.82 0 0 0 -4.54-4.08z"/><path d="m40.54 127.9 4.74 5.76a.77.77 0 0 0 1.13 0l4.73-5.76a.73.73 0 0 0 -1-1l-4.28 3.46-4.27-3.46a.75.75 0 0 0 -1 0 .75.75 0 0 0 -.05 1z"/><path d="m45.54 128.68a.47.47 0 0 0 .61 0 50.07 50.07 0 0 0 4.54-4.08c.13-.13-.06-.37-.22-.26a50.4 50.4 0 0 0 -4.63 3.35c-.69-.55-1.39-1.1-2.1-1.63s-1.66-1.19-2.52-1.73a.18.18 0 0 0 -.22.28 51.5 51.5 0 0 0 4.54 4.07z"/><path d="m45.54 126.47a.48.48 0 0 0 .61 0 50.07 50.07 0 0 0 4.54-4.08.17.17 0 0 0 -.22-.26 50.4 50.4 0 0 0 -4.63 3.35c-.69-.56-1.39-1.1-2.1-1.63s-1.66-1.19-2.52-1.73a.18.18 0 0 0 -.22.28 53.14 53.14 0 0 0 4.54 4.07z"/><g fill="#666"><path d="m111.62 213.06a2.44 2.44 0 0 1 .85 2 2.42 2.42 0 0 1 -.85 1.95 3.58 3.58 0 0 1 -2.35.71h-2.27v2.6h-.58v-7.94h2.85a3.58 3.58 0 0 1 2.35.68zm-.41 3.55a1.93 1.93 0 0 0 .67-1.58 2 2 0 0 0 -.67-1.6 3 3 0 0 0 -1.94-.56h-2.27v4.3h2.27a3 3 0 0 0 1.94-.56z"/><path d="m115.26 219.47a3.57 3.57 0 0 1 -.83-2.55v-4.57h.57v4.55a3.14 3.14 0 0 0 .67 2.19 2.51 2.51 0 0 0 1.94.72 2.47 2.47 0 0 0 1.92-.72 3.14 3.14 0 0 0 .67-2.19v-4.55h.58v4.57a3.53 3.53 0 0 1 -.84 2.55 3.6 3.6 0 0 1 -4.69 0z"/><path d="m123.49 212.35h.58v7.42h4.57v.52h-5.15z"/><path d="m130.45 220a3.21 3.21 0 0 1 -1.23-.77l.26-.43a3.14 3.14 0 0 0 1.13.72 4.14 4.14 0 0 0 1.49.27 2.82 2.82 0 0 0 1.71-.43 1.32 1.32 0 0 0 .58-1.12 1.14 1.14 0 0 0 -.31-.85 2 2 0 0 0 -.76-.49 11 11 0 0 0 -1.22-.35 10.65 10.65 0 0 1 -1.4-.42 2.37 2.37 0 0 1 -.9-.63 1.7 1.7 0 0 1 -.37-1.14 2 2 0 0 1 .31-1.06 2.07 2.07 0 0 1 .94-.76 3.76 3.76 0 0 1 1.57-.29 4.39 4.39 0 0 1 1.29.2 3.61 3.61 0 0 1 1.1.52l-.22.46a3.64 3.64 0 0 0 -1-.5 4 4 0 0 0 -1.12-.17 2.71 2.71 0 0 0 -1.67.44 1.4 1.4 0 0 0 -.57 1.15 1.14 1.14 0 0 0 .31.85 2.12 2.12 0 0 0 .76.49 12.65 12.65 0 0 0 1.23.36 10.2 10.2 0 0 1 1.4.42 2.31 2.31 0 0 1 .89.62 1.64 1.64 0 0 1 .37 1.12 2 2 0 0 1 -.31 1.05 2.13 2.13 0 0 1 -1 .76 3.94 3.94 0 0 1 -1.59.28 4.61 4.61 0 0 1 -1.67-.3z"/><path d="m142.41 219.77v.52h-5.48v-7.94h5.31v.52h-4.73v3.13h4.23v.51h-4.23v3.26z"/><path d="m16.55 184.8v-2.42a3.53 3.53 0 0 1 .39-1.68 3 3 0 0 1 1.06-1.15 3.21 3.21 0 0 1 3.14 0 2.81 2.81 0 0 1 1.09 1.15 3.53 3.53 0 0 1 .39 1.68v2.42zm5.7-2.38a3.09 3.09 0 0 0 -.34-1.49 2.34 2.34 0 0 0 -.93-1 2.88 2.88 0 0 0 -2.75 0 2.31 2.31 0 0 0 -.94 1 3.21 3.21 0 0 0 -.34 1.49v1.93h5.3z"/><path d="m16.55 177.6v-.44h6.1v.44z"/><path d="m20.93 171.26v3.53l1.72.78v.48l-6.1-2.81v-.44l6.1-2.81v.48zm-.37.16-3.56 1.58 3.52 1.59z"/><path d="m22.46 168.56a2.45 2.45 0 0 1 -.59.95l-.33-.2a2.5 2.5 0 0 0 .55-.87 3.17 3.17 0 0 0 .21-1.15 2.16 2.16 0 0 0 -.3-1.29 1 1 0 0 0 -.86-.45.88.88 0 0 0 -.65.24 1.54 1.54 0 0 0 -.38.58 7.61 7.61 0 0 0 -.27.94 10 10 0 0 1 -.32 1.08 1.87 1.87 0 0 1 -.48.69 1.29 1.29 0 0 1 -.88.28 1.5 1.5 0 0 1 -.81-.23 1.58 1.58 0 0 1 -.59-.72 2.91 2.91 0 0 1 -.22-1.21 3.3 3.3 0 0 1 .15-1 2.91 2.91 0 0 1 .4-.85l.36.17a2.83 2.83 0 0 0 -.39.8 3 3 0 0 0 -.13.87 2 2 0 0 0 .34 1.28 1.08 1.08 0 0 0 .88.44.88.88 0 0 0 .65-.24 1.54 1.54 0 0 0 .38-.58 8.37 8.37 0 0 0 .28-1 9.13 9.13 0 0 1 .32-1.07 1.73 1.73 0 0 1 .47-.69 1.25 1.25 0 0 1 .86-.28 1.43 1.43 0 0 1 .81.24 1.6 1.6 0 0 1 .59.74 3.09 3.09 0 0 1 .21 1.21 3.42 3.42 0 0 1 -.26 1.32z"/><path d="m17 162.5v2.2h-.4v-4.84h.4v2.2h5.7v.44z"/><path d="m22.29 157.88a2.9 2.9 0 0 1 -1.11 1.12 3 3 0 0 1 -1.58.42 3 3 0 0 1 -1.6-.42 2.86 2.86 0 0 1 -1.12-1.14 3.24 3.24 0 0 1 -.4-1.62 3.3 3.3 0 0 1 .4-1.62 2.94 2.94 0 0 1 1.12-1.11 3.2 3.2 0 0 1 3.17 0 2.85 2.85 0 0 1 1.1 1.13 3.3 3.3 0 0 1 .4 1.62 3.24 3.24 0 0 1 -.38 1.62zm-.35-3a2.68 2.68 0 0 0 -1-1 2.86 2.86 0 0 0 -2.74 0 2.58 2.58 0 0 0 -1 1 2.92 2.92 0 0 0 0 2.77 2.45 2.45 0 0 0 1 1 2.79 2.79 0 0 0 2.74 0 2.54 2.54 0 0 0 1-1 2.92 2.92 0 0 0 0-2.77z"/><path d="m16.55 151.55v-.44h5.7v-3.51h.4v4z"/><path d="m16.55 146.45v-.45h6.1v.44z"/><path d="m22.29 142.92a2.85 2.85 0 0 1 -1.1 1.13 3.2 3.2 0 0 1 -3.17 0 2.94 2.94 0 0 1 -1.11-1.13 3.23 3.23 0 0 1 -.4-1.61 3.4 3.4 0 0 1 .21-1.22 2.51 2.51 0 0 1 .63-1l.29.27a2.58 2.58 0 0 0 -.72 1.88 2.74 2.74 0 0 0 .35 1.39 2.54 2.54 0 0 0 1 1 2.86 2.86 0 0 0 2.74 0 2.63 2.63 0 0 0 1-1 2.84 2.84 0 0 0 .35-1.39 2.57 2.57 0 0 0 -.74-1.88l.29-.27a2.62 2.62 0 0 1 .64 1 3.43 3.43 0 0 1 .21 1.22 3.23 3.23 0 0 1 -.47 1.61z"/><path d="m22.46 98.46a2.53 2.53 0 0 1 -.59 1l-.33-.2a2.5 2.5 0 0 0 .55-.87 3.17 3.17 0 0 0 .21-1.15 2.16 2.16 0 0 0 -.3-1.36 1 1 0 0 0 -.86-.45.88.88 0 0 0 -.65.24 1.54 1.54 0 0 0 -.38.58 7.13 7.13 0 0 0 -.27.94 10 10 0 0 1 -.32 1.08 1.87 1.87 0 0 1 -.52.73 1.29 1.29 0 0 1 -.88.28 1.5 1.5 0 0 1 -.81-.23 1.58 1.58 0 0 1 -.59-.72 2.91 2.91 0 0 1 -.22-1.21 3.3 3.3 0 0 1 .15-1 2.91 2.91 0 0 1 .4-.85l.36.17a2.83 2.83 0 0 0 -.39.8 3 3 0 0 0 -.13.87 2 2 0 0 0 .34 1.28 1.08 1.08 0 0 0 .88.44.88.88 0 0 0 .65-.24 1.54 1.54 0 0 0 .38-.58 9.05 9.05 0 0 0 .28-1 9.13 9.13 0 0 1 .33-1.01 1.73 1.73 0 0 1 .47-.69 1.25 1.25 0 0 1 .86-.28 1.43 1.43 0 0 1 .81.24 1.62 1.62 0 0 1 .59.73 3.17 3.17 0 0 1 .21 1.22 3.42 3.42 0 0 1 -.23 1.24z"/><path d="m20.55 91.73h2.1v.44h-2.1l-4 2.46v-.49l3.59-2.2-3.59-2.2v-.47z"/><path d="m22.46 88a2.45 2.45 0 0 1 -.59 1l-.33-.2a2.5 2.5 0 0 0 .55-.87 3.17 3.17 0 0 0 .21-1.15 2.16 2.16 0 0 0 -.3-1.39 1 1 0 0 0 -.86-.45.88.88 0 0 0 -.65.24 1.54 1.54 0 0 0 -.38.58 7.61 7.61 0 0 0 -.27.94 10 10 0 0 1 -.32 1.08 1.87 1.87 0 0 1 -.48.69 1.29 1.29 0 0 1 -.88.28 1.5 1.5 0 0 1 -.81-.23 1.58 1.58 0 0 1 -.59-.72 2.91 2.91 0 0 1 -.22-1.21 3.3 3.3 0 0 1 .15-1 2.91 2.91 0 0 1 .4-.85l.36.17a2.83 2.83 0 0 0 -.39.8 3 3 0 0 0 -.13.87 2 2 0 0 0 .34 1.28 1.08 1.08 0 0 0 .88.44.88.88 0 0 0 .65-.24 1.54 1.54 0 0 0 .38-.58 8.37 8.37 0 0 0 .28-.95 9.13 9.13 0 0 1 .32-1.07 1.73 1.73 0 0 1 .47-.69 1.25 1.25 0 0 1 .86-.28 1.43 1.43 0 0 1 .81.24 1.6 1.6 0 0 1 .59.74 3.09 3.09 0 0 1 .21 1.21 3.42 3.42 0 0 1 -.26 1.32z"/><path d="m17 81.91v2.2h-.4v-4.84h.4v2.2h5.7v.44z"/><path d="m22.29 77.29a2.9 2.9 0 0 1 -1.11 1.14 3 3 0 0 1 -1.58.42 3 3 0 0 1 -1.6-.42 2.86 2.86 0 0 1 -1.12-1.14 3.24 3.24 0 0 1 -.4-1.62 3.3 3.3 0 0 1 .4-1.62 2.94 2.94 0 0 1 1.12-1.13 3.2 3.2 0 0 1 3.17 0 2.85 2.85 0 0 1 1.1 1.13 3.3 3.3 0 0 1 .4 1.62 3.24 3.24 0 0 1 -.38 1.62zm-.35-3a2.68 2.68 0 0 0 -1-1 2.86 2.86 0 0 0 -2.74 0 2.58 2.58 0 0 0 -1 1 2.92 2.92 0 0 0 0 2.77 2.45 2.45 0 0 0 1 1 2.79 2.79 0 0 0 2.8-.06 2.54 2.54 0 0 0 1-1 2.92 2.92 0 0 0 0-2.77z"/><path d="m16.55 71v-.44h5.7v-3.56h.4v4z"/><path d="m16.55 65.86v-.44h6.1v.44z"/><path d="m22.29 62.33a2.85 2.85 0 0 1 -1.1 1.13 3.2 3.2 0 0 1 -3.17 0 2.94 2.94 0 0 1 -1.11-1.13 3.23 3.23 0 0 1 -.4-1.61 3.4 3.4 0 0 1 .21-1.22 2.51 2.51 0 0 1 .63-1l.29.27a2.58 2.58 0 0 0 -.72 1.88 2.74 2.74 0 0 0 .35 1.39 2.54 2.54 0 0 0 1 1 2.86 2.86 0 0 0 2.74 0 2.63 2.63 0 0 0 1-1 2.84 2.84 0 0 0 .35-1.39 2.57 2.57 0 0 0 -.74-1.88l.29-.27a2.62 2.62 0 0 1 .64 1 3.43 3.43 0 0 1 .21 1.22 3.23 3.23 0 0 1 -.47 1.61z"/></g></svg>