<svg viewBox="0 0 85.45 266.75" xmlns="http://www.w3.org/2000/svg"><path d="m47.38 266.75h-9.24c-1.41 0-2.7-1.59-3.32-4.11l-1.2-4.82a14.19 14.19 0 0 1 -.38-3.79l2.35-65.53c.14-3.86 1.75-6.85 3.7-6.85h6.87c2 0 3.57 3 3.7 6.85l2.35 66.09a13.84 13.84 0 0 1 -.42 4l-1.13 4.26c-.66 2.38-1.9 3.9-3.28 3.9z" fill="#f2f2f2"/><rect fill="#bababa" height="2.33" rx=".91" width="6.48" x="39.48" y="257.34"/><path d="m43.17 215.69c-16.77 0-30.76-15.21-33.13-34.86-.7-5.8-1.54-11.57-2.73-17.25l-3.54-16.9a179.54 179.54 0 0 1 -.86-68.8l5.3-29c.79-4.26 1.29-8.56 1.71-12.88 1.94-20.19 16.15-36 33.25-36 17.22 0 31.51 16 33.29 36.45.38 4.39.89 8.76 1.58 13.1l5.19 32.62a179.57 179.57 0 0 1 -.67 60.31l-4.44 24.34c-.77 4.24-1.29 8.54-1.7 12.85-1.95 20.21-16.16 36.02-33.25 36.02z" fill="#efefef"/><path d="m23.4 103.36 1.06 1.17-1.52 9.15-.71.43-1.36-1.65 1.38-8.06zm2.22-11.36.59.7-1.4 8.89-1.29 1.05-.93-1.05 1.13-8.1zm5.83 11.24.94 1.17-1.22 8-1.94 1.59-.47-.71 1.52-9.23zm.05 9.45h9.13l1.37 1.77-.93.59h-10.91l-.58-.7zm1.12-20.88 1.38 1.75-1.4 8.18-1.09.84-1-1.19 1.49-9.11zm1.17-.7h11l.68.68-1.95 1.54h-9.25l-1.27-1.75zm9.68 12.25 1.05 1.17-1.52 9.15-.7.43-1.37-1.65 1.39-8.06zm2.22-11.36.58.7-1.4 8.89-1.28 1.05-.94-1.05 1.14-8.1zm5.83 11.24.93 1.17-1.22 8-1.93 1.59-.47-.71 1.52-9.23zm0 9.45h9.13l1.35 1.77-.94.59h-10.83l-.58-.7zm1.12-20.88 1.4 1.75-1.4 8.18-1.09.84-1-1.19 1.52-9.11zm.46 10h9.27l1 1.1-1.32 1.22h-9.13l-1.17-1.27zm10.39 1.5 1.05 1.17-1.52 9.15-.7.43-1.32-1.6 1.38-8.06zm-21.28 16.9a1.5 1.5 0 0 1 .37 1.11v2h-.58v-1.9a1.1 1.1 0 0 0 -.22-.75.9.9 0 0 0 -.66-.25 1 1 0 0 0 -.75.3 1.18 1.18 0 0 0 -.28.84v1.76h-.62v-1.9a1.1 1.1 0 0 0 -.22-.75.9.9 0 0 0 -.66-.25 1 1 0 0 0 -.75.3 1.18 1.18 0 0 0 -.28.84v1.76h-.66v-3.42h.6v.51a1.13 1.13 0 0 1 .5-.41 1.52 1.52 0 0 1 .69-.14 1.49 1.49 0 0 1 .71.16 1.14 1.14 0 0 1 .48.47 1.38 1.38 0 0 1 .54-.47 1.74 1.74 0 0 1 .77-.16 1.42 1.42 0 0 1 1.02.35zm4.79-.34v2.95a1.77 1.77 0 0 1 -.45 1.33 1.82 1.82 0 0 1 -1.33.43 3.1 3.1 0 0 1 -.92-.13 1.92 1.92 0 0 1 -.71-.38l.3-.48a1.68 1.68 0 0 0 .59.33 2.18 2.18 0 0 0 .72.12 1.22 1.22 0 0 0 .89-.29 1.16 1.16 0 0 0 .29-.86v-.27a1.52 1.52 0 0 1 -.54.4 1.93 1.93 0 0 1 -.69.13 1.86 1.86 0 0 1 -.89-.21 1.53 1.53 0 0 1 -.62-.59 1.72 1.72 0 0 1 0-1.72 1.53 1.53 0 0 1 .62-.59 2 2 0 0 1 .89-.2 1.78 1.78 0 0 1 .72.14 1.24 1.24 0 0 1 .54.42v-.53zm-1.18 2.59a1 1 0 0 0 .42-.39 1.14 1.14 0 0 0 .15-.58 1 1 0 0 0 -.33-.8 1.16 1.16 0 0 0 -.84-.31 1.2 1.2 0 0 0 -.86.31 1.06 1.06 0 0 0 -.32.8 1.14 1.14 0 0 0 .15.58 1 1 0 0 0 .42.39 1.3 1.3 0 0 0 1.21 0z" fill="#84c3f0"/><path d="m10.07 167.61-3.53-16.89a179.54 179.54 0 0 1 -.87-68.8l5.3-29c.78-4.24 1.29-8.53 1.71-12.84 1.94-20.23 16.15-36.08 33.25-36.08 9.53 0 18.16 5 24.27 12.8-6.11-10.16-15.96-16.8-27.03-16.8-17.1 0-31.31 15.81-33.25 36-.42 4.3-.94 8.6-1.71 12.83l-5.3 29a179.54 179.54 0 0 0 .86 68.8l3.54 16.9c1.19 5.68 2 11.45 2.73 17.25a44.77 44.77 0 0 0 8.84 22.08 46 46 0 0 1 -6.08-18c-.69-5.79-1.54-11.57-2.73-17.25z" fill="#efefef"/><path d="m83.23 82.17-5.23-32.62c-.69-4.34-1.2-8.71-1.58-13.1a44.38 44.38 0 0 0 -10.8-25.81 45.21 45.21 0 0 1 8.59 23.12c.38 4.39.89 8.76 1.58 13.1l5.21 32.62a179.57 179.57 0 0 1 -.67 60.31l-4.44 24.34c-.77 4.24-1.29 8.54-1.7 12.85-1.93 20.21-16.14 36.02-33.19 36.02-8.65 0-16.56-4.06-22.52-10.67 6.14 8.19 15 13.36 24.73 13.36 17.09 0 31.3-15.81 33.25-36 .41-4.31.93-8.61 1.7-12.85l4.44-24.34a179.57 179.57 0 0 0 .63-60.33z" fill="#fafafa"/><path d="m36.59 246.03h12.27" fill="none" stroke="#c1c1c1" stroke-linecap="round" stroke-linejoin="round" stroke-width=".29"/></svg>