<svg viewBox="0 0 184.2 152.54" xmlns="http://www.w3.org/2000/svg"><path d="m182.79 70.06c.06-1-6.54-14.71-6.54-14.71-.12-.26-.26-.52-.39-.79l-.14-.27c-2.28-4.12-6.21-8-11.83-11.25-18.89-10.93-49.76-10.93-68.63-.04l-82.26 47.69c-4.44 2.57-7.21 5.47-8.65 8.54s-15.35 28.65 11.73 43.13q1.45 1 3.09 2c9.41 5.45 21.8 8.18 34.2 8.2 12.47 0 25-2.72 34.41-8.2l82.25-47.65c12.42-7.21 16.67-17.4 12.76-26.65z" fill="#e1e1e1"/><path d="m53.39 148c-12.18 0-23.52-2.71-31.94-7.59-.93-.54-1.86-1.13-2.76-1.76l-.65-.46-.26-.07c-9.18-5-13.62-12.53-13.21-22.24a38.32 38.32 0 0 1 2.92-12.59l1-2.11c1.09-2.35 3.38-4.54 6.8-6.52l82.24-47.66c8.45-4.9 19.83-7.59 32-7.59s23.59 2.69 32 7.59c4.69 2.72 8.19 6 10.12 9.51l.15.27c.1.18.19.37.28.55l6.45 14.52c3.11 7.36-.94 15.17-10.83 20.9l-82.17 47.64c-8.44 4.89-19.82 7.59-32 7.59z" fill="#d8d8d8"/><path d="m50.18 127.4c-7.72 0-15.57-2.28-23.34-6.78-9.31-5.39-15.34-12.23-15.34-17.42 0-3 2.12-5.79 6.31-8.22l68.48-39.68c7.03-4.07 16.51-6.3 26.71-6.3s-17.81 40.42-10.77 44.5c3.9 2.26-28.62 30.61-52.05 33.9z" fill="#fafafa" fill-opacity=".55"/><path d="m50.05 125.58c-7.36 0-14.86-2.22-22.3-6.54-8.63-5-14.43-11.36-14.43-15.84 0-2.33 1.82-4.56 5.39-6.64l68.49-39.68c6.8-3.88 15.91-6.07 25.8-6.07a1.08 1.08 0 0 1 .34 0c1.29 1.72-3.69 12.65-6.67 19.18-5.9 12.94-9.45 21.31-6.07 24.49-2.6 5.31-29.53 28.07-50.55 31.1z" fill="#c9c8c6"/><path d="m49.74 121a40.47 40.47 0 0 1 -19.74-5.9c-8.59-5-12.16-10.21-12.16-11.9s.31-1.06 3.13-2.69l68.5-39.68a44.4 44.4 0 0 1 18.4-5.25c-1.5 4.06-4.15 9.87-5.37 12.55-5.18 11.37-9.2 20.18-7.34 26.09-5.76 6.31-27.72 24.07-45.42 26.78z" fill="#575c63"/><path d="m175.69 30.81a34.71 34.71 0 0 0 -9.1-7.35c-18.87-10.93-49.75-10.93-68.62 0l-82.24 47.65a48 48 0 0 0 -6.14 4.16l-8 .46.91 10.91a1.49 1.49 0 0 0 0 .21 11 11 0 0 0 .22 2.28c1.09 5.21 6.17 10.4 14.89 15.45 18.87 10.93 47.91 17.22 66.78 6.29l82.24-47.65c9.21-5.34 14.15-34.5 14.15-34.5z" fill="#bababa"/><path d="m166.59 48-82.24 47.61c-18.87 10.93-49.75 10.93-68.62 0s-18.87-28.83 0-39.76l82.27-47.65c18.87-10.93 49.75-10.93 68.62 0s18.84 28.8-.03 39.8z" fill="#efefef"/><path d="m43.74 59.53.92-.54a2.31 2.31 0 0 0 2.25-.18c.84-.48.92-1 .33-1.31s-1.37-.06-2.22.29c-1.1.44-2.35 1-3.7.18-1.09-.63-1-1.54.24-2.27a4.11 4.11 0 0 1 3.87-.18l-.89.52a2.22 2.22 0 0 0 -2.1.15c-.77.44-.8.92-.25 1.24s1.38 0 2.23-.29c1.11-.46 2.36-1 3.71-.19 1.14.66 1 1.58-.36 2.36a4.16 4.16 0 0 1 -4 .22m4.64-3.3c-1.47-.86-1.41-2 0-2.8a5.06 5.06 0 0 1 4.85 0c1.5.87 1.24 2 .06 2.69a4 4 0 0 1 -2.6.45l2.73 1.58-.87.5zm3.94-2.33a3.25 3.25 0 0 0 -3.13 0c-.93.54-.89 1.28 0 1.81a3.26 3.26 0 0 0 3.12 0c.94-.54.9-1.29 0-1.82m.73-1.25c-1.8-1-1.8-2.57.07-3.65a6.62 6.62 0 0 1 6.29 0c1.8 1 1.8 2.56-.07 3.65a6.62 6.62 0 0 1 -6.29 0m5.42-3.15a4.71 4.71 0 0 0 -4.49 0c-1.33.77-1.29 1.85 0 2.6a4.71 4.71 0 0 0 4.49 0c1.33-.77 1.29-1.85 0-2.61m4.04.52v-1.51a.69.69 0 0 0 -.35-.71 1.13 1.13 0 0 0 -1.15 0c-.36.2-.34.46 0 .68l.1.05-.65.37h-.07c-.76-.44-.78-1 0-1.42a2.5 2.5 0 0 1 2.43 0 1 1 0 0 1 .55 1.05l-.06 1 1.5-.87.59.34-2.33 1.32zm-1.11-4.17c-.77-.45-.79-1.18 0-1.63a3.1 3.1 0 0 1 2.83 0 .87.87 0 0 1 0 1.64 3.07 3.07 0 0 1 -2.83 0m2.23-1.28a1.78 1.78 0 0 0 -1.65 0c-.46.26-.44.68 0 1a1.78 1.78 0 0 0 1.65 0c.45-.26.43-.69 0-1m.89-2 .67-.39 2.19 5.63-.67.39zm3.16 3.59a.87.87 0 0 1 0-1.64 3.15 3.15 0 0 1 2.82 0c.78.46.8 1.19 0 1.65a3.15 3.15 0 0 1 -2.85 0m2.23-1.29a1.8 1.8 0 0 0 -1.63 0c-.46.27-.44.69 0 .95a1.81 1.81 0 0 0 1.65 0c.46-.27.44-.69 0-1m10.53-11.06 2.55-1.45a4 4 0 0 1 4.15-.12c1.13.66 1.31 1.53-.2 2.41l-1.58.91 2 1.18-.93.54zm5.61.33c.89-.52.74-1 .1-1.36a2.23 2.23 0 0 0 -2.33.07l-1.59.92 2.22 1.28zm-.13-3.51 2.58-1.49a3.92 3.92 0 0 1 4-.11c.9.52 1.18 1.18.48 1.86l3.8.37-1.11.65-3.57-.42-1.43.83 2.14 1.24-.93.54zm5.57.24c.87-.51.7-.94.1-1.29a2.09 2.09 0 0 0 -2.23.06l-1.64.95 2.12 1.23zm3.69-1.33-4.19-2.43.87-.5 2.77 1.6c-.25-.53 0-1.08.77-1.5a4.91 4.91 0 0 1 4.65 0c1.42.82 1.4 2 0 2.81a5 5 0 0 1 -4.82 0m4-2.28a3.25 3.25 0 0 0 -3.13 0c-.93.54-.89 1.28 0 1.81a3.26 3.26 0 0 0 3.12 0c.93-.54.89-1.29 0-1.82m1.59-.87c-1.47-.85-1.4-2 0-2.79a5.06 5.06 0 0 1 4.85 0c1.51.87 1.24 2 .06 2.69a4 4 0 0 1 -2.6.45l2.73 1.58-.87.5zm3.94-2.31a3.25 3.25 0 0 0 -3.13 0c-.93.54-.89 1.28 0 1.81a3.26 3.26 0 0 0 3.12 0c.93-.54.89-1.29 0-1.82m1.25-1.12c-1.38-.81-1.22-1.64-.15-2.26a3.7 3.7 0 0 1 2.48-.4c-.27-.52 0-1 .7-1.44a3.82 3.82 0 0 1 3.89.09l2.62 1.51-.87.51-2.67-1.52a2.24 2.24 0 0 0 -2.3-.08c-.61.36-.68.85.15 1.33l2.62 1.51-.87.51-2.6-1.52a2.29 2.29 0 0 0 -2.3-.08c-.63.37-.7.84.14 1.33l2.62 1.52-.87.5zm-36.17 56.94 8.39-4.81 2.78.2-.32.81-9.95 5.76-1.18-.06zm-18.13-11.69 2.89.19 6.22 5.09-.23 1-2-.09-7-5.65zm9.64 5.09 8.5-4.92h1.93l-.09 1.35-8.42 4.88h-2.24zm-9.21-6.08 10.06-5.83h1.25l-.38 1.86-8.45 4.89-2.8-.24zm20.11 1.37 2 .06 7 5.67-.25.6-2.77-.15-6.12-5zm-8.34-7.2 1.18.06 6.86 5.47-.22 1.24-1.82-.07-6.38-4.9zm6.16-3.81 2.89.18 6.21 5.1-.22 1-2-.09-7-5.65zm.42-1 10.06-5.82h1.26l-.39 1.85-8.41 4.9-2.8-.24zm20.12 1.37 2 .06 7 5.67-.24.6-2.74-.19-6.13-5zm-8.34-7.19 1.18.06 6.86 5.46-.22 1.24-1.82-.06-6.38-4.9zm20.49-12.06 2.89.19 6.21 5.09-.22 1-2-.09-7-5.65zm.42-1 10.06-5.83h1.26l-.38 1.85-8.46 4.9-2.8-.24zm20.12 1.39 2 .06 7 5.67-.24.61-2.77-.16-6.13-5zm-8.29-7.21 1.18.06 6.82 5.46-.22 1.25-1.78-.07-6.38-4.9zm15.56 2.85 1.93.13 6.27 4.92-.37 1.85-1.07-.13-7.08-5.71zm8.72 5 8.39-4.85 2.81.24-.32.8-9.95 5.77-1.21-.06zm-18.13-11.64 2.89.18 6.22 5.1-.23 1-2-.09-7-5.65zm9.64 5 8.5-4.92 1.93.05-.09 1.35-8.42 4.88-2.24-.06zm-9.21-6 10.06-5.82h1.25l-.38 1.82-8.45 4.9-2.8-.24zm20.11 1.37 2 .06 7 5.67-.25.6-2.77-.15-6.12-5zm-8.34-7.19 1.18.06 6.86 5.46-.22 1.24-1.82-.06-6.35-4.95z" fill="#4db6ac"/><path d="m41.58 80.63c4.53 2.62 4.53 6.87 0 9.49s-11.86 2.63-16.39 0-4.52-6.87 0-9.49 11.87-2.62 16.39 0" fill="#efefef"/><path d="m41.58 80.63c-4.52-2.63-11.87-2.63-16.39 0s-4.52 6.87 0 9.49 11.87 2.62 16.39 0 4.52-6.87 0-9.49z" fill="none" stroke="#b0b0b0" stroke-miterlimit="10" stroke-width=".38"/><g fill="#fafafa"><path d="m40.76 81.15a16.31 16.31 0 0 0 -14.75 0c-4.01 2.36-4.01 6.19-.01 8.55a16.31 16.31 0 0 0 14.75 0c4.08-2.36 4.08-6.19.01-8.55zm-.82 7.13a13.52 13.52 0 0 1 -6.55 1.54 13.56 13.56 0 0 1 -6.56-1.54c-1.42-.83-2.23-1.87-2.23-2.86s.81-2 2.23-2.85a13.56 13.56 0 0 1 6.56-1.57 13.55 13.55 0 0 1 6.55 1.54c1.42.83 2.24 1.87 2.24 2.86s-.82 2.05-2.24 2.88z"/><path d="m22.22 55.85 82.24-47.65c8.61-5 19.73-7.7 31.06-8.13-13.52-.52-27.29 2.19-37.52 8.13l-82.27 47.65c-18.87 10.93-18.87 28.82 0 39.76 10.25 5.94 24.05 8.65 37.55 8.13-11.28-.44-22.45-3.14-31.06-8.13-18.87-10.94-18.87-28.83 0-39.76z"/></g></svg>