<svg viewBox="0 0 256 256" xmlns="http://www.w3.org/2000/svg" xmlns:xlink="http://www.w3.org/1999/xlink"><linearGradient id="a" gradientTransform="matrix(5.57 0 0 -11.27 -900.21 26764.16)" gradientUnits="userSpaceOnUse" x1="182.88" x2="182.88" y1="2377.3" y2="2345.51"><stop offset=".18" stop-color="#92e0d2"/><stop offset="1" stop-color="#0a97b7"/></linearGradient><linearGradient id="b" gradientTransform="matrix(5.15 0 0 -11.27 -805.25 26764.3)" x1="166.63" x2="166.63" xlink:href="#a" y1="2377.3" y2="2345.51"/><linearGradient id="c" gradientTransform="matrix(23.3 0 0 -22 -5445.08 51598.59)" gradientUnits="userSpaceOnUse" x1="239.81" x2="239.81" y1="2344.07" y2="2333.77"><stop offset="0" stop-color="#31c4c3"/><stop offset=".18" stop-color="#92e0d2"/><stop offset="1" stop-color="#bdefeb"/></linearGradient><path d="m198.78 191.55a24.23 24.23 0 1 0 24.22 24.23 24.22 24.22 0 0 0 -24.22-24.23zm0 42.59a18.39 18.39 0 1 1 18.38-18.39 18.4 18.4 0 0 1 -18.38 18.39z" fill="#0a97b7"/><path d="m198.8 209a6.76 6.76 0 1 0 6.75 6.76 6.76 6.76 0 0 0 -6.75-6.76z" fill="#0a97b7"/><path d="m133.46 28.57a14 14 0 0 0 -13.91-13.95h-8.71a8.72 8.72 0 1 0 0 17.44h5.16v46h17.43z" fill="url(#a)"/><path d="m56.05 32.07h2.87a8.72 8.72 0 0 0 0-17.44h-6.35a14 14 0 0 0 -13.94 13.95v49.53h17.42z" fill="url(#b)"/><path d="m110.23 83a3.33 3.33 0 0 1 0 .63z" fill="#31c4c3"/><path d="m136.36 78.1h-23.23a2.91 2.91 0 0 0 -2.91 2.9v2.58a24.65 24.65 0 0 1 -23.47 24.19h-.75a24.22 24.22 0 0 1 -24.17-24.21v-2.56a2.91 2.91 0 0 0 -2.91-2.91h-23.2a2.91 2.91 0 0 0 -2.91 2.91v2.9a53.34 53.34 0 0 0 38.62 50.88v12.45a2.91 2.91 0 0 0 2.91 2.9h23.24a2.9 2.9 0 0 0 2.9-2.9v-12.4a53.33 53.33 0 0 0 38.77-50.93v-2.9a2.91 2.91 0 0 0 -2.89-2.9z" fill="#0a97b7"/><path d="m207.49 147.43a31.6 31.6 0 1 0 -63.2 0v49 .57a25.28 25.28 0 0 1 -50.55 0v-43.84a2.9 2.9 0 0 0 -2.9-2.9h-11.62a2.9 2.9 0 0 0 -2.9 2.9v44.2.21a42.69 42.69 0 1 0 85.38-1.1v-49.05a14.18 14.18 0 0 1 28.36 0v32.58a2.9 2.9 0 0 0 2.9 2.91h11.62a2.9 2.9 0 0 0 2.9-2.91v-32.58z" fill="url(#c)"/></svg>