<svg viewBox="0 0 256 256" xmlns="http://www.w3.org/2000/svg"><g fill="#fff"><path d="m198.45 191.85a24.08 24.08 0 1 0 24.06 24.07 24.07 24.07 0 0 0 -24.06-24.07zm0 42.33a18.28 18.28 0 1 1 18.26-18.28 18.3 18.3 0 0 1 -18.26 18.28z"/><path d="m198.46 209.18a6.72 6.72 0 1 0 6.71 6.72 6.72 6.72 0 0 0 -6.71-6.72z"/><path d="m133.52 29.86a13.9 13.9 0 0 0 -13.82-13.86h-8.7a8.67 8.67 0 0 0 0 17.33h5.17v45.76h17.32z"/><path d="m56.59 33.34h2.85a8.67 8.67 0 0 0 0-17.33h-6.31a13.9 13.9 0 0 0 -13.86 13.86v49.24h17.32z"/><path d="m110.43 83.93a4.36 4.36 0 0 1 0 .62z"/><path d="m136.41 79.09h-23.09a2.89 2.89 0 0 0 -2.89 2.91v2.57a24.5 24.5 0 0 1 -23.33 24h-.68a24.07 24.07 0 0 1 -24.09-24.06v-2.51a2.89 2.89 0 0 0 -2.89-2.89h-23.06a2.89 2.89 0 0 0 -2.89 2.89v2.89a53 53 0 0 0 38.39 50.51v12.38a2.88 2.88 0 0 0 2.89 2.88h23.09a2.89 2.89 0 0 0 2.89-2.88v-12.32a53 53 0 0 0 38.53-50.61v-2.85a2.89 2.89 0 0 0 -2.87-2.91z"/><path d="m207.1 148a31.41 31.41 0 1 0 -62.82 0v48.75.56a25.12 25.12 0 0 1 -50.23 0v-43.62a2.89 2.89 0 0 0 -2.89-2.89h-11.54a2.89 2.89 0 0 0 -2.89 2.89v43.93.21a42.43 42.43 0 1 0 84.86-1.09v-48.74a14.09 14.09 0 0 1 28.18 0v32.35a2.9 2.9 0 0 0 2.89 2.89h11.55a2.89 2.89 0 0 0 2.88-2.89v-32.35z"/></g></svg>