<svg viewBox="0 0 256 256" xmlns="http://www.w3.org/2000/svg" xmlns:xlink="http://www.w3.org/1999/xlink"><clipPath id="a"><path d="m104.71 83.05s11.1-18.28 36-13a35.17 35.17 0 0 0 9.15.74l5.48-.3a16.9 16.9 0 0 1 -6.42 13.27c-3.64 2.86-8.46 5.65-13.49 5.73a48.07 48.07 0 0 1 -30.72-6.44z"/></clipPath><path d="m44.7 229.07.57.48-.59-.5z" fill="none"/><path d="m45.34 229.6.47.35z" fill="none"/><path d="m152.12 203.11c-1.74-1.44-4.27-2.15-7.6-2.15h-8.77v27.46h5.82v-9.77h2.5q5.1 0 7.88-2.35a8.4 8.4 0 0 0 2.77-6.78q0-4.26-2.6-6.41zm-4.62 9.71a6.32 6.32 0 0 1 -4 1.06h-1.92v-8.15h2.65a5.23 5.23 0 0 1 3.5 1 3.81 3.81 0 0 1 1.12 3 3.72 3.72 0 0 1 -1.35 3.09z" fill="none"/><path d="m168.53 201h-8.63v27.46h7.78q7.29 0 11.15-3.61t3.86-10.38q0-6.37-3.72-9.92t-10.44-3.55zm-.3 22.65h-2.5v-17.92h3.1q7.81 0 7.81 8.85 0 9.03-8.41 9.03z" fill="none"/><path d="m188.38 228.42h5.73v-10.86h9.32v-4.75h-9.32v-7.08h10.02v-4.77h-15.75z" fill="none"/><path d="m45.27 229.55-.57-.48" fill="none"/><path d="m206.16 183.18v-131h-16.42a12.38 12.38 0 0 1 -12.39-12.39v-23.79h-124.44a12.39 12.39 0 0 0 -12.39 12.39v191.42a12.25 12.25 0 0 0 1.4 5.69 12.32 12.32 0 0 0 5.68 1.39h70.59v-33.09a10.63 10.63 0 0 1 10.63-10.62z" fill="#e1f5fe"/><path d="m189.74 52.13h21.73l-34.12-36.13v23.74a12.38 12.38 0 0 0 12.39 12.39z" fill="#b3e5fc"/><path d="m45.81 230-.47-.35" fill="none"/><path d="m208.63 183.19h.37a2.45 2.45 0 0 0 2.47-2.46v-.38a2.84 2.84 0 0 1 -2.84 2.84z" fill="#e1f5fe"/><path d="m206.16 183.18h2.47a2.84 2.84 0 0 0 2.84-2.84v-128.21h-5.31z" fill="#e1f5fe"/><path d="m206.16 183.18h2.47a2.84 2.84 0 0 0 2.84-2.84v-128.21h-5.31z" fill="#e1f5fe"/><path d="m45.34 229.6c-.23-.18-.46-.37-.67-.56l-.32-.29.32.29.59.5h.07l.47.35z" fill="#e1f5fe"/><path d="m41.92 225.5c.11.2.22.4.34.6l.16.26c.12.19.24.38.37.57a13 13 0 0 0 .86 1.07 3.45 3.45 0 0 0 .26.28 5.66 5.66 0 0 0 .42.43l.32.29c.21.19.44.38.67.56l.47.35.4.27.54.33.34.2c.29.15.58.29.88.42l.33.14.73.26.31.1q.49.15 1 .27h.22a8.46 8.46 0 0 0 .9.14h.3a10.69 10.69 0 0 0 1.13.06h60a5.31 5.31 0 0 0 5.31-5.31h-70.58a12.32 12.32 0 0 1 -5.68-1.29z" fill="#e1f5fe"/><path d="m41.92 225.5c.11.2.22.4.34.6l.16.26c.12.19.24.38.37.57a13 13 0 0 0 .86 1.07 3.45 3.45 0 0 0 .26.28 5.66 5.66 0 0 0 .42.43l.32.29c.21.19.44.38.67.56l.47.35.4.27.54.33.34.2c.29.15.58.29.88.42l.33.14.73.26.31.1q.49.15 1 .27h.22a8.46 8.46 0 0 0 .9.14h.3a10.69 10.69 0 0 0 1.13.06h60a5.31 5.31 0 0 0 5.31-5.31h-70.58a12.32 12.32 0 0 1 -5.68-1.29z" fill="#e1f5fe"/><path d="m204.86 189.38h-69.86a10.62 10.62 0 0 0 -10.61 10.62v29.38a10.63 10.63 0 0 0 10.61 10.62h69.85a10.63 10.63 0 0 0 10.62-10.62v-29.38a10.62 10.62 0 0 0 -10.61-10.62zm-52.86 26.92q-2.77 2.35-7.88 2.35h-2.5v9.77h-5.82v-27.42h8.77c3.33 0 5.86.71 7.6 2.15s2.6 3.57 2.6 6.41a8.4 8.4 0 0 1 -2.77 6.74zm26.88 8.51q-3.86 3.62-11.15 3.61h-7.83v-27.42h8.63q6.72 0 10.44 3.55t3.72 9.92q0 6.74-3.86 10.34zm25.3-19.08h-10v7.08h9.32v4.75h-9.32v10.86h-5.73v-27.42h15.75z" fill="#ef8db6"/><path d="m144.22 205.73h-2.65v8.15h1.92a6.32 6.32 0 0 0 4-1.06 3.72 3.72 0 0 0 1.34-3.09 3.81 3.81 0 0 0 -1.12-3 5.23 5.23 0 0 0 -3.49-1z" fill="#ef8db6"/><path d="m168.83 205.73h-3.1v17.88h2.5q8.42 0 8.41-9 0-8.88-7.81-8.88z" fill="#ef8db6"/><path d="m156.55 159.54v1.65a27.65 27.65 0 0 1 -7.62 3.44l-.72.22-1.09.3a84.34 84.34 0 0 1 -12.12 2.17l-1 .1-.72.08c-2.48.24-4.68.38-6.33.46h-.43l-2.16.08h-.59c-1.46 0-2.87-.05-4.21-.11-1.9-.07-3.67-.18-5.32-.32l-1.09-.1c-1.94-.18-3.72-.41-5.34-.66-.62-.1-1.22-.2-1.79-.31-9-1.66-12.68-4.3-14.15-5.86a4.41 4.41 0 0 1 -.9-1.24 33.5 33.5 0 0 1 9.11-12.9 35.17 35.17 0 0 1 7.56-5.09l.12-.06a36.37 36.37 0 0 1 29.73-1c.7.28 1.38.59 2.05.91a34.77 34.77 0 0 1 6.8 4.34 33.75 33.75 0 0 1 10.21 13.9z" fill="#92e0d2"/><path d="m148.93 153.74v10.89l-.72.22-1.09.3v-11.41c0-4.57-2.66-8.72-7-11.71a22.94 22.94 0 0 0 -2.73-1.64 30.73 30.73 0 0 0 -14-3.21 29.93 29.93 0 0 0 -15.75 4.21l-.13.09c-4.45 2.82-7.35 6.82-7.72 11.28v1h-1.79c0-.33 0-.65 0-1a14.18 14.18 0 0 1 2-6.19c2.79-4.74 8.26-8.46 15-10.18a3.89 3.89 0 0 1 .49-.12 34 34 0 0 1 7.93-.92c10 0 18.73 4.21 22.88 10.3a14.2 14.2 0 0 1 2.63 8.09z" fill="#26a69a"/><path d="m140.18 142-2.94 14.17-2.28 11v.19l-1.69.12c-1.48.09-3.8.23-6.35.34h-.43l-2.16.07h-.38c-4.5.12-9.07.07-10.85-.52h-.12l-5.42-25.6a1.92 1.92 0 0 1 .19-.38c1.37-2.19 7.58-5.11 7.58-5.11l17.08.53s2.92.22 7.12 4.47z" fill="#84cec0"/><path d="m132.37 136.8a12.67 12.67 0 0 1 -8.11 2.51c-3.82 0-7.12-1.26-8.7-3.1a11.45 11.45 0 0 0 1-2.69 7.14 7.14 0 0 0 .11-2.85h14.15a3.86 3.86 0 0 0 -.05 2.92 13.15 13.15 0 0 0 1.6 3.21z" fill="#fbe9e7"/><path d="m130.73 133.59a15.49 15.49 0 0 1 -14.21-.07 7.14 7.14 0 0 0 .11-2.85h14.15a3.86 3.86 0 0 0 -.05 2.92z" fill="#fbe9e7"/><path d="m101.52 103.29c.15 0-.33-3.15.2-4.63a26.51 26.51 0 0 0 1.56-4.43c.46-2.83-.85-6 .76-8.42s5.47-2.41 7.57-4.53c1.52-1.53 2-4.08 3.94-5a5.32 5.32 0 0 1 3.94.06 18.18 18.18 0 0 0 3.85 1.17c2.62.28 5.2-1.27 7.81-.89a5.39 5.39 0 0 1 3.45 2c1 1.28 1.44 3 2.66 4.1s3.19 1.28 4.63 2.28a5 5 0 0 1 2.15 4.9c-.29 1.77-1.54 3.47-1 5.19a9.18 9.18 0 0 0 1.61 2.48 7.31 7.31 0 0 1 1.33 5l.1.56v.19a8.71 8.71 0 0 1 3.71.27v-.07a28.37 28.37 0 1 0 -52.24.11z" fill="#5d4037"/><path d="m102.94 115.83a6.67 6.67 0 0 1 -1.19.11h-.41c-3.4-.21-6.52-3-6.52-6.43 0-1.62-.09-3.73.9-4.87.84-1 2.59-1.36 4.23-1.5.54 0 1.07-.07 1.55-.07v.23l.87 8.45.19 1.81a11.06 11.06 0 0 0 .38 2.27z" fill="#fbe9e7"/><path d="m152.94 109.5c0 3.56-3.37 6.44-6.92 6.44h-.22a6.46 6.46 0 0 1 -1.32-.18 10.86 10.86 0 0 0 .36-2.72v-.25l.11-.9 1.07-8.82h1.16c1.8.09 3.9.45 4.86 1.54s.9 3.27.9 4.89z" fill="#fbe9e7"/><path d="m97.81 108.62a4.52 4.52 0 0 1 2.82-1 4.57 4.57 0 0 1 4.57 4.56" fill="none" stroke="#ffccbc" stroke-linecap="round" stroke-linejoin="round" stroke-width="1.09"/><path d="m96.53 104a3.61 3.61 0 0 1 2.18 1.23c2.6 2.63 4.57 6.93 4.23 10.61.37-2.27.64-5.23 1-7.5a9.4 9.4 0 0 0 .17-2.48 9.07 9.07 0 0 0 -.83-2.65.94.94 0 0 0 -.28-.42 1 1 0 0 0 -.53-.11 14.66 14.66 0 0 0 -5.36 1z" fill="#fbe9e7"/><path d="m151 104a3.61 3.61 0 0 0 -2.18 1.23c-2.6 2.63-4.57 6.93-4.23 10.61-.37-2.27-.65-5.23-1-7.5a9.85 9.85 0 0 1 -.18-2.48 9.4 9.4 0 0 1 .84-2.65.94.94 0 0 1 .28-.42 1 1 0 0 1 .53-.11 14.66 14.66 0 0 1 5.36 1z" fill="#fbe9e7"/><path d="m150 108.62a4.58 4.58 0 0 0 -7.4 3.59" fill="none" stroke="#ffccbc" stroke-linecap="round" stroke-linejoin="round" stroke-width="1.09"/><path d="m146 103.06-1 8.82a3.89 3.89 0 0 0 -.11.9l-.36 3c-1.43 5.55-6.95 10.44-11.94 13.87a15.54 15.54 0 0 1 -17.68 0c-5-3.41-10.46-8.28-11.92-13.79a11.06 11.06 0 0 1 -.36-2.27c0-.17 0-.35 0-.52v-.1a3.94 3.94 0 0 0 -.18-1.19s-.89-9-1-9.18c-.41-1.23-1.26-16.37.34-18.74s11.83-6.62 13.77-7.56c1.21-.59 13 0 15.6.34a5.39 5.39 0 0 1 3.45 2c1 1.28 8.44 4.73 9.88 5.68s1.63 16.48 1.45 18.23z" fill="#fbe9e7"/><g fill="none"><path d="m144.84 112.78v.22a10.86 10.86 0 0 1 -.36 2.72z" stroke="#fbe9e7" stroke-miterlimit="10" stroke-width=".36"/><path d="m102.58 113.55-.19-1.81a3.94 3.94 0 0 1 .18 1.19v.1c0 .17 0 .35.01.52z" stroke="#fbe9e7" stroke-miterlimit="10" stroke-width=".36"/><path d="m144.48 115.75.36-3v.25a10.86 10.86 0 0 1 -.36 2.72z" stroke="#fbe9e7" stroke-miterlimit="10" stroke-width=".36"/><path d="m145 111.88-.11.9a3.89 3.89 0 0 1 .11-.9z" stroke="#fbe9e7" stroke-miterlimit="10" stroke-width=".36"/><path d="m102.58 113.55-.19-1.81a3.94 3.94 0 0 1 .18 1.19v.1c0 .17 0 .35.01.52z" stroke="#fbe9e7" stroke-miterlimit="10" stroke-width=".36"/><path d="m145 111.88-.11.9a3.89 3.89 0 0 1 .11-.9z" stroke="#fbe9e7" stroke-miterlimit="10" stroke-width=".36"/><path d="m126.1 111.36c0 .94-1.1 1.71-2.47 1.71s-2.47-.77-2.47-1.71" stroke="#ffccbc" stroke-linecap="round" stroke-linejoin="round" stroke-width="1.09"/><path d="m127.89 118.33a5.67 5.67 0 0 1 -4.26 1.47 5.74 5.74 0 0 1 -4.26-1.46" stroke="#ffccbc" stroke-linecap="round" stroke-linejoin="round" stroke-width="1.09"/></g><ellipse cx="112.74" cy="103.63" fill="#4e342e" rx="1.75" ry="2.26"/><ellipse cx="134.68" cy="103.63" fill="#4e342e" rx="1.75" ry="2.26"/><path d="m104.61 97.62a13.18 13.18 0 0 1 14-1.07 1.21 1.21 0 0 1 .48 1.63 1.2 1.2 0 0 1 -1.63.47l-.1-.06a11.44 11.44 0 0 0 -12.12-.09.54.54 0 0 1 -.62-.89z" fill="#8d6e63"/><path d="m141.47 99a11.48 11.48 0 0 0 -12.16-.68 1.18 1.18 0 1 1 -1.2-2h.09a13.24 13.24 0 0 1 13.94 1.92.53.53 0 0 1 0 .76.54.54 0 0 1 -.67 0z" fill="#8d6e63"/><path d="m101.5 103.06-4.38.66s-8.64-32.91 7.59-31.6l.49 10.71s-6.32 3.7-3.7 20.23z" fill="#6d4c41"/><path d="m124.19 64.08s-14.59.21-21.25 8l1.77 11a48.41 48.41 0 0 0 19 6.39s12 2.53 22.86-4a17.71 17.71 0 0 0 8.71-14.94l-10.59.59s-10.29-7.12-20.5-7.04z" fill="#6d4c41"/><path d="m104.71 83.05s11.1-18.28 36-13a35.17 35.17 0 0 0 9.15.74l5.48-.3a16.9 16.9 0 0 1 -6.42 13.27c-3.64 2.86-8.46 5.65-13.49 5.73a48.07 48.07 0 0 1 -30.72-6.44z" fill="#6d4c41"/><g clip-path="url(#a)"><path d="m107.12 80a28 28 0 0 0 10.38 3.81 55.61 55.61 0 0 0 19 0c6.24-1.26 12.27-4.22 16.41-9a10.28 10.28 0 0 0 2.49-4.53 3.74 3.74 0 0 1 1.83 3 11.53 11.53 0 0 1 -3.14 9.34 23 23 0 0 1 -8.48 5.5 41.45 41.45 0 0 1 -19.17 3.12c-6.5-.55-17.1-3.69-22.24-7.73" fill="#5d4037"/></g><path d="m107.8 159.73v6.09a7.59 7.59 0 0 1 -.08 1.07c-.62-.1-1.22-.2-1.79-.31a4.87 4.87 0 0 0 .06-.76v-6.09c0-2.84-2-5.14-4.42-5.14h-5.37c-2.44 0-4.42 2.3-4.42 5.14v1a8.34 8.34 0 0 1 -1.65-2.58 6.72 6.72 0 0 1 4.09-5 5.7 5.7 0 0 1 2-.36h5.37c3.41-.02 6.21 3.1 6.21 6.94z" fill="#26a69a"/></svg>