<svg viewBox="0 0 336.71 257" xmlns="http://www.w3.org/2000/svg" xmlns:xlink="http://www.w3.org/1999/xlink"><clipPath id="a" transform="translate(37.99)"><rect height="256" rx="42.02" width="256" x=".5" y=".5"/></clipPath><rect fill="#fff" height="256" rx="42.02" width="256" x="38.49" y=".5"/><g clip-path="url(#a)"><path d="m235.24 145.74 24.6 2.33a5.21 5.21 0 0 0 5.67-4.68l1.33-14.09a5.21 5.21 0 0 0 -4.68-5.67l-24.6-2.33a4.07 4.07 0 0 0 -.79 0 .7.7 0 0 1 -.29 0 5.29 5.29 0 0 0 -.77-.14l-24.6-2.33a4.85 4.85 0 0 0 -.66 0 .74.74 0 0 1 -.21 0 13 13 0 0 0 -1.09-.16l-10.51-1a12.28 12.28 0 0 0 -2.32 24.45l10.52 1a9.94 9.94 0 0 0 1.09.05 1.52 1.52 0 0 1 .21 0 4.64 4.64 0 0 0 .65.11l24.6 2.33a4 4 0 0 0 .78 0h.3a5.29 5.29 0 0 0 .77.13z" fill="#fff" transform="translate(37.99)"/><path d="m267.18 124.25a7.14 7.14 0 0 0 -4.84-2.57l-24.6-2.33a7 7 0 0 0 -.93 0 6.85 6.85 0 0 0 -.92-.16l-24.59-2.33a7.4 7.4 0 0 0 -.81 0c-.38-.06-.76-.12-1.15-.16l-10.51-1a14.27 14.27 0 0 0 -15.51 12.82 14.24 14.24 0 0 0 12.82 15.48l10.51 1c.39 0 .78 0 1.16.06a6.84 6.84 0 0 0 .79.12l24.61 2.34a6.87 6.87 0 0 0 .92 0 5.49 5.49 0 0 0 .92.15l24.6 2.34h.69a7.19 7.19 0 0 0 7.11-6.48l1.34-14.09a7.12 7.12 0 0 0 -1.61-5.19zm-33 21.32a4 4 0 0 1 -.78 0l-24.6-2.33a4.64 4.64 0 0 1 -.65-.11 1.52 1.52 0 0 0 -.21 0 9.94 9.94 0 0 1 -1.09-.05l-10.52-1a12.28 12.28 0 0 1 2.32-24.45l10.51 1c.37 0 .73.09 1.09.16a.74.74 0 0 0 .21 0 4.85 4.85 0 0 1 .66 0l24.6 2.33a5.29 5.29 0 0 1 .77.14.7.7 0 0 0 .29 0 4.07 4.07 0 0 1 .79 0l24.6 2.33a5.21 5.21 0 0 1 4.68 5.67l-1.33 14.09a5.21 5.21 0 0 1 -5.67 4.68l-24.6-2.33a5.29 5.29 0 0 1 -.77-.14h-.24z" fill="#0a97b7" transform="translate(37.99)"/><path d="m266.48 136.75a6.2 6.2 0 0 1 -6.73 5.57l-24.6-2.32a6.79 6.79 0 0 1 -.92-.16 7.22 7.22 0 0 1 -.93 0l-24.6-2.34a5.08 5.08 0 0 1 -.78-.13c-.39 0-.78 0-1.18-.05l-10.51-1a13.31 13.31 0 0 1 -11.56-9.83 13.3 13.3 0 0 0 -.38 2.11 13.29 13.29 0 0 0 11.94 14.4l10.51 1h1.18a5.08 5.08 0 0 0 .78.13l24.6 2.34a7.22 7.22 0 0 0 .93 0 6.79 6.79 0 0 0 .92.16l24.6 2.34a6.2 6.2 0 0 0 6.73-5.57l1.34-14.09a6.18 6.18 0 0 0 -.38-2.75z" fill="#0a97b7" opacity=".53" transform="translate(37.99)"/><path d="m64.4 141.49a12.27 12.27 0 0 0 -2.32-24.44l-10.51 1a9.36 9.36 0 0 0 -1.08.15h-.21a4.85 4.85 0 0 0 -.66 0l-24.62 2.37a4.47 4.47 0 0 0 -.78.14.93.93 0 0 1 -.29 0 6.54 6.54 0 0 0 -.78 0l-24.6 2.34a5.14 5.14 0 0 0 -3.51 1.86 5.18 5.18 0 0 0 -1.18 3.8l1.34 14.09a5.11 5.11 0 0 0 1.87 3.51 5.14 5.14 0 0 0 3.8 1.18l24.6-2.34a4.22 4.22 0 0 0 .77-.14.93.93 0 0 1 .29 0 6.71 6.71 0 0 0 .79 0l24.6-2.34a4.64 4.64 0 0 0 .65-.11h1.3z" fill="#fff" transform="translate(37.99)"/><path d="m77.41 127.93a14.27 14.27 0 0 0 -15.51-12.83l-10.51 1c-.39 0-.78.09-1.16.16a5.4 5.4 0 0 0 -.8 0l-24.6 2.33a7.14 7.14 0 0 0 -.92.16 5.65 5.65 0 0 0 -.93 0l-24.6 2.33a7.1 7.1 0 0 0 -4.83 2.57 7.1 7.1 0 0 0 -1.61 5.23l1.33 14.12a7.1 7.1 0 0 0 2.57 4.83 7.13 7.13 0 0 0 4.55 1.67 5.17 5.17 0 0 0 .68 0l24.6-2.33a8.76 8.76 0 0 0 .92-.15 6.94 6.94 0 0 0 .93 0l24.6-2.33a6.85 6.85 0 0 0 .79-.13 11.46 11.46 0 0 0 1.17-.06l10.51-1a14.25 14.25 0 0 0 12.82-15.57zm-24.82 14.63a4.64 4.64 0 0 1 -.65.11l-24.6 2.33a6.71 6.71 0 0 1 -.79 0 .93.93 0 0 0 -.29 0 4.22 4.22 0 0 1 -.77.14l-24.6 2.38a5.14 5.14 0 0 1 -3.8-1.18 5.11 5.11 0 0 1 -1.87-3.51l-1.34-14.09a5.18 5.18 0 0 1 1.18-3.8 5.14 5.14 0 0 1 3.51-1.86l24.6-2.34a6.54 6.54 0 0 1 .78 0 .93.93 0 0 0 .29 0 4.47 4.47 0 0 1 .78-.14l24.6-2.34a4.85 4.85 0 0 1 .66 0h.21a9.36 9.36 0 0 1 1.08-.15l10.51-1a12.27 12.27 0 0 1 2.32 24.44l-10.51 1h-1.09z" fill="#0a97b7" transform="translate(37.99)"/><path d="m-5.75 136.19a6.19 6.19 0 0 0 6.75 5.57l24.6-2.33a5.73 5.73 0 0 0 .92-.17 5.8 5.8 0 0 0 .93 0l24.55-2.34c.26 0 .52-.08.77-.13a11.66 11.66 0 0 0 1.18-.06l10.51-1a13.29 13.29 0 0 0 11.57-9.83 13.43 13.43 0 0 1 .38 2.12 13.29 13.29 0 0 1 -12 14.44l-10.51 1a11.66 11.66 0 0 1 -1.18.06 6.51 6.51 0 0 1 -.77.13l-24.52 2.35a5.8 5.8 0 0 1 -.93 0 5.73 5.73 0 0 1 -.92.17l-24.58 2.32a6.19 6.19 0 0 1 -6.73-5.56l-1.34-14.09a6.08 6.08 0 0 1 .38-2.76z" fill="#0a97b7" opacity=".53" transform="translate(37.99)"/><path d="m128 124.05a.39.39 0 0 0 -.42.43v.52a.4.4 0 0 0 .42.44.4.4 0 0 0 .42-.44v-.55a.4.4 0 0 0 -.42-.4zm-.77-6.48h-.73v2.35h.73a1.18 1.18 0 1 0 0-2.35z" fill="#5d5c5c" transform="translate(37.99)"/><path d="m152.34 120.82a23.69 23.69 0 0 1 20.88-23.49h-94.78a23.65 23.65 0 0 1 .63 46.93h93.63a23.69 23.69 0 0 1 -20.36-23.44zm-34.63-3.25h-1.83v1h1.57v.3h-1.57v1h1.83v.29h-2.15v-2.93h2.15zm1.92 2.4a1.18 1.18 0 0 0 1.15-.74h.34a1.53 1.53 0 1 1 0-1h-.34a1.24 1.24 0 1 0 -1.15 1.71zm4.93-1.08a1.56 1.56 0 1 1 -1.56-1.67 1.51 1.51 0 0 1 1.48 1h-.36a1.24 1.24 0 1 0 -1.12 1.78 1.16 1.16 0 0 0 1.22-.94h-1.4v-.3h1.74zm2.6 6.55v.16h-1v-.15l.66-.59a.6.6 0 0 0 .24-.43.34.34 0 0 0 -.36-.38.36.36 0 0 0 -.37.39h-.16a.51.51 0 0 1 .53-.56.5.5 0 0 1 .53.54.69.69 0 0 1 -.29.53l-.53.48zm-1-5.23v-2.93h1a1.47 1.47 0 1 1 0 2.93zm2.39 4.82a.59.59 0 1 1 -1.18 0v-.55a.59.59 0 0 1 1.18 0zm1.24.41v.16h-1v-.15l.65-.59a.6.6 0 0 0 .24-.43.34.34 0 0 0 -.36-.38.36.36 0 0 0 -.37.39h-.16a.51.51 0 0 1 .53-.56.5.5 0 0 1 .53.54.69.69 0 0 1 -.29.53l-.53.48zm.75.16h-.17v-1.53h-.37v-.15h.57zm.83-8h-1.83v1h1.57v.3h-1.57v1h1.83v.29h-2.15v-2.93h2.15zm1.83 2.64h-.34l-1.17-2.93h.36l1 2.56 1-2.56h.35zm1.92 0h-.32v-2.93h.32zm2-.24a1.18 1.18 0 0 0 1.15-.74h.34a1.53 1.53 0 1 1 0-1h-.34a1.24 1.24 0 1 0 -1.15 1.71zm4.11-2.4h-1.83v1h1.6v.3h-1.57v1h1.83v.29h-2.16v-2.93h2.16z" fill="#5d5c5c" transform="translate(37.99)"/><path d="m99.44 120.82a23.68 23.68 0 0 0 -21-23.5 23.31 23.31 0 0 0 -2.66-.16 23.66 23.66 0 1 0 23.66 23.66zm-9.39 14.64c-.33.33-.68.65-1 .95l-.37.31c-.43.35-.87.68-1.33 1l-.34.22-.66.43.12-.1a20.43 20.43 0 0 1 -23.06-33.67l-.1.06c.17-.14.36-.26.54-.39l.71-.51c.34-.22.69-.42 1-.62s.63-.36 1-.53.74-.37 1.12-.54l.71-.28 1-.38.74-.22c.36-.11.73-.2 1.1-.29l.73-.15c.41-.08.83-.14 1.26-.19l.63-.08c.63-.06 1.28-.1 1.93-.1a20.71 20.71 0 0 1 4.12.41 20.42 20.42 0 0 1 3.84 1.2 18.42 18.42 0 0 1 1.79.86 20.43 20.43 0 0 1 10.71 18c0 .63 0 1.25-.1 1.86v.45c-.07.61-.16 1.21-.28 1.79a.43.43 0 0 1 0 .11c-.12.56-.26 1.1-.42 1.65 0 .14-.09.28-.14.42-.18.56-.37 1.11-.6 1.64a1.42 1.42 0 0 1 -.08.18c-.21.49-.44 1-.68 1.42-.07.14-.14.27-.22.4-.27.5-.57 1-.88 1.46 0 .08-.11.15-.17.23-.28.41-.57.8-.88 1.18l-.3.37c-.36.43-.73.84-1.12 1.24zm85.95-38.3a25.3 25.3 0 0 0 -2.78.17 23.66 23.66 0 0 0 -.52 46.92 24 24 0 0 0 3.3.23 23.66 23.66 0 0 0 0-47.32zm14.52 38.06-.25.24c-.34.33-.69.65-1.05.95l-.37.31c-.43.35-.87.68-1.33 1l-.33.22-.66.43.11-.1a20.43 20.43 0 0 1 -23.06-33.67l-.1.06c.18-.14.36-.26.54-.39l.72-.51c.33-.22.68-.42 1-.62s.64-.36 1-.53.74-.37 1.12-.54l.72-.28 1-.38.74-.22c.37-.11.73-.2 1.1-.29l.73-.15c.42-.08.84-.14 1.26-.19l.63-.08c.64-.06 1.28-.1 1.94-.1a20.44 20.44 0 0 1 20.45 20.45c0 .63 0 1.25-.1 1.86v.45c-.07.61-.15 1.21-.27 1.8v.09c-.11.56-.26 1.11-.42 1.66 0 .14-.09.28-.13.42-.18.56-.38 1.11-.6 1.64l-.09.18c-.2.49-.44 1-.68 1.43l-.21.39c-.28.5-.57 1-.89 1.46l-.16.23c-.28.41-.58.8-.89 1.19l-.29.36c-.41.42-.79.83-1.18 1.23z" fill="#3c3c3c" transform="translate(37.99)"/><path d="m179.27 118.42c0-1.5-.75-2.62-2.84-2.62h-4.19v5.27h4.19c2.09 0 2.84-1.15 2.84-2.65zm-87.84 15.58.3-.37c.31-.38.6-.77.88-1.18.06-.08.12-.15.17-.23.31-.47.61-1 .88-1.46.08-.13.15-.26.22-.4.24-.46.47-.93.68-1.42a1.42 1.42 0 0 0 .08-.18c.23-.53.42-1.08.6-1.64.05-.14.09-.28.14-.42.16-.55.3-1.09.42-1.65a.43.43 0 0 0 0-.11c.12-.58.21-1.18.28-1.79v-.45c.06-.61.1-1.23.1-1.86a20.43 20.43 0 0 0 -10.71-18 18.42 18.42 0 0 0 -1.79-.86 20.42 20.42 0 0 0 -3.84-1.2 20.71 20.71 0 0 0 -4.12-.41c-.65 0-1.3 0-1.93.1l-.63.08c-.43 0-.85.11-1.26.19l-.73.15c-.37.09-.74.18-1.1.29l-.74.22-1 .38-.71.28c-.38.17-.75.36-1.12.54s-.65.34-1 .53-.7.4-1 .62l-.71.51c-.18.13-.37.25-.54.39l.1-.06a20.43 20.43 0 0 0 23.06 33.67l-.12.1.66-.43.34-.22c.46-.31.9-.64 1.33-1l.37-.31c.36-.3.71-.62 1-.95l.26-.24c.45-.39.82-.8 1.18-1.21zm-11.15-6.87h-9v-12.6h1.39v11.31h7.61z" fill="#e6e6e6" transform="translate(37.99)"/><path d="m192.83 132.43.16-.23c.32-.47.61-1 .89-1.46l.21-.39c.24-.47.48-.94.68-1.43l.09-.18c.22-.53.42-1.08.6-1.64 0-.14.09-.28.13-.42.16-.55.31-1.1.42-1.66v-.09c.12-.59.2-1.19.27-1.8v-.45c.06-.61.1-1.23.1-1.86a20.44 20.44 0 0 0 -20.38-20.45c-.66 0-1.3 0-1.94.1l-.63.08c-.42 0-.84.11-1.26.19l-.73.15c-.37.09-.73.18-1.1.29l-.74.22-1 .38-.72.28c-.38.17-.75.36-1.12.54s-.64.34-1 .53-.7.4-1 .62l-.72.51c-.18.13-.36.25-.54.39l.1-.06a20.43 20.43 0 0 0 23.06 33.67l-.11.1.66-.43.33-.22c.46-.31.9-.64 1.33-1l.37-.31c.36-.3.71-.62 1.05-.95l.25-.24c.39-.4.77-.81 1.13-1.24l.29-.36c.29-.38.59-.77.87-1.18zm-13.36-5.32-3.41-4.77h-3.82v4.77h-1.39v-12.58h5.56c3 0 4.27 1.66 4.27 3.89a3.6 3.6 0 0 1 -3.17 3.84l3.63 4.85z" fill="#e6e6e6" transform="translate(37.99)"/><path d="m110.66 125.84v-11.31h-1.38v12.58h9v-1.27z" fill="#b3b3b3"/><g fill="#ccc"><path d="m153.55 120.21h2.16v-.29h-1.83v-1.05h1.57v-.3h-1.57v-1h1.83v-.29h-2.16z"/><path d="m119.63 117.51a1.18 1.18 0 0 1 1.15.75h.34a1.53 1.53 0 1 0 0 1h-.34a1.24 1.24 0 1 1 -1.15-1.72zm3.19 1.49h1.4a1.16 1.16 0 0 1 -1.22 1 1.23 1.23 0 1 1 1.12-1.77h.36a1.51 1.51 0 0 0 -1.48-1 1.53 1.53 0 1 0 1.56 1.67v-.16h-1.74zm5.97-.26a1.39 1.39 0 0 0 -1.56-1.46h-1v2.93h1a1.4 1.4 0 0 0 1.56-1.47zm-1.56 1.18h-.73v-2.35h.73a1.18 1.18 0 1 1 0 2.35z" transform="translate(37.99)"/><path d="m167.23 120.21h2.16v-.29h-1.83v-1.05h1.57v-.3h-1.57v-1h1.83v-.29h-2.16zm3.82-.37-.99-2.56h-.35l1.16 2.93h.35l1.17-2.93h-.35zm1.76-2.56h.32v2.94h-.32z"/><path d="m137.17 117.51a1.19 1.19 0 0 1 1.15.75h.34a1.53 1.53 0 1 0 0 1h-.34a1.24 1.24 0 1 1 -1.15-1.72z" transform="translate(37.99)"/><path d="m177.12 120.21h2.15v-.29h-1.83v-1.05h1.57v-.3h-1.57v-1h1.83v-.29h-2.15z"/><path d="m127.18 124.43a.5.5 0 0 0 -.53-.54.51.51 0 0 0 -.53.56h.16a.36.36 0 0 1 .37-.39.34.34 0 0 1 .36.38.6.6 0 0 1 -.24.43l-.66.59v.15h1v-.16h-.8l.53-.48a.69.69 0 0 0 .34-.54zm.82-.54a.56.56 0 0 0 -.59.59v.52a.59.59 0 1 0 1.18 0v-.55a.56.56 0 0 0 -.59-.56zm.42 1.14a.4.4 0 0 1 -.42.44.4.4 0 0 1 -.42-.44v-.55a.39.39 0 0 1 .42-.43.4.4 0 0 1 .42.43zm1.41-.6a.5.5 0 0 0 -.53-.54.51.51 0 0 0 -.53.56h.16a.36.36 0 0 1 .37-.39.34.34 0 0 1 .36.38.6.6 0 0 1 -.24.43l-.65.59v.15h1v-.16h-.77l.53-.48a.69.69 0 0 0 .3-.54z" transform="translate(37.99)"/><path d="m167.99 124.07h.4v1.52h.17v-1.67h-.57z"/></g><path d="m180.68 118.42c0-2.23-1.31-3.89-4.27-3.89h-5.56v12.58h1.39v-4.77h3.82l3.41 4.77h1.67l-3.63-4.85a3.6 3.6 0 0 0 3.17-3.84zm-4.25 2.65h-4.19v-5.27h4.19c2.09 0 2.84 1.12 2.84 2.62s-.75 2.65-2.84 2.65z" fill="#b3b3b3" transform="translate(37.99)"/><path d="m14.83 167 .33-.05 37.18-3.53a11.21 11.21 0 0 1 12 8.76 9.43 9.43 0 0 0 -3.27-18.52l-38.07 3.58h-.69l-24.52 2.32a4.3 4.3 0 0 0 -2.95 1.58 4.31 4.31 0 0 0 -1 3.19l.42 4.5 20.21-1.83a2.17 2.17 0 0 1 .36 0z" fill="#fff" transform="translate(37.99)"/><path d="m73.3 162a11.43 11.43 0 0 0 -12.42-10.27l-38.08 3.57h-.69l-24.53 2.33a6.31 6.31 0 0 0 -4.27 2.37 6.29 6.29 0 0 0 -1.43 4.63l.43 4.5 1.94-.19-.42-4.5a4.31 4.31 0 0 1 1-3.19 4.3 4.3 0 0 1 2.95-1.58l24.52-2.32h.69l38.08-3.61a9.43 9.43 0 0 1 3.27 18.52 11.7 11.7 0 0 1 .22 1.34v.61a11.42 11.42 0 0 0 8.74-12.21z" fill="#054c5c" transform="translate(37.99)"/><path d="m62.6 173.67a9.25 9.25 0 0 0 -10.08-8.33l-37.17 3.53h-.7l-23.94 2.33a4.28 4.28 0 0 0 -3.85 4.65l1 9.93a4.27 4.27 0 0 0 4.64 3.84l24-2.27h.7l37.17-3.53a9.28 9.28 0 0 0 8.33-10.08z" fill="#fff" transform="translate(37.99)"/><path d="m64.33 172.15a11.21 11.21 0 0 0 -12-8.76l-37.18 3.53-.33.05a2.17 2.17 0 0 0 -.36 0l-20.21 1.93-1.94.19-1.79.17a6.17 6.17 0 0 0 -4.2 2.23 6.18 6.18 0 0 0 -1.4 4.55l.94 9.92a6.23 6.23 0 0 0 6.19 5.63h.59l24-2.27h.7l37.16-3.53a11.21 11.21 0 0 0 10.13-11.6v-.61a11.7 11.7 0 0 0 -.3-1.43zm-10.06 11.6-37.17 3.53h-.7l-23.95 2.27a4.27 4.27 0 0 1 -4.64-3.84l-1-9.93a4.28 4.28 0 0 1 3.85-4.65l23.94-2.27h.7l37.17-3.53a9.23 9.23 0 0 1 8 15.09 9.16 9.16 0 0 1 -6.2 3.33z" fill="#054c5c" transform="translate(37.99)"/><path d="m18.4 139.22c-5.8-2.74-4.95-12.72-4.94-12.83a.64.64 0 1 0 -1.27-.11c0 .44-1 11 5.66 14.1a.54.54 0 0 0 .27.07.65.65 0 0 0 .28-1.23z" fill="#0a97b7" transform="translate(37.99)"/><path d="m108.9 155.8-19.51 29.21-8.14-16.91 17.72-18.1z" fill="#0a97b7" opacity=".53"/><path d="m89.54 122.09a9.87 9.87 0 0 0 -9.09-5.85c-5.21 0-12.5 3.32-15.92 7.25l-13.59 15.61a21.48 21.48 0 0 1 -25.68 5.28 76.22 76.22 0 0 1 -6.75-3.81c-5.43-3.43-19.4-14-22.57-16.42l-4.21 3.55a15 15 0 0 0 -4.24 7.45l-8.29 35.34-15 53.54 46 17.22 13.61-28.25a1 1 0 0 1 .41-.43l10.11-5.52a24.23 24.23 0 0 0 10.26-11.22l12.12-27.2a.78.78 0 0 1 .24-.33 13.15 13.15 0 0 0 1-1l1.67-1.92 4.24-4.65a1 1 0 0 1 .23-.48l23.91-27.46a9.88 9.88 0 0 0 1.54-10.7z" fill="#fff" transform="translate(37.99)"/><path d="m91.32 121.28a11.82 11.82 0 0 0 -10.87-7c-5.79 0-13.6 3.55-17.4 7.92l-13.59 15.6a19.5 19.5 0 0 1 -23.33 4.82 72.37 72.37 0 0 1 -6.58-3.71c-5.93-3.76-22.88-16.66-23-16.79a1 1 0 0 0 -1.22 0l-4.86 4.08a17.12 17.12 0 0 0 -4.83 8.47l-8.33 35.33-15.31 54.36a1 1 0 0 0 .6 1.18l47.72 17.86a1 1 0 0 0 .34.06 1 1 0 0 0 .88-.55l13.89-28.76 9.84-5.38a26.1 26.1 0 0 0 11.1-12.14l12-27a13.56 13.56 0 0 0 1-1l1.66-1.9 4.6-5.05a1 1 0 0 0 .25-.52l23.55-27.05a11.83 11.83 0 0 0 1.89-12.83zm-27.25 39a1 1 0 0 0 -.23.48l-4.24 4.65-1.67 1.92a13.15 13.15 0 0 1 -1 1 .78.78 0 0 0 -.24.33l-12.12 27.2a24.23 24.23 0 0 1 -10.26 11.22l-10.11 5.52a1 1 0 0 0 -.41.43l-13.62 28.22-46-17.22 15-53.54 8.29-35.34a15 15 0 0 1 4.24-7.45l4.21-3.55c3.17 2.41 17.14 13 22.57 16.42a76.22 76.22 0 0 0 6.75 3.81 21.48 21.48 0 0 0 25.68-5.28l13.59-15.61c3.42-3.93 10.71-7.25 15.92-7.25a10 10 0 0 1 7.58 16.55z" fill="#0a97b7" transform="translate(37.99)"/><path d="m265.91 161.76a4.37 4.37 0 0 0 -3-1.57l-24.53-2.33h-.38a1.23 1.23 0 0 0 -.27 0l-38.09-3.62h-.9a9.44 9.44 0 0 0 -2.37 18.57 11.2 11.2 0 0 1 12-8.76l37.17 3.52.34.05h.36l20.21 1.92.43-4.5a4.33 4.33 0 0 0 -.97-3.28z" fill="#fff" transform="translate(37.99)"/><path d="m196.39 172.71a9.44 9.44 0 0 1 2.37-18.57h.9l38.09 3.62a1.23 1.23 0 0 1 .27 0h.41l24.57 2.43a4.39 4.39 0 0 1 3.9 4.81l-.43 4.5 1.95.18.42-4.5a6.33 6.33 0 0 0 -5.7-6.9l-24.52-2.32a2 2 0 0 0 -.35 0l-.34-.05-38.08-3.61a11.39 11.39 0 0 0 -3.7 22.42v-.62a11.52 11.52 0 0 1 .24-1.39z" fill="#054c5c" transform="translate(37.99)"/><path d="m270 171.76-23.95-2.27h-.69l-37.18-3.53a8.51 8.51 0 0 0 -.88 0 9.25 9.25 0 0 0 -.86 18.46l37.16 3.52h.71l23.94 2.27a4.27 4.27 0 0 0 4.65-3.84l.94-9.92a4.27 4.27 0 0 0 -3.84-4.69z" fill="#fff" transform="translate(37.99)"/><path d="m270.2 169.81-1.78-.17-1.95-.18-20.21-1.92h-.36l-.34-.05-37.17-3.49a11.2 11.2 0 0 0 -12 8.76 11.52 11.52 0 0 0 -.21 1.33v.62a11.21 11.21 0 0 0 10.12 11.59l37.17 3.53h.7l23.95 2.27a5.68 5.68 0 0 0 .59 0 6.23 6.23 0 0 0 6.18-5.63l.95-9.93a6.24 6.24 0 0 0 -5.64-6.73zm2.72 16.52a4.27 4.27 0 0 1 -4.65 3.84l-23.94-2.27h-.71l-37.16-3.52a9.25 9.25 0 0 1 .86-18.46 8.51 8.51 0 0 1 .88 0l37.18 3.53h.69l23.93 2.31a4.27 4.27 0 0 1 3.84 4.65z" fill="#054c5c" transform="translate(37.99)"/><path d="m248.54 126.83a.64.64 0 1 0 -1.28.12c0 .1.87 10.08-4.93 12.83a.64.64 0 0 0 -.31.85.65.65 0 0 0 .58.37.71.71 0 0 0 .28-.06c6.61-3.13 5.7-13.66 5.66-14.11z" fill="#0a97b7" transform="translate(37.99)"/><path d="m227.81 156.35 19.51 29.21 8.14-16.91-17.72-18.09z" fill="#0a97b7" opacity=".53"/><path d="m273.23 135.71a15.12 15.12 0 0 0 -4.28-7.5l-4.16-3.5c-3.17 2.41-17.15 13-22.58 16.42a72.32 72.32 0 0 1 -6.75 3.8 21.47 21.47 0 0 1 -25.67-5.28l-13.59-15.6c-3.42-3.93-10.72-7.26-15.93-7.26a10 10 0 0 0 -7.53 16.55l23.92 27.47a.92.92 0 0 1 .22.48l4.23 4.64 1.69 1.94a11.4 11.4 0 0 0 1 1 1.12 1.12 0 0 1 .24.33l12.12 27.2a24.2 24.2 0 0 0 10.26 11.23l10.1 5.51a1 1 0 0 1 .42.44l13.63 28.24 46-17.23-15-53.5z" fill="#fff" transform="translate(37.99)"/><path d="m298.68 224.92-15.26-54.33-8.28-35.33a17 17 0 0 0 -4.89-8.5l-4.8-4.05a1 1 0 0 0 -1.23 0c-.17.13-17.11 13-23.05 16.79a71.21 71.21 0 0 1 -6.57 3.71 19.53 19.53 0 0 1 -23.34-4.81l-13.59-15.61c-3.8-4.37-11.61-7.92-17.4-7.92a11.94 11.94 0 0 0 -9 19.79l23.55 27a.93.93 0 0 0 .24.52l4.59 5 1.67 1.92c.31.34.64.69 1 1l12 27a26.27 26.27 0 0 0 11.11 12.14l9.83 5.37 13.89 28.76a1 1 0 0 0 .88.55 1 1 0 0 0 .34-.06l47.68-17.85a1 1 0 0 0 .63-1.09zm-48.13 16.89-13.63-28.24a1 1 0 0 0 -.42-.44l-10.1-5.51a24.2 24.2 0 0 1 -10.26-11.23l-12.14-27.2a1.12 1.12 0 0 0 -.24-.33 11.4 11.4 0 0 1 -1-1l-1.69-1.94-4.23-4.64a.92.92 0 0 0 -.22-.48l-23.92-27.47a10 10 0 0 1 7.53-16.55c5.21 0 12.51 3.33 15.93 7.26l13.59 15.6a21.47 21.47 0 0 0 25.67 5.28 72.32 72.32 0 0 0 6.75-3.8c5.43-3.44 19.41-14 22.58-16.42l4.16 3.5a15.12 15.12 0 0 1 4.28 7.5l8.3 35.37 15 53.5z" fill="#0a97b7" transform="translate(37.99)"/></g><rect fill="none" height="256" rx="42.02" stroke="#31c4c3" stroke-miterlimit="10" width="256" x="38.49" y=".5"/><g transform="translate(37.99)"><path d="m80.74 227h96.55a14.87 14.87 0 0 1 14.71 15 14.87 14.87 0 0 1 -14.73 15h-96.53a14.86 14.86 0 0 1 -14.74-15 14.86 14.86 0 0 1 14.74-15z" fill="#31c4c3"/><path d="m107.43 237.44h2.12v7.4h4.57v1.72h-6.69zm14.94 7.43v1.69h-7.06v-9.12h6.89v1.69h-4.8v2h4.24v1.65h-4.24v2.11zm7.69-.26h-4.24l-.8 1.95h-2.17l4.07-9.12h2.08l4.08 9.12h-2.21zm-.67-1.61-1.39-3.49-1.5 3.49zm4.61-5.56h4.15a5.77 5.77 0 0 1 2.62.57 4.23 4.23 0 0 1 1.78 1.59 4.89 4.89 0 0 1 0 4.8 4.23 4.23 0 0 1 -1.75 1.6 5.77 5.77 0 0 1 -2.62.57h-4.18zm4 7.39a3.08 3.08 0 0 0 2.19-.77 2.67 2.67 0 0 0 .81-2.06 2.71 2.71 0 0 0 -.81-2.07 3.12 3.12 0 0 0 -2.19-.76h-1.92v5.66zm10.49-7.39h2.11v9.12h-2.11z" fill="#fff"/></g></svg>