<svg viewBox="0 0 261.35 302.03" xmlns="http://www.w3.org/2000/svg" xmlns:xlink="http://www.w3.org/1999/xlink"><clipPath id="a"><rect height="256" rx="42.02" width="256" x=".5" y=".5"/></clipPath><rect fill="#fff" height="256" rx="42.02" width="256" x=".5" y=".5"/><g clip-path="url(#a)"><rect fill="#fff" height="113.74" rx="23.45" transform="matrix(.99999877 -.0015708 .0015708 .99999877 -.21 .15)" width="47.64" x="68.59" y="74.57"/><path d="m92.1 188.56a23.71 23.71 0 0 1 -23.69-23.66l-.11-66.84a23.76 23.76 0 0 1 23.7-23.73h.78a23.75 23.75 0 0 1 23.64 23.67l.11 66.85a23.72 23.72 0 0 1 -23.65 23.73h-.78zm.63-113.74h-.73a23.27 23.27 0 0 0 -23.21 23.24l.1 66.84a23.23 23.23 0 0 0 23.21 23.17h.78a23.22 23.22 0 0 0 23.12-23.24l-.06-66.83a23.29 23.29 0 0 0 -23.21-23.18z" fill="#c1c1c1"/><path d="m94.29 184.35c-.47 0-.94.06-1.42.06h-.74a19.57 19.57 0 0 1 -19.57-19.51l-.11-66.84a19.6 19.6 0 0 1 18.09-19.52c.47 0 .94-.06 1.42-.06h.74a19.57 19.57 0 0 1 19.57 19.52l.11 66.84a19.6 19.6 0 0 1 -18.09 19.51z" fill="#fff"/><path d="m92.1 184.65a19.82 19.82 0 0 1 -19.79-19.75l-.11-66.84a19.87 19.87 0 0 1 18.33-19.77c.47 0 1-.05 1.43-.05h.77a19.82 19.82 0 0 1 19.79 19.76l.1 66.84a19.87 19.87 0 0 1 -18.32 19.76c-.46 0-1 .05-1.43.05zm.63-105.92h-2.13a19.38 19.38 0 0 0 -17.91 19.33l.11 66.84a19.31 19.31 0 0 0 19.3 19.26h2.17a19.38 19.38 0 0 0 17.87-19.28l-.14-66.88a19.31 19.31 0 0 0 -19.3-19.26z" fill="#c1c1c1"/><path d="m76.36 98.05a15.68 15.68 0 0 1 14.47-15.62h1.87a15.65 15.65 0 0 1 15.66 15.57z" fill="#fafafa"/><path d="m76.11 98.29v-.24a15.94 15.94 0 0 1 14.7-15.86h1.92a15.89 15.89 0 0 1 15.88 15.81v.24zm15.89-15.65h-1.1a15.44 15.44 0 0 0 -14.3 15.16h31.52a15.42 15.42 0 0 0 -15.39-15.17h-.73z" fill="#c1c1c1"/><circle cx="105.82" cy="103.1" fill="#fff" r="2.91"/><path d="m105.82 106.25a3.17 3.17 0 0 1 -3.14-2.92 3.15 3.15 0 0 1 6.29-.47 3.17 3.17 0 0 1 -2.91 3.38zm0-5.82h-.2a2.62 2.62 0 0 0 -1.82.92 2.57 2.57 0 0 0 -.64 1.93 2.61 2.61 0 0 0 .91 1.82 2.66 2.66 0 0 0 3.76-.28 2.61 2.61 0 0 0 .64-1.93 2.68 2.68 0 0 0 -2.65-2.47z" fill="#c1c1c1"/><circle cx="105.82" cy="103.09" fill="#fff" r="1.93"/><path d="m105.82 105.27a2.23 2.23 0 1 1 .16 0zm0-3.86h-.13a1.69 1.69 0 0 0 .25 3.37 1.69 1.69 0 0 0 -.12-3.37z" fill="#c1c1c1"/><path d="m70.66 107.64h43.35v3.6h-43.35z" fill="#fafafa" transform="matrix(.83098447 .55629562 -.55629562 .83098447 76.480197 -32.869968)"/><path d="m109.41 123.33-.2-.14-36.21-24.19 2.27-3.4.2.13 36.23 24.25zm-35.75-24.52 35.62 23.84 1.73-2.58-35.61-23.84z" fill="#c1c1c1"/><rect fill="#fafafa" height="3.6" rx="1.8" transform="matrix(.84516856 -.53449987 .53449987 .84516856 -47.830176 64.629521)" width="43.35" x="65.95" y="113.07"/><path d="m70.83 127.54a2.3 2.3 0 0 1 -.45-.05 2 2 0 0 1 -1.55-2.44 2 2 0 0 1 .9-1.28l33.6-21.25a2 2 0 0 1 1.54-.26 2 2 0 0 1 .64 3.72l-33.59 21.24a2 2 0 0 1 -1.09.32zm33.59-24.85a1.53 1.53 0 0 0 -.83.25l-33.59 21.24a1.52 1.52 0 0 0 -.69 1 1.54 1.54 0 0 0 1.18 1.82 1.55 1.55 0 0 0 1.17-.2l33.59-21.24a1.57 1.57 0 0 0 .69-1 1.57 1.57 0 0 0 -1.18-1.86 2 2 0 0 0 -.34-.01z" fill="#c1c1c1"/><rect fill="#fff" height="222.96" rx="50.55" transform="matrix(.9828389 -.18446599 .18446599 .9828389 -33.889987 16.879962)" width="101.1" x="23.26" y="79.13"/><path d="m85 302a51.75 51.75 0 0 1 -50.6-42l-22.48-119.77a51.53 51.53 0 0 1 101.29-19l22.47 119.77a51.66 51.66 0 0 1 -41.14 60.14 51.2 51.2 0 0 1 -9.54.86zm-22.41-220.85a50.32 50.32 0 0 0 -9.17.85 49.63 49.63 0 0 0 -39.58 57.86l22.48 119.78a49.71 49.71 0 0 0 57.86 39.58 49.71 49.71 0 0 0 39.58-57.86l-22.47-119.78a49.66 49.66 0 0 0 -48.7-40.43z" fill="#0a97b7"/><path d="m197.84 163.38 24.61 2.34a5.22 5.22 0 0 0 5.66-4.69l1.34-14.09a5.19 5.19 0 0 0 -4.69-5.66l-24.6-2.34-1.84-.17-24.61-2.34a4.73 4.73 0 0 0 -.65 0h-.22a9.36 9.36 0 0 0 -1.08-.15l-10.51-1a12.27 12.27 0 0 0 -2.32 24.44l10.51 1c.37 0 .73.05 1.09.05h.21c.22.05.43.09.66.12l24.6 2.33a6.54 6.54 0 0 0 .78 0h.06a.85.85 0 0 1 .23 0 4.37 4.37 0 0 0 .77.16z" fill="#fff"/><path d="m229.8 141.89a7.08 7.08 0 0 0 -4.83-2.57l-24.6-2.32-1.85-.18-24.6-2.33a7.13 7.13 0 0 0 -.8 0c-.38-.07-.76-.12-1.15-.16l-10.51-1a14.23 14.23 0 1 0 -2.69 28.34l10.51 1c.39 0 .78.05 1.16.05a5.21 5.21 0 0 0 .79.13l24.6 2.34h.93a9.2 9.2 0 0 0 .92.15l24.6 2.34h.68a7.16 7.16 0 0 0 7.12-6.48l1.34-14.09a7.07 7.07 0 0 0 -1.62-5.22zm-33 21.32a5 5 0 0 1 -.78 0l-24.6-2.33-.65-.11h-.21a10.12 10.12 0 0 1 -1.1 0l-10.51-1a12.27 12.27 0 0 1 2.32-24.44l10.51 1c.37 0 .73.09 1.09.15a.75.75 0 0 0 .21 0 4.87 4.87 0 0 1 .66 0l24.6 2.34 1.85.17 24.6 2.34a5.21 5.21 0 0 1 4.68 5.67l-1.33 14a5.23 5.23 0 0 1 -5.67 4.69l-24.6-2.33a6.7 6.7 0 0 1 -.77-.14 1 1 0 0 0 -.24 0z" fill="#0a97b7"/><path d="m229.11 154.39a6.19 6.19 0 0 1 -6.73 5.56l-24.61-2.33a5.61 5.61 0 0 1 -.91-.17 5.78 5.78 0 0 1 -.93 0l-24.6-2.33a6.34 6.34 0 0 1 -.78-.13 11.81 11.81 0 0 1 -1.18-.06l-10.51-1a13.28 13.28 0 0 1 -11.56-9.83 13.43 13.43 0 0 0 -.38 2.12 13.29 13.29 0 0 0 11.94 14.45l10.51 1a11.81 11.81 0 0 0 1.18.06 6.34 6.34 0 0 0 .78.13l24.6 2.33a5.78 5.78 0 0 0 .93 0 5.61 5.61 0 0 0 .91.17l24.61 2.33a6.19 6.19 0 0 0 6.73-5.56l1.34-14.13a6.22 6.22 0 0 0 -.38-2.76z" fill="#0a97b7" opacity=".53"/><path d="m101.71 146a.33.33 0 0 0 -.35.36v.45a.35.35 0 1 0 .7 0v-.45a.33.33 0 0 0 -.35-.36zm-5.94-6.31a1 1 0 1 0 0 1.91 1 1 0 1 0 0-1.91zm-9.64.43a.37.37 0 0 0 -.42-.39h-.82v.78h.83a.37.37 0 0 0 .41-.39zm1.6-.43a.67.67 0 0 0 -.73.74v.36h1.47v-.36a.67.67 0 0 0 -.74-.74zm-1.93 1.05h-.91v.81h.91a.38.38 0 0 0 .43-.41.39.39 0 0 0 -.43-.4zm22.67-1.01h-.56v1.82h.56a.91.91 0 1 0 0-1.82z" fill="#5d5c5c"/><path d="m144.23 123.85a19 19 0 0 0 -2.23.15h-78.47a19.27 19.27 0 0 0 -2.16-.13 19.56 19.56 0 1 0 0 39.12 20.27 20.27 0 0 0 2.6-.19h77.66a20.27 20.27 0 0 0 2.6.19 19.56 19.56 0 0 0 0-39.12zm-58.4 17.93h-1.19v-2.28h1.1a.57.57 0 0 1 .64.58.54.54 0 0 1 -.33.52.57.57 0 0 1 .43.58.58.58 0 0 1 -.65.6zm2.89 0h-.25v-.78h-1.47v.77h-.25v-1.35a1 1 0 0 1 2 0zm1.51-.18a.91.91 0 0 0 .89-.58h.27a1.22 1.22 0 0 1 -2.37-.38 1.22 1.22 0 0 1 2.37-.37h-.27a1 1 0 0 0 -1.85.37.92.92 0 0 0 .96.96zm2.88.18-1.11-1.09v1.09h-.25v-2.28h.25v1.07l1.08-1.07h.32l-1.15 1.13 1.19 1.15zm2.66.05a1.19 1.19 0 1 1 1.23-1.19 1.16 1.16 0 0 1 -1.23 1.19zm3.2-2.1h-1.39v.78h1.19v.23h-1.19v1h-.25v-2.24h1.67zm2.07 7.41v.13h-.87v-.12l.54-.49a.49.49 0 0 0 .2-.36.28.28 0 0 0 -.3-.31.29.29 0 0 0 -.3.32h-.14a.43.43 0 0 1 .44-.47.42.42 0 0 1 .44.45.55.55 0 0 1 -.24.44l-.44.4zm.08-5.36h-.25v-2.05h-.77v-.23h1.79v.23h-.77zm1.08 5a.49.49 0 0 1 -1 0v-.45a.49.49 0 1 1 1 0zm1 .34v.13h-.87v-.12l.54-.49a.49.49 0 0 0 .2-.36.28.28 0 0 0 -.3-.31.29.29 0 0 0 -.3.32h-.14a.43.43 0 0 1 .44-.47.42.42 0 0 1 .44.45.55.55 0 0 1 -.24.44l-.44.4zm.62.13h-.14v-1.25h-.33v-.13h.47zm.35-5.49h-.17v-1h-1.48v1h-.25v-2.26h.25v1h1.48v-1h.25zm2.14-2.05h-1.42v.78h1.22v.23h-1.22v.81h1.42v.23h-1.67v-2.26h1.67zm2.13 2.05h-.81v-2.26h.81a1.14 1.14 0 1 1 0 2.28zm3.24-2.05h-1.42v.78h1.21v.23h-1.21v.81h1.42v.23h-1.68v-2.26h1.68zm1.42 2.05h-.27l-.83-2.26h.28l.77 2 .76-2h.19zm1.49 0h-.25v-2.26h.25zm1.57-.18a.93.93 0 0 0 .89-.58h.26a1.15 1.15 0 0 1 -1.15.81 1.19 1.19 0 1 1 0-2.37 1.14 1.14 0 0 1 1.15.81h-.26a.93.93 0 0 0 -.89-.58 1 1 0 1 0 0 1.91zm3.19-1.87h-1.35v.78h1.22v.23h-1.22v.81h1.42v.23h-1.67v-2.26h1.67z" fill="#5d5c5c"/><path d="m101.05 146.3a.42.42 0 0 0 -.44-.45.43.43 0 0 0 -.44.47h.14a.29.29 0 0 1 .3-.32.28.28 0 0 1 .3.31.49.49 0 0 1 -.2.36l-.54.49v.12h.83v-.13h-.67l.44-.4a.55.55 0 0 0 .28-.45zm.66-.45a.47.47 0 0 0 -.49.5v.45a.49.49 0 0 0 1 0v-.45a.47.47 0 0 0 -.51-.5zm.35 1a.35.35 0 1 1 -.7 0v-.45a.35.35 0 1 1 .7 0zm1.18-.55a.42.42 0 0 0 -.44-.45.43.43 0 0 0 -.44.47h.14a.29.29 0 0 1 .3-.32.28.28 0 0 1 .3.31.49.49 0 0 1 -.2.36l-.54.49v.12h.87v-.13h-.67l.44-.4a.55.55 0 0 0 .24-.45zm.14-.29h.33v1.26h.14v-1.39h-.47zm-17.33-5.41a.54.54 0 0 0 .33-.52.57.57 0 0 0 -.64-.58h-1.1v2.28h1.19a.58.58 0 0 0 .65-.6.57.57 0 0 0 -.43-.58zm-1.16-.87h.82a.37.37 0 0 1 .42.39.37.37 0 0 1 -.41.39h-.83zm.91 1.82h-.91v-.81h.91a.39.39 0 0 1 .43.4.38.38 0 0 1 -.43.41zm1.93-2.09a.89.89 0 0 0 -1 1v1.35h.27v-.81h1.47v.77h.25v-1.35a.89.89 0 0 0 -.99-.96zm.74 1.33h-1.47v-.36a.74.74 0 1 1 1.47 0zm1.76-1.1a.91.91 0 0 1 .89.58h.27a1.21 1.21 0 1 0 -1.16 1.56 1.17 1.17 0 0 0 1.16-.81h-.27a.91.91 0 0 1 -.89.58 1 1 0 1 1 0-1.91zm3.17-.19h-.32l-1.08 1.07v-1.07h-.25v2.28h.25v-1.09l1.11 1.09h.33l-1.19-1.15zm2.37-.04a1.19 1.19 0 1 0 1.23 1.18 1.15 1.15 0 0 0 -1.23-1.18zm0 2.14a1 1 0 1 1 1-1 .92.92 0 0 1 -1 1zm1.56.18h.25v-1.04h1.19v-.23h-1.19v-.78h1.39v-.23h-1.64zm4.56-2.28h-1.79v.23h.77v2.05h.25v-2.05h.77zm2.06 1.01h-1.48v-1.01h-.25v2.28h.25v-1.04h1.48v1.04h.25v-2.28h-.25zm.72 1.27h1.67v-.23h-1.42v-.81h1.22v-.23h-1.22v-.78h1.42v-.23h-1.67zm3.8-2.28h-.81v2.28h.81a1.14 1.14 0 1 0 0-2.28zm0 2.05h-.56v-1.82h.56a.91.91 0 1 1 0 1.82zm1.56.23h1.68v-.23h-1.43v-.81h1.22v-.23h-1.22v-.78h1.43v-.23h-1.68zm2.97-.29-.77-1.99h-.28l.91 2.28h.27l.91-2.28h-.28zm1.37-1.99h.25v2.28h-.25zm1.82.19a.93.93 0 0 1 .89.58h.26a1.14 1.14 0 0 0 -1.15-.81 1.19 1.19 0 1 0 1.15 1.56h-.26a1 1 0 0 1 -1.85-.38.92.92 0 0 1 .96-.95zm1.52 2.09h1.67v-.23h-1.42v-.81h1.22v-.23h-1.22v-.78h1.42v-.23h-1.67z" fill="#ccc"/><path d="m228.54 179.4a4.33 4.33 0 0 0 -2.95-1.57l-24.53-2.33h-.69l-38.08-3.61h-.9a9.43 9.43 0 0 0 -2.39 18.45 11.22 11.22 0 0 1 12-8.76l37.17 3.53h.69l20.22 1.92.43-4.51a4.32 4.32 0 0 0 -.97-3.12z" fill="#fff"/><path d="m159 190.34a9.43 9.43 0 0 1 2.37-18.56h.9l38.08 3.61h.69l24.53 2.33a4.39 4.39 0 0 1 3.94 4.76l-.43 4.51 1.94.18.43-4.5a6.33 6.33 0 0 0 -5.7-6.9l-24.53-2.33h-.68l-38.08-3.62a11.39 11.39 0 0 0 -3.7 22.42v-.61a11.69 11.69 0 0 1 .24-1.29z" fill="#054c5c"/><path d="m232.65 189.4-24-2.28h-.7l-37.17-3.53a8.51 8.51 0 0 0 -.88 0 9.25 9.25 0 0 0 -.86 18.45l37.16 3.53h.7l24 2.27a4.29 4.29 0 0 0 4.65-3.84l.94-9.93a4.27 4.27 0 0 0 -3.84-4.64z" fill="#fff"/><path d="m232.83 187.45-1.79-.17-1.94-.18-20.22-1.92h-.69l-37.19-3.6a11.22 11.22 0 0 0 -12 8.76 11.69 11.69 0 0 0 -.21 1.34v.61a11.2 11.2 0 0 0 10.12 11.6l37.16 3.53h.71l23.94 2.27h.6a6.23 6.23 0 0 0 6.18-5.63l.94-9.92a6.21 6.21 0 0 0 -5.61-6.69zm2.72 16.55a4.29 4.29 0 0 1 -4.65 3.84l-24-2.27h-.7l-37.16-3.53a9.25 9.25 0 0 1 .86-18.45 8.51 8.51 0 0 1 .88 0l37.22 3.47h.7l24 2.28a4.27 4.27 0 0 1 3.84 4.64z" fill="#054c5c"/><path d="m152.45 173.99 19.5 29.21 8.15-16.91-17.73-18.1z" fill="#0a97b7" opacity=".53"/><path d="m203.12 157.53c-2 1.22-4 2.33-5.89 3.29a19.51 19.51 0 0 1 -23.34-4.82l-13.59-15.6c-3.8-4.37-11.6-7.92-17.4-7.92a11.93 11.93 0 0 0 -9 19.78l23.54 27.05a1.05 1.05 0 0 0 .25.52l4.59 5 1.67 1.93c.3.34.64.68 1 1l12 27a26.27 26.27 0 0 0 11.14 12.24l9.83 5.37 13.89 28.76a1 1 0 0 0 .88.55 1 1 0 0 0 .34-.06l47.68-17.86a1 1 0 0 0 .6-1.18l-15.26-54.32-8.28-35.33a17.14 17.14 0 0 0 -4.89-8.51l-4.81-4a1 1 0 0 0 -1.22 0l-1.39 1.06 1.95 1 4.17 3.5a15.09 15.09 0 0 1 4.28 7.49l8.3 35.38 15 53.5-46 17.23-13.64-28.24a.92.92 0 0 0 -.41-.44l-10.11-5.64a24.25 24.25 0 0 1 -10.23-11.26l-12.13-27.2a.86.86 0 0 0 -.23-.33 10.22 10.22 0 0 1 -1-1l-1.69-1.94-4.23-4.63a1 1 0 0 0 -.22-.48l-23.9-27.42a10 10 0 0 1 7.53-16.55c5.21 0 12.51 3.32 15.93 7.25l13.58 15.61a21.49 21.49 0 0 0 25.68 5.28c2-1 4.07-2.15 6.12-3.41 7-2.74 6.9-13.56 6.89-14a1 1 0 0 0 -.32-.71 1.09 1.09 0 0 0 -.72-.28 1 1 0 0 0 -.71.31 1 1 0 0 0 -.28.73c0 .09.11 8.66-4.58 11.57a3.57 3.57 0 0 0 -.69.35" fill="#0a97b7"/><path d="m209.1 145.17a1 1 0 0 1 .28-.73 1 1 0 0 1 .71-.31 1.09 1.09 0 0 1 .72.28 1 1 0 0 1 .32.71c0 .47.16 11.29-6.89 14-2.05 1.26-4.1 2.42-6.12 3.41a21.49 21.49 0 0 1 -25.68-5.28l-13.58-15.61c-3.42-3.93-10.72-7.25-15.93-7.25a10 10 0 0 0 -7.56 16.61l23.92 27.47a1 1 0 0 1 .22.48l4.23 4.63 1.69 1.94a10.22 10.22 0 0 0 1 1 .86.86 0 0 1 .23.33l12.11 27.15a24.25 24.25 0 0 0 10.23 11.26l10.1 5.51a.92.92 0 0 1 .41.44l13.64 28.24 46-17.23-15-53.5-8.3-35.38a15.09 15.09 0 0 0 -4.28-7.49l-4.17-3.5-1.95-1-16.22 2.36s-.13 1.55-.13 1.46z" fill="#fff"/><path d="m29.41 189.73h105.62v96.02h-105.62z" fill="#fff" transform="matrix(.9828389 -.18446599 .18446599 .9828389 -42.430068 19.239986)"/><path d="m39 295v-.24l-17.82-94.66h.24l104.05-19.52v.24l17.76 94.61h-.24zm-17.25-94.51 17.62 93.89 103.33-19.38-17.62-93.9z" fill="#c1c1c1"/><rect fill="#fff" height="13.29" rx="6.65" transform="matrix(.9828389 -.18446599 .18446599 .9828389 -33.009901 16.630072)" width="117.69" x="14.05" y="179.11"/><path d="m21.59 202.28a6.89 6.89 0 0 1 -1.27-13.67l102.6-19.25a6.89 6.89 0 1 1 2.54 13.54l-102.6 19.26a6.91 6.91 0 0 1 -1.27.12zm102.61-32.55a6 6 0 0 0 -1.19.11l-102.6 19.25a6.4 6.4 0 0 0 2.36 12.59l102.6-19.26a6.4 6.4 0 0 0 -1.17-12.69z" fill="#c1c1c1"/></g><rect fill="none" height="256" rx="42.02" stroke="#31c4c3" stroke-miterlimit="10" width="256" x=".5" y=".5"/><path d="m84.34 227h96.55a14.86 14.86 0 0 1 14.72 15 14.86 14.86 0 0 1 -14.72 15h-96.55a14.87 14.87 0 0 1 -14.73-15 14.87 14.87 0 0 1 14.73-15z" fill="#31c4c3"/><path d="m107.82 237.44h2.18v7.4h4.78v1.72h-7zm15.61 7.43v1.69h-7.38v-9.12h7.2v1.69h-5v2h4.43v1.65h-4.43v2.11zm8.04-.26h-4.47l-.84 1.95h-2.27l4.26-9.12h2.18l4.26 9.12h-2.32zm-.7-1.61-1.51-3.49-1.51 3.49zm4.85-5.56h4.38a6.27 6.27 0 0 1 2.74.57 4.39 4.39 0 0 1 0 8 6.27 6.27 0 0 1 -2.74.57h-4.34zm4.23 7.39a3.34 3.34 0 0 0 2.28-.76 2.95 2.95 0 0 0 0-4.14 3.34 3.34 0 0 0 -2.28-.76h-2v5.66zm10.88-7.39h2.21v9.12h-2.21zm4.47 0h2.21v9.12h-2.21z" fill="#fff"/></svg>