<svg viewBox="0 0 256 256" xmlns="http://www.w3.org/2000/svg"><g fill="#bc1817"><path d="m199.84 200.43h-144.04c.81-5.5 1.61-10.85 2.42-16.18q5.47-36.15 11-72.31c.5-3.35.94-6.72 1.67-9.91a27.74 27.74 0 0 1 25.73-22.62q31.26-.24 62.52 0a28.57 28.57 0 0 1 26.63 26.64c4.46 30.13 9.06 60.22 13.6 90.31.1 1.21.25 2.54.47 4.07z"/><path d="m135.42 47.86v11.14a7.57 7.57 0 0 1 -15.12.8 5.34 5.34 0 0 1 0-.8v-22.28a7.57 7.57 0 1 1 15.12-.79v.79z"/><path d="m34.91 120h-10.91a7.65 7.65 0 0 1 -8-7.26c0-.1 0-.2 0-.29a7.57 7.57 0 0 1 7.54-7.61h22.46a7.58 7.58 0 0 1 .18 15.16h-.18c-3.67 0-7.38 0-11.09 0z"/><path d="m220.76 120h-11.12a7.58 7.58 0 1 1 -.8-15.13h.8 22.26a7.58 7.58 0 0 1 .8 15.13c-.27 0-.54 0-.8 0-3.71 0-7.44 0-11.14 0z"/><path d="m60.4 82.14a18.72 18.72 0 0 1 -4.4-2.5c-5.1-4.83-10-9.91-14.95-14.87a7.55 7.55 0 0 1 10.19-11.15l.39.37c5.15 5 10.2 10.11 15.24 15.25a7.11 7.11 0 0 1 1.51 8.3 7.94 7.94 0 0 1 -7.98 4.6z"/><path d="m217.39 59.7a22.88 22.88 0 0 1 -2.8 5c-4.9 5.16-9.91 10.13-15 15.11a7.56 7.56 0 0 1 -10.68-10.69c5-5.08 9.91-10.09 15.06-15.06a7.45 7.45 0 0 1 8.53-1.61 9 9 0 0 1 4.89 7.25z"/><path d="m39.13 210.06h177.28a8.6 8.6 0 0 1 8.61 8.59 8.6 8.6 0 0 1 -8.61 8.6h-177.28a8.6 8.6 0 0 1 -8.6-8.6 8.6 8.6 0 0 1 8.6-8.59z"/></g></svg>