<svg viewBox="0 0 256 256" xmlns="http://www.w3.org/2000/svg"><path d="m68.11 128.87v66.42h-31.33v-178.74c.69 0 1.39-.11 2.08-.11 25.75 0 51.51-.07 77.26 0 13.52.05 26.17 3.3 37.15 11.54 12.31 9.26 18.73 21.9 20.43 37.02 1.26 10.85.18 21.48-4.39 31.49-7.09 15.57-19.4 24.7-36 28.35-.42.09-.84.19-1.25.3-.06 0-.1.1-.36.38l28.11 36.48c.7-.9 1.31-1.66 1.9-2.43 7.2-9.47 14.42-18.92 21.57-28.42a3.58 3.58 0 0 1 3.24-1.61c10.73.06 21.47 0 32.67 0-.6.86-1 1.48-1.44 2.07q-19.29 25.92-38.62 51.8c-1 1.4-1.16 2.24 0 3.69q19.4 25 38.65 50.16c.43.55.82 1.13 1.47 2h-2.25c-10.73 0-21.47 0-32.21 0a3.58 3.58 0 0 1 -3.22-1.64q-9.95-13.35-20-26.62c-.47-.62-1-1.22-1.54-2-5.93 7.95-11.73 15.75-17.55 23.52-1.65 2.21-2.93 5.21-5.14 6.32s-5.38.33-8.13.34h-28.15l41-54c-.41-.61-.79-1.2-1.21-1.76q-20.09-26.7-40.2-53.35a3.7 3.7 0 0 0 -2.32-1.51c-9.73-.1-19.45-.06-29.17-.05a7.55 7.55 0 0 0 -1.05.36zm.06-28.17a3.14 3.14 0 0 0 .75.22c15.3 0 30.63.47 45.9-.19 18.72-.81 30.47-17.13 26.31-35.42-2.69-11.84-13-20.53-26-20.94-14.86-.47-29.74-.19-44.6-.33-2 0-2.54.56-2.53 2.55.08 17.34 0 34.67 0 52 .08.72.14 1.41.17 2.11z" fill="#31c4c3"/></svg>