<svg viewBox="0 0 256 256" xmlns="http://www.w3.org/2000/svg"><g fill="none"><path d="m44.7 229.07.57.48-.59-.5z"/><path d="m45.34 229.6.47.35z"/><path d="m152.12 203.11c-1.74-1.44-4.27-2.15-7.6-2.15h-8.77v27.46h5.82v-9.77h2.5q5.1 0 7.88-2.35a8.4 8.4 0 0 0 2.77-6.78q0-4.26-2.6-6.41zm-4.62 9.71a6.32 6.32 0 0 1 -4 1.06h-1.92v-8.15h2.65a5.23 5.23 0 0 1 3.5 1 3.81 3.81 0 0 1 1.12 3 3.72 3.72 0 0 1 -1.35 3.09z"/><path d="m168.53 201h-8.63v27.46h7.78q7.29 0 11.15-3.61t3.86-10.38q0-6.37-3.72-9.92t-10.44-3.55zm-.3 22.65h-2.5v-17.92h3.1q7.81 0 7.81 8.85 0 9.03-8.41 9.03z"/><path d="m188.38 228.42h5.73v-10.86h9.32v-4.75h-9.32v-7.08h10.02v-4.77h-15.75z"/><path d="m45.27 229.55-.57-.48"/></g><path d="m206.16 183.18v-131h-16.42a12.38 12.38 0 0 1 -12.39-12.39v-23.79h-124.44a12.39 12.39 0 0 0 -12.39 12.39v191.42a12.25 12.25 0 0 0 1.4 5.69 12.32 12.32 0 0 0 5.68 1.39h70.59v-33.09a10.63 10.63 0 0 1 10.63-10.62z" fill="#e1f5fe"/><path d="m189.74 52.13h21.73l-34.12-36.13v23.74a12.38 12.38 0 0 0 12.39 12.39z" fill="#b3e5fc"/><path d="m45.81 230-.47-.35" fill="none"/><path d="m208.63 183.19h.37a2.45 2.45 0 0 0 2.47-2.46v-.38a2.84 2.84 0 0 1 -2.84 2.84z" fill="#e1f5fe"/><path d="m206.16 183.18h2.47a2.84 2.84 0 0 0 2.84-2.84v-128.21h-5.31z" fill="#e1f5fe"/><path d="m206.16 183.18h2.47a2.84 2.84 0 0 0 2.84-2.84v-128.21h-5.31z" fill="#e1f5fe"/><path d="m45.34 229.6c-.23-.18-.46-.37-.67-.56l-.32-.29.32.29.59.5h.07l.47.35z" fill="#e1f5fe"/><path d="m41.92 225.5c.11.2.22.4.34.6l.16.26c.12.19.24.38.37.57a13 13 0 0 0 .86 1.07 3.45 3.45 0 0 0 .26.28 5.66 5.66 0 0 0 .42.43l.32.29c.21.19.44.38.67.56l.47.35.4.27.54.33.34.2c.29.15.58.29.88.42l.33.14.73.26.31.1q.49.15 1 .27h.22a8.46 8.46 0 0 0 .9.14h.3a10.69 10.69 0 0 0 1.13.06h60a5.31 5.31 0 0 0 5.31-5.31h-70.58a12.32 12.32 0 0 1 -5.68-1.29z" fill="#e1f5fe"/><path d="m41.92 225.5c.11.2.22.4.34.6l.16.26c.12.19.24.38.37.57a13 13 0 0 0 .86 1.07 3.45 3.45 0 0 0 .26.28 5.66 5.66 0 0 0 .42.43l.32.29c.21.19.44.38.67.56l.47.35.4.27.54.33.34.2c.29.15.58.29.88.42l.33.14.73.26.31.1q.49.15 1 .27h.22a8.46 8.46 0 0 0 .9.14h.3a10.69 10.69 0 0 0 1.13.06h60a5.31 5.31 0 0 0 5.31-5.31h-70.58a12.32 12.32 0 0 1 -5.68-1.29z" fill="#e1f5fe"/><path d="m204.86 189.38h-69.86a10.62 10.62 0 0 0 -10.61 10.62v29.38a10.63 10.63 0 0 0 10.61 10.62h69.85a10.63 10.63 0 0 0 10.62-10.62v-29.38a10.62 10.62 0 0 0 -10.61-10.62zm-52.86 26.92q-2.77 2.35-7.88 2.35h-2.5v9.77h-5.82v-27.42h8.77c3.33 0 5.86.71 7.6 2.15s2.6 3.57 2.6 6.41a8.4 8.4 0 0 1 -2.77 6.74zm26.88 8.51q-3.86 3.62-11.15 3.61h-7.83v-27.42h8.63q6.72 0 10.44 3.55t3.72 9.92q0 6.74-3.86 10.34zm25.3-19.08h-10v7.08h9.32v4.75h-9.32v10.86h-5.73v-27.42h15.75z" fill="#ef8db6"/><path d="m144.22 205.73h-2.65v8.15h1.92a6.32 6.32 0 0 0 4-1.06 3.72 3.72 0 0 0 1.34-3.09 3.81 3.81 0 0 0 -1.12-3 5.23 5.23 0 0 0 -3.49-1z" fill="#ef8db6"/><path d="m168.83 205.73h-3.1v17.88h2.5q8.42 0 8.41-9 0-8.88-7.81-8.88z" fill="#ef8db6"/><path d="m100.09 118.61v31h-14.6v-83.34h1 36c6.3 0 12.19 1.53 17.3 5.37 5.74 4.31 8.71 10.2 9.53 17.23a27.26 27.26 0 0 1 -2.05 14.68c-3.31 7.26-9 11.51-16.76 13.21l-.59.14s0 0-.16.18l13.08 17 .89-1.13c3.35-4.41 6.72-8.82 10-13.25a1.65 1.65 0 0 1 1.51-.74h15.23l-.67 1q-9 12.07-18 24.14a1.17 1.17 0 0 0 0 1.72q9 11.66 18 23.37c.2.26.38.53.69 1h-1c-5 0-10 0-15 0a1.65 1.65 0 0 1 -1.5-.76c-3.09-4.15-6.21-8.27-9.32-12.41-.22-.29-.45-.57-.72-.91-2.76 3.71-5.47 7.34-8.18 11-.76 1-1.36 2.43-2.39 2.94s-2.51.16-3.79.16h-13.15c6.44-8.46 12.76-16.77 19.12-25.15-.19-.28-.36-.56-.56-.82q-9.36-12.44-18.74-24.86a1.67 1.67 0 0 0 -1.08-.7c-4.53 0-9.06 0-13.59 0a4.21 4.21 0 0 0 -.5-.07zm0-13.13a1.48 1.48 0 0 0 .35.11c7.13 0 14.27.21 21.39-.1 8.72-.37 14.2-8 12.26-16.5a12.6 12.6 0 0 0 -12.09-9.76c-6.92-.22-13.85-.09-20.78-.15-.94 0-1.18.26-1.18 1.19v24.23c.04.33.06.66.08.98z" fill="#054c5c"/></svg>