<svg viewBox="0 0 256 256" xmlns="http://www.w3.org/2000/svg" xmlns:xlink="http://www.w3.org/1999/xlink"><linearGradient id="a" gradientTransform="matrix(36.55 0 0 -30 10778.41 70089)" gradientUnits="userSpaceOnUse" x1="-291.42" x2="-291.42" y1="2335.04" y2="2328.49"><stop offset="0" stop-color="#92e0d2"/><stop offset="1" stop-color="#0a97b7"/></linearGradient><path d="m230.64 59.69h-4.87v-2.51a11.72 11.72 0 0 0 -11.72-11.7h-5.39a11.73 11.73 0 0 0 -11.48-9.37h-155.18a11.73 11.73 0 0 0 -11.75 11.71v16.74h4.69v-16.74a7 7 0 0 1 7-7h155.22a7 7 0 0 1 6.62 4.68h-145a11.73 11.73 0 0 0 -11.68 11.69v7.35h4.69v-7.35a7 7 0 0 1 7-7h155.21a7 7 0 0 1 7 7v2.51h-32a9.4 9.4 0 0 0 -9.37 9.37v4.44h-154.26a9.39 9.39 0 0 0 -9.37 9.37v127.64a9.39 9.39 0 0 0 9.37 9.37h205.26a9.4 9.4 0 0 0 9.37-9.37v-141.45a9.4 9.4 0 0 0 -9.36-9.38zm-2.49 119.39a5.62 5.62 0 0 1 -5.61 5.62h-14v14a5.63 5.63 0 0 1 -5.62 5.61h-2.8a5.63 5.63 0 0 1 -5.62-5.61v-14h-14a5.64 5.64 0 0 1 -5.62-5.62v-2.8a5.63 5.63 0 0 1 5.62-5.61h14v-14a5.64 5.64 0 0 1 5.62-5.62h2.8a5.64 5.64 0 0 1 5.62 5.62v14h14a5.61 5.61 0 0 1 5.61 5.61z" fill="url(#a)"/></svg>