<svg viewBox="0 0 256 256" xmlns="http://www.w3.org/2000/svg"><path d="m128 23a5.26 5.26 0 0 0 -5.25 5.25h10.5a5.26 5.26 0 0 0 -5.25-5.25z" fill="none"/><path d="m163.87 32.17a3.91 3.91 0 0 0 -3.89-3.9h-19.71a12.27 12.27 0 0 0 -24.54 0h-19.73a3.91 3.91 0 0 0 -3.89 3.9v9h71.74zm-35.87-9.17a5.26 5.26 0 0 1 5.25 5.25h-10.5a5.26 5.26 0 0 1 5.25-5.25z" fill="#808080"/><g fill="#fff"><path d="m189.58 66.92a2.41 2.41 0 0 0 .08.25 2.41 2.41 0 0 1 -.08-.25z"/><path d="m189.35 66.32c0 .09.07.17.1.25-.03-.08-.07-.16-.1-.25z"/><path d="m189.07 65.76.12.24z"/><path d="m189.87 68.22v.22z"/><path d="m72.28 218.9h-.21z"/><path d="m189.75 67.55.06.25z"/><path d="m66.22 213.52a7.19 7.19 0 0 0 1.47.16h110.11a6.88 6.88 0 0 0 6.88-6.88v-143a6.43 6.43 0 0 0 -.16-1.47 7 7 0 0 0 -1.46-.16h-110.12a6.88 6.88 0 0 0 -6.88 6.88v143a6.76 6.76 0 0 0 .49 2.51 6.11 6.11 0 0 1 -.33-1.04zm38.36-132.87h69a2.11 2.11 0 1 1 0 4.21h-69a2.11 2.11 0 1 1 0-4.21zm0 29.32h69a2.11 2.11 0 0 1 0 4.22h-69a2.11 2.11 0 0 1 0-4.22zm0 29.6h69a2.11 2.11 0 1 1 0 4.21h-69a2.11 2.11 0 1 1 0-4.21zm0 29.45h69a2.11 2.11 0 0 1 0 4.22h-69a2.11 2.11 0 0 1 0-4.22zm0 28.92h69a2.11 2.11 0 0 1 0 4.22h-69a2.11 2.11 0 0 1 0-4.22zm-20.17-123.94a8.78 8.78 0 1 1 -8.77 8.78 8.78 8.78 0 0 1 8.77-8.78zm0 29.32a8.78 8.78 0 1 1 -8.77 8.78 8.78 8.78 0 0 1 8.77-8.8zm0 29.33a8.78 8.78 0 1 1 -8.77 8.77 8.78 8.78 0 0 1 8.77-8.79zm0 29.32a8.78 8.78 0 1 1 -8.77 8.78 8.78 8.78 0 0 1 8.77-8.75zm0 29.32a8.78 8.78 0 1 1 -8.77 8.78 8.78 8.78 0 0 1 8.77-8.8z"/><path d="m185.65 62.73c.13.05.26.12.38.18-.12-.06-.25-.13-.38-.18z"/><path d="m186.21 63 .34.19z"/><path d="m187.73 64.07a2.73 2.73 0 0 1 .25.23 2.73 2.73 0 0 0 -.25-.23z"/><path d="m188.74 65.23a1.48 1.48 0 0 1 .13.21 2.39 2.39 0 0 0 -.13-.21z"/><path d="m188.18 64.52c.07.08.14.15.21.24-.07-.09-.14-.16-.21-.24z"/><path d="m186.75 63.31a3.28 3.28 0 0 1 .31.2 3.28 3.28 0 0 0 -.31-.2z"/><path d="m67.73 216.53-.22-.27z"/><path d="m67.35 216.06-.2-.31z"/><path d="m67 215.55a3.72 3.72 0 0 1 -.19-.34 3.72 3.72 0 0 0 .19.34z"/><path d="m66.75 215-.18-.38z"/><path d="m68.14 217-.23-.25z"/><path d="m71 218.66-.26-.08z"/><path d="m71.64 218.81-.25-.06z"/><path d="m70.42 218.45-.25-.1z"/><path d="m69.84 218.19-.24-.12z"/><path d="m69.28 217.87-.21-.13z"/><path d="m68.6 217.39-.24-.21z"/><path d="m187.26 63.66.27.22z"/><path d="m184.53 62.38a7.36 7.36 0 0 1 1 .32 7.36 7.36 0 0 0 -1-.32z"/></g><path d="m104.58 84.86h69a2.11 2.11 0 1 0 0-4.21h-69a2.11 2.11 0 1 0 0 4.21z" fill="#757575"/><path d="m104.58 114.19h69a2.11 2.11 0 0 0 0-4.22h-69a2.11 2.11 0 0 0 0 4.22z" fill="#757575"/><path d="m104.58 143.78h69a2.11 2.11 0 1 0 0-4.21h-69a2.11 2.11 0 1 0 0 4.21z" fill="#757575"/><path d="m104.58 173.24h69a2.11 2.11 0 0 0 0-4.22h-69a2.11 2.11 0 0 0 0 4.22z" fill="#757575"/><circle cx="84.41" cy="82.76" fill="#4dd0e1" r="8.78" transform="matrix(.99 -.16 .16 .99 -12.17 14.59)"/><circle cx="84.41" cy="112.08" fill="#4dd0e1" r="8.78" transform="matrix(.97325912 -.22971002 .22971002 .97325912 -23.49 22.39)"/><circle cx="84.41" cy="141.4" fill="#4dd0e1" r="8.78" transform="matrix(.70710678 -.70710678 .70710678 .70710678 -75.26 101.11)"/><circle cx="84.41" cy="170.73" fill="#4dd0e1" r="8.78" transform="matrix(.99747808 -.07097518 .07097518 .99747808 -11.89 6.41)"/><path d="m104.58 202.16h69a2.11 2.11 0 0 0 0-4.22h-69a2.11 2.11 0 0 0 0 4.22z" fill="#757575"/><circle cx="84.41" cy="200.05" fill="#4dd0e1" r="8.78" transform="matrix(.38268343 -.92387953 .92387953 .38268343 -132.71 201.48)"/><path d="m211 47.38v-.22c0-.14 0-.28-.07-.42a1.84 1.84 0 0 0 -.05-.25c0-.13-.06-.25-.1-.38a2.41 2.41 0 0 0 -.08-.25c0-.12-.08-.23-.13-.35a2.44 2.44 0 0 0 -.1-.24 3.36 3.36 0 0 0 -.16-.33l-.12-.24c-.06-.11-.13-.21-.2-.32a2.39 2.39 0 0 0 -.13-.21c-.11-.16-.23-.32-.35-.47l-.21-.24-.2-.22-.25-.23a1.12 1.12 0 0 0 -.2-.18l-.27-.23-.2-.15-.31-.21-.2-.12-.34-.19-.17-.08a3.39 3.39 0 0 0 -.39-.18h-.05a6.62 6.62 0 0 0 -1.07-.33 6.56 6.56 0 0 0 -1.47-.16h-152.3a6.89 6.89 0 0 0 -6.88 6.82v185.12a7.19 7.19 0 0 0 .16 1.47 7.39 7.39 0 0 0 .33 1.07v.05l.18.39.08.17a3.79 3.79 0 0 0 .2.34 2.12 2.12 0 0 0 .12.2 2.82 2.82 0 0 0 .21.31l.14.19.23.28.18.2c.08.08.15.17.24.25l.21.2.24.21.47.35.21.13.32.2.24.12.33.16.25.1.34.13.26.08.37.1.25.05.43.07h.21q.33 0 .66 0h152.26a6.9 6.9 0 0 0 6.88-6.88v-185.06q0-.3 0-.62zm-144.94 21.72a6.88 6.88 0 0 1 6.88-6.88h110.12a7 7 0 0 1 1.46.16 7.36 7.36 0 0 1 1 .32h.08c.13.05.26.12.38.18l.18.08.34.19a1.37 1.37 0 0 1 .2.13 3.28 3.28 0 0 1 .31.2l.2.15.27.22a1.8 1.8 0 0 1 .2.19 2.73 2.73 0 0 1 .25.23l.2.22c.07.08.14.15.21.24a5.74 5.74 0 0 1 .35.47 2.39 2.39 0 0 1 .13.21c.07.11.14.21.2.32l.12.24c.05.1.11.21.16.32s.07.17.1.25.09.23.13.35a2.41 2.41 0 0 0 .08.25l.09.38.06.25c0 .14 0 .28.06.42v.22.66 143a6.88 6.88 0 0 1 -6.88 6.87h-110-.66-.21l-.43-.06-.25-.06-.37-.09-.26-.08-.34-.13-.25-.1-.33-.16-.24-.12-.32-.2-.21-.13-.47-.35-.24-.21-.22-.2-.23-.25-.18-.2-.22-.27-.16-.2-.2-.31-.12-.2a3.72 3.72 0 0 1 -.19-.34l-.09-.18-.18-.38s0-.05 0-.08a6.76 6.76 0 0 1 -.49-2.51z" fill="#5d4037"/><path d="m69.6 218.07-.32-.2z" fill="#5d4037"/><path d="m69.6 218.07-.32-.2z" fill="#efefef"/><path d="m70.17 218.35-.33-.16z" fill="#5d4037"/><path d="m70.17 218.35-.33-.16z" fill="#efefef"/><path d="m71.39 218.75-.37-.09z" fill="#5d4037"/><path d="m71.39 218.75-.37-.09z" fill="#efefef"/><path d="m66.57 214.65s0-.05 0-.08-.01.05 0 .08z" fill="#5d4037"/><path d="m66.57 214.65s0-.05 0-.08-.01.05 0 .08z" fill="#efefef"/><path d="m72.07 218.87-.43-.06z" fill="#5d4037"/><path d="m72.07 218.87-.43-.06z" fill="#efefef"/><path d="m72.94 218.93h-.66z" fill="#5d4037"/><path d="m72.94 218.93h-.66z" fill="#efefef"/><path d="m66.84 215.21-.09-.18z" fill="#5d4037"/><path d="m66.84 215.21-.09-.18z" fill="#efefef"/><path d="m67.51 216.26-.16-.2z" fill="#5d4037"/><path d="m67.51 216.26-.16-.2z" fill="#efefef"/><path d="m69.07 217.74-.47-.35z" fill="#5d4037"/><path d="m69.07 217.74-.47-.35z" fill="#efefef"/><path d="m189.9 68.44v.66c.04-.22.02-.44 0-.66z" fill="#5d4037"/><path d="m189.9 68.44v.66c.04-.22.02-.44 0-.66z" fill="#efefef"/><path d="m67.15 215.75-.12-.2z" fill="#5d4037"/><path d="m67.15 215.75-.12-.2z" fill="#efefef"/><path d="m68.36 217.18-.22-.2z" fill="#5d4037"/><path d="m68.36 217.18-.22-.2z" fill="#efefef"/><path d="m67.91 216.73-.18-.2z" fill="#5d4037"/><path d="m67.91 216.73-.18-.2z" fill="#efefef"/><path d="m70.76 218.58-.34-.13z" fill="#5d4037"/><path d="m70.76 218.58-.34-.13z" fill="#efefef"/><path d="m186.55 63.18a1.37 1.37 0 0 1 .2.13 1.37 1.37 0 0 0 -.2-.13z" fill="#5d4037"/><path d="m186.55 63.18a1.37 1.37 0 0 1 .2.13 1.37 1.37 0 0 0 -.2-.13z" fill="#efefef"/><path d="m186 62.91.18.08z" fill="#5d4037"/><path d="m186 62.91.18.08z" fill="#efefef"/><path d="m187.53 63.88a1.8 1.8 0 0 1 .2.19 1.8 1.8 0 0 0 -.2-.19z" fill="#5d4037"/><path d="m187.53 63.88a1.8 1.8 0 0 1 .2.19 1.8 1.8 0 0 0 -.2-.19z" fill="#efefef"/><path d="m187.06 63.51.2.15z" fill="#5d4037"/><path d="m187.06 63.51.2.15z" fill="#efefef"/><path d="m185.57 62.7h.08z" fill="#5d4037"/><path d="m185.57 62.7h.08z" fill="#efefef"/><path d="m184.52 62.38h.01z" fill="#5d4037"/><path d="m184.52 62.38h.01z" fill="#efefef"/><path d="m188 64.3.2.22z" fill="#5d4037"/><path d="m188 64.3.2.22z" fill="#efefef"/><path d="m189.81 67.8c0 .14 0 .28.06.42-.02-.14-.03-.28-.06-.42z" fill="#5d4037"/><path d="m189.81 67.8c0 .14 0 .28.06.42-.02-.14-.03-.28-.06-.42z" fill="#efefef"/><path d="m189.19 66c.05.1.11.21.16.32-.05-.11-.11-.22-.16-.32z" fill="#5d4037"/><path d="m189.19 66c.05.1.11.21.16.32-.05-.11-.11-.22-.16-.32z" fill="#efefef"/><path d="m189.66 67.17.09.38z" fill="#5d4037"/><path d="m189.66 67.17.09.38z" fill="#efefef"/><path d="m189.45 66.57c0 .12.09.23.13.35-.04-.12-.09-.23-.13-.35z" fill="#5d4037"/><path d="m189.45 66.57c0 .12.09.23.13.35-.04-.12-.09-.23-.13-.35z" fill="#efefef"/><path d="m188.87 65.44a3.45 3.45 0 0 1 .2.32c-.07-.11-.13-.21-.2-.32z" fill="#5d4037"/><path d="m188.87 65.44a3.45 3.45 0 0 1 .2.32c-.07-.11-.13-.21-.2-.32z" fill="#efefef"/><path d="m188.39 64.76a5.74 5.74 0 0 1 .35.47 5.74 5.74 0 0 0 -.35-.47z" fill="#5d4037"/><path d="m188.39 64.76a5.74 5.74 0 0 1 .35.47 5.74 5.74 0 0 0 -.35-.47z" fill="#efefef"/><path d="m184.68 206.8a6.88 6.88 0 0 1 -6.88 6.88h-110.11a7.19 7.19 0 0 1 -1.47-.16 6.11 6.11 0 0 0 .33 1s0 .05 0 .08l.18.38.09.18a3.72 3.72 0 0 0 .19.34l.12.2.2.31.16.2.22.27.18.2.23.25.22.2.24.21.47.35.21.13.32.2.24.12.33.16.25.1.34.13.26.08.37.09.25.06.43.06h.21.66 110.14a6.88 6.88 0 0 0 6.88-6.87v-142.85c0-.22 0-.44 0-.66v-.22c0-.14 0-.28-.06-.42l-.06-.25-.09-.38a2.41 2.41 0 0 1 -.08-.25c0-.12-.09-.23-.13-.35s-.07-.16-.1-.25-.11-.22-.16-.32l-.12-.24a3.45 3.45 0 0 0 -.2-.32 1.48 1.48 0 0 0 -.13-.21 5.74 5.74 0 0 0 -.35-.47c-.07-.09-.14-.16-.21-.24l-.2-.22a2.73 2.73 0 0 0 -.25-.23 1.8 1.8 0 0 0 -.2-.19l-.27-.22-.2-.15a3.28 3.28 0 0 0 -.31-.2 1.37 1.37 0 0 0 -.2-.13l-.34-.19-.18-.08c-.12-.06-.25-.13-.38-.18h-.08a7.36 7.36 0 0 0 -1-.32 6.43 6.43 0 0 1 .16 1.47z" fill="#fff"/><path d="m184.68 206.8a6.88 6.88 0 0 1 -6.88 6.88h-110.11a7.19 7.19 0 0 1 -1.47-.16 6.11 6.11 0 0 0 .33 1s0 .05 0 .08l.18.38.09.18a3.72 3.72 0 0 0 .19.34l.12.2.2.31.16.2.22.27.18.2.23.25.22.2.24.21.47.35.21.13.32.2.24.12.33.16.25.1.34.13.26.08.37.09.25.06.43.06h.21.66 110.14a6.88 6.88 0 0 0 6.88-6.87v-142.85c0-.22 0-.44 0-.66v-.22c0-.14 0-.28-.06-.42l-.06-.25-.09-.38a2.41 2.41 0 0 1 -.08-.25c0-.12-.09-.23-.13-.35s-.07-.16-.1-.25-.11-.22-.16-.32l-.12-.24a3.45 3.45 0 0 0 -.2-.32 1.48 1.48 0 0 0 -.13-.21 5.74 5.74 0 0 0 -.35-.47c-.07-.09-.14-.16-.21-.24l-.2-.22a2.73 2.73 0 0 0 -.25-.23 1.8 1.8 0 0 0 -.2-.19l-.27-.22-.2-.15a3.28 3.28 0 0 0 -.31-.2 1.37 1.37 0 0 0 -.2-.13l-.34-.19-.18-.08c-.12-.06-.25-.13-.38-.18h-.08a7.36 7.36 0 0 0 -1-.32 6.43 6.43 0 0 1 .16 1.47z" fill="#efefef"/></svg>