<svg viewBox="0 0 256 256" xmlns="http://www.w3.org/2000/svg"><path d="m44.7 229.07.57.48-.59-.5z" fill="none"/><path d="m45.34 229.6.47.35z" fill="none"/><path d="m152.12 203.11c-1.74-1.44-4.27-2.15-7.6-2.15h-8.77v27.46h5.82v-9.77h2.5q5.1 0 7.88-2.35a8.4 8.4 0 0 0 2.77-6.78q0-4.26-2.6-6.41zm-4.62 9.71a6.32 6.32 0 0 1 -4 1.06h-1.92v-8.15h2.65a5.23 5.23 0 0 1 3.5 1 3.81 3.81 0 0 1 1.12 3 3.72 3.72 0 0 1 -1.35 3.09z" fill="none"/><path d="m168.53 201h-8.63v27.46h7.78q7.29 0 11.15-3.61t3.86-10.38q0-6.37-3.72-9.92t-10.44-3.55zm-.3 22.65h-2.5v-17.92h3.1q7.81 0 7.81 8.85 0 9.03-8.41 9.03z" fill="none"/><path d="m188.38 228.42h5.73v-10.86h9.32v-4.75h-9.32v-7.08h10.02v-4.77h-15.75z" fill="none"/><path d="m45.27 229.55-.57-.48" fill="none"/><path d="m206.16 183.18v-131h-16.42a12.38 12.38 0 0 1 -12.39-12.39v-23.79h-124.44a12.39 12.39 0 0 0 -12.39 12.39v191.42a12.25 12.25 0 0 0 1.4 5.69 12.32 12.32 0 0 0 5.68 1.39h70.59v-33.09a10.63 10.63 0 0 1 10.63-10.62z" fill="#e1f5fe"/><path d="m189.74 52.13h21.73l-34.12-36.13v23.74a12.38 12.38 0 0 0 12.39 12.39z" fill="#b3e5fc"/><path d="m45.81 230-.47-.35" fill="none"/><path d="m208.63 183.19h.37a2.45 2.45 0 0 0 2.47-2.46v-.38a2.84 2.84 0 0 1 -2.84 2.84z" fill="#e1f5fe"/><path d="m206.16 183.18h2.47a2.84 2.84 0 0 0 2.84-2.84v-128.21h-5.31z" fill="#e1f5fe"/><path d="m206.16 183.18h2.47a2.84 2.84 0 0 0 2.84-2.84v-128.21h-5.31z" fill="#e1f5fe"/><path d="m45.34 229.6c-.23-.18-.46-.37-.67-.56l-.32-.29.32.29.59.5h.07l.47.35z" fill="#e1f5fe"/><path d="m41.92 225.5c.11.2.22.4.34.6l.16.26c.12.19.24.38.37.57a13 13 0 0 0 .86 1.07 3.45 3.45 0 0 0 .26.28 5.66 5.66 0 0 0 .42.43l.32.29c.21.19.44.38.67.56l.47.35.4.27.54.33.34.2c.29.15.58.29.88.42l.33.14.73.26.31.1q.49.15 1 .27h.22a8.46 8.46 0 0 0 .9.14h.3a10.69 10.69 0 0 0 1.13.06h60a5.31 5.31 0 0 0 5.31-5.31h-70.58a12.32 12.32 0 0 1 -5.68-1.29z" fill="#e1f5fe"/><path d="m41.92 225.5c.11.2.22.4.34.6l.16.26c.12.19.24.38.37.57a13 13 0 0 0 .86 1.07 3.45 3.45 0 0 0 .26.28 5.66 5.66 0 0 0 .42.43l.32.29c.21.19.44.38.67.56l.47.35.4.27.54.33.34.2c.29.15.58.29.88.42l.33.14.73.26.31.1q.49.15 1 .27h.22a8.46 8.46 0 0 0 .9.14h.3a10.69 10.69 0 0 0 1.13.06h60a5.31 5.31 0 0 0 5.31-5.31h-70.58a12.32 12.32 0 0 1 -5.68-1.29z" fill="#e1f5fe"/><path d="m204.86 189.38h-69.86a10.62 10.62 0 0 0 -10.61 10.62v29.38a10.63 10.63 0 0 0 10.61 10.62h69.85a10.63 10.63 0 0 0 10.62-10.62v-29.38a10.62 10.62 0 0 0 -10.61-10.62zm-52.86 26.92q-2.77 2.35-7.88 2.35h-2.5v9.77h-5.82v-27.42h8.77c3.33 0 5.86.71 7.6 2.15s2.6 3.57 2.6 6.41a8.4 8.4 0 0 1 -2.77 6.74zm26.88 8.51q-3.86 3.62-11.15 3.61h-7.83v-27.42h8.63q6.72 0 10.44 3.55t3.72 9.92q0 6.74-3.86 10.34zm25.3-19.08h-10v7.08h9.32v4.75h-9.32v10.86h-5.73v-27.42h15.75z" fill="#ef8db6"/><path d="m144.22 205.73h-2.65v8.15h1.92a6.32 6.32 0 0 0 4-1.06 3.72 3.72 0 0 0 1.34-3.09 3.81 3.81 0 0 0 -1.12-3 5.23 5.23 0 0 0 -3.49-1z" fill="#ef8db6"/><path d="m168.83 205.73h-3.1v17.88h2.5q8.42 0 8.41-9 0-8.88-7.81-8.88z" fill="#ef8db6"/><path d="m126 68.8a2.44 2.44 0 0 0 -2.44 2.44h4.88a2.45 2.45 0 0 0 -2.44-2.44z" fill="none"/><path d="m142.61 73.05a1.82 1.82 0 0 0 -1.81-1.81h-9.14a5.7 5.7 0 0 0 -11.4 0h-9.15a1.82 1.82 0 0 0 -1.81 1.81v4.17h33.31zm-16.61-4.25a2.45 2.45 0 0 1 2.44 2.44h-4.88a2.44 2.44 0 0 1 2.44-2.44z" fill="#808080"/><g fill="#fff"><path d="m154.55 89.18v.12z"/><path d="m154.44 88.91.05.11z"/><path d="m154.31 88.65.06.11z"/><path d="m154.68 89.79s0 .07 0 .1.01-.07 0-.1z"/><path d="m100.09 159.75h-.1z"/><path d="m154.63 89.48a.36.36 0 0 1 0 .11.36.36 0 0 0 0-.11z"/><path d="m97.28 157.25a3 3 0 0 0 .68.07h51.12a3.19 3.19 0 0 0 3.19-3.19v-66.37a3 3 0 0 0 -.07-.68 3.08 3.08 0 0 0 -.68-.08h-51.13a3.19 3.19 0 0 0 -3.19 3.2v66.37a3.24 3.24 0 0 0 .22 1.17 2.75 2.75 0 0 1 -.14-.49zm17.8-61.69h32a1 1 0 1 1 0 2h-32a1 1 0 1 1 0-2zm0 13.61h32a1 1 0 0 1 0 2h-32a1 1 0 1 1 0-2zm0 13.74h32a1 1 0 0 1 0 2h-32a1 1 0 0 1 0-2zm0 13.68h32a1 1 0 0 1 0 2h-32a1 1 0 0 1 0-2zm0 13.43h32a1 1 0 1 1 0 1.95h-32a1 1 0 1 1 0-1.95zm-9.36-57.56a4.08 4.08 0 1 1 -4.07 4.08 4.08 4.08 0 0 1 4.07-4.08zm0 13.62a4.08 4.08 0 1 1 -4.07 4.07 4.08 4.08 0 0 1 4.07-4.07zm0 13.61a4.08 4.08 0 1 1 -4.07 4.08 4.08 4.08 0 0 1 4.07-4.08zm0 13.62a4.08 4.08 0 1 1 -4.07 4.07 4.08 4.08 0 0 1 4.07-4.07zm0 13.61a4.08 4.08 0 1 1 -4.07 4.07 4.08 4.08 0 0 1 4.07-4.07z"/><path d="m152.72 87.24.18.08z"/><path d="m153 87.36.16.09z"/><path d="m153.69 87.86.11.11z"/><path d="m154.16 88.4.06.1z"/><path d="m153.9 88.07.09.11z"/><path d="m153.23 87.51.15.09z"/><path d="m98 158.65-.1-.13z"/><path d="m97.8 158.43-.1-.15z"/><path d="m97.65 158.19-.09-.15z"/><path d="m97.52 158a1.42 1.42 0 0 1 -.08-.18 1.42 1.42 0 0 0 .08.18z"/><path d="m98.17 158.85-.11-.11z"/><path d="m99.5 159.63h-.12z"/><path d="m99.79 159.7h-.12z"/><path d="m99.22 159.54h-.11z"/><path d="m99 159.42-.11-.06z"/><path d="m98.69 159.27-.09-.06z"/><path d="m98.38 159-.11-.09z"/><path d="m153.47 87.67.13.11z"/><path d="m152.2 87.08a2.44 2.44 0 0 1 .48.15 2.44 2.44 0 0 0 -.48-.15z"/></g><path d="m115.08 97.52h32a1 1 0 1 0 0-2h-32a1 1 0 1 0 0 2z" fill="#757575"/><path d="m115.08 111.13h32a1 1 0 0 0 0-2h-32a1 1 0 1 0 0 2z" fill="#757575"/><path d="m115.08 124.87h32a1 1 0 0 0 0-2h-32a1 1 0 0 0 0 2z" fill="#757575"/><path d="m115.08 138.55h32a1 1 0 0 0 0-2h-32a1 1 0 0 0 0 2z" fill="#757575"/><circle cx="105.72" cy="96.54" fill="#4dd0e1" r="4.08" transform="matrix(.9870804 -.16022575 .16022575 .9870804 -14.1 18.18)"/><circle cx="105.72" cy="110.15" fill="#4dd0e1" r="4.08" transform="matrix(.97325912 -.22971002 .22971002 .97325912 -22.48 27.24)"/><circle cx="105.72" cy="123.77" fill="#4dd0e1" r="4.08"/><circle cx="105.72" cy="137.38" fill="#4dd0e1" r="4.08" transform="matrix(.99747808 -.07097518 .07097518 .99747808 -9.47 7.84)"/><path d="m115.08 152h32a1 1 0 1 0 0-1.95h-32a1 1 0 1 0 0 1.95z" fill="#757575"/><circle cx="105.72" cy="150.99" fill="#4dd0e1" r="4.08"/><path d="m164.48 80.11s0-.06 0-.1a.75.75 0 0 0 0-.2.43.43 0 0 0 0-.11c0-.06 0-.12 0-.18v-.11l-.06-.16-.05-.12a1.09 1.09 0 0 0 -.08-.15.37.37 0 0 0 0-.11l-.09-.15-.06-.1-.17-.22-.1-.11-.09-.1-.11-.11-.09-.08-.13-.11-.1-.07-.14-.09-.09-.06-.16-.09h-.08l-.18-.08a4.13 4.13 0 0 0 -.5-.15 3.08 3.08 0 0 0 -.68-.08h-70.91a3.21 3.21 0 0 0 -3.19 3.2v85.93a3.08 3.08 0 0 0 .08.68 2.88 2.88 0 0 0 .15.5 1.42 1.42 0 0 0 .08.18v.08l.09.16a.41.41 0 0 1 0 .09l.1.14a.86.86 0 0 0 .07.1l.11.13.08.09.11.11.1.09.11.1.22.17.1.06.15.09.11.06.15.07h.11l.16.06h.12l.18.05h.11a.69.69 0 0 0 .2 0h.1 71a3.19 3.19 0 0 0 3.19-3.19v-85.8c.09-.11.09-.21.08-.31zm-67.28 10.09a3.19 3.19 0 0 1 3.19-3.2h51.13a3.08 3.08 0 0 1 .68.08 2.44 2.44 0 0 1 .48.15l.18.08h.08l.16.09.09.06.15.09.09.07.13.11.09.08.11.11.1.1.09.11a1.84 1.84 0 0 1 .17.22l.06.1s.06.09.09.15l.06.11.07.15.05.11.06.16v.12.18a.36.36 0 0 1 0 .11 1.38 1.38 0 0 1 0 .2s0 .07 0 .1 0 .2 0 .31v66.37a3.19 3.19 0 0 1 -3.19 3.19h-51.23-.1a.64.64 0 0 1 -.2 0h-.12l-.17-.05h-.12l-.16-.06h-.11l-.16-.07-.11-.06-.15-.09-.09-.06a1.84 1.84 0 0 1 -.22-.17l-.11-.09-.1-.1-.11-.11-.09-.09-.1-.13-.07-.09-.1-.15v-.09l-.09-.15a.36.36 0 0 1 0-.09 1.42 1.42 0 0 1 -.08-.18 3.24 3.24 0 0 1 -.22-1.17z" fill="#5d4037"/><path d="m98.84 159.36-.15-.09z" fill="#5d4037"/><path d="m98.84 159.36-.15-.09z" fill="#efefef"/><path d="m99.11 159.49-.16-.07z" fill="#5d4037"/><path d="m99.11 159.49-.16-.07z" fill="#efefef"/><path d="m99.67 159.68-.17-.05z" fill="#5d4037"/><path d="m99.67 159.68-.17-.05z" fill="#efefef"/><path d="m100 159.73a.64.64 0 0 1 -.2 0 .64.64 0 0 0 .2 0z" fill="#5d4037"/><path d="m100 159.73a.64.64 0 0 1 -.2 0 .64.64 0 0 0 .2 0z" fill="#efefef"/><path d="m97.56 158a.36.36 0 0 1 0-.09.36.36 0 0 0 0 .09z" fill="#5d4037"/><path d="m97.56 158a.36.36 0 0 1 0-.09.36.36 0 0 0 0 .09z" fill="#efefef"/><path d="m97.87 158.52-.07-.09z" fill="#5d4037"/><path d="m97.87 158.52-.07-.09z" fill="#efefef"/><path d="m98.6 159.21a1.84 1.84 0 0 1 -.22-.17 1.84 1.84 0 0 0 .22.17z" fill="#5d4037"/><path d="m98.6 159.21a1.84 1.84 0 0 1 -.22-.17 1.84 1.84 0 0 0 .22.17z" fill="#efefef"/><path d="m154.7 89.89v.31c.01-.11.01-.2 0-.31z" fill="#5d4037"/><path d="m154.7 89.89v.31c.01-.11.01-.2 0-.31z" fill="#efefef"/><path d="m97.7 158.28v-.09z" fill="#5d4037"/><path d="m97.7 158.28v-.09z" fill="#efefef"/><path d="m98.27 159-.1-.1z" fill="#5d4037"/><path d="m98.27 159-.1-.1z" fill="#efefef"/><path d="m98.06 158.74-.09-.09z" fill="#5d4037"/><path d="m98.06 158.74-.09-.09z" fill="#efefef"/><path d="m99.38 159.6-.16-.06z" fill="#5d4037"/><path d="m99.38 159.6-.16-.06z" fill="#efefef"/><path d="m153.14 87.45.09.06z" fill="#5d4037"/><path d="m153.14 87.45.09.06z" fill="#efefef"/><path d="m152.9 87.32h.08z" fill="#5d4037"/><path d="m152.9 87.32h.08z" fill="#efefef"/><path d="m153.6 87.78.09.08z" fill="#5d4037"/><path d="m153.6 87.78.09.08z" fill="#efefef"/><path d="m153.38 87.6.09.07z" fill="#5d4037"/><path d="m153.38 87.6.09.07z" fill="#efefef"/><path d="m153.8 88 .1.1z" fill="#5d4037"/><path d="m153.8 88 .1.1z" fill="#efefef"/><path d="m154.65 89.59a1.38 1.38 0 0 1 0 .2 1.38 1.38 0 0 0 0-.2z" fill="#5d4037"/><path d="m154.65 89.59a1.38 1.38 0 0 1 0 .2 1.38 1.38 0 0 0 0-.2z" fill="#efefef"/><path d="m154.37 88.76.07.15z" fill="#5d4037"/><path d="m154.37 88.76.07.15z" fill="#efefef"/><path d="m154.58 89.3v.18s.02-.12 0-.18z" fill="#5d4037"/><path d="m154.58 89.3v.18s.02-.12 0-.18z" fill="#efefef"/><path d="m154.49 89 .06.16z" fill="#5d4037"/><path d="m154.49 89 .06.16z" fill="#efefef"/><path d="m154.22 88.5.09.15c-.03-.06-.06-.1-.09-.15z" fill="#5d4037"/><path d="m154.22 88.5.09.15c-.03-.06-.06-.1-.09-.15z" fill="#efefef"/><path d="m154 88.18a1.84 1.84 0 0 1 .17.22 1.84 1.84 0 0 0 -.17-.22z" fill="#5d4037"/><path d="m154 88.18a1.84 1.84 0 0 1 .17.22 1.84 1.84 0 0 0 -.17-.22z" fill="#efefef"/><path d="m152.27 154.13a3.19 3.19 0 0 1 -3.19 3.19h-51.08a3 3 0 0 1 -.68-.07 2.75 2.75 0 0 0 .14.49 1.42 1.42 0 0 0 .08.18.36.36 0 0 0 0 .09l.09.15v.09l.1.15.07.09.1.13.09.09.11.11.1.1.11.09a1.84 1.84 0 0 0 .22.17l.09.06.15.09.11.06.16.07h.11l.16.06h.12l.17.05h.12a.64.64 0 0 0 .2 0h.1 51.43a3.19 3.19 0 0 0 3.19-3.19v-66.18c0-.11 0-.21 0-.31s0-.07 0-.1a1.38 1.38 0 0 0 0-.2.36.36 0 0 0 0-.11c0-.06 0-.12 0-.18v-.12l-.06-.16-.05-.11-.07-.15-.06-.11-.09-.15-.06-.1a1.84 1.84 0 0 0 -.17-.22l-.09-.11-.1-.1-.11-.11-.09-.08-.13-.11-.09-.07-.15-.09-.09-.06-.16-.09h-.08l-.18-.08a2.44 2.44 0 0 0 -.48-.15 3 3 0 0 1 .07.68z" fill="#fff"/><path d="m152.27 154.13a3.19 3.19 0 0 1 -3.19 3.19h-51.08a3 3 0 0 1 -.68-.07 2.75 2.75 0 0 0 .14.49 1.42 1.42 0 0 0 .08.18.36.36 0 0 0 0 .09l.09.15v.09l.1.15.07.09.1.13.09.09.11.11.1.1.11.09a1.84 1.84 0 0 0 .22.17l.09.06.15.09.11.06.16.07h.11l.16.06h.12l.17.05h.12a.64.64 0 0 0 .2 0h.1 51.43a3.19 3.19 0 0 0 3.19-3.19v-66.18c0-.11 0-.21 0-.31s0-.07 0-.1a1.38 1.38 0 0 0 0-.2.36.36 0 0 0 0-.11c0-.06 0-.12 0-.18v-.12l-.06-.16-.05-.11-.07-.15-.06-.11-.09-.15-.06-.1a1.84 1.84 0 0 0 -.17-.22l-.09-.11-.1-.1-.11-.11-.09-.08-.13-.11-.09-.07-.15-.09-.09-.06-.16-.09h-.08l-.18-.08a2.44 2.44 0 0 0 -.48-.15 3 3 0 0 1 .07.68z" fill="#efefef"/></svg>