<svg viewBox="0 0 179.35 223.28" xmlns="http://www.w3.org/2000/svg"><g fill="#fff"><path d="m157 27.66-98.45-26.38a28.77 28.77 0 0 0 -35.94 19l-20.56 76.64a76.87 76.87 0 0 0 46.11 88.91l5.54-20.64 25.51 6.81-5.53 20.64a76.86 76.86 0 0 0 84.4-53.91l20.55-76.63a28.78 28.78 0 0 0 -21.63-34.44zm-111.18 123.05a9.69 9.69 0 0 1 -7.23.87 9.85 9.85 0 0 1 -1.81-.67 9.7 9.7 0 0 1 -4-3.7 9.09 9.09 0 0 1 3.07-12.47l.33-.19a9.58 9.58 0 0 1 5.32-1.19 10.39 10.39 0 0 1 1.92.31 9.7 9.7 0 0 1 5.79 4.33 9.08 9.08 0 0 1 -3.06 12.47l-.33.19zm61.92 15.19a10.8 10.8 0 0 1 -1.48 1 9.58 9.58 0 0 1 -3.45 1.12c-.31 0-.62.06-.93.08a11 11 0 0 1 -1.88-.1l-.94-.26a9.27 9.27 0 1 1 4.19-18.06l.61.16.94.26a9.65 9.65 0 0 1 1.71.83 8.09 8.09 0 0 1 .77.53 9.75 9.75 0 0 1 2.42 2.7 9.11 9.11 0 0 1 -1.91 11.63zm25.59-36.1a18.11 18.11 0 0 1 -22.33 12.46l-70-18.75a18.11 18.11 0 0 1 -13.14-22l15.64-58.22a18.12 18.12 0 0 1 22.37-12.46l69.94 18.75a18.13 18.13 0 0 1 13.14 22z"/><path d="m75.43 174-19.5-5.23-11.62 43.23a8.11 8.11 0 0 0 5.74 10l3.83 1a8.12 8.12 0 0 0 9.94-5.73z"/><circle cx="40.92" cy="142.29" r="6.6"/><circle cx="101.63" cy="158.57" r="6.6"/></g></svg>