<svg viewBox="0 0 257 257" xmlns="http://www.w3.org/2000/svg"><rect fill="#fff" height="256" rx="42" width="256" x=".5" y=".5"/><path d="m131.58 233.59h-8.58c-1.3 0-2.49-1.09-3.06-2.82l-1.11-3.31a7.21 7.21 0 0 1 -.35-2.6l2.17-45c.13-2.65 1.62-4.7 3.42-4.7h6.34c1.8 0 3.29 2.06 3.42 4.7l2.17 45.39a7.16 7.16 0 0 1 -.39 2.71l-1 2.93c-.61 1.66-1.76 2.7-3.03 2.7z" fill="#f2f2f2" stroke="#c1c1c1" stroke-miterlimit="10" stroke-width=".35"/><rect fill="#bababa" height="1.58" rx=".72" width="5.99" x="124.29" y="227.19"/><path d="m128.86 170.16a27.83 27.83 0 0 1 -27.43-23.71 116.34 116.34 0 0 0 -2.26-11.74l-2.93-11.5a100.76 100.76 0 0 1 -.72-46.81l4.39-19.75a85.77 85.77 0 0 0 1.41-8.73 27.83 27.83 0 0 1 27.54-24.51 27.83 27.83 0 0 1 27.58 24.8c.31 3 .74 6 1.31 8.91l4.3 22.2a100.74 100.74 0 0 1 -.56 41l-3.67 16.57a88.39 88.39 0 0 0 -1.42 8.74 27.82 27.82 0 0 1 -27.54 24.53z" fill="#efefef" stroke="#c1c1c1" stroke-miterlimit="10" stroke-width=".4"/><path d="m115.35 82.59.72.79-1 6.22-.47.3-.93-1.12.94-5.49zm1.51-7.71.4.48-1 6-.88.72-.63-.72.77-5.5zm3.97 7.63.63.79-.83 5.48-1.31 1-.32-.48 1-6.28zm0 6.42h6.21l.9 1.19-.63.4h-7.31l-.4-.48zm.76-14.2 1 1.19-1 5.56-.74.57-.69-.8 1-6.21zm.8-.48h7.46l.47.46-1.32 1.05h-6.27l-.89-1.19zm6.61 8.34.71.79-1 6.22-.48.3-.93-1.12.94-5.49zm1.51-7.71.39.48-.95 6-.87.72-.64-.72.77-5.5zm3.97 7.63.64.79-.83 5.48-1.32 1-.32-.48 1-6.28zm0 6.42h6.22l.9 1.19-.64.4h-7.38l-.4-.48zm.77-14.2.95 1.19-.95 5.56-.74.57-.7-.8 1-6.21zm.31 6.83h6.31l.68.75-.9.83h-6.25l-.79-.86zm7.07 1 .71.79-1 6.22-.48.3-.93-1.12.94-5.49zm-14.48 11.49a1 1 0 0 1 .25.76v1.33h-.4v-1.29a.78.78 0 0 0 -.15-.51.61.61 0 0 0 -.45-.17.69.69 0 0 0 -.51.2.81.81 0 0 0 -.19.58v1.19h-.42v-1.29a.73.73 0 0 0 -.16-.51.57.57 0 0 0 -.44-.17.66.66 0 0 0 -.51.2.81.81 0 0 0 -.17.63v1.19h-.42v-2.37h.4v.34a.82.82 0 0 1 .34-.27 1.13 1.13 0 0 1 .47-.09 1.06 1.06 0 0 1 .48.1.73.73 0 0 1 .32.33.89.89 0 0 1 .37-.32 1.14 1.14 0 0 1 .53-.11 1 1 0 0 1 .66.25zm3.26-.23v2a1.16 1.16 0 0 1 -.31.9 1.22 1.22 0 0 1 -.9.29 2.18 2.18 0 0 1 -.63-.09 1.21 1.21 0 0 1 -.48-.25l.2-.33a1.18 1.18 0 0 0 .4.22 1.42 1.42 0 0 0 .5.08.82.82 0 0 0 .6-.19.79.79 0 0 0 .19-.59v-.18a1 1 0 0 1 -.36.27 1.23 1.23 0 0 1 -.47.09 1.34 1.34 0 0 1 -.61-.14 1.08 1.08 0 0 1 -.42-.4 1.18 1.18 0 0 1 -.16-.59 1.16 1.16 0 0 1 .16-.59 1 1 0 0 1 .42-.39 1.22 1.22 0 0 1 .61-.14 1.37 1.37 0 0 1 .49.09 1 1 0 0 1 .37.29v-.36zm-.81 1.76a.63.63 0 0 0 .29-.27.8.8 0 0 0 -.12-.94.81.81 0 0 0 -.58-.21.83.83 0 0 0 -.58.21.75.75 0 0 0 -.22.55.71.71 0 0 0 .1.39.69.69 0 0 0 .29.27.8.8 0 0 0 .41.1.78.78 0 0 0 .41-.1z" fill="#84c3f0"/><path d="m101.45 137.45-2.93-11.45a101 101 0 0 1 -.72-46.81l4.4-19.76a85.77 85.77 0 0 0 1.41-8.73 27.82 27.82 0 0 1 27.54-24.5 27.65 27.65 0 0 1 20.1 8.68 27.73 27.73 0 0 0 -22.39-11.43 27.83 27.83 0 0 0 -27.54 24.51 85.77 85.77 0 0 1 -1.41 8.73l-4.39 19.71a100.76 100.76 0 0 0 .72 46.81l2.93 11.5a116.34 116.34 0 0 1 2.26 11.74 27.68 27.68 0 0 0 7.32 15 27.61 27.61 0 0 1 -5-12.28 114.69 114.69 0 0 0 -2.3-11.72z" fill="#efefef"/><path d="m162.05 79.32-4.3-22.2c-.57-2.95-1-5.92-1.31-8.91a27.75 27.75 0 0 0 -8.95-17.56 27.61 27.61 0 0 1 7.12 15.73c.31 3 .74 6 1.31 8.91l4.3 22.2a100.74 100.74 0 0 1 -.56 41l-3.66 16.6a88.39 88.39 0 0 0 -1.42 8.74 27.83 27.83 0 0 1 -27.58 24.5 27.59 27.59 0 0 1 -18.64-7.26 27.63 27.63 0 0 0 20.47 9.09 27.82 27.82 0 0 0 27.54-24.5 88.39 88.39 0 0 1 1.42-8.74l3.67-16.57a100.74 100.74 0 0 0 .59-41.03z" fill="#fafafa"/><path d="m121.62 219.49h11.32" fill="none" stroke="#c1c1c1" stroke-linecap="round" stroke-linejoin="round" stroke-width=".23"/><path d="m114.85 177.13v9.48" fill="none" stroke="#ea1c24" stroke-miterlimit="10" stroke-width=".68"/><path d="m114.85 177.35a4 4 0 0 0 2.47.86 7.35 7.35 0 0 1 -2.47-3 7.73 7.73 0 0 1 -2.48 3 4.21 4.21 0 0 0 2.48-.86z" fill="#ea1c24"/><rect fill="none" height="256" rx="42" stroke="#31c1c0" stroke-miterlimit="10" width="256" x=".5" y=".5"/></svg>