<svg viewBox="0 0 301.57 294.91" xmlns="http://www.w3.org/2000/svg" xmlns:xlink="http://www.w3.org/1999/xlink"><clipPath id="a"><rect height="256" rx="42" width="256" x=".5" y=".5"/></clipPath><g clip-path="url(#a)"><rect fill="#fff" height="256" rx="42" width="256" x=".5" y=".5"/><path d="m63.46 202.31a4.32 4.32 0 0 1 2.8-1.83l24.22-4.48h.4l.27-.07 37.61-7c.3-.06.6-.1.89-.13a9.44 9.44 0 0 1 4 18.28 11.21 11.21 0 0 0 -12.73-7.65l-36.7 6.84-.33.08-.36.05-20 3.72-.83-4.45a4.33 4.33 0 0 1 .76-3.36z" fill="#fff"/><path d="m133.67 207a9.43 9.43 0 0 0 -4-18.28c-.29 0-.59.07-.89.13l-37.61 7-.27.07h-.4l-24.22 4.51a4.39 4.39 0 0 0 -3.5 5.1l.83 4.45-1.92.35-.83-4.44a6.34 6.34 0 0 1 5.06-7.38l24.22-4.51.34-.05.34-.08 37.6-7a11.38 11.38 0 0 1 5.69 22c0-.2 0-.4-.08-.61a11.44 11.44 0 0 0 -.36-1.26z" fill="#054c5c"/><path d="m140 193.67a9.43 9.43 0 0 0 -4-18.28c-.29 0-.59.07-.89.13l-37.61 7-.27.07h-.4l-24.22 4.51a4.39 4.39 0 0 0 -3.5 5.1l.83 4.45-1.92.36-.83-4.45a6.34 6.34 0 0 1 5.06-7.38l24.22-4.51h.34l.34-.08 37.6-7a11.38 11.38 0 0 1 5.69 22c0-.2 0-.4-.08-.61a11.44 11.44 0 0 0 -.36-1.31z" fill="#054c5c"/><path d="m60.26 212.63 23.65-4.4h.41l.27-.07 36.71-6.84.87-.12a9.25 9.25 0 0 1 2.52 18.31l-36.69 6.77a1.52 1.52 0 0 1 -.21 0h-.2l-.29.06-23.64 4.41a4.29 4.29 0 0 1 -5-3.41l-1.82-9.8a4.28 4.28 0 0 1 3.42-4.91z" fill="#fff"/><path d="m54.93 218 1.82 9.81a6.23 6.23 0 0 0 6.67 5c.19 0 .39 0 .59-.08l23.64-4.41.35-.08h.34l36.71-6.84a11.21 11.21 0 0 0 9-12.46c0-.2 0-.4-.08-.61a11.44 11.44 0 0 0 -.34-1.31 11.21 11.21 0 0 0 -12.73-7.65l-36.7 6.84-.33.08-.36.05-20 3.72-1.92.35-1.77.33a6.22 6.22 0 0 0 -4.89 7.26zm1.92-.35a4.28 4.28 0 0 1 3.41-5l23.65-4.4h.41l.27-.07 36.71-6.84.87-.12a9.25 9.25 0 0 1 2.52 18.31l-36.69 6.75a1.52 1.52 0 0 1 -.21 0h-.2l-.29.06-23.64 4.41a4.29 4.29 0 0 1 -5-3.41z" fill="#054c5c"/><path d="m84.26 179.59-19.41 14.41a5.73 5.73 0 0 1 -3.85 1.05 5 5 0 0 1 -3.45-1.6l-8.65-9.6a4.13 4.13 0 0 1 -1-3.38 4.8 4.8 0 0 1 1.95-3.18l19.42-14.37a5.79 5.79 0 0 1 .65-.4.84.84 0 0 0 .23-.18 6 6 0 0 1 .58-.5l19.41-14.37a6.37 6.37 0 0 1 .55-.35.61.61 0 0 0 .16-.12c.27-.23.54-.45.83-.67l8.3-6.14a13.54 13.54 0 0 1 9-2.59 11.93 11.93 0 0 1 8.13 3.79 9.72 9.72 0 0 1 2.47 8 11.24 11.24 0 0 1 -4.61 7.49l-8.29 6.12c-.29.21-.59.41-.89.6a1 1 0 0 0 -.17.12 4.81 4.81 0 0 1 -.48.42l-19.42 14.37a7.6 7.6 0 0 1 -.65.41.9.9 0 0 0 -.18.15 6 6 0 0 1 -.63.52z" fill="#fff"/><path d="m47.39 185 8.66 9.61a7 7 0 0 0 4.74 2.21 8 8 0 0 0 4.7-1.14c.19-.12.37-.24.55-.38l19.42-14.37a8.5 8.5 0 0 0 .69-.58 8.59 8.59 0 0 0 .77-.5l19.41-14.37a4.82 4.82 0 0 0 .6-.5c.32-.2.64-.41.94-.64l8.3-6.14c6.17-4.56 7.28-12.6 2.48-17.93a13.85 13.85 0 0 0 -9.43-4.39 15.72 15.72 0 0 0 -10.46 3l-8.29 6.12a10.11 10.11 0 0 0 -.88.71 6.9 6.9 0 0 0 -.67.43l-19.41 14.38a8.5 8.5 0 0 0 -.69.58 8.59 8.59 0 0 0 -.77.5l-19.41 14.4a6.54 6.54 0 0 0 -2.64 4.33 5.71 5.71 0 0 0 1.39 4.67zm37.63-6a.9.9 0 0 0 -.18.15 6 6 0 0 1 -.58.5l-19.41 14.35a5.73 5.73 0 0 1 -3.85 1.05 5 5 0 0 1 -3.45-1.6l-8.65-9.6a4.13 4.13 0 0 1 -1-3.38 4.8 4.8 0 0 1 1.95-3.18l19.42-14.37a5.79 5.79 0 0 1 .65-.4.84.84 0 0 0 .23-.18 6 6 0 0 1 .58-.5l19.41-14.37a6.37 6.37 0 0 1 .55-.35.61.61 0 0 0 .16-.12c.27-.23.54-.45.83-.67l8.3-6.14a13.54 13.54 0 0 1 9-2.59 11.93 11.93 0 0 1 8.13 3.79 9.72 9.72 0 0 1 2.47 8 11.24 11.24 0 0 1 -4.61 7.49l-8.29 6.12c-.29.21-.59.41-.89.6a1 1 0 0 0 -.17.12 4.81 4.81 0 0 1 -.48.42l-19.42 14.37a7.6 7.6 0 0 1 -.65.41z" fill="#0a94b4"/><path d="m50.13 191.35a6.33 6.33 0 0 0 8.87 1.05l20.15-15.4a5.4 5.4 0 0 0 .71-.64 5.78 5.78 0 0 0 .81-.51l20.2-15.38a8 8 0 0 0 .61-.53c.34-.22.67-.45 1-.7l8.63-6.57a13.57 13.57 0 0 0 4.89-14.62 13.66 13.66 0 0 1 1.45 1.58 13.4 13.4 0 0 1 -2.75 18.76l-8.7 6.61a11 11 0 0 1 -1 .69 5.15 5.15 0 0 1 -.61.53l-20.2 15.39a6.87 6.87 0 0 1 -.81.51 5.4 5.4 0 0 1 -.71.64l-20.16 15.34a6.31 6.31 0 0 1 -8.82-1l-8.63-11.22a5.93 5.93 0 0 1 -1.13-2.54z" fill="#0a94b4" opacity=".53"/><path d="m43.42 187.53a15.1 15.1 0 0 1 4-7.65l4-3.65c3.25 2.29 17.61 12.34 23.16 15.57a74.13 74.13 0 0 0 6.89 3.55 21.46 21.46 0 0 0 25.53-6.23l13-16.12c3.28-4.06 10.44-7.65 15.65-7.84a10 10 0 0 1 8.14 16.26l-22.89 28.34a1 1 0 0 0 -.2.48l-4 4.79-1.62 2a11.22 11.22 0 0 1 -.94 1 1 1 0 0 0 -.23.34l-11.1 27.63a24.22 24.22 0 0 1 -9.85 11.6l-9.96 5.95a1 1 0 0 0 -.39.44l-12.61 28.73-46.59-15.51 13-54z" fill="#fff"/><path d="m21.94 278.78 48.31 16.08a1 1 0 0 0 .34 0 1 1 0 0 0 .86-.58l12.81-29.26 9.63-5.72a26.16 26.16 0 0 0 10.65-12.55l11-27.45c.34-.34.66-.7 1-1.05l1.6-2 4.4-5.2a.94.94 0 0 0 .23-.52l22.53-27.9a11.94 11.94 0 0 0 -9.73-19.44c-5.79.21-13.46 4-17.1 8.56l-13 16.1a19.51 19.51 0 0 1 -23.14 5.67 71.36 71.36 0 0 1 -6.7-3.46c-6.08-3.54-23.49-15.81-23.67-15.93a1 1 0 0 0 -1.22.07l-4.65 4.23a17 17 0 0 0 -4.56 8.68l-7 35.61-13.23 54.9a1 1 0 0 0 .64 1.16zm1.47-1.57 13-54 7-35.66a15.1 15.1 0 0 1 4-7.65l4-3.65c3.25 2.29 17.61 12.34 23.16 15.57a74.13 74.13 0 0 0 6.89 3.55 21.46 21.46 0 0 0 25.54-6.25l13-16.12c3.28-4.06 10.44-7.65 15.65-7.84a10 10 0 0 1 8.14 16.26l-22.89 28.34a1 1 0 0 0 -.2.48l-4 4.79-1.62 2a11.22 11.22 0 0 1 -.94 1 1 1 0 0 0 -.23.34l-11.1 27.63a24.22 24.22 0 0 1 -9.85 11.6l-9.96 5.95a1 1 0 0 0 -.39.44l-12.61 28.73z" fill="#0a94b4"/><path d="m57.39 175.29-4.2-.24-2.11 1.52 16.18 15.36 4.75-4.06-1.84-4.2-3.44-3.72z" fill="#fff"/><path d="m74.19 191.54a6.78 6.78 0 0 1 -2.59-3.48l-3.26 1.57 3.13 3.21zm145.23-91.63 24.39-4a5.21 5.21 0 0 0 4.3-6l-2.26-14a5.21 5.21 0 0 0 -6-4.3l-24.35 4.06a6 6 0 0 0 -.76.19 1 1 0 0 1 -.3 0 4.5 4.5 0 0 0 -.78.06l-24.39 3.94c-.22 0-.43.09-.64.15a.52.52 0 0 1 -.21 0c-.36 0-.72.07-1.09.13l-10.42 1.68a12.28 12.28 0 0 0 3.92 24.24l10.42-1.69c.36-.06.72-.13 1.07-.22a.76.76 0 0 1 .21 0 4.91 4.91 0 0 0 .66-.06l24.39-4a3.82 3.82 0 0 0 .76-.19h.06a.93.93 0 0 1 .24 0 5.9 5.9 0 0 0 .78.01z" fill="#fff"/><g fill="#0a94b4"><path d="m244.9 71.06a7.06 7.06 0 0 0 -5.32-1.26l-24.4 3.94a6.9 6.9 0 0 0 -.9.22 5.37 5.37 0 0 0 -.93.08l-24.35 3.96c-.27 0-.53.11-.79.18s-.76.07-1.15.14l-10.46 1.68a14.23 14.23 0 0 0 4.54 28.1l10.42-1.69c.39-.06.77-.14 1.14-.23a7.22 7.22 0 0 0 .8-.08l24.4-4a5.77 5.77 0 0 0 .9-.21 8.49 8.49 0 0 0 .93-.08l24.39-4a5 5 0 0 0 .67-.14 7.16 7.16 0 0 0 5.21-7.98l-2.26-14a7.07 7.07 0 0 0 -2.84-4.63zm-26.56 29a3.82 3.82 0 0 1 -.76.19l-24.39 4a4.91 4.91 0 0 1 -.66.06.76.76 0 0 0 -.21 0c-.35.09-.71.16-1.07.22l-10.42 1.69a12.28 12.28 0 0 1 -3.92-24.24l10.42-1.68c.37-.06.73-.1 1.09-.13a.52.52 0 0 0 .21 0c.21-.06.42-.11.64-.15l24.39-4.02a4.5 4.5 0 0 1 .78-.06 1 1 0 0 0 .3 0 6 6 0 0 1 .76-.19l24.39-3.94a5.21 5.21 0 0 1 6 4.3l2.26 14a5.21 5.21 0 0 1 -4.3 6l-24.39 4a5.9 5.9 0 0 1 -.78.06.93.93 0 0 0 -.24 0z"/><path d="m247.38 83.33a6.2 6.2 0 0 1 -5.11 7.08l-24.4 4a5.43 5.43 0 0 0 -1.83.3l-24.39 3.89a7.06 7.06 0 0 1 -.78.07 11.36 11.36 0 0 1 -1.16.24l-10.42 1.69a13.3 13.3 0 0 1 -13.67-6.6 13 13 0 0 0 .16 2.15 13.29 13.29 0 0 0 15.2 11l10.43-1.68c.39-.07.77-.15 1.15-.25a4.29 4.29 0 0 0 .79-.07l24.39-3.94a5.4 5.4 0 0 0 .9-.23 5.82 5.82 0 0 0 .93-.07l24.43-3.98a6.2 6.2 0 0 0 5.11-7.09l-2.26-14a6.18 6.18 0 0 0 -1.06-2.57z" opacity=".53"/><path d="m227.52 78.26a.64.64 0 1 0 -1.21.43c0 .1 3.38 9.54-1.54 13.66a.66.66 0 0 0 -.08.91.67.67 0 0 0 .66.21.85.85 0 0 0 .25-.13c5.61-4.7 2.07-14.66 1.92-15.08z"/></g><path d="m124.73 177.28-5-3c-.77-.45-1-1.73-.5-3.3l.89-3a9.17 9.17 0 0 1 1-2.19l22.27-35c1.31-2.06 3.15-3.17 4.21-2.55l3.75 2.2c1.07.63 1 2.78-.17 4.93l-19.88 36.83a8.42 8.42 0 0 1 -1.5 2l-2 2c-1.14 1.1-2.32 1.52-3.07 1.08z" fill="#f2f2f2"/><rect fill="#bababa" height="1.47" rx=".58" transform="matrix(.86260198 .50588322 -.50588322 .86260198 103.810022 -39.610179)" width="4.1" x="122.78" y="170.55"/><path d="m138.78 148.06c-9.16-5.37-11.92-18.16-6.93-29.64 1.48-3.39 2.87-6.81 4-10.3l3.48-10.35a113.62 113.62 0 0 1 21.55-37.84l12.2-14.16c1.78-2.06 3.43-4.24 5-6.46 7.53-10.4 20.35-14.49 29.68-9 9.41 5.51 12.07 18.84 6.51 30.56-1.2 2.52-2.32 5.07-3.33 7.66l-7.53 19.47a114 114 0 0 1 -19.68 32.71l-10.22 11.87c-1.78 2.07-3.44 4.25-5 6.47-7.58 10.4-20.4 14.48-29.73 9.01z" fill="#efefef"/><path d="m164 80.4.2 1-3.76 4.5h-.52l-.22-1.34 3.34-4zm4.83-5.47.1.57-3.61 4.4-1 .16-.17-.87 3.21-4.06zm-.44 7.98.13.94-3.24 4-1.55.22v-.53l3.76-4.54zm-3 5.18 5 2.93.16 1.38h-.7l-5.94-3.4-.1-.57zm7.3-11 .2 1.41-3.38 4-.86.11-.18-1 3.75-4.49zm.86 0 6 3.51.15.59-1.56.21-5-2.95-.14-1.45zm1.36 9.79.2 1-3.76 4.51h-.52l-.22-1.39 3.39-4zm4.84-5.47.09.57-3.61 4.4-1 .16-.18-.87 3.21-4.06zm-.41 7.93.14.94-3.24 4-1.55.22v-.53l3.78-4.56zm-3 5.17 5 2.94.15 1.38h-.69l-5.93-3.48-.09-.57zm7.29-11 .21 1.41-3.39 4-.86.11-.17-1 3.74-4.49zm-3 5.64 5.06 3 .19.93-1.11.24-5-2.94-.23-1.07zm5.19 4.14.2 1-3.76 4.5h-.52l-.22-1.34 3.34-4zm-16.99 2.33a1 1 0 0 1 -.15.73l-.63 1.07-.34-.2.61-1a.7.7 0 0 0 .11-.48.53.53 0 0 0 -.28-.35.6.6 0 0 0 -.5-.08.77.77 0 0 0 -.42.37l-.56 1-.34-.2.61-1a.7.7 0 0 0 .11-.48.53.53 0 0 0 -.28-.35.61.61 0 0 0 -.5-.08.77.77 0 0 0 -.42.37l-.56 1-.34-.2 1.05-2 .33.19-.17.27a.91.91 0 0 1 .4-.06 1 1 0 0 1 .42.15.93.93 0 0 1 .34.31.74.74 0 0 1 .11.41.91.91 0 0 1 .44-.08 1.14 1.14 0 0 1 .48.16.9.9 0 0 1 .48.53zm2.72 1.38-.94 1.61a1.14 1.14 0 0 1 -.67.58 1.15 1.15 0 0 1 -.86-.19 1.87 1.87 0 0 1 -.47-.37 1 1 0 0 1 -.26-.43l.31-.16a1.16 1.16 0 0 0 .22.36 1.31 1.31 0 0 0 .36.3.77.77 0 0 0 .57.13.75.75 0 0 0 .44-.38l.08-.15a.84.84 0 0 1 -.42 0 1.18 1.18 0 0 1 -.42-.15 1.24 1.24 0 0 1 -.42-.4 1 1 0 0 1 -.15-.52 1 1 0 0 1 .16-.55 1 1 0 0 1 .92-.51 1.14 1.14 0 0 1 .55.17 1 1 0 0 1 .35.31.83.83 0 0 1 .16.4l.17-.29zm-1.47 1a.73.73 0 0 0 .36-.08.75.75 0 0 0 .26-.27.67.67 0 0 0 .08-.55.72.72 0 0 0 -.36-.43.74.74 0 0 0 -.57-.11.64.64 0 0 0 -.43.33.72.72 0 0 0 -.11.37.76.76 0 0 0 .11.35.73.73 0 0 0 .28.27.93.93 0 0 0 .38.12z" fill="#84c3f0"/><path d="m136.1 111.21 3.48-10.35a113.79 113.79 0 0 1 21.56-37.86l12.19-14.15c1.78-2.06 3.44-4.24 5-6.46 7.53-10.41 20.36-14.49 29.69-9 5.2 3 8.34 8.49 9.16 14.74-.07-7.51-3.33-14.29-9.38-17.83-9.33-5.48-22.15-1.39-29.68 9-1.61 2.22-3.26 4.4-5 6.46l-12.2 14.16a113.62 113.62 0 0 0 -21.55 37.84l-3.48 10.35c-1.17 3.49-2.56 6.91-4 10.3a28.36 28.36 0 0 0 -2.24 14.88 29 29 0 0 1 2.46-11.79c1.44-3.38 2.83-6.81 3.99-10.29z" fill="#efefef"/><path d="m203.41 88 7.59-19.48c1-2.59 2.13-5.14 3.33-7.66a28.08 28.08 0 0 0 2.37-17.55 28.54 28.54 0 0 1 -2.7 15.37c-1.19 2.52-2.31 5.07-3.32 7.66l-7.62 19.47a113.56 113.56 0 0 1 -19.68 32.71l-10.22 11.87c-1.77 2.07-3.43 4.25-5 6.47-7.53 10.41-20.35 14.49-29.69 9a19.21 19.21 0 0 1 -8.87-13c.72 6.43 3.89 12.08 9.22 15.21 9.33 5.47 22.15 1.39 29.68-9 1.61-2.22 3.27-4.4 5-6.47l10.22-11.87a114 114 0 0 0 19.69-32.73z" fill="#fafafa"/><path d="m125.47 162.52 6.7 3.92" fill="none" stroke="#c1c1c1" stroke-linecap="round" stroke-linejoin="round" stroke-width=".18"/><path d="m253.14 107.68a4.32 4.32 0 0 0 -3.26-.78l-24.32 3.93h-.68l-37.76 6.11a8.6 8.6 0 0 0 -.88.19 9.44 9.44 0 0 0 2.39 18.56 11.21 11.21 0 0 1 9.4-11.5l36.85-6h.34l.36-.07 20-3.24-.72-4.47a4.33 4.33 0 0 0 -1.72-2.73z" fill="#fff"/><path d="m188.63 135.8a9.43 9.43 0 0 1 -2.39-18.56 8.6 8.6 0 0 1 .88-.19l37.76-6.11h.68l24.32-3.93a4.4 4.4 0 0 1 5 3.62l.72 4.47 1.93-.32-.72-4.46a6.35 6.35 0 0 0 -7.26-5.24l-24.32 3.93-.34.07h-.34l-37.76 6.1a11.39 11.39 0 0 0 2.07 22.63c0-.2-.09-.4-.12-.6a10.44 10.44 0 0 1 -.11-1.41z" fill="#054c5c"/><path d="m259.63 116.32-23.74 3.84h-.69l-36.86 6c-.29 0-.58.11-.86.18a9.25 9.25 0 0 0 3.81 18.08l36.86-6 .2-.05h.49l23.75-3.84a4.29 4.29 0 0 0 3.53-4.9l-1.6-9.84a4.26 4.26 0 0 0 -4.89-3.47z" fill="#fff"/><path d="m259.32 114.39-1.77.28-1.93.32-20 3.24-.36.07h-.34l-36.85 6a11.21 11.21 0 0 0 -9.4 11.5 10.44 10.44 0 0 0 .13 1.35c0 .2.08.4.12.6a11.23 11.23 0 0 0 12.72 8.67l36.86-6 .34-.07h.35l23.75-3.85a5.41 5.41 0 0 0 .58-.12 6.22 6.22 0 0 0 4.56-7l-1.59-9.84a6.21 6.21 0 0 0 -7.17-5.15zm6.8 15.29a4.29 4.29 0 0 1 -3.53 4.9l-23.75 3.84h-.49l-.2.05-36.86 6a9.25 9.25 0 0 1 -3.81-18.08c.28-.07.57-.13.86-.18l36.86-6h.69l23.74-3.84a4.26 4.26 0 0 1 4.89 3.52z" fill="#054c5c"/><path d="m178.14 121.63 26.24 23.35 3.62-18.42-21.72-13.04z" fill="#0a94b4" opacity=".53"/><path d="m253.65 80.62a15.14 15.14 0 0 0 -6-6.18l-4.91-2.33c-2.49 3.13-13.35 16.89-17.74 21.57a71.71 71.71 0 0 1 -5.57 5.39 21.49 21.49 0 0 1 -26.18 1.37l-17.08-11.68c-4.3-2.94-12.2-4.31-17.24-3a10 10 0 0 0 -3.12 17.91l30.08 20.56a1 1 0 0 1 .34.4l5.25 3.42 2.12 1.45a11.71 11.71 0 0 0 1.21.72 1 1 0 0 1 .31.26l18.59 23.26a24.26 24.26 0 0 0 12.76 8.26l11.17 2.79a1 1 0 0 1 .51.31l44.54 48.28 15.95-52.66-28-48z" fill="#fff"/><path d="m300.78 160.53-28.47-48.72-16.93-32.1a17.09 17.09 0 0 0 -6.87-7l-5.67-2.71a1 1 0 0 0 -1.19.28c-.13.16-13.27 16.93-18.07 22.06a73.69 73.69 0 0 1 -5.43 5.25 19.51 19.51 0 0 1 -23.79 1.22l-17.09-11.66c-4.78-3.27-13.23-4.74-18.83-3.28a11.94 11.94 0 0 0 -3.73 21.42l29.61 20.23a.93.93 0 0 0 .37.44l5.71 3.72 2.1 1.43a13.16 13.16 0 0 0 1.22.74l18.46 23.15a26.15 26.15 0 0 0 13.82 8.91l10.87 2.72 20.68 24.37a1 1 0 0 0 1 .32.94.94 0 0 0 .32-.15l41.63-29.3a1 1 0 0 0 .28-1.34zm-42.32 28.47-20.31-23.89a1 1 0 0 0 -.51-.31l-11.17-2.8a24.26 24.26 0 0 1 -12.76-8.28l-18.59-23.26a1 1 0 0 0 -.31-.26 11.71 11.71 0 0 1 -1.21-.72l-2.12-1.45-5.25-3.42a1 1 0 0 0 -.34-.4l-30.08-20.56a10 10 0 0 1 3.12-17.91c5-1.31 12.94.06 17.24 3l17.08 11.68a21.49 21.49 0 0 0 26.18-1.37 71.71 71.71 0 0 0 5.57-5.37c4.39-4.69 15.25-18.44 17.71-21.57l4.91 2.33a15.14 15.14 0 0 1 6 6.18l17 32.14 28 48zm-189-11.44a.64.64 0 0 1 .68-.6.65.65 0 0 1 .6.69c0 .1-.66 10.1 5.2 12.72a.64.64 0 0 1 -.25 1.23.71.71 0 0 1 -.28-.06c-6.67-2.99-5.98-13.54-5.95-13.98z" fill="#0a94b4"/><path d="m122.09 161.36a2.27 2.27 0 0 1 -4.52.39c-.11-1.25.66-4.08 1.91-4.19s2.52 2.55 2.61 3.8z" fill="#c62828"/><path d="m255.28 185.26 8.24 9.68 36.4-19.12 1.65-10.04-5.24-8.99z" fill="#fff"/></g><rect fill="none" height="256" rx="42" stroke="#31c1c0" stroke-miterlimit="10" width="256" x=".5" y=".5"/></svg>