<svg viewBox="0 0 487.21 198.84" xmlns="http://www.w3.org/2000/svg" xmlns:xlink="http://www.w3.org/1999/xlink"><clipPath id="a"><path d="m157 82.53a10.39 10.39 0 0 0 2.65 16l17.31 9.79 28.04 15.81h64v-30.86l-.59-1.12a45.56 45.56 0 0 0 -74.41-8.3c-.43.49-.84 1-1.25 1.5 7.74-15 25.61-49.72 25.61-49.72l1.22 5.1h33.94l-5.65-23.62h-34l-34.87 40.63z"/></clipPath><clipPath id="b"><path d="m333.71 108.61-2.78 12.87a6.79 6.79 0 0 1 -3.15 4.42 25.17 25.17 0 0 1 -19.27 2.94 8.13 8.13 0 0 1 -5.59-5.1 29.83 29.83 0 0 0 -5.35-9.26 1 1 0 0 1 .81-1.63 90.75 90.75 0 0 0 33.55-5.78 1.34 1.34 0 0 1 1.78 1.54z"/></clipPath><clipPath id="c"><path d="m308.89 129.83s1.25-4.42 3.67-4.84l22.18-4.68-3.3 4.81-9.78 6.88z"/></clipPath><clipPath id="d"><path d="m361.28 93.24c.19-.37.38-.75.59-1.12a45.61 45.61 0 0 1 74.43-8.31c.43.49.85 1 1.26 1.51-7.75-15-25.64-49.77-25.64-49.77l-1.22 5.11h-34l5.71-23.66h34l34.95 40.64 23.3 26.36a8.82 8.82 0 0 1 -2.25 13.53l-19 10.77-28.1 15.87h-34"/></clipPath><path d="m201 124.13a.33.33 0 0 0 -.2-.09l-.07.28c-.08.24.42-.01.27-.19z" fill="#c62828" opacity=".38"/><g clip-path="url(#a)"><path d="m159 79.72c.87 1.74-.08 3.79-.34 5.73-.76 5.74 4.59 10.28 9.46 13.42a238.56 238.56 0 0 0 28.42 15.65 60.39 60.39 0 0 0 9 3.56c11.5 3.25 23.72.41 35.67.09 3.64-.09 7.37.07 10.74 1.45s6.33 4.19 7 7.77a2.6 2.6 0 0 1 -.11 1.72c-.46.86-1.57 1.07-2.54 1.18a228.94 228.94 0 0 1 -44.11.81 83.22 83.22 0 0 1 -13.53-1.94c-7-1.74-13.5-4.93-19.92-8.2-9.34-4.77-18.64-9.78-26.89-16.26-2.55-2-5.12-4.33-6.09-7.43-1.22-3.9.4-8.24 3.11-11.29s6.36-5.08 9.94-7" fill="#0a97b7" opacity=".45"/></g><g fill="#fff" opacity=".25"><path d="m227.15 71.23a45.5 45.5 0 0 0 -34.34 15.58c-.43.49-.85 1-1.25 1.51.72-1.4.47-1.65 1.34-3.34a45.54 45.54 0 0 1 75.37 7.12l.59 1.12-1.7 1.78a45.54 45.54 0 0 0 -40.01-23.77z"/><path d="m212.73 20-34.94 40.67-23.34 26.33a9.57 9.57 0 0 0 -1.13 1.61 8.84 8.84 0 0 1 2.13-4.61l23.34-26.29 34.94-40.71h34l5.67 23.65h-1.72l-4.98-20.65z"/></g><circle cx="273.49" cy="88.47" fill="#054c5c" r="4"/><circle cx="345.67" cy="82.99" fill="#054c5c" r="4"/><path d="m331.07 78.27a29.15 29.15 0 0 1 5.35-6.5 24.91 24.91 0 0 1 7.23-4.68 23.37 23.37 0 0 1 4.24-1.29 23.73 23.73 0 0 1 4.47-.37 26.75 26.75 0 0 1 8.8 1.79 2.17 2.17 0 1 1 -1.55 4.06l-.25-.11a23.25 23.25 0 0 0 -7.27-2.51 21.64 21.64 0 0 0 -3.87-.18 20.73 20.73 0 0 0 -3.87.65 23.33 23.33 0 0 0 -7.26 3.47 28.63 28.63 0 0 0 -6.02 5.67z" fill="#0a97b7"/><path d="m256.78 81.79a27.58 27.58 0 0 1 3.88-2.4 30.42 30.42 0 0 1 4.07-1.75 25.63 25.63 0 0 1 8.66-1.51 22.52 22.52 0 0 1 4.34.46 23.83 23.83 0 0 1 4.11 1.35 25.13 25.13 0 0 1 6.94 4.79 24.49 24.49 0 0 0 -7.32-3.73 21.89 21.89 0 0 0 -4-.76 22.13 22.13 0 0 0 -4 .09 23 23 0 0 0 -7.46 2.31 27.88 27.88 0 0 0 -3.38 2 23.74 23.74 0 0 0 -3 2.4 2.17 2.17 0 1 1 -3.06-3.04 2.09 2.09 0 0 1 .22-.21z" fill="#0a97b7"/><path d="m329.21 106.28a7.41 7.41 0 0 1 1.71.17c.35.07.71.15 1.06.24l.47.15.2.07h.1l.27.15c-.15-.08 0 0 .06.07l.26.28a4 4 0 0 1 .59 1 8.05 8.05 0 0 1 .47 2.28.64.64 0 0 0 .62.62.63.63 0 0 0 .63-.62 14 14 0 0 0 -.35-2.14 5.37 5.37 0 0 0 -1.11-2 3 3 0 0 0 -1.38-.89 11.32 11.32 0 0 0 -1.74-.42 8.33 8.33 0 0 0 -1.86-.19.65.65 0 0 0 -.63.63.63.63 0 0 0 .63.62z" fill="#0a97b7"/><path d="m333.71 108.61-2.78 12.87a6.79 6.79 0 0 1 -3.15 4.42 25.17 25.17 0 0 1 -19.27 2.94 8.13 8.13 0 0 1 -5.59-5.1 29.83 29.83 0 0 0 -5.35-9.26 1 1 0 0 1 .81-1.63 90.75 90.75 0 0 0 33.55-5.78 1.34 1.34 0 0 1 1.78 1.54z" fill="#601414"/><g clip-path="url(#b)"><path d="m302.73 113.73c-1.68 3.27 6.89 14.27 6.89 14.27l21.31-6.48 2.21-10.25s-26.9-4.38-30.41 2.46z" fill="#601414" opacity=".41"/><path d="m303.13 111.84s-1.57 5.28.85 5.48c0 0 16.86 0 32.39-7l.66-2.74.48-1.63-4.94-.42z" fill="#fafafa"/><path d="m308.89 129.83s1.25-4.42 3.67-4.84l22.18-4.68-3.3 4.81-9.78 6.88z" fill="#e57373"/><g clip-path="url(#c)"><path d="m309.62 128s7.79-4 20.9-4.07l.49-2.8-20.44 3.44z" fill="#e57373" opacity=".42"/></g></g><g clip-path="url(#d)"><path d="m388 120.75c-.25.93 4.74 7.08 4.74 7.08 6.95 6.09 17.25 5.85 26.44 5 3.85-.36 7.77-.78 11.3-2.35s6.49-4.18 9.66-6.41c11.14-7.88 25.28-11.25 35.25-20.59 3.14-3 5.93-6.9 5.53-11.2-.19-2-5.19-8.7-5.84-7.8-9.71 13.41-27.57 22.62-27.57 22.62l-22.25 13.65z" fill="#0a97b7" opacity=".45"/></g><path d="m439.29 83.49c-7.05-13.61-22.22-42.25-26.31-50a.84.84 0 0 0 -1.56.21l-.7 3h-33l-.95 4h34l1.22-5.11 25.64 49.77a.9.9 0 0 0 1.16.17 1.52 1.52 0 0 0 .5-2.04z" fill="#0a97b7" opacity=".3"/><path d="m190.83 83.56c7-13.62 22.21-42.25 26.31-50a.84.84 0 0 1 1.55.21l.71 3h33l1 4h-34l-1.23-5.11-25.63 49.74a.9.9 0 0 1 -1.17.17 1.5 1.5 0 0 1 -.54-2.01z" fill="#0a97b7" opacity=".3"/><path d="m417.22 71.42a45.75 45.75 0 0 1 18.71 12.82c.43.49.85 1 1.26 1.51-7.73-15.01-25.62-49.75-25.62-49.75l-1.22 5.11h-8.06l.37.34a51 51 0 0 1 14.56 29.97z" fill="none"/><path d="m402.66 41.45-.37-.34h-.29a51.23 51.23 0 0 1 11.5 29.13c1.26.34 2.5.74 3.72 1.18a51 51 0 0 0 -14.56-29.97z" fill="#0a97b7" opacity=".45"/><path d="m388 120.75-2.11 2.11-72.57 66.57-71.85-66c.69.79 1.4 1.56 2.15 2.3l67.61 62.11a9 9 0 0 0 12.18 0l66.48-61 2.73-2.73h-1.28z" fill="#0a97b7" opacity=".45"/><g fill="#fff" opacity=".25"><path d="m411.8 53.9a51.17 51.17 0 0 0 -9.14-12.45l-.82-.77h-3.1a50.12 50.12 0 0 1 13.06 13.22z"/><path d="m402 68.23a45.54 45.54 0 0 0 -40.1 23.89c-.21.37-.4.75-.59 1.12l1.69 1.76a45.6 45.6 0 0 1 74.34-8.16c.43.49.85 1 1.26 1.51l-2.4-4.67a45.52 45.52 0 0 0 -34.2-15.45z"/><path d="m474.66 84-23.33-26.33-34.95-40.67h-34l-2.69 11.23a51.64 51.64 0 0 0 -13.35-1.77 51.12 51.12 0 0 0 -36.28 15l-12.8 12.82-1.12-1.12a51.31 51.31 0 0 0 -78.72 65.12 51.32 51.32 0 0 1 81.72-60.12l1.12 1.12 12.83-12.83a51.12 51.12 0 0 1 36.28-15 52.68 52.68 0 0 1 9.37.86l-2 8.33h1.72l4.95-20.64h34l34.95 40.64 23.3 26.36a9 9 0 0 1 1.13 1.61 8.76 8.76 0 0 0 -2.13-4.61z"/></g><g fill="#31c4c3"><path d="m9.59 176h11.41c0 3 1.8 4.82 6.34 4.82s6.33-1.87 6.33-4.82-3.6-3.82-7.92-4.61c-6.69-1.22-15.26-2.81-15.26-14.26 0-8.93 6.77-15.26 16.92-15.26 9.86 0 16.56 6 16.92 14.9h-10.98c-.07-2.73-1.8-4.89-5.83-4.89s-5.83 2.37-5.83 4.82c0 3.1 3.6 3.82 8 4.61 6.76 1.2 15.31 2.79 15.31 14.24 0 9.36-7.06 15.26-17.71 15.26s-17.48-5.69-17.7-14.81z"/><path d="m49.77 166.33c0-14.11 10.37-24.48 25.06-24.48s25 10.37 25 24.48-10.36 24.48-25 24.48-25.06-10.37-25.06-24.48zm38.31 0c0-7.92-5.26-13.68-13.25-13.68s-13.25 5.76-13.25 13.68 5.25 13.67 13.25 13.67 13.25-5.75 13.25-13.67z"/><path d="m106.07 171v-28.22h11.67v28.22c0 5.76 2.66 9 8.42 9 5.91 0 8.57-3.17 8.57-9v-28.22h11.38v28.22c0 12.1-7.13 19.8-19.88 19.8-12.96.01-20.16-7.62-20.16-19.8z"/><path d="m153.52 161.65c0-12.17 7.2-19.8 20.16-19.8s20.16 7.63 20.16 19.8v28.23h-11.66v-28.23c0-5.76-2.74-9-8.5-9s-8.5 3.24-8.5 9v28.23h-11.66z"/><path d="m202.41 142.78h16.59c16.56 0 25.2 9.44 25.2 23.55s-8.64 23.55-25.2 23.55h-16.59zm16.59 36.29c9.43 0 13.39-4.89 13.39-12.74s-4-12.75-13.39-12.75h-5v25.49z"/></g></svg>