<svg viewBox="0 0 256 256" xmlns="http://www.w3.org/2000/svg" xmlns:xlink="http://www.w3.org/1999/xlink"><clipPath id="a"><path d="m88.14 57.36s23.75-39.09 76.93-27.86a74.33 74.33 0 0 0 19.56 1.6l11.72-.65a36.08 36.08 0 0 1 -13.73 28.38c-7.78 6.12-18.08 12.08-28.84 12.26 0 0-32.3 6.03-65.64-13.73z"/></clipPath><path d="m199 221v3.53a59.13 59.13 0 0 1 -16.3 7.35l-1.54.46c-.78.23-1.56.44-2.34.65a181.9 181.9 0 0 1 -26 4.65h-.07l-2.11.23-1.53.16c-5.31.51-10 .82-13.55 1h-.91c-2 .09-3.62.13-4.63.16h-1.24c-3.15 0-6.15-.11-9-.22q-6.09-.24-11.39-.69l-2.39-.18q-6.24-.58-11.42-1.42c-1.32-.2-2.6-.43-3.83-.65-19.18-3.55-27.12-9.22-30.26-12.53a9 9 0 0 1 -1.92-2.67 71.09 71.09 0 0 1 7.14-13.57 73.18 73.18 0 0 1 12.34-14 75.17 75.17 0 0 1 16.17-10.89l.26-.13a78 78 0 0 1 63.6-2.18c1.49.61 2.94 1.26 4.37 1.95h.09a75.64 75.64 0 0 1 14.54 9.28 72.43 72.43 0 0 1 21.92 29.71z" fill="#92e0d2"/><path d="m182.74 208.56v23.29l-1.54.46c-.78.23-1.56.44-2.34.65v-24.4c0-9.78-5.69-18.65-14.87-25.05a48.68 48.68 0 0 0 -5.83-3.51 65.73 65.73 0 0 0 -29.92-6.87c-12.93 0-24.74 3.41-33.69 9a2.82 2.82 0 0 0 -.29.18c-9.51 6-15.73 14.59-16.51 24.14q-.09 1-.09 2.07h-3.91c0-.7 0-1.39.08-2.07a30.2 30.2 0 0 1 4.23-13.25c6-10.14 17.67-18.1 32.15-21.77l1-.25a73.53 73.53 0 0 1 17-2c21.45 0 40 9 48.93 22a30.44 30.44 0 0 1 5.6 17.38z" fill="#26a69a"/><path d="m164 183.45-6.28 30.31-4.87 23.53-.09.4-3.62.26c-3.17.2-8.12.5-13.59.72h-.91c-1.51.06-3.06.12-4.62.16h-.81c-9.64.26-19.41.14-23.21-1.11l-.25-.09-11.6-54.75a3.63 3.63 0 0 1 .41-.81c2.93-4.7 16.22-10.94 16.22-10.94l36.52 1.13s6.25.47 15.22 9.58c.48.55.99 1.07 1.48 1.61z" fill="#84cec0"/><path d="m147.31 172.32c-3.7 3.25-10.09 5.38-17.35 5.38-8.17 0-15.23-2.7-18.61-6.63a23.78 23.78 0 0 0 2.06-5.76 15.25 15.25 0 0 0 .23-6.1h30.27a8.32 8.32 0 0 0 -.1 6.26 27.88 27.88 0 0 0 3.5 6.85z" fill="#fbe9e7"/><path d="m143.81 165.47a33.18 33.18 0 0 1 -30.4-.16 15.25 15.25 0 0 0 .23-6.1h30.27a8.32 8.32 0 0 0 -.1 6.26z" fill="#fbe9e7"/><path d="m81.33 100.64c.33 0-.71-6.72.42-9.88s2.81-6.17 3.34-9.48c1-6-1.81-12.93 1.62-18 3.58-5.28 11.71-5.16 16.19-9.69 3.25-3.28 4.29-8.73 8.44-10.75 2.59-1.26 5.68-.76 8.41.14s5.38 2.21 8.25 2.51c5.6.59 11.12-2.72 16.7-1.92a11.62 11.62 0 0 1 7.39 4.26c2.16 2.74 3.06 6.44 5.68 8.76s6.83 2.81 9.91 4.84a10.77 10.77 0 0 1 4.59 10.48c-.62 3.77-3.27 7.41-2.27 11.09.59 2 2.21 3.58 3.45 5.31a15.75 15.75 0 0 1 2.86 10.69l.23 1.18.08.41c2.59-.65 5.26.1 7.93.59a.94.94 0 0 0 .06-.15 60.67 60.67 0 1 0 -111.72.23z" fill="#5d4037"/><path d="m84.37 127.46a13.47 13.47 0 0 1 -2.56.25c-.29 0-.57 0-.86 0-7.29-.47-13.95-6.46-13.95-13.78 0-3.47-.21-8 1.91-10.4 1.81-2.08 5.55-2.92 9-3.21 1.16-.11 2.29-.15 3.32-.16v.48l1.86 18.08.4 3.88a23.49 23.49 0 0 0 .88 4.86z" fill="#fbe9e7"/><path d="m191.3 113.93c0 7.61-7.19 13.78-14.8 13.78a3.7 3.7 0 0 1 -.47 0 13 13 0 0 1 -2.81-.38 23.49 23.49 0 0 0 .76-5.83v-.5l.23-1.94 2.29-18.87c.77 0 1.6 0 2.48.07 3.83.2 8.33 1 10.38 3.31s1.94 6.89 1.94 10.36z" fill="#fbe9e7"/><path d="m73.38 112.06a9.78 9.78 0 0 1 15.82 7.68" fill="none" stroke="#ffccbc" stroke-linecap="round" stroke-linejoin="round" stroke-width="2.33"/><path d="m70.66 102.16c1.56-.1 3.56 1.51 4.66 2.62 5.56 5.62 9.77 14.81 9.05 22.68.78-4.84 1.37-11.18 2.15-16a20.21 20.21 0 0 0 .38-5.31 20.21 20.21 0 0 0 -1.78-5.67 2.09 2.09 0 0 0 -.61-.9 2 2 0 0 0 -1.13-.23 31.18 31.18 0 0 0 -11.46 2.24z" fill="#fbe9e7"/><path d="m187.15 102.16c-1.56-.1-3.56 1.51-4.66 2.62-5.56 5.62-9.77 14.81-9.05 22.68-.78-4.84-1.37-11.18-2.15-16a20.21 20.21 0 0 1 -.38-5.31 19.91 19.91 0 0 1 1.79-5.67 1.47 1.47 0 0 1 1.73-1.13 31.23 31.23 0 0 1 11.47 2.24z" fill="#fbe9e7"/><path d="m184.93 112.06a9.78 9.78 0 0 0 -15.82 7.68" fill="none" stroke="#ffccbc" stroke-linecap="round" stroke-linejoin="round" stroke-width="2.33"/><path d="m176.54 100.15-2.33 18.85a9 9 0 0 0 -.21 2l-.77 6.35c-3.06 11.86-14.86 22.32-25.53 29.66a33.23 33.23 0 0 1 -37.81 0c-10.63-7.3-22.38-17.72-25.5-29.51a23.49 23.49 0 0 1 -.78-4.84c0-.37 0-.74 0-1.12v-.2a8.76 8.76 0 0 0 -.37-2.56s-1.91-19.26-2-19.63c-.89-2.63-2.7-35 .72-40.08 3.58-5.29 25.3-14.16 29.45-16.18 2.59-1.26 27.78-.07 33.36.73a11.62 11.62 0 0 1 7.39 4.26c2.16 2.74 18 10.12 21.12 12.15 3.37 2.22 3.48 35.26 3.1 39z" fill="#fbe9e7"/><g fill="none"><path d="m174 121v.52a23.49 23.49 0 0 1 -.76 5.83z" stroke="#fbe9e7" stroke-miterlimit="10" stroke-width=".78"/><path d="m83.59 122.6-.4-3.88a8.76 8.76 0 0 1 .37 2.56v.2c0 .38.01.75.03 1.12z" stroke="#fbe9e7" stroke-miterlimit="10" stroke-width=".78"/><path d="m173.21 127.31.79-6.31v.52a23.49 23.49 0 0 1 -.76 5.83z" stroke="#fbe9e7" stroke-miterlimit="10" stroke-width=".78"/><path d="m174.21 119-.21 2a9 9 0 0 1 .21-2z" stroke="#fbe9e7" stroke-miterlimit="10" stroke-width=".78"/><path d="m83.59 122.6-.4-3.88a8.76 8.76 0 0 1 .37 2.56v.2c0 .38.01.75.03 1.12z" stroke="#fbe9e7" stroke-miterlimit="10" stroke-width=".78"/><path d="m174.21 119-.21 2a9 9 0 0 1 .21-2z" stroke="#fbe9e7" stroke-miterlimit="10" stroke-width=".78"/><path d="m133.91 117.91c0 2-2.37 3.66-5.28 3.66s-5.29-1.64-5.29-3.66" stroke="#ffccbc" stroke-linecap="round" stroke-linejoin="round" stroke-width="2.33"/><path d="m137.73 132.82c-1.5 1.85-5 3.15-9.11 3.15s-7.59-1.29-9.1-3.14" stroke="#ffccbc" stroke-linecap="round" stroke-linejoin="round" stroke-width="2.33"/></g><ellipse cx="105.33" cy="101.37" fill="#4e342e" rx="3.74" ry="4.84"/><ellipse cx="152.26" cy="101.37" fill="#4e342e" rx="3.74" ry="4.84"/><path d="m87.94 88.52a28.16 28.16 0 0 1 29.91-2.27 2.56 2.56 0 1 1 -2.47 4.49l-.21-.13a23 23 0 0 0 -12.7-3.81 24.47 24.47 0 0 0 -13.22 3.62 1.16 1.16 0 0 1 -1.32-1.91z" fill="#8d6e63"/><path d="m166.78 91.42a24.61 24.61 0 0 0 -13-4.46 23.29 23.29 0 0 0 -13 3 2.52 2.52 0 0 1 -2.57-4.33l.2-.11a28.27 28.27 0 0 1 29.81 4.09 1.16 1.16 0 0 1 .12 1.64 1.17 1.17 0 0 1 -1.56.18z" fill="#8d6e63"/><path d="m81.28 100.16-9.36 1.41s-18.49-70.38 16.22-67.57l1.06 22.9s-13.51 7.91-7.92 43.26z" fill="#6d4c41"/><path d="m129.81 16.78s-31.2.45-45.44 17.13l3.77 23.45s17.86 11.35 40.69 13.64c0 0 25.64 5.43 48.89-8.62 11.21-6.78 18.63-18.85 18.63-31.95l-22.64 1.26s-22.05-15.12-43.9-14.91z" fill="#6d4c41"/><path d="m88.14 57.36s23.75-39.09 76.93-27.86a74.33 74.33 0 0 0 19.56 1.6l11.72-.65a36.08 36.08 0 0 1 -13.73 28.38c-7.78 6.12-18.08 12.08-28.84 12.26 0 0-32.3 6.03-65.64-13.73z" fill="#6d4c41"/><g clip-path="url(#a)"><path d="m93.3 50.74c5.92 4 15.14 7.1 22.2 8.14 13.47 2 27.29 2.68 40.64 0s26.25-9 35.11-19.36c2.43-2.83 4.58-6 5.32-9.69 2.35 1.06 3.5 3.76 3.92 6.31 1.18 7.17-1.85 14.58-6.72 20s-11.42 9-18.14 11.76a88.81 88.81 0 0 1 -41 6.68c-13.91-1.22-36.58-7.93-47.57-16.58" fill="#5d4037"/></g><path d="m94.76 221.36v13a15.83 15.83 0 0 1 -.17 2.29c-1.32-.2-2.6-.43-3.83-.65a11.31 11.31 0 0 0 .12-1.64v-13c0-6.06-4.24-11-9.45-11h-11.43c-5.22 0-9.45 4.93-9.45 11v2.19a18.15 18.15 0 0 1 -3.55-5.55 14.41 14.41 0 0 1 8.76-10.78 12 12 0 0 1 4.23-.77h11.44c7.35.04 13.33 6.71 13.33 14.91z" fill="#26a69a"/></svg>