<svg viewBox="0 0 256 256" xmlns="http://www.w3.org/2000/svg"><g fill="#fff"><path d="m83.79 139.82c2 0 2.86-.55 3.37-2.53q7-27.09 14.23-54.12c.16-.59.29-1.18.47-1.76a4.79 4.79 0 0 1 4.56-3.78 4.58 4.58 0 0 1 4.9 3.6c1.21 4.62 2.2 9.29 3.28 13.94l15.21 65.37c.14.57.33 1.13.7 2.38.85-4 1.59-7.41 2.28-10.8q3.74-18.27 7.45-36.56c.6-3 2.22-4.64 4.66-4.84a5.54 5.54 0 0 1 5.32 3.89c3.48 7.91 7 15.8 10.42 23.74.66 1.55 1.69 1.43 2.89 1.43h51l1.14-1.65a68.54 68.54 0 0 0 12-49.52 54.43 54.43 0 0 0 -86-36.67 79.89 79.89 0 0 0 -7.39 6.36c-1.2 1.12-2.44 2.28-3.74 3.42l-3 2.65-2.94-3.11c-.22-.24-.49-.54-.8-.86a53 53 0 0 0 -40.62-18.85c-1.72 0-3.45.07-5.21.22a51.07 51.07 0 0 0 -42.17 26.52 61 61 0 0 0 -2.06 57.19 90.32 90.32 0 0 0 7.9 14.28q21.06 0 42.15.06z"/><path d="m159.71 149.53a6.37 6.37 0 0 1 -6.76-4.48 106 106 0 0 0 -6.15-12.75q-1.5 7.19-3 14.35-4.08 19.85-8.15 39.67c-.63 3.06-2.21 4.54-4.78 4.59s-4.26-1.35-5-4.36q-9.33-39.87-18.62-79.75a8.56 8.56 0 0 0 -1.24-3.16l-6.51 24.75q-2.22 8.36-4.45 16.71c-.88 3.23-2.23 4.36-5.48 4.37h-40.74c3.45 4.19 7 7.95 10.14 11.26a342.54 342.54 0 0 0 69.14 53.82 377.3 377.3 0 0 0 55.75-40.92 210.21 210.21 0 0 0 23.3-24.16q-23.68-.03-47.45.06z"/><path d="m21.48 139.77a4.94 4.94 0 0 0 -5.48 4.38 3.11 3.11 0 0 0 0 .43 4.82 4.82 0 0 0 4.73 4.91h.66 17a115.1 115.1 0 0 1 -6.54-9.7z"/><path d="m237 140.2a9.46 9.46 0 0 0 -3.13-.41h-9.45c-.62 1-1.25 2-1.91 2.94q-2.29 3.41-4.8 6.75h15.78a21.71 21.71 0 0 0 2.28-.07 4.76 4.76 0 0 0 4.23-4.13 4.68 4.68 0 0 0 -3-5.08z"/></g></svg>