<svg viewBox="0 0 256 256" xmlns="http://www.w3.org/2000/svg" xmlns:xlink="http://www.w3.org/1999/xlink"><linearGradient id="a" gradientTransform="matrix(40.33 0 0 -24.44 1045.46 57235.5)" gradientUnits="userSpaceOnUse" x1="-22.75" x2="-22.75" y1="2340.83" y2="2332.05"><stop offset="0" stop-color="#92e0d2"/><stop offset="1" stop-color="#0a97b7"/></linearGradient><linearGradient id="b" gradientTransform="matrix(31.81 0 0 -22.32 879.26 52333.17)" x1="-23.62" x2="-23.62" xlink:href="#a" y1="2344.04" y2="2334.43"/><linearGradient id="c" gradientTransform="matrix(4.51 0 0 -1.96 326.61 5257.81)" x1="-66.32" x2="-66.32" xlink:href="#a" y1="2670.03" y2="2560.14"/><linearGradient id="d" gradientTransform="matrix(4.49 0 0 -1.95 366.78 5234.95)" x1="-30.87" x2="-30.87" xlink:href="#a" y1="2671.56" y2="2561.59"/><path d="m84 139.75c2 0 2.85-.55 3.35-2.52q7-26.92 14.16-53.8c.15-.58.28-1.17.46-1.75a4.78 4.78 0 0 1 4.54-3.76 4.56 4.56 0 0 1 4.87 3.58c1.2 4.6 2.18 9.24 3.26 13.86l15.12 65c.13.57.33 1.12.7 2.37.84-4 1.58-7.37 2.27-10.74q3.71-18.16 7.39-36.35c.61-3 2.21-4.61 4.65-4.81a5.51 5.51 0 0 1 5.28 3.87c3.47 7.87 7 15.7 10.36 23.6.65 1.54 1.68 1.42 2.87 1.42h50.72c.37-.55.75-1.09 1.13-1.64a68.12 68.12 0 0 0 12-49.23 54.11 54.11 0 0 0 -85.5-36.45 77.5 77.5 0 0 0 -7.35 6.32c-1.19 1.11-2.42 2.26-3.71 3.4l-3 2.63-2.92-3.09c-.22-.24-.49-.54-.8-.86a52.68 52.68 0 0 0 -40.41-18.75c-1.71 0-3.43.08-5.18.23a50.74 50.74 0 0 0 -41.92 26.36 60.61 60.61 0 0 0 -2.05 56.85 89.29 89.29 0 0 0 7.85 14.2q20.94 0 41.86.06z" fill="url(#a)"/><path d="m159.53 149.4a6.35 6.35 0 0 1 -6.73-4.4 102.79 102.79 0 0 0 -6.11-12.69l-3 14.28q-4 19.71-8.11 39.43c-.62 3-2.19 4.52-4.74 4.56s-4.25-1.34-5-4.33q-9.28-39.65-18.52-79.29a8.7 8.7 0 0 0 -1.23-3.14l-6.51 24.61q-2.2 8.31-4.42 16.61c-.87 3.22-2.22 4.34-5.45 4.34h-40.42c3.43 4.17 6.93 7.91 10.08 11.2a340.45 340.45 0 0 0 68.74 53.42 375.36 375.36 0 0 0 55.43-40.67 209.48 209.48 0 0 0 23.16-24q-23.55-.02-47.17.07z" fill="url(#b)"/><path d="m22.1 139.7a4.92 4.92 0 0 0 -5.42 4.36v.43a4.79 4.79 0 0 0 4.71 4.87 3.58 3.58 0 0 0 .65 0h16.96a113.69 113.69 0 0 1 -6.5-9.64z" fill="url(#c)"/><path d="m236.32 140.13a9.38 9.38 0 0 0 -3.11-.41h-9.41c-.6 1-1.23 2-1.89 2.93-1.52 2.25-3.11 4.49-4.78 6.7h15.69a19.13 19.13 0 0 0 2.27-.07 4.7 4.7 0 0 0 4.2-4.1 4.65 4.65 0 0 0 -2.97-5.05z" fill="url(#d)"/></svg>