<svg viewBox="0 0 256 256" xmlns="http://www.w3.org/2000/svg"><path d="m179.66 21.88h-.54a61.26 61.26 0 0 0 -47.19 22.57 5.1 5.1 0 0 1 -7.9 0 61.26 61.26 0 0 0 -47.2-22.57h-.54a60.88 60.88 0 0 0 -60.29 60.84 131 131 0 0 0 25.74 71.47 450.77 450.77 0 0 0 78.63 77.35 12.53 12.53 0 0 0 15.23 0 450.59 450.59 0 0 0 78.66-77.35 131.06 131.06 0 0 0 25.74-71.44 60.87 60.87 0 0 0 -60.34-60.87zm22.4 123.39a412.66 412.66 0 0 1 -67.69 68 10.28 10.28 0 0 1 -12.8 0 413.42 413.42 0 0 1 -67.67-68.08 116.18 116.18 0 0 1 -22.83-62.48 45.68 45.68 0 0 1 45.34-45.71h.48a45.18 45.18 0 0 1 22.11 5.82 47 47 0 0 1 16.36 15.34 15.14 15.14 0 0 0 22.78 3 16.72 16.72 0 0 0 2.7-3.23 47.56 47.56 0 0 1 16.19-15.06 45.13 45.13 0 0 1 22.15-5.87h.48a45.67 45.67 0 0 1 45.34 45.72 117.65 117.65 0 0 1 -22.94 62.54z" fill="#054c5c"/></svg>