<svg viewBox="0 0 256 256" xmlns="http://www.w3.org/2000/svg"><g fill="#31c4c3"><path d="m53.42 220.48a3.72 3.72 0 0 1 -3.72-3.71c0-12.25-.08-51.75-.13-72.57a4.62 4.62 0 0 1 1.82-3.88q37.76-32.64 75.45-65.32a1.67 1.67 0 0 1 2.2 0c1.9 1.69 52 46.49 75.19 67.16a5.8 5.8 0 0 1 2.14 4.85c-.06 20-.09 57.77-.12 69.71a3.72 3.72 0 0 1 -3.72 3.71z"/><path d="m127.91 62.85c-4.77 4.18-66.56 58.46-92.73 81.5-2.32 2.05-4.52 4.15-7.82 4.41a10.32 10.32 0 0 1 -10.45-6 10.11 10.11 0 0 1 2.66-11.94c6.98-6.26 107.88-94.82 108.43-95.3 15 13.18 98.7 86.72 108.13 95 4.62 4.05 5.18 10.38 1.3 14.81s-10.33 4.67-14.88.67c-31.11-27.41-94.13-82.74-94.64-83.15z"/></g></svg>