<svg viewBox="0 0 256 256" xmlns="http://www.w3.org/2000/svg"><path d="m239.14 59.64h-17.82a.8.8 0 0 1 -.76-.84v-20.23a.81.81 0 0 0 -.77-.83h-18.29a.82.82 0 0 1 -.76-.84v-20.06a.8.8 0 0 0 -.74-.84h-143.12a.8.8 0 0 0 -.76.84v20.06a.81.81 0 0 1 -.78.84h-18.29a.79.79 0 0 0 -.76.83v20.23a.8.8 0 0 1 -.76.84h-18.77a.8.8 0 0 0 -.76.84v178.59a.79.79 0 0 0 .76.83h222.46a.79.79 0 0 0 .76-.83v-178.59a.81.81 0 0 0 -.78-.84zm-132.87-16.24a.94.94 0 0 1 .92-1h12.87a.93.93 0 0 0 .91-.95v-13.27a1 1 0 0 1 .93-.95h12.87a1 1 0 0 1 .93.95v13.31a.94.94 0 0 0 .92.95h12.86a.94.94 0 0 1 .92 1v13.26a.92.92 0 0 1 -.92.95h-12.86a.94.94 0 0 0 -.92 1v13.3a1 1 0 0 1 -.93 1h-12.87a1 1 0 0 1 -.93-1v-13.34a.93.93 0 0 0 -.89-1h-12.89a.92.92 0 0 1 -.92-.95zm-16 46.43a1.39 1.39 0 0 1 1.31-1.49h19.35a1.4 1.4 0 0 1 1.38 1.42.15.15 0 0 1 0 .07v20a1.4 1.4 0 0 1 -1.31 1.49h-19.35a1.41 1.41 0 0 1 -1.38-1.43.13.13 0 0 1 0-.06zm-32 127.38a1.41 1.41 0 0 1 -1.27 1.49h-19.37a1.39 1.39 0 0 1 -1.37-1.43v-20a1.4 1.4 0 0 1 1.31-1.49h19.35a1.4 1.4 0 0 1 1.38 1.42v20zm0-53.75a1.4 1.4 0 0 1 -1.27 1.54h-19.37a1.4 1.4 0 0 1 -1.37-1.43v-20a1.41 1.41 0 0 1 1.31-1.57h19.35a1.4 1.4 0 0 1 1.38 1.43v20zm0-53.75a1.41 1.41 0 0 1 -1.31 1.5h-19.33a1.4 1.4 0 0 1 -1.37-1.43v-20a1.41 1.41 0 0 1 1.31-1.49h19.35a1.4 1.4 0 0 1 1.38 1.43v20zm108.05 53.75v63.72a1.41 1.41 0 0 1 -1.32 1.49h-73.35a1.42 1.42 0 0 1 -1.38-1.43.15.15 0 0 1 0-.07v-83.6a1.39 1.39 0 0 1 1.31-1.49h73.42a1.41 1.41 0 0 1 1.38 1.43v20zm0-53.75a1.42 1.42 0 0 1 -1.32 1.5h-19.32a1.4 1.4 0 0 1 -1.37-1.43v-20a1.41 1.41 0 0 1 1.31-1.49h19.38a1.4 1.4 0 0 1 1.38 1.43v20zm54 107.5a1.41 1.41 0 0 1 -1.31 1.49h-19.3a1.39 1.39 0 0 1 -1.37-1.43v-20a1.4 1.4 0 0 1 1.31-1.49h19.46a1.39 1.39 0 0 1 1.37 1.42v.07zm0-53.75a1.4 1.4 0 0 1 -1.31 1.49h-19.3a1.4 1.4 0 0 1 -1.37-1.43v-20a1.41 1.41 0 0 1 1.31-1.49h19.46a1.39 1.39 0 0 1 1.37 1.43v.06zm0-53.75a1.41 1.41 0 0 1 -1.31 1.5h-19.3a1.4 1.4 0 0 1 -1.37-1.43v-20a1.41 1.41 0 0 1 1.31-1.49h19.46a1.39 1.39 0 0 1 1.37 1.43v.06z" fill="#3ab0c0"/></svg>