<svg viewBox="0 0 164.41 243.22" xmlns="http://www.w3.org/2000/svg"><rect fill="#bdbdbd" height="17.79" rx="8.9" transform="matrix(.99980895 -.01954644 .01954644 .99980895 -4.25 1.72)" width="35.59" x="67.57" y="208.52"/><path d="m58.82 176.9c-.33-8.15-3.7-15.25-7.64-22.15-3.61-6.32-8.41-11.75-12.83-17.46a79.33 79.33 0 0 1 -15.73-36.88c-2-13-.68-25.52 5.47-37.26a55.93 55.93 0 0 1 32.57-27.67c20.08-6.82 39.56-5.17 57.59 6.33 14.75 9.44 23.34 23.19 25.27 40.7 2.32 21.07-3.85 39.76-16.69 56.42-6.91 9-12.87 18.44-15.61 29.61a28.8 28.8 0 0 0 -.88 7.34c-3.8.12-46.64.94-51.52 1.02z" fill="#ffd54f"/><path d="m143.52 82.51c-1.88-17-10-30.5-24.07-39.91 10.18 9 16.16 20.78 17.74 35.05 2.32 21.06-3.85 39.76-16.69 56.42-6.9 9-12.87 18.44-15.61 29.6a28.88 28.88 0 0 0 -.89 7.33c-3.13.08-32.68.66-45.78.91a33.75 33.75 0 0 1 .59 5c4.88-.08 47.72-.92 51.52-1a28.8 28.8 0 0 1 .88-7.34c2.74-11.17 8.7-20.64 15.61-29.61 12.85-16.69 19.02-35.38 16.7-56.45z" fill="#ffd54f"/><path d="m108.06 115.92a24.68 24.68 0 1 0 -34.48 23.14l.82 42.19a7.5 7.5 0 0 0 7.6 7.33l5.53-.1a7.52 7.52 0 0 0 7.34-7.63l-.83-42.19a24.67 24.67 0 0 0 14.02-22.74z" fill="none" stroke="#cfd8dc" stroke-miterlimit="10" stroke-width="4.36"/><rect fill="#cfd8dc" height="44.26" rx="5.38" transform="matrix(.99980895 -.01954644 .01954644 .99980895 -3.86 1.7)" width="57.87" x="56.04" y="175.58"/><path d="m55.88 185.42h38.79a4.36 4.36 0 0 1 4.33 4.36 4.36 4.36 0 0 1 -4.36 4.36h-38.76a0 0 0 0 1 0 0v-8.73a0 0 0 0 1 0 0z" fill="#90a4ae" transform="matrix(.99980895 -.01954644 .01954644 .99980895 -3.71 1.56)"/><path d="m70.94 202.38h38.79a4.36 4.36 0 0 1 4.36 4.36 4.36 4.36 0 0 1 -4.36 4.36h-38.79a0 0 0 0 1 0 0v-8.73a0 0 0 0 1 0 .01z" fill="#90a4ae" transform="matrix(-1 .02 -.02 -1 189.07 411.63)"/><path d="m71.84 45.41s-41.69 4.88-36.32 47.25" fill="none" stroke="#ffecb3" stroke-linecap="round" stroke-linejoin="round" stroke-width="7.48"/></svg>