<svg viewBox="0 0 256 256" xmlns="http://www.w3.org/2000/svg" xmlns:xlink="http://www.w3.org/1999/xlink"><pattern id="a" height="18.36" patternTransform="matrix(-.5 .12 -.11 -.52 145.49 -15.01)" patternUnits="userSpaceOnUse" viewBox="0 0 18.36 18.36" width="18.36"><path d="m0 0h18.36v18.36h-18.36z" fill="none"/><path d="m.25.25h17.86v17.86h-17.86z" fill="#ffccbc" stroke="#f44336" stroke-miterlimit="10" stroke-width=".5"/><path d="m.25.25h5.95v5.95h-5.95z" fill="#ffccbc" stroke="#f44336" stroke-miterlimit="10" stroke-width=".5"/><path d="m6.2.25h5.95v5.95h-5.95z" fill="#ffccbc" stroke="#f44336" stroke-miterlimit="10" stroke-width=".5"/><path d="m12.16.25h5.95v5.95h-5.95z" fill="#ffccbc" stroke="#f44336" stroke-miterlimit="10" stroke-width=".5"/><path d="m.25 6.2h5.95v5.95h-5.95z" fill="#ffccbc" stroke="#f44336" stroke-miterlimit="10" stroke-width=".5"/><path d="m6.2 6.2h5.95v5.95h-5.95z" fill="#ffccbc" stroke="#f44336" stroke-miterlimit="10" stroke-width=".5"/><path d="m12.16 6.2h5.95v5.95h-5.95z" fill="#ffccbc" stroke="#f44336" stroke-miterlimit="10" stroke-width=".5"/><path d="m.25 12.16h5.95v5.95h-5.95z" fill="#ffccbc" stroke="#f44336" stroke-miterlimit="10" stroke-width=".5"/><path d="m6.2 12.16h5.95v5.95h-5.95z" fill="#ffccbc" stroke="#f44336" stroke-miterlimit="10" stroke-width=".5"/><path d="m12.16 12.16h5.95v5.95h-5.95z" fill="#ffccbc" stroke="#f44336" stroke-miterlimit="10" stroke-width=".5"/></pattern><rect fill="#263238" height="139.14" rx="7.62" width="178.13" x="60.13" y="74.7"/><g fill="#78909c"><rect height="114.6" rx="4.6" transform="matrix(.99999701 .00244346 -.00244346 .99999701 .34 -.17)" width="9.3" x="66.87" y="87.14"/><rect height="18.14" rx="4.74" transform="matrix(-.00331612 .9999945 -.9999945 -.00331612 168.57 15.93)" width="9.65" x="71.52" y="82.9"/><rect height="18.14" rx="4.74" transform="matrix(-.00331612 .9999945 -.9999945 -.00331612 186 33.54)" width="9.65" x="71.46" y="100.4"/><rect height="18.14" rx="4.74" transform="matrix(-.00331612 .9999945 -.9999945 -.00331612 203.44 51.15)" width="9.65" x="71.4" y="117.89"/><rect height="18.14" rx="4.74" transform="matrix(-.00331612 .9999945 -.9999945 -.00331612 220.87 68.75)" width="9.65" x="71.35" y="135.38"/><rect height="18.14" rx="4.74" transform="matrix(-.00331612 .9999945 -.9999945 -.00331612 238.3 86.36)" width="9.65" x="71.29" y="152.87"/><rect height="18.14" rx="4.74" transform="matrix(-.00331612 .9999945 -.9999945 -.00331612 255.73 103.96)" width="9.65" x="71.23" y="170.36"/><rect height="18.14" rx="4.74" transform="matrix(-.00331612 .9999945 -.9999945 -.00331612 273.17 121.57)" width="9.65" x="71.17" y="187.85"/></g><rect fill="#e0e0e0" height="6.24" opacity=".55" rx="3.06" transform="matrix(.99999701 .00244346 -.00244346 .99999701 .45 -.5)" width="38.81" x="191.2" y="186.17"/><rect fill="#e0e0e0" height="6.24" opacity=".55" rx="2.59" transform="matrix(.99999701 .00244346 -.00244346 .99999701 .47 -.48)" width="27.62" x="191.17" y="195.81"/><path d="m200.42 177a18.62 18.62 0 0 1 -17.76-14l-51.25-.12a18.65 18.65 0 0 1 -17.85 14c-10.19 0-18.46-8.64-18.42-19.22a19.57 19.57 0 0 1 5-13.11 19.58 19.58 0 0 1 -5-13.13c0-10.57 8.36-19.16 18.56-19.13a18.64 18.64 0 0 1 18 15l50.8.12a18.71 18.71 0 0 1 18.08-14.87c10.19 0 18.46 8.65 18.43 19.23a19.61 19.61 0 0 1 -5.05 13.1 19.55 19.55 0 0 1 5 13.13c-.03 10.48-8.35 19.06-18.54 19z" fill="#455a64"/><path d="m161 153.22a3.77 3.77 0 0 0 .15-3.21 37 37 0 0 0 -2.22-3.33l-2.45-3.68-2.42-3.54a8.4 8.4 0 0 1 -1.75-3.58 6.81 6.81 0 0 1 .46-3.06l-26-.06c0-.44.06-.88.06-1.33a13.09 13.09 0 1 0 -26.16-.06 13.49 13.49 0 0 0 9.68 13.14 13.51 13.51 0 0 0 -9.77 13.09 13.09 13.09 0 1 0 26.17.06c0-.14 0-.28 0-.42l32.62.07.16-.38c.47-1.22 1.03-2.45 1.47-3.71z" fill="#78909c"/><path d="m203.88 144.75a13.53 13.53 0 0 0 9.77-13.1 13.09 13.09 0 1 0 -26.17-.06c0 .45 0 .9.06 1.34l-31.34-.08-.17.5a7.11 7.11 0 0 0 -.53 1.85 2.55 2.55 0 0 0 .58 1.43c1.59 2.44 3.28 4.81 4.91 7.21.82 1.21 1.65 2.4 2.46 3.61a6.5 6.5 0 0 1 1.29 3.88 12 12 0 0 1 -1.18 4.27l-.73 1.74 24.58.06v.43a13.09 13.09 0 1 0 26.16.06 13.49 13.49 0 0 0 -9.69-13.14z" fill="#78909c"/><path d="m124 130.31a11.73 11.73 0 0 1 -.07 1.33h2.9v-.2a13.48 13.48 0 0 0 -9.83-13.17 13.62 13.62 0 0 1 7 12.04z" fill="#78909c"/><path d="m161.18 150a37 37 0 0 0 -2.22-3.33l-2.48-3.67-2.42-3.54a8.4 8.4 0 0 1 -1.75-3.58 6.81 6.81 0 0 1 .46-3.06h-3.17a5.36 5.36 0 0 0 -.12 1.92 8.28 8.28 0 0 0 1.75 3.58l2.41 3.54 2.49 3.66c.74 1.09 1.58 2.16 2.22 3.32a3.79 3.79 0 0 1 -.16 3.22c-.46 1.26-1 2.49-1.54 3.72l-.17.39-32.61-.08v.43a13.34 13.34 0 0 1 -13.12 13.54 12.49 12.49 0 0 1 -3.25-.43 12.56 12.56 0 0 0 6.08 1.57 13.35 13.35 0 0 0 13.13-13.54c0-.14 0-.28 0-.42l32.62.07.16-.38c.52-1.24 1.08-2.47 1.55-3.73a3.77 3.77 0 0 0 .14-3.2z" fill="#78909c"/><path d="m187.4 156.26h-24.1c-.16.37-.31.75-.47 1.13l24.57.06c0-.24 0-.47 0-.71s0-.34 0-.48z" fill="#78909c"/><path d="m213.56 157.89a13.49 13.49 0 0 0 -9.68-13.14 13.71 13.71 0 0 0 0-26.27 13.76 13.76 0 0 1 -2.81 25.13 13.64 13.64 0 0 1 -3.45 26.68 12.36 12.36 0 0 1 -3.24-.43 12.52 12.52 0 0 0 6.07 1.57 13.34 13.34 0 0 0 13.11-13.54z" fill="#78909c"/><path d="m237.72 206.64.41-123.64a7.82 7.82 0 0 0 -3.87-6.81 8 8 0 0 1 .25 2l-.41 123.61a7.66 7.66 0 0 1 -7.5 7.74l-163.18-.39a7.22 7.22 0 0 1 -3.59-1 7.55 7.55 0 0 0 7.17 5.85l163.18.39a7.65 7.65 0 0 0 7.54-7.75z" fill="#263238"/><rect fill="#fafafa" height="45.72" opacity=".9" rx="2.95" transform="matrix(-.00331612 .9999945 -.9999945 -.00331612 288.79 -120.8)" width="6.25" x="201.47" y="60.66"/><path d="m17.87 64.29 49.79-24.78 69.99 151.34-49.79 24.78z" fill="#fafafa" fill-rule="evenodd"/><path d="m62.97 49.1 64.54 139.54-34.96 17.4-64.54-139.54z" style="stroke:#f44336;stroke-miterlimit:10;fill-rule:evenodd;stroke-width:.64;opacity:.4;fill:url(#a)"/><path d="m108.08 196.44-3-2.39-.09.76 3.85-2.54c.3-.2.32-.81-.12-.88-2.4-.35-2-3.72-2.84-5.39-.49-.94-1.47-1.49-1.83-2.5a17 17 0 0 0 -.7-2.41 5.39 5.39 0 0 0 -7.29-2.09c-.56.31-.07 1.08.48.83l8.37-3.76c.5-.22.14-1.05-.37-.88-3.75 1.28-5.82-5.84-9.81-3.73l.48.83 2.78-1.7a.5.5 0 0 0 .22-.55 28.64 28.64 0 0 0 -7.82-13v.69a4.26 4.26 0 0 0 1.21-2.73.49.49 0 0 0 -.48-.48 17.59 17.59 0 0 1 -5.9-.78v.93a27.45 27.45 0 0 0 8.31-4.28.48.48 0 0 0 -.49-.83c-1.91.84-3.88-.78-5.47-1.66-1.43-.79-3-1.43-4.6-.89l.37.88c4.64-2.1.9-8.63-.65-11.54a21.15 21.15 0 0 0 -1.85-2.92c-.31-.4-1-.95-1.17-1.42-.1-.3 0-.75-.08-1.1-.71-2.37-3.43-2.41-5.44-2.19l.25.89 8-3.7a.48.48 0 0 0 .1-.76 3.3 3.3 0 0 0 -2.17-1 5.92 5.92 0 0 1 -3.73-1.36c-1.48-1.32-3.1-2.89-5.2-1.89l.66.66a5 5 0 0 1 2.17-1.75.47.47 0 0 0 .22-.54c-1.35-3.71-2.49-7.59-4.09-11.2a3.12 3.12 0 0 0 -2.3-2c-1.43-.29-3 .3-4.29-.66v.84l7.33-3.5c.49-.23.14-1-.38-.88-1.89.66-3.48-.51-4.93-1.6a15.33 15.33 0 0 0 -4.42-2.69c-.61-.19-.81.7-.26.93 1.77.75 3.1-1.19 3-2.77a11.64 11.64 0 0 0 -1.28-3.74l-1.83-4.11c-.89-2-1.72-4.4-3.61-5.76a4.22 4.22 0 0 0 -5.26 0c-.44.37.12 1 .58.76l6.89-3.59c.55-.3.07-1.09-.49-.84-2.35 1.1-4.15-1.93-5.51-3.33a4.6 4.6 0 0 0 -4.1-1.69l.37.88c2.61-1.19 2-4.35.85-6.36-1.84-3.35-3.89-6.6-5.84-9.9a.48.48 0 0 0 -.83.49l4.44 7.52c1.09 1.85 4.08 6 .9 7.42-.54.24-.13 1 .37.88 2.49-.42 3.89 2.62 5.49 4 1.28 1.08 2.76 1.69 4.35 1l-.49-.84-6.85 3.62.58.75c1.46-1.22 3.48-.58 4.69.66a13.15 13.15 0 0 1 2.29 4c.7 1.59 1.39 3.19 2.08 4.78a17.5 17.5 0 0 1 1.1 2.66c.28 1 0 3.29-1.6 2.6l-.26.93c3.32 1.06 6 5.63 9.87 4.29l-.37-.88-7.32 3.49a.49.49 0 0 0 0 .84 4.58 4.58 0 0 0 3 .69 4.94 4.94 0 0 1 2.06.22c.94.43 1.2 1.44 1.53 2.33l3.65 10.05.22-.55a5.87 5.87 0 0 0 -2.51 2.09c-.3.43.27.85.66.66 2.14-1 3.72 1.84 5.33 2.73 1.39.77 3.5.16 4.6 1.33l.14-.82-8 3.7a.49.49 0 0 0 .24.9 5.75 5.75 0 0 1 3.53.3 2.26 2.26 0 0 1 1 1.35 3.51 3.51 0 0 0 0 1c.28.67 1.24 1.4 1.67 2a21 21 0 0 1 1.43 2.3c1.34 2.48 5.09 8.6 1.1 10.41-.5.23-.15 1 .37.88 3.7-1.23 6.43 4.15 10.3 2.45l-.49-.83a26.84 26.84 0 0 1 -8.15 4.24.49.49 0 0 0 0 .93 18.27 18.27 0 0 0 6.15.81l-.49-.48a3.12 3.12 0 0 1 -.92 2.06.5.5 0 0 0 0 .69 27.64 27.64 0 0 1 7.57 12.54l.23-.55-2.78 1.71a.48.48 0 0 0 .48.83c1.87-1 3.77 1.31 5.07 2.37s2.8 2 4.51 1.46l-.37-.88-8.39 3.81.48.83a4.4 4.4 0 0 1 4.69.29 4.06 4.06 0 0 1 1.55 2.11 8.14 8.14 0 0 0 .84 2.55c.51.73 1.22 1.19 1.56 2.05s.41 1.83.67 2.73a3.49 3.49 0 0 0 2.63 2.81l-.11-.88-3.85 2.51a.5.5 0 0 0 -.1.76l3 2.39c.48.38 1.17-.29.68-.68z" fill="#f44336"/><rect fill="#e0f7fa" height="67.49" rx="6.79" width="43.67" x="45.56" y="148.07"/><rect fill="#e0f7fa" height="38.11" rx="3.96" transform="matrix(0 1 -1 0 249.2 114.42)" width="61.73" x="36.53" y="162.76"/><rect fill="#1565c0" height="10.55" rx="5.18" width="52.8" x="40.99" y="147"/><path d="m45.56 158.59h43.66" fill="#80deea" stroke="#b2ebf2" stroke-miterlimit="10" stroke-width="2.02"/><path d="m77.68 168.84h11.55v36.99h-11.55z" fill="#eee"/><path d="m77.68 168.84h11.55v8.2h-11.55z" fill="#ffee58"/><path d="m87.88 168.84v34.69h-10.2v2.3h11.54v-36.99z" fill="#eee"/><path d="m91.7 148a5.39 5.39 0 0 1 1 3.1 5.19 5.19 0 0 1 -5.08 5.27h-42.62a4.9 4.9 0 0 1 -3-1 5 5 0 0 0 4.1 2.18h42.61a5.2 5.2 0 0 0 5.08-5.28 5.34 5.34 0 0 0 -2.09-4.27z" fill="#1565c0"/><path d="m84.25 109.59h9.94a8.76 8.76 0 0 1 8.76 8.76v4.89a0 0 0 0 1 0 0h-27.45a0 0 0 0 1 0 0v-4.89a8.76 8.76 0 0 1 8.76-8.76z" fill="#757575"/><path d="m103 117c0-4.11-4.61-7.45-10.29-7.45h-6.92a12.08 12.08 0 0 0 -8 2.8 12.91 12.91 0 0 1 6.43-1.64h6.87c5.69 0 10.29 3.33 10.29 7.45v5h1.62z" fill="#757575"/><path d="m82.16 118.26h14.13a6.66 6.66 0 0 1 6.66 6.66v78.65a12.91 12.91 0 0 1 -12.95 12.92h-1.59a12.91 12.91 0 0 1 -12.91-12.91v-78.66a6.66 6.66 0 0 1 6.66-6.66z" fill="#e0f7fa"/><path d="m49.72 163.55h71.49a7.51 7.51 0 0 1 7.51 7.51v2.26a7.51 7.51 0 0 1 -7.51 7.51h-60.21a11.27 11.27 0 0 1 -11.27-11.27v-6a0 0 0 0 1 -.01-.01z" fill="#f44336" transform="matrix(0 1 -1 0 261.41 82.97)"/><path d="m46.06 156.14h80a9.63 9.63 0 0 1 9.63 9.63v1.59a9.63 9.63 0 0 1 -9.63 9.63h-80a3.33 3.33 0 0 1 -3.33-3.33v-14.19a3.33 3.33 0 0 1 3.33-3.33z" fill="#e0f7fa" transform="matrix(0 1 -1 0 255.79 77.34)"/><rect fill="#e0f7fa" height="6.86" rx="3.37" width="38.19" x="70.13" y="118.26"/><path d="m75.5 126.17h27.45" fill="#80deea" stroke="#b2ebf2" stroke-miterlimit="10" stroke-width="2.02"/><rect fill="#fff" height="31.65" opacity=".58" rx="2.45" width="5.62" x="78.16" y="128.79"/><path d="m91.33 147.15h9.54v50.09h-9.54z" fill="#eee"/><path d="m91.33 147.15h9.54v3.71h-9.54z" fill="#ffee58"/><path d="m99.55 147.15v48.72h-8.22v1.37h9.54v-50.09z" fill="#eee"/></svg>