<svg viewBox="0 0 256 256" xmlns="http://www.w3.org/2000/svg" xmlns:xlink="http://www.w3.org/1999/xlink"><pattern id="a" height="18.36" patternTransform="matrix(-.3 .07 -.07 -.31 122.15 -18.71)" patternUnits="userSpaceOnUse" viewBox="0 0 18.36 18.36" width="18.36"><path d="m0 0h18.36v18.36h-18.36z" fill="none"/><path d="m.25.25h17.86v17.86h-17.86z" fill="#ffccbc" stroke="#f44336" stroke-miterlimit="10" stroke-width=".5"/><path d="m.25.25h5.95v5.95h-5.95z" fill="#ffccbc" stroke="#f44336" stroke-miterlimit="10" stroke-width=".5"/><path d="m6.2.25h5.95v5.95h-5.95z" fill="#ffccbc" stroke="#f44336" stroke-miterlimit="10" stroke-width=".5"/><path d="m12.16.25h5.95v5.95h-5.95z" fill="#ffccbc" stroke="#f44336" stroke-miterlimit="10" stroke-width=".5"/><path d="m.25 6.2h5.95v5.95h-5.95z" fill="#ffccbc" stroke="#f44336" stroke-miterlimit="10" stroke-width=".5"/><path d="m6.2 6.2h5.95v5.95h-5.95z" fill="#ffccbc" stroke="#f44336" stroke-miterlimit="10" stroke-width=".5"/><path d="m12.16 6.2h5.95v5.95h-5.95z" fill="#ffccbc" stroke="#f44336" stroke-miterlimit="10" stroke-width=".5"/><path d="m.25 12.16h5.95v5.95h-5.95z" fill="#ffccbc" stroke="#f44336" stroke-miterlimit="10" stroke-width=".5"/><path d="m6.2 12.16h5.95v5.95h-5.95z" fill="#ffccbc" stroke="#f44336" stroke-miterlimit="10" stroke-width=".5"/><path d="m12.16 12.16h5.95v5.95h-5.95z" fill="#ffccbc" stroke="#f44336" stroke-miterlimit="10" stroke-width=".5"/></pattern><path d="m44.7 229.07.57.48-.59-.5z" fill="none"/><path d="m45.34 229.6.47.35z" fill="none"/><path d="m152.12 203.11c-1.74-1.44-4.27-2.15-7.6-2.15h-8.77v27.46h5.82v-9.77h2.5q5.1 0 7.88-2.35a8.4 8.4 0 0 0 2.77-6.78q0-4.26-2.6-6.41zm-4.62 9.71a6.32 6.32 0 0 1 -4 1.06h-1.92v-8.15h2.65a5.23 5.23 0 0 1 3.5 1 3.81 3.81 0 0 1 1.12 3 3.72 3.72 0 0 1 -1.35 3.09z" fill="none"/><path d="m168.53 201h-8.63v27.46h7.78q7.29 0 11.15-3.61t3.86-10.38q0-6.37-3.72-9.92t-10.44-3.55zm-.3 22.65h-2.5v-17.92h3.1q7.81 0 7.81 8.85 0 9.03-8.41 9.03z" fill="none"/><path d="m188.38 228.42h5.73v-10.86h9.32v-4.75h-9.32v-7.08h10.02v-4.77h-15.75z" fill="none"/><path d="m45.27 229.55-.57-.48" fill="none"/><path d="m206.16 183.18v-131h-16.42a12.38 12.38 0 0 1 -12.39-12.39v-23.79h-124.44a12.39 12.39 0 0 0 -12.39 12.39v191.42a12.25 12.25 0 0 0 1.4 5.69 12.32 12.32 0 0 0 5.68 1.39h70.59v-33.09a10.63 10.63 0 0 1 10.63-10.62z" fill="#e1f5fe"/><path d="m189.74 52.13h21.73l-34.12-36.13v23.74a12.38 12.38 0 0 0 12.39 12.39z" fill="#b3e5fc"/><path d="m45.81 230-.47-.35" fill="none"/><path d="m208.63 183.19h.37a2.45 2.45 0 0 0 2.47-2.46v-.38a2.84 2.84 0 0 1 -2.84 2.84z" fill="#e1f5fe"/><path d="m206.16 183.18h2.47a2.84 2.84 0 0 0 2.84-2.84v-128.21h-5.31z" fill="#e1f5fe"/><path d="m206.16 183.18h2.47a2.84 2.84 0 0 0 2.84-2.84v-128.21h-5.31z" fill="#e1f5fe"/><path d="m45.34 229.6c-.23-.18-.46-.37-.67-.56l-.32-.29.32.29.59.5h.07l.47.35z" fill="#e1f5fe"/><path d="m41.92 225.5c.11.2.22.4.34.6l.16.26c.12.19.24.38.37.57a13 13 0 0 0 .86 1.07 3.45 3.45 0 0 0 .26.28 5.66 5.66 0 0 0 .42.43l.32.29c.21.19.44.38.67.56l.47.35.4.27.54.33.34.2c.29.15.58.29.88.42l.33.14.73.26.31.1q.49.15 1 .27h.22a8.46 8.46 0 0 0 .9.14h.3a10.69 10.69 0 0 0 1.13.06h60a5.31 5.31 0 0 0 5.31-5.31h-70.58a12.32 12.32 0 0 1 -5.68-1.29z" fill="#e1f5fe"/><path d="m41.92 225.5c.11.2.22.4.34.6l.16.26c.12.19.24.38.37.57a13 13 0 0 0 .86 1.07 3.45 3.45 0 0 0 .26.28 5.66 5.66 0 0 0 .42.43l.32.29c.21.19.44.38.67.56l.47.35.4.27.54.33.34.2c.29.15.58.29.88.42l.33.14.73.26.31.1q.49.15 1 .27h.22a8.46 8.46 0 0 0 .9.14h.3a10.69 10.69 0 0 0 1.13.06h60a5.31 5.31 0 0 0 5.31-5.31h-70.58a12.32 12.32 0 0 1 -5.68-1.29z" fill="#e1f5fe"/><path d="m204.86 189.38h-69.86a10.62 10.62 0 0 0 -10.61 10.62v29.38a10.63 10.63 0 0 0 10.61 10.62h69.85a10.63 10.63 0 0 0 10.62-10.62v-29.38a10.62 10.62 0 0 0 -10.61-10.62zm-52.86 26.92q-2.77 2.35-7.88 2.35h-2.5v9.77h-5.82v-27.42h8.77c3.33 0 5.86.71 7.6 2.15s2.6 3.57 2.6 6.41a8.4 8.4 0 0 1 -2.77 6.74zm26.88 8.51q-3.86 3.62-11.15 3.61h-7.83v-27.42h8.63q6.72 0 10.44 3.55t3.72 9.92q0 6.74-3.86 10.34zm25.3-19.08h-10v7.08h9.32v4.75h-9.32v10.86h-5.73v-27.42h15.75z" fill="#ef8db6"/><path d="m144.22 205.73h-2.65v8.15h1.92a6.32 6.32 0 0 0 4-1.06 3.72 3.72 0 0 0 1.34-3.09 3.81 3.81 0 0 0 -1.12-3 5.23 5.23 0 0 0 -3.49-1z" fill="#ef8db6"/><path d="m168.83 205.73h-3.1v17.88h2.5q8.42 0 8.41-9 0-8.88-7.81-8.88z" fill="#ef8db6"/><rect fill="#263238" height="82.12" rx="4.5" transform="matrix(.99999701 .00244346 -.00244346 .99999701 .31 -.32)" width="105.14" x="83.91" y="87.63"/><g fill="#78909c"><rect height="67.64" rx="2.72" transform="matrix(.99999701 .00244346 -.00244346 .99999701 .3 -.21)" width="5.49" x="88.09" y="94.76"/><rect height="10.71" rx="2.8" transform="matrix(-.00331612 .9999945 -.9999945 -.00331612 191.61 4.26)" width="5.7" x="90.83" y="92.27"/><rect height="10.71" rx="2.8" transform="matrix(-.00331612 .9999945 -.9999945 -.00331612 201.9 14.65)" width="5.7" x="90.8" y="102.59"/><rect height="10.71" rx="2.8" transform="matrix(-.00331612 .9999945 -.9999945 -.00331612 212.19 25.04)" width="5.7" x="90.77" y="112.91"/><rect height="10.71" rx="2.8" transform="matrix(-.00331612 .9999945 -.9999945 -.00331612 222.48 35.43)" width="5.7" x="90.73" y="123.24"/><rect height="10.71" rx="2.8" transform="matrix(-.00331612 .9999945 -.9999945 -.00331612 232.77 45.83)" width="5.7" x="90.7" y="133.56"/><rect height="10.71" rx="2.8" transform="matrix(-.00331612 .9999945 -.9999945 -.00331612 243.06 56.22)" width="5.7" x="90.66" y="143.88"/><rect height="10.71" rx="2.8" transform="matrix(-.00331612 .9999945 -.9999945 -.00331612 253.35 66.61)" width="5.7" x="90.63" y="154.21"/></g><rect fill="#e0e0e0" height="3.68" opacity=".55" rx="1.81" transform="matrix(.99999701 .00244346 -.00244346 .99999701 .37 -.41)" width="22.9" x="161.48" y="153.22"/><rect fill="#e0e0e0" height="3.68" opacity=".55" rx="1.53" width="16.3" x="161.84" y="158.5"/><path d="m166.91 147.83a11 11 0 0 1 -10.48-8.29l-30.24-.07a10.88 10.88 0 0 1 -21.42-3.11 11.62 11.62 0 0 1 3-7.74 11.52 11.52 0 0 1 -2.92-7.75 11.14 11.14 0 0 1 11-11.29 11 11 0 0 1 10.61 8.82l30 .07a10.88 10.88 0 0 1 21.54 2.58 11.56 11.56 0 0 1 -3 7.73 11.54 11.54 0 0 1 2.92 7.75 11.15 11.15 0 0 1 -11.01 11.3z" fill="#455a64"/><path d="m143.66 133.77a2.23 2.23 0 0 0 .09-1.9 21.46 21.46 0 0 0 -1.3-2l-1.45-2.12-1.43-2.09a5 5 0 0 1 -1-2.11 4 4 0 0 1 .27-1.81h-15.37c0-.26 0-.53 0-.79a7.73 7.73 0 1 0 -15.44 0 8 8 0 0 0 5.71 7.76 8 8 0 0 0 -5.76 7.73 7.73 7.73 0 1 0 15.44 0 2.09 2.09 0 0 0 0-.25h19.26l.09-.23c.29-.72.62-1.45.89-2.19z" fill="#78909c"/><path d="m169 128.77a8 8 0 0 0 5.76-7.73 7.73 7.73 0 1 0 -15.44 0v.79h-18.49l-.1.29a4.25 4.25 0 0 0 -.32 1.09 1.49 1.49 0 0 0 .35.85c.93 1.44 1.93 2.84 2.89 4.25.49.71 1 1.42 1.46 2.14a4 4 0 0 1 .76 2.28 7.12 7.12 0 0 1 -.7 2.52c-.14.35-.29.69-.43 1h14.51a2.26 2.26 0 0 0 0 .26 7.73 7.73 0 1 0 15.44 0 8 8 0 0 0 -5.69-7.74z" fill="#78909c"/><path d="m121.79 120.24v.79h1.71v-.12a8 8 0 0 0 -5.78-7.78 8 8 0 0 1 4.07 7.11z" fill="#78909c"/><path d="m143.75 131.87a21.46 21.46 0 0 0 -1.3-2l-1.45-2.12-1.43-2.09a5 5 0 0 1 -1-2.11 4 4 0 0 1 .27-1.81h-1.87a3.29 3.29 0 0 0 -.07 1.13 5 5 0 0 0 1 2.12c.48.69 1 1.39 1.43 2.09s1 1.43 1.46 2.15a23.21 23.21 0 0 1 1.31 2 2.23 2.23 0 0 1 -.09 1.9c-.27.74-.6 1.46-.91 2.19l-.1.23h-19.25v.25a7.89 7.89 0 0 1 -7.75 8 7.6 7.6 0 0 1 -1.92-.25 7.52 7.52 0 0 0 3.59.93 7.88 7.88 0 0 0 7.75-8 2.09 2.09 0 0 0 0-.25h19.26l.09-.23c.31-.73.64-1.46.91-2.2a2.23 2.23 0 0 0 .07-1.93z" fill="#78909c"/><path d="m159.23 135.56h-14.22c-.1.22-.19.45-.28.67h14.5c0-.13 0-.27 0-.41s0-.17 0-.26z" fill="#78909c"/><path d="m174.67 136.52a8 8 0 0 0 -5.71-7.75 8.1 8.1 0 0 0 0-15.51 8.06 8.06 0 0 1 4.11 7.1 8 8 0 0 1 -5.76 7.73 8 8 0 0 1 5.71 7.76 7.88 7.88 0 0 1 -7.75 8 7.52 7.52 0 0 1 -1.91-.25 7.51 7.51 0 0 0 3.58.93 7.88 7.88 0 0 0 7.73-8.01z" fill="#78909c"/><path d="m188.93 165.3.24-73a4.59 4.59 0 0 0 -2.28-4 4.83 4.83 0 0 1 .15 1.15l-.25 73a4.51 4.51 0 0 1 -4.42 4.57l-96.32-.23a4.25 4.25 0 0 1 -2.11-.57 4.46 4.46 0 0 0 4.25 3.43l96.31.23a4.52 4.52 0 0 0 4.43-4.58z" fill="#263238"/><rect fill="#fafafa" height="26.99" opacity=".9" rx="1.74" transform="matrix(-.00331612 .9999945 -.9999945 -.00331612 262.57 -76.44)" width="3.69" x="167.53" y="79.14"/><path d="m59.17 81.28 29.39-14.62 41.31 89.32-29.39 14.62z" fill="#fafafa" fill-rule="evenodd"/><path d="m85.79 72.31 38.09 82.37-20.63 10.27-38.09-82.37z" style="stroke:#f44336;stroke-miterlimit:10;fill-rule:evenodd;stroke-width:.38;opacity:.4;fill:url(#a)"/><path d="m112.41 159.28-1.75-1.41-.06.44 2.27-1.49a.29.29 0 0 0 -.07-.52c-1.51-.31-1.15-2.54-1.91-3.56a5.3 5.3 0 0 1 -1-1.68 3.78 3.78 0 0 0 -.5-1.21 3.19 3.19 0 0 0 -4.09-.89c-.33.17 0 .63.28.49l4.94-2.22c.3-.14.09-.62-.22-.52-2.24.69-3.4-3.37-5.79-2.21l.29.49 1.64-1a.28.28 0 0 0 .13-.32 17.15 17.15 0 0 0 -4.57-7.67v.41a2.7 2.7 0 0 0 .72-1.62.3.3 0 0 0 -.29-.29 10.79 10.79 0 0 1 -3.48-.46v.55a16.93 16.93 0 0 0 4.91-2.52c.23-.18.1-.66-.22-.52-2.11.84-3.77-2.15-6-1.48l.22.52c2.71-1.36.55-5.09-.42-6.88a18.49 18.49 0 0 0 -1.3-2 3.69 3.69 0 0 1 -.51-1.22c-.45-1.37-2-1.38-3.19-1.26l.14.53 4.75-2.18a.29.29 0 0 0 .06-.45 2 2 0 0 0 -1.2-.55 4.29 4.29 0 0 1 -2.39-.92c-.88-.72-1.68-1.53-2.89-1l.32.42a3 3 0 0 1 1.28-1 .3.3 0 0 0 .13-.32c-.79-2.17-1.43-4.49-2.4-6.58a1.93 1.93 0 0 0 -1.24-1.18c-.9-.27-1.84.15-2.66-.42v.42l4.27-2c.29-.14.08-.61-.22-.52-2 .63-3.74-1.93-5.52-2.53l-.16.55a1.36 1.36 0 0 0 1.74-1.11c.31-1.42-1-3.29-1.53-4.52-.82-1.9-2.65-6.23-5.45-4.07a.28.28 0 0 0 .28.49l4-2.13c.28-.15.08-.64-.22-.52-2.29.91-3.25-3.26-5.67-3l.15.53c1.25-.64 1.27-2.06.77-3.22a62.58 62.58 0 0 0 -3.72-6.37.28.28 0 0 0 -.49.28l2.34 4c.71 1.21 2.77 3.86.81 4.86-.24.12-.14.56.14.53 2.43-.31 3.14 4 5.82 2.92l-.22-.51-4 2.13.28.49c2.08-1.6 3.54 1.26 4.22 2.8l1 2.35c.19.43.38.85.56 1.28l.25.64q.49 1.13-.93 1.59c-.35-.11-.5.43-.16.55 2 .67 3.52 3.26 5.83 2.53l-.22-.52-4.29 2.05a.29.29 0 0 0 0 .49 3.14 3.14 0 0 0 1.93.41c1.77 0 2 1.61 2.5 3 .42 1.16 1 2.35 1.29 3.54.18.73.21.47-.24 1a10.59 10.59 0 0 0 -.79.85c-.14.19.1.51.32.42 1.46-.59 2.18 1.06 3.28 1.61.82.42 2 .09 2.65.75l.06-.44-4.75 2.18a.28.28 0 0 0 .14.53c.8-.08 2.11-.28 2.57.66.15.33 0 .67.09.92.4.78 1.19 1.42 1.65 2.21.88 1.54 3.19 5.28.83 6.47-.29.14-.09.61.21.52 2.19-.65 3.77 2.38 6 1.47l-.22-.52a16.28 16.28 0 0 1 -4.77 2.47.29.29 0 0 0 0 .55 11.44 11.44 0 0 0 3.63.48l-.28-.28-.55 1.21a.3.3 0 0 0 0 .41 16.45 16.45 0 0 1 3 3.9 16.83 16.83 0 0 1 1.06 2.33c.15.42.33.68.09 1.1s-1 .59-1.23.75a.28.28 0 0 0 .29.49c2-1 3.4 3 5.65 2.27l-.21-.52-4.88 2.22.28.49a2.61 2.61 0 0 1 3.33.72c.53.76.46 1.69 1 2.43a4.26 4.26 0 0 1 .93 1.74 6.64 6.64 0 0 0 .38 1.37 1.91 1.91 0 0 0 1.36 1.14l-.07-.52-2.27 1.49a.29.29 0 0 0 -.06.45l1.76 1.41c.29.23.69-.17.4-.4z" fill="#f44336"/><rect fill="#e0f7fa" height="39.83" rx="4.01" width="25.77" x="75.51" y="130.73"/><rect fill="#e0f7fa" height="22.49" rx="2.34" transform="matrix(0 1 -1 0 239.04 62.25)" width="36.43" x="70.18" y="139.4"/><rect fill="#1565c0" height="6.23" rx="3.06" width="31.16" x="72.82" y="130.1"/><path d="m75.51 136.94h25.77" fill="#80deea" stroke="#b2ebf2" stroke-miterlimit="10" stroke-width="1.19"/><path d="m94.47 142.99h6.81v21.83h-6.81z" fill="#eee"/><path d="m94.47 142.99h6.81v4.84h-6.81z" fill="#ffee58"/><path d="m100.49 142.99v20.47h-6.02v1.36h6.81v-21.83z" fill="#eee"/><path d="m102.74 130.7a3.11 3.11 0 0 1 .58 1.83 3.07 3.07 0 0 1 -3 3.11h-25.16a2.86 2.86 0 0 1 -1.76-.6 3 3 0 0 0 2.42 1.28h25.18a3.07 3.07 0 0 0 3-3.11 3.14 3.14 0 0 0 -1.26-2.51z" fill="#1565c0"/><path d="m98.35 108h5.87a5.17 5.17 0 0 1 5.17 5.17v2.89a0 0 0 0 1 0 0h-16.21a0 0 0 0 1 0 0v-2.89a5.17 5.17 0 0 1 5.17-5.17z" fill="#757575"/><path d="m109.39 112.42c0-2.43-2.72-4.4-6.08-4.4h-4a7.08 7.08 0 0 0 -4.74 1.65 7.53 7.53 0 0 1 3.79-1h4.06c3.35 0 6.07 2 6.07 4.4v3h1z" fill="#757575"/><path d="m97.12 113.13h8.34a3.93 3.93 0 0 1 3.93 3.93v46.42a7.62 7.62 0 0 1 -7.62 7.62h-1a7.62 7.62 0 0 1 -7.62-7.62v-46.41a3.93 3.93 0 0 1 3.93-3.93z" fill="#e0f7fa"/><path d="m78 139.87h42.2a4.43 4.43 0 0 1 4.43 4.43v1.33a4.43 4.43 0 0 1 -4.43 4.43h-35.58a6.65 6.65 0 0 1 -6.62-6.65v-3.55a0 0 0 0 1 0 .01z" fill="#f44336" transform="matrix(0 1 -1 0 246.25 43.68)"/><path d="m75.81 135.49h47.19a5.68 5.68 0 0 1 5.68 5.68v.94a5.68 5.68 0 0 1 -5.68 5.69h-47.19a2 2 0 0 1 -2-2v-8.37a2 2 0 0 1 2-2z" fill="#e0f7fa" transform="matrix(0 1 -1 0 242.93 40.36)"/><rect fill="#e0f7fa" height="4.05" rx="1.99" width="22.54" x="90.02" y="113.13"/><path d="m93.18 117.8h16.21" fill="#80deea" stroke="#b2ebf2" stroke-miterlimit="10" stroke-width="1.19"/><rect fill="#fff" height="18.68" opacity=".58" rx="1.45" width="3.31" x="94.76" y="119.35"/><path d="m102.53 130.18h5.63v29.56h-5.63z" fill="#eee"/><path d="m102.53 130.18h5.63v2.19h-5.63z" fill="#ffee58"/><path d="m107.38 130.18v28.76h-4.85v.81h5.63v-29.57z" fill="#eee"/></svg>