<svg viewBox="0 0 223.35 198.54" xmlns="http://www.w3.org/2000/svg" xmlns:xlink="http://www.w3.org/1999/xlink"><linearGradient id="a" gradientTransform="matrix(202.23 0 0 -124.92 393363.39 -98854.61)" gradientUnits="userSpaceOnUse" x1="-1944.87" x2="-1944.25" y1="-791.78" y2="-793.1"><stop offset="0" stop-color="#31c4c3"/><stop offset="1" stop-color="#0a97b7"/></linearGradient><path d="m59.05 0a25 25 0 1 0 25.09 25 25 25 0 0 0 -25.09-25zm0 39.16a14.2 14.2 0 1 1 14.27-14.16 14.2 14.2 0 0 1 -14.27 14.16z" fill="#31c4c3"/><path d="m183.68 187.77c-.3 0-.61 0-.92-.05a14.29 14.29 0 0 1 -7.95-3.17 14.23 14.23 0 0 1 -1.94-1.94s0 0 0 0l-24-23.83 29.8-29.65a24.94 24.94 0 0 0 0-35.26 25.25 25.25 0 0 0 -35.5 0l-2 2-2-2a25.24 25.24 0 0 0 -35.49 0 24.92 24.92 0 0 0 -.06 35.24l.06.06 29.8 29.65-10 10-15 14.94a11.34 11.34 0 0 1 -.9.81 3.66 3.66 0 0 1 -.39.32 9.3 9.3 0 0 1 -.81.59c-.38.26-.77.49-1.17.71l-.62.32a11.89 11.89 0 0 1 -1.28.53 9.5 9.5 0 0 1 -1.25.39l-.51.12a2.09 2.09 0 0 1 -.34.08l-.63.11h-.35-.12-.3-.67-.74a13.08 13.08 0 0 1 -1.53-.09l-.61-.07a14.12 14.12 0 0 1 -8-4 13.94 13.94 0 0 1 -3.9-7.39c-.08-.4-.14-.81-.18-1.22a11.16 11.16 0 0 1 -.07-1.42v-88a25.1 25.1 0 0 0 -50.19 0v38.58h-33.92v10.87h44.77v-49.34a14.28 14.28 0 0 1 28.55 0v87.91.65s0 .63 0 .93 0 .63.07.93a.06.06 0 0 0 0 0c0 .22 0 .44.08.66l.06.43c.08.53.18 1 .29 1.57.08.35.16.71.25 1.06.05.17.09.35.14.52a24.78 24.78 0 0 0 17.34 17.23l.46.13 1.12.26c.51.11 1 .21 1.57.29h.19l.9.11h.05l.93.08h.93.63.82a23 23 0 0 0 2.36-.18l1.16-.17h.26l1.08-.23c.47-.11.92-.23 1.38-.36l.57-.17h.1l.79-.27c.37-.13.73-.27 1.09-.42a2 2 0 0 0 .22-.09l1-.43.43-.22a4.53 4.53 0 0 0 .54-.27 6.86 6.86 0 0 0 .75-.42l.86-.5.1-.06a3.51 3.51 0 0 0 .4-.27c.14-.08.27-.18.41-.27l.84-.6c.2-.14.38-.29.56-.44a19.45 19.45 0 0 0 1.61-1.4c.15-.13.3-.28.46-.43l25-24.91 23.65 23.53 2.56 2.54a25 25 0 0 0 15.28 6h1 39.67v-10.61zm-60.17-54.23-12.13-12.07a14.18 14.18 0 0 1 0-20.06 14.37 14.37 0 0 1 20.18 0l7.06 7a3.63 3.63 0 0 0 5.11 0l1.27-1.27 5.79-5.75a14.38 14.38 0 0 1 20.19 0 14.2 14.2 0 0 1 0 20.07l-29.81 29.65z" fill="url(#a)"/></svg>