<svg viewBox="0 0 256 256" xmlns="http://www.w3.org/2000/svg"><path d="m78.76 33.88a23.67 23.67 0 1 0 23.69 23.67 23.7 23.7 0 0 0 -23.69-23.67zm0 37.13a13.46 13.46 0 1 1 13.48-13.46 13.49 13.49 0 0 1 -13.48 13.45z" fill="#fff"/><path d="m196.4 211.91h-.86a13.49 13.49 0 0 1 -7.51-3 13.83 13.83 0 0 1 -1.84-1.83l-22.61-22.6 28.12-28.1a23.68 23.68 0 0 0 -33.49-33.48l-1.86 1.86-1.85-1.86a23.68 23.68 0 0 0 -33.49 33.48l28.13 28.1-9.46 9.45-14.25 14.07a10.36 10.36 0 0 1 -.85.77c-.12.11-.24.2-.36.3s-.51.38-.77.55a11.36 11.36 0 0 1 -1.11.68 6.36 6.36 0 0 1 -.58.3c-.4.19-.8.36-1.21.51a9.46 9.46 0 0 1 -1.18.36l-.48.12-.32.07c-.2 0-.4.08-.6.11h-.32-.12-.28c-.22 0-.42 0-.63 0a4.7 4.7 0 0 1 -.53 0h-.19a11.48 11.48 0 0 1 -1.44-.08l-.57-.07a13.33 13.33 0 0 1 -11.2-10.62 11.78 11.78 0 0 1 -.17-1.17 11.9 11.9 0 0 1 -.07-1.34v-83.4a23.69 23.69 0 0 0 -47.37 0v36.58h-32.08v10.21h42.29v-46.79a13.48 13.48 0 0 1 26.95 0v83.35.62s0 .59 0 .89 0 .59.06.87a.09.09 0 0 0 0 .05c0 .21 0 .42.08.63s0 .27 0 .4c.08.5.17 1 .27 1.49l.24 1c0 .16.09.32.14.49a23.45 23.45 0 0 0 16.36 16.34l.43.11c.35.09.7.18 1.07.25s1 .2 1.47.28h.19l.85.11.88.07h.88.59.77c.76 0 1.5-.08 2.24-.17.36 0 .72-.1 1.09-.16h.24l1-.22c.43-.1.86-.22 1.29-.34l.55-.16a.25.25 0 0 0 .09 0l.74-.25 1-.4a1.33 1.33 0 0 0 .21-.09l.91-.4.41-.21a4.09 4.09 0 0 0 .51-.26c.24-.12.47-.25.71-.39l.81-.49a.14.14 0 0 0 .08 0 4.25 4.25 0 0 0 .39-.25l.38-.26c.26-.18.53-.37.79-.57a4.06 4.06 0 0 0 .53-.42 15.61 15.61 0 0 0 1.52-1.32l.43-.4 23.63-23.62 22.32 22.3s0 0 0 0l2.42 2.41a23.81 23.81 0 0 0 7.68 4.43 23.42 23.42 0 0 0 6.74 1.29h.89 37.45v-10.2zm-56.79-51.42-11.45-11.44a13.47 13.47 0 0 1 19.05-19l6.66 6.66a3.43 3.43 0 0 0 4.82 0l1.2-1.21 5.46-5.46a13.47 13.47 0 0 1 19.06 19l-28.14 28.11z" fill="#fff"/><path d="m11.29 0h233.41v256h-233.41z" fill="none" transform="matrix(0 1 -1 0 256 0)"/></svg>