<svg viewBox="0 0 256 256" xmlns="http://www.w3.org/2000/svg"><g fill="#054c5c"><path d="m112.81 151.77a7 7 0 0 1 0-9.89l72-71.93a21.37 21.37 0 0 0 -9.42-2.21h-137.85a21.61 21.61 0 0 0 -21.54 21.52v120.61a21.61 21.61 0 0 0 21.54 21.54h137.83a21.61 21.61 0 0 0 21.54-21.54v-120.66a21.23 21.23 0 0 0 -2.21-9.42l-72 72a7 7 0 0 1 -9.89 0z"/><path d="m237.56 27a8.43 8.43 0 0 0 -5.64-2.42h-52.24a7 7 0 0 0 -.69 14h.59l36.18.27-31 31a21.49 21.49 0 0 1 9.91 9.91l31-31 .33 36.15a7 7 0 0 0 14 .49c0-.2 0-.4 0-.59v-52.67a7.59 7.59 0 0 0 -2.44-5.14z"/></g></svg>