<svg viewBox="0 0 256 256" xmlns="http://www.w3.org/2000/svg"><path d="m233.51 191.39a187.92 187.92 0 0 0 -39.29-26.29c-11.78-5.66-16.1-5.54-24.43.46-6.94 5-11.42 9.67-19.41 7.93a115.9 115.9 0 0 1 -39-28.86 115 115 0 0 1 -28.86-39.06c-1.69-8 3-12.48 7.92-19.41 6-8.33 6.19-12.65.47-24.43a184.14 184.14 0 0 0 -26.31-39.25c-8.57-8.57-10.45-6.7-15.21-5a86.77 86.77 0 0 0 -13.93 7.47 42.05 42.05 0 0 0 -16.75 17.6c-3.33 7.17-7.17 20.53 12.42 55.39a309.06 309.06 0 0 0 54.35 72.46 310.39 310.39 0 0 0 72.52 54.45c34.87 19.59 48.23 15.73 55.4 12.42a41.3 41.3 0 0 0 17.76-16.74 86.35 86.35 0 0 0 7.47-13.93c1.59-4.72 3.51-6.6-5.12-15.21z" fill="#3ab0c0"/></svg>