<svg viewBox="0 0 256 256" xmlns="http://www.w3.org/2000/svg"><path d="m233.51 190.91a188.31 188.31 0 0 0 -39.29-26.29c-11.78-5.66-16.1-5.54-24.43.46-6.94 5-11.42 9.68-19.41 7.93a115.77 115.77 0 0 1 -39-28.86 114.91 114.91 0 0 1 -28.86-39.06c-1.69-8 3-12.48 7.92-19.41 6-8.33 6.19-12.64.47-24.42a184.45 184.45 0 0 0 -26.31-39.26c-8.6-8.57-10.45-6.7-15.21-5a87.52 87.52 0 0 0 -13.93 7.46 42.08 42.08 0 0 0 -16.75 17.6c-3.33 7.16-7.17 20.53 12.42 55.39a309.21 309.21 0 0 0 54.35 72.47 310.11 310.11 0 0 0 72.52 54.45c34.87 19.59 48.23 15.74 55.4 12.42a41.28 41.28 0 0 0 17.76-16.73 86.77 86.77 0 0 0 7.47-13.93c1.59-4.72 3.51-6.65-5.12-15.22z" fill="#8ddddd"/></svg>