<svg xmlns="http://www.w3.org/2000/svg" viewBox="0 0 222.69 172.08"><defs><style>.cls-1{fill:#bdefeb;}</style></defs><g id="Layer_2" data-name="Layer 2"><g id="Layer_1-2" data-name="Layer 1"><g id="Hearth"><path id="Path_25" data-name="Path 25" class="cls-1" d="M67.39,97.79c2,0,2.85-.55,3.35-2.52q7-26.91,14.15-53.8c.16-.58.29-1.17.47-1.75A4.75,4.75,0,0,1,89.89,36a4.55,4.55,0,0,1,4.88,3.57C96,44.14,97,48.78,98,53.4l15.12,65c.13.57.32,1.12.7,2.37.84-4,1.57-7.37,2.26-10.74q3.72-18.17,7.4-36.35c.6-3,2.21-4.61,4.64-4.81a5.52,5.52,0,0,1,5.29,3.87c3.46,7.87,7,15.7,10.36,23.6.65,1.54,1.67,1.42,2.87,1.42h50.67c.38-.55.76-1.09,1.13-1.64a68.08,68.08,0,0,0,12-49.23A54.1,54.1,0,0,0,125,10.43a77.5,77.5,0,0,0-7.35,6.32c-1.19,1.11-2.43,2.26-3.71,3.4l-3,2.64L108,19.69c-.23-.23-.49-.54-.8-.86A52.7,52.7,0,0,0,66.79.09c-1.71,0-3.43.08-5.18.23A50.75,50.75,0,0,0,19.68,26.68a60.61,60.61,0,0,0-2,56.85,89.82,89.82,0,0,0,7.85,14.21Q46.43,97.73,67.39,97.79Z"/><path id="Path_26" data-name="Path 26" class="cls-1" d="M142.88,107.44a6.35,6.35,0,0,1-6.73-4.44A103.55,103.55,0,0,0,130,90.31l-3,14.28Q123,124.3,119,144c-.63,3-2.19,4.51-4.75,4.56s-4.24-1.35-4.95-4.34Q100,104.6,90.75,65a8.88,8.88,0,0,0-1.23-3.14L83,86.43q-2.2,8.31-4.42,16.61c-.87,3.22-2.22,4.34-5.45,4.34H32.63c3.44,4.17,6.93,7.91,10.09,11.2a340.18,340.18,0,0,0,68.74,53.5,374.74,374.74,0,0,0,55.42-40.67,209.57,209.57,0,0,0,23.17-24Q166.49,107.35,142.88,107.44Z"/><path id="Path_27" data-name="Path 27" class="cls-1" d="M5.44,97.74A4.91,4.91,0,0,0,0,102.1a3,3,0,0,0,0,.43,4.8,4.8,0,0,0,4.7,4.88,4.87,4.87,0,0,0,.66,0H22.3a112.11,112.11,0,0,1-6.5-9.64Z"/><path id="Path_28" data-name="Path 28" class="cls-1" d="M219.66,98.17a9.55,9.55,0,0,0-3.1-.41h-9.41c-.61,1-1.24,2-1.89,2.93-1.52,2.25-3.11,4.49-4.78,6.7h15.69a19.13,19.13,0,0,0,2.27-.07,4.71,4.71,0,0,0,4.2-4.1A4.65,4.65,0,0,0,219.66,98.17Z"/></g></g></g></svg>