<svg viewBox="0 0 222.81 222.81" xmlns="http://www.w3.org/2000/svg"><circle cx="111.41" cy="111.41" fill="#2eafaf" r="111.41"/><g fill="#bdefeb"><path d="m90.75 117c.93 0 1.34-.26 1.58-1.18q3.29-12.67 6.67-25.3c.07-.27.13-.55.22-.82a2.25 2.25 0 0 1 2.13-1.77 2.14 2.14 0 0 1 2.26 1.64c.56 2.16 1 4.34 1.53 6.5l7.1 30.52c.06.27.15.52.33 1.11.4-1.86.74-3.46 1.07-5q1.74-8.53 3.47-17.06c.28-1.4 1-2.17 2.18-2.26a2.6 2.6 0 0 1 2.48 1.82c1.63 3.71 3.28 7.37 4.86 11.08.31.72.79.66 1.35.66h23.81c.17-.26.35-.51.53-.77a32 32 0 0 0 5.6-23.17 25.4 25.4 0 0 0 -40.14-17.11 37.5 37.5 0 0 0 -3.45 3c-.55.52-1.13 1.06-1.74 1.59l-1.39 1.24-1.39-1.45-.38-.4a24.74 24.74 0 0 0 -19-8.82c-.8 0-1.61 0-2.43.1a23.82 23.82 0 0 0 -19.65 12.4 28.4 28.4 0 0 0 -1 26.68 41.66 41.66 0 0 0 3.68 6.67q9.9.01 19.72.1z"/><path d="m126.21 121.47a3 3 0 0 1 -3.16-2.07 47.91 47.91 0 0 0 -2.87-6l-1.4 6.7q-1.84 9.25-3.8 18.51c-.29 1.39-1 2.12-2.23 2.14a2.26 2.26 0 0 1 -2.34-2q-4.36-18.62-8.7-37.23a4.13 4.13 0 0 0 -.57-1.47l-3.06 11.55-2.08 7.82c-.41 1.51-1.05 2-2.56 2h-19c1.61 2 3.25 3.71 4.73 5.26a160 160 0 0 0 32.27 25.06 175.6 175.6 0 0 0 26-19.09 99.68 99.68 0 0 0 10.87-11.26q-11.02.03-22.1.08z"/><path d="m61.69 116.91a2.32 2.32 0 0 0 -2.54 2v.2a2.25 2.25 0 0 0 2.21 2.29h8.27a52.75 52.75 0 0 1 -3-4.53z"/><path d="m162.26 117.11a4.55 4.55 0 0 0 -1.46-.19h-4.44c-.29.47-.58.93-.89 1.39-.72 1.06-1.46 2.11-2.24 3.15h7.36a9.49 9.49 0 0 0 1.07 0 2.25 2.25 0 0 0 .6-4.32z"/></g></svg>