<svg viewBox="0 0 256 256" xmlns="http://www.w3.org/2000/svg"><g fill="#31c4c3"><path d="m202.08 41.16h-38.21v-6.16a6.71 6.71 0 0 0 -6.69-6.69h-16.91a12.27 12.27 0 0 0 -24.54 0h-16.91a6.71 6.71 0 0 0 -6.69 6.69v6.2h-38.21a8.94 8.94 0 0 0 -8.92 8.88v181a8.94 8.94 0 0 0 8.92 8.92h148.16a8.94 8.94 0 0 0 8.92-8.92v-181a8.94 8.94 0 0 0 -8.92-8.92zm-74.08-18.16a5.26 5.26 0 0 1 5.25 5.25h-10.5a5.26 5.26 0 0 1 5.25-5.25zm69.74 194.81a8.93 8.93 0 0 1 -8.92 8.92h-121.64a8.93 8.93 0 0 1 -8.92-8.92v-154.47a8.92 8.92 0 0 1 8.92-8.92h121.64a8.92 8.92 0 0 1 8.92 8.92z"/><path d="m181 62.23h-106a8.91 8.91 0 0 0 -8.92 8.91v138.86a8.92 8.92 0 0 0 8.92 8.94h106a8.92 8.92 0 0 0 8.92-8.92v-138.88a8.91 8.91 0 0 0 -8.92-8.91zm-96.59 11.77a8.78 8.78 0 1 1 -8.78 8.78 8.78 8.78 0 0 1 8.78-8.78zm0 31.77a8.78 8.78 0 1 1 -8.78 8.78 8.78 8.78 0 0 1 8.78-8.8zm0 31.77a8.78 8.78 0 1 1 -8.78 8.78 8.78 8.78 0 0 1 8.78-8.8zm89.33 62.36h-94.17a4.1 4.1 0 0 1 0-8.19h94.17a4.1 4.1 0 0 1 0 8.19zm0-22.4h-94.17a4.1 4.1 0 0 1 0-8.19h94.17a4.1 4.1 0 0 1 0 8.19zm-.16-27.09h-69a4.1 4.1 0 1 1 0-8.19h69a4.1 4.1 0 0 1 0 8.19zm0-31.76h-69a4.1 4.1 0 0 1 0-8.2h69a4.1 4.1 0 0 1 0 8.2zm0-31.77h-69a4.1 4.1 0 0 1 0-8.2h69a4.1 4.1 0 0 1 0 8.2z"/></g></svg>