<svg viewBox="0 0 189.35 223.02" xmlns="http://www.w3.org/2000/svg"><g fill="#fff"><path d="m63.33 215a18.56 18.56 0 0 0 15.37-18v-77.9l-17.47 17a11.51 11.51 0 0 1 -15.93 0 10.68 10.68 0 0 1 -.3-15.1l.34-.33 33.27-32.36a18.1 18.1 0 0 0 -6.75-12.61 19.22 19.22 0 0 0 -12.08-4.24 19.47 19.47 0 0 0 -3.5.31l-15.82 2.86a18.67 18.67 0 0 0 -15 14.17l-25.01 111.92a17.71 17.71 0 0 0 5 16.71 19 19 0 0 0 17.13 5.2z"/><path d="m188.89 200.71-25-111.92a18.67 18.67 0 0 0 -15.05-14.17l-15.84-2.86a19.55 19.55 0 0 0 -3.5-.31 19.22 19.22 0 0 0 -12.08 4.24 18.13 18.13 0 0 0 -6.74 12.41l31.07 30.15a10.69 10.69 0 0 1 .32 15.12l-.32.31a11.76 11.76 0 0 1 -15.92 0l-15.25-14.79v78.11a18.56 18.56 0 0 0 15.42 18l40.81 7.62a19.08 19.08 0 0 0 17.14-5.21 17.71 17.71 0 0 0 4.94-16.7z"/><path d="m94.77 98.38 33.75 32.74a7.85 7.85 0 0 0 10.62 0 7.14 7.14 0 0 0 .21-10.08l-.21-.21-36.87-35.75v-77.57a7.51 7.51 0 1 0 -15 0v77.57l-39.27 38.12a7.12 7.12 0 0 0 -.23 10.07l.23.23a7.87 7.87 0 0 0 10.61 0z"/></g></svg>