<svg viewBox="0 0 256 256" xmlns="http://www.w3.org/2000/svg"><g fill="#31c4c3"><path d="m161 29v3.14a11.32 11.32 0 1 1 -22.64 0v-3.23h-26.62v3.27a11.32 11.32 0 1 1 -22.64 0v-3.27h-26.57v3.27a11.32 11.32 0 0 1 -22.64 0v-3.06a23.13 23.13 0 0 0 -20.16 22.88v115.69a23.13 23.13 0 0 0 23.13 23.13h78.27a59.19 59.19 0 0 1 -.33-6.28 60.91 60.91 0 0 1 60.84-60.83v-71.71a23.13 23.13 0 0 0 -20.64-23zm-3.37 28.14h-113.84a2.79 2.79 0 1 1 0-5.57h113.79a2.79 2.79 0 1 1 0 5.57z"/><path d="m51.21 37.93a5.76 5.76 0 0 0 5.79-5.75v-9.6a5.75 5.75 0 1 0 -11.5 0v9.6a5.76 5.76 0 0 0 5.71 5.75z"/><path d="m149.63 37.93a5.75 5.75 0 0 0 5.74-5.75v-9.6a5.75 5.75 0 1 0 -11.49 0v9.6a5.76 5.76 0 0 0 5.75 5.75z"/><path d="m100.42 37.93a5.76 5.76 0 0 0 5.75-5.75v-9.6a5.75 5.75 0 0 0 -11.5 0v9.6a5.76 5.76 0 0 0 5.75 5.75z"/><path d="m181.64 129.92a54.63 54.63 0 1 0 54.63 54.62 54.62 54.62 0 0 0 -54.63-54.62zm37.28 58.53h-37.28a3.91 3.91 0 0 1 -3.9-3.91v-30a3.9 3.9 0 1 1 7.8 0v26.14h33.38a3.91 3.91 0 0 1 0 7.81z"/></g></svg>