<svg viewBox="0 0 224 213.02" xmlns="http://www.w3.org/2000/svg"><g fill="#fff"><path d="m0 140a73 73 0 0 0 100.62 67.54c-9.62-8.54-15.47-21.04-15.47-35.73 0-27.71 20.55-47.81 48.85-47.81a56 56 0 0 1 9.64.84c-11.05-43.14-58.58-105.27-70.64-124.84-13.7 22.19-73 103.85-73 140z"/><path d="m134 130.6c-24.48 0-42.25 17.33-42.25 41.21s17.78 41.19 42.25 41.19 42.25-17.33 42.25-41.21-17.76-41.19-42.25-41.19zm0 69.4c-16.13 0-27.39-11.58-27.39-28.17s11.26-28.17 27.39-28.17 27.39 11.58 27.39 28.17-11.26 28.17-27.39 28.17z"/><path d="m188.91 156.76 16.37-17.28c3-3.27 4.45-5.5 4.45-7.86s-.92-4.06-3.4-4.06c-2.23 0-3.28 1.57-3.28 4.19v1.31h-14v-1c0-11 6.54-17.81 17.4-17.81s17.55 7.16 17.55 17.5c0 6.68-3.14 11.26-8.25 16.36l-8.11 8.25h15.7v12.83h-34.43z"/></g></svg>