<svg viewBox="0 0 88.24 223.79" xmlns="http://www.w3.org/2000/svg"><g fill="#fff"><path d="m61.77 138v-120.88a17.05 17.05 0 0 0 -16.88-17.12h-1.55a17 17 0 0 0 -16.87 17.12v120.88a44.79 44.79 0 0 0 -26.47 41c0 24.72 19.75 44.75 44.12 44.75s44.12-20 44.12-44.75a44.79 44.79 0 0 0 -26.47-41zm-17.65 80.42c-21.41 0-38.83-17.67-38.83-39.38a39.45 39.45 0 0 1 23.3-36.11l3.18-1.4v-124.41a11.67 11.67 0 0 1 11.57-11.75h1.55a11.68 11.68 0 0 1 11.58 11.75v124.41l3.18 1.4a39.44 39.44 0 0 1 23.29 36.07c0 21.75-17.41 39.42-38.82 39.42z"/><path d="m56.11 151.14-8.46-3.76v-130.26a2.79 2.79 0 0 0 -2.76-2.8h-1.55a2.78 2.78 0 0 0 -2.75 2.8v130.26l-8.46 3.76a30.51 30.51 0 0 0 12 58.33 30.51 30.51 0 0 0 12-58.33z"/></g></svg>