<svg viewBox="0 0 111.12 179.12" xmlns="http://www.w3.org/2000/svg"><path d="m70.56 116v-73.45a12 12 0 0 0 -12-12h-1.51a12 12 0 0 0 -12 12v73.45a26.94 26.94 0 1 0 25.51 0z" fill="#cfd8dc"/><path d="m57.81 162.61a22.93 22.93 0 0 1 -10.81-43.12l2.1-1.14v-75.8a8 8 0 0 1 8-8h1.51a8 8 0 0 1 8 8v75.8l2.11 1.14a22.93 22.93 0 0 1 -10.86 43.12z" fill="#b0bec5"/><path d="m57.81 156.61a16.93 16.93 0 0 1 -8-31.84l5.26-2.83v-79.39a2 2 0 0 1 2-2h1.51a2 2 0 0 1 2 2v79.39l5.26 2.83a16.93 16.93 0 0 1 -8 31.84z" fill="#f4511e"/><g fill="#546e7a"><rect height="4.54" rx="2.27" width="15.51" x="45.05" y="60.03"/><rect height="4.54" rx="2.27" width="15.51" x="45.05" y="72.5"/><rect height="4.54" rx="2.27" width="15.51" x="45.05" y="84.98"/><rect height="4.54" rx="2.27" width="15.51" x="45.05" y="97.45"/></g><rect fill="#fafafa" height="29.39" opacity=".72" rx="2.36" width="4.72" x="48.08" y="40.55"/><path d="m68.7 126.72a16.92 16.92 0 0 1 -23.81 23.88 16.92 16.92 0 1 0 23.81-23.88z" fill="#f4511e"/><path d="m60.56 121v-78.45a2 2 0 0 0 -2-2v79.39z" fill="#f4511e"/></svg>