<svg viewBox="0 0 257 256.99951" xmlns="http://www.w3.org/2000/svg"><path d="m76.82617 255.605c4.41016-7.07031 23.74414-16.19824 24.56543-16.584l.06348-.0293.61865.019.022-.04339a35.50029 35.50029 0 0 0 3.083-8.61036 23.39317 23.39317 0 0 0 .37842-8.93048l-4.81836-2.82666a40.15535 40.15535 0 0 1 -59.16406-51.298 19.99219 19.99219 0 0 1 -6.31983-14.29151l-.0039-1.2998c-.02442-4.96289-.05371-11.13965 2.95117-14.57275a10.05861 10.05861 0 0 1 2.67285-2.10352.2947.2947 0 0 1 .05078-.03125l.04688-.022a16.16018 16.16018 0 0 1 1.73608-.81745l.10962-.05163c.39905-.16388.791-.30719 1.1831-.45118a91.70311 91.70311 0 1 1 176.20164-35.63582 90.98239 90.98239 0 0 1 -5.71264 31.86743l9.5144 6.06031a10.51675 10.51675 0 0 1 3.48926 3.65576l27.96509 33.18481.54077.52893v-130.82214a41.54716 41.54716 0 0 0 -41.5-41.5h-172a41.54716 41.54716 0 0 0 -41.5 41.5v171.99951a41.54747 41.54747 0 0 0 41.5 41.5h33.64026c.22082-.11108.4342-.23279.65613-.34259z" fill="#fff"/><path d="m244.05371 237.34424-11.69018 1.57532a30.99745 30.99745 0 0 1 -21.95923 9.18835 31.54175 31.54175 0 0 1 -15.548-4.134l-6.2196.83813a23.00549 23.00549 0 0 1 -3.0791.208 22.762 22.762 0 0 1 -9.24219-1.98163l-5.73145.28925c-.19921.01074-.39843.01562-.5957.01562a11.64831 11.64831 0 0 1 -8.63379-19.47363q.3816-.42215.79688-.80023l-4.18457.21136c-.19825.01074-.39649.01563-.59278.01563a11.57446 11.57446 0 0 1 -5.84155-1.5907c-1.07471 2.36291-1.075 5.3399.02515 8.87a40.58887 40.58887 0 0 0 5.15344 10.13208c1.36633.15906 10.33655 1.66773 22.98035 14.50074l.11523.11987c.44067.21472.866.45129 1.303.67114h33.39038a41.50409 41.50409 0 0 0 35.24646-19.62811l-.87207-.2345a22.90077 22.90077 0 0 1 -4.82068 1.20731z" fill="#fff"/><path d="m145.73242 212.22119a11.68023 11.68023 0 0 1 7.03613-11.2857l-.57226.02887q-.29883.01611-.59473.01562a11.65581 11.65581 0 0 1 -3.68811-22.71252l-3.27966.16565c-.19922.01074-.39844.01562-.5957.01562a11.66311 11.66311 0 0 1 -4.825-22.26843l-23.94714-45.994a30.9262 30.9262 0 0 1 1.962-31.7066 31.07634 31.07634 0 0 1 55.50635-.85468l23.13989 44.44342c.116-.02966.228-.0683.34546-.0943a10.785 10.785 0 0 1 2.95019-.23468 23.32717 23.32717 0 0 0 -2.29484-5.40546c-.35449-.60351-.73828-1.19531-1.14258-1.75781-.50293-.70605-1.06152-1.40576-1.60058-2.082a18.01114 18.01114 0 0 1 -3.62989-6.01074c-1.03613-3.64307.293-7.29444 1.57813-10.8252a34.47482 34.47482 0 0 0 1.791-6.03466 15.98331 15.98331 0 0 0 -6.79-15.49463 31.846 31.846 0 0 0 -6.59667-3.01368l-.0879-.03222c-.63281-.23242-1.26367-.46436-1.88867-.70606-.73535-.28466-1.37109-.54785-1.94336-.80517-.68945-.311-1.30078-.61866-1.87109-.9419a15.02355 15.02355 0 0 1 -2.57715-1.8164c-2.335-2.06543-3.79394-4.873-5.2041-7.58838a35.43511 35.43511 0 0 0 -3.39649-5.65283 17.17318 17.17318 0 0 0 -10.94628-6.30616c-4.26368-.61474-8.59864.40625-12.793 1.39307-4.03125.9502-8.20117 1.93164-12.36426 1.49414a37.1851 37.1851 0 0 1 -9.02344-2.54053c-1.13086-.42383-2.2998-.86279-3.458-1.24658-.50976-.16943-1.02832-.3291-1.55175-.47559a25.05658 25.05658 0 0 0 -3.1875-.68212c-.542-.07715-1.08106-.13086-1.60254-.16016a13.111 13.111 0 0 0 -4.66016.51514 10.44686 10.44686 0 0 0 -1.45508.57763c-3.63867 1.76856-5.63379 5.29248-7.74511 9.02393a32.98745 32.98745 0 0 1 -4.8877 7.11328c-3.13867 3.1709-7.47168 4.86084-11.66309 6.49463-5.05664 1.97119-9.832 3.8335-12.69921 8.06836-3.1504 4.66211-2.75586 10.29541-2.33692 16.25928a47.2971 47.2971 0 0 1 -.05859 10.75488 43.14924 43.14924 0 0 1 -3.20117 9.69287c-.63575 1.51172-1.293 3.0752-1.84766 4.63574-1.71484 4.83447-2.00879 8.9961-.874 12.36963l.002.00733a4.12166 4.12166 0 0 1 .085.56542l.03711.30469-.00049.00006c.453 3.83362 2.09009 20.21906 2.78858 27.2392l.12927 1.3067.02087.20142a13.62217 13.62217 0 0 1 .56275 3.89618v.30371c0 .63672.01464 1.16894.04589 1.67676l-.12561.01031-.16589.03064v.00006l.2915-.01562a35.28685 35.28685 0 0 0 1.15918 7.24316c4.8125 18.15039 23.48438 34.10449 38.29981 44.293.11719.0791.23535.15625.35351.2334l.2273.15069.00024-.0003 5.08594 2.98376a49.91909 49.91909 0 0 0 44.81311.23877 11.63878 11.63878 0 0 1 -5.03784-9.00191zm-52.44592-70.85205c-3.10962 0-5.63049-3.26227-5.63049-7.2865a8.89259 8.89259 0 0 1 .81499-3.76164 5.04345 5.04345 0 0 1 -1.2229-1.1853c-.53833-.51269-1.32032-3.37292-.18994-2.51782a2.60954 2.60954 0 0 0 1.567.92584 4.58989 4.58989 0 0 1 -.18591-.82336c-.22925-.69654.44385-3.597 1.03271-2.30414a2.66475 2.66475 0 0 0 2.23792 2.14111 1.94566 1.94566 0 0 1 .76538.323 4.39325 4.39325 0 0 1 .81128-.08417c3.1095 0 5.63037 3.26227 5.63037 7.2865s-2.52091 7.28648-5.63041 7.28648zm20.42322-24.81641a3.86422 3.86422 0 0 1 -5.55933 1.3266c-11.2146-7.62487-27.44543-7.58709-39.059-.28857a1.7556 1.7556 0 0 1 -2.01038-2.8714 42.38327 42.38327 0 0 1 45.06666-3.42682 3.85945 3.85945 0 0 1 1.56205 5.26019z" fill="#fff"/><path d="m60.78516 164.37842v-.30371a13.62217 13.62217 0 0 0 -.56275-3.89618l.60767 5.864-.12464.023.12561-.01031c-.03125-.50786-.04589-1.04008-.04589-1.6768z" fill="#c0c0c0"/><path d="m58.03711 174.04449c-.06116.00055-.12354.00873-.18457.00873-.02222 0-.04456-.00171-.0669-.00177q-.62475.00029-1.24658-.03338-1.00305-.06079-2.00293-.21607c-.21631-.03326-.42968-.08825-.64538-.12793-.44837-.08246-.89734-.161-1.34156-.27038-.25451-.06269-.50378-.14807-.75647-.21942-.4-.113-.80151-.21924-1.19616-.35352-.26941-.09174-.53162-.20538-.798-.30676-.37072-.14106-.7434-.275-1.10742-.43451-.271-.11878-.53271-.25806-.79956-.38684-.34888-.16834-.70032-.3302-1.04126-.51526-.26709-.145-.52319-.30908-.78479-.46411-.32776-.19416-.65832-.38257-.97668-.59211-.25757-.16955-.50257-.3565-.75342-.53588-.30713-.21955-.61719-.434-.91345-.66785-.24414-.19269-.47425-.40125-.71057-.60339-.23487-.20087-.48-.38984-.70655-.59992a39.57634 39.57634 0 0 0 58.207 50.542c-.084-.05566-.16894-.11132-.252-.168-14.82715-10.19531-33.498-26.15039-38.46387-44.36425-.50366.08764-1.00659.15033-1.509.20117-.15539.01593-.30945.02673-.4646.03924-.49602.03939-.99114.06454-1.48528.07021z" fill="#fff"/><path d="m100.87085 218.00079-.2273-.15069c-.11816-.07715-.23632-.1543-.35351-.2334-14.81543-10.18848-33.48731-26.14258-38.29981-44.293a.2971.2971 0 0 1 -.03515.23145.29059.29059 0 0 1 -.19336.13086c-.59082.11047-1.18335.18829-1.77466.249.50244-.05084 1.00537-.11353 1.509-.20117 4.96582 18.21386 23.63672 34.16894 38.46387 44.36425.083.05665.168.11231.252.168a39.57939 39.57939 0 0 1 -58.207-50.542c.22657.21008.47168.399.70655.59992-.332-.28412-.67041-.56122-.98584-.86359-.05335-.05115-.09815-.10718-.15088-.15869a40.15354 40.15354 0 0 0 59.16406 51.298l-.1626-.0954z" fill="#c0c0c0"/><path d="m50.59656 172.83075c.39465.13428.79614.24054 1.19616.35352-.3999-.11298-.80151-.21927-1.19616-.35352z" fill="#c0c0c0"/><path d="m57.78564 174.05145c-.41528-.0011-.83129-.01117-1.24658-.03338q.62182.03369 1.24658.03338z" fill="#c0c0c0"/><path d="m45.08887 170.13116c.31836.20954.64892.398.97668.59211-.32763-.19416-.65845-.38263-.97668-.59211z" fill="#c0c0c0"/><path d="m46.85034 171.18738c.34094.18506.69238.34692 1.04126.51526-.34875-.16828-.70044-.33026-1.04126-.51526z" fill="#c0c0c0"/><path d="m48.69116 172.08948c.364.15948.7367.29345 1.10742.43451-.37058-.14106-.74365-.27509-1.10742-.43451z" fill="#c0c0c0"/><path d="m43.422 168.92743c.29626.23382.60632.4483.91345.66785-.30701-.21943-.61719-.43415-.91345-.66785z" fill="#c0c0c0"/><path d="m58.03711 174.04449c.49414-.00567.98926-.03082 1.48535-.07019-.49731.04004-.99304.0657-1.48535.07019z" fill="#c0c0c0"/><path d="m52.54919 173.40369c.44422.10943.89319.18792 1.34156.27038-.44837-.0824-.89734-.16089-1.34156-.27038z" fill="#c0c0c0"/><path d="m54.53613 173.802q.99865.15363 2.00293.21607-1.00306-.06079-2.00293-.21607z" fill="#c0c0c0"/><path d="m60.07227 158.73.12927 1.24713-.12927-1.3067a.304.304 0 0 1 0 .05957z" fill="#c0c0c0"/><path d="m56.60254 130.729c-1.17285-3.49853-.877-7.78466.88086-12.74023.56055-1.57666 1.2207-3.14746 1.86035-4.667a42.79769 42.79769 0 0 0 3.16309-9.55957 46.84518 46.84518 0 0 0 .05175-10.6211c-.40722-5.80029-.82812-11.79785 2.43555-16.62695 2.96973-4.38574 8.05469-6.36816 12.97168-8.28564 4.13379-1.61182 8.4082-3.27832 11.459-6.36133a32.53344 32.53344 0 0 0 4.79491-6.99018c2.06347-3.64453 4.19629-7.41357 7.998-9.26074a10.99655 10.99655 0 0 1 1.53711-.61035 13.748 13.748 0 0 1 4.86719-.54053c.53809.02979 1.09375.08545 1.65137.165a25.597 25.597 0 0 1 3.26172.69775c.5332.14844 1.06152.311 1.5791.4834 1.16992.3877 2.34375.82813 3.47949 1.2544a36.7619 36.7619 0 0 0 8.87891 2.50635c4.06543.42627 8.18359-.544 12.16992-1.48194 4.24707-.99951 8.63867-2.03418 13.00976-1.40234a17.76522 17.76522 0 0 1 11.32227 6.52246 35.94888 35.94888 0 0 1 3.456 5.7456c1.38575 2.66749 2.81934 5.42627 5.07227 7.41993a14.47788 14.47788 0 0 0 2.47949 1.74609c.55371.314 1.14942.61377 1.82227.917.5625.25293 1.18847.51221 1.91406.793.62207.24072 1.25.47168 1.87891.70264l.08789.03271a32.20555 32.20555 0 0 1 6.71679 3.07373 16.58281 16.58281 0 0 1 7.04493 16.07715 34.79263 34.79263 0 0 1 -1.81836 6.14014c-1.31055 3.60156-2.54883 7.0039-1.56543 10.46387a17.57731 17.57731 0 0 0 3.52539 5.80761c.54394.68262 1.10644 1.38819 1.61914 2.10645.41308.57666.80761 1.1831 1.1709 1.80224a23.90044 23.90044 0 0 1 2.4187 5.75995 10.57241 10.57241 0 0 1 4.47 1.58234l9.71765 6.1897a91.11815 91.11815 0 1 0 -176.60333-31.54571 90.34732 90.34732 0 0 0 7.165 35.43457c.59594-.21472 1.21069-.39508 1.82043-.5849.33435-.104.65979-.22418.99792-.32068q1.50056-.4281 3.04932-.759c.03467-.00732.0708-.01147.10535-.01874q1.49963-.31465 3.04016-.53625c.35718-.05115.72363-.07825 1.084-.12183.6593-.07965 1.31494-.16907 1.98389-.223-.01072-.08062-.01951-.13726-.02537-.16607z" fill="#fff"/><path d="m57.24707 131.12646c.01111.08948.02356.19361.03662.30475l.00049-.00006z" fill="#c0c0c0"/><path d="m57.16016 130.55371c-1.13477-3.37353-.84082-7.53516.874-12.36963.55469-1.56054 1.21191-3.124 1.84766-4.63574a43.14924 43.14924 0 0 0 3.20117-9.69287 47.2971 47.2971 0 0 0 .05859-10.75488c-.41894-5.96387-.81348-11.59717 2.33692-16.25928 2.86718-4.23486 7.64257-6.09717 12.69921-8.06836 4.19141-1.63379 8.52442-3.32373 11.66309-6.49463a32.98745 32.98745 0 0 0 4.8877-7.11328c2.11132-3.73145 4.10644-7.25537 7.74511-9.02393a10.44686 10.44686 0 0 1 1.45508-.57763 13.111 13.111 0 0 1 4.66016-.51514c.52148.0293 1.06054.083 1.60254.16016a25.05658 25.05658 0 0 1 3.1875.68212c.52343.14649 1.042.30616 1.55175.47559 1.15821.38379 2.32715.82275 3.458 1.24658a37.1851 37.1851 0 0 0 9.02344 2.54053c4.16309.4375 8.333-.54394 12.36426-1.49414 4.19433-.98682 8.52929-2.00781 12.793-1.39307a17.17318 17.17318 0 0 1 10.94628 6.30616 35.43511 35.43511 0 0 1 3.39649 5.65283c1.41016 2.71533 2.86914 5.523 5.2041 7.58838a15.02355 15.02355 0 0 0 2.57715 1.8164c.57031.32324 1.18164.63086 1.87109.9419.57227.25732 1.208.52051 1.94336.80517.625.2417 1.25586.47364 1.88867.70606l.0879.03222a31.846 31.846 0 0 1 6.59667 3.01368 15.98331 15.98331 0 0 1 6.79 15.49463 34.47482 34.47482 0 0 1 -1.791 6.03466c-1.28516 3.53076-2.61426 7.18213-1.57813 10.8252a18.01114 18.01114 0 0 0 3.62989 6.01074c.53906.67627 1.09765 1.376 1.60058 2.082.4043.5625.78809 1.1543 1.14258 1.75781a23.32717 23.32717 0 0 1 2.29492 5.40546c.21045.0119.41895.03473.62769.05908a23.90044 23.90044 0 0 0 -2.4187-5.75995c-.36329-.61914-.75782-1.22558-1.1709-1.80224-.5127-.71826-1.0752-1.42383-1.61914-2.10645a17.57731 17.57731 0 0 1 -3.52539-5.80761c-.9834-3.46.25488-6.86231 1.56543-10.46387a34.79263 34.79263 0 0 0 1.81836-6.14014 16.58281 16.58281 0 0 0 -7.04493-16.07715 32.20555 32.20555 0 0 0 -6.71679-3.07373l-.08789-.03271c-.62891-.231-1.25684-.46192-1.87891-.70264-.72559-.28076-1.35156-.54-1.91406-.793-.67285-.30322-1.26856-.603-1.82227-.917a14.47788 14.47788 0 0 1 -2.47949-1.74609c-2.25293-1.99366-3.68652-4.75244-5.07227-7.41993a35.94888 35.94888 0 0 0 -3.456-5.7456 17.76522 17.76522 0 0 0 -11.32229-6.52238c-4.37109-.63184-8.76269.40283-13.00976 1.40234-3.98633.938-8.10449 1.90821-12.16992 1.48194a36.7619 36.7619 0 0 1 -8.87891-2.50635c-1.13574-.42627-2.30957-.8667-3.47949-1.2544-.51758-.17236-1.0459-.335-1.5791-.4834a25.597 25.597 0 0 0 -3.26172-.69775c-.55762-.07959-1.11328-.13525-1.65137-.165a13.748 13.748 0 0 0 -4.86719.54053 10.99655 10.99655 0 0 0 -1.53711.61035c-3.80175 1.84717-5.93457 5.61621-7.998 9.26074a32.53344 32.53344 0 0 1 -4.79493 6.99024c-3.05078 3.083-7.32519 4.74951-11.459 6.36133-4.917 1.91748-10.00195 3.8999-12.97168 8.28564-3.26367 4.8291-2.84277 10.82666-2.43555 16.62695a46.84518 46.84518 0 0 1 -.05175 10.6211 42.79769 42.79769 0 0 1 -3.16309 9.55957c-.63965 1.51953-1.2998 3.09033-1.86035 4.667-1.75781 4.95557-2.05371 9.2417-.88086 12.74023.00586.02881.01465.08545.02539.166-.669.054-1.32459.14337-1.98389.223.76026-.09186 1.51856-.18927 2.29151-.24695a.29049.29049 0 0 1 .31152.25537 4.12166 4.12166 0 0 0 -.085-.56542z" fill="#c0c0c0"/><path d="m44.28613 133.5542c.68042-.25018 1.38233-.4621 2.08118-.67963-.60974.18982-1.22449.37018-1.82043.5849a91.12054 91.12054 0 1 1 175.07226-35.43457 90.41376 90.41376 0 0 1 -5.63391 31.54566l.50525.32177a91.70279 91.70279 0 1 0 -177.69263-31.86743 90.91361 90.91361 0 0 0 7.20361 35.63574c.04834-.01776.09766-.0379.146-.05566z" fill="#c0c0c0"/><path d="m50.41455 131.79486q-1.54907.32877-3.04932.759 1.50038-.42807 3.04932-.759z" fill="#c0c0c0"/><path d="m53.56006 131.23987q-1.54029.22055-3.04016.53625 1.49945-.31457 3.04016-.53625z" fill="#c0c0c0"/><path d="m40.97266 134.9809 1.73608-.81745a16.16018 16.16018 0 0 0 -1.73608.81745z" fill="#c0c0c0"/><path d="m60.24707 166.09619v-.02344l-.76562-7.36816a.26271.26271 0 0 1 .001-.062c-.7041-7.0791-2.33594-23.40039-2.78222-27.167a46.02937 46.02937 0 0 0 -12.2129 2.62695l-.13867.05127c-.43359.15869-.86718.31738-1.2959.49316l-1.82519.85938-.001-.002a.2133.2133 0 0 1 -.02832.01807 9.52947 9.52947 0 0 0 -2.55665 1.99958c-2.8584 3.26709-2.83008 9.32129-2.80664 14.18555l.00391 1.30273a19.45337 19.45337 0 0 0 6.291 14.02832 23.25416 23.25416 0 0 0 14.44239 6.39551 21.33314 21.33314 0 0 0 4.77246-.2666 35.842 35.842 0 0 1 -1.09766-7.05566z" fill="#fff"/><path d="m60.539 166.096h.001z" fill="#fff"/><path d="m42.71143 168.324c.23632.20214.46643.4107.71057.60339.29626.2337.60644.44842.91345.66785.25085.17938.49585.36633.75342.53588.31823.20948.64905.398.97668.59211.2616.155.5177.31909.78479.46411.34082.185.69251.347 1.04126.51526.26685.12878.52857.26806.79956.38684.36377.15942.73682.29345 1.10742.43451.26636.10138.52857.215.798.30676.39465.13428.79626.24054 1.19616.35352.25269.07135.502.15673.75647.21942.44422.10949.89319.188 1.34156.27038.2157.03968.42907.09467.64538.12793q.99865.15363 2.00293.21607c.41529.02221.8313.03228 1.24658.03338.02234.00006.04468.00177.0669.00177.061 0 .12341-.00818.18457-.00873.49231-.00445.988-.03015 1.48535-.07019.15515-.01251.30921-.02331.4646-.03924.59131-.06073 1.18384-.13855 1.77466-.249a.29059.29059 0 0 0 .19336-.13086.2971.2971 0 0 0 .03515-.23145 35.28685 35.28685 0 0 1 -1.15918-7.24316l-.2915.01562h-.00049l.00049-.00006.16589-.03064.12464-.023-.60767-5.864-.02087-.20142-.12929-1.24705a.304.304 0 0 0 0-.05957c-.69849-7.02014-2.33558-23.40558-2.78858-27.2392-.01306-.11114-.02551-.21527-.03662-.30475a.29049.29049 0 0 0 -.31152-.25537c-.773.05768-1.53125.15509-2.29151.24695-.36035.04358-.7268.07068-1.084.12183q-1.54029.22063-3.04016.53625c-.03455.00727-.07068.01142-.10535.01874q-1.54907.32868-3.04932.759c-.33813.0965-.66357.21668-.99792.32068-.69885.21753-1.40076.42945-2.08118.67963l-.13867.05078c-.04834.01776-.09766.0379-.146.05566-.39208.144-.78405.2873-1.1831.45118l-.10962.05163-1.73608.81745-.04688.022a.2947.2947 0 0 0 -.05078.03125 10.05861 10.05861 0 0 0 -2.67285 2.10352c-3.00488 3.4331-2.97559 9.60986-2.95117 14.57275l.0039 1.2998a19.99219 19.99219 0 0 0 6.31983 14.29151c.05273.05151.09753.10754.15088.15869.31543.30241.65382.57951.98586.86359zm18.6333 4.84344a21.33314 21.33314 0 0 1 -4.77246.2666 23.25416 23.25416 0 0 1 -14.44239-6.39551 19.45337 19.45337 0 0 1 -6.291-14.02832l-.00391-1.30273c-.02344-4.86426-.05176-10.91846 2.80664-14.18555a9.52947 9.52947 0 0 1 2.55664-1.99951.2133.2133 0 0 0 .02832-.01807l.001.002 1.82519-.85938c.42872-.17578.86231-.33447 1.2959-.49316l.13867-.05127a46.02937 46.02937 0 0 1 12.2129-2.62695c.44628 3.7666 2.07812 20.08789 2.78222 27.167a.26271.26271 0 0 0 -.001.062l.76562 7.36816v.03907a35.842 35.842 0 0 0 1.09766 7.05566z" fill="#c0c0c0"/><path d="m179.835 255.35791c.19971.20624.40674.4314.60877.6416h.66589c-.437-.21985-.86231-.45642-1.303-.67114z" fill="#c0c0c0"/><path d="m76.79639 255.65692c-.22193.1098-.43531.23151-.65613.34259h.46423c.05213-.09277.09571-.18213.1543-.27734z" fill="#c0c0c0"/><path d="m179.418 255.76807-.14551-.15235c-12.42969-12.61621-21.46-14.1748-22.62109-14.32715-.16211.14045-.33838.27332-.50635.41059-.198.16174-.39038.32641-.59644.48364-.186.142-.3844.27679-.5769.4151-.2168.15582-.42847.31458-.65332.46564-.19775.13293-.40735.25842-.61108.38763-.23365.148-.46192.29907-.70313.44214-.20679.12268-.4248.23785-.63708.35681-.25159.141-.49842.2851-.75745.42084-.21338.11188-.43726.21606-.65552.32428-.27.13379-.53552.27075-.81274.399-.22559.10443-.46118.2008-.69165.30145-.28089.12274-.5575.24884-.8451.3659-.23962.09754-.48852.18659-.73254.28016-.28967.111-.57519.2257-.87085.331-.24939.08881-.50732.16888-.76086.2536-.30042.1004-.597.20465-.90308.29919-.2594.08021-.527.15143-.7904.22736-.30933.08923-.615.18256-.92957.26587-.27087.07178-.54944.13428-.8241.2016-.3153.07739-.62719.159-.94714.23047-.29138.06512-.58972.12024-.88477.18036-.31042.06323-.61755.13128-.93188.189-.30713.0564-.62073.10242-.93128.15344-.3103.05091-.61718.107-.93042.15253-.32446.04718-.65478.08337-.98242.12463-.30481.03833-.60669.08228-.91406.11548-.369.03992-.74353.06806-1.11621.10047-.27173.02368-.54089.0534-.81445.073-.38819.02783-.781.04345-1.17225.06311-.26318.01318-.52392.03271-.78845.04217q-.98511.03525-1.98144.0354-1.11109 0-2.20777-.04382c-.25537-.0102-.5061-.03162-.76-.04523-.47338-.02539-.94824-.04736-1.4165-.08465-.27307-.02179-.54065-.05512-.81189-.08094-.44324-.04217-.88855-.0802-1.32617-.13293-.27551-.03321-.54443-.07776-.81775-.11511-.42627-.05823-.855-.11231-1.27515-.18049-.27368-.04443-.53979-.09991-.81079-.14849-.41186-.0738-.82666-.1435-1.23169-.22681-.26782-.055-.52722-.12085-.79187-.18-.39917-.08924-.80139-.17444-1.19311-.27277-.26575-.06671-.52222-.14392-.7843-.21478-.38062-.10285-.76453-.20166-1.13721-.31317-.2605-.078-.511-.16608-.76758-.24817-.36328-.11627-.73047-.22864-1.0852-.35315-.25245-.0885-.4939-.18689-.7417-.27948-.34668-.12952-.69764-.25525-1.03528-.39264-.24329-.099-.47473-.2074-.713-.31036-.32959-.1424-.66346-.28107-.98328-.431-.23352-.1095-.45471-.22815-.683-.34162-.30994-.154-.62452-.3045-.92432-.46576-.228-.12262-.44251-.25421-.66443-.38092-.28479-.1626-.57483-.32165-.84924-.49084-.21875-.13483-.423-.27838-.635-.41736-.26148-.17139-.52857-.33936-.77954-.517-.20716-.14661-.39893-.3017-.59864-.45251-.23816-.17981-.48242-.35621-.70971-.54181-.193-.1576-.36975-.32325-.55469-.48493-.21582-.18866-.43811-.37408-.64258-.56817-.1781-.16895-.33911-.34565-.5083-.51862-.17651-.18042-.36328-.35614-.53-.54089l-.85156-.02637c-1.24121.58887-20.05762 9.60547-24.25684 16.33691l-.04687.083h102.36455c-.07239-.07493-.14795-.15714-.22006-.23148z" fill="#fff"/><g fill="#c0c0c0"><path d="m179.835 255.35791-.02832-.02954-.11523-.11987c-12.6438-12.833-21.614-14.34168-22.98035-14.50074.02527.03766.04773.07434.07312.11206l.14355.21387-.1875.17774c-.19043.1668-.39648.32531-.59521.48773.168-.13727.34424-.27014.50635-.41059 1.16113.15235 10.1914 1.71094 22.62109 14.32715l.14551.15235c.07214.07434.1477.15655.22009.23144h.80567c-.20207-.2102-.4091-.43536-.60877-.6416z"/><path d="m150.14136 245.39423c-.22571.10437-.46118.2008-.69165.30145.23047-.10068.46606-.19702.69165-.30145z"/><path d="m147.00122 246.67273c-.24939.08881-.50745.16888-.76086.2536.25354-.08472.51147-.16479.76086-.2536z"/><path d="m145.33728 247.22552c-.2594.08021-.5271.15143-.7904.22736.26342-.07588.531-.14715.7904-.22736z"/><path d="m151.60962 244.671c-.21338.11188-.43726.216-.65552.32428.21826-.10828.44214-.21244.65552-.32428z"/><path d="m143.61731 247.71875c-.27087.07178-.54944.13422-.8241.2016.27466-.06735.55323-.12982.8241-.2016z"/><path d="m155.54858 242.1828c-.186.142-.3844.27679-.5769.4151.1925-.13831.39087-.27313.5769-.4151z"/><path d="m153.00415 243.89331c-.20679.12268-.4248.23779-.63708.35681.21228-.11896.43029-.23412.63708-.35681z"/><path d="m154.31836 243.06354c-.19775.13293-.40735.25842-.61108.38763.20372-.12917.41333-.2547.61108-.38763z"/><path d="m148.60461 246.06158c-.23962.09754-.48852.18665-.73254.28016.24402-.09357.49293-.18262.73254-.28016z"/><path d="m115.06665 247.093c-.36328-.11627-.73047-.2287-1.0852-.35315.35473.12453.72192.2369 1.0852.35315z"/><path d="m141.84607 248.15082c-.29138.06506-.58972.12024-.88477.18036.29505-.06012.59339-.11524.88477-.18036z"/><path d="m116.97144 247.65436c-.38062-.10285-.76465-.20166-1.13721-.31317.37268.11151.75659.21032 1.13721.31317z"/><path d="m120.97241 248.54871c-.41186-.0738-.82666-.1435-1.23169-.22681.40503.08331.81983.15301 1.23169.22681z"/><path d="m118.94885 248.14191c-.39917-.08918-.80139-.17444-1.19311-.27277.39172.09833.79394.18353 1.19311.27277z"/><path d="m111.49146 245.75739c-.32947-.14234-.66346-.28107-.98328-.431.31982.14993.65369.28861.98328.431z"/><path d="m105.374 242.26038c-.23816-.17981-.48242-.35627-.70971-.54181.22731.1856.47157.362.70971.54181z"/><path d="m109.8252 244.9848c-.30982-.15405-.62452-.30456-.92432-.46576.2998.16126.61438.31177.92432.46576z"/><path d="m104.10962 241.23364c-.21582-.1886-.43811-.37408-.64258-.56817.20447.19409.42676.37953.64258.56817z"/><path d="m106.7522 243.22992c-.26148-.17145-.52857-.33942-.77954-.517.25097.17764.51806.34561.77954.517z"/><path d="m108.23645 244.13812c-.28479-.1626-.57483-.32165-.84924-.49084.27441.16919.56445.32824.84924.49084z"/><path d="m113.23975 246.46039c-.34668-.12952-.69764-.25531-1.03528-.39264.33764.13739.6886.26312 1.03528.39264z"/><path d="m136.27124 249.06622c-.369.03992-.74353.06806-1.11621.10047.37268-.03241.74719-.06055 1.11621-.10047z"/><path d="m138.16772 248.82611c-.32446.04712-.65478.08337-.98242.12463.32764-.04126.65796-.07745.98242-.12463z"/><path d="m140.02942 248.52014c-.30713.0564-.62073.10242-.93128.15344.31055-.05102.62415-.09704.93128-.15344z"/><path d="m134.34058 249.23969c-.38819.02783-.781.04345-1.17225.06311.39124-.01966.78406-.03528 1.17225-.06311z"/><path d="m127.43066 249.29132c-.47338-.02539-.94824-.0473-1.4165-.08465.46826.03733.94312.05926 1.4165.08465z"/><path d="m125.20227 249.12573c-.44324-.04211-.88855-.0802-1.32617-.13293.43762.05273.8829.09076 1.32617.13293z"/><path d="m123.05835 248.87769c-.42615-.05823-.855-.11231-1.27515-.18049.42017.06818.84888.12226 1.27515.18049z"/><path d="m132.37988 249.345q-.98511.03516-1.98144.0354.99591-.00003 1.98144-.0354z"/><path d="m130.39844 249.38037q-1.11109 0-2.20777-.04382 1.09626.04345 2.20777.04382z"/><path d="m101.57715 239.57959.85156.02637c.16675.18475.35352.36047.53.54089-.2063-.21088-.421-.41791-.614-.63464l-.08789-.0918c-.041-.043-.083-.08594-.1211-.12988l-.1289-.14844.06689-.13141-.61865-.019-.06348.0293c-.82129.38574-20.15527 9.51367-24.56543 16.584l-.02978.05194-.0376.06525c-.05859.09521-.10217.18457-.1543.27734h.66895l.04687-.083c4.19924-6.73145 23.01565-15.74805 24.25686-16.33692z"/></g><path d="m147.1272 232.826c-.44947.17737-.89575.36456-1.349.5285-.46521.16822-.9364.31281-1.40528.46686-.47021.1546-.93786.31873-1.41149.45911-.45508.13482-.9148.24633-1.37281.368-.4945.13147-.98694.27209-1.48437.38824-.4408.10291-.88526.183-1.328.27387-.51929.10663-1.03711.22192-1.559.312-.42554.07349-.85376.12463-1.28089.18713-.54285.07953-1.08459.16706-1.62927.22876-.40967.04639-.8208.071-1.2312.10736-.564.05-1.12732.10743-1.69239.13843-.39721.02179-.79492.02216-1.1925.03455-.52759.01654-1.05481.0459-1.58264.0459-.05054 0-.10108-.0044-.15161-.00452-.46155-.0014-.92237-.027-1.38379-.041-.52564-.016-1.05164-.02105-1.57666-.05334-.45056-.02771-.89929-.08057-1.34912-.12036-.53394-.04724-1.06885-.08283-1.60132-.1471-.42578-.05133-.84839-.12811-1.273-.1903q-1.634-.23941-3.2522-.58613c-.42554-.09112-.85351-.16729-1.277-.26953-.4718-.11395-.93786-.25549-1.40686-.38324-.49133-.13379-.98523-.25549-1.47314-.40442-.4519-.138-.897-.30181-1.34558-.45275-.49829-.16761-.99915-.32483-1.493-.50843-.43579-.162-.864-.34851-1.2959-.523-.499-.20147-1.00073-.3941-1.49451-.61224-.42-.18567-.832-.39441-1.24792-.5921-.43921-.20868-.88355-.40308-1.31787-.62519a36.23552 36.23552 0 0 1 -2.96 8.19727l.07129.0752c5.31348 5.96679 15.89551 9.67285 27.61817 9.67285 10.40234 0 20.00586-2.9336 25.76367-7.85645a41.74676 41.74676 0 0 1 -5.05762-9.8623c-.41992.20935-.84936.39148-1.27368.58838-.42761.19848-.85144.40686-1.2832.59271-.46939.2021-.94619.3802-1.42031.56728z" fill="#fff"/><path d="m156.92773 241.03369-.14355-.21387c-.02539-.03772-.04785-.0744-.07312-.11206a40.58887 40.58887 0 0 1 -5.15344-10.13208l.07324.23536-.2207.1123c-.52051.264-1.052.49786-1.57935.74268.42432-.1969.85376-.379 1.27368-.58838a41.74676 41.74676 0 0 0 5.05762 9.8623c-5.75781 4.92285-15.36133 7.85645-25.76367 7.85645-11.72266 0-22.30469-3.70606-27.61817-9.67285l-.07129-.0752a36.23552 36.23552 0 0 0 2.96-8.19727c.43432.22211.87866.41651 1.31787.62519-.55371-.26313-1.11109-.51557-1.65674-.8l-.19727-.10254.0459-.2168a35.50029 35.50029 0 0 1 -3.083 8.61036l-.022.04339-.06689.13141.1289.14844c.03809.04394.08008.08691.1211.12988l.08789.0918c.193.21673.40771.42376.614.63464.16919.173.3302.34967.5083.51862.20447.19409.42676.37957.64258.56817.18494.16168.36169.32733.55469.48493.22729.18554.47155.362.70971.54181.19971.15081.39148.3059.59864.45251.251.17761.51806.34558.77954.517.212.139.41626.28253.635.41736.27441.16919.56445.32824.84924.49084.22192.12671.4364.2583.66443.38092.2998.1612.6145.31171.92432.46576.22827.11347.44946.23212.683.34162.31982.1499.65381.28863.98328.431.23828.103.46972.21136.713.31036.33764.13733.6886.26312 1.03528.39264.2478.09259.48925.191.7417.27948.35473.12445.72192.23688 1.0852.35315.25659.08209.50708.17022.76758.24817.37256.11151.75659.21032 1.13721.31317.26208.07086.51855.14807.7843.21478.39172.09833.79394.18359 1.19311.27277.26465.05914.52405.12494.79187.18.405.08331.81983.153 1.23169.22681.271.04858.53711.10406.81079.14849.42017.06818.849.12226 1.27515.18049.27332.03735.54224.0819.81775.11511.43762.05273.88293.09082 1.32617.13293.27124.02582.53882.05915.81189.08094.46826.03735.94312.05926 1.4165.08465.25391.01361.50464.035.76.04523q1.09626.04349 2.20777.04382.99573 0 1.98144-.0354c.26453-.00946.52527-.029.78845-.04217.39124-.01966.78406-.03528 1.17225-.06311.27356-.0196.54272-.04932.81445-.073.37268-.03241.74719-.06055 1.11621-.10047.30737-.0332.60925-.07715.91406-.11548.32764-.04126.658-.07751.98242-.12463.31324-.04553.62012-.10162.93042-.15253.31055-.051.62415-.097.93128-.15344.31433-.05768.62146-.12573.93188-.189.29505-.06012.59339-.1153.88477-.18036.32-.07147.63184-.15308.94714-.23047.27466-.06738.55323-.12982.8241-.2016.31457-.08331.62024-.17664.92957-.26587.2633-.07593.531-.14715.7904-.22736.306-.09454.60266-.19879.90308-.29919.25341-.08472.51147-.16479.76086-.2536.29566-.10529.58118-.22.87085-.331.244-.09351.49292-.18262.73254-.28016.2876-.11706.56421-.24316.8451-.3659.23047-.10065.46594-.19708.69165-.30145.27722-.12824.54272-.2652.81274-.399.21826-.10828.44214-.2124.65552-.32428.259-.13574.50586-.27985.75745-.42084.21228-.119.43029-.23413.63708-.35681.24121-.14307.46948-.29413.70313-.44214.20373-.12921.41333-.2547.61108-.38763.22485-.15106.43652-.30982.65332-.46564.1925-.13831.39087-.27307.5769-.4151.20606-.15723.39844-.3219.59644-.48364.19873-.16242.40478-.32093.59521-.48773z" fill="#c0c0c0"/><path d="m113.86377 234.16479c.48791.14893.98181.27063 1.47314.40442-.49133-.13379-.98523-.25549-1.47314-.40442z" fill="#c0c0c0"/><path d="m116.74377 234.95245c.42347.10224.85144.17841 1.277.26953-.42556-.09112-.85353-.16729-1.277-.26953z" fill="#c0c0c0"/><path d="m111.02515 233.20361c.49389.1836.99475.34082 1.493.50843-.49815-.16761-.99923-.32477-1.493-.50843z" fill="#c0c0c0"/><path d="m108.23474 232.06836c.49378.21814.99548.41077 1.49451.61224-.49903-.20154-1.00073-.39404-1.49451-.61224z" fill="#c0c0c0"/><path d="m135.9364 235.80975c.42713-.0625.85535-.11364 1.28089-.18713-.42554.07355-.85376.12463-1.28089.18713z" fill="#c0c0c0"/><path d="m144.37292 233.82135c.46888-.154.94007-.29864 1.40528-.46686-.46509.16822-.9364.31275-1.40528.46686z" fill="#c0c0c0"/><path d="m147.1272 232.826c.47412-.18707.95092-.36517 1.42041-.56726-.46949.20201-.94629.38011-1.42041.56726z" fill="#c0c0c0"/><path d="m128.45679 236.36023c-.46143-.0014-.92249-.027-1.38379-.041.46142.01402.92224.0396 1.38379.041z" fill="#c0c0c0"/><path d="m141.58862 234.6485c.458-.12171.91773-.23322 1.37281-.368-.45496.13478-.91492.24629-1.37281.368z" fill="#c0c0c0"/><path d="m124.14722 236.14551c.44983.03979.89856.09265 1.34912.12036-.45056-.02777-.89929-.08057-1.34912-.12036z" fill="#c0c0c0"/><path d="m130.191 236.31885c.39758-.01239.79529-.01276 1.1925-.03455-.39717.02185-.79488.02216-1.1925.03455z" fill="#c0c0c0"/><path d="m138.77625 235.31061c.44274-.09088.8872-.171 1.328-.27387-.44068.10297-.88525.18299-1.328.27387z" fill="#c0c0c0"/><path d="m133.07593 236.14587c.4104-.03637.82153-.061 1.2312-.10736-.40967.04649-.8208.07099-1.2312.10736z" fill="#c0c0c0"/><path d="m121.273 235.80811c.42456.06219.84717.139 1.273.1903-.42588-.05133-.84849-.12805-1.273-.1903z" fill="#c0c0c0"/><path d="m105.7959 230.26025a49.90778 49.90778 0 0 0 45.13086.252c-1.01074-3.3711-1.04883-6.27344-.11426-8.64356a50.53078 50.53078 0 0 1 -44.60645-.10449 25.05546 25.05546 0 0 1 -.41015 8.49605z" fill="#fff"/><path d="m105.33008 230.67627c.54565.28442 1.103.53686 1.65674.8.41589.19769.82788.40643 1.24792.5921.49378.2182.99548.4107 1.49451.61224.43188.1745.86011.361 1.2959.523.49377.18366.99487.34082 1.493.50843.44861.15094.89368.31475 1.34558.45275.48791.14893.98181.27063 1.47314.40442.469.12775.93506.26929 1.40686.38324.42347.10224.85144.17841 1.277.26953q1.61829.34671 3.2522.58613c.42456.06225.84717.139 1.273.1903.53247.06427 1.06738.09986 1.60132.1471.44983.03979.89856.09259 1.34912.12036.525.03229 1.051.03735 1.57666.05334.4613.014.92236.03962 1.38379.041.05053.00012.10107.00452.15161.00452.52783 0 1.05505-.02936 1.58264-.0459.39758-.01239.79529-.0127 1.1925-.03455.56507-.031 1.12842-.08844 1.69239-.13843.4104-.03637.82153-.06091 1.2312-.10736.54468-.0617 1.08642-.14923 1.62927-.22876.42713-.0625.85535-.11358 1.28089-.18713.52185-.09009 1.03967-.20538 1.559-.312.44274-.09088.88732-.1709 1.328-.27387.49743-.11615.98987-.25677 1.48437-.38824.45789-.12171.91785-.23322 1.37281-.368.47363-.14038.94128-.30451 1.41149-.45911.46888-.15411.94019-.29864 1.40528-.46686.45325-.16394.89953-.35113 1.349-.5285.47412-.18714.95092-.36524 1.42041-.56726.43176-.18585.85559-.39423 1.2832-.59271.52734-.24482 1.05884-.47864 1.57935-.74268l.2207-.1123-.07324-.23536c-1.1001-3.53009-1.09986-6.50708-.02515-8.87-.2605-.1518-.51489-.31171-.76233-.48267a49.91909 49.91909 0 0 1 -44.81311-.23877l.00781.00452-.29492.50391-.11279-.06623a23.39317 23.39317 0 0 1 -.37842 8.93048l-.0459.2168zm.876-8.91211a50.53078 50.53078 0 0 0 44.60645.10449c-.93457 2.37012-.89648 5.27246.11426 8.64356a49.90778 49.90778 0 0 1 -45.13086-.252 25.05546 25.05546 0 0 0 .41012-8.49605z" fill="#c0c0c0"/><path d="m88.62512 127.5437a2.60954 2.60954 0 0 1 -1.567-.92584c-1.13038-.8551-.34839 2.00513.18994 2.51782a5.04345 5.04345 0 0 0 1.2229 1.1853 7.38079 7.38079 0 0 1 .82055-1.37115 5.79489 5.79489 0 0 1 -.66639-1.40613z" fill="#c0c0c0"/><path d="m92.47522 126.88031a1.94566 1.94566 0 0 0 -.76538-.323 2.66475 2.66475 0 0 1 -2.23792-2.14111c-.58886-1.29285-1.262 1.6076-1.03271 2.30414a4.58989 4.58989 0 0 0 .18591.82336 5.79489 5.79489 0 0 0 .66638 1.40613 5.287 5.287 0 0 1 3.18372-2.06952z" fill="#c0c0c0"/><path d="m93.2865 126.79614a4.39325 4.39325 0 0 0 -.81128.08417 5.287 5.287 0 0 0 -3.18372 2.06952 7.38079 7.38079 0 0 0 -.8205 1.37117 8.89259 8.89259 0 0 0 -.81494 3.76166c0 4.02423 2.52087 7.2865 5.63049 7.2865 3.1095 0 5.63037-3.26227 5.63037-7.2865s-2.52092-7.28652-5.63042-7.28652z" fill="#c0c0c0"/><path d="m112.14771 111.29254a42.38327 42.38327 0 0 0 -45.06666 3.42682 1.7556 1.7556 0 0 0 2.01038 2.8714c11.61353-7.29852 27.84436-7.3363 39.059.28857a3.85812 3.85812 0 1 0 3.99732-6.58679z" fill="#c0c0c0"/><path d="m105.965 220.989-.008-.005-5.086-2.984v.001l-.295.503.163.096 4.818 2.826.113.067z" fill="#c0c0c0"/><path d="m117.62207 106.31934a30.84741 30.84741 0 0 1 -2.03907-23.67627 31.79983 31.79983 0 0 1 1.645-4.16339 30.9262 30.9262 0 0 0 -1.962 31.7066l23.94714 45.994a11.55136 11.55136 0 0 1 3.84766-1.002z" fill="#b0b0b0"/><path d="m181.1875 242.79248-2.45337.12384a21.85259 21.85259 0 0 0 9.76978.90546l4.98693-.672a30.67033 30.67033 0 0 1 -4.72473-3.71619 11.55277 11.55277 0 0 1 -7.57861 3.35889z" fill="#fff"/><path d="m250.60449 197.69287a16.85939 16.85939 0 0 1 -14.16211.665c-.386-.15692-.75244-.34631-1.1228-.52954l2.53784 4.87427a31.11489 31.11489 0 0 1 -4.40979 35.06268l10.47327-1.41128a21.87629 21.87629 0 0 0 5.0083-1.31475l3.85754-38.76563c-.41516.31915-.84314.62586-1.29358.90851q-.45556.28565-.88867.51074z" fill="#fff"/><path d="m220.853 170.04321-4.8237-14.64821a10.52558 10.52558 0 0 1 -3.5-1.42529l-.0586-.0257z" fill="#fff"/><path d="m193.49084 243.14978-4.98693.672a21.85259 21.85259 0 0 1 -9.76978-.90546l-2.4187.12207a22.762 22.762 0 0 0 9.24219 1.98163 23.00549 23.00549 0 0 0 3.0791-.208l6.2196-.83813q-.69469-.39497-1.36548-.82411z" fill="#0a94b4"/><path d="m233.44763 237.76532q-.52606.58923-1.0841 1.15424l11.69018-1.57532a22.90077 22.90077 0 0 0 4.82068-1.20734l-.13318-.03583.13049-.48474.0575-.57708a21.87629 21.87629 0 0 1 -5.0083 1.31475z" fill="#0a94b4"/><path d="m154.374 62.79785a31.29806 31.29806 0 0 0 -4.12793-.98553 27.57579 27.57579 0 0 0 -13.64624 3.17236 30.938 30.938 0 0 0 -13.11511 41.60645l25.141 48.28674 9.68189-.48871a11.6555 11.6555 0 0 1 4.28 22.69775l3.28149-.16552a11.65905 11.65905 0 0 1 5.74219 22.10345l.11011.21161a11.64433 11.64433 0 0 1 9.75341 18.73285l.853 1.63818a11.6399 11.6399 0 0 1 8.93921 16.21741 31.42982 31.42982 0 0 0 20.94214 11.7511 31.79074 31.79074 0 0 1 -22.3822-9.33417c-.18763.24286-.37769.48444-.58582.71472-.05249.058-.11084.1081-.16431.16492a30.62322 30.62322 0 0 0 48.3899-36.2157l-2.8169-5.41009a16.84925 16.84925 0 0 1 -7.88525-9.50006l-5.0575-15.3584-9.88-18.97571-10.3916-4.56238a20.51659 20.51659 0 0 1 -11.98535-22.26318l.07128-.18457a10.575 10.575 0 0 1 5.91822-4.4643l-23.09595-44.359a30.4094 30.4094 0 0 0 -17.96968-15.03022zm-7.27881 29.55292.96973.52057-.25915 1.2691-5.03858 2.62335-1.12488-.59509.36853-1.17071zm-2.38781-6.50952.4779-1.63166.58789.34644 2.61621 6.90338-.30444 1.13733-.91394-.50293zm-2.10755 11.22723 2.39869 6.23975-.47718 1.67779-.5238-.37982-2.68567-7.19342.32947-.93286zm2.671 6.31543 5.01746-2.5968 1.39185.90662-.29029.69488-5.95455 3.10039-.58789-.34643zm5.0868-2.866-2.31348-6.29968.23755-1.08691 1.0227.55511 2.65381 7.13233-.21924.51812zm.96386-19.28558.14234-.50922 1.43774.88275 2.34888 6.39-.2771.9212-1.01074-.5769zm4.23011 6.71558 5.08435-2.64722.96972.52051-.25915 1.2691-5.03852 2.62338-1.12487-.59509zm-1.37183 10.39361.21667-1.41791a.41555.41555 0 0 1 .17652-.30944.49389.49389 0 0 1 .38574.04773l1.28027.66961a.83182.83182 0 0 1 .29444.29724.7804.7804 0 0 1 .06909.44568l-.17285 1.45722q-.056.33984-.13843.38281a.37325.37325 0 0 1 -.35474-.03284l-1.449-.81476a.65115.65115 0 0 1 -.30774-.72534zm.67285-7.97888.32947-.9328.95849.5885 2.39869 6.23975-.47718 1.67785-.5238-.37982zm3.959 5.97119 5.01745-2.5968 1.39185.90662-.29029.69488-5.95459 3.10034-.58789-.34643zm6.46814-2.04706-1.38135-.819-2.31341-6.29968.23755-1.08691 1.0227.55511 2.65381 7.13233zm-20.3274-10.1889-.48633 1.68256-5.05688 2.63293-1.38269-.91144.27063-.57593 6.0188-3.13372zm-5.59136 4.55813 2.34888 6.38995-.27722.9212-1.01074-.5769-2.64112-7.10785.14234-.50922zm-1.40173 8.234-.30444 1.13733-.91395-.503-2.46362-6.25256.47791-1.63159.58789.34643zm-.10767 1.67188 1.02271.55511 2.65381 7.13233-.21924.51813-1.38135-.819-2.31353-6.29965zm-9.98462-6.20538 6.0188-3.13373.63648.3056-.48633 1.68262-5.05693 2.63288-1.38281-.91137zm2.125 8.46423-2.64139-7.10773.14233-.50915 1.43774.88275 2.34888 6.39-.2771.92121zm1.22022.77856.36853-1.17071 5.08435-2.64722.96973.52051-.25916 1.2691-5.03857 2.62336zm3.20532 8.97376.42322-1.75855 5.01745-2.59686 1.39185.90668-.29028.69488-5.95435 3.10022zm40.687 48.52948a9.74668 9.74668 0 0 1 -2.92969-.4541 9.61832 9.61832 0 0 1 -5.67968-4.76074l-9.15821-17.58936a9.68605 9.68605 0 0 1 17.18262-8.94629l9.15723 17.58936a9.69015 9.69015 0 0 1 -8.57227 14.16113zm37.1322 70.47455.77784 1.494-.52552.27368-.83776-1.60889a1.03213 1.03213 0 0 0 -.52479-.53363.80425.80425 0 0 0 -.6665.07581.93867.93867 0 0 0 -.50513.57934 1.12779 1.12779 0 0 0 .13672.83661l.77783 1.494-.52526.27344-1.51-2.90021.50305-.262.225.43213a1.15574 1.15574 0 0 1 .238-.55866 1.57331 1.57331 0 0 1 .52429-.42242 1.449 1.449 0 0 1 .67334-.1764 1.07144 1.07144 0 0 1 .6128.18842 1.25518 1.25518 0 0 1 .25195-.63184 1.68063 1.68063 0 0 1 .585-.48559 1.32977 1.32977 0 0 1 1.033-.13416 1.43235 1.43235 0 0 1 .81006.77478l.86889 1.66883-.52526.27343-.83777-1.60888a1.03234 1.03234 0 0 0 -.52466-.53363.80449.80449 0 0 0 -.66651.0758.939.939 0 0 0 -.50524.57935 1.12831 1.12831 0 0 0 .1366.8367zm2.868-1.4375a1.6913 1.6913 0 0 1 -.20313-.86457 1.543 1.543 0 0 1 .2655-.80584 1.7915 1.7915 0 0 1 .67884-.59357 1.77253 1.77253 0 0 1 .87243-.21411 1.54678 1.54678 0 0 1 .8097.246 1.80078 1.80078 0 0 1 .795 1.52686 1.567 1.567 0 0 1 -.26147.80713 1.75157 1.75157 0 0 1 -.67432.59466 1.77145 1.77145 0 0 1 -.87695.213 1.56349 1.56349 0 0 1 -.81385-.24725 1.694 1.694 0 0 1 -.59173-.6623zm-14.33265 7.40667.77784 1.494-.52527.27344-2.114-4.06024.5254-.27344.81762 1.57031a1.22509 1.22509 0 0 1 .26123-.54644 1.67313 1.67313 0 0 1 .53406-.42414 1.35161 1.35161 0 0 1 1.045-.13708 1.42152 1.42152 0 0 1 .81434.7691l.86889 1.66883-.52563.27368-.83765-1.60889a1.00543 1.00543 0 0 0 -.53284-.52948.85968.85968 0 0 0 -.69128.08875 1.02023 1.02023 0 0 0 -.54334.59924 1.09764 1.09764 0 0 0 .12565.84237zm2.95594-1.48321a1.7344 1.7344 0 0 1 -.20728-.85913 1.5238 1.5238 0 0 1 .24512-.79859 1.66706 1.66706 0 0 1 .64819-.57769 1.63588 1.63588 0 0 1 .84009-.19721 1.49505 1.49505 0 0 1 .78369.263 1.81446 1.81446 0 0 1 .58814.68158 1.71843 1.71843 0 0 1 .07177.16455l-2.35327 1.22522a1.02758 1.02758 0 0 0 .65723.44043 1.23887 1.23887 0 0 0 .8352-.1394 1.212 1.212 0 0 0 .65455-.78626l.46679.1883a1.42924 1.42924 0 0 1 -.30725.6054 2.08137 2.08137 0 0 1 -1.505.69623 1.5115 1.5115 0 0 1 -.82483-.24151 1.7068 1.7068 0 0 1 -.59315-.66491zm2.8623-3.33356.50318-.262.25366.48706a1.01247 1.01247 0 0 1 .20532-.59412 1.66052 1.66052 0 0 1 .58289-.47033l.265.50879a1.19383 1.19383 0 0 0 -.123.05731.99521.99521 0 0 0 -.53784.60357 1.13423 1.13423 0 0 0 .13391.85163l.75232 1.44476-.52527.2735zm-11.00061 5.15021-.2478-.476 3.16858-1.64972.2478.476-1.31348.68384 1.74659 3.35443-.54175.282-1.74646-3.35443zm37.75379-19.07953.25366.48706a1.01223 1.01223 0 0 1 .20544-.594 1.65954 1.65954 0 0 1 .58289-.4704l.26489.50885a1.2039 1.2039 0 0 0 -.123.05725.99542.99542 0 0 0 -.53772.60358 1.13384 1.13384 0 0 0 .13392.85168l.75219 1.44476-.52514.27344-1.51014-2.90021zm-3.32764 1.93781a1.66661 1.66661 0 0 1 .64831-.5777 1.63528 1.63528 0 0 1 .84-.19721 1.4947 1.4947 0 0 1 .78369.263 1.81519 1.81519 0 0 1 .58826.68158 1.7211 1.7211 0 0 1 .07165.16455l-2.35327 1.22522a1.02754 1.02754 0 0 0 .65723.44043 1.23865 1.23865 0 0 0 .8352-.1394 1.21176 1.21176 0 0 0 .65467-.78626l.46679.1883a1.42933 1.42933 0 0 1 -.30725.60541 2.082 2.082 0 0 1 -1.505.69622 1.51091 1.51091 0 0 1 -.82483-.24151 1.708 1.708 0 0 1 -.59326-.66492 1.733 1.733 0 0 1 -.20716-.85913 1.52271 1.52271 0 0 1 .24499-.79855zm-3.04419.57287.52563-.27368.33057.63483.83179-.43305.22485.43207-.83166.433.81775 1.57074a.57386.57386 0 0 0 .30566.29987.49282.49282 0 0 0 .40185-.04913.71551.71551 0 0 0 .33936-.35083l.36084.29242a.888.888 0 0 1 -.20642.29864 1.3334 1.3334 0 0 1 -.323.23413 1.04884 1.04884 0 0 1 -.80115.11823 1.01249 1.01249 0 0 1 -.5913-.54792l-.82923-1.59246-.49231.25634-.2251-.43206.49244-.25641zm-2.57031 2.3504a1.66706 1.66706 0 0 1 .64819-.57769 1.63586 1.63586 0 0 1 .84009-.19721 1.49511 1.49511 0 0 1 .78369.263 1.81427 1.81427 0 0 1 .58826.68158 1.72366 1.72366 0 0 1 .07165.16455l-2.35323 1.22523a1.02727 1.02727 0 0 0 .65723.44037 1.23848 1.23848 0 0 0 .8352-.13934 1.212 1.212 0 0 0 .65454-.78626l.4668.1883a1.42788 1.42788 0 0 1 -.30725.6054 2.08137 2.08137 0 0 1 -1.505.69623 1.51149 1.51149 0 0 1 -.82482-.24151 1.70664 1.70664 0 0 1 -.59314-.66492 1.73286 1.73286 0 0 1 -.20716-.85913 1.5226 1.5226 0 0 1 .24497-.79859zm-1.66211 1.02894a1.432 1.432 0 0 1 .80993.77471l.8689 1.66883-.52527.2735-.83764-1.60889a1.03184 1.03184 0 0 0 -.52491-.53363.804.804 0 0 0 -.66638.07581.93887.93887 0 0 0 -.50525.57934 1.12888 1.12888 0 0 0 .13672.83661l.77783 1.494-.52563.27362-.83765-1.60889a1.03238 1.03238 0 0 0 -.52466-.53363.8047.8047 0 0 0 -.6665.07581.939.939 0 0 0 -.50525.5794 1.12838 1.12838 0 0 0 .13672.83661l.77783 1.494-.52527.2735-1.51-2.90021.50318-.262.22485.43207a1.15806 1.15806 0 0 1 .238-.5586 1.573 1.573 0 0 1 .52441-.42242 1.44775 1.44775 0 0 1 .67322-.17639 1.07148 1.07148 0 0 1 .61291.18841 1.2547 1.2547 0 0 1 .25171-.63183 1.68039 1.68039 0 0 1 .58521-.4856 1.3296 1.3296 0 0 1 1.03301-.13412z" fill="#efefef"/><path d="m164.54077 125.34375a7.73461 7.73461 0 0 0 -3.27881 10.40167l9.158 17.58905a7.59357 7.59357 0 0 0 4.97559 3.565 7.48249 7.48249 0 0 0 6.34277-10.9488l-9.15723-17.58886a7.46012 7.46012 0 0 0 -4.26025-3.62348 6.37577 6.37577 0 0 0 -3.78007.60542zm9.78735 16.95557a5.54739 5.54739 0 0 1 4.959 7.09326 5.15477 5.15477 0 0 1 -4.94824 3.72265 5.528 5.528 0 0 1 -4.64746-8.40185l-6.53029-12.54438a2.56358 2.56358 0 0 1 -.18847-1.92627 2.42078 2.42078 0 0 1 1.2041-1.47217l.25195-.13135a2.51343 2.51343 0 0 1 3.36817 1.11621z" fill="#efefef"/><path d="m119.75122 106.31885a30.93783 30.93783 0 0 1 13.11511-41.60645h.00013a28.18246 28.18246 0 0 1 17.1687-2.941 30.63069 30.63069 0 0 0 -32.02246 44.34479l25.52185 49.01862 1.5913-.08033z" fill="#efefef"/><path d="m167.419 129.95215a2.13137 2.13137 0 0 0 -1.87793-1.15869 1.97491 1.97491 0 0 0 -.915.22363l-.252.13135a1.99776 1.99776 0 0 0 -.99316 1.21582 2.1436 2.1436 0 0 0 .15723 1.60791l6.64648 12.76513-.06934.1045a5.04726 5.04726 0 0 0 -.22558 5.105 4.94416 4.94416 0 0 0 6.624 2.21045 4.74277 4.74277 0 0 0 2.36524-2.88623 5.11946 5.11946 0 0 0 -4.68848-6.55079l-.125-.00341-.05762-.11133zm6.77563 14.485a3.30635 3.30635 0 0 1 2.82678 1.79609 3.18752 3.18752 0 1 1 -5.65161 2.94256 3.30658 3.30658 0 0 1 .14978-3.346l.62329-.945-7.12427-13.68311a.38325.38325 0 0 1 .15442-.51849l.25232-.13141a.38316.38316 0 0 1 .51331.1709l7.12427 13.6831z" fill="#efefef"/><path d="m226.64429 221.87433a1.05164 1.05164 0 0 0 -.6106-.44385 1.10251 1.10251 0 0 0 -1.26514.65534 1.04319 1.04319 0 0 0 .0149.75738z" fill="#efefef"/><path d="m216.04224 228.32977a1.04423 1.04423 0 0 0 .53808.1789 1.17181 1.17181 0 0 0 1.00147-.52149 1.0253 1.0253 0 0 0 .15942-.542 1.34536 1.34536 0 0 0 -.55566-1.06726 1.00411 1.00411 0 0 0 -.53394-.17755 1.1936 1.1936 0 0 0 -1.00171.52148 1.02146 1.02146 0 0 0 -.16333.54071 1.32 1.32 0 0 0 .55567 1.0672z" fill="#efefef"/><path d="m206.00879 232.61841a1.05164 1.05164 0 0 0 -.6106-.44385 1.10276 1.10276 0 0 0 -1.26526.65534 1.04388 1.04388 0 0 0 .015.75738z" fill="#efefef"/><path d="m232.25879 218.95105a1.05091 1.05091 0 0 0 -.6106-.44385 1.10268 1.10268 0 0 0 -1.26513.65534 1.04385 1.04385 0 0 0 .01489.75738z" fill="#efefef"/><path d="m183.916 152.19775a9.19857 9.19857 0 0 0 -.61426-7.061l-9.15723-17.58936a9.26324 9.26324 0 0 0 -16.43262 8.55567l9.15821 17.58935a9.25848 9.25848 0 0 0 17.0459-1.49463zm-15.85743.876-9.1582-17.58935a7.92327 7.92327 0 1 1 14.05566-7.31788l9.15723 17.58887a7.923 7.923 0 0 1 -14.05469 7.31836z" fill="#efefef"/><path d="m175.36865 156.90033a7.69461 7.69461 0 0 1 -6.26318-3.80872l-9.158-17.58917a7.73455 7.73455 0 0 1 3.27881-10.40161 6.60053 6.60053 0 0 1 4.76147-.47833 7.43505 7.43505 0 0 0 -5.52392.55035 7.52221 7.52221 0 0 0 -3.18848 10.11621l9.1582 17.58936a7.50342 7.50342 0 0 0 6.9351 4.02191z" fill="#efefef"/><path d="m154.50684 62.37744a30.928 30.928 0 0 0 -37.27884 16.10224 31.79983 31.79983 0 0 0 -1.645 4.16339 30.84741 30.84741 0 0 0 2.03906 23.67627l25.43872 48.85894c.13281-.01123.26343-.03283.39722-.03961l.07654-.00384-25.52184-49.01862a30.52223 30.52223 0 0 1 32.02246-44.34479c.12719.01563.25232.02191.37988.03888-.05713-.00067-.11194.00244-.16895.002a31.29806 31.29806 0 0 1 4.12793.98553 30.4094 30.4094 0 0 1 17.96973 15.03027l23.09595 44.359c.14331-.043.28882-.0813.43457-.11865l-23.13989-44.44345a30.84659 30.84659 0 0 0 -18.22754-15.24756z" fill="#b0b0b0"/><path d="m233.44763 237.76532a31.11489 31.11489 0 0 0 4.40979-35.06268l-2.53784-4.87427c-.22363-.11066-.452-.21277-.66968-.3327l2.8169 5.41009a30.63587 30.63587 0 0 1 -48.3899 36.2157c-.10107.10748-.20642.209-.31079.31213a30.67033 30.67033 0 0 0 4.72473 3.71619q.67109.42875 1.36548.8241a31.54175 31.54175 0 0 0 15.548 4.134 30.99745 30.99745 0 0 0 21.95923-9.18835q.55863-.56431 1.08408-1.15421z" fill="#b0b0b0"/><path d="m221.707 172.637-.854-2.594-8.382-16.099-.644-.283z" fill="#b0b0b0"/><path d="m184.31934 152.3252a9.61587 9.61587 0 0 0 -.64258-7.38379l-9.15723-17.58936a9.68605 9.68605 0 0 0 -17.18262 8.94629l9.15821 17.58936a9.61832 9.61832 0 0 0 5.67968 4.76074 9.74668 9.74668 0 0 0 2.92969.4541 9.68524 9.68524 0 0 0 9.21485-6.77734zm-12.01758 5.91943a9.19812 9.19812 0 0 1 -5.43164-4.55225l-9.15821-17.58938a9.26324 9.26324 0 0 1 16.43262-8.55567l9.15723 17.58936a9.25878 9.25878 0 0 1 -11 13.10791z" fill="#969696"/><path d="m178.74512 156.44238a7.93255 7.93255 0 0 0 3.36816-10.687l-9.15723-17.58887a7.92328 7.92328 0 0 0 -14.05566 7.31788l9.1582 17.58935a7.92573 7.92573 0 0 0 10.68653 3.36865zm-10.31153-3.564-9.1582-17.58936a7.49821 7.49821 0 0 1 6.63965-10.96289 7.532 7.532 0 0 1 2.07275.29633c.17993.04089.36011.08313.54175.13281-.0708-.00677-.13892-.011-.20874-.017a7.46012 7.46012 0 0 1 4.26025 3.62348l9.15723 17.58886a7.48249 7.48249 0 0 1 -6.34277 10.9488l.0282.00866c-.01844-.00177-.03675-.006-.05506-.00781a7.50342 7.50342 0 0 1 -6.93506-4.02184z" fill="#e3e3e3"/><path d="m167.79688 129.75537a2.51343 2.51343 0 0 0 -3.36817-1.11621l-.25195.13135a2.42078 2.42078 0 0 0 -1.2041 1.47217 2.56358 2.56358 0 0 0 .18847 1.92627l6.53028 12.54443a5.528 5.528 0 0 0 4.64746 8.40185 5.15477 5.15477 0 0 0 4.94824-3.72265 5.54739 5.54739 0 0 0 -4.959-7.09326zm6.26855 12.96143.125.00341a5.11946 5.11946 0 0 1 4.68848 6.55079 4.74277 4.74277 0 0 1 -2.36524 2.88623 4.94416 4.94416 0 0 1 -6.624-2.21045 5.04726 5.04726 0 0 1 .22558-5.105l.06934-.1045-6.64648-12.76513a2.1436 2.1436 0 0 1 -.15723-1.60791 1.99776 1.99776 0 0 1 .99316-1.21582l.252-.13135a1.97491 1.97491 0 0 1 .915-.22363 2.13137 2.13137 0 0 1 1.87793 1.15869l6.58886 12.65332z" fill="#cfd8dc"/><path d="m165.9386 130.72272a.38316.38316 0 0 0 -.51331-.1709l-.25232.13141a.38325.38325 0 0 0 -.15442.51849l7.12427 13.68311-.62329.945a3.30658 3.30658 0 0 0 -.14978 3.346 3.18752 3.18752 0 1 0 5.65161-2.94256 3.30635 3.30635 0 0 0 -2.82678-1.79609l-1.13171-.03131z" fill="#808080"/><path d="m132.86646 64.7124h-.00013a30.93783 30.93783 0 0 0 -13.11511 41.60645l25.37463 48.73565 3.49988-.17663-25.141-48.28674a30.938 30.938 0 0 1 13.11511-41.60645 27.57579 27.57579 0 0 1 13.64624-3.17236c.057.00042.11182-.00269.16895-.002-.12756-.017-.25269-.02325-.37988-.03888a28.18246 28.18246 0 0 0 -17.16869 2.94096z" fill="#fafafa"/><path d="m212.20923 247.576a31.42982 31.42982 0 0 1 -20.94214-11.7511 11.66509 11.66509 0 0 1 -1.44006 2.41693 31.79074 31.79074 0 0 0 22.3822 9.33417z" fill="#fafafa"/><path d="m180.0791 219.49921a11.527 11.527 0 0 1 2.24878.10827l-.853-1.63818a11.76608 11.76608 0 0 1 -1.39578 1.52991z" fill="#fafafa"/><path d="m171.06812 199.26575.5725-.02893c.0271-.00147.05372.00091.08082-.00037l-.11011-.21161c-.177.08759-.36109.16216-.54321.24091z" fill="#fafafa"/><path d="m163.22632 125.10083a7.73455 7.73455 0 0 0 -3.27881 10.40161l9.158 17.58917a7.69461 7.69461 0 0 0 6.26318 3.80872c.01831.00183.03662.006.05506.00781l-.0282-.00866a7.59357 7.59357 0 0 1 -4.97559-3.565l-9.158-17.58905a7.73461 7.73461 0 0 1 3.27881-10.40167 6.37577 6.37577 0 0 1 3.78-.60541c.06982.00592.13794.0102.20874.017-.18164-.04968-.36182-.09192-.54175-.13281a6.60053 6.60053 0 0 0 -4.76144.47829z" fill="#fafafa"/><path d="m141.25 107.124-1.392-.906-5.017 2.597-.424 1.758.588.346 5.955-3.1z" fill="#31c1c0"/><path d="m134.036 91.211.486-1.683-.636-.305-6.019 3.134-.271.575 1.383.912z" fill="#31c1c0"/><path d="m139.927 105.948 1.382.819.219-.518-2.654-7.132-1.022-.555-.238 1.087z" fill="#31c1c0"/><path d="m134.755 89.64-.478 1.632 2.464 6.252.914.503.304-1.137-2.616-6.903z" fill="#31c1c0"/><path d="m128.931 94.087-1.438-.883-.142.509 2.641 7.108 1.01.577.278-.921z" fill="#31c1c0"/><path d="m137.635 98.302-.97-.521-5.084 2.648-.369 1.17 1.125.595 5.039-2.623z" fill="#31c1c0"/><path d="m148.085 92.597.304-1.138-2.616-6.903-.588-.346-.478 1.631 2.464 6.253z" fill="#31c1c0"/><path d="m137.781 88.282 2.641 7.108 1.011.577.277-.921-2.349-6.39-1.438-.883z" fill="#31c1c0"/><path d="m138.026 87.502 1.383.911 5.057-2.633.486-1.682-.636-.306-6.019 3.134z" fill="#31c1c0"/><path d="m141.642 96.169 1.125.595 5.039-2.624.259-1.269-.97-.52-5.084 2.647z" fill="#31c1c0"/><path d="m141.312 97.413 2.686 7.193.523.38.478-1.678-2.399-6.24-.959-.588z" fill="#31c1c0"/><path d="m151.39 102.389.29-.695-1.392-.907-5.017 2.597-.424 1.759.588.346z" fill="#31c1c0"/><path d="m151.958 100.819-2.654-7.133-1.022-.555-.238 1.087 2.314 6.3 1.381.819z" fill="#31c1c0"/><path d="m154.48755 99.06683 1.449.81476a.37325.37325 0 0 0 .35474.03284q.0824-.04294.13843-.38281l.17285-1.45722a.7804.7804 0 0 0 -.06909-.44568.83182.83182 0 0 0 -.29444-.29724l-1.28027-.66961a.49389.49389 0 0 0 -.38574-.04773.41555.41555 0 0 0 -.17652.30944l-.21667 1.41791a.65115.65115 0 0 0 .30774.72534z" fill="#31c1c0"/><path d="m158.062 97.936.477-1.678-2.398-6.24-.959-.588-.329.933 2.685 7.193z" fill="#31c1c0"/><path d="m164.931 95.339.29-.695-1.392-.907-5.017 2.597-.424 1.758.588.347z" fill="#31c1c0"/><path d="m161.347 87.09.259-1.269-.97-.52-5.084 2.647-.369 1.171 1.125.595z" fill="#31c1c0"/><path d="m161.823 86.081-.238 1.087 2.313 6.3 1.382.819.219-.518-2.654-7.133z" fill="#31c1c0"/><path d="m154.973 88.917.277-.921-2.348-6.39-1.438-.883-.142.509 2.641 7.108z" fill="#31c1c0"/><path d="m199.191 238.268-1.746-3.354 1.313-.684-.248-.476-3.168 1.65.248.476 1.313-.684 1.747 3.354z" fill="#e0e0e0"/><path d="m201.18982 234.10468a.85968.85968 0 0 1 .69128-.08875 1.00543 1.00543 0 0 1 .53284.52948l.83765 1.60889.52563-.27368-.86889-1.66883a1.42152 1.42152 0 0 0 -.81434-.7691 1.35161 1.35161 0 0 0 -1.045.13708 1.67313 1.67313 0 0 0 -.53406.42414 1.22509 1.22509 0 0 0 -.26123.54644l-.8177-1.57035-.5254.27344 2.114 4.06024.52527-.27344-.77784-1.494a1.09764 1.09764 0 0 1 -.12561-.84234 1.02023 1.02023 0 0 1 .5434-.59922z" fill="#e0e0e0"/><path d="m204.32117 234.728a1.5115 1.5115 0 0 0 .82483.24151 2.08137 2.08137 0 0 0 1.505-.69623 1.42924 1.42924 0 0 0 .30725-.6054l-.46679-.1883a1.212 1.212 0 0 1 -.65455.78626 1.23887 1.23887 0 0 1 -.8352.1394 1.02758 1.02758 0 0 1 -.65723-.44043l2.35327-1.22522a1.71843 1.71843 0 0 0 -.07177-.16455 1.81446 1.81446 0 0 0 -.58814-.68158 1.49505 1.49505 0 0 0 -.78369-.263 1.63588 1.63588 0 0 0 -.84009.19721 1.66706 1.66706 0 0 0 -.64819.57769 1.5238 1.5238 0 0 0 -.24512.79859 1.7344 1.7344 0 0 0 .20728.85913 1.7068 1.7068 0 0 0 .59314.66492zm-.18824-1.89807a1.10276 1.10276 0 0 1 1.26526-.65534 1.05164 1.05164 0 0 1 .6106.44385l-1.86084.96887a1.04388 1.04388 0 0 1 -.01502-.75741z" fill="#e0e0e0"/><path d="m208.62573 233.3562-.75232-1.44476a1.13423 1.13423 0 0 1 -.13391-.85163.99521.99521 0 0 1 .53784-.60357 1.19383 1.19383 0 0 1 .123-.05731l-.265-.50879a1.66052 1.66052 0 0 0 -.58289.47033 1.01247 1.01247 0 0 0 -.20532.59412l-.25366-.48706-.50318.262 1.51013 2.90021z" fill="#e0e0e0"/><path d="m212.60522 228.16113a.80449.80449 0 0 1 .66651-.0758 1.03234 1.03234 0 0 1 .52466.53363l.83777 1.60888.52526-.27343-.86889-1.66883a1.43235 1.43235 0 0 0 -.81006-.77478 1.32977 1.32977 0 0 0 -1.033.13416 1.68063 1.68063 0 0 0 -.585.48559 1.25518 1.25518 0 0 0 -.25195.63184 1.07144 1.07144 0 0 0 -.6128-.18842 1.449 1.449 0 0 0 -.67334.1764 1.57331 1.57331 0 0 0 -.52429.42242 1.15574 1.15574 0 0 0 -.238.55866l-.225-.43213-.50305.262 1.51 2.90021.52526-.27344-.77783-1.494a1.12779 1.12779 0 0 1 -.13672-.83661.93867.93867 0 0 1 .50513-.57934.80425.80425 0 0 1 .6665-.07581 1.03213 1.03213 0 0 1 .52479.53363l.83776 1.60889.52552-.27368-.77784-1.494a1.12831 1.12831 0 0 1 -.13671-.83661.939.939 0 0 1 .50532-.57943z" fill="#e0e0e0"/><path d="m215.69653 228.80188a1.56349 1.56349 0 0 0 .81385.24725 1.77145 1.77145 0 0 0 .87695-.213 1.75157 1.75157 0 0 0 .67432-.59466 1.567 1.567 0 0 0 .26147-.80713 1.80078 1.80078 0 0 0 -.795-1.52686 1.54678 1.54678 0 0 0 -.8097-.246 1.77253 1.77253 0 0 0 -.87243.21411 1.7915 1.7915 0 0 0 -.67884.59357 1.543 1.543 0 0 0 -.2655.80584 1.80029 1.80029 0 0 0 .79492 1.52686zm-.04663-2.08a1.1936 1.1936 0 0 1 1.00171-.52148 1.00411 1.00411 0 0 1 .53394.17755 1.34536 1.34536 0 0 1 .55566 1.06726 1.0253 1.0253 0 0 1 -.15942.542 1.17181 1.17181 0 0 1 -1.00147.52149 1.04423 1.04423 0 0 1 -.53808-.1789 1.32 1.32 0 0 1 -.55567-1.0672 1.02146 1.02146 0 0 1 .16333-.54074z" fill="#e0e0e0"/><path d="m221.12109 223.30994a1.2547 1.2547 0 0 0 -.25171.63183 1.07148 1.07148 0 0 0 -.61291-.18841 1.44775 1.44775 0 0 0 -.67322.17639 1.573 1.573 0 0 0 -.52441.42242 1.15806 1.15806 0 0 0 -.238.5586l-.22485-.43207-.50318.262 1.51 2.90021.52527-.2735-.77783-1.494a1.12838 1.12838 0 0 1 -.13672-.83661.939.939 0 0 1 .50525-.5794.8047.8047 0 0 1 .6665-.07581 1.03238 1.03238 0 0 1 .52466.53363l.83765 1.60889.52563-.27362-.77783-1.494a1.12888 1.12888 0 0 1 -.13672-.83661.93887.93887 0 0 1 .50525-.57934.804.804 0 0 1 .66638-.07581 1.03184 1.03184 0 0 1 .52491.53363l.83764 1.60889.52527-.2735-.8689-1.66883a1.432 1.432 0 0 0 -.80993-.77471 1.3296 1.3296 0 0 0 -1.033.13415 1.68039 1.68039 0 0 0 -.5852.48558z" fill="#e0e0e0"/><path d="m224.95667 223.98389a1.51149 1.51149 0 0 0 .82482.24151 2.08137 2.08137 0 0 0 1.505-.69623 1.42788 1.42788 0 0 0 .30725-.6054l-.4668-.1883a1.212 1.212 0 0 1 -.65454.78626 1.23848 1.23848 0 0 1 -.8352.13934 1.02727 1.02727 0 0 1 -.65723-.44037l2.35327-1.22522a1.72366 1.72366 0 0 0 -.07165-.16455 1.81427 1.81427 0 0 0 -.58826-.68158 1.49511 1.49511 0 0 0 -.78369-.263 1.63586 1.63586 0 0 0 -.84009.19721 1.66706 1.66706 0 0 0 -.64819.57769 1.5226 1.5226 0 0 0 -.245.79859 1.73286 1.73286 0 0 0 .20716.85913 1.70664 1.70664 0 0 0 .59315.66492zm-.18812-1.89807a1.10251 1.10251 0 0 1 1.26514-.65534 1.05164 1.05164 0 0 1 .6106.44385l-1.86084.96887a1.04319 1.04319 0 0 1 -.0149-.75738z" fill="#e0e0e0"/><path d="m227.03491 220.63409.49231-.25634.82923 1.59246a1.01249 1.01249 0 0 0 .5913.54792 1.04884 1.04884 0 0 0 .80115-.11823 1.3334 1.3334 0 0 0 .323-.23413.888.888 0 0 0 .20642-.29864l-.36084-.29242a.71551.71551 0 0 1 -.33936.35083.49282.49282 0 0 1 -.40185.04913.57386.57386 0 0 1 -.30566-.29987l-.81775-1.57074.83166-.433-.22485-.43207-.83179.43305-.33057-.63483-.52563.27368.33057.63477-.49244.25641z" fill="#e0e0e0"/><path d="m230.57129 221.06061a1.51091 1.51091 0 0 0 .82483.24151 2.082 2.082 0 0 0 1.505-.69622 1.42933 1.42933 0 0 0 .30725-.60541l-.46679-.1883a1.21176 1.21176 0 0 1 -.65467.78626 1.23865 1.23865 0 0 1 -.8352.1394 1.02754 1.02754 0 0 1 -.65723-.44043l2.35327-1.22522a1.7211 1.7211 0 0 0 -.07165-.16455 1.81519 1.81519 0 0 0 -.58826-.68158 1.4947 1.4947 0 0 0 -.78369-.263 1.63528 1.63528 0 0 0 -.84.19721 1.66661 1.66661 0 0 0 -.64831.5777 1.52271 1.52271 0 0 0 -.245.79858 1.733 1.733 0 0 0 .20716.85913 1.708 1.708 0 0 0 .59329.66492zm-.18823-1.89807a1.10268 1.10268 0 0 1 1.26513-.65534 1.05091 1.05091 0 0 1 .6106.44385l-1.86084.96887a1.04385 1.04385 0 0 1 -.01489-.75738z" fill="#e0e0e0"/><path d="m234.87573 219.6889-.75219-1.44476a1.13384 1.13384 0 0 1 -.13392-.85168.99542.99542 0 0 1 .53772-.60358 1.2039 1.2039 0 0 1 .123-.05725l-.26489-.50885a1.65954 1.65954 0 0 0 -.58289.4704 1.01223 1.01223 0 0 0 -.20544.594l-.25366-.48706-.50306.262 1.51014 2.90021z" fill="#e0e0e0"/><path d="m226.67773 140.18018a9.70925 9.70925 0 0 0 -3.21-3.38379l-19.7373-12.57178a9.71081 9.71081 0 0 0 -13.31143 2.87939 19.51843 19.51843 0 0 0 11.41894 21.08008l11.16113 4.90625a9.76892 9.76892 0 0 0 3.50391 1.37891l.292.05322 10.91895 33.16065a15.88924 15.88924 0 0 0 22.42968 9.123c.26465-.13769.53809-.29492.81739-.4707a15.406 15.406 0 0 0 1.968-1.49017l2.08532-20.95636c-.10705-.14539-.19983-.29908-.31213-.44117z" fill="#fff"/><path d="m213.98523 129.57056-9.71765-6.1897a10.57241 10.57241 0 0 0 -4.47-1.58234c-.20874-.02435-.41724-.04718-.62769-.05908a10.785 10.785 0 0 0 -2.95019.23468c-.11744.026-.2295.06464-.34546.0943-.14575.03735-.29126.07562-.43457.11865a10.575 10.575 0 0 0 -5.91822 4.4643l-.07128.18457a20.51659 20.51659 0 0 0 11.98535 22.26318l10.3916 4.56238.64355.28253.0586.0257a10.52558 10.52558 0 0 0 3.5 1.42529l4.82373 14.64819.85412 2.594 5.0575 15.3584a16.84925 16.84925 0 0 0 7.88525 9.50006c.21765.11993.446.222.66968.3327.37036.18323.73682.37262 1.1228.52954a16.85939 16.85939 0 0 0 14.16211-.665q.43214-.22411.88867-.51074c.45044-.28265.87842-.58936 1.29358-.90851l.14222-1.42834a15.406 15.406 0 0 1 -1.968 1.49017c-.2793.17578-.55274.333-.81739.4707a15.88924 15.88924 0 0 1 -22.42968-9.123l-10.91895-33.16065-.292-.05322a9.76892 9.76892 0 0 1 -3.50391-1.37891l-11.16113-4.90625a19.51843 19.51843 0 0 1 -11.41887-21.08016 9.71081 9.71081 0 0 1 13.31152-2.87939l19.7373 12.57178a9.70925 9.70925 0 0 1 3.21 3.38379l28.02442 33.26757c.1123.14209.20508.29578.31213.44117l.012-.12043-.286-.27972.34937-.35718v-.00043l.00024.00019.34961-.35742.01978.01928-27.96523-33.18481a10.51675 10.51675 0 0 0 -3.48926-3.65576l-9.5144-6.06031z" fill="#0a94b4"/><path d="m172.81641 222.53076-8.95923.45252a10.8194 10.8194 0 0 0 -1.76148 1.55725 10.64849 10.64849 0 0 0 8.4375 17.78906l10.60352-.53516a10.66259 10.66259 0 0 0 -.53027-21.31054c-.18067 0-.36231.00488-.54395.01367l-1.364.06885a11.57167 11.57167 0 0 1 -5.88209 1.96435z" fill="#fff"/><path d="m178.73413 242.91632 2.45337-.12384a11.55277 11.55277 0 0 0 7.57861-3.35889c.10437-.10315.20972-.20465.31079-.31213.05347-.05682.11182-.10693.16431-.16492.20813-.23028.39819-.47186.58582-.71472a11.66509 11.66509 0 0 0 1.44006-2.41693 11.62094 11.62094 0 0 0 -11.188-16.32568 11.72091 11.72091 0 0 1 -1.38061 1.0672l1.364-.06885c.18164-.00879.36328-.01367.54395-.01367a10.66255 10.66255 0 0 1 .53027 21.31054l-10.60352.53516a10.64849 10.64849 0 0 1 -8.4375-17.78906 10.8194 10.8194 0 0 1 1.76148-1.55725l-1.70581.08612q-.414.3792-.79688.80023a11.66316 11.66316 0 0 0 8.63379 19.47363c.19727 0 .39649-.00488.5957-.01562l5.73145-.28925z" fill="#0a94b4"/><path d="m149.47949 204.49268a10.64914 10.64914 0 0 0 8.43653 17.79l14.8496-.75a10.66308 10.66308 0 0 0 -.53027-21.31152c-.18066 0-.3623.00488-.54394.01367l-14.84961.75a10.58755 10.58755 0 0 0 -7.36231 3.50785z" fill="#fff"/><path d="m163.85718 222.98328 8.95923-.45252a11.57167 11.57167 0 0 0 5.88208-1.96435 11.66623 11.66623 0 0 0 5.17749-10.271 11.68926 11.68926 0 0 0 -12.15454-11.059c-.0271.00128-.05372-.0011-.08082.00037l-.5725.02893a11.57825 11.57825 0 0 1 -4.02222.94958l-14.27735.72016a11.63446 11.63446 0 0 0 -1.99841 20.28753c.24744.171.50183.33087.76233.48267a11.57446 11.57446 0 0 0 5.84155 1.5907c.19629 0 .39453-.00489.59278-.01563l4.18457-.21136zm7.83423-22.74842c.18164-.00879.36328-.01367.54394-.01367a10.66252 10.66252 0 0 1 .53027 21.31152l-14.8496.75a10.66248 10.66248 0 0 1 -1.07422-21.29785z" fill="#0a94b4"/><path d="m177.10645 188.03076a10.67721 10.67721 0 0 0 -10.64258-10.125c-.18067 0-.36133.00488-.54395.01367l-14.84961.749a10.66249 10.66249 0 1 0 1.0752 21.29785l14.84961-.749a10.6755 10.6755 0 0 0 10.11133-11.18652z" fill="#fff"/><path d="m178.10449 187.98a11.6618 11.6618 0 0 0 -12.23535-11.05859l-3.28149.16552a11.60467 11.60467 0 0 1 -3.10327.5962l-11.57093.58435a11.65581 11.65581 0 0 0 3.68811 22.71252q.29591 0 .59473-.01562l.57226-.02887 14.27735-.72016a11.57825 11.57825 0 0 0 4.02222-.94958c.18212-.07874.36621-.15332.54321-.24091a11.67627 11.67627 0 0 0 6.49316-11.04486zm-11.10937 11.23731-14.84961.749a10.66249 10.66249 0 1 1 -1.0752-21.29785l14.84961-.749c.18262-.00879.36328-.01367.54395-.01367a10.66255 10.66255 0 0 1 .53125 21.31153z" fill="#0a94b4"/><path d="m159.43359 176.68506a10.6626 10.6626 0 0 0 -.53125-21.31055c-.18066 0-.3623.0044-.54394.01367l-14.84961.74952a10.66223 10.66223 0 0 0 1.07422 21.29736z" fill="#fff"/><path d="m159.48438 177.68311a11.66183 11.66183 0 0 0 -1.17676-23.29395l-9.68189.48871-3.49988.17663-1.5913.08033-.07654.00384c-.13379.00678-.26441.02838-.39722.03961a11.55136 11.55136 0 0 0 -3.84766 1.002 11.66349 11.66349 0 0 0 4.825 22.26843c.19726 0 .39648-.00488.5957-.01562l3.27966-.16565zm-22.57911-2.99711a10.66225 10.66225 0 0 1 6.60352-18.54834l14.84961-.74952c.18164-.00927.36328-.01367.54394-.01367a10.66256 10.66256 0 0 1 .53125 21.31055l-14.85058.75a10.62855 10.62855 0 0 1 -7.67774-2.74902z" fill="#0a94b4"/><path d="m255.09 173.132v-.001z" fill="#fff"/><path d="m255.02625 173.76849-.012.12043-2.08525 20.95636-.14222 1.42834-3.85754 38.76563-.0575.57708.12928-.4801 1.28235.34485a41.23325 41.23325 0 0 0 5.71663-20.98157v-39.77868z" fill="#fff"/><path d="m255.439 172.774-.349.357v.001l-.35.357.286.279.974.953v-1.399l-.541-.529z" fill="#0a94b4"/><path d="m249.001 235.13623-.12928.4801-.13049.48474.13318.03583.87207.2345c.18323-.29407.361-.59143.53687-.89032z" fill="#0a94b4"/><path d="m257 214.49951v-171.99951a42.54815 42.54815 0 0 0 -42.5-42.5h-172a42.54815 42.54815 0 0 0 -42.5 42.5v171.99951a42.54815 42.54815 0 0 0 42.5 42.5h172a42.54815 42.54815 0 0 0 42.5-42.5zm-179.72656 41.5h-34.77344a41.54747 41.54747 0 0 1 -41.5-41.5v-171.99951a41.54716 41.54716 0 0 1 41.5-41.5h172a41.54716 41.54716 0 0 1 41.5 41.5v171.99951a41.23325 41.23325 0 0 1 -5.71667 20.98157c-.17591.29889-.35364.59625-.53687.89032a41.50409 41.50409 0 0 1 -35.24646 19.62811z" fill="#31c1c0"/></svg>