<svg xmlns="http://www.w3.org/2000/svg" xmlns:xlink="http://www.w3.org/1999/xlink" viewBox="0 0 312.26 342.08"><defs><style>.cls-1,.cls-11,.cls-12,.cls-13,.cls-19{fill:none;}.cls-2{isolation:isolate;}.cls-3{clip-path:url(#clip-path);}.cls-4,.cls-5,.cls-6,.cls-9{fill:#fff;}.cls-5,.cls-6{stroke:#c1c1c1;stroke-width:0.58px;}.cls-10,.cls-11,.cls-12,.cls-13,.cls-19,.cls-5,.cls-9{stroke-miterlimit:10;}.cls-6{stroke-linecap:round;stroke-linejoin:round;}.cls-7{fill:#c1c1c1;}.cls-8{fill:#b1b1b1;mix-blend-mode:multiply;opacity:0.3;}.cls-9{stroke:#0a95b5;}.cls-10{fill:#f0f0f0;stroke:#b1b1b1;stroke-width:0.44px;}.cls-11{stroke:#979797;}.cls-11,.cls-12{stroke-width:0.42px;}.cls-12{stroke:#e4e4e4;}.cls-13{stroke:#cfd8dc;stroke-width:0.43px;}.cls-14{fill:gray;}.cls-15{fill:#fafafa;}.cls-16{opacity:0.43;}.cls-17{fill:#31c2c1;}.cls-18{fill:#e0e0e0;}.cls-19{stroke:#31c2c1;}</style><clipPath id="clip-path"><rect class="cls-1" x="0.5" y="0.5" width="256" height="256" rx="42"/></clipPath></defs><g class="cls-2"><g id="Layer_2" data-name="Layer 2"><g id="Layer_3" data-name="Layer 3"><g class="cls-3"><rect class="cls-4" x="0.5" y="0.5" width="256" height="256" rx="42"/><path class="cls-5" d="M178.61,70.1c-.65-.25-1.29-.51-1.93-.79C177.32,69.59,178,69.85,178.61,70.1Z"/><path class="cls-5" d="M180.58,70.84c-.66-.24-1.31-.48-2-.74C179.27,70.36,179.92,70.6,180.58,70.84Z"/><path class="cls-5" d="M176.68,69.31c-.63-.29-1.24-.6-1.84-.93C175.44,68.71,176.05,69,176.68,69.31Z"/><path class="cls-5" d="M200.36,128.34c0,.71,0,1.42-.11,2.12C200.32,129.76,200.36,129.05,200.36,128.34Z"/><path class="cls-5" d="M60.49,164.38v-.3a13.11,13.11,0,0,0-.56-3.86l.61,5.85C60.5,165.51,60.49,165,60.49,164.38Z"/><path class="cls-5" d="M61.71,173.4a21.31,21.31,0,0,1-3.86.36q-.65,0-1.29,0a23.48,23.48,0,0,1-14.63-6.48,39.86,39.86,0,0,0,58.79,51l-.59-.39C84.12,206.85,66.42,191.16,61.71,173.4Z"/><path class="cls-5" d="M59.93,160.22s0-.57-.15-1.52v0Z"/><path class="cls-5" d="M196.73,164.38v-.78l-.92,7.64c0,.26,0,.51,0,.76A34.93,34.93,0,0,0,196.73,164.38Z"/><path class="cls-5" d="M196.81,162.41a11.69,11.69,0,0,0-.08,1.19l.21-1.8C196.89,162,196.85,162.21,196.81,162.41Z"/><path class="cls-5" d="M199.83,173.74a20.22,20.22,0,0,1-3.92-.51c0,.05,0,.11,0,.17l0-.18-.31-.05c.07-.27.12-.54.18-.8s0-.23,0-.35l-.14,1.15C191,191,173.31,206.68,157.3,217.73A39.86,39.86,0,0,0,216.64,167a23.32,23.32,0,0,1-16.11,6.74C200.29,173.76,200.06,173.76,199.83,173.74Z"/><path class="cls-5" d="M56.88,130.65c-1.33-4-.55-8.54.88-12.56,1.69-4.77,4.23-9.29,5-14.28,1.49-9.12-2.72-19.49,2.45-27.13,5.38-8,17.64-7.78,24.39-14.61,4.9-4.94,6.46-13.15,12.72-16.19a10.08,10.08,0,0,1,1.49-.6,13.6,13.6,0,0,1,4.76-.52c.55,0,1.09.08,1.63.16a23.8,23.8,0,0,1,3.23.69q.8.22,1.56.48c4.13,1.37,8.11,3.32,12.42,3.77,8.45.89,16.76-4.1,25.17-2.88a17.45,17.45,0,0,1,11.13,6.41c3.26,4.14,4.62,9.71,8.57,13.2a14.31,14.31,0,0,0,2.53,1.79c.6.33,1.21.64,1.84.93s1.28.54,1.93.79,1.31.5,2,.74a31.93,31.93,0,0,1,6.66,3,16.22,16.22,0,0,1,6.92,15.78c-.94,5.7-5,11.18-3.38,16.73.89,3.08,3.33,5.4,5.19,8,.41.57.8,1.17,1.16,1.78a23.78,23.78,0,0,1,3.23,12.15c0,.71,0,1.42-.11,2.12l.13.68a46.83,46.83,0,0,1,11.08,2.08q.64.14,1.29.3a91.41,91.41,0,1,0-168.36.31A46.15,46.15,0,0,1,57,131.16C56.92,130.87,56.89,130.68,56.88,130.65Z"/><path class="cls-5" d="M41.1,135.24l1.72-.81A17,17,0,0,0,41.1,135.24Z"/><path class="cls-5" d="M195.58,173.17l.31.05c0-.27-.08-.57-.13-.85C195.7,172.63,195.65,172.9,195.58,173.17Z"/><path class="cls-6" d="M214.69,134.38l1.89.89c-2.35-.15-5.37,2.27-7,3.94a50.74,50.74,0,0,0-12.62,22.59l-.21,1.8v.78a34.93,34.93,0,0,1-.88,7.62q0,.62.06,1.23a20.22,20.22,0,0,0,3.92.51c.23,0,.46,0,.7,0A23.32,23.32,0,0,0,216.64,167a19.69,19.69,0,0,0,6.19-14c0-5.23.32-12-2.87-15.68-1.62-1.85-4.25-3.05-7.21-3.81q-.65-.17-1.29-.3C212.55,133.57,213.62,133.94,214.69,134.38Z"/><path class="cls-6" d="M60.54,166.1v0l-.61-5.85-.16-1.55v0c-.54-5.48-2.41-24.2-2.82-27.54a46.15,46.15,0,0,0-12.57,2.67c-.49.18-1,.35-1.45.55l-.12.05-1.72.81-.05,0h0a9.6,9.6,0,0,0-2.64,2.06C35.23,141,35.55,147.78,35.55,153a19.8,19.8,0,0,0,6.38,14.24,23.48,23.48,0,0,0,14.63,6.48q.64,0,1.29,0a21.31,21.31,0,0,0,3.86-.36A35.72,35.72,0,0,1,60.54,166.1Z"/><path class="cls-5" d="M195.89,173.22l0,.18c0-.06,0-.12,0-.17q0-.61-.06-1.23c0-.25,0-.5,0-.76l-.1.78c0,.12,0,.23,0,.35C195.81,172.65,195.85,173,195.89,173.22Z"/><path class="cls-6" d="M209.56,139.21c1.65-1.67,4.67-4.09,7-3.94l-1.89-.89c-1.07-.44-2.14-.81-3.23-1.16a46.83,46.83,0,0,0-11.08-2.08l.21,1.11h-.06l-3.45,28.43a12.7,12.7,0,0,0-.27,1.73c0-.2.08-.4.13-.61A50.74,50.74,0,0,1,209.56,139.21Z"/><path class="cls-5" d="M179.63,255.57c.68.7,1.37,1.42,2.07,2.18l-9.46,45.68-7.34,35.45-.1.49h.1c13.5-1.51,28.88-4,42.71-8,10.31-3,19.77-6.82,26.88-11.78v-5.31A110.79,110.79,0,0,0,179.63,255.57Z"/><path class="cls-5" d="M138.85,341l-1.38.06c-2.28.09-4.62.17-7,.24l-1.21,0c-5,.13-9.95.2-14.59.16q6.63.26,13.92.34h.67l1.21,0c1.52,0,3.91-.11,7-.25l1.38-.06c5.32-.26,12.4-.71,20.41-1.48l2.7-.28-2.64.18C154.54,340.17,147.08,340.62,138.85,341Z"/><path class="cls-5" d="M93.93,339.49,76.45,257a5.85,5.85,0,0,1,.56-1.12,110.69,110.69,0,0,0-54.16,58.2s7.44,20,71.47,26l3.6.32a23.61,23.61,0,0,1-3.6-.81Z"/><path class="cls-5" d="M172.24,303.43l9.46-45.68c-.7-.76-1.39-1.48-2.07-2.18l-.15-.16C166,241.69,156.55,241,156.55,241h0c-5.58,4.89-15.22,8.1-26.15,8.1-12.15,0-22.67-4-27.84-9.77l-1,0s-20,9.39-24.45,16.47l-.06.12a5.85,5.85,0,0,0-.56,1.12l17.48,82.49.39.13a23.61,23.61,0,0,0,3.6.81,125.69,125.69,0,0,0,16.78,1c4.64,0,9.62,0,14.59-.16l1.21,0c2.35-.07,4.69-.15,7-.24l1.38-.06c8.23-.34,15.69-.79,20.47-1.09l2.64-.18,2.81-.2,0-.12.1-.49Z"/><path class="cls-5" d="M130.4,249.09c10.93,0,20.57-3.21,26.15-8.1h0a41.72,41.72,0,0,1-5.26-10.32,50,50,0,0,1-45.82-.24,35.55,35.55,0,0,1-3.1,8.68c.06.07.14.14.2.22C107.73,245.12,118.25,249.09,130.4,249.09Z"/><path class="cls-5" d="M151.28,230.66c-1.05-3.37-1.26-6.68.14-9.42a50,50,0,0,1-45.6,0,23.29,23.29,0,0,1-.36,9.18A50,50,0,0,0,151.28,230.66Z"/><path class="cls-5" d="M151.28,230.66c-1.05-3.37-1.26-6.68.14-9.42a50,50,0,0,1-45.6,0,23.29,23.29,0,0,1-.36,9.18A50,50,0,0,0,151.28,230.66Z"/><path class="cls-7" d="M87.06,126.62c-1.13-.86-.35,2,.19,2.52a5.27,5.27,0,0,0,1.22,1.18,7.42,7.42,0,0,1,.82-1.37,5.84,5.84,0,0,1-.66-1.41A2.55,2.55,0,0,1,87.06,126.62Z"/><path class="cls-7" d="M92.48,126.88a1.88,1.88,0,0,0-.77-.32,2.67,2.67,0,0,1-2.24-2.14c-.59-1.3-1.26,1.6-1,2.3a3.9,3.9,0,0,0,.19.82,5.84,5.84,0,0,0,.66,1.41A5.31,5.31,0,0,1,92.48,126.88Z"/><path class="cls-7" d="M168.92,130.54a4.49,4.49,0,0,0,2.32-3.78.31.31,0,0,0-.58-.14,2.63,2.63,0,0,1-1.58.93,6,6,0,0,1-.86,1.72A6.77,6.77,0,0,1,168.92,130.54Z"/><path class="cls-7" d="M168.82,124.26a.31.31,0,0,0-.57.16,2.69,2.69,0,0,1-2.24,2.14,1.76,1.76,0,0,0-.85.39,5.54,5.54,0,0,1,3.06,2.32,6,6,0,0,0,.86-1.72A4.11,4.11,0,0,0,168.82,124.26Z"/><path class="cls-7" d="M89.29,129a7.42,7.42,0,0,0-.82,1.37,8.94,8.94,0,0,0-.81,3.76c0,4,2.52,7.29,5.63,7.29s5.63-3.26,5.63-7.29-2.52-7.28-5.63-7.28a4.28,4.28,0,0,0-.81.08A5.31,5.31,0,0,0,89.29,129Z"/><path class="cls-7" d="M165.16,127a4.43,4.43,0,0,0-1.15-.15c-3.11,0-5.63,3.26-5.63,7.28s2.52,7.29,5.63,7.29,5.63-3.26,5.63-7.29a8.85,8.85,0,0,0-.72-3.54,6.77,6.77,0,0,0-.7-1.27A5.54,5.54,0,0,0,165.16,127Z"/><path class="cls-7" d="M69.09,117.59c11.61-7.3,27.85-7.34,39.06.29a3.86,3.86,0,1,0,4-6.59,42.39,42.39,0,0,0-45.07,3.43A1.75,1.75,0,0,0,69.09,117.59Z"/><path class="cls-7" d="M146.68,116.91a34.87,34.87,0,0,1,19.57-4.54,37,37,0,0,1,19.63,6.73,1.76,1.76,0,0,0,2.19-2.75,42.64,42.64,0,0,0-44.92-6.16,3.8,3.8,0,1,0,3.53,6.72Z"/><line class="cls-5" x1="100.72" y1="218.25" x2="105.82" y2="221.24"/><path class="cls-8" d="M164.5,204.75l-49.23-94.56a30.94,30.94,0,0,1,13.11-41.61h0A30.94,30.94,0,0,1,170,81.7l46.45,89.22Z"/><path class="cls-9" d="M182.4,152.34H216a44.72,44.72,0,0,1,44.72,44.72v21.48A22.44,22.44,0,0,1,238.32,241H182.4A22.44,22.44,0,0,1,160,218.54V174.78a22.44,22.44,0,0,1,22.44-22.44Z" transform="translate(-24.38 29.85) rotate(-7.67)"/><rect class="cls-10" x="146.89" y="53.16" width="61.69" height="202.71" rx="30.85" transform="translate(-51.27 99.55) rotate(-27.5)"/><path class="cls-11" d="M179.46,157.82a9.49,9.49,0,0,1-12.78-4l-9.16-17.59a9.48,9.48,0,1,1,16.81-8.75L183.49,145A9.48,9.48,0,0,1,179.46,157.82Z"/><rect class="cls-12" x="162.8" y="122.99" width="15.42" height="35.25" rx="7.71" transform="translate(-45.67 94.64) rotate(-27.5)"/><path class="cls-13" d="M174.2,142.51l-6.59-12.66a2.3,2.3,0,0,0-3.08-1l-.25.13a2.3,2.3,0,0,0-.93,3.11l6.59,12.65a5.26,5.26,0,0,0-.24,5.32,5.07,5.07,0,1,0,9-4.68A5.27,5.27,0,0,0,174.2,142.51Z"/><path class="cls-14" d="M175.71,150.62a3.25,3.25,0,0,1-4.34-1.44,3.32,3.32,0,0,1,.15-3.35l.62-1L165,131.2a.39.39,0,0,1,.15-.52l.26-.13a.39.39,0,0,1,.51.17l7.12,13.69,1.13,0a3.3,3.3,0,0,1,2.83,1.79A3.24,3.24,0,0,1,175.71,150.62Z"/><path class="cls-15" d="M188.61,231.67,123.48,106.59A31,31,0,0,1,136.6,65h0a27.57,27.57,0,0,1,13.81-3.17,28.29,28.29,0,0,0-17.54,2.9h0a31,31,0,0,0-13.12,41.61L184.87,231.4c5.43,10.42,16.31,16,27.34,16.18C202.56,246.29,193.42,240.91,188.61,231.67Z"/><path class="cls-15" d="M170.42,153.33l-9.16-17.58a7.74,7.74,0,0,1,3.28-10.41,6.6,6.6,0,0,1,4-.58,6.85,6.85,0,0,0-5.3.34h0A7.73,7.73,0,0,0,160,135.5l9.16,17.59a7.71,7.71,0,0,0,6.31,3.82A7.62,7.62,0,0,1,170.42,153.33Z"/><g class="cls-16"><path class="cls-17" d="M134.84,108.81l5-2.59,1.39.9-.29.7-6,3.1-.59-.35ZM127.49,93.2l1.44.89,2.35,6.39-.28.92-1-.58-2.64-7.11Zm4.09,7.23,5.08-2.65,1,.52-.25,1.27-5,2.62-1.13-.59Zm-3.71-8.07,6-3.14.63.31L134,91.21,129,93.84l-1.38-.91Zm10,6.2,1,.56,2.66,7.13-.22.52-1.38-.82-2.32-6.3Zm-3.09-8.92.58.35,2.62,6.9L137.65,98l-.91-.51-2.46-6.25Z"/><path class="cls-17" d="M141.64,96.48l1,.59,2.4,6.24-.48,1.68-.52-.38-2.69-7.2Zm3.63,6.9,5-2.59,1.39.9-.29.7-5.95,3.1-.59-.35Zm-7.35-15.61,1.44.89,2.35,6.39-.28.92-1-.58-2.64-7.11ZM142,95l5.09-2.65,1,.52-.25,1.27-5,2.62-1.13-.59Zm-3.71-8.07,6-3.14.63.31-.48,1.68-5.06,2.63L138,87.5Zm10,6.2,1,.56,2.66,7.13-.22.52-1.38-.82L148,94.22Zm-3.09-8.92.58.35,2.62,6.9-.31,1.14-.91-.51-2.46-6.25Z"/><path class="cls-17" d="M154.18,98.34l.22-1.42a.44.44,0,0,1,.17-.31.53.53,0,0,1,.39,0l1.28.67a.75.75,0,0,1,.29.3.7.7,0,0,1,.07.44l-.17,1.46c0,.23-.08.36-.14.38a.35.35,0,0,1-.35,0l-1.45-.81a.83.83,0,0,1-.26-.27A.77.77,0,0,1,154.18,98.34Z"/><path class="cls-17" d="M155.18,89.43l1,.59,2.4,6.24-.48,1.68-.52-.38-2.69-7.2Zm3.63,6.9,5-2.59,1.39.9-.29.7-6,3.1-.59-.35Zm-7.35-15.61,1.44.89L155.25,88l-.28.92-1-.58-2.64-7.11ZM155.55,88l5.09-2.65,1,.52-.26,1.27-5,2.62-1.13-.59Zm6.27-1.87,1,.56,2.65,7.13-.22.52-1.38-.82-2.32-6.3Z"/></g><path class="cls-18" d="M196.9,235.2l-1.31.68-.25-.48,3.17-1.65.25.48-1.32.68,1.75,3.36-.54.28Z"/><path class="cls-18" d="M202.09,233.44a1.45,1.45,0,0,1,.82.77l.87,1.67-.53.27-.84-1.6a.94.94,0,0,0-.53-.53.82.82,0,0,0-.69.08,1,1,0,0,0-.54.6,1.1,1.1,0,0,0,.12.85l.78,1.49-.53.27-2.11-4.06.53-.27.81,1.57a1.33,1.33,0,0,1,.26-.55,1.78,1.78,0,0,1,.54-.42A1.36,1.36,0,0,1,202.09,233.44Z"/><path class="cls-18" d="M206.7,232.74,204.34,234a1.08,1.08,0,0,0,.66.45,1.34,1.34,0,0,0,.84-.14,1.24,1.24,0,0,0,.65-.79l.47.19a1.44,1.44,0,0,1-.31.6,1.71,1.71,0,0,1-.59.46,2,2,0,0,1-.91.24,1.49,1.49,0,0,1-.83-.24,1.68,1.68,0,0,1-.59-.67,1.66,1.66,0,0,1-.21-.86,1.48,1.48,0,0,1,.25-.79,1.56,1.56,0,0,1,.64-.58,1.62,1.62,0,0,1,.84-.2,1.49,1.49,0,0,1,.79.26,1.92,1.92,0,0,1,.59.69Zm-2.57.09a1.05,1.05,0,0,0,0,.76l1.86-1a1,1,0,0,0-1.37-.35A1,1,0,0,0,204.13,232.83Z"/><path class="cls-18" d="M207.55,230.36a1.68,1.68,0,0,1,.59-.47l.26.51-.12.06a1,1,0,0,0-.54.6,1.16,1.16,0,0,0,.13.85l.76,1.45-.53.27-1.51-2.9.5-.26.26.48A1,1,0,0,1,207.55,230.36Z"/><path class="cls-18" d="M213.48,227.51a1.45,1.45,0,0,1,.81.78l.87,1.66-.53.28-.83-1.61a1,1,0,0,0-.53-.53.79.79,0,0,0-.66.07.93.93,0,0,0-.51.58,1.15,1.15,0,0,0,.14.84l.77,1.49-.52.27-.84-1.6a1.09,1.09,0,0,0-.52-.54.81.81,0,0,0-.67.08,1,1,0,0,0-.51.58,1.12,1.12,0,0,0,.14.83l.78,1.5-.53.27-1.51-2.9.51-.26.22.43a1.21,1.21,0,0,1,.24-.56,1.69,1.69,0,0,1,.52-.42,1.44,1.44,0,0,1,.68-.18,1.12,1.12,0,0,1,.61.19,1.31,1.31,0,0,1,.25-.63,1.56,1.56,0,0,1,.59-.48A1.33,1.33,0,0,1,213.48,227.51Z"/><path class="cls-18" d="M216.51,229.05a1.52,1.52,0,0,1-.81-.25,1.74,1.74,0,0,1-.6-.66,1.8,1.8,0,0,1-.2-.86,1.46,1.46,0,0,1,.27-.81,1.94,1.94,0,0,1,1.55-.81,1.57,1.57,0,0,1,.81.25,1.73,1.73,0,0,1,.59.66,1.58,1.58,0,0,1,.2.86,1.53,1.53,0,0,1-.26.81,1.7,1.7,0,0,1-.67.6A1.76,1.76,0,0,1,216.51,229.05Zm1.07-1.06a1.06,1.06,0,0,0,.16-.54,1.35,1.35,0,0,0-.55-1.07,1.09,1.09,0,0,0-.54-.18,1.25,1.25,0,0,0-1,.52,1,1,0,0,0-.16.54,1.12,1.12,0,0,0,.15.6,1.24,1.24,0,0,0,.4.47,1.09,1.09,0,0,0,.54.18,1.19,1.19,0,0,0,.57-.13A1.16,1.16,0,0,0,217.58,228Z"/><path class="cls-18" d="M222.74,222.69a1.46,1.46,0,0,1,.81.77l.87,1.67-.53.28-.83-1.61a1.11,1.11,0,0,0-.53-.54.86.86,0,0,0-.67.08,1,1,0,0,0-.5.58,1.1,1.1,0,0,0,.14.84l.77,1.49-.52.27-.84-1.6a1.05,1.05,0,0,0-.52-.54.81.81,0,0,0-.67.08.93.93,0,0,0-.51.58,1.13,1.13,0,0,0,.14.83l.78,1.5-.53.27-1.51-2.9.51-.26.22.43a1.21,1.21,0,0,1,.24-.56,1.46,1.46,0,0,1,.52-.42,1.44,1.44,0,0,1,.68-.18,1.12,1.12,0,0,1,.61.19,1.31,1.31,0,0,1,.25-.63,1.69,1.69,0,0,1,.59-.49A1.32,1.32,0,0,1,222.74,222.69Z"/><path class="cls-18" d="M227.33,222,225,223.22a1,1,0,0,0,.66.44,1.19,1.19,0,0,0,.83-.14,1.21,1.21,0,0,0,.66-.78l.46.18a1.4,1.4,0,0,1-.3.61,2.12,2.12,0,0,1-.59.46,2,2,0,0,1-.92.24A1.55,1.55,0,0,1,225,224a1.67,1.67,0,0,1-.6-.66,1.78,1.78,0,0,1-.2-.86,1.5,1.5,0,0,1,.24-.8,1.75,1.75,0,0,1,.65-.58,1.61,1.61,0,0,1,.84-.19,1.48,1.48,0,0,1,.78.26,1.79,1.79,0,0,1,.59.68A1,1,0,0,1,227.33,222Zm-2.56.09a1,1,0,0,0,0,.75l1.86-1a1.08,1.08,0,0,0-.61-.44,1.1,1.1,0,0,0-1.26.66Z"/><path class="cls-18" d="M230.28,221.87a.91.91,0,0,1-.21.3,1.24,1.24,0,0,1-.32.23,1.07,1.07,0,0,1-.8.12,1,1,0,0,1-.59-.55l-.83-1.59-.5.25-.22-.43.49-.25-.33-.64.53-.27.33.63.83-.43.22.43-.83.43.82,1.57a.53.53,0,0,0,.31.3.48.48,0,0,0,.4,0,.74.74,0,0,0,.34-.36Z"/><path class="cls-18" d="M233,219.07l-2.36,1.23a1.06,1.06,0,0,0,.66.44,1.28,1.28,0,0,0,.84-.14,1.21,1.21,0,0,0,.65-.79l.47.19a1.54,1.54,0,0,1-.31.61,2,2,0,0,1-.59.46,2,2,0,0,1-.91.23,1.49,1.49,0,0,1-.83-.24,1.83,1.83,0,0,1-.8-1.52,1.51,1.51,0,0,1,.25-.8,1.64,1.64,0,0,1,.64-.58,1.73,1.73,0,0,1,.84-.2,1.5,1.5,0,0,1,.79.27,1.88,1.88,0,0,1,.59.68Zm-2.57.09a1.05,1.05,0,0,0,0,.76l1.86-1a1.07,1.07,0,0,0-1.88.21Z"/><path class="cls-18" d="M233.8,216.69a1.8,1.8,0,0,1,.59-.47l.26.51-.12.06a1,1,0,0,0-.54.6,1.16,1.16,0,0,0,.13.85l.76,1.45-.53.27-1.51-2.9.5-.26.26.49A1,1,0,0,1,233.8,216.69Z"/><path class="cls-9" d="M255.09,173.13l-28-33.27a10.14,10.14,0,0,0-3.32-3.49L204,123.8a10.22,10.22,0,0,0-14.06,3.12,20.05,20.05,0,0,0,11.7,21.72l11.16,4.91a10.1,10.1,0,0,0,3.61,1.41l10.83,32.88a16.38,16.38,0,0,0,23.13,9.41c.28-.14.57-.31.86-.49A16.13,16.13,0,0,0,255.09,173.13Z"/><rect class="cls-9" x="158.83" y="220.25" width="32.94" height="22.32" rx="11.16" transform="translate(-11.44 9.13) rotate(-2.89)"/><rect class="cls-9" x="146.21" y="200.1" width="37.19" height="22.32" rx="11.16" transform="translate(-10.44 8.58) rotate(-2.89)"/><rect class="cls-9" x="140.44" y="177.78" width="37.19" height="22.32" rx="11.16" transform="translate(-9.32 8.26) rotate(-2.89)"/><rect class="cls-9" x="132.87" y="155.25" width="37.19" height="22.32" rx="11.16" transform="translate(-8.2 7.85) rotate(-2.89)"/><path class="cls-9" d="M248.87,235.62l32.64,8.78,30.07-15.66-16.14-31-15-5.1A38,38,0,0,1,266,183.77l-10.88-10.64"/></g><rect class="cls-19" x="0.5" y="0.5" width="256" height="256" rx="42"/></g></g></g></svg>