<svg viewBox="0 0 256 256" xmlns="http://www.w3.org/2000/svg"><g fill="#31c4c3"><path d="m198.88 192.24a24.23 24.23 0 1 0 24.21 24.23 24.22 24.22 0 0 0 -24.21-24.23zm0 42.59a18.39 18.39 0 1 1 18.38-18.39 18.4 18.4 0 0 1 -18.38 18.39z"/><path d="m198.89 209.68a6.76 6.76 0 1 0 6.76 6.76 6.76 6.76 0 0 0 -6.76-6.76z"/><path d="m133.56 29.26a14 14 0 0 0 -13.92-13.95h-8.71a8.72 8.72 0 0 0 0 17.44h5.21v46h17.42z"/><path d="m56.15 32.76h2.85a8.72 8.72 0 0 0 0-17.44h-6.34a14 14 0 0 0 -13.94 14v49.48h17.43z"/><path d="m110.33 83.65a3.33 3.33 0 0 1 0 .63z"/><path d="m136.46 78.79h-23.23a2.91 2.91 0 0 0 -2.91 2.91v2.58a24.65 24.65 0 0 1 -23.47 24.19h-.68a24.22 24.22 0 0 1 -24.24-24.22v-2.58a2.91 2.91 0 0 0 -2.93-2.91h-23.19a2.9 2.9 0 0 0 -2.9 2.91v2.9a53.34 53.34 0 0 0 38.62 50.88v12.45a2.9 2.9 0 0 0 2.91 2.9h23.23a2.9 2.9 0 0 0 2.91-2.9v-12.4a53.34 53.34 0 0 0 38.77-50.91v-2.91a2.91 2.91 0 0 0 -2.89-2.89z"/><path d="m207.59 148.12a31.6 31.6 0 0 0 -32.49-31.6c-17.21.47-30.72 15-30.72 32.25v48.4.57a25.27 25.27 0 0 1 -50.54 0v-47.74h-17.43v48.1.21a42.69 42.69 0 1 0 85.38-1.1v-49a14.18 14.18 0 0 1 28.36 0v32.54a2.91 2.91 0 0 0 2.91 2.91h11.62a2.9 2.9 0 0 0 2.9-2.91v-32.64z"/></g></svg>