<svg viewBox="0 0 256 256" xmlns="http://www.w3.org/2000/svg" xmlns:xlink="http://www.w3.org/1999/xlink"><linearGradient id="a" gradientTransform="matrix(28.99 0 0 -28.99 23988.6 67746.64)" gradientUnits="userSpaceOnUse" x1="-823.18" x2="-823.18" y1="2338.21" y2="2326.13"><stop offset="0" stop-color="#eda2a1"/><stop offset="1" stop-color="#d11614"/></linearGradient><path d="m90.7 130.18h31.52l6.65-28.18a3.32 3.32 0 0 1 6.47.06l7.66 35.36 3.48-20a3.32 3.32 0 0 1 6.39-.57l4.88 13.39 8.5.07a3.33 3.33 0 0 1 .77-.11h31.52l6.62-28.2a3.32 3.32 0 0 1 6.47.06l7.62 35.33 3.49-20a3.32 3.32 0 0 1 6.39-.56l4.87 13.38h6v-38.79h-74.67v-74.67h-74.66v74.67h-74.67v74.67h74.67v74.67h74.66v-74.67h74.67v-29.21l-8.34-.06a3.32 3.32 0 0 1 -3.08-2.24l-1.43-3.87-4.28 24.56a3.33 3.33 0 0 1 -3.2 2.75h-.06a3.32 3.32 0 0 1 -3.23-2.62l-8.12-37.61-3.86 16.44a3.33 3.33 0 0 1 -3.23 2.55h-6.6a3.44 3.44 0 0 1 -1.37.32l-37.87-.3a3.33 3.33 0 0 1 -3.09-2.18l-1.42-3.87-4.27 24.55a3.32 3.32 0 0 1 -3.2 2.75h-.07a3.32 3.32 0 0 1 -3.24-2.61l-8.12-37.62-3.86 16.44a3.3 3.3 0 0 1 -3.22 2.55h-34.14a3.32 3.32 0 1 1 0-6.63z" fill="url(#a)"/></svg>