<svg viewBox="0 0 256 256" xmlns="http://www.w3.org/2000/svg"><path d="m90.7 129.43h31.52l6.65-28.15a3.32 3.32 0 0 1 6.47.06l7.66 35.33 3.48-20a3.32 3.32 0 0 1 6.39-.58l4.88 13.4 8.5.07a2.87 2.87 0 0 1 .77-.11h31.52l6.65-28.15a3.32 3.32 0 0 1 6.47.06l7.62 35.33 3.49-20a3.32 3.32 0 0 1 6.39-.57l4.84 13.33 6 .05v-38.84h-74.67v-74.66h-74.66v74.66h-74.67v74.67h74.67v74.67h74.66v-74.67h74.67v-29.2l-8.34-.07a3.3 3.3 0 0 1 -3.08-2.24l-1.43-3.82-4.28 24.56a3.31 3.31 0 0 1 -3.2 2.74h-.06a3.31 3.31 0 0 1 -3.23-2.61l-8.12-37.69-3.86 16.45a3.34 3.34 0 0 1 -3.23 2.55h-6.6a3.6 3.6 0 0 1 -1.37.31l-37.87-.3a3.33 3.33 0 0 1 -3.09-2.18l-1.42-3.83-4.27 24.55a3.32 3.32 0 0 1 -3.2 2.74h-.07a3.32 3.32 0 0 1 -3.24-2.61l-8.12-37.62-3.86 16.45a3.32 3.32 0 0 1 -3.22 2.55h-34.14a3.32 3.32 0 1 1 0-6.63z" fill="#fff"/></svg>