<svg viewBox="0 0 1366 1163.33" xmlns="http://www.w3.org/2000/svg"><path d="m337.28 393.29c-35.72 39.56-58.81 89.08-74.75 139.94-27.2 86.83-34.25 183-1 267.72s112.47 154.45 203.36 159.32c56.75 3 111.6-18.17 165.17-37.18 84-29.82 169.77-55.06 257.32-71.86 30.7-5.89 62.5-10.72 93-3.92a144.76 144.76 0 0 1 26 8.61c39.17 17 84.76-2.93 99.37-43 23.48-64.47 29.39-135.63 18.7-203.63-15.29-97.23-63-187.86-128.13-261.61-42-47.53-92.9-89.48-153.35-108.69s-131.56-12.47-180.11 28.34c-27.46 23.09-45.95 55-61.1 87.51-2.77 5.94-5.67 12.2-11 16s-12.41 4.49-19 4.05c-25.11-1.67-46.9-16.88-69.09-28.75s-49.45-20.7-71.94-9.41c.05-.06-57.73 16.99-93.45 56.56z" fill="#31c4c3" opacity=".54"/><path d="m770.68 166c-52.51-9.17-106.6 5.54-157 22.91-86.02 29.66-167.63 81.09-216.04 158.09s-57.53 182.19-7.52 258.2c31.24 47.48 80.87 79 128 110.86 73.82 49.94 145.05 103.99 210.53 164.48 23 21.21 187.16 159.9 335.5 47.2 78.37-59.54 113.81-162.17 134.49-258.39 13.33-62 16.87-127.88-3.56-187.93s-121.08-262.42-424.4-315.42z" fill="#31c4c3" opacity=".33"/><path d="m-101.28 566.15 269.95-.52-.45.27 30.42-54.96.53-.96.54.96 30.6 54.86-1.34.27 51.28-468.29 2.57.05 52.35 686.28-3.55-.09 31.95-247.09.61-4.66 2.75 3.81 19.83 27.45-3.32.6 47.23-170.84 2.03-7.36 1.71 7.45 36.65 160.13-3.13-1.14 32.02-24.41 1.73-1.33 1.17 1.85 18.29 28.98-1.65-.93 451.44 6.25-1.57.85 27.47-42.7 1.48-2.31 1.56 2.26 33.54 48.82-3.28.76 51.97-349.25 2.05-13.78 1.31 13.87 48.31 512.5-2.37-.09 33.74-186.04.36-1.97 1.37 1.46 22.84 24.44-1.61.35 42.92-131.09.66-2.01.72 1.98 47.07 129.72-.86-.15 22.92-27.42.33-.39.35.38 25.88 29.02-.3-.13 189.13-2.66-189.11 3.44h-.18l-.12-.13-25.97-28.94.68-.01-22.84 27.49-.56.68-.3-.83-47.49-129.56 1.38-.03-42.49 131.23-.5 1.54-1.11-1.18-22.91-24.37 1.72-.5-33.37 186.1-1.53 8.53-.83-8.63-49.3-512.41 3.36.09-51.74 349.28-.68 4.55-2.6-3.79-33.57-48.79 3.04-.05-27.44 42.71-.55.86-1.03-.01-451.45-5.96-1.08-.01-.57-.91-18.31-28.98 2.9.52-32.04 24.4-2.45 1.86-.68-3-36.56-160.15 3.75.08-47.34 170.8-1.04 3.76-2.28-3.16-19.82-27.46 3.35-.85-32.11 247.07-2.24 17.25-1.29-17.35-51.37-686.36 2.57.04-52.43 468.17-.25 2.23-1.09-1.96-30.41-54.96h1.07l-30.59 54.86-.15.26h-.3z" fill="#fff" opacity=".37"/><g fill="#f2d4a2"><path d="m894.28 975.34c-5.92-8.27-18-11.91-29.32-13.27s-23.16-1.07-34-4.24c-15.23-4.46-38.86-104.38-21.09-112.35 6.07-2.71 13.48-3.87 17.86-8.33 7.87-8 3.81-26.19-4.48-33.25-11.61-9.89-34-15.33-49.57-18.24a97.34 97.34 0 0 0 -34.27 0c-15.58 2.91-38 8.35-49.56 18.24-8.29 7.06-12.34 25.23-4.49 33.25 4.38 4.46 11.79 5.62 17.86 8.33 17.78 8-5.84 107.89-21.09 112.35-10.85 3.17-22.64 2.89-34 4.24s-23.42 5-29.34 13.27c-4.79 6.66-4.61 14.95-3.65 22.66 20.53 3.16 262.24 3.16 282.78 0 1-7.72 1.13-16-3.64-22.67z"/><path d="m894.28 975.34c-2.83-4-7.09-6.86-12-9 3.06 6.11 2.82 13.24 2 19.93-18.38 2.83-214 3.13-269.55.89a52.71 52.71 0 0 0 .4 10.8c20.54 3.16 262.25 3.16 282.79 0 .96-7.67 1.13-15.96-3.64-22.62z"/><path d="m814.08 825.46c-4.38 4.46-11.79 5.62-17.86 8.34-17.78 8 5.85 107.88 21.09 112.34 1.63.48 3.28.87 4.94 1.21-13.67-26.78-27-95.33-12.4-101.87 6.07-2.71 13.48-3.87 17.86-8.33 7.87-8 3.81-26.19-4.48-33.25a48.09 48.09 0 0 0 -9-5.88c4.84 8.52 6.04 21.13-.15 27.44z"/><path d="m955.54 465 85.07-4a36.15 36.15 0 0 1 37.81 36.32c-.18 36.72-4.48 92-25.85 128.61-34.84 59.62-146 98.6-146 98.6l2.76-40.53s91-21.87 117.53-73.24c13.92-26.94 19-51.38 20.28-70.61a36.1 36.1 0 0 0 -40.59-38.15l-55.17 7z"/><path d="m548.89 465-85.07-4a36.15 36.15 0 0 0 -37.82 36.41c.18 36.72 4.47 92 25.85 128.61 34.83 59.62 146 98.6 146 98.6l-2.75-40.62s-91-21.87-117.53-73.24c-13.92-26.94-19-51.38-20.29-70.61a36.09 36.09 0 0 1 40.59-38.15l55.13 7-4.14-44z"/><path d="m996.81 494.25-44.56 5.62-.87 9.13 55.17-7a35.91 35.91 0 0 1 21.92 4.17 36.07 36.07 0 0 0 -31.66-11.92z"/><path d="m1059.62 465.49a36.08 36.08 0 0 1 9.06 24.13c-.18 36.72-4.47 92-25.85 128.61-28.29 48.41-106.91 83.21-135.48 94.59l-.81 11.8s111.19-39 146-98.6c21.37-36.59 25.67-91.89 25.85-128.61a36.18 36.18 0 0 0 -18.77-31.92z"/><path d="m507.61 493.71 44.57 5.62.86 9.12-55.16-6.95a36 36 0 0 0 -21.88 4.17 36.06 36.06 0 0 1 31.61-11.96z"/><path d="m444.81 465a36 36 0 0 0 -9.06 24.13c.18 36.72 4.47 92 25.85 128.61 28.28 48.41 106.9 83.21 135.47 94.59l.82 11.8s-111.19-39-146-98.6c-21.38-36.59-25.67-91.89-25.85-128.61a36.15 36.15 0 0 1 18.77-31.92z"/><path d="m974.72 394.49h-436.39s-8.84 255.43 38.34 335.86c33.71 57.49 111.12 82.17 152.53 91.57a123.28 123.28 0 0 0 54.66 0c41.42-9.4 118.81-34.09 152.53-91.57 47.18-80.43 38.33-335.86 38.33-335.86"/><path d="m974.72 394.49h-19.13c1 53.95 1.95 253-38.68 322.23-33.71 57.48-111.11 82.16-152.52 91.57a123.28 123.28 0 0 1 -54.66 0c-25.18-5.72-63.66-17.08-97.54-38 37.56 29.85 86.84 44.81 117 51.66a123.28 123.28 0 0 0 54.66 0c41.42-9.4 118.81-34.09 152.53-91.57 47.19-80.46 38.34-335.89 38.34-335.89z"/></g><path d="m555.71 415.38h419.48c-.2-13.17-.47-20.89-.47-20.89h-436.39s-8.84 255.43 38.34 335.86a135.77 135.77 0 0 0 21.58 27.55c-1.46-2.17-2.87-4.39-4.2-6.66-47.18-80.43-38.34-335.86-38.34-335.86z" fill="#f8e9d0"/><rect fill="#424242" height="41.94" rx="11.99" transform="matrix(.92314313 .38445645 -.38445645 .92314313 345.03 -76.89)" width="537.61" x="96.04" y="803.67"/><rect fill="#b0b1b3" height="165.89" rx="24.6" transform="matrix(.92314313 .38445645 -.38445645 .92314313 297.38 -6)" width="49.2" x="139.11" y="657.94"/><rect fill="#b0b1b3" height="238.77" rx="39.6" transform="matrix(.92314313 .38445645 -.38445645 .92314313 311.42 -26.89)" width="79.19" x="183.37" y="646.17"/><rect fill="#b0b1b3" height="165.89" rx="24.6" transform="matrix(-.92314313 -.38445645 .38445645 -.92314313 753.78 1974.3)" width="49.2" x="549.61" y="828.87"/><rect fill="#b0b1b3" height="238.77" rx="39.6" transform="matrix(-.92314313 -.38445645 .38445645 -.92314313 649.29 1904.06)" width="79.19" x="475.35" y="767.75"/><path d="m287.72 671.82a39.36 39.36 0 0 1 -1.14 27.18l-61.34 147.33a39.72 39.72 0 0 1 -51.78 21.33 39.4 39.4 0 0 1 -18.85-16.47 39.55 39.55 0 0 0 22.47 24.58 39.7 39.7 0 0 0 51.77-21.33l61.35-147.32a39.62 39.62 0 0 0 -2.48-35.3z" fill="#b0b1b3"/><path d="m579.69 793.4a39.41 39.41 0 0 1 -1.13 27.19l-61.35 147.32a39.71 39.71 0 0 1 -51.77 21.33 39.38 39.38 0 0 1 -18.86-16.47 39.55 39.55 0 0 0 22.47 24.58 39.71 39.71 0 0 0 51.78-21.35l61.34-147.3a39.58 39.58 0 0 0 -2.48-35.3z" fill="#b0b1b3"/><path d="m616.9 844.07a24.4 24.4 0 0 1 -1.17 15.22l-44.86 107.71a24.66 24.66 0 0 1 -32.16 13.25 24.35 24.35 0 0 1 -10.81-8.82 24.57 24.57 0 0 0 46.59 3.69l44.85-107.73a24.6 24.6 0 0 0 -2.44-23.32z" fill="#b0b1b3"/><path d="m206.4 673.13a24.44 24.44 0 0 1 -1.17 15.23l-44.86 107.73a24.66 24.66 0 0 1 -32.16 13.25 24.42 24.42 0 0 1 -10.81-8.82 24.58 24.58 0 0 0 46.6 3.68l44.85-107.72a24.62 24.62 0 0 0 -2.45-23.35z" fill="#b0b1b3"/><path d="m166.72 685.54a24.66 24.66 0 0 1 32.16-13.25 24.45 24.45 0 0 1 11.26 9.51 24.62 24.62 0 0 0 -14.55-17.49 24.67 24.67 0 0 0 -32.16 13.25l-44.86 107.73a24.63 24.63 0 0 0 2 22.66 24.5 24.5 0 0 1 1.3-14.68z" fill="#e0e0e0"/><path d="m220.38 684.66a39.7 39.7 0 0 1 51.77-21.33 39.33 39.33 0 0 1 19.48 17.59 39.57 39.57 0 0 0 -22.77-25.57 39.7 39.7 0 0 0 -51.77 21.33l-61.35 147.32a39.55 39.55 0 0 0 1.86 34.18 39.32 39.32 0 0 1 1.4-26.18z" fill="#e0e0e0"/><path d="m577.22 856.48a24.56 24.56 0 0 1 43.42-3.75 24.57 24.57 0 0 0 -46.71-4.23l-44.86 107.72a24.6 24.6 0 0 0 2 22.66 24.36 24.36 0 0 1 1.3-14.68z" fill="#e0e0e0"/><path d="m512.35 806.24a39.7 39.7 0 0 1 51.78-21.33 39.34 39.34 0 0 1 19.47 17.59 39.56 39.56 0 0 0 -22.76-25.57 39.7 39.7 0 0 0 -51.78 21.33l-61.34 147.32a39.55 39.55 0 0 0 1.85 34.18 39.38 39.38 0 0 1 1.43-26.2z" fill="#e0e0e0"/><rect fill="#616161" height="8.7" rx="4.35" transform="matrix(.92314313 .38445645 -.38445645 .92314313 341.96 -78.45)" width="201.82" x="266.31" y="811.82"/><path d="m1221.56 636.25 16.19 71.85a4.3 4.3 0 0 1 -5.48 5l-70.27-21.86-70.32-21.9a4.3 4.3 0 0 1 -1.64-7.27l54.13-49.94 54.13-50a4.3 4.3 0 0 1 7.11 2.22z" fill="#133f7a"/><path d="m1168.93 652.08 14.31-56.62 15.59 4.86-20.46 54.68zm-9.52 19.9 4-13 15.59 4.85-4 13z" fill="#fff"/><path d="m784.54 181.81 22.84 39.77a4.31 4.31 0 0 1 -3.74 6.45l-45.87-.12-45.87-.11a4.3 4.3 0 0 1 -3.71-6.46l23-39.67 23-39.66a4.3 4.3 0 0 1 7.45 0z" fill="#ffe082"/><path d="m754.55 202-2-38.34h10.73l-2.23 38.34zm-2.12 14.35v-9h10.74v9z" fill="#fff"/><path d="m366.16 511.48 49.59 36.58a4.31 4.31 0 0 1 -.83 7.41l-56.48 24.65-56.44 24.66a4.3 4.3 0 0 1 -6-4.43l6.89-61.24 6.89-61.24a4.3 4.3 0 0 1 6.83-3z" fill="#c60a2a"/><path d="m341.09 551-22.35-44.44 12.75-5.56 17.32 46.63zm5 18.13-4.64-10.64 12.75-5.56 4.64 10.64z" fill="#fff"/><path d="m882.23 928.66c7.2 4.15 9.46 9.9 6.4 14.34 40.46 14.63 98.85 9.61 139.06-13.58l72.77-42c18.22-10.51 20.2-26.42 4.43-35.52l-86.09-49.66c-15.77-9.1-43.36-8-61.57 2.55l-73.18 42.21c-38.81 22.39-48.11 54.6-25.6 77.71a36.82 36.82 0 0 1 23.78 3.95z" fill="#8aa2bc"/><path d="m1010.74 819.63c-14.59-8.41-36.69-9.33-49.33-2l-60.85 35.07c-12.64 7.28-11 20 3.54 28.45l52.9 30.5c14.58 8.41 36.69 9.33 49.32 2l60.85-35.11c12.64-7.28 11-20-3.54-28.45z" fill="#c6d6e5" fill-rule="evenodd"/><path d="m960.4 928.43c-.3 2.93-2.36 5.81-6.23 8-8.38 4.83-22 4.83-30.38 0-3.93-2.27-6-5.2-6.24-8.17v3.53.85c.25 3 2.32 5.89 6.24 8.15 8.38 4.84 22 4.84 30.38 0 3.94-2.27 6-5.21 6.24-8.19v-.78-3.43z" fill="#426595"/><path d="m923.79 936.47c8.38 4.83 22 4.83 30.38 0 3.87-2.23 5.93-5.11 6.23-8 .34-3.41-1.72-6.88-6.23-9.49-8.38-4.83-22-4.83-30.38 0-4.45 2.57-6.52 6-6.24 9.36.25 2.93 2.31 5.86 6.24 8.13z" fill="#c6d6e5"/><path d="m897.92 896v-4.24c-.06 3.13-2.14 6.24-6.27 8.63-8.39 4.83-22 4.83-30.38 0-4.06-2.34-6.13-5.39-6.27-8.46v4a1.21 1.21 0 0 0 0 .19v.22c.14 3.07 2.21 6.11 6.27 8.45 8.38 4.83 22 4.83 30.38 0 3.83-2.22 5.89-5.06 6.22-8h.06v-.79z" fill="#426595"/><path d="m861.26 900.4c8.38 4.83 22 4.83 30.38 0 4.13-2.39 6.21-5.5 6.27-8.63s-2-6.45-6.27-8.9c-8.39-4.84-22-4.84-30.38 0-4.33 2.5-6.41 5.8-6.27 9.07.14 3.06 2.21 6.12 6.27 8.46z" fill="#c6d6e5"/><path d="m865.01 885.03 22.87 4.4-15.25 8.8z" fill="#426595" fill-rule="evenodd"/><path d="m950.41 934.3-22.87-4.4 15.25-8.79z" fill="#426595" fill-rule="evenodd"/><path d="m876.45 941.74h-.02l.02.01z" fill="#b0bec5"/><path d="m861.61 924.32a36.68 36.68 0 0 1 5.55 0l.6.05c.94.08 1.89.18 2.83.33.92.14 1.83.34 2.74.55l.64.16c.91.23 1.81.48 2.69.78.86.29 1.7.63 2.52 1l.62.28c.82.37 1.62.77 2.39 1.21.47.28.92.56 1.36.85l.42.3c.28.19.55.38.8.57s.32.26.47.39.43.34.62.52l.47.43c.17.17.34.33.49.5s.3.31.44.47l.39.46.4.53.29.42c.12.19.25.38.36.58s.13.23.19.34.23.44.32.66l.09.21a7.21 7.21 0 0 1 -.71 7.11c40.46 14.63 98.85 9.61 139.06-13.58l72.77-42c18.22-10.51 20.2-26.42 4.43-35.52l-86.09-49.66c-15.77-9.1-43.36-8-61.57 2.55l-73.14 42.19c-38.81 22.39-48.11 54.6-25.6 77.71.85-.16 1.73-.27 2.62-.36z" fill="none"/><path d="m828.93 908.44h-.21v39.85h.28c.08.75.2 1.5.33 2.24l18.11-10.44c-11.23-9.32-17.36-20.23-18.51-31.65z" fill="#426595"/><path d="m1131.46 873.69c-1.25 6.95-6.86 14-16.69 19.69l-81.93 47.26c-44.84 25.88-109.84 31.66-155.3 15.74-2.65 1.46-8.22.32-14.67-3.41l-.25-.15-26.07 15c5 7.17 12.32 13.78 22.14 19.44 44.61 25.74 122.64 22.51 174.15-7.21l81.93-47.26c10.87-6.27 16.6-14.25 16.94-21.9z" fill="#426595"/><path d="m847.41 940.05.85-.49v-.07a8.94 8.94 0 0 1 -1.67-4.73c0-.07 0-.14 0-.2a7.82 7.82 0 0 1 2.92-5.88 1.92 1.92 0 0 0 .17-.13c.26-.22.53-.44.83-.66a13.08 13.08 0 0 1 1.17-.75 15.64 15.64 0 0 1 1.53-.78l.16-.06c.48-.21 1-.42 1.5-.6h.05a24.62 24.62 0 0 1 3.6-.94c-22.51-23.11-13.21-55.32 25.6-77.71l73.18-42.21c18.21-10.5 45.8-11.65 61.57-2.55l86.09 49.66c15.77 9.1 13.79 25-4.43 35.52l-72.77 42c-40.21 23.19-98.6 28.21-139.06 13.58a6.13 6.13 0 0 1 -.5.67 8.37 8.37 0 0 1 -.64.71h-.06c-.19.19-.4.37-.62.55l-.63.48-.3.23a36.33 36.33 0 0 0 -5.7 6.44 10.08 10.08 0 0 0 -1.25 2.57 3.05 3.05 0 0 1 -1.46 1.68c45.46 15.92 110.46 10.14 155.3-15.74l81.93-47.26c9.83-5.67 15.44-12.74 16.69-19.69 1.34-7.55-2.47-15-11.71-20.3l-96.91-55.9c-17.76-10.24-48.82-9-69.33 2.87l-82.38 47.52c-30 17.28-44.29 39.76-42.2 60.56 1.15 11.42 7.28 22.33 18.48 31.61z" fill="#718caf"/><g fill="#e0e0e0"><path d="m874 925.4-.64-.16z"/><path d="m879 954.7a10.08 10.08 0 0 1 1.19-2.58 36.33 36.33 0 0 1 5.7-6.44l.3-.23c3.11-4.44.86-10.22-6.36-14.39-9.19-5.3-22.91-6-30.63-1.53-.47.27-.9.56-1.31.85a10.26 10.26 0 0 1 1.55-1.72 7.82 7.82 0 0 0 -2.92 5.88v.2a8.94 8.94 0 0 0 1.67 4.73v.07l15.15-8.75v-1.53l16.73 9.44v1.74 2.23l-17.52 10.11.25.15c6.45 3.73 12 4.87 14.67 3.41a3.05 3.05 0 0 0 1.53-1.64z"/><path d="m861.61 924.32h-.54z"/><path d="m867.76 924.35-.6-.05z"/><path d="m886.37 931.72.49.5c-.15-.17-.32-.33-.49-.5z"/><path d="m887.69 933.15-.39-.46z"/><path d="m885.9 931.29c-.19-.18-.41-.35-.62-.52.21.17.43.34.62.52z"/><path d="m889.34 935.89-.09-.21z"/><path d="m884.81 930.38c-.25-.19-.52-.38-.8-.57.28.19.55.38.8.57z"/><path d="m888.38 934.1-.29-.42z"/><path d="m886.83 945-.63.48z"/><path d="m888.93 935c-.06-.11-.12-.23-.19-.34.07.13.13.25.19.34z"/><path d="m883.59 929.51c-.44-.29-.89-.57-1.36-.85.47.28.92.56 1.36.85z"/><path d="m879.84 927.45-.62-.28z"/><path d="m853.14 926.34.16-.06z"/><path d="m849.61 928.53c.26-.22.53-.44.83-.66-.3.22-.57.44-.83.66z"/><path d="m888.13 943.67c-.2.24-.41.48-.64.71a8.37 8.37 0 0 0 .64-.71z"/><path d="m876.67 926.18c-.88-.3-1.78-.55-2.69-.78.91.23 1.81.48 2.69.78z"/><path d="m882.23 928.66c-.77-.44-1.57-.84-2.39-1.21.82.37 1.62.77 2.39 1.21z"/><path d="m873.34 925.24c-.91-.21-1.82-.41-2.74-.55.92.14 1.83.31 2.74.55z"/><path d="m879.22 927.17c-.82-.35-1.66-.69-2.52-1 .86.31 1.7.65 2.52 1z"/><path d="m889.25 935.68c-.09-.22-.21-.44-.32-.66.07.22.23.44.32.66z"/><path d="m888.74 934.68c-.11-.2-.24-.39-.36-.58.12.19.25.38.36.58z"/><path d="m861.61 924.32a36.68 36.68 0 0 1 5.55 0 36.68 36.68 0 0 0 -5.55 0z"/><path d="m870.59 924.68c-.94-.15-1.89-.25-2.83-.33.94.08 1.89.18 2.83.33z"/><path d="m889.34 935.89a7.23 7.23 0 0 1 -.71 7.11 7.21 7.21 0 0 0 .71-7.11z"/><path d="m885.28 930.77c-.15-.13-.3-.26-.47-.39.19.13.32.26.47.39z"/><path d="m886.37 931.72-.47-.43z"/><path d="m888.09 933.68-.4-.53z"/><path d="m886.86 932.22c.15.15.3.31.44.47-.14-.16-.3-.32-.44-.47z"/><path d="m861.07 924.37c-.89.09-1.77.2-2.62.36.85-.16 1.73-.27 2.62-.36z"/><path d="m884 929.81-.42-.3z"/></g><path d="m886.19 945.46.01-.01h-.01z" fill="#80deea"/><path d="m886.19 945.46.01-.01h-.01z" fill="#e0e0e0"/><path d="m887.45 944.42c-.19.19-.4.37-.62.55.22-.18.43-.36.62-.55z" fill="#80deea"/><path d="m887.45 944.42c-.19.19-.4.37-.62.55.22-.18.43-.36.62-.55z" fill="#e0e0e0"/><path d="m858.45 924.73a24.62 24.62 0 0 0 -3.6.94 24.62 24.62 0 0 1 3.6-.94z" fill="#80deea"/><path d="m858.45 924.73a24.62 24.62 0 0 0 -3.6.94 24.62 24.62 0 0 1 3.6-.94z" fill="#e0e0e0"/><path d="m888.13 943.67a6.13 6.13 0 0 0 .5-.67 7.76 7.76 0 0 1 -.5.67z" fill="#80deea"/><path d="m888.13 943.67a6.13 6.13 0 0 0 .5-.67 7.76 7.76 0 0 1 -.5.67z" fill="#e0e0e0"/><path d="m849.44 928.66a1.92 1.92 0 0 0 .17-.13 1.92 1.92 0 0 1 -.17.13z" fill="#80deea"/><path d="m849.44 928.66a1.92 1.92 0 0 0 .17-.13 1.92 1.92 0 0 1 -.17.13z" fill="#e0e0e0"/><path d="m851.61 927.12a15.64 15.64 0 0 1 1.53-.78 15.64 15.64 0 0 0 -1.53.78z" fill="#80deea"/><path d="m851.61 927.12a15.64 15.64 0 0 1 1.53-.78 15.64 15.64 0 0 0 -1.53.78z" fill="#e0e0e0"/><path d="m853.3 926.28c.48-.21 1-.42 1.5-.6-.52.18-1.02.39-1.5.6z" fill="#80deea"/><path d="m853.3 926.28c.48-.21 1-.42 1.5-.6-.52.18-1.02.39-1.5.6z" fill="#e0e0e0"/><path d="m850.44 927.87a13.08 13.08 0 0 1 1.17-.75 13.08 13.08 0 0 0 -1.17.75z" fill="#80deea"/><path d="m850.44 927.87a13.08 13.08 0 0 1 1.17-.75 13.08 13.08 0 0 0 -1.17.75z" fill="#e0e0e0"/><path d="m847.89 930.38c.41-.29.84-.58 1.31-.85 7.72-4.45 21.44-3.77 30.63 1.53 7.22 4.17 9.47 10 6.36 14.39l.63-.48c.22-.18.43-.36.62-.55h.06c.23-.23.44-.47.64-.71a7.76 7.76 0 0 0 .5-.67 7.23 7.23 0 0 0 .71-7.11l-.09-.21c-.09-.22-.21-.44-.32-.66s-.12-.23-.19-.34-.24-.39-.36-.58l-.29-.42-.4-.53-.39-.46c-.14-.16-.29-.32-.44-.47l-.49-.5-.47-.43c-.19-.18-.41-.35-.62-.52s-.3-.26-.47-.39-.52-.38-.8-.57l-.42-.3c-.44-.29-.89-.57-1.36-.85-.77-.44-1.57-.84-2.39-1.21l-.62-.28c-.82-.35-1.66-.69-2.52-1-.88-.3-1.78-.55-2.69-.78l-.64-.16c-.91-.21-1.82-.41-2.74-.55-.94-.15-1.89-.25-2.83-.33l-.6-.05a36.68 36.68 0 0 0 -5.55 0h-.54c-.89.09-1.77.2-2.62.36a24.62 24.62 0 0 0 -3.6.94h-.05c-.52.18-1 .39-1.5.6l-.16.06a15.64 15.64 0 0 0 -1.53.78 13.08 13.08 0 0 0 -1.17.75c-.3.22-.57.44-.83.66a1.92 1.92 0 0 1 -.17.13 10.26 10.26 0 0 0 -1.6 1.76z" fill="#e0e0e0"/><path d="m847.89 930.38c.41-.29.84-.58 1.31-.85 7.72-4.45 21.44-3.77 30.63 1.53 7.22 4.17 9.47 10 6.36 14.39l.63-.48c.22-.18.43-.36.62-.55h.06c.23-.23.44-.47.64-.71a7.76 7.76 0 0 0 .5-.67 7.23 7.23 0 0 0 .71-7.11l-.09-.21c-.09-.22-.21-.44-.32-.66s-.12-.23-.19-.34-.24-.39-.36-.58l-.29-.42-.4-.53-.39-.46c-.14-.16-.29-.32-.44-.47l-.49-.5-.47-.43c-.19-.18-.41-.35-.62-.52s-.3-.26-.47-.39-.52-.38-.8-.57l-.42-.3c-.44-.29-.89-.57-1.36-.85-.77-.44-1.57-.84-2.39-1.21l-.62-.28c-.82-.35-1.66-.69-2.52-1-.88-.3-1.78-.55-2.69-.78l-.64-.16c-.91-.21-1.82-.41-2.74-.55-.94-.15-1.89-.25-2.83-.33l-.6-.05a36.68 36.68 0 0 0 -5.55 0h-.54c-.89.09-1.77.2-2.62.36a24.62 24.62 0 0 0 -3.6.94h-.05c-.52.18-1 .39-1.5.6l-.16.06a15.64 15.64 0 0 0 -1.53.78 13.08 13.08 0 0 0 -1.17.75c-.3.22-.57.44-.83.66a1.92 1.92 0 0 1 -.17.13 10.26 10.26 0 0 0 -1.6 1.76z" fill="#e0e0e0"/><path d="m863.41 929.28v1.53l16.72 9.65.01-1.74z" fill="#e0e0e0"/><path d="m863.41 929.28v1.53l16.72 9.65.01-1.74z" fill="#e0e0e0"/><path d="m880.14 942.71-.02-.01.01-.01v-2.23l-65.66 37.89-16.73-9.65v-.01 2.28l16.72 9.65v-.02h.01l22.08-12.74 26.07-15.04z" fill="#b0bec5"/><path d="m814.47 978.35 65.66-37.89h.01-.01l-16.72-9.65-15.15 8.75-.85.49-18.11 10.44-31.56 18.21z" fill="#cfd8dc"/><path d="m1063.6 850.13-52.86-30.5c-8.58-4.94-19.74-7.28-30.06-6.9 8.88.39 18 2.72 25.25 6.9l52.87 30.5c14.59 8.42 16.17 21.17 3.54 28.45l-60.85 35.11c-5.21 3-12 4.59-19.27 4.86 9 .39 17.72-1.2 24.07-4.86l60.85-35.11c12.64-7.28 11.05-20.03-3.54-28.45z" fill="#c6d6e5"/><path d="m1104.89 851.92-86.09-49.66c-7.71-4.45-18.26-6.44-29.15-6.1 9.15.3 17.77 2.31 24.35 6.1l86.08 49.66c15.77 9.1 13.79 25-4.42 35.52l-72.78 42c-24.42 14.09-55.55 21.47-85.3 21.82 31.17.43 64.37-7 90.11-21.82l72.77-42c18.22-10.51 20.2-26.44 4.43-35.52z" fill="#8aa2bc"/><path d="m381.4 715.79h28.34a23.74 23.74 0 0 1 23.74 23.74v12.6a0 0 0 0 1 0 0h-75.83a0 0 0 0 1 0 0v-12.6a23.74 23.74 0 0 1 23.75-23.74z" fill="#757575"/><path d="m433.48 735.62c0-11-12.73-19.83-28.43-19.83h-19c-9 0-17 2.9-22.17 7.44a36.5 36.5 0 0 1 17.76-4.37h19c15.7 0 28.43 8.88 28.43 19.83v13.44h4.41z" fill="#757575"/><path d="m375.73 738.86h39.68a18.07 18.07 0 0 1 18.07 18.07v208.44a35 35 0 0 1 -35 35h-5.81a35 35 0 0 1 -35-35v-208.44a18.07 18.07 0 0 1 18.06-18.07z" fill="#e0f7fa"/><path d="m290.4 858.58h190a20.37 20.37 0 0 1 20.34 20.42v7a20.37 20.37 0 0 1 -20.37 20.37h-159.37a30.56 30.56 0 0 1 -30.56-30.56v-17.23a0 0 0 0 1 0 0z" fill="#f44336" transform="matrix(0 1 -1 0 1278.01 486.88)"/><path d="m280.81 838.68h212.43a26.11 26.11 0 0 1 26.11 26.11v5.36a26.11 26.11 0 0 1 -26.11 26.11h-212.43a9 9 0 0 1 -9-9v-39.55a9 9 0 0 1 9-9z" fill="#e0f7fa" transform="matrix(0 1 -1 0 1263.04 471.9)"/><rect fill="#e0f7fa" height="18.27" rx="9.13" width="105.47" x="342.83" y="738.86"/><path d="m357.65 759.9h75.83" fill="#80deea" stroke="#b2ebf2" stroke-miterlimit="10" stroke-width="5.47"/><rect fill="#fff" height="84.27" opacity=".58" rx="6.64" width="15.51" x="365.01" y="766.9"/><path d="m401.38 815.76h26.34v133.36h-26.34z" fill="#eee"/><path d="m401.38 815.76h26.34v9.88h-26.34z" fill="#ffee58"/><path d="m424.08 815.76v129.72h-22.7v3.64h26.34v-133.36z" fill="#eee"/><rect fill="#e0f7fa" height="179.68" rx="18.41" width="120.6" x="251.25" y="820.7"/><rect fill="#e0f7fa" height="105.26" rx="10.74" transform="matrix(0 1 -1 0 1222.09 598.99)" width="164.34" x="229.38" y="857.91"/><rect fill="#1565c0" height="28.09" rx="14.04" width="145.84" x="238.63" y="817.85"/><path d="m251.25 848.71h120.6" fill="#80deea" stroke="#b2ebf2" stroke-miterlimit="10" stroke-width="5.47"/><path d="m339.96 876h31.89v98.49h-31.89z" fill="#eee"/><path d="m339.96 876h31.89v21.83h-31.89z" fill="#ffee58"/><path d="m368.13 876v92.35h-28.17v6.14h31.89v-98.49z" fill="#eee"/><path d="m378.68 820.57a13.92 13.92 0 0 1 2.72 8.25 14.09 14.09 0 0 1 -14 14h-117.79a13.93 13.93 0 0 1 -8.26-2.72 14 14 0 0 0 11.32 5.79h117.76a14.09 14.09 0 0 0 14-14.05 14 14 0 0 0 -5.75-11.27z" fill="#1565c0"/><path d="m672.12 743.28q-3.37-4.83-3.37-14.67v-27.35q0-8.79 3.92-13.31t11.68-4.5q6.28 0 9.76 2.51a12.88 12.88 0 0 1 4.8 7.32 47.25 47.25 0 0 1 1.33 12.34h-12.41v-5.69a8.09 8.09 0 0 0 -.63-3.55 2.29 2.29 0 0 0 -2.26-1.25c-2.41 0-3.62 1.57-3.62 4.73v30.75a10.13 10.13 0 0 0 .74 4.36 3 3 0 0 0 5.17 0 10 10 0 0 0 .74-4.36v-9.09h-3.4v-10.95h15.53v37h-5.1l-2.15-5.33a11.26 11.26 0 0 1 -10.49 5.92q-6.89-.03-10.24-4.88z" fill="#e5a845"/><path d="m708.6 743.43q-4-4.7-4-13.19v-30.24q0-8.21 4-12.38t11.68-4.17q7.68 0 11.68 4.17t4.04 12.38v30.24c0 5.71-1.33 10.13-4 13.23s-6.56 4.66-11.68 4.66-9.06-1.57-11.72-4.7zm14-8.46a11.65 11.65 0 0 0 .59-4.14v-31.05a8.59 8.59 0 0 0 -.56-3.36 2.19 2.19 0 0 0 -2.25-1.29q-3.18 0-3.18 4.8v31a9.87 9.87 0 0 0 .67 4.14 2.45 2.45 0 0 0 2.44 1.41 2.26 2.26 0 0 0 2.26-1.48z" fill="#e5a845"/><path d="m739.35 747.54 6.13-63.5h21.52l6.07 63.5h-12.07l-.89-10.28h-7.69l-.74 10.28zm14-20.41h5.77l-2.81-32.3h-.59z" fill="#e5a845"/><path d="m776.9 747.54v-63.54h12.71v52.7h13.09v10.8z" fill="#e5a845"/><path d="m808.83 743.84q-3.83-4.29-3.83-13.84v-6.21h12.49v7.91q0 4.72 3 4.73a2.67 2.67 0 0 0 2.37-1 6.38 6.38 0 0 0 .66-3.36 15.28 15.28 0 0 0 -.74-5.14 11.14 11.14 0 0 0 -1.88-3.4q-1.15-1.37-4.11-4.25l-5.47-5.47q-6.32-6.19-6.32-13.73 0-8.13 3.73-12.38t10.9-4.25q8.58 0 12.35 4.54t3.77 14.23h-12.95l-.07-4.36a2.83 2.83 0 0 0 -.7-2 2.59 2.59 0 0 0 -2-.73 2.85 2.85 0 0 0 -2.22.81 3.18 3.18 0 0 0 -.74 2.22q0 3.11 3.55 6.43l7.39 7.09a44 44 0 0 1 4.29 4.77 18.91 18.91 0 0 1 2.73 5.32 22.89 22.89 0 0 1 1 7.28q0 9.39-3.44 14.23t-11.35 4.85q-8.56 0-12.41-4.29z" fill="#e5a845"/></svg>