<svg viewBox="0 0 1366 1163.33" xmlns="http://www.w3.org/2000/svg" xmlns:xlink="http://www.w3.org/1999/xlink"><pattern id="a" height="42.18" patternTransform="translate(453.79 -42.18)" patternUnits="userSpaceOnUse" viewBox="0 0 42.18 42.18" width="42.18"><path d="m0 0h42.18v42.18h-42.18z" fill="none"/><path d="m.5.5h41.18v41.18h-41.18z" fill="none" stroke="#fff" stroke-miterlimit="10"/></pattern><clipPath id="b"><rect height="813.45" rx="12" width="471.02" x="744.89" y="210.68"/></clipPath><clipPath id="c"><path d="m992.27 428.5s-3.19 18.85-24.62 28.95l51.24 52.82 42.86-52.27s-29.36-15.36-27.52-30.77z"/></clipPath><clipPath id="d"><path d="m960.79 288.84s30.63-50.4 99.21-35.92a96.28 96.28 0 0 0 25.22 2.06l15.12-.84a46.55 46.55 0 0 1 -17.71 36.6c-10 7.89-23.32 15.59-37.19 15.81 0 0-41.66 7.78-84.65-17.71z"/></clipPath><clipPath id="e"><path d="m949.5 615.37-9.39-2.45s-13.47-13.06-55.92 1.23l-7.47 3.28-11.92 26.87 47.14 14.34 25.31-12.64z"/></clipPath><path d="m0 2.51h1366v1163.33h-1366z" fill="url(#a)" opacity=".0957"/><path d="m337.28 393.29c-35.72 39.56-58.81 89.08-74.75 139.94-27.2 86.83-34.25 183-1 267.72s112.47 154.45 203.36 159.32c56.75 3 111.6-18.17 165.17-37.18 84-29.82 169.77-55.06 257.32-71.86 30.7-5.89 62.5-10.72 93-3.92a144.76 144.76 0 0 1 26 8.61c39.17 17 84.76-2.93 99.37-43 23.48-64.47 29.39-135.63 18.7-203.63-15.29-97.23-63-187.86-128.13-261.61-42-47.53-92.9-89.48-153.35-108.69s-131.56-12.47-180.11 28.34c-27.46 23.09-45.95 55-61.1 87.51-2.77 5.94-5.67 12.2-11 16s-12.41 4.49-19 4.05c-25.11-1.67-46.9-16.88-69.09-28.75s-49.45-20.7-71.94-9.41c.05-.06-57.73 16.99-93.45 56.56z" fill="#31c4c3" opacity=".54"/><path d="m770.68 166c-52.51-9.17-106.6 5.54-157 22.91-86.02 29.66-167.63 81.09-216.04 158.09s-57.53 182.19-7.52 258.2c31.24 47.48 80.87 79 128 110.86 73.82 49.94 145.05 103.99 210.53 164.48 23 21.21 187.16 159.9 335.5 47.2 78.37-59.54 113.81-162.17 134.49-258.39 13.33-62 16.87-127.88-3.56-187.93s-121.08-262.42-424.4-315.42z" fill="#31c4c3" opacity=".33"/><path d="m-126.1 688.79 269.95-.52-.45.27 30.42-54.96.53-.97.54.97 30.6 54.86-1.34.27 51.28-468.29 2.57.04 52.35 686.29-3.54-.09 31.94-247.09.61-4.66 2.75 3.81 19.83 27.45-3.32.59 47.23-170.83 2.03-7.37 1.71 7.45 36.66 160.13-3.14-1.13 32.02-24.41 1.73-1.33 1.17 1.85 18.3 28.98-1.66-.93 451.45 6.25-1.58.85 27.47-42.7 1.49-2.31 1.55 2.26 33.54 48.82-3.28.76 51.97-349.25 2.05-13.78 1.31 13.87 48.31 512.5-2.36-.09 33.73-186.04.36-1.97 1.37 1.46 22.84 24.44-1.61.35 42.92-131.09.66-2.02.72 1.99 47.07 129.72-.86-.15 22.92-27.42.33-.4.35.39 25.88 29.02-.3-.13 189.13-2.66-189.11 3.43-.18.01-.12-.13-25.97-28.94.68-.01-22.83 27.49-.57.68-.3-.83-47.49-129.56 1.38-.03-42.49 131.23-.5 1.54-1.11-1.18-22.91-24.37 1.72-.51-33.37 186.11-1.53 8.53-.83-8.63-49.3-512.41 3.36.09-51.74 349.28-.68 4.54-2.6-3.78-33.57-48.8 3.04-.04-27.44 42.71-.55.86-1.02-.01-451.45-5.96-1.08-.01-.58-.91-18.31-28.98 2.9.52-32.04 24.39-2.45 1.87-.68-3-36.56-160.16 3.75.09-47.34 170.8-1.04 3.76-2.28-3.16-19.82-27.46 3.35-.85-32.1 247.07-2.25 17.25-1.29-17.35-51.37-686.36 2.57.04-52.43 468.17-.25 2.23-1.09-1.96-30.41-54.96h1.07l-30.59 54.86-.14.26h-.31z" fill="#fff" opacity=".37"/><g clip-path="url(#b)"><rect fill="#054c5c" height="413.1" rx="32" transform="matrix(0 1 -1 0 1703.7 -292.83)" width="682.17" x="657.18" y="498.88"/><rect fill="#f4f4f4" height="645.25" rx="12" width="376.18" x="810.18" y="378.88"/><path d="m816.18 396.88a12 12 0 0 1 12-12h352.17a12 12 0 0 1 4.93 1.08 12 12 0 0 0 -10.93-7.08h-352.17a12 12 0 0 0 -12 12v621.25a12 12 0 0 0 7.07 10.93 12 12 0 0 1 -1.07-4.93z" fill="#f4f4f4"/><circle cx="1011.85" cy="320.36" fill="#fbe9e7" r="64.19"/><path d="m954.8 340.05h114.1a0 0 0 0 1 0 0v49.7a39.5 39.5 0 0 1 -39.5 39.5h-35.11a39.5 39.5 0 0 1 -39.5-39.5v-49.7a0 0 0 0 1 .01 0z" fill="#fbe9e7"/><circle cx="1011.85" cy="440.16" fill="#fbe9e7" r="19.29"/><path d="m992.27 428.5s-3.19 18.85-24.62 28.95l51.24 52.82 42.86-52.27s-29.36-15.36-27.52-30.77z" fill="#fbe9e7"/><path d="m1015.37 727c-67.44 0-122.62-55.18-122.62-122.62v-109.62c0-7.13 115.49-54.6 122.62-54.6 0 0 122.61 47.47 122.61 54.6v109.65c.02 67.44-55.17 122.59-122.61 122.59z" fill="none" stroke="#fbe9e7" stroke-miterlimit="10" stroke-width="1.08"/><path d="m950.8 344.54-7.61.79s-16.25-88.93 17.6-85.33v28.83s-15.57 21-9.99 55.71z" fill="#6d4c41"/><path d="m1014.53 236.52s-35.38 2-53.74 23.49v28.83s23 14.64 52.47 17.62c0 0 55.34 11.39 87.08-32.8v-19.52l-29.2 1.63s-28.43-19.53-56.61-19.25z" fill="#6d4c41"/><path d="m1073.68 315.14s32-14.1 26.66-41.48l-52.27 32.44 23.33-1.26z" fill="#5d4037"/><path d="m1072.92 347.4 9.9 2.17s10.16-23.31 2.79-49.88l-13.14 10z" fill="#5d4037"/><path d="m960.79 288.84s30.63-50.4 99.21-35.92a96.28 96.28 0 0 0 25.22 2.06l15.12-.84a46.55 46.55 0 0 1 -17.71 36.6c-10 7.89-23.32 15.59-37.19 15.81 0 0-41.66 7.78-84.65-17.71z" fill="#6d4c41"/><rect fill="#fbe9e7" height="38.37" rx="11.53" width="24.9" x="933.78" y="332.5"/><rect fill="#fbe9e7" height="38.37" rx="11.53" width="24.9" x="1063.59" y="332.5"/><g fill="#6d4c41"><path d="m1031.24 316 33.85 2.37a2.06 2.06 0 0 1 -.15 4.11h-33.94a3.24 3.24 0 0 1 0-6.48z"/><path d="m993.4 323h-33.93a2.06 2.06 0 0 1 -.15-4.11l33.85-2.37a3.24 3.24 0 0 1 .46 6.46z"/><ellipse cx="984.01" cy="344.85" rx="5.1" ry="8.47"/><ellipse cx="1042.14" cy="344.85" rx="5.1" ry="8.47"/><path d="m1008.9 349.7c.49 2.41-1 4.6-2.17 6.56a41.64 41.64 0 0 0 -3 5.73c-1.75 4.2-3 9-2.39 13.53.5 3.75 2.43 7.52 5.84 9.38a8.66 8.66 0 0 0 9.82-.9c.8-.68-.35-1.82-1.14-1.14-2.88 2.47-7.19 1.7-9.74-.84-2.88-2.85-3.57-7.08-3.15-11a32.51 32.51 0 0 1 4.03-12.02c1.7-3 4.21-6 3.46-9.68-.21-1-1.77-.59-1.56.43z"/><path d="m1016.82 405.48a25.72 25.72 0 0 0 12.07-7.15c.71-.75-.43-1.9-1.15-1.14a24.08 24.08 0 0 1 -11.35 6.73.81.81 0 0 0 .43 1.56z"/><path d="m951.1 345.87a7.21 7.21 0 0 0 -5.87-7.27.83.83 0 0 0 -1 .57.82.82 0 0 0 .56 1 5.59 5.59 0 0 1 4.68 5.7.81.81 0 0 0 .81.81.83.83 0 0 0 .81-.81z"/><path d="m1074.22 345.87a5.59 5.59 0 0 1 4.67-5.7.83.83 0 0 0 .57-1 .85.85 0 0 0 -1-.57 7.21 7.21 0 0 0 -5.86 7.27.81.81 0 0 0 1.62 0z"/></g><g clip-path="url(#c)"><path d="m969.08 458.91a53.6 53.6 0 0 0 21.88-.5c11.13-2.6 21.1-8.67 30.85-14.65l34.82-21.36a4.63 4.63 0 0 0 2-1.89 4.7 4.7 0 0 0 -.15-3.11c-1.33-4.74-3.14-10-7.63-12.08a17 17 0 0 0 -6.84-1l-29.5-.42a54.54 54.54 0 0 0 -12.58.8 36.13 36.13 0 0 0 -12 5.44 45.12 45.12 0 0 0 -11.51 10.79c-8.22 11.21-9.82 25.79-11.15 39.62z" fill="#fbe9e7"/></g><g clip-path="url(#d)"><path d="m967.44 280.3c7.63 5.14 19.52 9.16 28.63 10.5 17.37 2.56 35.2 3.47 52.41 0s33.85-11.64 45.28-25c3.13-3.64 5.91-7.78 6.86-12.48 3 1.36 4.51 4.84 5.05 8.12 1.52 9.25-2.38 18.81-8.66 25.76s-14.73 11.6-23.4 15.17c-16.67 6.85-34.9 10.14-52.86 8.62s-47.19-10.18-61.35-21.32" fill="#5d4037"/></g><path d="m1100.34 278.13-8.13.86s7.12-10.57 8-20.9z" fill="#5d4037"/><path d="m1176.77 507.8v-.31l-117.6-49.49-40.7 52.27-47.39-53.35c-22.47 9.35-78.82 29.08-107.08 38.61-20.31 1.8-36.41 19.85-36.41 41.68v70.54c0 7.13 5.54 13 12.31 13h52.91a11.64 11.64 0 0 0 5.11-1.2l35 190.53 190.76 19.56c-14.71-28 4.62-139.21 6.31-201.59a11.44 11.44 0 0 0 3.16.45h52.85c6.77 0 12.31-5.83 12.31-13v-70.5a42.25 42.25 0 0 0 -21.54-37.2z" fill="#92e0d2"/><path d="m1055.32 582.09h64.9v52.7h-64.9z" fill="#26a69a"/><path d="m920.4 765.35 97.31 13.33 103.9-6s28.65 68.1 28.4 144.49c0 0 1.24 112.76-4 130l-80.19 13.64s-28.12-94.54-28.69-135.91c-.11-7.66-3.86-14.53-9.54-17.69l-9.93-5.53s-1.6 97.42-11.36 126.49c-2 6-4 12.07-5.59 18.27l-15.5 58.93h-75.53l-4-82.06a828.76 828.76 0 0 1 7.48-158.52 694.21 694.21 0 0 0 7-85.7z" fill="#92e0d2"/><path d="m921.44 759.89-3.36 2.05 1.68 13.46 16.9 3.67h187.78l-2.9-12.65-187.66.41z" fill="#26a69a"/><path d="m1049.3 626.81 9.39-2.45s13.47-13.06 55.92 1.23l7.47 3.28 11.92 26.87-47.15 14.34-25.3-12.65z" fill="#fbe9e7"/><path d="m897 647.63 3.87-.46c2.78-5.58 6.26-16.25 2.19-30.35l-.32-.21c4 19.1-5.74 31.02-5.74 31.02z" fill="#fbe9e7"/><path d="m1061.29 657.67c-19.29 13.51-112.82 38.13-112.82 38.13-25.81 6.45-44.81 9-58.72 9.53v3.92h.07c14-.4 33.34-2.94 59.88-9.58 0 0 94.29-24.83 113.07-38.3z" fill="#fbe9e7"/><path d="m949.5 615.37-9.39-2.45s-13.47-13.06-55.92 1.23l-7.47 3.28-11.92 26.87 47.14 14.34 32.12-13.86z" fill="#fbe9e7"/><path d="m1060.44 652.7c3.76-2.92 8.86-3.53 13.61-3.09s9.37 1.8 14.1 2.38a43.3 43.3 0 0 0 22.12-3.15c4.61-2 9-4.8 14.06-5.08a6.58 6.58 0 0 1 4.94 1.42 7.22 7.22 0 0 1 1.63 2.88 29 29 0 0 1 1.61 8.19 5.73 5.73 0 0 1 -.5 3.1 5.65 5.65 0 0 1 -1.94 1.82c-10.11 6.62-23.07 6.21-35.15 6.77-7.2.33-14.58 1.07-21.52-.88s-13.51-7.4-14.22-14.58z" fill="#fbe9e7"/><g clip-path="url(#e)"><path d="m897.82 608.76c9.33 4 9.25 13.3 9.82 21.38l.19 2.74a2.87 2.87 0 0 0 .64 2c.71.66 1.84.44 2.76.12a36 36 0 0 1 15.47-1.86c5.08.51 11.23 1.73 14.43 5.7.54.67-.42 2.65-.46 3.49a3.93 3.93 0 0 1 -1.28 2.39 16.11 16.11 0 0 1 -6.39 4.18c-7.53 2.63-15.5 2.7-23.37 2.76l-21.43.16a2.72 2.72 0 0 1 -1.47-.26 2.77 2.77 0 0 1 -.93-2.29c-.52-7.13-1-14.43.93-21.31s4.2-17.45 11.14-19.2z" fill="#fbe9e7"/></g><path d="m835.81 617.43s9 74.29 17.55 80.41c0 0 13.47 18.37 95.11-2 0 0 94.3-24.84 113.08-38.31l-12.25-30.61-29.8 6.06-122.5 14.65s11-13.46 4.83-34.69c.04 0-26.42-17.94-66.02 4.49z" fill="#fbe9e7"/><path d="m1122.4 624.44c-.7 9.11 3.44 20.08 6 25.9l1.95-.27s-7.11-13.45-7.95-25.63z" fill="#fbe9e7"/><path d="m1137.58 704.44a442.13 442.13 0 0 1 -127.2-31.26l-70.61-33.48-1.18 2.95 71.79 34.9a442.55 442.55 0 0 0 127.2 31.27" fill="#fbe9e7"/><path d="m952.79 691.48c-81.64 20.41-95.11 2-95.11 2-7.75-5.54-15.84-66.85-17.31-78.5-1.5.74-3 1.53-4.56 2.41 0 0 9 74.29 17.55 80.41 0 0 13.47 18.37 95.11-2 0 0 94.3-24.84 113.08-38.31l-.56-1.4c-26.39 13.84-108.2 35.39-108.2 35.39z" fill="#fbe9e7"/><path d="m1037.98 628.98-1.69 6.28 17.39-4.18-4.04-4.35z" fill="#424242"/><path d="m1057.98 660.21 1.47-5.44-17.39 4.19 4.05 5.02z" fill="#424242"/><path d="m1057.35 655.31-13.42 3.12a4.91 4.91 0 0 1 -5.88-3.66l-3.41-14.63a4.93 4.93 0 0 1 3.66-5.89l2.43-.56 11-2.56a4.91 4.91 0 0 1 5.88 3.66l3.41 14.64a4.92 4.92 0 0 1 -3.67 5.88z" fill="#212121"/><path d="m1121 613.63s47.76-10.61 72.66 11.43c0 0-4.49 71.44-31.84 80.42 0 0-71.82 1.55-154.27-32.58l-68.39-33.49 10-24.14 130.21 41.22 48.17-6.7s-12.25-23.09-6.54-36.16z" fill="#fbe9e7"/><path d="m1189.27 621.67c-.63 8.34-6.25 71.11-31.77 79.49 0 0-71.82 1.55-154.27-32.58l-63.31-31-.76 1.84 68.39 33.49c82.45 34.13 154.27 32.58 154.27 32.58 27.35-9 31.84-80.42 31.84-80.42a42.1 42.1 0 0 0 -4.39-3.4z" fill="#fbe9e7"/><path d="m1011.86 287.81v.25s-.01-.06 0-.25z" fill="#bcaaa4"/></g><path d="m1076 370.87a12.32 12.32 0 0 1 -7.14-2.28v10.35h104.81a13 13 0 0 1 13 13v116.47a42.19 42.19 0 0 1 18.46 20.72v-130.13a34.56 34.56 0 0 0 -34.56-34.56h-83.63a12.47 12.47 0 0 1 -10.94 6.43z" fill="#054c5c"/><path d="m1195.33 628.46h-1l.06.06s-.13 2.07-.49 5.56v.19c-.35 3.49-.92 8.35-1.8 13.93 0 .15 0 .3-.07.46-.14.87-.29 1.76-.44 2.66-.13.74-.25 1.48-.39 2.22-.16.91-.33 1.82-.51 2.75s-.31 1.59-.47 2.4-.38 1.83-.58 2.75c-.06.26-.12.52-.17.77-.21.91-.41 1.82-.63 2.73-.07.29-.14.57-.2.86-.51 2.1-1.06 4.21-1.66 6.31-.08.3-.17.6-.26.91l-.06.2v338a13 13 0 0 1 -13 13h-350.2a13 13 0 0 1 -13-13v-619.32a13 13 0 0 1 13-13h131.34v-11.48a12.42 12.42 0 0 1 -8.57 3.45 12.47 12.47 0 0 1 -10.9-6.46h-108.73a34.56 34.56 0 0 0 -34.6 34.59v613a34.56 34.56 0 0 0 34.56 34.56h344a34.56 34.56 0 0 0 34.56-34.56v-388.06a12.92 12.92 0 0 1 -9.79 4.52z" fill="#054c5c"/><g fill="#26a69a" opacity=".72"><rect height="141.32" rx="12" width="454.11" x="395.84" y="325.95"/><path d="m808 457.91 41.95 34.87v-62.36z"/></g><g fill="#2052b3" opacity=".39"><rect height="141.32" rx="12" transform="matrix(-1 0 0 -1 1005.31 1209.3)" width="454.11" x="275.6" y="533.99"/><path d="m317.56 665.96-41.96 34.86v-62.36z"/></g><path d="m912.45 766.86-319-76.31c-18.78-4.5-37 4.16-40.57 19.33l-61.66 257.71c-3.63 15.17 8.65 31.11 27.43 35.6l259.22 62 10.2-42.63c6.38-26.67 38.32-41.9 71.34-34l34 8.14 46.47-194.25c3.62-15.16-8.66-31.1-27.43-35.59z" fill="#f5f5f5"/><path d="m795 993.73-17.09 71.47 115.54-68.49-69.74-16.71c-13.3-3.15-26.17 3-28.71 13.73z" fill="#f5f5f5"/><path d="m795 993.73-17.09 71.47 115.54-68.49-69.74-16.71c-13.3-3.15-26.17 3-28.71 13.73z" fill="#e0e0e0"/><path d="m837.13 952.79-7.79 32.55 6.06 1.45a74.08 74.08 0 0 1 24 1.78l3.38.81 6.89-28.8z" fill="#90a4ae"/><path d="m764.25 992.72-7.79 32.55 29.28 7 2.33-9.71a41 41 0 0 1 7-14.87l1.72-7.19z" fill="#90a4ae"/><path d="m555.57 727.81h379.65a9.13 9.13 0 0 1 9.13 9.13v55.72a0 0 0 0 1 0 0h-397.92a0 0 0 0 1 0 0v-55.71a9.13 9.13 0 0 1 9.14-9.14z" fill="#ef5350" transform="matrix(.97257327 .23259672 -.23259672 .97257327 197.33 -152.56)"/><path d="m914.61 767.38-15.51-3.71c17.51 4.19 29.07 19.18 25.68 33.33l-8.93 37.36 15.5 3.71 8.94-37.36c3.39-14.15-8.17-29.14-25.68-33.33z" fill="#ef5350"/><path d="m679.04 804.72h33.47v33.47h-33.47z" fill="#90a4ae" transform="matrix(.97257327 .23259672 -.23259672 .97257327 210.21 -139.33)"/><path d="m738.94 819.05h33.47v33.47h-33.47z" fill="#90a4ae" transform="matrix(.97257327 .23259672 -.23259672 .97257327 215.19 -152.88)"/><path d="m798.83 833.37h33.47v33.47h-33.47z" fill="#90a4ae" transform="matrix(.97257327 .23259672 -.23259672 .97257327 220.16 -166.42)"/><path d="m858.73 847.7h33.47v33.47h-33.47z" fill="#90a4ae" transform="matrix(.97257327 .23259672 -.23259672 .97257327 225.14 -179.96)"/><path d="m666.06 858.98h33.47v33.47h-33.47z" fill="#90a4ae" transform="matrix(.97257327 .23259672 -.23259672 .97257327 222.48 -134.83)"/><path d="m725.96 873.31h33.47v33.47h-33.47z" fill="#ff5722" transform="matrix(.97257327 .23259672 -.23259672 .97257327 227.45 -148.37)"/><g fill="#90a4ae"><path d="m785.85 887.63h33.47v33.47h-33.47z" transform="matrix(.97257327 .23259672 -.23259672 .97257327 232.43 -161.91)"/><path d="m845.75 901.96h33.47v33.47h-33.47z" transform="matrix(.97257327 .23259672 -.23259672 .97257327 237.41 -175.45)"/><path d="m546.26 830.32h33.47v33.47h-33.47z" transform="matrix(.97257327 .23259672 -.23259672 .97257327 212.52 -107.74)"/><path d="m606.16 844.65h33.47v33.47h-33.47z" transform="matrix(.97257327 .23259672 -.23259672 .97257327 217.5 -121.28)"/><path d="m653.08 913.24h33.47v33.47h-33.47z" transform="matrix(.97257327 .23259672 -.23259672 .97257327 234.74 -130.32)"/><path d="m712.98 927.56h33.47v33.47h-33.47z" transform="matrix(.97257327 .23259672 -.23259672 .97257327 239.72 -143.86)"/><path d="m772.87 941.89h33.47v33.47h-33.47z" transform="matrix(.97257327 .23259672 -.23259672 .97257327 244.7 -157.4)"/><path d="m533.28 884.58h33.47v33.47h-33.47z" transform="matrix(.97257327 .23259672 -.23259672 .97257327 224.79 -103.23)"/><path d="m593.18 898.91h33.47v33.47h-33.47z" transform="matrix(.97257327 .23259672 -.23259672 .97257327 229.77 -116.77)"/><path d="m640.1 967.5h33.47v33.47h-33.47z" transform="matrix(.97257327 .23259672 -.23259672 .97257327 247.01 -125.81)"/><path d="m700 981.82h33.47v33.47h-33.47z" transform="matrix(.97257327 .23259672 -.23259672 .97257327 251.99 -139.35)"/><path d="m520.3 938.84h33.47v33.47h-33.47z" transform="matrix(.97257327 .23259672 -.23259672 .97257327 237.06 -98.72)"/><path d="m580.2 953.17h33.47v33.47h-33.47z" transform="matrix(.97257327 .23259672 -.23259672 .97257327 242.04 -112.27)"/></g><path d="m795 993.73-17.09 71.47 115.54-68.49-69.74-16.71c-13.3-3.15-26.17 3-28.71 13.73z" fill="#e0e0e0"/><path d="m926.75 773.28a23.81 23.81 0 0 1 .61 12.94l-46.46 194.25-69.7-16.67c-13.31-3.19-26.18 3-28.75 13.69l-17.09 71.51-259.23-62a41.63 41.63 0 0 1 -14.3-6.42c3.37 10.42 13.42 19.46 26.82 22.66l259.22 62 17.13-71.51c2.58-10.74 15.45-16.88 28.75-13.7l69.7 16.68 46.47-194.25c2.54-10.82-2.99-22.01-13.17-29.18z" fill="#f5f5f5"/><circle cx="422.08" cy="915.64" fill="#1ec6a8" opacity=".44" r="142.2" transform="matrix(.70710678 -.70710678 .70710678 .70710678 -523.83 566.64)"/><circle cx="422.08" cy="915.64" fill="#92e0d2" r="126.18"/><path d="m422.08 937.13a21.49 21.49 0 1 1 21.48-21.49 21.51 21.51 0 0 1 -21.48 21.49z" fill="#1ec6a8" opacity=".54"/><path d="m422.08 929.12a13.48 13.48 0 1 1 13.47-13.48 13.49 13.49 0 0 1 -13.47 13.48z" fill="#1ec6a8"/><path d="m422.08 798.04v23.15" fill="none" stroke="#fff" stroke-linecap="round" stroke-linejoin="round" stroke-width="1.6"/><path d="m363.28 813.79 11.57 20.06" fill="none" stroke="#fff" stroke-linecap="round" stroke-linejoin="round" stroke-width="1.6"/><path d="m320.23 856.84 20.05 11.58" fill="none" stroke="#fff" stroke-linecap="round" stroke-linejoin="round" stroke-width="1.6"/><path d="m304.47 915.64h23.16" fill="none" stroke="#fff" stroke-linecap="round" stroke-linejoin="round" stroke-width="1.6"/><path d="m320.23 974.45 20.05-11.58" fill="none" stroke="#fff" stroke-linecap="round" stroke-linejoin="round" stroke-width="1.6"/><path d="m363.28 1017.5 11.57-20.06" fill="none" stroke="#fff" stroke-linecap="round" stroke-linejoin="round" stroke-width="1.6"/><path d="m422.08 1033.25v-23.16" fill="none" stroke="#fff" stroke-linecap="round" stroke-linejoin="round" stroke-width="1.6"/><path d="m480.88 1017.5-11.58-20.06" fill="none" stroke="#fff" stroke-linecap="round" stroke-linejoin="round" stroke-width="1.6"/><path d="m523.93 974.45-20.05-11.58" fill="none" stroke="#fff" stroke-linecap="round" stroke-linejoin="round" stroke-width="1.6"/><path d="m539.69 915.64h-23.16" fill="none" stroke="#fff" stroke-linecap="round" stroke-linejoin="round" stroke-width="1.6"/><path d="m523.93 856.84-20.05 11.58" fill="none" stroke="#fff" stroke-linecap="round" stroke-linejoin="round" stroke-width="1.6"/><path d="m480.88 813.79-11.57 20.06" fill="none" stroke="#fff" stroke-linecap="round" stroke-linejoin="round" stroke-width="1.6"/><path d="m422.08 923.06c-4.76 0-8.63-5.45-8.63-12.14s8.63-76.63 8.63-76.63 8.63 69.93 8.63 76.63-3.87 12.14-8.63 12.14z" fill="#26a69a"/><path d="m413.45 915.1c0-4.39 5.45-8 12.15-8s98.8 8 98.8 8-92.1 8-98.8 8-12.15-3.61-12.15-8z" fill="#26a69a"/></svg>