<svg viewBox="0 0 1366 1163.33" xmlns="http://www.w3.org/2000/svg" xmlns:xlink="http://www.w3.org/1999/xlink"><pattern id="a" height="42.18" patternTransform="translate(421.79 -42.18)" patternUnits="userSpaceOnUse" viewBox="0 0 42.18 42.18" width="42.18"><path d="m0 0h42.18v42.18h-42.18z" fill="none"/><path d="m.5.5h41.18v41.18h-41.18z" fill="none" stroke="#fff" stroke-miterlimit="10"/></pattern><clipPath id="b"><circle cx="759.59" cy="518.24" r="116.56"/></clipPath><clipPath id="c"><path d="m839.67 385.68a1.79 1.79 0 0 0 -.4-.09h-.12c-1.57 0-3 2-3.11 4.63.15-2.62 1.54-4.67 3.11-4.63l-40.56-2.82a2 2 0 0 1 -.21-3.95l39.58-7h.3a1.38 1.38 0 0 0 .29-.08 3.73 3.73 0 0 0 2-2.81 11.74 11.74 0 0 0 .1-5c-.7-4-2.93-6.93-5-6.57l-.31.08-84.63 10.85a111.73 111.73 0 0 1 -65.69-11.65l-.33-.17c-.94-.49-1.85-1-2.75-1.6a39 39 0 0 0 -59.37 29.67c-.38 4.26.91 10.56 2 14.88a92.25 92.25 0 0 1 2.79 27.08c-.79 15.93-6.06 36-26 44.53l30.78 10.46a42 42 0 0 0 61.68 16.29l49.55 11.91c-16.42-15.28-26.58-37.05-32.88-57.75-.17-.62-.35-1.22-.55-1.83 0-.12-.07-.24-.11-.37a34.89 34.89 0 0 1 26-43.8c43.16-9.44 94.71-10.62 102.68-10.75h.15a2 2 0 0 0 .91-.25c1.14-.61 2-2.32 2.15-4.38.28-2.4-.72-4.43-2.05-4.88z"/></clipPath><clipPath id="d"><path d="m972.8 924.91c.78-1.57 1.63-3.09 2.48-4.62 29.32-52.45 48.3-146.09 54-177.33q1.05-5.09 1.82-10.26v-.22a186.43 186.43 0 0 0 2-27.11c0-102-82.66-184.62-184.62-184.62a183.9 183.9 0 0 0 -71.4 14.33 191.06 191.06 0 0 0 -130.86-52.26c-104.33-.39-190.44 83.6-192.51 187.91-2.14 107.73 84.55 195.73 191.79 195.73 4.06 0 8.09-.14 12.1-.39l-.17.39s47.77-6.33 130.92 13.5c4.95 1.71 10 3.21 15.14 4.49a148 148 0 0 1 17.51 5.41c30 11.62 61.69 29.28 79.47 39.77a205.42 205.42 0 0 1 22.25 15.24c6.12 4.8 14.31 10.39 19.69 10.39 8.67 0 18.28-12.48 22.53-18.61 1.33-1.92 2.73-3.79 4.14-5.65a39 39 0 0 0 3.72-6.09z"/></clipPath><linearGradient id="e" gradientTransform="matrix(.99996038 .00890106 -.00890106 .99996038 258.62 -50.2)" gradientUnits="userSpaceOnUse" x1="123.95" x2="177.65" y1="702.55" y2="936.48"><stop offset="0" stop-color="#a6a6a6"/><stop offset="1" stop-color="#595959"/></linearGradient><path d="m321.73 412.67c-35.72 39.57-58.81 89.08-74.75 140-27.2 86.82-34.25 183-1 267.72s112.5 154.39 203.36 159.26c56.75 3.05 111.61-18.16 165.17-37.17 84-29.82 169.77-55.07 257.32-71.86 30.7-5.9 62.51-10.73 93-3.92a145.12 145.12 0 0 1 26 8.61c39.17 17 84.75-2.94 99.36-43 23.48-64.47 29.4-135.63 18.7-203.64-15.29-97.22-63-187.85-128.13-261.6-42-47.54-92.9-89.48-153.35-108.69s-131.56-12.48-180.11 28.34c-27.45 23.08-46 55-61.1 87.51-2.77 5.94-5.67 12.2-11 16s-12.41 4.49-19 4.05c-25.11-1.67-46.9-16.88-69.09-28.75s-49.45-20.7-71.94-9.41c.06-.06-57.72 16.99-93.44 56.55z" fill="#31c4c3" opacity=".54"/><path d="m755.13 185.4c-52.51-9.17-106.6 5.54-157 22.91-86 29.64-167.64 81.08-216 158.12s-57.54 182.19-7.53 258.2c31.24 47.48 80.87 79 128 110.86 73.86 49.91 145.09 104 210.57 164.44 23 21.21 187.16 159.9 335.51 47.2 78.32-59.54 113.73-162.13 134.41-258.39 13.33-62 16.87-127.88-3.55-187.93s-121.12-262.45-424.41-315.41z" fill="#31c4c3" opacity=".33"/><path d="m0 2.51h1366v1163.33h-1366z" fill="url(#a)" opacity=".0957"/><path d="m-141.65 708.18 269.95-.52-.44.27 30.41-54.96.54-.97.54.97 30.59 54.86-1.34.27 51.28-468.29 2.57.04 52.35 686.29-3.54-.09 31.94-247.09.61-4.66 2.75 3.81 19.84 27.44-3.33.6 47.23-170.83 2.03-7.37 1.71 7.45 36.66 160.13-3.14-1.13 32.02-24.42 1.73-1.32 1.17 1.85 18.3 28.98-1.66-.93 451.45 6.25-1.58.84 27.47-42.69 1.49-2.31 1.55 2.26 33.54 48.82-3.28.76 51.97-349.25 2.05-13.79 1.31 13.88 48.31 512.5-2.36-.1 33.74-186.03.35-1.97 1.37 1.46 22.84 24.43-1.61.36 42.92-131.09.66-2.02.72 1.99 47.07 129.72-.86-.15 22.92-27.42.33-.4.35.39 25.88 29.02-.29-.13 189.12-2.66-189.11 3.43-.18.01-.12-.14-25.97-28.93.68-.01-22.83 27.49-.57.67-.3-.83-47.49-129.56 1.38-.02-42.49 131.23-.5 1.54-1.1-1.18-22.92-24.37 1.72-.51-33.37 186.11-1.53 8.53-.83-8.63-49.3-512.41 3.36.09-51.74 349.28-.68 4.54-2.6-3.78-33.57-48.8 3.04-.05-27.44 42.72-.55.86-1.02-.01-451.45-5.96-1.08-.01-.58-.92-18.31-28.97 2.9.52-32.04 24.39-2.45 1.87-.68-3-36.55-160.16 3.74.09-47.34 170.8-1.04 3.76-2.28-3.16-19.82-27.46 3.36-.85-32.11 247.06-2.24 17.26-1.3-17.35-51.37-686.36 2.57.04-52.43 468.16-.25 2.24-1.09-1.97-30.41-54.95h1.08l-30.6 54.86-.14.26h-.31z" fill="#fff" opacity=".37"/><g fill="#e53935"><path d="m655.08 219-6.26-22.29a13.54 13.54 0 0 0 -.85-2.2l-2.42-9.4c-1.2-4.26-11.78-5-23.64-1.68-10.43 2.93-18.37 8.05-19.31 12.13l3 12.13c.07.37.15.73.25 1.09l6.26 22.3.24.85c1.7 6.36 11.11 47.38-20.12 76.08l87.54-6.84z"/><path d="m763.75 188.09c-.63-4.14-9.53-8.58-20.9-10.24-11.21-1.63-20.89 0-22.86 3.71a5.34 5.34 0 0 0 -.34 1l-2.32 15.92-14.33 98.61a13.43 13.43 0 0 0 11.32 15.17l.67.1-1.06 2.27 46.78 25.07 12.66-15.56c-23.56-17.63-9.57-135.75-9.62-136.05z"/><path d="m655.08 219-6.26-22.29a13.54 13.54 0 0 0 -.85-2.2l-2.42-9.4c-1.2-4.26-11.78-5-23.64-1.68a53.56 53.56 0 0 0 -12 4.9 58.22 58.22 0 0 1 7.54-2.67c11.86-3.33 22.44-2.58 23.64 1.68l2.42 9.4a13.54 13.54 0 0 1 .85 2.2l6.26 22.29 24.17 80.32 5-.39z"/><path d="m773.32 324.14c-23.51-17.63-9.52-135.75-9.57-136-.63-4.14-9.53-8.58-20.9-10.24-10.11-1.47-18.94-.26-22 2.68 4.3-1.21 10.64-1.46 17.58-.45 11.37 1.66 20.27 6.1 20.9 10.24.05.3-13.95 118.42 9.57 136.05l-10 12.34 1.84 1z"/><path d="m715.64 209.91-9.13 62.77 54.15 67 6.91-23.18s-57.52-62.91-51.93-106.59z"/></g><path d="m616.84 234.17-.24-.85-6.26-22.32c-.1-.36-.18-.72-.25-1.09l-3-12.13c.94-4.08 8.88-9.2 19.31-12.13 7.32-2.05 14.15-2.55 18.59-1.63-2.6-3.27-12.28-3.62-23.05-.6-10.43 2.93-18.37 8.05-19.31 12.13l3 12.13c.07.37.15.73.25 1.09l6.26 22.3.24.85c1.7 6.36 11.11 47.38-20.12 76.08l7.35-.57c27.74-28.43 18.88-67.11 17.23-73.26z" fill="#ef9a9a"/><path d="m719.4 314.59-.67-.1a13.44 13.44 0 0 1 -4.16-1.34l-.69 1.48 46.78 25.07.09-.11-42.41-22.73z" fill="#e53935"/><path d="m707.41 299.32 14.36-98.62 2.32-15.92a5.34 5.34 0 0 1 .34-1c2-3.68 11.65-5.34 22.86-3.71a53.26 53.26 0 0 1 12.23 3.2c-3.78-2.38-9.77-4.42-16.69-5.43-11.21-1.63-20.89 0-22.86 3.71a5.34 5.34 0 0 0 -.34 1l-2.32 15.92-14.31 98.62a13.42 13.42 0 0 0 9.61 14.79 13.42 13.42 0 0 1 -5.2-12.56z" fill="#ef9a9a"/><path d="m752.45 301.4a125.29 125.29 0 0 0 -12.78-9.4c-22-20-31-51-34.23-78.49v-64.28h-.06a2.63 2.63 0 0 0 .06-.39c0-4.42-10-8-22.3-8-11.53 0-21 3.14-22.18 7.17 0 0-.12 17.33-.12 18.43v19.46c-1.42 33.38-7.23 78.55-27.52 92.68a124.27 124.27 0 1 0 119.13 22.82z" fill="#ef5350"/><path d="m796.74 396.49a124 124 0 0 0 -44.29-95.09 125.29 125.29 0 0 0 -12.78-9.4c-22-20-31-51-34.23-78.49v-64.28h-.06a2.63 2.63 0 0 0 .06-.39c0-4.42-10-8-22.3-8-11.53 0-21 3.14-22.18 7.17v.44c4.07-1.91 10.49-3.15 17.72-3.15 12.31 0 22.3 3.59 22.3 8a2.63 2.63 0 0 1 -.06.39h.08v64.24c3.27 27.46 12.22 58.46 34.23 78.49a125.29 125.29 0 0 1 12.77 9.42 124.24 124.24 0 0 1 10.1 180.7 123.91 123.91 0 0 0 38.64-90.05z" fill="#ef5350" opacity=".52"/><path d="m635.06 277.24c-.57.47-1.15.91-1.74 1.33a124.24 124.24 0 0 0 -50.86 32.36 124.14 124.14 0 0 1 46.4-27.9 32.38 32.38 0 0 0 6.2-5.79z" fill="#ef5350" opacity=".52"/><path d="m564.38 528.45v-143.72h.13c6-42.82 67-58.88 67-58.88 1.79-.66 6.47-1.64 7.21-1.87 1.81-.55 2.28-4.66 1.51-10.38a13.09 13.09 0 0 0 -.82-4.94l-.2-.56c-.38-1.65-.83-3.35-1.37-5.1-3.29-10.74-8.22-18.74-11-17.88-.59.18-8 1.9-9.41 2.42l-9.81 3.21a35 35 0 0 1 -17.62 1.18c-11.52-2.26-21.22-9.59-29.27-19.25l-60.13 6.1 2.41 27.45v220.32z" fill="#ef5350" opacity=".52"/><path d="m552.73 398.72a124.28 124.28 0 0 1 85-117.92c20.29-14.13 26.1-59.3 27.52-92.68v-19.46c0-1.1.12-18.43.12-18.43 1.17-4 10.65-7.17 22.18-7.17a48.78 48.78 0 0 1 15.58 2.29c-3.61-2.67-11.22-4.52-20-4.52-11.53 0-21 3.14-22.18 7.17 0 0-.12 17.33-.12 18.43v19.46c-1.42 33.38-7.23 78.55-27.52 92.68a124.27 124.27 0 0 0 -14 230.21 124.2 124.2 0 0 1 -66.58-110.06z" fill="#ef9a9a"/><path d="m797.1 398.93a13.35 13.35 0 0 0 -13.31-13.31h-34.7a13.35 13.35 0 0 0 -13.31 13.31v556.33c0 5.4 13.72 9.78 30.66 9.78s30.66-4.38 30.66-9.78z" fill="#ef5350"/><path d="m790.69 387.58a13.17 13.17 0 0 1 1.95 6.89v556.33c0 5.4-13.73 9.78-30.66 9.78-11.05 0-20.73-1.86-26.13-4.66 1.07 5.08 14.35 9.08 30.59 9.08 16.93 0 30.66-4.38 30.66-9.78v-556.29a13.31 13.31 0 0 0 -6.41-11.35z" fill="#ef5350" opacity=".55"/><path d="m766.44 961.69c-18 0-26.93-4.67-27.32-6.45.39-1.73 9.37-6.41 27.32-6.41s26.93 4.68 27.32 6.46c-.39 1.71-9.37 6.4-27.32 6.4z" fill="#c62828"/><path d="m925.33 458.06h-.05l-99.12 3 102.5-22.88v-.08h.26c1.82-.42 2.1-6 .63-12.45s-4.12-11.35-5.94-11l-276.77 51.94-282.84 8.65c-3.3.15-10.29.57-11.23.57-2.73 0-4.94 8.51-4.94 19s2.21 19 4.94 19c1.06 0 9.17.16 13 0l39.83-2-70.51 13.19c-4.49 1-13.5 2.91-14.6 3.13-2.68.52-2.93 10.69-.56 22.69s6.45 21.32 9.13 20.79c1.14-.22 10.76-2 15.56-3l311-69.41 271.18-13.7h.12a.53.53 0 0 0 .12 0c1.93-.4 3.13-6.5 2.7-13.88-.41-7.62-2.4-13.68-4.41-13.56z" fill="#ef5350"/><path d="m925.33 458.06h-.05a34.16 34.16 0 0 1 2.27 11.26c.43 7.38-.77 13.48-2.7 13.88h-.12-.12l-271.21 13.73-311 69.41c-4.8 1-14.42 2.82-15.56 3a1.29 1.29 0 0 1 -.69-.08c1.05 1.62 2.06 2.48 2.92 2.31 1.14-.22 10.76-2 15.56-3l311-69.41 271.18-13.7h.12a.53.53 0 0 0 .12 0c1.93-.4 3.13-6.5 2.7-13.88-.42-7.58-2.41-13.64-4.42-13.52z" fill="#ef5350"/><path d="m926.68 435.9h-.26v.1l-102.5 22.88 14.17-.43 90.56-20.22v-.08h.26c1.82-.42 2.1-6 .63-12.45-1.34-5.89-3.67-10.47-5.44-10.93a31.15 31.15 0 0 1 3.21 8.7c1.47 6.44 1.19 12.01-.63 12.43z" fill="#ef5350"/><path d="m363.53 511.57c-3.86.18-12 0-13 0h-.1c.69 1.43 1.49 2.25 2.33 2.25 1.06 0 9.17.16 13 0l39.83-2 2.23-2.23z" fill="#ef5350"/><path d="m928.66 436.47c-.73-.17-3.06-3.17-4.61-9.68s-.76-10.32-.18-10.67c.62.09 3 3.08 4.58 9.71s.79 10.17.21 10.64z" fill="#c62828"/><path d="m926.87 483.17c-.76-.25-2.79-3.92-3.27-11.47s1.1-11.5 1.82-11.75c.69.17 2.76 3.84 3.24 11.48s-1.06 11.41-1.79 11.74z" fill="#c62828"/><path d="m925.83 417a1.22 1.22 0 0 1 .5 0c-1-1.57-1.92-2.43-2.73-2.26l-276.76 51.85-282.84 8.65c-3.3.15-10.29.57-11.23.57-2.73 0-4.94 8.51-4.94 19s2.16 18.79 4.84 19c-1.55-3.2-2.61-9.5-2.61-16.76 0-10.49 2.21-19 4.94-19 .94 0 7.93-.42 11.23-.57l282.88-8.65z" fill="#ef9a9a"/><path d="m925.33 458.06h-.05l-84.95 2.6-11.94 2.66 99.12-3c-.67-1.47-1.43-2.32-2.18-2.26z" fill="#ef9a9a"/><path d="m405.59 511.79-70.5 13.21c-4.49 1-13.5 2.91-14.6 3.13-2.68.52-2.93 10.69-.56 22.69 2.17 11 5.79 19.76 8.44 20.71-2.21-3.44-4.61-10.33-6.21-18.48-2.37-12-2.12-22.17.56-22.69 1.1-.22 10.11-2.14 14.6-3.13l66.95-12.54a14.09 14.09 0 0 0 6.35-3l-2.8-2.16z" fill="#ef9a9a"/><circle cx="759.59" cy="518.24" fill="#e57373" r="116.56"/><path d="m759.59 401.68h-2.23a116.55 116.55 0 0 1 0 233.05h2.23a116.56 116.56 0 1 0 0-233.11z" fill="#e57373" opacity=".25"/><g clip-path="url(#b)"><path d="m855.06 393.14a1.37 1.37 0 0 0 -.4-.09s0 0-.06 0h-.06c-1.58 0-3 2-3.11 4.63.15-2.61 1.53-4.66 3.11-4.62l-40.54-2.84a2 2 0 0 1 -.21-4l39.57-7a1.56 1.56 0 0 0 .31 0l.29-.08a3.77 3.77 0 0 0 2-2.81 11.94 11.94 0 0 0 .1-5c-.7-4-2.93-6.93-5-6.57a1.58 1.58 0 0 0 -.31.09l-84.64 10.85a111.78 111.78 0 0 1 -65.68-11.65l-.33-.18c-.95-.48-1.85-1-2.75-1.59a39 39 0 0 0 -59.35 29.72c-.38 4.27.92 10.57 2 14.89a91.86 91.86 0 0 1 2.8 27.08c-.79 15.92-6.06 36-26 44.53l30.78 10.46a42.06 42.06 0 0 0 61.68 16.29l49.54 11.91c-16.41-15.28-26.57-37.05-32.87-57.76-.17-.61-.35-1.22-.55-1.82 0-.12-.07-.25-.11-.37a34.9 34.9 0 0 1 26-43.81c43.16-9.43 94.71-10.62 102.68-10.75s.07 0 .11 0a2 2 0 0 0 .91-.24c1.14-.62 2-2.32 2.15-4.38.24-2.42-.7-4.44-2.06-4.89z" fill="#e57373" opacity=".25"/></g><path d="m503.1 317.22-71-23.55c-2.71-.89-9.43-3.37-10.52-3.74-4-1.32-10.35 7-14.24 18.67s-3.82 22.14.15 23.47c1 .32 7.7 3 10.57 3.94l29.4 9.75-33.2 2.95c-3.88.34-12.86 1.26-14.29 1.38-4.18.34-6.76 10.53-5.76 22.76s5.19 21.86 9.36 21.52c1.49-.12 10.69-.89 14.64-1.24l75.06-6.67a18.12 18.12 0 0 0 16.4-19.6l-.75-8.43a17.52 17.52 0 0 0 -.74-3.72 18 18 0 0 0 4.08-6.79l2.5-7.52a18.39 18.39 0 0 0 -11.66-23.18z" fill="#1976d2"/><g fill="#1976d2" opacity=".51"><path d="m418 331.55c-2.87-.95-9.6-3.62-10.57-3.94-1.66-.56-2.63-2.74-2.92-5.94-.41 5.58.56 9.61 2.92 10.4 1 .32 7.7 3 10.57 3.94l29.4 9.75 5.46-1.58z"/><path d="m493.25 382-75.06 6.67c-3.95.35-13.15 1.12-14.64 1.24-4.17.34-8.37-9.3-9.36-21.52-.08-1-.13-1.95-.17-2.91a63.81 63.81 0 0 0 .17 7.37c1 12.22 5.19 21.86 9.36 21.52 1.49-.12 10.69-.89 14.64-1.24l75.06-6.67a18.12 18.12 0 0 0 16.4-19.6l-.06-.71a18.15 18.15 0 0 1 -16.34 15.85z"/><path d="m514.74 335.94-2.5 7.52a18 18 0 0 1 -4.08 6.79 17.76 17.76 0 0 1 .72 3.61 17.73 17.73 0 0 0 3.36-5.94l2.5-7.52a18.05 18.05 0 0 0 .77-7.91 17.82 17.82 0 0 1 -.77 3.45z"/></g><path d="m409.55 313.06c3.89-11.64 10.27-20 14.24-18.66 1.09.36 7.81 2.84 10.52 3.73l71 23.55a18.2 18.2 0 0 1 9.33 7.07 18.29 18.29 0 0 0 -11.56-11.53l-71-23.55c-2.71-.89-9.43-3.37-10.52-3.74-4-1.32-10.35 7-14.24 18.67-3.7 11.06-3.81 21.09-.4 23.19-.71-4.42.16-11.34 2.63-18.73z" fill="#42a5f5"/><path d="m452.9 344.18-5.46 1.58-33.2 2.95c-3.88.34-12.86 1.26-14.29 1.38-4.18.34-6.76 10.53-5.76 22.76.65 8 2.69 14.93 5.19 18.63a53.08 53.08 0 0 1 -3-14.17c-1-12.23 1.58-22.42 5.76-22.76 1.43-.12 10.41-1 14.29-1.38l33.65-4.25a22.89 22.89 0 0 0 8.2-2.69z" fill="#42a5f5"/><path d="m635.75 306.9a13.09 13.09 0 0 0 -.82-4.94l-.2-.56c-.38-1.65-.83-3.35-1.37-5.1-3.29-10.74-8.22-18.74-11-17.88-.59.18-8 1.9-9.41 2.42l-9.81 3.21a35 35 0 0 1 -17.54 1.19c-11.52-2.26-21.22-9.6-29.27-19.25a89.14 89.14 0 0 1 -18.52-38.91l-5.61-26.79c-.45-2.15-2-7.56-2.2-8.44-1.06-4.68-12.69-6-26-3s-23.19 9.25-22.13 13.94c.19.8 1 5.83 1.42 7.75l12.88 61.57 2.41 27.45v634.55c0 1.58-.09 6.09-.09 6.93 0 5.4 13.73 9.78 30.66 9.78s30.66-4.38 30.66-9.78c0-.78.1-5.28.1-6.93v-556.11h.13c6-42.82 67-58.88 67-58.88 1.79-.66 6.47-1.64 7.21-1.87 1.8-.52 2.27-4.63 1.5-10.35z" fill="#1e88e5"/><circle cx="660.35" cy="387.85" fill="#1565c0" r="41.47"/><g fill="#1e88e5" opacity=".25"><path d="m531.87 219.81a89.1 89.1 0 0 0 18.52 38.9c.79 1 1.6 1.87 2.43 2.78a90.06 90.06 0 0 1 -15-34.41l-5.61-26.79c-.45-2.15-2-7.56-2.2-8.44-.39-1.71-2.2-3-5-3.74.49 1.78 1 3.79 1.25 4.91z"/><path d="m635.75 306.9a13.09 13.09 0 0 0 -.82-4.94l-.2-.56c-.38-1.65-.83-3.35-1.37-5.1-3-9.65-7.23-17.06-10.1-17.85a67.28 67.28 0 0 1 4.18 10.55c.54 1.75 1 3.46 1.37 5.11l.2.55a13.12 13.12 0 0 1 .82 4.94c.77 5.73.3 9.84-1.51 10.39-.74.23-5.42 1.2-7.21 1.87 0 0-61 16.05-67 58.88h-.11v556.1c0 1.65-.1 6.15-.1 6.93 0 5.4-13.73 9.77-30.66 9.77-10.15 0-19.14-1.57-24.72-4v1.49c0 5.4 13.73 9.78 30.66 9.78s30.66-4.38 30.66-9.78c0-.78.1-5.28.1-6.93v-556.1h.13c6-42.82 67-58.88 67-58.88 1.79-.66 6.47-1.64 7.21-1.87 1.77-.52 2.24-4.63 1.47-10.35z"/></g><path d="m503 943.27c0-.84.09-5.35.09-6.93v-634.57l-2.41-27.45-12.88-61.57c-.4-1.92-1.23-6.95-1.42-7.75-1.06-4.69 8.84-10.93 22.13-13.94 8.2-1.86 15.77-2.06 20.61-.83-3.14-3.34-13.48-4-25.07-1.4-13.29 3-23.19 9.25-22.13 13.94.19.8 1 5.83 1.42 7.75l12.88 61.57 2.41 27.45v634.57c0 1.58-.09 6.09-.09 6.93 0 2.41 2.74 4.61 7.27 6.32-1.81-1.25-2.81-2.63-2.81-4.09z" fill="#42a5f5"/><path d="m607.58 286.28 9.81-3.21c1.21-.45 6.8-1.77 8.75-2.25-1.43-1.81-2.77-2.72-3.8-2.4-.59.18-8 1.9-9.41 2.42l-9.81 3.21a35 35 0 0 1 -17.54 1.19 39.77 39.77 0 0 1 -8.11-2.53 41.17 41.17 0 0 0 12.53 4.76 35 35 0 0 0 17.58-1.19z" fill="#42a5f5"/><path d="m633.8 314.69c-1.61 0-5.67-5.64-8.79-15.83a54.07 54.07 0 0 1 -2.47-12.86c-.17-4 .65-5.14 1-5.24 1.71 0 5.76 5.64 8.88 15.82 3.36 11 2.75 17.69 1.5 18.07z" fill="#0d47a1"/><path d="m529.16 947.47c-17.95 0-26.93-4.68-27.32-6.46.39-1.72 9.37-6.4 27.32-6.4s26.93 4.68 27.32 6.45c-.39 1.73-9.37 6.41-27.32 6.41z" fill="#0d47a1"/><path d="m839.67 385.68a1.79 1.79 0 0 0 -.4-.09h-.12c-1.57 0-3 2-3.11 4.63.15-2.62 1.54-4.67 3.11-4.63l-40.56-2.82a2 2 0 0 1 -.21-3.95l39.58-7h.3a1.38 1.38 0 0 0 .29-.08 3.73 3.73 0 0 0 2-2.81 11.74 11.74 0 0 0 .1-5c-.7-4-2.93-6.93-5-6.57l-.31.08-84.63 10.85a111.73 111.73 0 0 1 -65.69-11.65l-.33-.17c-.94-.49-1.85-1-2.75-1.6a39 39 0 0 0 -59.37 29.67c-.38 4.26.91 10.56 2 14.88a92.25 92.25 0 0 1 2.79 27.08c-.79 15.93-6.06 36-26 44.53l30.78 10.46a42 42 0 0 0 61.68 16.29l49.55 11.91c-16.42-15.28-26.58-37.05-32.88-57.75-.17-.62-.35-1.22-.55-1.83 0-.12-.07-.24-.11-.37a34.89 34.89 0 0 1 26-43.8c43.16-9.44 94.71-10.62 102.68-10.75h.15a2 2 0 0 0 .91-.25c1.14-.61 2-2.32 2.15-4.38.28-2.4-.72-4.43-2.05-4.88z" fill="#1e88e5"/><path d="m836.81 387.34a2.82 2.82 0 0 1 2.34-1.76 2.81 2.81 0 0 0 -2.34 1.76z" fill="#42a5f5"/><path d="m636.69 483.7-4-1.36a42.21 42.21 0 0 0 20.87 19.45 42.29 42.29 0 0 1 -16.87-18.09z" fill="#42a5f5"/><path d="m689.54 358.85a111.73 111.73 0 0 0 65.69 11.65l84-10.76c-1-1.65-2.27-2.62-3.49-2.4l-.31.08-84.63 10.85a111.75 111.75 0 0 1 -61.83-9.74l.27.15z" fill="#42a5f5"/><path d="m800.75 385 35.91 2.35a3 3 0 0 1 2.49-1.76l-41.15-2.94c0 .97 1.42 2.26 2.75 2.35z" fill="#42a5f5"/><path d="m631.88 428.71a92.25 92.25 0 0 0 -2.79-27.08c-1.09-4.32-2.38-10.62-2-14.88a39 39 0 0 1 54-32.44 39 39 0 0 0 -58.46 30.21c-.38 4.26.91 10.56 2 14.88a92.25 92.25 0 0 1 2.79 27.08c-.79 15.93-6.06 36-26 44.53l5.35 1.82c19.23-8.75 24.33-28.44 25.11-44.12z" fill="#42a5f5"/><path d="m836 390.21c.15-2.62 1.54-4.67 3.11-4.63-1.53-.04-2.92 2.01-3.11 4.63z" fill="none"/><g fill="#1e88e5" opacity=".25"><path d="m667.84 500.72a42.05 42.05 0 0 1 -37.84-23.72l-24.16-8.21a41.84 41.84 0 0 1 -4.39 2.21l30.78 10.46a42 42 0 0 0 61.68 16.29l49.55 11.91c-1.76-1.64-3.43-3.36-5.05-5.14l-46.73-11.22a41.82 41.82 0 0 1 -23.84 7.42z"/><path d="m838.36 364.43a3.73 3.73 0 0 1 -2 2.81 1.38 1.38 0 0 1 -.29.08h-.3l-39.58 7a2 2 0 0 0 .21 3.95l3.5.25 38.1-6.74h.3a1.38 1.38 0 0 0 .29-.08 3.73 3.73 0 0 0 2-2.81 11.74 11.74 0 0 0 .1-5 10.84 10.84 0 0 0 -2.44-5.45q.12.48.21 1a11.74 11.74 0 0 1 -.1 4.99z"/><path d="m839.67 385.68h-.06v.41c-.12 2.06-1 3.77-2.15 4.38a2 2 0 0 1 -.91.25h-.15c-8 .13-59.52 1.31-102.68 10.75a34.89 34.89 0 0 0 -26 43.8c0 .13.07.25.11.37.2.61.38 1.21.55 1.83a170.68 170.68 0 0 0 11.62 29.06 175.05 175.05 0 0 1 -9.46-24.61c-.17-.62-.35-1.22-.55-1.83 0-.12-.07-.24-.11-.37a34.89 34.89 0 0 1 26-43.8c43.16-9.44 94.71-10.62 102.68-10.75h.15a2 2 0 0 0 .91-.25c1.14-.61 2-2.32 2.15-4.38.23-2.38-.77-4.41-2.1-4.86z"/></g><path d="m838.53 370.38c-1.2 0-2.95-2.33-3.54-5.68s.26-6.14 1.39-6.54h.14.15c1.2 0 3 2.33 3.54 5.67a11.09 11.09 0 0 1 -.08 4.51c-.29 1.09-.78 1.86-1.33 2h-.12-.15z" fill="#0d47a1"/><path d="m839.47 393.89c-.73-.1-1.65-1.56-1.53-3.77s1.23-3.58 2-3.58h.17c.76.25 1.51 1.76 1.4 3.74a4.25 4.25 0 0 1 -1.56 3.46.83.83 0 0 1 -.4.11z" fill="#0d47a1"/><g clip-path="url(#c)"><path d="m606.2 446.18a100.53 100.53 0 0 1 17.42 4.55c6 2.16 11.9 5 16.19 9.66.31.34.61.69.9 1a42.25 42.25 0 0 0 30 15.65 147.09 147.09 0 0 1 23.82 3.37 195.38 195.38 0 0 1 28.7 9.13c14.33 5.69 28.73 13 38 25.3-13.23 18.32-37.18 28.16-59.48 24.55-7.24-1.19-14.19-3.66-21.11-6.12l-62.73-22.27c-6.91-2.5-13.91-5-20.07-8.95s-11.56-9.57-13.84-16.55c-2.54-7.76-.89-16.56 3.46-23.48s11.2-12 18.7-15.28" fill="#1e88e5" opacity=".35"/></g><path d="m972.8 924.91c.78-1.57 1.63-3.09 2.48-4.62 29.32-52.45 48.3-146.09 54-177.33q1.05-5.09 1.82-10.26v-.22a186.43 186.43 0 0 0 2-27.11c0-102-82.66-184.62-184.62-184.62a183.9 183.9 0 0 0 -71.4 14.33 191.06 191.06 0 0 0 -130.86-52.26c-104.33-.39-190.44 83.6-192.51 187.91-2.14 107.73 84.55 195.73 191.79 195.73 4.06 0 8.09-.14 12.1-.39l-.17.39s47.77-6.33 130.92 13.5c4.95 1.71 10 3.21 15.14 4.49a148 148 0 0 1 17.51 5.41c30 11.62 61.69 29.28 79.47 39.77a205.42 205.42 0 0 1 22.25 15.24c6.12 4.8 14.31 10.39 19.69 10.39 8.67 0 18.28-12.48 22.53-18.61 1.33-1.92 2.73-3.79 4.14-5.65a39 39 0 0 0 3.72-6.09z" fill="#b71c1c"/><path d="m460.47 677.44c2.07-104.32 88.18-188.31 192.53-187.92a191.06 191.06 0 0 1 130.86 52.26 184.73 184.73 0 0 1 198.55 36.45 184.73 184.73 0 0 0 -205.24-43.14 191.06 191.06 0 0 0 -130.86-52.26c-104.33-.39-190.44 83.6-192.51 187.91a191.31 191.31 0 0 0 59.54 142.84 191.17 191.17 0 0 1 -52.87-136.14z" fill="#ef5350"/><path d="m1033.17 705.38a184.06 184.06 0 0 0 -57.47-133.84 183.93 183.93 0 0 1 50.78 127.15 186.43 186.43 0 0 1 -2 27.11v.22q-.76 5.18-1.82 10.26c-5.75 31.24-24.73 124.88-54 177.33-.85 1.53-1.7 3-2.48 4.62a39 39 0 0 1 -3.74 6.09c-1.41 1.86-2.81 3.73-4.14 5.65-4.25 6.13-13.86 18.61-22.53 18.61-5.38 0-13.57-5.6-19.69-10.39a205.42 205.42 0 0 0 -22.25-15.24c-17.78-10.49-49.44-28.15-79.47-39.77a148 148 0 0 0 -17.38-5.39c-5.13-1.28-10.19-2.78-15.14-4.49-83.15-19.83-130.92-13.5-130.92-13.5l.17-.39c-4 .25-8 .39-12.1.39a191.13 191.13 0 0 1 -132.25-52.89 191.25 191.25 0 0 0 138.94 59.58c4.06 0 8.09-.14 12.1-.39l-.17.39s47.77-6.33 130.92 13.5c4.95 1.71 10 3.21 15.14 4.49a148 148 0 0 1 17.33 5.38c30 11.62 61.69 29.28 79.47 39.77a205.42 205.42 0 0 1 22.25 15.24c6.12 4.8 14.31 10.39 19.69 10.39 8.67 0 18.28-12.48 22.53-18.61 1.33-1.92 2.73-3.79 4.14-5.65a39 39 0 0 0 3.74-6.09c.78-1.57 1.63-3.09 2.48-4.62 29.32-52.45 48.3-146.09 54-177.33q1.05-5.09 1.82-10.26v-.22a186.43 186.43 0 0 0 2.05-27.1z" fill="#b71c1c" opacity=".35"/><path d="m780.43 536.07c1.79 2.75 3.3 5.43 4.79 8.21s2.85 5.57 4.15 8.41a166.49 166.49 0 0 1 6.8 17.44 147.76 147.76 0 0 1 7.11 36.62 130.57 130.57 0 0 1 -.21 18.66c-.1 1.56-.35 3.1-.52 4.64l-.27 2.32c-.12.76-.27 1.53-.39 2.3-.28 1.52-.52 3.06-.83 4.58l-1 4.54c-.31 1.52-.8 3-1.22 4.49s-.82 3-1.36 4.45c-1 2.92-2 5.86-3.32 8.69a130.17 130.17 0 0 1 -8.45 16.5.35.35 0 0 1 -.47.12.34.34 0 0 1 -.13-.45 126.21 126.21 0 0 0 7.89-16.59c1.19-2.83 2.08-5.77 3-8.68.5-1.45.8-2.95 1.21-4.43s.81-3 1.08-4.46l.9-4.49c.26-1.51.45-3 .68-4.54.1-.75.23-1.51.32-2.26l.2-2.29c.12-1.52.32-3 .37-4.56a126.72 126.72 0 0 0 -.32-18.28 144.5 144.5 0 0 0 -8-35.57 162 162 0 0 0 -7.12-16.8c-1.34-2.72-2.76-5.41-4.26-8s-3.1-5.26-4.75-7.63v-.06a2.5 2.5 0 1 1 4.1-2.86z" fill="#8e1616"/><path d="m803.45 599.1a115 115 0 0 1 7.92 13.22 103.66 103.66 0 0 1 6 14.1 68.34 68.34 0 0 1 3.41 14.93 47.55 47.55 0 0 1 .22 7.65 39.61 39.61 0 0 1 -1.22 7.51 39.75 39.75 0 0 0 .85-7.53 48.66 48.66 0 0 0 -.56-7.53 67.5 67.5 0 0 0 -4.07-14.5 103.37 103.37 0 0 0 -6.62-13.54 110.89 110.89 0 0 0 -8.33-12.47 1.5 1.5 0 0 1 2.35-1.94s.03.09.05.1z" fill="#8e1616"/><path d="m504.31 668.27c-.81 5.13-1.34 10.48-1.73 15.75s-.58 10.62-.58 15.98a204.23 204.23 0 0 0 2.32 31.81c.84 5.25 1.9 10.47 3.24 15.63a140.17 140.17 0 0 0 5 15.17 115.16 115.16 0 0 0 7.11 14.34 95.53 95.53 0 0 0 9.49 12.92 96 96 0 0 1 -10-12.59 114.33 114.33 0 0 1 -7.73-14.18 139.82 139.82 0 0 1 -5.65-15.15c-1.56-5.16-2.84-10.41-3.91-15.71a208.12 208.12 0 0 1 -3.6-32.18c-.19-5.4-.21-10.81 0-16.22s.49-10.78 1.15-16.28a2.5 2.5 0 0 1 5 .6s0 0 0 .08z" fill="#8e1616"/><path d="m795.8 563.09c1.7-.49 3.24-.85 4.86-1.18s3.2-.62 4.81-.87c3.21-.48 6.44-.85 9.67-1.06a118.64 118.64 0 0 1 38.41 3.72c1.55.45 3.11.84 4.64 1.34l4.58 1.53 4.5 1.75c1.51.55 2.94 1.29 4.42 1.93a112.76 112.76 0 0 1 16.74 9.44l2 1.33 1.93 1.44 3.83 2.88 3.68 3.09c.61.52 1.23 1 1.83 1.55l1.74 1.64a156.22 156.22 0 0 1 24.46 29.25 155.7 155.7 0 0 0 -25.29-28.32l-1.78-1.55c-.61-.5-1.24-1-1.86-1.47l-3.73-2.93-3.88-2.72-1.94-1.35-2-1.25a110.76 110.76 0 0 0 -16.73-8.72c-1.46-.58-2.88-1.25-4.38-1.75l-4.44-1.56-4.51-1.34c-1.51-.44-3-.77-4.56-1.16a115.51 115.51 0 0 0 -18.58-2.75 113.46 113.46 0 0 0 -18.71.33c-3.11.3-6.19.76-9.25 1.32-1.52.29-3 .61-4.54 1s-3 .78-4.37 1.21h-.08a2.5 2.5 0 1 1 -1.55-4.75z" fill="#8e1616"/><path d="m504 676.57a163.77 163.77 0 0 0 8.85 15.27 130.9 130.9 0 0 0 10.63 14.16 78.7 78.7 0 0 0 6.11 6.41 55.38 55.38 0 0 0 6.86 5.56 34.92 34.92 0 0 0 7.84 4.06 22.13 22.13 0 0 0 8.74 1.34 22.51 22.51 0 0 1 -8.93-.74 36.23 36.23 0 0 1 -8.31-3.6 56.41 56.41 0 0 1 -7.44-5.21 82.66 82.66 0 0 1 -6.7-6.12 135.76 135.76 0 0 1 -11.83-13.7 169.38 169.38 0 0 1 -10.19-15.08 2.5 2.5 0 1 1 4.29-2.56l.09.15z" fill="#8e1616"/><g clip-path="url(#d)"><path d="m942.93 955.24c3.18 8.09-13.89 9.27-22.39 11-30.77 6.4-60.85-11-88.22-26.42-49.65-28-104-52.14-160.94-51.29-16.27.24-32.55 2.54-48.77 1.23-40.2-3.25-75.13-27.91-106.77-52.92-10.55-8.34-21.11-16.94-29.23-27.66-8.84-11.65-14.47-25.38-19.21-39.21-12.5-36.43-19.4-75.6-13.4-113.67 10-62.83 54.5-115.58 106.46-152.32 22.54-15.91 49.54-29.98 76.54-24.54a22.93 22.93 0 0 1 7.45 3.16c14.82 9.16 21.1 27.52 15.75 44.1-5.64 17.46-17.36 33.63-28.67 48.54-34.33 45.22-84.92 73.62-121.42 117.09-30.69 36.54 12.25 94.29 41.72 114.57 34.8 24 78.23 31.33 120.34 34.73s85 3.48 125.56 15.24c28.86 8.36 55.76 22.42 81.34 38.18 22.58 13.92 56 34.85 63.83 60.19" fill="#b71c1c" opacity=".45"/></g><path d="m647.67 482.84c-23.91-31.21-63.54-46.12-105.93-46.12a136.12 136.12 0 0 0 -107.34 219.82 50.87 50.87 0 0 0 3.35 4.11c9.17 10.08 22.78 19.79 37.08 16.41 107.02-25.26 186.67-176.18 172.84-194.22z" fill="#e57373"/><path d="m647.67 482.84c-23.91-31.21-63.54-46.12-105.93-46.12-1 0-2.08 0-3.11 0 41 .82 79.11 15.75 102.35 46.08 13.83 18-65.82 169-172.84 194.22-.86.2-1.72.36-2.57.47a25.94 25.94 0 0 0 9.26-.47c107.02-25.22 186.67-176.14 172.84-194.18z" fill="#e57373" opacity=".25"/><path d="m444.44 660.65a50.87 50.87 0 0 1 -3.35-4.11 136.12 136.12 0 0 1 104.23-219.78c-1.19 0-2.38 0-3.58 0a136.12 136.12 0 0 0 -107.34 219.78 50.87 50.87 0 0 0 3.35 4.11c8.61 9.47 21.16 18.61 34.51 16.88-10.79-1.37-20.66-9.01-27.82-16.88z" fill="#ef9a9a"/><path d="m612.53 472.18c2.42 2.79 3.2 6.48 3.5 10.06s.35 7.32.41 11c.12 7.54-.11 15.18-1.89 22.55a44.43 44.43 0 0 1 -4.62 11.81.75.75 0 0 0 1.3.76c3.91-6.83 5.69-14.54 6.36-22.33.34-4 .41-8 .36-11.94s-.09-7.91-.42-11.83-1.23-8-3.94-11.12c-.63-.73-1.69.33-1.06 1.06z" fill="#e57373" opacity=".35"/><path d="m447 633.76c23.34 2 46-5.89 66.74-15.76 6-2.87 12-5.93 17.91-9.06.85-.45.09-1.74-.76-1.29-20.31 10.72-41.63 21.29-64.69 24.2a91.31 91.31 0 0 1 -19.2.41c-1-.08-1 1.42 0 1.5z" fill="#e57373" opacity=".35"/><path d="m487.41 645.42a217.38 217.38 0 0 0 57.92-28.16q7.44-5.12 14.43-10.82c.75-.61-.31-1.67-1.06-1.06a215.78 215.78 0 0 1 -54.89 32.56q-8.26 3.36-16.8 6c-.92.28-.52 1.73.4 1.44z" fill="#e57373" opacity=".35"/><path d="m827.67 468.79a48 48 0 0 1 17.33 28.45 43.92 43.92 0 0 1 .73 5.61c.14 2.1.11 4.24-1.08 6.06-.53.81.76 1.56 1.29.75 2.12-3.24 1.36-7.68.78-11.28a48.82 48.82 0 0 0 -3.4-11.59 49.36 49.36 0 0 0 -14.55-19.07c-.75-.59-1.82.47-1.06 1.07z" fill="#e57373" opacity=".35"/><path d="m811.09 442.44c7.31-.16 13.22 5.79 18.39 10.22s10.33 9.18 14.32 14.8a39.16 39.16 0 0 1 5.32 10.27c.31.91 1.76.52 1.45-.4-2.28-6.81-6.52-12.65-11.47-17.78-2.56-2.66-5.31-5.14-8.1-7.55a110.69 110.69 0 0 0 -8.6-7c-3.35-2.36-7.14-4.16-11.31-4.07a.75.75 0 0 0 0 1.5z" fill="#e57373" opacity=".35"/><path d="m506 891-.4-1.82c.06.31.1.62.16.93s.16.62.24.89z" fill="#494949"/><path d="m346.06 921.16 1.78 8.07a30.07 30.07 0 0 0 -.58-4.06 29.07 29.07 0 0 0 -1.2-4.01z" fill="#494949"/><path d="m352.07 911.01h162.67v56.9h-162.67z" fill="#494949" transform="matrix(.97644687 -.21575798 .21575798 .97644687 -192.55 115.68)"/><path d="m507 894.06a30.47 30.47 0 0 1 -.95-3c-.08-.3-.17-.59-.24-.89s-.1-.62-.16-.93a30.28 30.28 0 0 1 14.35-31.73 18.65 18.65 0 0 0 -12.88-1.82l-175.65 38.82a18.57 18.57 0 0 0 -10.9 7.07 30.27 30.27 0 0 1 25.49 19.58 29.07 29.07 0 0 1 1.2 4 30.07 30.07 0 0 1 .58 4.06l158.84-35.11z" fill="#565656"/><path d="m351.84 925.23a30.07 30.07 0 0 0 -.58-4.06 29.07 29.07 0 0 0 -1.2-4 30.28 30.28 0 0 0 -25.41-19.57 18.61 18.61 0 0 0 -4.08 4 30.27 30.27 0 0 1 25.49 19.58 29.07 29.07 0 0 1 1.2 4 30.07 30.07 0 0 1 .58 4.06l158.84-35.11.27-.06c-.35-.94-.65-1.92-.91-2.91l-154.2 34.08z" fill="#757575"/><path d="m516.12 860.22a30.72 30.72 0 0 1 3.86-2.71c-.28-.15-.57-.28-.86-.41a30.48 30.48 0 0 0 -3 3.12z" fill="#565656"/><path d="m520 857.51a18.92 18.92 0 0 0 -6.78-2.12 30.24 30.24 0 0 0 -11.6 29.82c.06.31.1.62.16.93s.16.59.24.89a30.47 30.47 0 0 0 .95 3l-.27.06-155.59 34.4c.05.22.12.43.17.65a30.07 30.07 0 0 1 .58 4.06l158.84-35.11.27-.06a30.47 30.47 0 0 1 -.95-3c-.08-.3-.17-.59-.24-.89s-.1-.62-.16-.93a30.28 30.28 0 0 1 14.38-31.7z" fill="#565656"/><path d="m283.27 636.16 1 4.6c-.11-.82-.26-1.64-.44-2.46s-.34-1.44-.56-2.14z" fill="#494949"/><path d="m442.59 604.18-.42-1.92c.06.33.11.67.18 1s.17.61.24.92z" fill="#494949"/><path d="m275.01 562.06h162.47v55.73h-162.47z" fill="#494949" transform="matrix(.97644687 -.21575798 .21575798 .97644687 -118.93 90.79)"/><path d="m442.59 604.18c-.07-.31-.17-.6-.24-.91s-.12-.68-.18-1c-.16-.91-.29-1.81-.38-2.71l-.21.05-158.64 35.05h-.15c.17.48.33 1 .48 1.46.22.7.42 1.41.58 2.14s.33 1.64.44 2.46a30.31 30.31 0 0 1 -15.23 30.5 18.62 18.62 0 0 0 13.07 1.92l175.63-38.82a18.6 18.6 0 0 0 11.24-7.47 30.26 30.26 0 0 1 -26.41-22.67z" fill="#565656"/><path d="m442.59 604.18c-.07-.31-.17-.6-.24-.91s-.12-.68-.18-1c-.16-.91-.29-1.81-.38-2.71l-.21.05-5.58 1.23c.06.47.14.94.22 1.42s.11.67.18 1 .17.6.24.91a30.26 30.26 0 0 0 26.36 22.68 18.6 18.6 0 0 1 -11.22 7.51l-175.65 38.82c-.35.08-.69.13-1 .18a18.34 18.34 0 0 0 7-.18l175.63-38.82a18.6 18.6 0 0 0 11.24-7.51 30.26 30.26 0 0 1 -26.41-22.67z" fill="#565656" opacity=".57"/><path d="m290.29 642.76c-.11-.82-.26-1.64-.44-2.46s-.36-1.44-.58-2.14c-.15-.49-.31-1-.48-1.46h.15l153.32-33.89-.09-.51c-.16-.91-.29-1.81-.38-2.71l-.21.05-158.64 35.02h-.15c.17.48.33 1 .48 1.46.22.7.42 1.41.58 2.14s.33 1.64.44 2.46a30.31 30.31 0 0 1 -15.23 30.5 19 19 0 0 0 6.3 2.15l-.3-.15a30.31 30.31 0 0 0 15.23-30.46z" fill="#757575"/><path d="m469 626.85a32.39 32.39 0 0 1 -3.57-.58c1 .45 2 .86 3.08 1.21.14-.21.31-.41.49-.63z" fill="#757575"/><path d="m533.14 836.31-23.23-105.11 6.07-1.34a5.48 5.48 0 0 0 4.15-6.51l-10-45.42a5.48 5.48 0 0 0 -6.51-4.16l-6.07 1.34-7.66-34.63a19.32 19.32 0 0 0 -23-14.66l-195.84 43.29a19.31 19.31 0 0 0 -14.65 23l43.28 195.83a19.33 19.33 0 0 0 23 14.66l195.84-43.29a19.32 19.32 0 0 0 14.62-23z" fill="url(#e)"/><rect fill="#37474f" height="213.07" rx="6" transform="matrix(.21575798 .97644687 -.97644687 .21575798 1055.75 213.79)" width="213.07" x="288.23" y="657.66"/><path d="m435.96 595.91-10.39-49.11 4.48-.94 11.52 54.52-158.95 33.61-1.14-5.41z" fill="#494949" opacity=".21"/><path d="m503.44 901.77 10.83 49 4.46-.98-12.03-54.42-158.63 35.07 1.19 5.41z" fill="#494949" opacity=".21"/><path d="m275 693a6 6 0 0 1 4.57-7.15l196.33-43.4a6.32 6.32 0 0 1 1-.13 6 6 0 0 0 -7-3.87l-196.33 43.4a6 6 0 0 0 -4.57 7.15l43.4 196.34a6 6 0 0 0 6.2 4.68 5.31 5.31 0 0 1 -.2-.68z" fill="#546e7a"/><path d="m430.68 550.26-1.12-5.07-158.64 35.06 12.02 54.41 4.88-1.07-10.9-49.34z" fill="#8c8c8c"/><path d="m294.41 803.78 34.65-7.69-.03.02 2.35-7.91.02-.07.05.05 5.48 6.18-.08.03-6.68-61.57.2-.04 26.2 86.61-.36.07-2.92-32.62-.05-.54.4.36 3.33 2.96-.36.15 1.2-23.27.05-.94.4.85 9.26 19.51-.43-.06 3.42-4.04.18-.22.2.2 3.17 3.2-.23-.07 58.13-11.97-.15.13 2.32-6.26.1-.28.22.2 5.69 5.32-.32.16-3.22-46.31-.08-1.24.38 1.18 20.75 64.42-.18.03-.95-24.84v-.13l.11.07 3.62 2.49-.1.05 1.78-18.05.01-.14.08.12 9.73 15.31h-.05l2.16-4.17.01-.03.03.02 4.15 2.99-.02-.01 24.2-5.73-24.19 5.77-.01.01-.01-.01-4.15-2.98.04-.01-2.16 4.18-.02.04-.03-.04-9.76-15.29.09-.02-1.75 18.05-.01.11-.09-.07-3.63-2.48.11-.05.99 24.83.03.66-.2-.63-20.87-64.38.3-.05 3.29 46.3.04.49-.36-.33-5.7-5.31.32-.08-2.3 6.26-.04.11-.11.02-58.12 12.08-.14.03-.1-.1-3.17-3.2.39-.01-3.43 4.04-.25.3-.17-.36-9.23-19.53.45-.09-1.24 23.27-.03.45-.33-.3-3.32-2.96.35-.18 2.87 32.63.16 1.78-.52-1.71-26.05-86.66.2-.04 6.57 61.58.02.15-.1-.11-5.47-6.19.07-.01-2.36 7.91-.01.02h-.02z" fill="#fff" opacity=".37"/></svg>